<svg width="80" height="80" viewBox="0 0 80 80" fill="none" xmlns="http://www.w3.org/2000/svg">
<path d="M40 0C17.9116 0 0 17.9057 0 39.9866C0 62.0944 17.9116 80 40 80C62.0883 80 80 62.0944 80 40.0134C80.0267 17.9057 62.1151 0 40 0Z" fill="white"/>
<path d="M17.4555 17.2366C17.991 17.2366 18.4997 17.2633 19.062 17.2901C24.6577 12.3922 31.9937 9.44802 39.9991 9.44802C49.1557 9.44802 57.402 13.3022 63.2119 19.4848C63.7206 17.4507 62.1677 14.7475 58.4997 12.3386C53.145 8.91273 46.7996 6.93213 39.9991 6.93213C30.3337 6.93213 21.6055 10.9201 15.3672 17.3436C15.7956 17.2901 16.2507 17.2633 16.7059 17.2366C16.9468 17.2366 17.1878 17.2366 17.4555 17.2366Z" fill="#242122"/>
<path d="M39.6773 30.6991C38.0708 30.8329 36.7054 31.9303 36.5983 33.1615C36.4912 34.3926 37.7228 35.3027 39.3292 35.1688C40.9356 35.035 42.3011 33.9376 42.4082 32.7065C42.5153 31.4753 41.2837 30.5653 39.6773 30.6991Z" fill="#242122"/>
<path d="M54.8861 30.5657C58.5005 30.4051 61.6063 29.4684 63.7482 27.916C65.3011 26.7651 66.3185 25.293 66.613 23.5533C66.961 21.546 66.2649 19.4583 64.7924 17.5312C65.1404 18.468 65.2475 19.4316 65.0869 20.3683C64.5246 23.6872 60.7495 25.8283 55.8499 26.0157C43.8553 26.4707 27.2288 19.4048 16.7602 19.6992C13.6009 19.8063 10.7094 20.9839 8.80843 22.9377C7.84457 23.928 7.12168 25.1325 6.74685 26.4975C6.45234 27.5948 6.42556 28.7189 6.61298 29.7895C6.93427 31.8237 8.70133 33.7507 11.3252 34.3128C12.2355 34.5001 13.1726 34.4734 13.949 34.3128C12.3693 33.2154 11.4323 31.7166 11.5126 30.1107C11.6197 28.1569 13.2261 26.5242 15.5286 25.6678C16.4925 25.3198 17.617 25.0789 18.795 25.0254C29.3975 24.6507 42.8111 31.0743 54.8861 30.5657Z" fill="#242122"/>
<path d="M70.5745 32.7867L71.3777 28.879C71.5116 28.2902 71.8329 27.514 72.8235 27.1929L72.877 26.8984L70.1193 27.2196C67.6294 27.514 65.9426 29.9764 65.4607 32.2782L65.2465 33.4023L63.6133 33.5896L63.1314 35.9985L64.7646 35.8111L63.0511 44.3223C62.9975 44.697 62.944 45.0717 62.944 45.3929C62.4085 45.9818 61.7927 46.4368 61.1769 46.7044C59.6508 47.32 58.6602 46.4903 58.9547 44.8041L60.213 38.5679C60.3737 37.765 60.2934 37.0155 60.0792 36.3732C59.7579 35.3561 59.035 34.6067 58.0444 34.2588C57.4553 34.0446 56.786 33.9911 56.0631 34.0982C54.1622 34.3658 52.6361 35.4097 51.6187 36.8014C51.4312 37.0423 51.2706 37.31 51.11 37.5776C51.0296 36.8014 50.7887 36.1323 50.2532 35.7308C49.8248 35.4097 49.2893 35.2758 48.861 35.3294L45.541 35.7041L45.4875 35.9985C45.5678 35.9985 45.6213 35.9985 45.6749 35.9985C45.8623 36.0252 45.9962 36.0788 46.0765 36.1858C46.13 36.2661 46.1836 36.3464 46.2104 36.4535C46.371 36.9352 46.2371 37.6847 46.1568 38.0058L44.2827 47.2129C43.6936 47.9624 42.944 48.6047 42.1675 48.9259C40.6414 49.5415 39.6508 48.7118 39.9453 47.0256L41.043 41.5656C41.3911 39.8526 41.5785 37.765 40.4005 36.8817C39.9721 36.5605 39.4366 36.4267 39.0082 36.4802L35.6883 36.855L35.6347 37.1494C36.7592 37.0155 36.4379 38.6214 36.3308 39.13L34.5905 47.6412C34.537 47.8821 34.5102 48.0962 34.5102 48.3103C33.8944 49.0865 33.1448 49.7556 32.3415 50.0768C30.8154 50.6924 29.8248 49.8627 30.1193 48.1765L32.3951 36.962C32.7432 35.2491 32.9306 33.1614 31.7525 32.2782C31.3241 31.957 30.7887 31.8232 30.3603 31.8767L27.0403 32.2514L26.9868 32.5458C28.1113 32.412 27.79 33.9911 27.6829 34.5264V34.5532C27.6829 34.5532 27.6829 34.5532 27.6829 34.5264L24.7913 48.7921C24.4165 50.9065 24.8984 52.4053 26.0229 53.1547C26.9332 53.7703 28.2987 53.8774 29.9587 53.3956C31.7793 52.8871 33.359 51.6291 34.6173 50.0768C34.8047 50.9332 35.2331 51.6024 35.8489 52.0038C36.7592 52.6194 38.1247 52.7265 39.7847 52.2447C41.3375 51.8165 42.703 50.853 43.8275 49.6218L43.533 51.1206L48.861 50.505L50.9761 40.0667C51.3242 38.7285 52.4219 37.6579 53.2519 37.31C54.4299 36.8282 55.2599 37.4705 54.9654 38.7553L53.5999 45.4732C53.2251 47.5876 53.707 49.0865 54.8315 49.8359C55.7418 50.4515 57.1073 50.5585 58.7673 50.0768C60.454 49.595 61.9266 48.4976 63.1314 47.1059C63.3456 47.8285 63.7472 48.3906 64.2827 48.7385C65.193 49.3541 66.5584 49.4612 68.2184 48.9794C68.3523 48.9527 68.5129 48.8991 68.6736 48.8188C70.039 48.2835 71.7793 46.7579 71.8864 44.9379C71.2171 45.6606 70.3068 45.8212 69.8516 45.8479C69.8248 45.8479 69.8248 45.8479 69.798 45.8479C69.7713 45.8479 69.7445 45.8479 69.7177 45.8479C68.7271 45.8479 68.1916 45.045 68.4058 43.7335L70.1193 35.2223L72.529 34.9546L73.0109 32.5458L70.5745 32.7867Z" fill="#242122"/>
<path d="M68.8076 51.3083C68.4327 51.4153 68.0579 51.4956 67.7098 51.5491C63.3725 62.6298 52.6094 70.4719 39.999 70.4719C29.5037 70.4719 20.2667 65.0119 14.9923 56.7951L14.5907 56.8486L12.1543 57.1162C17.7768 66.6445 28.1382 73.0413 39.999 73.0413C54.4836 73.0413 66.7728 63.4863 70.8424 50.3447C70.414 50.6124 69.9588 50.8533 69.5305 51.0138C69.2895 51.1477 69.0485 51.228 68.8076 51.3083Z" fill="#242122"/>
<path d="M20.1338 38.5683C20.1338 38.5683 21.6063 31.2348 21.6599 31.0206C21.7937 30.4318 22.115 29.6556 23.1057 29.3345L23.1592 29.04L20.3747 29.3612C17.8848 29.6556 16.2248 32.118 15.7429 34.4198L14.779 39.1839L13.1458 39.3713L12.6639 41.7801L14.2971 41.5927L11.6465 54.6807L16.9745 54.0652L19.6251 40.9772L24.1766 40.4419L24.6585 38.033L20.1338 38.5683Z" fill="#242122"/>
<path d="M22.7834 56.3131C23.0779 55.992 23.5866 55.992 23.9079 56.3131C24.2292 56.6076 24.2292 57.1161 23.9079 57.4373C23.6134 57.7584 23.1047 57.7584 22.7834 57.4373C22.4889 57.1429 22.4889 56.6343 22.7834 56.3131Z" fill="#242122"/>
<path d="M24.7668 58.2401C25.329 57.4639 26.3732 57.3034 27.1764 57.8922C27.7119 58.2937 27.8726 58.7754 27.8726 59.2572L27.0158 59.284C27.0158 58.9895 26.9087 58.7219 26.6677 58.5613C26.2929 58.2937 25.811 58.4007 25.5165 58.8022C25.222 59.2037 25.2487 59.7122 25.6236 59.9798C25.8913 60.194 26.159 60.1672 26.4536 60.0869L26.7213 60.8898C26.2126 61.0504 25.7039 61.0504 25.1149 60.6222C24.3652 60.0869 24.1778 59.0431 24.7668 58.2401Z" fill="#242122"/>
<path d="M27.6035 61.9872L28.2193 61.559C28.2996 61.6928 28.4067 61.7731 28.5138 61.8266C28.5942 61.8534 28.7012 61.8801 28.8351 61.8266L28.7548 59.0698L29.6651 59.5248V61.2378L30.977 60.1672L31.8606 60.5954L29.5848 62.2816C29.0493 62.6831 28.6745 62.7634 28.2193 62.5225C27.9248 62.3887 27.7374 62.2013 27.6035 61.9872Z" fill="#242122"/>
<path d="M33.0919 62.6832L32.4761 60.8364L33.4935 61.1041L33.7881 62.1479L34.618 61.4253L35.6087 61.6929L34.1361 62.9509L34.7519 64.8779L33.7345 64.6103L33.4132 63.4861L32.5297 64.2623L31.5391 63.9679L33.0919 62.6832Z" fill="#242122"/>
<path d="M38.3402 64.0213L38.0457 63.0577L37.5906 63.9677L38.3402 64.0213ZM37.7244 61.9336L38.608 62.0139L39.7325 65.4398L38.7686 65.3595L38.5812 64.7439L37.3228 64.6369L37.0283 65.1989L36.0645 65.1186L37.7244 61.9336Z" fill="#242122"/>
<path d="M42.2757 63.6198C42.597 63.5931 42.7844 63.4057 42.7576 63.138C42.7308 62.8436 42.5166 62.7366 42.1954 62.7633L41.767 62.7901L41.8473 63.6466L42.2757 63.6198ZM40.7764 62.0942L42.1954 61.9604C43.0253 61.8801 43.5876 62.2548 43.6679 63.0042C43.7482 63.7804 43.186 64.2354 42.356 64.3157L41.9009 64.3692L41.9812 65.306L41.0709 65.3863L40.7764 62.0942Z" fill="#242122"/>
<path d="M44.3389 61.7199L45.1956 61.4791L45.7043 63.2723L46.4272 61.1311L47.2572 60.917L48.114 64.102L47.2572 64.3429L46.7753 62.5497L46.0256 64.6641L45.1956 64.8782L44.3389 61.7199Z" fill="#242122"/>
<path d="M48.2734 60.5418L49.1034 60.1403L49.6924 61.3447L50.1208 59.6585L51.1115 59.1768L50.6028 60.9968L52.5572 62.1209L51.5666 62.6026L50.3082 61.8532L50.1744 62.335L50.5224 63.1112L49.7192 63.4859L48.2734 60.5418Z" fill="#242122"/>
<path d="M51.8066 58.7488L52.5295 58.2135L53.6272 59.7123L53.5469 57.4641L54.243 56.9556L56.1975 59.632L55.4479 60.1406L54.3769 58.6418L54.4305 60.89L53.7343 61.3985L51.8066 58.7488Z" fill="#242122"/>
<path d="M56.1164 57.4107C55.8219 57.0896 55.8219 56.6078 56.1164 56.2866C56.4377 55.9922 56.9196 55.9654 57.2409 56.2866C57.5354 56.6078 57.5354 57.0896 57.2409 57.4107C56.9464 57.7319 56.4377 57.7319 56.1164 57.4107Z" fill="#242122"/>
<path d="M33.3063 18.013L34.2969 16.8086C34.5379 16.5141 34.6182 16.3268 34.5647 16.1394C34.5111 15.9253 34.3505 15.845 34.1363 15.8986C33.9221 15.9521 33.7882 16.1127 33.6008 16.4606L32.8779 16.1127C33.1189 15.5774 33.3866 15.2562 34.0292 15.1224C34.7253 14.9618 35.3143 15.2562 35.4482 15.8718C35.5821 16.3803 35.3679 16.7283 34.9663 17.1833L34.5111 17.6918L35.823 17.3706L36.0105 18.0933L33.467 18.7089L33.3063 18.013Z" fill="#242122"/>
<path d="M38.5547 16.1395C38.5011 15.631 38.2334 15.2563 37.8586 15.2831C37.5105 15.3098 37.2963 15.7113 37.3231 16.2466C37.3766 16.7819 37.6444 17.1298 38.0192 17.1031C38.4208 17.0496 38.6082 16.6748 38.5547 16.1395ZM36.4396 16.3001C36.3592 15.3634 36.8947 14.5337 37.805 14.4534C38.7421 14.3731 39.3847 15.0957 39.465 16.0325C39.5453 16.9693 39.0366 17.799 38.0728 17.8793C37.1625 17.9596 36.5199 17.2637 36.4396 16.3001Z" fill="#242122"/>
<path d="M42.4642 16.2194C42.491 15.7109 42.2768 15.3094 41.9287 15.2827C41.5539 15.2559 41.3129 15.6039 41.2594 16.1392C41.2058 16.6744 41.4468 17.0492 41.7949 17.0759C42.1697 17.1027 42.4374 16.7547 42.4642 16.2194ZM40.3491 16.0589C40.4294 15.1221 41.072 14.3994 42.0091 14.4797C42.9461 14.56 43.4548 15.363 43.4013 16.2997C43.321 17.2365 42.6784 17.9592 41.7413 17.8789C40.7775 17.7986 40.2688 16.9956 40.3491 16.0589Z" fill="#242122"/>
<path d="M43.8819 17.3439L45.3009 16.7015C45.649 16.5409 45.8096 16.4071 45.8364 16.2197C45.89 16.0056 45.7829 15.8718 45.5419 15.8183C45.3277 15.7647 45.1403 15.845 44.819 16.0859L44.3371 15.4436C44.7922 15.0688 45.1671 14.9083 45.8096 15.0688C46.5058 15.2294 46.9074 15.7647 46.7467 16.3803C46.6396 16.8889 46.3183 17.103 45.7561 17.3439L45.1135 17.6115L46.4522 17.9059L46.2916 18.6286L43.748 18.0397L43.8819 17.3439Z" fill="#242122"/>
</svg>
