<svg width="145" height="141" viewBox="0 0 145 141" fill="none" xmlns="http://www.w3.org/2000/svg">
<g clip-path="url(#clip0_28_1097)">
<path d="M63.7553 88.2145C63.7061 85.7612 63.8173 83.3073 64.0882 80.8685C64.2772 78.3495 64.3815 76.3967 64.1591 76.8507C63.8785 81.0341 62.8772 85.1375 61.1995 88.98C59.7331 92.2517 58.0527 95.4232 56.1692 98.4739C54.5217 101.101 53.1357 103.882 52.0309 106.779C51.531 108.26 51.175 109.785 50.9678 111.334C50.7549 113.098 50.7226 114.879 50.8713 116.65C50.9302 117.417 53.3167 116.235 55.7514 114.409C57.8571 112.849 59.7371 111.005 61.3384 108.931C65.0232 103.331 65.4043 99.8519 65.2611 97.0709C65.1179 94.2899 64.1689 91.9285 63.7553 88.2145Z" fill="#D9BD20"/>
<path d="M85.4992 102.775C81.3403 104.612 78.665 104.598 75.6437 105.346C72.6224 106.095 69.2892 107.574 63.1835 110.944C61.9946 111.634 59.0492 113.649 56.47 115.376C53.8909 117.103 51.6205 118.572 52.2519 118.995C53.8012 120.013 55.5335 120.722 57.3526 121.08C59.1306 121.428 60.9576 121.441 62.7404 121.12C66.8024 120.3 70.6282 118.578 73.9351 116.081C78.0087 113.103 81.8019 109.76 85.2676 106.093C89.0862 102.178 92.9719 97.8147 97.2612 93.1404C97.5829 92.4746 95.7335 94.5472 93.2411 96.9191C90.9513 99.2282 88.3445 101.2 85.4992 102.775Z" fill="#D9BD20"/>
<path d="M72.8018 73.0361C72.5306 72.0188 72.339 70.982 72.2288 69.935L71.815 66.2547L71.5038 63.3714C71.3904 62.679 71.295 62.3173 71.2394 62.5599C71.4508 64.5818 71.5025 66.6173 71.3941 68.6473C71.2742 70.5402 71.0293 72.423 70.6611 74.2835C69.9688 77.8753 68.955 81.1344 68.0712 84.1042C66.3572 90.1386 65.2947 95.1079 68.2 101.544C68.3058 101.869 68.8205 101.589 69.4793 100.959C70.2905 100.094 71.0354 99.1682 71.7078 98.1909C73.0759 96.2671 74.2058 94.1845 75.0729 91.9888C75.4901 90.7211 75.8179 89.4257 76.0538 88.1121C76.2518 87.103 76.3648 86.079 76.3915 85.0509C76.4594 83.5536 76.2674 82.0558 75.8242 80.624C75.4344 79.4257 74.9598 78.2567 74.4038 77.1259C73.7943 75.7934 73.2594 74.428 72.8018 73.0361Z" fill="#D9BD20"/>
<path d="M95.2316 81.8855C93.8781 82.8499 92.4247 83.6659 90.8966 84.3192C89.6039 84.8976 88.41 85.3315 87.1541 85.9539C85.7198 86.6785 84.3641 87.549 83.1083 88.5515C82.3653 89.164 81.5508 89.8669 80.6411 90.6908C79.7313 91.5146 78.7565 92.4831 77.6425 93.5755C76.8099 94.4639 74.7755 96.9671 73.0399 99.1822C72.2718 100.125 71.5545 101.108 70.8912 102.127C70.3933 102.906 70.1908 103.421 70.5209 103.504C77.3893 105.126 83.0812 101.588 88.1694 95.5088C90.9319 92.1298 93.4414 88.5517 95.6775 84.8035L99.5358 78.4968C100.225 77.4083 100.867 76.279 101.573 75.14C102.279 74.0011 103.073 72.8559 103.745 71.683C103.821 71.3664 103.562 71.7425 103.051 72.4813L100.827 75.5736C99.9373 76.8544 98.9738 78.0826 97.9416 79.2519C97.1401 80.2288 96.231 81.1123 95.2316 81.8855Z" fill="#D9BD20"/>
<path d="M78.5006 57.3994C77.7105 55.4365 77.0777 53.414 76.6081 51.3508C75.988 49.2414 75.5502 47.6223 75.5305 48.0439C75.7806 48.9835 76.0038 49.9095 76.1932 50.8352C76.3827 51.7609 76.4676 52.6758 76.5761 53.5942C76.7712 55.3543 76.8461 57.1257 76.8002 58.8961C76.7774 62.2698 76.3373 65.4989 76.0915 68.4292C75.6066 74.3099 75.5974 79.1715 79.5813 84.2693C79.9457 84.7677 81.0652 82.8656 82.0054 80.517C82.4801 79.3461 82.888 78.1492 83.2273 76.9321C83.5034 76.0644 83.7013 75.1737 83.8188 74.2707C84.3421 68.7142 83.5779 65.9559 82.4957 63.84C81.9482 62.8199 81.3385 61.8344 80.67 60.8891C79.8632 59.78 79.1382 58.6137 78.5006 57.3994Z" fill="#D9BD20"/>
<path d="M100.104 61.8163C99.0325 62.8752 97.8637 63.8309 96.613 64.6706C95.5353 65.3921 94.5023 65.9756 93.4918 66.7313C91.4675 68.2325 89.4318 70.4219 86.3125 75.2086C86.0057 75.6789 85.5374 76.5833 84.9837 77.6389C84.43 78.6946 83.838 79.9423 83.2836 81.0992C82.2018 83.4266 81.3379 85.4586 81.9586 85.4695C88.4165 85.4186 92.6752 81.2704 96.1113 75.0452C99.5473 68.82 102.264 60.6972 106.214 51.3647C106.271 50.7848 105.401 52.8303 104.23 55.2988C103.06 57.7673 101.401 60.5969 100.104 61.8163Z" fill="#D9BD20"/>
<path d="M81.2221 42.9572C80.2349 41.3358 79.3841 39.635 78.6787 37.8726C77.8471 36.1126 77.2558 34.7456 77.2701 35.1336C78.5988 38.1195 79.4758 41.2865 79.8721 44.5305C80.0676 46.0602 80.2702 47.5426 80.3213 48.9735C80.3724 50.4043 80.5553 51.7922 80.6038 53.1117C81.0336 58.4251 81.7533 62.7687 86.1202 66.5971C86.5764 66.9983 87.1831 65.0725 87.6908 62.8424C88.0716 60.9617 88.2788 59.05 88.3096 57.1313C87.9787 52.156 86.8473 49.8204 85.6477 48.1018C84.4481 46.3832 82.8732 45.2693 81.2221 42.9572Z" fill="#D9BD20"/>
<path d="M101.492 43.9379C99.5311 46.563 97.8847 47.5709 96.3386 49.1968C94.7926 50.8227 93.2695 53.0358 91.2036 57.7149C90.5228 59.5477 89.9403 61.4155 89.4587 63.3104C88.7958 65.5462 88.3741 67.5576 88.9551 67.4468C94.6071 66.3344 97.7126 62.0908 99.8547 56.1301C101.997 50.1695 103.269 42.6746 105.477 33.8196C105.464 33.2966 104.962 35.2331 104.237 37.59C103.596 39.8141 102.674 41.9473 101.492 43.9379Z" fill="#D9BD20"/>
<path d="M82.569 31.354C81.5391 30.0733 80.6119 28.7133 79.7961 27.2866C78.9049 25.8602 78.1562 24.8026 78.2351 25.1135C81.5006 30.176 82.2766 35.6908 83.2653 40.1712C83.4828 41.266 83.7604 42.348 84.0971 43.4123C84.3795 44.4202 84.7652 45.3963 85.2481 46.3249C86.266 48.2811 87.7802 49.9353 89.639 51.1217C90.0656 51.3979 90.4112 49.6695 90.5091 47.6627C90.6126 46.0083 90.5526 44.3478 90.3299 42.7053C89.4541 38.5023 88.2051 36.5978 86.9591 35.2534C85.7131 33.9089 84.2303 33.1466 82.569 31.354Z" fill="#D9BD20"/>
<path d="M99.5604 29.7779C98.4601 31.5973 97.1926 33.3101 95.7742 34.8941C94.5794 36.4616 93.597 38.5434 92.4079 42.7797C92.2545 43.5142 91.8075 45.7582 91.6085 47.7643C91.4094 49.7704 91.1883 51.5368 91.6651 51.3814C93.8472 50.6486 95.7162 49.1969 96.9661 47.2639C97.6 46.2776 98.1305 45.2286 98.5493 44.1335C98.9723 42.9217 99.3186 41.6845 99.5864 40.4293C100.689 35.0655 100.898 28.5116 101.717 20.6594C101.575 20.2232 101.503 21.9299 101.134 24.0361C100.867 26.0115 100.338 27.9425 99.5604 29.7779Z" fill="#D9BD20"/>
<path d="M82.0341 21.104C81.5296 20.6958 81.068 20.2371 80.6567 19.7351C80.1781 19.1617 79.666 18.5543 79.1536 17.9807C78.1993 16.9115 77.4897 16.0767 77.5789 16.3506C78.3895 17.2831 79.1261 18.2774 79.7822 19.3244C80.3723 20.3776 80.9253 21.4204 81.4177 22.4494L82.6385 25.5414C83.0401 26.5326 83.2996 27.5701 83.6782 28.4566C85.0702 32.1772 86.5514 35.1731 90.4394 36.9806C90.8395 37.1757 90.8837 35.624 90.7571 33.8923C90.6109 32.494 90.3654 31.1078 90.0225 29.7443C89.5317 28.3893 88.8945 27.0919 88.1221 25.8752C87.6114 25.1024 86.9725 24.4226 86.2328 23.8651C85.6119 23.4062 84.9647 22.9839 84.2946 22.6004C83.6327 22.1877 82.8902 21.734 82.0341 21.104Z" fill="#D9BD20"/>
<path d="M96.4402 17.6211C96.1141 18.5635 95.6717 19.4615 95.1232 20.2944C94.6594 21.0403 94.2264 21.7088 93.8269 22.4112C93.3774 23.2744 93.0228 24.1838 92.7695 25.1234C92.3794 26.5701 92.1099 28.0466 91.9638 29.5377C91.8471 30.9639 91.8228 32.3961 91.891 33.8254C91.9028 35.5833 91.99 37.1594 92.3896 36.9394C96.2224 34.9275 97.4883 31.3057 97.7728 26.6349C98.0574 21.964 97.4713 16.3089 97.1461 9.4915C97.0238 9.11618 97.0811 10.6348 97.0688 12.4566C97.0747 13.4121 97.0107 14.3667 96.8775 15.3129C96.8028 16.0941 96.6564 16.8667 96.4402 17.6211Z" fill="#D9BD20"/>
<path d="M81.6958 1.19598C81.6958 1.19598 81.6958 1.19596 81.7124 1.24668C82.4811 2.43716 83.1421 3.69378 83.6878 5.0016C84.0734 6.15059 84.3878 7.32227 84.6291 8.50999C84.8172 9.63812 84.854 10.6809 84.9614 11.768C85.0688 12.8551 85.0728 13.7627 85.1136 14.7144C85.1601 15.6491 85.2756 16.5791 85.4592 17.4968C85.61 18.464 85.8837 19.408 86.2736 20.3059C86.7466 21.357 87.3016 22.3693 87.9334 23.3334C88.2976 23.8655 88.7155 24.425 89.1974 25.0085C89.6793 25.5921 90.1407 26.216 90.7132 26.871C91.4078 25.4948 91.9082 24.0289 92.2001 22.5152C92.4711 21.3088 92.5512 20.0673 92.4374 18.836C92.3323 17.7654 92.0981 16.7114 91.74 15.697C91.3505 14.7442 90.8756 13.8286 90.3211 12.9613C87.9766 9.41649 84.8859 6.44019 81.6958 1.19598Z" fill="#D9BD20"/>
<path d="M22.063 126.902L23.2207 126.839C23.9532 126.779 25.0059 126.773 26.2621 126.599C29.3259 126.278 32.3619 125.731 35.3454 124.964C38.3123 124.173 41.2162 123.163 44.0332 121.942C45.207 121.481 46.1147 120.96 46.7813 120.665C47.448 120.369 47.8172 120.159 47.8172 120.159L47.4643 119.455L45.6441 120.205C44.4936 120.703 42.7925 121.302 40.7572 121.943C35.752 123.437 30.5734 124.272 25.3523 124.427C20.1726 124.532 14.9981 124.042 9.93016 122.967L7.11047 122.337C6.28209 122.102 5.558 121.912 4.96532 121.746L3.10305 121.231L2.16475 124.791L4.72182 125.337C6.23087 125.699 8.29717 125.979 10.3564 126.307C12.4156 126.634 14.503 126.773 16.0649 126.814L17.9469 126.908L18.6655 126.909C19.9787 128.258 21.4292 129.467 22.9934 130.515C23.8028 131.07 24.6596 131.599 25.5569 132.114C26.4543 132.63 27.4096 133.048 28.3787 133.439C32.668 135.254 37.2591 136.251 41.915 136.378C47.1226 136.517 52.3129 135.719 57.238 134.021C62.333 132.286 67.0766 129.653 71.2447 126.248C74.6978 123.264 77.9121 120.014 80.8581 116.529C74.1547 122.46 66.2515 126.876 57.687 129.476C56.0336 130.015 54.3852 130.294 52.8851 130.615C51.3849 130.935 49.9029 131.07 48.5797 131.176C47.2564 131.282 45.9234 131.324 44.7089 131.315C43.4944 131.307 42.3376 131.235 41.2889 131.151C40.2402 131.066 39.1752 130.897 38.218 130.749C37.2931 130.624 36.3753 130.452 35.4685 130.231L33.0265 129.624C32.2352 129.399 31.4707 129.188 30.7266 128.971C27.8786 128.124 24.9864 127.433 22.063 126.902Z" fill="#D9BD20"/>
<path d="M71.2574 119.498C69.7415 121.25 68.5829 123.282 67.8466 125.479C67.1174 127.399 66.4158 128.976 64.8266 129.994C63.8896 130.534 62.8824 130.943 61.8335 131.208L62.5566 131.084C61.9644 131.222 61.445 131.335 60.9093 131.481C62.3081 131.286 63.7183 131.184 65.1307 131.177C67.0359 131.222 68.5201 132.355 70.3168 133.366C72.4846 134.779 75.0152 135.533 77.6025 135.538C78.4235 135.532 78.0536 135.807 76.9573 136.228C76.4132 136.43 75.6926 136.693 74.838 136.925C73.9835 137.156 72.9981 137.374 71.9658 137.596C71.4464 137.71 70.9205 137.829 70.3754 137.921L68.7193 138.143C67.6179 138.286 66.5278 138.431 65.5044 138.516C63.8815 138.637 62.2514 138.617 60.6319 138.458C59.6301 138.254 58.6581 137.923 57.7392 137.475C56.7699 137.028 55.8479 136.485 54.9873 135.854C53.734 134.951 52.5576 133.946 51.4701 132.849C51.4701 132.849 51.3828 132.853 51.2178 132.875L50.4968 132.907C49.8761 132.925 48.9935 132.956 47.9299 133C46.8662 133.045 45.6252 132.999 44.2952 132.97C43.6343 132.947 42.9506 132.961 42.2366 132.907L40.1285 132.71L37.9831 132.531L35.9517 132.207C34.6389 131.983 33.3969 131.828 32.364 131.548L28.8902 130.744L29.3822 129.061L32.7453 130.028C33.7489 130.35 34.9534 130.563 36.2335 130.851C36.8777 130.987 37.5444 131.126 38.2208 131.278L40.2912 131.574L42.3712 131.882C43.0528 131.96 43.7347 131.997 44.3905 132.054C45.7056 132.145 46.9332 132.281 47.9871 132.264L50.5986 132.298C51.2143 132.314 51.5846 132.271 51.5846 132.271C52.094 131.601 53.2247 130.169 54.4733 128.76C55.6013 127.34 56.9227 126.085 58.3992 125.032C59.5526 124.359 60.7538 123.77 61.9931 123.272C62.7432 122.927 63.5613 122.551 64.3681 122.174L65.5734 121.642L66.7497 121.071C67.495 120.72 68.2403 120.368 68.8752 120.098C69.5102 119.828 70.0677 119.535 70.4968 119.368C71.3342 119.018 71.719 118.995 71.2574 119.498Z" fill="#D9BC20"/>
<path d="M67.7166 130.567C67.7166 130.567 68.3268 130.385 69.2676 130.04C70.2084 129.694 71.5181 129.276 72.9172 128.761C74.3163 128.246 75.8204 127.724 77.1774 127.221C78.331 126.771 79.5243 126.432 80.7415 126.206C82.5729 125.854 84.166 126.564 86.0952 127.266C87.1269 127.642 88.1929 127.916 89.2781 128.084C90.6374 128.298 92.0239 128.271 93.3739 128.004C94.1424 127.846 93.8384 128.182 92.9271 128.758C91.4778 129.567 89.9884 130.303 88.4646 130.961C84.6955 132.54 79.9592 133.941 77.9564 134.008C76.7981 134.042 75.6407 133.911 74.5192 133.62C73.3722 133.311 72.2534 132.906 71.1752 132.408C70.1675 131.958 69.3117 131.496 68.709 131.158C68.1064 130.821 67.7166 130.567 67.7166 130.567Z" fill="#D9BC20"/>
<path d="M83.7652 112.664C83.1184 113.687 82.6074 114.79 82.245 115.945C81.9572 116.943 81.7317 117.957 81.5697 118.982C81.2091 120.869 80.9077 122.552 79.5854 123.834C78.6517 124.599 77.6395 125.262 76.5658 125.813C75.245 126.499 73.8857 127.107 72.4948 127.636C71.1344 128.162 69.8218 128.522 68.8877 128.823C68.3778 128.988 67.8598 129.127 67.3356 129.239L67.8031 128.229C68.0877 127.595 68.4899 126.713 68.9942 125.765C69.4986 124.818 70.0128 123.843 70.5818 122.887C71.0787 121.993 71.6923 121.169 72.4064 120.437C73.6456 119.286 76.9726 116.949 79.6881 115.035C81.0315 114.038 82.2127 113.162 82.9908 112.706C83.769 112.249 84.1157 112.092 83.7652 112.664Z" fill="#D9BC20"/>
<path d="M82.2753 124.707L83.6984 123.912C84.5834 123.437 85.7331 122.695 87.0298 121.974C89.5961 120.483 92.5161 118.709 94.2729 118.08C96.0298 117.451 97.7083 117.896 99.6991 118.26C102.108 118.825 104.627 118.7 106.967 117.899C107.693 117.643 107.453 118.012 106.588 118.744C106.14 119.076 105.601 119.557 104.921 120.051C104.242 120.545 103.429 121.037 102.576 121.569C101.723 122.101 100.832 122.662 99.9126 123.173C98.9935 123.684 98.0521 124.151 97.1739 124.581C96.3779 124.991 95.5584 125.354 94.7197 125.667C94.1149 125.907 93.4965 126.11 92.8676 126.276C92.3249 126.396 91.773 126.468 91.2179 126.494C90.6229 126.515 90.0271 126.5 89.4339 126.449C88.2751 126.344 87.1255 126.155 85.9944 125.882C85.0889 125.679 84.1947 125.429 83.3155 125.132C82.6672 124.869 82.2753 124.707 82.2753 124.707Z" fill="#D9BC20"/>
<path d="M95.1453 104.202C94.2824 106.296 93.8624 108.547 93.9115 110.812C93.8657 112.758 93.8663 114.508 92.7031 115.964C91.5399 117.421 88.8884 119.448 86.3576 120.974C85.0931 121.71 83.9274 122.404 83.0379 122.833L81.5522 123.542L81.8164 122.461C81.9864 121.781 82.24 120.889 82.525 119.863C82.8099 118.836 83.16 117.721 83.5614 116.689C83.7645 116.176 83.9868 115.689 84.2027 115.207C84.4109 114.759 84.6582 114.33 84.9416 113.925C85.2668 113.476 85.625 113.052 86.0133 112.657C86.4828 112.177 87.0175 111.61 87.5928 111.002C88.1682 110.394 88.8033 109.772 89.4368 109.161C90.0704 108.55 90.6783 107.878 91.2762 107.273C91.8742 106.669 92.4394 106.129 92.9624 105.64C93.4854 105.151 93.903 104.711 94.2489 104.404C95.0702 103.734 95.4217 103.584 95.1453 104.202Z" fill="#D9BC20"/>
<path d="M95.1562 116.68C95.2783 116.601 95.3954 116.514 95.5067 116.42C95.7339 116.252 96.0408 115.974 96.4222 115.66C97.1981 115.024 98.2677 114.161 99.4409 113.26C100.614 112.36 101.806 111.294 102.974 110.428C103.927 109.645 104.938 108.936 105.998 108.305C107.665 107.461 109.405 107.69 111.399 107.76C112.486 107.841 113.579 107.825 114.664 107.712C116.01 107.55 117.316 107.147 118.52 106.522C119.894 105.824 117.78 108.157 114.701 110.693C111.622 113.228 107.634 115.936 105.81 116.624C104.749 117.024 103.633 117.262 102.5 117.329C101.326 117.396 100.15 117.378 98.9786 117.275C97.8963 117.173 96.9225 117.04 96.2411 116.922C95.5596 116.803 95.1562 116.68 95.1562 116.68Z" fill="#D9BC20"/>
<path d="M105.072 94.4431C104.722 95.6223 104.528 96.8421 104.494 98.0716C104.491 99.1233 104.561 100.174 104.703 101.216C104.939 103.175 105.122 104.86 104.217 106.447C103.587 107.482 102.831 108.436 101.965 109.284C100.955 110.296 99.7968 111.366 98.6896 112.328C97.5823 113.29 96.4583 114.054 95.6648 114.653C95.2689 114.946 94.9445 115.187 94.7238 115.351C94.5031 115.514 94.3733 115.611 94.3733 115.611L94.4536 114.485C94.5106 113.788 94.6013 112.826 94.7345 111.771C94.8677 110.716 95.0595 109.578 95.3237 108.496C95.5045 107.456 95.8139 106.443 96.2446 105.479C97.0703 103.961 99.6331 100.661 101.703 97.918C103.773 95.1748 105.446 93.1294 105.072 94.4431Z" fill="#D9BC20"/>
<path d="M107.067 106.505C107.067 106.505 107.514 106.063 108.192 105.309C108.87 104.554 109.796 103.565 110.831 102.506C112.635 100.446 114.603 98.5349 116.715 96.7925C119.807 94.6802 123.671 96.7837 128.911 93.4301C129.56 92.9486 129.404 93.4165 128.785 94.3183C127.785 95.6095 126.719 96.8474 125.589 98.0269C124.938 98.762 124.193 99.4951 123.435 100.209C122.677 100.922 121.931 101.626 121.218 102.266C120.083 103.284 118.855 104.195 117.551 104.986C115.775 106.022 113.065 106.412 110.888 106.529C109.793 106.586 108.83 106.576 108.134 106.559C107.437 106.543 107.067 106.505 107.067 106.505Z" fill="#D9BC20"/>
<path d="M114.642 95.1109C113.993 96.8401 111.855 99.4923 109.908 101.641C108.9 102.711 107.943 103.672 107.24 104.365C106.537 105.058 106.058 105.484 106.058 105.484L105.992 104.365C105.951 103.672 105.904 102.7 105.9 101.637C105.805 99.4777 106.046 97.3174 106.612 95.2321C107.147 93.9921 107.758 92.7862 108.441 91.6214C108.878 90.8544 109.306 90.0744 109.743 89.3074C110.18 88.5404 110.666 87.7575 111.059 87.0129C111.939 85.4854 112.721 84.2208 113.258 83.4397C113.796 82.6587 114.086 82.4129 113.994 83.0751C113.014 88.4809 116.017 91.7161 114.642 95.1109Z" fill="#D9BC20"/>
<path d="M117.505 94.7385L120.536 90.5781C121.392 89.4804 122.234 88.242 123.063 87.2039C123.767 86.2865 124.541 85.4259 125.38 84.6301C126.684 83.4717 128.296 83.2716 130.16 82.9355C132.436 82.5986 134.581 81.6602 136.374 80.2174C137.503 79.2988 135.99 81.8299 133.83 84.8311C132.688 86.3024 131.417 87.8989 130.212 89.2454C129.261 90.3012 128.229 91.282 127.126 92.1787C125.575 93.3294 123.097 93.9904 121.101 94.3646C119.914 94.5823 118.711 94.7073 117.505 94.7385Z" fill="#D9BC20"/>
<path d="M121.42 72.0629C121.316 74.2113 121.699 76.3554 122.541 78.3346C123.141 80.0526 123.71 81.5521 123.265 83.2306C122.917 84.3107 122.436 85.3434 121.833 86.3052C121.143 87.5419 120.379 88.7366 119.547 89.8827C118.735 90.9985 117.984 92.0483 117.396 92.7466C117.109 93.1201 116.867 93.3903 116.686 93.5946L116.415 93.9067C116.415 93.9067 116.108 92.3536 115.787 90.3479C115.446 88.3394 115.43 86.2892 115.74 84.2756C116.088 83.038 116.54 81.8316 117.089 80.6689C117.704 79.2063 118.382 77.5161 119.067 76.0522C120.346 73.0706 121.491 70.8026 121.42 72.0629Z" fill="#D9BC20"/>
<path d="M125.972 82.5799L126.706 81.2908C127.153 80.5367 127.755 79.3956 128.45 78.2162C129.839 75.8978 131.308 73.158 132.501 71.9311C133.694 70.7042 135.154 70.2852 136.915 69.7433C137.881 69.473 138.82 69.1132 139.72 68.6687C140.8 68.0795 141.781 67.3244 142.628 66.431C143.118 65.9261 143.071 66.3234 142.691 67.2491C142.116 68.6074 141.444 69.9229 140.681 71.1853C139.102 74.0088 137.202 76.6405 135.019 79.028C133.363 80.3092 131.47 81.2516 129.45 81.8013C128.308 82.1329 127.146 82.3929 125.972 82.5799Z" fill="#D9BC20"/>
<path d="M130.209 70.8352C129.597 73.2254 128.641 75.5141 127.371 77.6292C126.718 78.7976 126.118 79.8869 125.589 80.6519C125.059 81.4168 124.773 81.871 124.773 81.871C124.773 81.871 124.281 80.3945 123.846 78.5336C123.263 76.6397 123.019 74.6579 123.125 72.6793C123.289 71.0688 124.478 67.4096 125.375 64.4001C125.879 62.9094 126.277 61.5474 126.572 60.7651C126.867 59.9828 127.117 59.6964 127.156 60.3318C127.22 61.4566 127.447 62.5661 127.829 63.6259C128.144 64.5198 128.518 65.3916 128.95 66.2354C129.726 67.7829 130.471 69.1816 130.209 70.8352Z" fill="#D9BC20"/>
<path d="M131.797 70.452C131.221 69.3832 130.848 68.2176 130.695 67.0135C130.375 64.5017 130.813 61.9516 131.953 59.6907C132.517 58.4169 134.304 55.7935 135.908 53.195C136.768 51.913 137.541 50.6354 138.214 49.603C138.677 48.841 139.218 48.1294 139.828 47.4797C140.077 48.3364 140.225 49.219 140.27 50.1099C140.417 51.5755 140.465 53.0493 140.413 54.5212C140.414 57.2147 140.13 59.9007 139.567 62.5347C138.893 65.145 137.321 67.434 135.125 68.9987C134.128 69.7071 132.994 70.2019 131.797 70.452Z" fill="#D9BC20"/>
</g>
<defs>
<clipPath id="clip0_28_1097">
<rect width="145" height="141" fill="white"/>
</clipPath>
</defs>
</svg>
