<svg width="614" height="888" viewBox="0 0 614 888" fill="none" xmlns="http://www.w3.org/2000/svg">
<path d="M407 490.766C404.964 486.878 402.193 483.43 399.955 479.67C397.49 476.012 396.174 471.701 396.176 467.29C396.359 464.768 397.201 462.338 398.617 460.243C400.034 458.148 401.975 456.461 404.248 455.351C404.902 454.987 405.623 454.76 406.368 454.684C407.112 454.609 407.864 454.686 408.578 454.91C409.485 455.319 410.274 455.95 410.871 456.744C415.099 461.68 418.001 467.609 419.304 473.975C420.607 480.341 420.268 486.934 418.32 493.132" fill="#E0D8C7"/>
<path d="M418.318 492.619L421.988 477.562C422.777 474.205 423.657 470.684 426.061 468.226C427.227 467.11 428.542 466.159 429.968 465.402C432.17 464.1 434.922 462.852 437.197 464.045C439.472 465.237 439.967 468.336 439.894 470.941C439.574 480.734 435.7 490.075 428.996 497.223" fill="#E0D8C7"/>
<path d="M428.758 497.094C430.556 493.634 432.47 490.235 434.5 486.897C437.839 481.395 441.839 475.801 447.838 473.49C450.498 472.463 454.168 472.536 455.434 475.085C456.011 476.591 456.011 478.257 455.434 479.762C453.893 485.039 451.257 489.933 447.697 494.123C444.138 498.314 439.735 501.707 434.776 504.082" fill="#E0D8C7"/>
<path d="M436.5 503.642L446.187 495.939C448.969 493.521 452.052 491.475 455.36 489.85C458.697 488.217 462.535 487.935 466.075 489.061C466.909 489.318 467.673 489.763 468.309 490.36C468.945 490.958 469.436 491.693 469.744 492.509C470.007 493.617 469.937 494.779 469.542 495.847C468.315 499.089 466.205 501.923 463.451 504.027C457.113 509.413 449.459 513.021 441.27 514.481" fill="#E0D8C7"/>
<path d="M443.253 514.28C452.775 511.914 462.828 509.548 472.259 512.207C474.115 512.645 475.851 513.491 477.34 514.684C478.076 515.287 478.665 516.049 479.062 516.914C479.459 517.778 479.655 518.721 479.634 519.672C479.475 520.74 479.058 521.752 478.418 522.622C477.779 523.491 476.936 524.191 475.964 524.661C473.095 525.971 469.934 526.515 466.791 526.238C456.939 526.238 446.463 524.954 438.758 518.792" fill="#E0D8C7"/>
<path d="M418.337 513.051C410.907 528.86 391.588 541.295 373.994 541.24C369.572 541.24 365.169 540.47 360.729 540.47C352.979 540.584 345.427 542.933 338.98 547.234C332.532 551.535 327.465 557.606 324.385 564.717" stroke="#E0D8C7" stroke-width="0.709442" stroke-miterlimit="10"/>
<path d="M378.91 522.258C379.024 517.493 378.742 512.726 378.066 508.007C377.186 502.12 376.232 495.921 372.434 491.299C365.682 497.516 364.105 507.604 364.747 516.756C365.297 524.624 367.572 533.024 373.773 537.903L377.443 541.002C376.332 539.669 375.586 538.07 375.278 536.362C375.094 533.996 378.819 528.861 378.91 522.258Z" fill="#E0D8C7"/>
<path d="M405.073 549.366C411.84 552.359 417.621 557.204 421.75 563.342C413.977 564.836 405.947 564.245 398.477 561.629C391.007 559.013 384.364 554.465 379.223 548.449C378.155 547.292 377.343 545.923 376.838 544.432C376.557 543.383 376.385 542.307 376.324 541.223C386.333 542.11 396.086 544.873 405.073 549.366Z" fill="#E0D8C7"/>
<path d="M393.898 535.958C395.653 533.841 396.852 531.32 397.384 528.622C397.87 526.991 398.178 525.312 398.302 523.615C398.329 521.469 398.107 519.327 397.641 517.233C397.329 515.399 396.999 513.711 396.687 511.969" stroke="#E0D8C7" stroke-width="0.702348" stroke-linecap="round" stroke-linejoin="round"/>
<path d="M395.588 535.776C404.723 533.38 414.41 534.263 422.961 538.27" stroke="#E0D8C7" stroke-width="0.709442" stroke-miterlimit="10"/>
<path d="M397.661 514.408C398.502 511.509 398.71 508.462 398.27 505.474C397.83 502.487 396.752 499.629 395.11 497.095C393.017 494.191 390.55 491.576 387.772 489.318C385.893 493.978 385.821 499.171 387.57 503.881C389.369 508.549 392.869 512.363 397.367 514.555" fill="#E0D8C7"/>
<path d="M421.309 537.444C424.427 535.335 428.647 536.179 432.078 537.921C436.628 540.251 440.591 544.432 441.086 549.513C440.279 550.183 439.337 550.672 438.324 550.947C437.311 551.223 436.251 551.277 435.215 551.108C431.705 550.863 428.372 549.471 425.73 547.147C423.118 544.788 421.548 541.49 421.364 537.976" fill="#E0D8C7"/>
<path d="M424.942 455.975C424.522 455.97 424.104 455.921 423.694 455.828H423.345C422.625 455.689 421.939 455.407 421.328 454.999C420.718 454.592 420.195 454.066 419.791 453.453C419.387 452.84 419.11 452.152 418.976 451.431C418.841 450.709 418.853 449.968 419.01 449.251C419.166 448.534 419.465 447.855 419.888 447.255C420.311 446.655 420.85 446.146 421.473 445.757C422.095 445.369 422.79 445.109 423.515 444.992C424.24 444.876 424.981 444.906 425.694 445.08L426.171 445.172C427.5 445.464 428.674 446.238 429.466 447.344C430.258 448.451 430.612 449.812 430.459 451.164C430.306 452.516 429.658 453.763 428.639 454.665C427.62 455.567 426.303 456.06 424.942 456.048V455.975Z" fill="#E0D8C7"/>
<path d="M451.819 464.925C451.252 464.931 450.688 464.844 450.149 464.668C448.871 464.246 447.783 463.389 447.075 462.245C446.367 461.101 446.085 459.745 446.278 458.414C446.494 457.106 447.164 455.917 448.171 455.054C449.177 454.192 450.456 453.713 451.782 453.7C452.734 453.719 453.667 453.976 454.495 454.447C455.323 454.919 456.019 455.59 456.521 456.4C457.022 457.209 457.313 458.132 457.367 459.083C457.42 460.033 457.235 460.983 456.827 461.843C456.359 462.77 455.643 463.548 454.759 464.092C453.875 464.636 452.857 464.924 451.819 464.925Z" fill="#E0D8C7"/>
<path d="M472.202 482.073C471.278 482.068 470.37 481.83 469.562 481.381C468.754 480.932 468.072 480.287 467.579 479.506C467.176 478.898 466.898 478.216 466.762 477.5C466.625 476.784 466.632 476.048 466.782 475.335C466.932 474.622 467.223 473.945 467.637 473.345C468.051 472.745 468.58 472.233 469.193 471.839C470.409 471.052 471.887 470.776 473.306 471.072C474.724 471.367 475.969 472.209 476.77 473.416L476.935 473.692C477.466 474.526 477.762 475.488 477.793 476.476C477.823 477.464 477.586 478.443 477.107 479.308C476.629 480.173 475.926 480.893 475.072 481.393C474.218 481.892 473.246 482.153 472.257 482.147L472.202 482.073Z" fill="#E0D8C7"/>
<path d="M484.237 506.723C483.302 506.725 482.381 506.488 481.563 506.036C480.744 505.583 480.055 504.93 479.559 504.137L479.43 503.935C478.822 502.725 478.681 501.333 479.035 500.026C479.389 498.719 480.212 497.588 481.348 496.85C482.484 496.112 483.852 495.818 485.191 496.026C486.529 496.233 487.745 496.927 488.604 497.974L488.805 498.304C489.184 498.922 489.436 499.608 489.549 500.323C489.661 501.038 489.631 501.769 489.461 502.472C489.291 503.176 488.983 503.839 488.556 504.424C488.128 505.008 487.59 505.503 486.971 505.879C486.15 506.396 485.207 506.687 484.237 506.723Z" fill="#E0D8C7"/>
<path d="M405.238 492.949L404.871 487.172C404.871 487.172 417.714 483.798 432.574 493.885C447.435 503.972 447.252 523.358 447.252 523.358C447.252 523.358 431.162 520.204 424.777 516.627" fill="#E0D8C7"/>
<path d="M441.215 520.699C437.645 511.919 431.612 504.358 423.841 498.928C419.597 495.6 414.52 493.5 409.164 492.857H408.724C408.1 492.857 407.495 492.857 406.889 492.857C406.324 492.872 405.76 492.921 405.201 493.004C405.641 496.911 407.586 503.899 415.145 510.85C422.609 517.212 431.84 521.141 441.601 522.111L441.215 520.699Z" fill="#E0D8C7"/>
<path d="M405.109 489.869C405.109 489.869 437.454 486.586 443.949 522.68" stroke="#E0D8C7" stroke-width="0.709442" stroke-linecap="round" stroke-linejoin="round"/>
<path d="M555.203 450.271C545.567 466.577 534.026 481.679 520.822 495.26C509.043 507.383 495.852 518.37 486.532 532.474C484.441 535.647 482.477 539.406 483.431 543.093C484.587 547.531 489.523 549.897 494.072 550.429C505.264 551.695 516.198 545.11 523.17 536.27C530.142 527.43 533.903 516.499 537.535 505.843C543.761 487.502 549.986 469.204 556.212 450.949L555.203 450.271Z" fill="#E0D8C7"/>
<path d="M565.42 470.739C561.683 463.162 558.892 455.154 557.109 446.896C554.85 473.527 556.769 500.347 562.796 526.385C564.319 532.951 566.245 539.682 570.318 544.597C574.391 549.513 581.198 552.044 586.353 548.724C591.509 545.404 593.123 538.197 593.031 531.631C592.646 508.43 575.529 490.878 565.42 470.739Z" fill="#E0D8C7"/>
<path d="M551.679 514.06C556.045 556.243 548.707 575.959 547.698 584.91C545.606 603.764 535.571 624.984 519.426 634.943C517.277 636.458 514.716 637.278 512.087 637.291C506.253 636.906 502.675 630.083 503.428 624.287C504.18 618.492 507.812 613.558 511.261 608.844C520.765 595.896 551.128 554.171 551.734 514.06" fill="#E0D8C7"/>
<path d="M582.867 614.585C586.353 618.803 589.949 624.58 595.325 623.535C601.269 622.398 602.993 614.548 601.874 608.605C598.7 591.842 584.427 579.884 573.914 566.422C561.052 549.942 553.257 530.081 551.477 509.254C551.477 509.254 552.357 523.633 552.761 527.778C553.164 531.923 559.512 586.505 582.867 614.585Z" fill="#E0D8C7"/>
<path d="M560.375 585.405C560.797 620.253 545.698 645.581 530.305 675.146C527.259 681.015 524.086 687.086 523.719 693.689C523.352 700.291 526.709 707.591 533.039 709.554C540.891 711.993 548.633 705.39 553.22 698.549C572.374 670.011 568.227 632.523 563.347 598.409" fill="#E0D8C7"/>
<path d="M573.99 702.621C571.117 717.225 563.995 730.655 553.515 741.228C541.205 753.553 524.344 761.971 516.345 777.432C514.911 779.693 514.381 782.41 514.859 785.044C516.51 790.876 524.821 790.913 530.564 788.969C561.753 778.423 577.292 744.584 579.677 711.663C580.352 701.273 580.193 690.847 579.2 680.483L577.769 670.103L573.99 702.621Z" fill="#E0D8C7"/>
<path d="M575.896 779.725C567.62 794.516 556.317 807.396 542.725 817.525C532.616 825.044 521.352 830.95 511.701 839.038C502.051 847.127 493.869 858.113 493.006 870.676C492.621 876.178 494.015 882.231 498.51 885.349C505.097 889.787 513.958 885.495 520.196 880.58C545.881 860.204 561.182 829.226 570.869 797.864" fill="#E0D8C7"/>
<path d="M575.163 836.947C573.328 844.779 572.796 855.728 580.502 857.984C587.841 860.112 593.345 851.473 595.528 844.21C614.058 749.059 581.291 699.777 581.291 699.777C581.291 699.777 593.033 775.873 575.163 836.947Z" fill="#E0D8C7"/>
<path d="M568.613 616.768C568.613 616.768 634.697 676.833 597.546 726.353C592.042 726.812 597.546 684.17 568.613 620.454" fill="#E0D8C7"/>
<path d="M389.825 773.416C373.974 792.013 351.408 808.447 325.906 807.713" stroke="#E0D8C7" stroke-width="0.709442" stroke-linecap="round" stroke-linejoin="round"/>
<path d="M402.597 752.673C411.77 760.449 416.559 772.114 420.76 783.375C426.998 800.065 432.722 817.911 429.364 835.389C429.307 836.107 429.099 836.804 428.755 837.436C428.41 838.068 427.936 838.62 427.365 839.057C425.108 840.341 422.558 837.939 421.2 835.719C418.035 830.572 415.666 824.976 414.174 819.121C414.174 827.319 414.504 836.16 419.439 842.707C420.262 843.65 420.965 844.691 421.53 845.807C422.998 849.218 420.448 853.455 416.871 854.482C415.053 854.889 413.158 854.797 411.389 854.216C409.619 853.635 408.039 852.586 406.817 851.181C404.411 848.328 402.764 844.916 402.028 841.258C401.111 837.59 400.579 833.922 399.368 830.437C397.852 833.794 397.242 837.488 397.6 841.154C397.957 844.819 399.269 848.327 401.404 851.327C403.244 853.329 404.789 855.583 405.991 858.022C406.33 859.163 406.432 860.362 406.291 861.545C406.15 862.728 405.769 863.869 405.171 864.9C404.574 865.93 403.772 866.827 402.815 867.537C401.858 868.246 400.766 868.753 399.606 869.026C398.564 869.244 397.48 869.155 396.487 868.769C395.497 868.244 394.653 867.481 394.029 866.55C386.452 856.774 385.535 843.569 384.856 831.208C381.04 841.8 381.04 853.39 384.856 863.982C385.855 866.196 386.522 868.544 386.837 870.952C386.968 872.161 386.745 873.382 386.194 874.466C385.644 875.55 384.79 876.451 383.737 877.059C380.067 878.728 376.233 875.005 374.564 871.374C369.812 861.103 371.426 849.145 373.151 837.957C369.866 843.067 367.636 848.783 366.593 854.767C365.55 860.752 365.715 866.884 367.078 872.804C367.794 875.849 368.693 879.499 366.509 881.755C365.634 882.523 364.537 882.994 363.376 883.1C362.215 883.205 361.051 882.94 360.051 882.341C358.064 881.093 356.527 879.242 355.667 877.059C353.141 870.962 352.602 864.223 354.125 857.802C355.658 851.428 357.853 845.231 360.675 839.314C353.309 847.261 348.792 857.428 347.833 868.219C347.576 871.025 347.374 874.271 345.081 875.922C342.182 877.995 337.742 875.684 336.513 872.346C335.284 869.008 336.219 865.248 337.375 861.873C340.003 854.19 343.636 846.888 348.181 840.158C337.834 845.513 334.752 858.664 327.45 867.669C317.598 861.158 307.012 853.4 304.627 841.827C312.82 836.908 320.198 830.746 326.496 823.559C320.424 827.844 313.778 831.252 306.755 833.683C304.164 834.855 301.249 835.101 298.499 834.38C295.857 833.372 294.077 829.832 295.82 827.613C297.014 826.442 298.563 825.7 300.223 825.504C309.625 823.137 317.924 817.605 323.725 809.841L309.177 815.856C305.067 817.544 300.59 819.286 296.334 818.277C292.078 817.269 288.39 812.133 290.628 808.282C300.8 808.04 310.804 805.646 319.983 801.257C314.557 802.916 308.837 803.386 303.214 802.633C300.406 802.236 297.714 801.247 295.317 799.733C292.92 798.218 290.871 796.212 289.307 793.847C288.408 792.325 287.913 790.051 289.307 789.079C290.126 788.675 291.057 788.558 291.949 788.749C300.177 789.56 308.473 789.332 316.644 788.07C312.358 789.152 307.89 789.296 303.544 788.492C299.288 787.428 295.27 784.237 294.481 779.89C293.766 775.874 295.875 771.949 297.893 768.409C305.48 772.361 314.019 774.12 322.551 773.489C317.94 773.425 313.425 772.161 309.452 769.821C306.645 768.152 303.948 765.236 304.645 762.063C305.342 758.89 309.14 757.533 312.259 757.955C315.378 758.377 318.185 760.119 321.139 761.274C324.092 762.43 327.67 762.888 330.312 761.018C326.185 759.811 322.255 758.013 318.643 755.68C317.839 755.298 317.191 754.651 316.809 753.846C316.295 752.196 317.983 750.747 319.487 749.848C334.715 740.769 352.511 734.845 370.105 736.918C387.7 738.99 404.854 750.27 410.468 767.088" fill="#E0D8C7"/>
<path d="M402.961 754.268C410.726 760.811 416.362 769.52 419.15 779.282C421.937 789.044 421.75 799.415 418.611 809.07C415.437 818.24 409.548 826.861 410.043 836.581C407.104 836.902 404.134 836.416 401.45 835.176C398.767 833.936 396.472 831.988 394.812 829.543C393.152 827.097 392.19 824.246 392.029 821.295C391.868 818.344 392.514 815.405 393.898 812.793C389.385 820.13 390.412 829.538 392.064 838.048C392.504 840.414 392.761 843.367 390.779 844.743C388.798 846.118 385.624 844.486 384.046 842.377C378.542 835.041 380.542 824.788 383.569 816.186C381.53 820.797 380.194 825.687 379.606 830.694C378.927 836.361 379.129 842.432 376.249 847.365C376.014 847.867 375.63 848.284 375.148 848.558C374.176 848.998 373.075 848.283 372.323 847.531C368.195 843.422 367.094 836.985 368.085 831.226C369.379 825.521 371.578 820.06 374.598 815.049C370.522 821.35 367.394 828.216 365.314 835.426C364.887 837.475 364.071 839.424 362.911 841.166C362.307 842.016 361.448 842.652 360.458 842.981C359.469 843.311 358.4 843.318 357.407 843C354.325 841.643 354.765 837.15 355.866 833.977C358.366 826.843 361.639 820.004 365.626 813.582C361.156 822.763 353.706 830.159 344.491 834.564C342.609 835.608 340.478 836.121 338.327 836.049C337.253 835.986 336.229 835.574 335.411 834.875C334.592 834.177 334.025 833.23 333.795 832.179C333.761 830.706 334.184 829.258 335.006 828.034C340.642 817.746 348.27 808.681 357.444 801.367C350.747 809.198 343.225 817.213 333.226 819.708C331.538 820.249 329.722 820.249 328.034 819.708C327.2 819.423 326.496 818.847 326.051 818.086C325.606 817.325 325.451 816.429 325.613 815.563C326.016 814.15 327.447 813.307 328.731 812.573C337.448 807.612 345.504 801.573 352.71 794.599C346.178 800.508 338.258 804.672 329.685 806.704C325.282 807.731 319.448 807.456 317.797 803.256C317.546 802.668 317.438 802.029 317.483 801.391C317.528 800.753 317.723 800.135 318.054 799.588C318.663 798.942 319.396 798.426 320.209 798.07C321.023 797.714 321.899 797.525 322.787 797.515C331.625 796.174 340.165 793.32 348.032 789.079C342.711 791.995 337.152 795.003 331.098 795.241C325.044 795.48 318.366 792.05 317.026 786.071C316.549 783.907 317.173 781.119 319.283 780.44C320.402 780.211 321.561 780.287 322.64 780.66C330.994 782.539 339.735 781.624 347.518 778.056C344.231 779.799 340.699 781.036 337.042 781.724C335.212 782.042 333.334 781.971 331.533 781.516C329.731 781.061 328.045 780.232 326.585 779.083C322.439 775.415 322.072 769.197 322.017 763.677C327.062 764.979 332.089 761.843 336.419 759C344.051 753.627 352.353 749.275 361.113 746.051C369.95 742.84 379.567 742.456 388.633 744.951C396.258 747.485 402.952 752.236 407.86 758.596" fill="#E0D8C7"/>
<path d="M399.99 751.553C394.064 748.252 386.818 748.894 380.268 750.636C375.544 751.907 370.905 753.476 366.38 755.332C362.82 756.781 359.041 758.725 357.592 762.301C360.34 762.411 363.094 762.319 365.829 762.026C363.995 762.521 362.05 763.071 360.215 763.713C357.01 764.627 354.087 766.337 351.721 768.684C352.473 769.949 354.289 769.968 355.757 769.784L357.078 769.582C355.687 769.973 354.423 770.719 353.409 771.747C353.204 771.943 353.068 772.2 353.023 772.48C353.028 772.652 353.072 772.821 353.151 772.973C353.231 773.126 353.344 773.258 353.482 773.361C354.128 773.782 354.859 774.056 355.623 774.164C356.387 774.272 357.166 774.21 357.903 773.984L376.543 771.141C369.728 773.566 363.161 776.636 356.931 780.312C355.243 781.284 353.409 782.604 353.262 784.53C360.11 782.708 366.736 780.137 373.021 776.864C367.425 781.339 360.417 784.328 356.271 790.179C355.61 791.096 355.207 792.655 356.271 793.095C356.683 793.224 357.124 793.224 357.537 793.095C364.461 791.289 370.856 787.863 376.195 783.1C373.791 785.942 370.819 788.217 368.177 790.839C365.384 793.316 363.413 796.585 362.527 800.211C363.444 800.725 364.582 800.211 365.462 799.624C372.072 795.439 377.744 789.931 382.121 783.448C378.268 789.401 374.893 795.65 372.03 802.137C371.443 803.458 371.095 805.402 372.415 806.007C372.777 806.126 373.161 806.158 373.537 806.101C373.914 806.043 374.271 805.898 374.58 805.677C376.864 804.22 378.755 802.223 380.084 799.863C382.947 795.39 385.403 790.67 387.423 785.759C385.113 791.533 383.339 797.506 382.121 803.604C381.94 804.187 381.907 804.806 382.025 805.405C382.144 806.004 382.41 806.564 382.8 807.034C385.145 804.264 386.95 801.079 388.12 797.644C389.918 793.205 391.649 788.742 393.312 784.255L390.78 802.761C390.523 804.595 390.487 806.942 392.138 807.859C396.436 800.102 399.564 791.753 401.421 783.081C401.116 789.072 400.798 795.058 400.467 801.037C400.467 801.917 400.651 803.128 401.531 803.164C401.911 803.142 402.267 802.97 402.522 802.687C404.163 800.993 405.306 798.88 405.824 796.58C407.143 792.359 408.064 788.024 408.576 783.631L408.852 784.475C412.246 764.117 404.559 754.084 399.99 751.553Z" fill="#E0D8C7"/>
<path d="M403.348 758.047C407.146 762.778 407.256 769.968 404.815 775.507C403.603 778.296 401.553 780.64 398.95 782.213C396.347 783.787 393.319 784.514 390.285 784.292C387.654 783.909 385.171 782.833 383.093 781.174C381.247 779.826 379.77 778.035 378.8 775.965C378.025 773.921 377.775 771.715 378.073 769.549C378.371 767.383 379.208 765.326 380.506 763.567C383.142 760.059 386.707 757.359 390.799 755.772C393.205 754.568 395.896 754.047 398.578 754.268C398.578 754.268 400.174 754.103 403.348 758.047Z" fill="#E0D8C7"/>
<path d="M229.001 641.674C233.936 629.404 243.036 621.188 253.2 612.678C265.382 602.444 276.665 590.834 284.518 576.987C292.37 563.139 296.59 546.89 294.205 531.135C280.848 530.346 267.786 536.747 258.099 545.973C248.384 555.31 240.799 566.633 235.863 579.169C226.946 601.618 226.689 641.656 226.689 641.656L229.001 641.674Z" fill="#E0D8C7"/>
<path d="M175.961 760.853C186.107 750.233 191.684 736.038 195.262 721.787C205.186 681.715 201.081 639.455 183.63 602.04C182.695 600.06 181.08 597.767 178.934 598.207C177.466 598.519 176.622 600.041 175.98 601.38C163.137 628.799 163.999 660.914 171.503 690.204C173.76 699.044 175.613 707.976 178.108 716.743C181.08 727.271 184.621 749.463 171.999 763.732" fill="#E0D8C7"/>
<path d="M215.535 693.633C225.828 668.268 254.778 642.591 270.795 631.385C287.967 619.371 310.166 617.391 330.898 614.383C311.726 657.373 268.52 688.699 221.755 693.633H215.535Z" fill="#E0D8C7"/>
<path d="M301.966 704.546C271.859 704.399 243.807 719.585 219.205 736.954C195.042 754.011 172.348 773.745 145.488 786.07C207.188 790.436 270.355 757.807 301.966 704.546Z" fill="#E0D8C7"/>
<path d="M305.836 564.423C373.718 563.323 426.189 623.407 423.253 689.763C422.351 708.416 417.637 726.686 409.402 743.447" stroke="#E0D8C7" stroke-width="0.709442" stroke-miterlimit="10"/>
<path d="M352.62 694.9C349.723 695.915 346.556 695.85 343.704 694.716C342.309 694.108 341.184 693.013 340.539 691.635C339.894 690.258 339.773 688.693 340.199 687.233C340.751 686.1 341.524 685.09 342.474 684.262C356.399 670.598 373.663 659.025 381.387 641.143C385.106 632.216 386.229 622.422 384.625 612.886C383.022 603.35 378.758 594.46 372.324 587.24L367.536 581.994L376.709 588.432C376.709 588.432 405.238 623.132 375.315 678.668C368.82 690.589 352.62 694.9 352.62 694.9Z" fill="#E0D8C7"/>
<path d="M423.4 669.203C433.601 671.642 446.554 740.86 469.01 770.077C477.944 781.723 489.062 793.021 490.915 807.584C491.412 810.244 491.073 812.993 489.943 815.452C488.811 817.191 487.19 818.556 485.283 819.375C483.376 820.194 481.27 820.431 479.229 820.055C475.135 819.235 471.334 817.335 468.221 814.553C449.452 799.459 440.848 775.047 436.573 751.351C432.298 727.655 431.399 703.207 423.841 680.354" fill="#E0D8C7"/>
<path d="M437.748 632.614C441.585 633.756 445.56 634.373 449.563 634.448C456.3 634.956 463.059 633.83 469.267 631.165C472.372 629.814 475.129 627.775 477.329 625.201C479.529 622.627 481.113 619.586 481.963 616.309C483.357 609.743 480.312 602.132 474.202 599.344C467.653 596.354 460.094 599.234 453.269 601.49C432.06 608.459 407.586 608.716 388.561 597.07L385.057 595.584L391.276 601.911C391.276 601.911 411.934 623.04 437.748 632.614Z" fill="#E0D8C7"/>
<path d="M488.053 683.895C482.457 684.28 479.045 690.277 477.87 695.743C477.172 698.483 477.066 701.34 477.558 704.124C479.246 712.176 489.227 717.11 496.786 713.9C504.344 710.69 507.794 700.493 504.124 693.175C502.09 689.572 498.796 686.847 494.875 685.523C490.954 684.2 486.682 684.371 482.879 686.004" fill="#E0D8C7"/>
<path d="M235.587 840.065C234.978 840.15 234.361 840.15 233.752 840.065C230.23 839.46 226.634 834.728 226.634 834.728C223.221 829.739 219.882 824.2 220.066 818.221C220.376 814.31 221.635 810.532 223.735 807.217C224.996 804.66 226.891 802.469 229.239 800.853C230.826 799.928 232.6 799.37 234.431 799.22C236.724 798.97 239.043 799.185 241.252 799.85C243.46 800.516 245.511 801.619 247.283 803.095C249.055 804.57 250.512 806.388 251.566 808.438C252.621 810.489 253.251 812.731 253.42 815.03C236.981 817.689 235.44 833.187 235.587 840.065Z" fill="#E0D8C7"/>
<path d="M221.443 850.447C217.09 850.645 212.755 849.769 208.82 847.897C207.133 847.062 205.508 846.105 203.958 845.036C202.147 843.969 200.598 842.509 199.427 840.763C198.335 838.413 197.837 835.831 197.977 833.243C197.746 830.553 198.038 827.843 198.84 825.265C201.441 820.31 205.691 816.418 210.857 814.261C212.101 813.836 213.435 813.748 214.724 814.006C216.013 814.264 217.21 814.858 218.195 815.728C218.195 815.728 216.966 829.025 226.965 837.15C236.964 845.275 221.443 850.447 221.443 850.447Z" fill="#E0D8C7"/>
<path d="M269.638 853.015C274.188 858.425 277.729 840.8 275.894 833.977C274.437 829.518 271.977 825.453 268.703 822.092C266.116 819.158 262.942 816.205 259.016 816.04C257.446 815.914 255.868 816.159 254.411 816.755C251.567 818.057 240.247 821.579 237.642 838.085C235.037 854.592 253.163 833.39 269.638 853.015Z" fill="#E0D8C7"/>
<path d="M248.964 852.097C250.798 847.237 248.45 841.625 244.634 838.14C243.057 836.65 241.192 835.498 239.154 834.754C237.116 834.01 234.948 833.689 232.782 833.812C230.613 833.981 228.529 834.73 226.75 835.983C224.972 837.235 223.563 838.943 222.673 840.928C221.956 842.868 221.699 844.947 221.922 847.003C222.144 849.059 222.841 851.035 223.957 852.776C227.406 858.37 230.03 861.524 239.13 860.204C248.23 858.883 248.964 852.097 248.964 852.097Z" fill="#E0D8C7"/>
<path d="M248.964 852.097C250.798 847.237 248.45 841.625 244.634 838.14C243.057 836.65 241.192 835.498 239.154 834.754C237.116 834.01 234.948 833.689 232.782 833.812C230.613 833.981 228.529 834.73 226.75 835.983C224.972 837.235 223.563 838.943 222.673 840.928C221.956 842.868 221.699 844.947 221.922 847.003C222.144 849.059 222.841 851.035 223.957 852.776C227.406 858.37 230.03 861.524 239.13 860.204C248.23 858.883 248.964 852.097 248.964 852.097Z" stroke="#FAF2E1" stroke-width="0.709442" stroke-miterlimit="10"/>
<path d="M473.854 665.022C473.854 667.198 473.208 669.326 471.999 671.136C470.789 672.945 469.07 674.356 467.058 675.189C465.047 676.022 462.834 676.24 460.698 675.815C458.563 675.39 456.601 674.342 455.062 672.803C453.522 671.264 452.474 669.303 452.049 667.169C451.625 665.034 451.843 662.822 452.676 660.811C453.509 658.8 454.92 657.081 456.73 655.872C458.54 654.663 460.669 654.018 462.846 654.018C465.765 654.018 468.565 655.177 470.629 657.241C472.694 659.304 473.854 662.103 473.854 665.022Z" fill="#E0D8C7"/>
<path d="M329.777 566.643C329.777 566.643 355.829 585.735 339.85 617.538C323.87 649.341 332.126 666.343 348.344 653.999C364.562 641.656 380.01 584.525 329.777 566.643Z" fill="#E0D8C7"/>
<path d="M413.768 639.144C396.431 716.541 319.889 706.802 313.486 719.934C307.083 733.066 426.886 753.993 413.97 639.235L413.768 639.144Z" fill="#E0D8C7"/>
<path d="M582.716 376.761C557.185 419.299 556.657 472.421 564.095 521.511C571.533 570.6 586.222 618.72 588.366 668.319C590.511 717.919 578.018 771.518 540.453 804" stroke="#E0D8C7" stroke-width="0.658177" stroke-miterlimit="10"/>
<path d="M533.492 9.16016C551.312 24.2868 559.023 48.1254 563.414 71.0791C578.733 150.116 556.946 268.1 516.301 333.848" stroke="#E0D8C7" stroke-width="0.658177" stroke-miterlimit="10"/>
<path d="M553.101 229.237C554.803 230.599 553.952 233.423 552.845 235.38C542.122 254.233 528.574 271.708 511.587 285.184C494.6 298.66 473.988 308.002 452.372 309.839C446.67 310.333 438.755 308.24 439.283 302.54C439.538 299.562 442.21 297.435 444.832 295.938C453.121 291.275 462.772 289.846 472.065 287.532C505.383 279.041 534.49 258.758 553.986 230.445" fill="#E0D8C7"/>
<path d="M561.204 227.451C562.293 254.539 563.569 282.41 574.82 307.1C578.02 314.178 582.003 320.882 585.407 327.858C586.184 329.165 586.584 330.661 586.564 332.18C586.207 335.43 582.275 337.064 579.007 336.893C572.301 336.553 566.599 331.789 562.701 326.259C550.191 308.665 551.927 285.048 554.191 263.591C555.666 249.639 557.141 235.686 558.616 221.733" fill="#E0D8C7"/>
<path d="M566.31 190.936C579.404 213.035 587.534 237.716 590.139 263.268C590.309 264.97 590.343 267.148 588.948 268.271C586.531 270.21 583.263 267.199 581.731 264.51C569.412 242.662 563.734 217.697 565.391 192.671C559.067 211.67 545.943 227.662 528.541 237.575C520.558 242.067 510.669 245.164 502.363 241.284C501.614 235.516 504.32 229.714 508.269 225.443C512.442 221.384 517.177 217.946 522.328 215.234L566.582 189.2" fill="#E0D8C7"/>
<path d="M573.782 139.192C582.223 153.725 588.491 169.415 592.385 185.763C593.19 188.198 593.296 190.809 592.692 193.301C591.892 195.717 589.288 197.708 586.837 196.891C585.743 196.419 584.792 195.668 584.079 194.713C577.271 186.614 574.616 175.741 573.492 165.192C572.369 154.642 572.488 143.923 570.088 133.577C569.445 147.131 564.597 160.149 556.216 170.824C547.706 181.237 534.838 188.384 521.375 188.792C519.315 188.792 516.847 188.537 515.911 186.699C514.975 184.862 516.064 182.769 517.29 181.169C521.988 175.078 529 171.317 535.468 167.149C548.141 158.957 559.306 148.642 568.471 136.657" fill="#E0D8C7"/>
<path d="M568.215 84.5895C572.682 86.5238 576.575 89.5771 579.517 93.4545C583.891 98.9359 586.965 105.338 588.507 112.178C590.049 119.019 590.019 126.12 588.419 132.947C586.019 133.543 584.164 130.888 583.142 128.625C579.291 119.939 576.287 110.902 574.172 101.639C572.641 94.9519 571.483 87.8905 567.364 82.3945C564.749 97.8057 559.233 112.581 551.109 125.937C546.139 134.07 539.773 141.982 530.889 145.42C529.865 145.938 528.739 146.225 527.592 146.26C526.445 146.295 525.304 146.078 524.25 145.624C521.936 144.296 521.255 141.2 521.527 138.545C522.225 131.739 527.246 126.328 531.995 121.428C543.603 109.483 555.206 97.5722 566.802 85.6955" fill="#E0D8C7"/>
<path d="M555.893 38.3243C563.46 42.1005 570.102 47.4982 575.344 54.1332C580.587 60.7682 584.302 68.4771 586.224 76.711C579.569 77.783 574.548 71.0619 571.212 65.2086C566.026 56.1337 560.84 47.0588 555.655 37.984C555.478 47.5829 553.166 57.0221 548.885 65.6161C544.604 74.2102 538.463 81.7434 530.907 87.6689C528.66 89.3704 525.256 90.9358 523.247 88.945C522.732 88.2797 522.367 87.5112 522.176 86.692C521.985 85.8728 521.973 85.0221 522.141 84.1978C523.707 65.4808 538.089 50.6434 551.621 37.5586" fill="#E0D8C7"/>
<path d="M404.1 145.011C406.581 133.867 406.294 122.286 403.264 111.279C400.235 100.272 394.556 90.1737 386.722 81.8668C355.421 49.1462 298.385 45.9643 256.854 55.0505C226.489 61.7036 198.388 75.9625 168.857 85.8654C146.1 93.6074 121.386 98.712 97.2674 94.9857C73.149 91.2593 46.8349 73.3931 37.7969 59.5766" stroke="#E0D8C7" stroke-width="0.658177" stroke-miterlimit="10"/>
<path d="M385.873 82.4795C389.175 95.2751 384.171 109.075 375.848 119.369C367.524 129.663 356.308 137.065 345.21 144.262C334.113 151.46 322.828 158.776 314.352 168.918C314.677 156.333 319.079 144.194 326.896 134.325C342.725 114.485 370.316 106.556 385.294 86.0697" fill="#E0D8C7"/>
<path d="M392.102 87.0908C400.186 93.1653 410.263 95.7687 419.965 98.5932C437.547 103.698 455.708 110.606 467.384 124.627C475.367 134.138 479.707 146.1 483.895 157.807C461.262 154.548 440.447 143.58 424.969 126.754C419.872 120.934 415.121 114.821 410.739 108.445L398.638 91.6339" fill="#E0D8C7"/>
<path d="M342.588 55.1017C359.013 48.4827 376.425 41.7276 393.939 44.348C399.194 45.2091 404.333 46.6648 409.258 48.6869C423.995 54.533 437.364 63.3616 448.525 74.6184C436.134 74.7715 423.368 74.8736 411.811 70.3645C407.454 68.663 403.301 66.3489 399.097 64.3921C386.375 58.5748 372.382 56.0863 358.434 57.1606C354.488 57.7132 350.494 57.8444 346.52 57.5519" fill="#E0D8C7"/>
<path d="M343.44 59.3223C346.708 70.2972 342.964 82.0548 338.334 92.5533C333.602 103.477 327.798 114.214 319.152 122.398C312.905 128.32 305.365 132.727 298.948 138.461C290.884 145.696 284.778 154.85 281.195 165.073C284.457 150.355 289.249 136.018 295.493 122.296C298.199 115.659 301.563 109.308 305.535 103.341C316.309 88.0272 333.994 77.3586 340.802 59.8668" fill="#E0D8C7"/>
<path d="M300.343 49.0102C313.74 49.1468 326.978 46.0966 338.963 40.1111C344.716 37.2185 350.112 33.6963 355.763 30.6336C379.166 17.9401 406.399 13.6182 433.003 14.6051C417.088 2.91552 395.949 -0.266359 376.511 3.42598C357.073 7.11832 339.321 16.9192 323.866 29.1703C315.083 36.1466 306.726 44.0587 296.326 48.2955" fill="#E0D8C7"/>
<path d="M233.349 59.9854C266.693 48.7212 286.114 11.3384 319.645 0.601702C309.772 -1.09984 299.713 1.12918 289.96 3.29013C279.646 5.55318 269.042 7.95235 260.395 13.9928C250.693 20.799 244.481 31.3485 238.575 41.5918L226.66 62.3505" fill="#E0D8C7"/>
<path d="M198.371 58.8967C203.478 50.389 205.282 40.3159 209.231 31.1957C214.971 18.0437 224.866 7.13573 237.4 0.142578C218.813 1.53784 201.997 13.3295 191.631 28.8135C181.266 44.2975 176.908 62.7081 175.836 81.1188C184.397 74.772 192.976 68.085 198.371 58.8967Z" fill="#E0D8C7"/>
<path d="M291.408 51.8691C297.433 54.3194 298.982 62.2145 298.216 68.6803C296.514 84.2324 287.051 97.6065 278.608 110.861C270.166 124.116 262.183 138.869 263.8 154.438C260.309 146.114 258.138 137.296 257.367 128.302C256.614 121.805 257.193 115.222 259.069 108.956C260.965 103.928 263.469 99.1514 266.524 94.7309L293.11 52.6178" fill="#E0D8C7"/>
<path d="M174.457 85.4409C167.591 94.1508 163.979 104.982 164.244 116.069C164.823 127.043 170.491 137.916 179.886 143.616C186.541 147.649 194.575 148.959 201.247 152.958C204.657 155.021 207.627 157.736 209.987 160.948C212.347 164.16 214.05 167.805 215 171.675C219.997 163.538 221.815 153.844 220.106 144.45C219.201 139.809 217.22 135.445 214.324 131.707C211.427 127.969 207.695 124.962 203.426 122.926C199.12 121.02 194.371 120.271 190.048 118.417C183.872 115.513 178.922 110.52 176.072 104.321C173.222 98.1218 172.656 91.1152 174.474 84.5391" fill="#E0D8C7"/>
<path d="M226.729 66.0771C233.111 69.1863 238.005 74.6906 240.346 81.391C242.595 88.0619 243.644 95.0787 243.443 102.116C243.574 110.08 243.107 118.043 242.048 125.937C240.55 136.81 238.32 149.231 245.367 157.637C230.525 145.896 218.593 128.49 219.257 109.585C219.768 95.1564 227.478 81.1358 224.942 66.9279" fill="#E0D8C7"/>
<path d="M518.292 8.78613C523.095 20.4829 523.385 33.5455 519.106 45.4436C514.826 57.3418 506.281 67.2287 495.127 73.1894C491.617 75.3165 487.571 76.3913 483.468 76.2862C479.4 75.9458 475.315 73.3595 474.294 69.48C472.983 64.3754 476.881 59.526 480.932 56.191C488.846 49.6401 498.31 45.131 506.225 38.5631C514.139 31.9951 520.641 22.1432 519.314 11.934C519.143 10.5898 517.986 8.88823 516.863 9.6369" fill="#E0D8C7"/>
<path d="M501.17 10.2319C501.867 21.2919 493.936 31.8414 483.604 35.84C479.723 37.3544 475.264 38.018 471.485 36.3164C467.707 34.6149 465.086 29.9187 466.788 26.1072C468.49 22.2958 473.596 21.0026 477.851 20.4241C486.361 19.1139 495.399 17.021 500.608 10.2148" fill="#E0D8C7"/>
<path d="M565.577 8.70054C573.317 8.61431 580.987 10.1783 588.075 13.2884C595.163 16.3985 601.506 20.9832 606.682 26.7369C610.001 30.4632 612.895 34.9042 613.354 39.8727C613.814 44.8412 611.193 50.3542 606.444 51.9026C605.775 52.1312 605.074 52.2518 604.367 52.2599C600.963 52.2599 598.427 49.1291 596.453 46.3045L579.058 21.411C575.092 15.7279 570.377 9.50027 563.518 8.44531" fill="#E0D8C7"/>
<path d="M500.591 114.69C501.629 114.756 502.664 114.519 503.571 114.009C504.477 113.498 505.216 112.736 505.698 111.814C506.61 109.968 507.159 107.964 507.314 105.91C507.638 103.528 507.893 100.806 506.412 98.9509C505.452 97.8279 504.137 97.0657 502.685 96.7899C498.242 95.6839 493.613 97.2664 489.426 99.104C487.954 99.6169 486.641 100.502 485.613 101.673C484.874 102.757 484.477 104.037 484.473 105.349C484.472 107.916 485.204 110.43 486.582 112.597C487.959 114.764 489.926 116.493 492.251 117.583C493.504 118.244 494.887 118.621 496.302 118.689C498.143 118.643 499.898 117.898 501.21 116.605C502.522 115.313 503.293 113.569 503.366 111.729" fill="#E0D8C7"/>
<path d="M161.01 87.4653C158.866 88.231 156.942 85.8829 156.159 83.7389C152.33 73.1894 157.64 61.755 162.559 51.6649C167.478 41.5748 172.142 29.5449 167.189 19.5399C162.542 10.0793 149.232 6.1828 140.211 11.6277" stroke="#E0D8C7" stroke-width="0.658177" stroke-miterlimit="10"/>
<path d="M1.42376 67.1144C1.91653 67.4876 2.50876 67.7066 3.12584 67.7439C25.44 70.6876 47.2436 57.9601 62.5282 41.4211C66.3749 37.2354 70.494 32.5391 75.5661 30.4462C75.43 30.191 75.3279 29.9187 75.2087 29.6465C71.9237 28.3363 68.7919 26.2434 65.4898 24.9162C56.0774 21.0537 45.2862 23.0956 35.6695 26.4816C26.9379 29.5614 18.4445 33.8153 11.8405 40.2811C5.2364 46.747 0.606776 55.595 0.742942 64.9024C0.701038 65.2979 0.739733 65.6979 0.85675 66.0781C0.973766 66.4582 1.16667 66.8108 1.42376 67.1144Z" fill="#E0D8C7"/>
<path d="M108.945 40.7583C108.534 41.18 108.064 41.541 107.55 41.8303C104.639 43.4297 99.2948 42.0685 99.2948 42.0685C93.9332 40.3669 88.3163 38.3081 84.9633 33.816C82.9045 30.7702 81.6299 27.2634 81.2527 23.6068C80.6852 21.0334 80.7789 18.3582 81.5251 15.8308C82.1486 14.2411 83.1197 12.8109 84.3675 11.645C85.8871 10.1388 87.6952 8.95485 89.6834 8.164C91.6717 7.37316 93.7992 6.99173 95.9384 7.04258C98.0777 7.09342 100.185 7.57549 102.133 8.45989C104.082 9.34429 105.831 10.6128 107.277 12.1895C97.031 23.6749 104.861 35.7558 108.945 40.7583Z" fill="#E0D8C7"/>
<path d="M104.688 56.395C101.643 59.0512 97.9886 60.9156 94.0502 61.8229C92.3402 62.1951 90.605 62.4397 88.8588 62.5546C86.9286 62.8285 84.9612 62.6598 83.1058 62.0612C80.9528 60.9942 79.1031 59.4026 77.7273 57.433C76.0054 55.6144 74.6476 53.4832 73.7274 51.1543C73.0753 48.4939 73.0753 45.7154 73.7274 43.055C74.0329 40.6386 74.8574 38.3169 76.1443 36.2488C76.8054 35.2162 77.729 34.3775 78.8205 33.8185C79.912 33.2594 81.1323 33.0001 82.3569 33.0669C82.3569 33.0669 89.1652 43.4293 101.08 43.5654C112.994 43.7016 104.688 56.395 104.688 56.395Z" fill="#E0D8C7"/>
<path d="M119.242 60.4274C117.999 68.2035 115.054 77.1535 111.344 78.7019C105.965 80.965 99.6507 79.1273 94.7657 75.9454C92.7718 74.7899 91.0894 73.1664 89.8637 71.2152C88.7403 69.2074 87.3447 65.1577 89.5744 64.6472C91.8041 64.1368 104.008 63.286 107.684 55.7652C111.361 48.2444 112.399 48.1934 112.399 48.1934L116.433 49.6227C116.433 49.6227 120.484 52.6514 119.242 60.4274Z" fill="#E0D8C7"/>
<path d="M139.633 59.7132C140.926 64.8178 148.688 54.6086 150.747 49.7082C152.603 45.3692 153.505 39.9924 150.662 36.249C149.419 34.7158 147.817 33.5121 145.998 32.7438C137.914 28.9324 127.276 30.3787 121.438 37.1508C121.438 37.1508 114.629 41.2175 116.961 44.5695C119.293 47.9215 126.186 45.2331 128.28 46.5093C130.373 47.7854 136.994 49.3678 139.633 59.7132Z" fill="#E0D8C7"/>
<path d="M141.129 30.4803C147.563 31.7905 139.972 16.953 134.695 13.0565C131.069 10.6394 126.933 9.09056 122.611 8.53043C119.036 7.90086 115.019 7.59458 112.092 9.72151C110.876 10.5386 109.868 11.6281 109.147 12.9034C107.837 15.4897 101.641 24.5759 109.283 38.0691C116.926 51.5623 117.794 25.75 141.129 30.4803Z" fill="#E0D8C7"/>
<path d="M116.434 47.6668C127.43 63.338 112.026 70.6716 117.745 78.5668C119.578 80.1897 121.891 81.1696 124.332 81.3573C126.624 81.0481 128.748 79.9891 130.374 78.3456C134.732 74.7383 139.021 70.1782 139.276 64.5461C139.272 60.8399 137.924 57.2609 135.481 54.473C132.56 51.5161 129.297 48.9172 125.762 46.731C124.232 46.2018 122.606 46.0114 120.995 46.173C119.385 46.3346 117.828 46.8443 116.434 47.6668Z" fill="#E0D8C7"/>
<path d="M125.54 41.7961C124.025 37.253 119.123 34.4965 114.341 34.1562C112.333 33.983 110.311 34.2228 108.399 34.8607C106.488 35.4987 104.727 36.5213 103.226 37.8655C101.75 39.2351 100.67 40.9774 100.101 42.9088C99.5318 44.8403 99.4942 46.8894 99.9922 48.8404C100.592 50.6623 101.604 52.3212 102.95 53.6877C104.297 55.0542 105.94 56.0915 107.754 56.7186C113.507 58.7944 117.217 59.5601 123.072 53.3155C128.927 47.0708 125.54 41.7961 125.54 41.7961Z" fill="#E0D8C7"/>
<path d="M125.54 41.7961C124.025 37.253 119.123 34.4965 114.341 34.1562C112.333 33.983 110.311 34.2228 108.399 34.8607C106.488 35.4987 104.727 36.5213 103.226 37.8655C101.75 39.2351 100.67 40.9774 100.101 42.9088C99.5318 44.8403 99.4942 46.8894 99.9922 48.8404C100.592 50.6623 101.604 52.3212 102.95 53.6877C104.297 55.0542 105.94 56.0915 107.754 56.7186C113.507 58.7944 117.217 59.5601 123.072 53.3155C128.927 47.0708 125.54 41.7961 125.54 41.7961Z" stroke="#E0D8C7" stroke-width="0.658177" stroke-miterlimit="10"/>
<path d="M402.4 139.549C413.515 140.519 423.404 146.763 432.629 153.042C446.245 162.332 460.22 172.763 467.045 187.805C467.401 188.381 467.629 189.027 467.714 189.699C467.799 190.371 467.739 191.054 467.538 191.701C466.517 193.862 463.3 193.403 461.088 192.467C455.927 190.27 451.13 187.304 446.858 183.67C451.301 189.846 456.254 196.38 463.505 198.711C464.631 198.989 465.722 199.394 466.756 199.919C469.7 201.723 470.024 206.3 467.879 208.989C466.721 210.27 465.238 211.215 463.587 211.724C461.937 212.233 460.179 212.287 458.5 211.881C455.143 211.03 452.06 209.33 449.548 206.947C446.926 204.701 444.526 202.183 441.718 200.141C442.375 203.495 443.899 206.618 446.138 209.201C448.378 211.783 451.255 213.734 454.484 214.859C456.949 215.382 459.327 216.253 461.547 217.445C462.424 218.128 463.151 218.984 463.685 219.959C464.218 220.934 464.546 222.007 464.648 223.114C464.75 224.221 464.624 225.336 464.278 226.392C463.932 227.448 463.374 228.422 462.636 229.254C461.97 229.984 461.097 230.494 460.134 230.717C459.106 230.859 458.059 230.742 457.088 230.377C446.109 226.974 438.365 217.53 431.233 208.512C434.032 218.568 440.25 227.335 448.816 233.304C450.764 234.44 452.531 235.863 454.058 237.523C454.81 238.364 455.301 239.406 455.47 240.521C455.639 241.636 455.48 242.776 455.011 243.802C453.139 247.018 448.203 246.269 445.003 244.415C435.88 239.191 430.689 229.288 425.991 219.896C426.242 225.535 427.622 231.066 430.049 236.163C432.475 241.26 435.899 245.819 440.118 249.57C442.314 251.493 444.952 253.79 444.509 256.666C444.26 257.719 443.682 258.666 442.859 259.369C442.036 260.073 441.011 260.497 439.931 260.579C437.755 260.673 435.604 260.077 433.786 258.878C428.6 255.619 424.574 250.808 422.28 245.129C420.032 239.493 418.383 233.636 417.361 227.655C416.027 237.624 418.051 247.753 423.114 256.445C424.425 258.708 426.025 261.277 425.157 263.744C424.085 266.892 419.506 267.488 416.766 265.633C414.025 263.778 412.732 260.426 411.796 257.244C409.679 250.021 408.534 242.548 408.391 235.022C403.421 244.619 408.153 256.223 407.506 267.011C396.545 267.368 384.375 267.181 376.358 259.694C379.886 251.504 382.109 242.812 382.945 233.933C380.653 240.435 377.456 246.581 373.448 252.191C372.122 254.47 370.047 256.22 367.576 257.142C365.04 257.806 361.789 256.07 361.908 253.45C362.192 251.927 362.97 250.54 364.12 249.502C369.966 242.666 373.278 234.025 373.499 225.034C370.9 229.152 368.307 233.27 365.72 237.387C363.508 240.892 361.057 244.602 357.21 246.15C353.363 247.699 347.917 245.759 347.542 241.641C355.091 236.019 361.357 228.856 365.925 220.627C362.728 224.797 358.663 228.223 354.01 230.666C351.661 231.884 349.079 232.585 346.437 232.723C343.795 232.861 341.154 232.432 338.691 231.466C337.194 230.802 335.594 229.339 336.189 227.808C336.583 227.055 337.219 226.455 337.994 226.106C344.66 222.309 350.82 217.684 356.325 212.341C353.672 215.469 350.367 217.978 346.64 219.691C342.845 221.172 338.13 220.899 335.168 217.99C332.207 215.08 331.951 211.184 331.594 207.474C339.449 206.383 346.849 203.138 352.972 198.099C349.431 200.507 345.326 201.955 341.057 202.302C338.045 202.54 334.402 201.808 333.262 199.001C332.121 196.193 334.232 193.181 336.836 191.82C339.44 190.459 342.47 190.272 345.347 189.557C348.223 188.842 351.168 187.294 352.155 184.452C348.382 185.746 344.445 186.496 340.462 186.681C339.642 186.796 338.807 186.628 338.096 186.205C336.819 185.235 337.33 183.227 337.977 181.764C344.632 166.722 354.895 152.702 369.346 144.807C383.796 136.911 402.809 136.299 416.085 146.015" fill="#E0D8C7"/>
<path d="M403.539 140.503C412.926 141.284 421.867 144.85 429.214 150.743C436.562 156.636 441.982 164.588 444.78 173.581C447.299 182.19 447.469 191.906 453.035 198.933C450.985 200.735 448.484 201.946 445.799 202.437C443.115 202.929 440.347 202.684 437.791 201.727C435.235 200.769 432.987 199.137 431.286 197.003C429.585 194.869 428.496 192.313 428.134 189.609C428.661 197.606 434.482 204.157 440.235 209.755C441.835 211.304 443.64 213.414 442.84 215.506C442.04 217.599 438.823 218.076 436.491 217.344C428.423 214.792 424.389 205.893 422.074 197.759C423.012 202.344 424.624 206.765 426.857 210.878C429.393 215.54 432.797 220.016 433.274 225.29C433.354 225.799 433.283 226.319 433.07 226.788C432.576 227.638 431.368 227.689 430.397 227.536C425.053 226.635 420.764 222.347 418.483 217.463C416.41 212.448 415.146 207.135 414.738 201.724C415.048 208.684 416.367 215.562 418.653 222.142C419.429 223.916 419.856 225.823 419.913 227.758C419.918 228.726 419.614 229.671 419.045 230.455C418.475 231.238 417.67 231.82 416.747 232.113C413.683 232.743 411.641 229.119 410.738 226.124C408.778 219.381 407.574 212.442 407.147 205.433C408.695 214.782 407.027 224.379 402.415 232.658C401.554 234.457 400.218 235.986 398.552 237.082C397.708 237.614 396.713 237.854 395.719 237.765C394.726 237.676 393.789 237.263 393.054 236.589C392.238 235.488 391.78 234.163 391.743 232.794C390.489 221.986 391.397 211.037 394.416 200.584C393.548 210.096 392.152 220.203 385.905 227.434C384.924 228.75 383.555 229.726 381.99 230.225C381.205 230.46 380.36 230.403 379.613 230.066C378.866 229.728 378.265 229.132 377.923 228.387C377.65 227.032 377.912 225.623 378.654 224.457C382.602 216.027 385.462 207.131 387.165 197.981C385.389 205.975 381.611 213.387 376.186 219.522C373.412 222.653 368.85 225.58 365.344 223.283C364.856 222.972 364.448 222.552 364.153 222.056C363.857 221.559 363.682 221 363.642 220.424C363.759 219.608 364.037 218.823 364.461 218.116C364.885 217.409 365.445 216.794 366.11 216.306C372.056 210.543 376.962 203.797 380.612 196.364C378.161 201.469 375.506 206.675 371.114 210.113C366.723 213.55 359.761 214.537 355.574 210.759C354.042 209.381 353.021 206.948 354.264 205.297C354.977 204.499 355.895 203.91 356.919 203.596C364.258 200.551 370.385 195.167 374.348 188.282C372.789 191.351 370.769 194.163 368.357 196.619C367.143 197.843 365.685 198.798 364.078 199.422C362.471 200.046 360.751 200.326 359.029 200.244C353.923 199.699 350.298 195.139 347.285 191.021C351.813 189.32 353.94 184.215 355.693 179.757C358.578 171.598 362.521 163.852 367.421 156.718C372.382 149.602 379.429 144.198 387.59 141.251C394.723 139.065 402.347 139.065 409.479 141.251" fill="#E0D8C7"/>
<path d="M399.828 140.025C393.531 140.281 388.424 145.13 384.408 149.928C381.501 153.426 378.818 157.103 376.374 160.937C374.467 163.949 372.629 167.454 373.48 170.925C378.165 167.909 382.323 164.144 385.786 159.78C382.21 163.025 379.002 166.654 376.221 170.602C374.291 173.011 372.997 175.866 372.459 178.906C373.719 179.467 375.097 178.497 376.101 177.561C380.206 173.808 383.928 169.659 387.216 165.174C383.959 168.475 380.867 171.918 377.94 175.502C376.639 176.837 375.742 178.512 375.353 180.335C375.299 180.594 375.335 180.864 375.455 181.101C375.551 181.227 375.675 181.33 375.816 181.404C375.957 181.477 376.113 181.519 376.272 181.526C376.989 181.496 377.691 181.31 378.329 180.981C378.967 180.652 379.525 180.187 379.965 179.62L392.543 167.471C388.68 172.954 385.341 178.787 382.569 184.895C381.837 186.597 381.157 188.502 382.11 190C386.318 184.942 389.954 179.435 392.952 173.58C391.131 179.978 387.42 186.001 387.42 192.654C387.42 193.692 387.948 195.087 388.969 194.866C389.342 194.738 389.665 194.494 389.888 194.168C394.16 189.107 397.16 183.098 398.637 176.643C398.348 180.046 397.309 183.449 396.731 186.852C395.926 190.251 396.188 193.815 397.48 197.061C398.45 196.942 399.011 195.921 399.386 195.019C402.149 188.312 403.482 181.103 403.301 173.852C403.586 180.428 404.394 186.971 405.717 193.42C405.973 194.73 406.756 196.38 408.066 196.142C408.406 196.033 408.716 195.847 408.973 195.6C409.23 195.352 409.426 195.048 409.547 194.713C410.449 192.392 410.782 189.889 410.517 187.413C410.3 182.482 409.645 177.579 408.56 172.763C409.898 178.374 411.756 183.848 414.109 189.115C414.619 190.136 415.334 191.276 416.475 191.344C416.755 187.991 416.408 184.616 415.453 181.39C414.432 177.068 413.343 172.763 412.185 168.475L420.219 183.789C421.019 185.337 422.245 187.192 423.981 186.937C423.08 178.731 420.969 170.703 417.717 163.115L426.636 177.221C427.062 177.902 427.879 178.701 428.559 178.259C428.84 178.036 429.024 177.713 429.07 177.357C429.404 175.199 429.133 172.99 428.287 170.976C421.768 144.109 407.317 140.349 407.317 140.349C404.919 139.445 402.295 139.332 399.828 140.025Z" fill="#E0D8C7"/>
<path d="M405.856 143.157C408.447 144.273 410.743 145.976 412.563 148.132C414.383 150.288 415.676 152.837 416.34 155.578C416.917 158.337 416.622 161.207 415.497 163.792C414.372 166.377 412.472 168.548 410.06 170.007C407.857 171.129 405.397 171.651 402.928 171.522C400.809 171.468 398.737 170.883 396.903 169.82C395.229 168.699 393.861 167.178 392.922 165.396C391.983 163.613 391.502 161.625 391.524 159.611C391.646 155.539 392.895 151.581 395.133 148.177C396.317 145.978 398.083 144.147 400.239 142.885" fill="#E0D8C7"/>
<path d="M541.288 412.136C540.958 418.965 538.775 425.577 534.974 431.261C533.056 434.08 530.533 436.435 527.588 438.154C524.643 439.874 521.351 440.914 517.953 441.198C514.668 441.334 510.991 440.364 509.306 437.54C507.621 434.715 508.455 431.108 509.306 427.926C518.685 381.984 505.545 374.617 497.392 371.537C489.239 368.457 466.022 377.816 459.163 380.742C453.07 383.363 448.797 389.165 445.206 394.763C444.343 396.566 442.931 398.049 441.172 399C440.146 399.302 439.054 399.303 438.028 399.001C437.002 398.699 436.084 398.108 435.385 397.298C434.02 395.641 433.121 393.65 432.781 391.53C430.109 379.143 435.538 365.718 445.223 357.499C454.908 349.281 468.337 349.57 480.865 347.664C517.885 342.032 542.037 389.063 541.288 412.136Z" fill="#E0D8C7"/>
<path d="M556.249 398.881C556.573 401.059 556.386 403.986 554.309 404.598C552.607 405.143 550.905 403.85 549.748 402.607C539.535 392.16 534.225 377.697 523.655 367.641V366.654L523.195 366.416C523.195 366.416 515.298 360.188 517.51 356.207C517.991 355.142 518.87 354.309 519.958 353.886C521.047 353.463 522.258 353.484 523.331 353.943C532.008 358.263 539.524 364.597 545.251 372.415C550.978 380.233 554.749 389.308 556.249 398.881Z" fill="#E0D8C7"/>
<path d="M527.773 346.117C533.333 345.752 538.903 346.646 544.069 348.731C549.235 350.817 553.864 354.041 557.611 358.164C559.281 359.961 560.701 361.975 561.832 364.153C563.356 367.261 564.004 370.726 563.704 374.175C563.74 375.008 563.55 375.835 563.154 376.568C562.759 377.302 562.172 377.916 561.457 378.344C560.702 378.511 559.917 378.496 559.169 378.301C558.42 378.106 557.728 377.735 557.151 377.221C535.262 357.177 523.586 354.709 522.275 352.753C520.965 350.796 522.173 346.474 527.773 346.117Z" fill="#E0D8C7"/>
<path d="M556.08 346.95C556.914 346.201 557.782 345.861 557.918 344.874C558.007 343.875 557.774 342.873 557.254 342.015C556.306 340.244 554.847 338.797 553.067 337.864C552.152 337.403 551.194 337.032 550.207 336.758C542.344 334.392 533.919 335.056 525.97 337.098C522.416 338.488 518.944 340.078 515.57 341.862L521.408 345.895C536.285 341.641 551.331 350.115 556.08 346.95Z" fill="#E0D8C7"/>
<path d="M439.216 340.807C437.327 341.93 435.25 343.887 436.033 345.912C436.663 347.613 438.722 348.022 440.458 348.175C454.994 349.4 469.581 344.363 484.048 346.15L484.831 345.537L485.291 345.742C485.291 345.742 495.129 347.886 496.78 343.666C497.299 342.619 497.387 341.411 497.024 340.3C496.661 339.189 495.877 338.266 494.84 337.727C485.996 333.764 476.331 331.975 466.653 332.511C456.976 333.047 447.568 335.891 439.216 340.807Z" fill="#E0D8C7"/>
<path d="M498.091 329.322C494.841 324.797 490.613 321.062 485.722 318.393C480.831 315.724 475.402 314.191 469.837 313.906C467.389 313.762 464.934 313.945 462.535 314.45C459.159 315.245 456.063 316.945 453.582 319.368C452.93 319.879 452.428 320.557 452.128 321.329C451.829 322.102 451.743 322.94 451.88 323.758C452.23 324.448 452.74 325.044 453.368 325.497C453.996 325.95 454.723 326.246 455.488 326.361C484.849 330.564 494.176 337.999 496.525 337.778C498.874 337.557 501.359 333.865 498.091 329.322Z" fill="#E0D8C7"/>
<path d="M479.47 308.002C479.47 306.879 479.232 305.994 479.913 305.262C480.635 304.565 481.557 304.113 482.551 303.969C484.524 303.576 486.569 303.784 488.423 304.565C489.358 304.976 490.248 305.483 491.078 306.079C497.887 310.656 502.703 317.599 506.193 325.017C507.383 328.644 508.36 332.337 509.12 336.077L502.312 334.12C496.133 319.913 480.032 313.668 479.47 308.002Z" fill="#E0D8C7"/>
<path d="M525.324 371.197L507.384 352.344C506.664 351.482 505.786 350.766 504.797 350.234C503.51 349.776 502.141 349.597 500.78 349.706C494.068 349.71 487.41 348.512 481.121 346.167C483.842 342.531 487.122 339.349 490.84 336.741C497.733 331.908 507.044 329.237 514.567 332.963C519.809 335.567 523.264 340.79 525.63 346.133C529.034 353.654 530.583 362.689 526.669 369.955" fill="#E0D8C7"/>
<path d="M511.433 363.897C513.957 370.925 515.776 378.187 516.862 385.575C517.94 393.012 516.754 400.601 513.458 407.355C510.5 412.652 506.127 417.023 500.829 419.98C493.282 424.499 484.273 425.908 475.706 423.911C471.475 422.855 467.571 420.769 464.343 417.839C461.115 414.909 458.662 411.225 457.204 407.116C455.932 402.697 455.602 398.059 456.234 393.504C456.732 386.384 459.406 379.589 463.894 374.039C477.51 360.426 500.982 351.136 505.356 352.31C509.731 353.484 511.433 363.897 511.433 363.897Z" fill="#E0D8C7"/>
<path d="M504.489 364.254C505.226 369.858 504.785 375.554 503.194 380.977C501.602 386.4 498.895 391.432 495.247 395.749C495.167 395.869 495.064 395.971 494.944 396.05C494.825 396.129 494.69 396.183 494.549 396.209" stroke="#E0D8C7" stroke-width="0.658177" stroke-linecap="round" stroke-linejoin="round"/>
<path d="M500.303 365.854L482.652 395.988V395.035" stroke="#E0D8C7" stroke-width="0.658177" stroke-linecap="round" stroke-linejoin="round"/>
<path d="M500.592 362.451C489.309 367.438 479.853 375.803 473.529 386.392" stroke="#E0D8C7" stroke-width="0.658177" stroke-linecap="round" stroke-linejoin="round"/>
<path d="M516.302 333.848C516.979 337.209 517.327 340.628 517.341 344.057C517.574 348.242 516.65 352.41 514.668 356.104C511.536 361.208 505.596 363.897 500.03 366.313C498.226 359.507 498.005 351.799 501.937 345.895C503.73 343.45 505.902 341.307 508.371 339.548C510.634 337.656 513.149 336.087 515.843 334.886" fill="#E0D8C7"/>
<path d="M474.534 382.07L473.206 381.899L471.878 382.07C471.241 382.214 470.654 382.526 470.176 382.971C469.635 383.308 469.194 383.784 468.9 384.35C468.543 384.899 468.338 385.533 468.304 386.187C468.168 386.843 468.203 387.523 468.406 388.161L468.9 389.335C469.313 390.061 469.897 390.674 470.602 391.122L471.793 391.615C472.651 391.853 473.557 391.853 474.415 391.615L473.104 391.785L471.793 391.615C472.433 391.813 473.113 391.843 473.768 391.7C474.423 391.669 475.057 391.464 475.606 391.105C476.172 390.811 476.648 390.37 476.985 389.829C477.425 389.349 477.73 388.762 477.87 388.127L478.057 386.8C478.046 385.927 477.812 385.072 477.376 384.316L476.61 383.312C475.998 382.708 475.242 382.269 474.415 382.036L474.534 382.07Z" fill="#E0D8C7"/>
<path d="M485.802 401.297C486.402 400.698 486.836 399.953 487.061 399.136C487.284 398.288 487.284 397.397 487.061 396.549L486.568 395.358C486.274 394.793 485.833 394.317 485.291 393.98C484.991 393.673 484.616 393.45 484.202 393.333C483.614 393.029 482.957 392.883 482.296 392.908C481.634 392.884 480.978 393.031 480.389 393.333C479.78 393.537 479.231 393.888 478.789 394.354L478.023 395.358C477.665 395.906 477.465 396.542 477.445 397.196C477.326 397.625 477.326 398.078 477.445 398.506C477.465 399.16 477.665 399.796 478.023 400.344L478.789 401.348C479.402 401.951 480.157 402.39 480.985 402.624L482.296 402.794C482.958 402.828 483.617 402.68 484.202 402.369C484.614 402.259 484.99 402.041 485.291 401.739C485.83 401.391 486.269 400.911 486.568 400.344L482.347 402.76C482.791 402.804 483.239 402.746 483.657 402.59C484.468 402.361 485.207 401.927 485.802 401.331V401.297Z" fill="#E0D8C7"/>
<path d="M495.538 403.152C496.201 403.193 496.862 403.045 497.444 402.727C498.057 402.542 498.606 402.188 499.027 401.706C499.497 401.274 499.848 400.729 500.048 400.123C500.359 399.538 500.506 398.88 500.474 398.218L500.304 396.908C500.075 396.106 499.647 395.374 499.061 394.781L498.057 393.998C497.302 393.56 496.445 393.33 495.572 393.334C494.91 393.303 494.251 393.449 493.666 393.76C493.05 393.95 492.498 394.303 492.066 394.781C491.596 395.213 491.244 395.757 491.044 396.363C490.732 396.92 490.562 397.545 490.551 398.184L490.738 399.494C490.969 400.314 491.402 401.062 491.998 401.672L493.002 402.455C493.762 402.894 494.626 403.123 495.504 403.118L495.538 403.152Z" fill="#E0D8C7"/>
<path d="M278.283 189.149C282.861 189.149 286.572 185.439 286.572 180.863C286.572 176.286 282.861 172.576 278.283 172.576C273.705 172.576 269.994 176.286 269.994 180.863C269.994 185.439 273.705 189.149 278.283 189.149Z" fill="#E0D8C7"/>
<path d="M238.914 180.862C238.911 179.071 239.439 177.319 240.432 175.828C241.425 174.338 242.838 173.175 244.492 172.487C246.146 171.799 247.968 171.617 249.725 171.965C251.483 172.312 253.098 173.173 254.366 174.438C255.634 175.704 256.498 177.316 256.849 179.073C257.2 180.829 257.021 182.65 256.337 184.305C255.652 185.96 254.491 187.375 253.002 188.371C251.512 189.366 249.761 189.897 247.969 189.897C245.571 189.897 243.27 188.946 241.572 187.252C239.875 185.558 238.919 183.26 238.914 180.862Z" fill="#E0D8C7"/>
<path d="M226.625 205.245C226.625 203.694 227.085 202.177 227.947 200.888C228.81 199.598 230.035 198.592 231.469 197.998C232.903 197.405 234.48 197.249 236.002 197.552C237.524 197.855 238.923 198.602 240.02 199.699C241.117 200.796 241.865 202.194 242.167 203.715C242.47 205.237 242.315 206.814 241.721 208.247C241.127 209.681 240.121 210.906 238.831 211.768C237.541 212.63 236.023 213.09 234.472 213.09C233.441 213.09 232.421 212.887 231.469 212.492C230.517 212.098 229.652 211.52 228.923 210.792C228.195 210.064 227.617 209.199 227.222 208.247C226.828 207.296 226.625 206.276 226.625 205.245Z" fill="#E0D8C7"/>
</svg>
