<svg width="722" height="436" viewBox="0 0 722 436" fill="none" xmlns="http://www.w3.org/2000/svg">
<path d="M264.756 293.77C249.312 303.742 243.821 324.155 243.529 342.764C243.302 357.525 245.774 372.919 254.236 384.906C265.718 401.221 283.209 405.137 300.058 412.891C318.719 421.529 336.956 425.492 357.73 421.529" stroke="#E0D8C7" stroke-width="2.155" stroke-linecap="round" stroke-linejoin="round"/>
<path d="M225.64 369.851C220.56 364.313 217.773 356.923 215.985 349.504C211.035 328.646 213.086 306.652 221.798 287.176C222.265 286.145 223.072 284.942 224.145 285.18C224.878 285.333 225.309 286.135 225.621 286.832C232.039 301.097 231.608 317.815 227.868 333.072C226.731 337.674 225.805 342.315 224.567 346.888C223.072 352.368 221.303 363.921 227.611 371.35" fill="#E0D8C7"/>
<path d="M260.755 287.305C260.902 285.379 261.256 283.47 261.812 281.605C262.362 279.316 263.602 277.206 265.396 275.506C268.134 273.198 272.119 272.657 275.84 272.22C275.84 276.133 274.666 280.332 271.347 282.878C269.871 283.928 268.219 284.762 266.453 285.348C264.771 286.031 262.992 286.501 261.167 286.744" fill="#E0D8C7"/>
<path d="M38.7993 199.523C38.9915 203.44 40.2402 207.232 42.4125 210.495C43.5088 212.111 44.9526 213.461 46.6379 214.445C48.3233 215.429 50.2074 216.023 52.1517 216.182C54.0314 216.269 56.135 215.704 57.109 214.085C58.0829 212.466 57.5862 210.398 57.109 208.584C51.7427 182.249 59.2613 178.016 63.9264 176.26C68.5914 174.504 81.8757 179.849 85.8006 181.537C89.2969 183.029 91.7415 186.414 93.7867 189.564C94.28 190.6 95.0879 191.454 96.0949 192.002C96.6819 192.177 97.3069 192.178 97.8944 192.005C98.482 191.832 99.007 191.492 99.4062 191.027C100.193 190.077 100.708 188.931 100.896 187.711C102.425 180.61 99.3185 172.924 93.777 168.204C88.2354 163.483 80.5512 163.668 73.3831 162.576C52.1907 159.386 38.3805 186.297 38.7993 199.523Z" fill="#E0D8C7"/>
<path d="M32.394 193.353C32.2164 194.628 32.3192 196.304 33.469 196.715C34.4038 197.047 35.2919 196.284 35.9649 195.541C41.5736 189.389 44.4995 180.848 50.2952 174.927V174.344L50.5382 174.204C50.5382 174.204 54.8756 170.521 53.6604 168.182C53.3999 167.556 52.9217 167.064 52.328 166.811C51.7342 166.557 51.0718 166.563 50.4821 166.827C45.7146 169.378 41.5849 173.117 38.4382 177.732C35.2914 182.347 33.219 187.703 32.394 193.353Z" fill="#E0D8C7"/>
<path d="M48.3386 162.355C45.2006 162.166 42.0575 162.643 39.1419 163.753C36.2262 164.862 33.6126 166.575 31.4944 168.764C30.5541 169.717 29.7556 170.786 29.1211 171.942C28.2547 173.594 27.8858 175.438 28.0545 177.274C28.0353 177.718 28.144 178.158 28.369 178.549C28.594 178.939 28.9269 179.265 29.3325 179.492C29.7574 179.582 30.1991 179.575 30.6205 179.471C31.0419 179.367 31.4306 179.169 31.7539 178.894C44.1107 168.239 50.7023 166.918 51.4422 165.877C52.1821 164.836 51.5383 162.545 48.3386 162.355Z" fill="#E0D8C7"/>
<path d="M31.3117 161.938C30.8026 161.54 30.2727 161.363 30.1792 160.85C30.1303 160.329 30.2758 159.809 30.5948 159.363C31.1789 158.445 32.068 157.693 33.1508 157.203C33.7078 156.968 34.2885 156.775 34.8859 156.628C39.6862 155.407 44.8293 155.743 49.6815 156.814C51.8538 157.531 53.9737 158.359 56.0299 159.292L52.4661 161.381C43.3435 159.177 34.2106 163.584 31.3117 161.938Z" fill="#E0D8C7"/>
<path d="M97.2474 159.362C98.3085 160.132 99.4749 161.442 99.0351 162.81C98.6814 163.959 97.5246 164.235 96.5495 164.338C88.3946 165.166 80.1919 161.764 72.0657 162.971L71.6355 162.557L71.3678 162.695C71.3678 162.695 65.842 164.143 64.9146 161.293C64.6203 160.586 64.5697 159.769 64.7737 159.018C64.9778 158.266 65.4201 157.643 66.0045 157.281C70.972 154.604 76.4006 153.396 81.8362 153.757C87.2717 154.119 92.5561 156.041 97.2474 159.362Z" fill="#E0D8C7"/>
<path d="M65.4922 153.438C67.244 150.991 69.5248 148.97 72.1648 147.527C74.8048 146.083 77.736 145.255 80.7401 145.103C82.0617 145.021 83.3883 145.12 84.6831 145.397C86.5041 145.827 88.1747 146.743 89.5176 148.047C89.8765 148.32 90.1555 148.684 90.3253 149.101C90.4951 149.519 90.5495 149.975 90.4826 150.421C90.2945 150.793 90.0204 151.115 89.6832 151.359C89.3459 151.604 88.9551 151.765 88.5433 151.828C72.6796 154.101 67.6429 158.131 66.3746 158.002C65.1062 157.873 63.7184 155.895 65.4922 153.438Z" fill="#E0D8C7"/>
<path d="M75.4011 141.154C75.4011 140.48 75.5395 139.938 75.1441 139.499C74.725 139.081 74.189 138.809 73.6123 138.723C72.4657 138.49 71.2779 138.618 70.2025 139.091C69.6626 139.34 69.1465 139.641 68.6608 139.989C64.7075 142.737 61.9105 146.903 59.8845 151.367C59.1923 153.543 58.6247 155.76 58.1846 158.005L62.1379 156.83C65.7255 148.303 75.075 144.575 75.4011 141.154Z" fill="#E0D8C7"/>
<path d="M49.3992 175.245L59.0763 165.084C59.465 164.62 59.9397 164.233 60.4746 163.947C61.1699 163.701 61.9098 163.604 62.6455 163.663C66.2725 163.661 69.8702 163.015 73.2702 161.756C71.8026 159.791 70.0294 158.073 68.0176 156.666C64.3381 154.071 59.2603 152.631 55.1944 154.639C52.3612 156.042 50.4938 158.849 49.2152 161.728C47.3754 165.781 46.5475 170.66 48.6541 174.567" fill="#E0D8C7"/>
<path d="M57.1549 171.065C55.7286 175.028 54.7029 179.125 54.0934 183.294C53.4859 187.486 54.1528 191.765 56.0068 195.571C57.6695 198.562 60.1271 201.031 63.1059 202.703C67.3509 205.244 72.4115 206.039 77.2274 204.92C79.6077 204.326 81.8039 203.149 83.619 201.494C85.4341 199.839 86.8114 197.757 87.6272 195.436C88.3461 192.944 88.5352 190.328 88.1821 187.757C87.8919 183.746 86.3901 179.919 83.8768 176.786C76.2228 169.107 63.0293 163.856 60.5705 164.528C58.1117 165.2 57.1549 171.065 57.1549 171.065Z" fill="#E0D8C7"/>
<path d="M60.5554 170.935C60.0946 174.339 60.3744 177.798 61.3767 181.091C62.3791 184.385 64.0821 187.44 66.3768 190.061C66.4945 190.185 66.6336 190.33 66.8048 190.33" stroke="#FAF2E1" stroke-width="2.155" stroke-linecap="round" stroke-linejoin="round"/>
<path d="M64.6504 173.09L73.2704 190.33V189.785" stroke="#FAF2E1" stroke-width="2.155" stroke-linecap="round" stroke-linejoin="round"/>
<path d="M64.6504 170.935C70.0385 174.059 74.5581 179.331 77.5804 186.02" stroke="#FAF2E1" stroke-width="2.155" stroke-linecap="round" stroke-linejoin="round"/>
<path d="M54.4967 153.695C54.1097 155.704 53.9082 157.746 53.8949 159.794C53.7619 162.294 54.2977 164.783 55.4438 166.991C57.2591 170.04 60.7021 171.657 63.9282 173.09C64.9739 169.024 65.1022 164.419 62.8232 160.943C61.784 159.482 60.5251 158.202 59.0941 157.151C57.7809 156.025 56.3236 155.092 54.7631 154.376" fill="#E0D8C7"/>
<path d="M79.0731 181.821L79.6508 181.71L80.2285 181.821C80.7641 182.081 81.2226 182.608 81.5265 183.312C81.7067 183.672 81.8135 184.1 81.8341 184.547C81.9088 184.97 81.9088 185.415 81.8341 185.838L81.609 186.606C81.4251 187.063 81.1673 187.446 80.8587 187.719L80.341 188.052C79.9595 188.197 79.5597 188.197 79.1782 188.052L79.7633 188.175L80.341 188.052C80.0596 188.187 79.7589 188.206 79.4707 188.108C79.1823 188.095 78.9019 187.964 78.6605 187.73C78.4104 187.535 78.1985 187.247 78.0453 186.895C77.8508 186.582 77.7161 186.198 77.6551 185.782L77.5801 184.926C77.5782 184.352 77.6791 183.787 77.8727 183.29L78.2178 182.633C78.4846 182.24 78.8154 181.957 79.1782 181.81L79.0731 181.821Z" fill="#FAF2E1"/>
<path d="M72.0449 193.648C71.6555 193.256 71.3753 192.77 71.2323 192.236C71.0762 191.684 71.0762 191.099 71.2323 190.546L71.5551 189.779C71.7538 189.411 72.0407 189.097 72.39 188.867C72.5888 188.672 72.8339 188.53 73.1024 188.455C73.4855 188.253 73.9162 188.157 74.3492 188.177C74.7787 188.157 75.2059 188.253 75.5849 188.455C75.9846 188.586 76.3447 188.815 76.6313 189.123L77.1322 189.779C77.3655 190.138 77.4999 190.552 77.5219 190.98C77.5997 191.26 77.5997 191.556 77.5219 191.836C77.4964 192.263 77.3623 192.676 77.1322 193.037L76.6313 193.693C76.2355 194.086 75.7446 194.369 75.2064 194.516L74.3492 194.638C73.9167 194.654 73.4873 194.558 73.1024 194.36C72.8332 194.281 72.5882 194.136 72.39 193.937C72.0386 193.714 71.751 193.404 71.5551 193.037L74.3158 194.627C74.0281 194.652 73.7386 194.61 73.4698 194.505C72.9358 194.362 72.4484 194.082 72.056 193.693L72.0449 193.648Z" fill="#FAF2E1"/>
<path d="M66.8016 188.176C67.0898 188.16 67.3759 188.256 67.632 188.454C67.8938 188.598 68.1316 188.826 68.3288 189.122C68.5259 189.418 68.6778 189.774 68.7738 190.167C68.9063 190.551 68.9702 190.98 68.9592 191.412L68.8776 192.268C68.7827 192.808 68.5933 193.299 68.329 193.692L67.8915 194.192C67.5626 194.489 67.1853 194.642 66.8016 194.637C66.5156 194.658 66.2311 194.562 65.9786 194.359C65.7124 194.229 65.4726 193.999 65.2817 193.692C65.0771 193.409 64.9239 193.053 64.8368 192.658C64.7049 192.273 64.6411 191.844 64.6515 191.412L64.7256 190.556C64.8275 190.015 65.0187 189.522 65.2817 189.122L65.7191 188.621C66.0487 188.337 66.4214 188.184 66.8016 188.176Z" fill="#FAF2E1"/>
<path d="M105.281 227.918C106.567 225.957 108.317 224.219 109.742 222.369C111.277 220.516 112.084 218.339 112.059 216.118C111.945 214.846 111.413 213.62 110.519 212.563C109.624 211.507 108.397 210.656 106.961 210.097C106.553 209.909 106.101 209.789 105.633 209.745C105.165 209.7 104.69 209.732 104.238 209.838C103.672 210.052 103.176 210.369 102.79 210.763C100.121 213.254 98.2889 216.246 97.466 219.457C96.6432 222.668 96.8564 225.993 98.0856 229.12" fill="#E0D8C7"/>
<path d="M99.1305 228.909C98.5172 226.348 97.9224 223.778 97.3459 221.198C96.9412 219.489 96.4996 217.685 95.2946 216.418C94.7089 215.851 94.0533 215.365 93.3444 214.971C92.2314 214.314 90.8516 213.666 89.7201 214.286C88.5887 214.905 88.3219 216.483 88.3587 217.817C88.5392 222.838 90.5007 227.621 93.878 231.275" fill="#E0D8C7"/>
<path d="M94.8204 232.208C93.8001 230.533 92.7799 228.885 91.627 227.272C89.7702 224.613 87.5461 221.954 84.1998 220.793C82.7205 220.305 80.68 220.341 79.9761 221.564C79.6551 222.294 79.6551 223.102 79.9761 223.833C80.8346 226.383 82.3023 228.748 84.2834 230.773C86.2645 232.798 88.7146 234.438 91.474 235.585" fill="#E0D8C7"/>
<path d="M90.5095 234.533L85.526 230.706C84.093 229.511 82.507 228.497 80.8068 227.689C79.0893 226.884 77.1163 226.744 75.2948 227.298C74.9261 227.373 74.5792 227.525 74.279 227.744C73.9787 227.963 73.7327 228.244 73.5585 228.565C73.3842 228.887 73.2862 229.241 73.2715 229.604C73.2567 229.966 73.3256 230.327 73.4731 230.661C74.1126 232.273 75.2079 233.68 76.635 234.723C79.8926 237.389 83.8274 239.174 88.0367 239.895" fill="#E0D8C7"/>
<path d="M85.9755 241.727C80.9559 240.392 75.6654 239.056 70.6845 240.558C69.7056 240.805 68.7904 241.282 68.0055 241.955C67.6172 242.295 67.3072 242.725 67.0992 243.214C66.8912 243.702 66.791 244.235 66.8062 244.771C66.888 245.373 67.1074 245.944 67.4448 246.434C67.7823 246.923 68.2273 247.316 68.7405 247.577C70.2533 248.318 71.9189 248.628 73.5764 248.478C78.7701 248.478 84.3023 247.743 88.3547 244.274" fill="#E0D8C7"/>
<path d="M99.1299 239.895C103.001 248.461 113.242 255.216 122.523 255.186C124.866 255.186 127.189 254.768 129.521 254.758C133.61 254.82 137.594 256.094 140.995 258.427C144.397 260.76 147.07 264.053 148.695 267.91" stroke="#E0D8C7" stroke-width="2.155" stroke-miterlimit="10"/>
<path d="M120.689 245.234C120.642 242.751 120.77 240.267 121.07 237.807C121.468 234.753 121.899 231.526 123.614 229.12C126.663 232.347 127.375 237.607 127.085 242.37C126.837 246.465 125.818 250.828 123.009 253.367L121.352 254.98C121.856 254.287 122.196 253.455 122.338 252.565C122.413 251.343 120.731 248.671 120.689 245.234Z" fill="#E0D8C7"/>
<path d="M106.483 259.584C102.628 261.275 99.3327 264.005 96.9746 267.46C101.402 268.298 105.974 267.962 110.227 266.486C114.479 265.01 118.26 262.447 121.184 259.058C121.794 258.402 122.26 257.629 122.553 256.787C122.707 256.195 122.801 255.59 122.835 254.98C117.141 255.493 111.595 257.055 106.483 259.584Z" fill="#E0D8C7"/>
<path d="M112.06 252.825C111.205 251.683 110.619 250.325 110.353 248.871C110.12 247.994 109.97 247.093 109.906 246.182C109.893 245.026 110.001 243.871 110.228 242.742C110.38 241.754 110.541 240.844 110.693 239.895" stroke="#E0D8C7" stroke-width="2.13345" stroke-linecap="round" stroke-linejoin="round"/>
<path d="M112.06 251.422C107.026 250.062 101.688 250.558 96.9746 252.825" stroke="#E0D8C7" stroke-width="2.155" stroke-miterlimit="10"/>
<path d="M110.347 239.819C109.901 238.333 109.791 236.772 110.025 235.241C110.258 233.71 110.829 232.245 111.7 230.946C112.813 229.461 114.121 228.123 115.592 226.965C116.591 229.353 116.629 232.015 115.699 234.43C114.749 236.819 112.896 238.772 110.513 239.895" fill="#E0D8C7"/>
<path d="M96.9755 253.547C95.6081 252.325 93.777 252.82 92.2737 253.81C90.2906 255.158 88.5634 257.559 88.3555 260.475C88.7065 260.859 89.1157 261.139 89.5556 261.297C89.9956 261.455 90.4561 261.487 90.9063 261.392C92.4375 261.248 93.8903 260.445 95.0404 259.107C95.6071 258.439 96.0673 257.63 96.3941 256.726C96.7208 255.822 96.9076 254.841 96.9435 253.841" fill="#E0D8C7"/>
<path d="M95.7375 209.725C95.9699 209.723 96.2014 209.704 96.4279 209.668L96.6208 209.632C97.0237 209.582 97.4079 209.476 97.7505 209.319C98.0931 209.163 98.3871 208.96 98.6149 208.723C98.8426 208.486 98.9995 208.219 99.0762 207.938C99.1528 207.658 99.1476 207.369 99.0609 207.09C98.9742 206.811 98.8078 206.547 98.5716 206.313C98.3354 206.08 98.0342 205.883 97.6861 205.732C97.338 205.582 96.9501 205.482 96.5455 205.439C96.1409 205.396 95.728 205.41 95.3314 205.481L95.0573 205.523C94.3216 205.636 93.672 205.935 93.2337 206.362C92.7955 206.79 92.5997 207.315 92.6843 207.838C92.7689 208.36 93.1277 208.842 93.6916 209.19C94.2555 209.539 94.9844 209.729 95.7375 209.725Z" fill="#E0D8C7"/>
<path d="M81.8938 214.035C82.2067 214.032 82.5152 213.962 82.7983 213.829C83.0814 213.696 83.3323 213.504 83.534 213.266C83.7356 213.028 83.8832 212.75 83.9666 212.45C84.0501 212.15 84.0674 211.835 84.0175 211.528C83.934 211.027 83.6751 210.571 83.2865 210.241C82.8979 209.911 82.4046 209.728 81.8938 209.725C81.5262 209.732 81.1664 209.831 80.847 210.012C80.5276 210.193 80.2588 210.451 80.0653 210.762C79.8717 211.073 79.7595 211.427 79.7388 211.792C79.7182 212.157 79.7898 212.521 79.947 212.852C80.1301 213.209 80.4088 213.508 80.7524 213.717C81.0961 213.926 81.4911 214.036 81.8938 214.035Z" fill="#E0D8C7"/>
<path d="M71.1273 222.655C71.4855 222.653 71.8374 222.561 72.1505 222.388C72.4636 222.215 72.7279 221.967 72.9189 221.666V221.63C73.0737 221.396 73.1804 221.134 73.2328 220.859C73.2852 220.584 73.2822 220.301 73.224 220.027C73.1658 219.753 73.0536 219.493 72.8939 219.262C72.7341 219.031 72.53 218.834 72.2933 218.682C71.8225 218.381 71.2515 218.276 70.7035 218.39C70.1556 218.504 69.6745 218.827 69.3642 219.29L69.2931 219.396C69.0874 219.718 68.9727 220.089 68.961 220.47C68.9492 220.851 69.0409 221.228 69.2264 221.561C69.412 221.895 69.6844 222.172 70.0152 222.365C70.3459 222.557 70.7227 222.658 71.106 222.655H71.1273Z" fill="#E0D8C7"/>
<path d="M64.6584 237.74C65.029 237.739 65.3934 237.597 65.7174 237.326C66.0415 237.055 66.3145 236.665 66.5109 236.191L66.562 236.081C66.8102 235.356 66.8709 234.517 66.7324 233.728C66.5939 232.939 66.2659 232.256 65.8121 231.81C65.3583 231.365 64.8108 231.188 64.2756 231.316C63.7405 231.443 63.2558 231.865 62.9152 232.5L62.8277 232.697C62.6205 233.197 62.5059 233.771 62.4958 234.359C62.4858 234.948 62.5806 235.53 62.7705 236.045C62.9603 236.56 63.2383 236.988 63.5754 237.287C63.9126 237.585 64.2966 237.741 64.6876 237.74H64.6584Z" fill="#E0D8C7"/>
<path d="M107.545 230.293L107.75 227.252C107.75 227.252 100.567 225.47 92.2545 230.796C83.9424 236.123 84.045 246.36 84.045 246.36C84.045 246.36 93.0344 244.685 96.6055 242.796" fill="#E0D8C7"/>
<path d="M88.4602 243.478C90.1558 238.949 93.0269 235.048 96.7267 232.247C98.7461 230.532 101.162 229.451 103.71 229.12H103.919C104.216 229.12 104.504 229.12 104.792 229.12C105.061 229.127 105.329 229.153 105.595 229.196C105.386 231.208 104.461 234.806 100.864 238.386C97.3367 241.654 92.974 243.684 88.3555 244.205L88.4602 243.478Z" fill="#E0D8C7"/>
<path d="M105.595 227.006C105.595 227.006 89.4358 225.279 86.2002 244.205" stroke="#FAF2E1" stroke-width="2.155" stroke-linecap="round" stroke-linejoin="round"/>
<path d="M16.3527 179.555C31.2089 203.372 31.5159 233.116 27.1878 260.601C22.8597 288.087 14.3124 315.029 13.0645 342.801C11.8166 370.572 19.0862 400.582 40.9447 418.76" stroke="#E0D8C7" stroke-width="2.155" stroke-miterlimit="10"/>
<path d="M28.521 207.57C33.3567 215.973 39.1446 223.757 45.7636 230.76C51.6738 237.004 58.2929 242.681 62.9695 249.956C64.0189 251.584 65.004 253.533 64.5253 255.425C63.9545 257.715 61.4781 258.945 59.1858 259.21C53.5702 259.862 48.0835 256.466 44.5853 251.896C41.087 247.326 39.209 241.706 37.3863 236.2C34.2563 226.739 31.1324 217.299 28.0146 207.882L28.521 207.57Z" fill="#E0D8C7"/>
<path d="M23.1315 217.802C25.1169 213.871 26.6001 209.71 27.5467 205.415C28.7153 219.296 27.694 233.273 24.5197 246.842C23.7099 250.266 22.6977 253.776 20.5575 256.34C18.4174 258.903 14.8408 260.233 12.1223 258.521C9.40374 256.809 8.56504 253.03 8.62288 249.597C8.82533 237.468 17.8293 228.314 23.1315 217.802Z" fill="#E0D8C7"/>
<path d="M30.8839 239.895C28.6131 262.025 32.4392 272.379 32.9545 277.065C34.0422 286.966 39.2614 298.098 47.6675 303.323C48.7859 304.114 50.1179 304.541 51.4841 304.545C54.5088 304.343 56.3694 300.763 55.9782 297.733C55.587 294.702 53.7073 292.094 51.904 289.631C46.9615 282.838 31.1797 260.948 30.8553 239.895" fill="#E0D8C7"/>
<path d="M14.1704 293.297C12.3834 295.522 10.5496 298.558 7.80821 298.017C4.7768 297.417 3.89731 293.278 4.4774 290.135C6.09602 281.296 13.3658 274.991 18.7363 267.893C25.2893 259.197 29.2609 248.723 30.1696 237.74C30.1696 237.74 29.7205 245.331 29.524 247.507C29.3275 249.683 25.9967 278.482 14.1704 293.297Z" fill="#E0D8C7"/>
<path d="M25.0233 278.685C24.8244 296.757 32.2562 309.893 39.8418 325.226C41.3426 328.269 42.9158 331.418 43.0876 334.832C43.2594 338.247 41.6139 342.052 38.5037 343.07C34.625 344.325 30.8187 340.91 28.5584 337.363C19.1194 322.562 21.1627 303.073 23.5676 285.429" fill="#E0D8C7"/>
<path d="M18.2797 338.73C19.8077 346.323 23.5727 353.301 29.1021 358.789C35.582 365.207 44.4702 369.582 48.687 377.644C49.4502 378.829 49.7302 380.256 49.4703 381.636C48.5999 384.674 44.2284 384.693 41.2012 383.681C24.7112 378.198 16.5871 360.623 15.3008 343.43C14.9451 338.019 15.0292 332.589 15.5523 327.192L16.3067 321.785L18.2797 338.73Z" fill="#E0D8C7"/>
<path d="M17.2402 379.97C21.5341 387.682 27.4045 394.396 34.4667 399.673C39.7195 403.593 45.5729 406.633 50.5873 410.897C55.6018 415.161 59.8536 420.84 60.3112 427.388C60.5018 430.256 59.7773 433.411 57.4512 435.037C54.0288 437.341 49.4243 435.113 46.1925 432.541C32.7603 421.93 24.8668 405.744 19.8333 389.425" fill="#E0D8C7"/>
<path d="M18.7591 407.732C19.7764 411.768 20.0612 417.434 15.7887 418.59C11.7195 419.689 8.66771 415.236 7.45715 411.474C-2.81738 362.319 15.3512 336.87 15.3512 336.87C15.3512 336.87 8.84065 376.162 18.7591 407.732Z" fill="#E0D8C7"/>
<path d="M21.55 293.77C21.55 293.77 -13.8136 325.652 6.06187 351.953C9.00638 352.197 6.11095 329.549 21.55 295.709" fill="#E0D8C7"/>
<path d="M114.215 375.66C122.224 385.007 133.64 393.257 146.54 392.888" stroke="#E0D8C7" stroke-width="2.155" stroke-linecap="round" stroke-linejoin="round"/>
<path d="M108.712 366.734C104.12 370.743 101.723 376.732 99.6197 382.533C96.5062 391.107 93.6315 400.294 95.3214 409.283C95.3486 409.652 95.4509 410.01 95.6218 410.335C95.7927 410.66 96.0283 410.945 96.3133 411.17C97.443 411.83 98.7197 410.595 99.3993 409.453C100.984 406.803 102.17 403.922 102.917 400.908C102.917 405.133 102.752 409.67 100.29 413.047C99.8783 413.534 99.5238 414.069 99.234 414.641C98.4992 416.395 99.7851 418.565 101.567 419.103C102.478 419.309 103.426 419.259 104.312 418.959C105.197 418.658 105.988 418.118 106.6 417.395C107.809 415.934 108.637 414.182 109.006 412.302C109.456 410.415 109.723 408.529 110.329 406.737C111.09 408.462 111.396 410.363 111.217 412.248C111.038 414.134 110.38 415.938 109.309 417.48C108.389 418.511 107.616 419.67 107.013 420.923C106.844 421.51 106.792 422.127 106.863 422.735C106.934 423.343 107.124 423.93 107.424 424.46C107.723 424.99 108.124 425.452 108.603 425.817C109.082 426.181 109.629 426.442 110.209 426.582C110.734 426.705 111.282 426.659 111.78 426.45C112.273 426.181 112.696 425.793 113.011 425.319C116.795 420.282 117.254 413.49 117.603 407.142C119.518 412.586 119.518 418.545 117.603 423.989C117.107 425.128 116.776 426.335 116.62 427.573C116.552 428.195 116.661 428.824 116.935 429.384C117.209 429.943 117.636 430.409 118.163 430.723C120 431.582 121.92 429.667 122.755 427.79C125.134 422.508 124.326 416.367 123.463 410.604C125.108 413.232 126.226 416.171 126.749 419.249C127.273 422.326 127.192 425.48 126.512 428.526C126.144 430.091 125.694 431.978 126.787 433.138C127.227 433.535 127.777 433.779 128.36 433.833C128.943 433.887 129.528 433.75 130.029 433.44C131.018 432.792 131.782 431.842 132.215 430.723C133.479 427.584 133.749 424.116 132.987 420.81C132.21 417.561 131.101 414.406 129.68 411.396C133.375 415.475 135.638 420.703 136.11 426.252C136.238 427.695 136.339 429.374 137.487 430.214C138.948 431.289 141.161 430.101 141.776 428.375C142.392 426.648 141.933 424.734 141.345 422.989C140.029 419.037 138.21 415.282 135.935 411.821C141.124 414.575 142.658 421.347 146.314 426.016C151.246 422.668 156.545 418.669 157.739 412.726C153.635 410.151 149.95 406.93 146.819 403.181C149.853 405.388 153.177 407.141 156.692 408.387C157.987 408.998 159.449 409.125 160.825 408.746C162.148 408.236 163.038 406.416 162.166 405.265C161.566 404.668 160.791 404.29 159.962 404.19C155.259 402.971 151.108 400.126 148.206 396.135L155.48 399.219C157.546 400.096 159.778 400.992 161.909 400.464C164.04 399.936 165.886 397.314 164.765 395.324C159.674 395.203 154.665 393.974 150.07 391.72C152.789 392.574 155.656 392.816 158.474 392.428C159.893 392.235 161.254 391.731 162.467 390.95C163.679 390.168 164.714 389.128 165.5 387.9C165.95 387.127 166.198 385.948 165.5 385.448C165.089 385.242 164.623 385.186 164.177 385.287C160.058 385.701 155.905 385.581 151.815 384.929C153.959 385.495 156.198 385.569 158.373 385.146C160.513 384.599 162.524 382.958 162.91 380.732C163.268 378.666 162.221 376.647 161.202 374.827C157.405 376.853 153.134 377.754 148.867 377.43C151.172 377.398 153.43 376.747 155.415 375.544C156.821 374.685 158.171 373.186 157.822 371.554C157.473 369.922 155.581 369.224 154.01 369.441C152.44 369.658 151.044 370.554 149.574 371.139C148.105 371.724 146.295 371.978 144.982 371.016C147.038 370.39 148.999 369.47 150.805 368.281C151.208 368.085 151.532 367.752 151.723 367.338C151.98 366.489 151.135 365.744 150.391 365.291C142.759 360.575 133.859 357.575 125.042 358.632C116.225 359.688 107.638 365.451 104.882 374.101" fill="#E0D8C7"/>
<path d="M106.72 366.404C102.548 369.88 99.5203 374.508 98.0246 379.695C96.5289 384.883 96.6332 390.394 98.3242 395.522C100.019 400.395 103.192 404.965 102.916 410.14C104.488 410.301 106.075 410.037 107.507 409.377C108.94 408.717 110.164 407.685 111.051 406.392C111.938 405.098 112.453 403.59 112.542 402.03C112.632 400.469 112.291 398.914 111.558 397.53C113.982 401.428 113.43 406.437 112.543 410.949C112.307 412.216 112.169 413.785 113.243 414.506C114.317 415.227 116.002 414.379 116.859 413.258C119.815 409.36 118.731 403.903 117.105 399.333C118.198 401.784 118.919 404.381 119.244 407.041C119.608 410.062 119.5 413.278 121.037 415.909C121.164 416.176 121.375 416.394 121.638 416.533C122.15 416.767 122.742 416.396 123.146 415.997C125.372 413.804 125.954 410.384 125.432 407.333C124.733 404.299 123.549 401.394 121.924 398.729C124.113 402.08 125.792 405.731 126.91 409.565C127.142 410.65 127.58 411.682 128.201 412.605C128.522 413.06 128.983 413.401 129.515 413.577C130.048 413.752 130.623 413.753 131.157 413.58C132.812 412.859 132.576 410.481 131.984 408.795C130.648 405.002 128.89 401.368 126.742 397.959C129.15 402.818 133.151 406.727 138.094 409.049C139.109 409.603 140.255 409.879 141.414 409.848C141.99 409.814 142.538 409.594 142.976 409.223C143.414 408.852 143.717 408.349 143.838 407.791C143.857 407.008 143.63 406.239 143.188 405.589C140.163 400.121 136.066 395.304 131.137 391.42C134.733 395.571 138.783 399.83 144.154 401.165C145.057 401.452 146.029 401.452 146.932 401.165C147.381 401.014 147.759 400.708 147.997 400.303C148.236 399.899 148.32 399.423 148.233 398.962C148.016 398.202 147.248 397.754 146.568 397.364C141.877 394.737 137.546 391.528 133.679 387.814C137.195 390.96 141.46 393.173 146.075 394.246C148.43 394.782 151.564 394.636 152.45 392.414C152.59 392.102 152.65 391.762 152.626 391.422C152.602 391.083 152.495 390.754 152.312 390.465C151.988 390.121 151.596 389.846 151.161 389.657C150.725 389.468 150.256 389.368 149.78 389.364C145.054 388.65 140.487 387.137 136.281 384.891C139.128 386.45 142.114 388.038 145.375 388.175C148.637 388.311 152.204 386.469 152.923 383.302C153.18 382.152 152.845 380.671 151.711 380.31C151.111 380.186 150.489 380.223 149.908 380.418C145.422 381.425 140.724 380.939 136.547 379.034C138.311 379.962 140.208 380.619 142.173 380.983C143.157 381.15 144.166 381.111 145.133 380.868C146.101 380.624 147.006 380.182 147.79 379.57C150.017 377.621 150.214 374.327 150.243 371.384C147.533 372.086 144.843 370.409 142.508 368.909C138.413 366.047 133.954 363.733 129.245 362.029C124.5 360.316 119.333 360.112 114.464 361.444C110.363 362.783 106.762 365.309 104.128 368.694" fill="#E0D8C7"/>
<path d="M108.458 363.935C111.542 362.246 115.314 362.567 118.723 363.473C121.191 364.123 123.615 364.926 125.981 365.879C127.833 366.624 129.8 367.634 130.545 369.474C129.117 369.527 127.687 369.477 126.267 369.323C127.222 369.577 128.177 369.86 129.189 370.2C130.853 370.676 132.372 371.551 133.61 372.747C133.209 373.408 132.264 373.408 131.5 373.314L130.813 373.21C131.535 373.418 132.193 373.804 132.722 374.333C132.831 374.432 132.902 374.565 132.923 374.71C132.923 374.798 132.902 374.884 132.862 374.963C132.823 375.042 132.765 375.11 132.694 375.163C132.355 375.377 131.973 375.517 131.574 375.573C131.175 375.628 130.769 375.598 130.383 375.484L120.681 374.012C124.229 375.265 127.65 376.844 130.898 378.729C131.767 379.229 132.722 379.909 132.808 380.909C129.243 379.965 125.791 378.643 122.514 376.965C125.379 379.267 129.075 380.805 131.233 383.805C131.576 384.277 131.787 385.079 131.233 385.305C131.022 385.376 130.794 385.376 130.583 385.305C126.978 384.384 123.649 382.624 120.872 380.173C122.113 381.635 123.66 382.805 125.035 384.145C126.495 385.42 127.524 387.106 127.986 388.975C127.725 389.061 127.445 389.077 127.175 389.022C126.906 388.968 126.655 388.844 126.449 388.664C123.008 386.511 120.056 383.678 117.778 380.343C119.784 383.408 121.54 386.626 123.03 389.966C123.336 390.645 123.517 391.646 122.83 391.957C122.641 392.016 122.44 392.03 122.245 391.999C122.049 391.968 121.863 391.892 121.703 391.778C120.522 391 119.556 389.943 118.895 388.702C117.406 386.404 116.128 383.979 115.076 381.456C116.282 384.421 117.206 387.492 117.835 390.627C117.94 390.942 117.959 391.278 117.891 391.603C117.822 391.928 117.668 392.229 117.444 392.476C116.225 391.046 115.286 389.405 114.675 387.636C113.72 385.362 112.841 383.06 111.982 380.748C112.421 383.928 112.851 387.098 113.29 390.268C113.424 391.212 113.443 392.429 112.583 392.9C110.346 388.91 108.718 384.615 107.752 380.154C107.914 383.23 108.086 386.315 108.248 389.391C108.248 389.843 108.162 390.457 107.704 390.476C107.505 390.465 107.317 390.381 107.179 390.24C106.328 389.367 105.737 388.28 105.469 387.098C104.775 384.925 104.295 382.691 104.037 380.427L103.884 380.871C102.108 370.408 106.08 365.247 108.458 363.935Z" fill="#E0D8C7"/>
<path d="M107.238 367.126C105.238 369.826 105.17 373.929 106.461 377.09C107.103 378.681 108.188 380.019 109.565 380.917C110.943 381.815 112.546 382.229 114.151 382.103C115.542 381.875 116.853 381.262 117.958 380.324C118.933 379.553 119.714 378.531 120.23 377.351C120.639 376.183 120.772 374.924 120.616 373.687C120.46 372.449 120.02 371.274 119.336 370.266C117.938 368.251 116.049 366.693 113.879 365.766C112.611 365.074 111.188 364.781 109.772 364.918C109.772 364.918 108.918 364.876 107.238 367.126Z" fill="#E0D8C7"/>
<path d="M265.065 397.21C241.163 385.455 218.734 367.947 208.217 343.584C202.233 329.721 200.435 314.501 196.745 299.908C193.054 285.315 186.773 270.398 174.555 261.445" stroke="#E0D8C7" stroke-width="2.155" stroke-linecap="round" stroke-linejoin="round"/>
<path d="M199.173 306.7C196.531 300.493 191.631 296.321 186.179 292.009C179.623 286.833 173.56 280.942 169.351 273.935C165.141 266.929 162.854 258.677 164.136 250.704C171.323 250.304 178.332 253.492 183.547 258.222C188.761 262.955 192.833 268.692 195.486 275.041C200.277 286.415 200.415 306.691 200.415 306.691L199.173 306.7Z" fill="#E0D8C7"/>
<path d="M204.725 334.715C199.341 320.939 184.208 306.994 175.821 300.848C166.84 294.324 155.228 293.258 144.385 291.615C154.413 314.973 177.011 331.986 201.472 334.665L204.725 334.715Z" fill="#E0D8C7"/>
<path d="M349.11 422.987C333.509 428.699 317.258 433.468 300.566 433.825C283.874 434.183 266.541 429.635 254.29 418.76C281.883 422.959 311.094 429.433 339.864 424.656C348.191 423.326 349.11 422.987 349.11 422.987Z" fill="#E0D8C7"/>
<path d="M303.855 414.45C303.855 414.45 280.034 409.908 267.456 410.328C259.767 410.582 252.601 411.432 246.236 410.533C241.902 409.845 237.658 408.658 233.582 406.996C225.703 403.932 218.191 399.956 211.19 395.146C211.19 395.146 266.847 383.189 303.855 414.45Z" fill="#E0D8C7"/>
<path d="M159.47 341.181C175.65 341.098 190.707 348.688 203.921 357.368C216.899 365.902 229.088 375.765 243.515 381.924C210.405 384.143 176.468 367.799 159.47 341.181Z" fill="#E0D8C7"/>
<path d="M159.47 267.918C123.376 267.348 95.4762 298.449 97.037 332.787C97.5049 342.444 100.012 351.903 104.402 360.575" stroke="#E0D8C7" stroke-width="2.155" stroke-miterlimit="10"/>
<path d="M133.39 334.355C134.92 334.865 136.586 334.832 138.093 334.261C138.83 333.951 139.424 333.39 139.765 332.684C140.105 331.978 140.168 331.176 139.941 330.428C139.656 329.847 139.251 329.329 138.751 328.906C131.406 321.899 122.301 315.981 118.227 306.814C116.266 302.242 115.674 297.225 116.52 292.342C117.365 287.458 119.614 282.905 123.008 279.207L125.523 276.53L120.685 279.827C120.685 279.827 105.648 297.599 121.421 326.042C124.846 332.147 133.39 334.355 133.39 334.355Z" fill="#E0D8C7"/>
<path d="M96.9748 321.785C91.4625 323.063 84.463 359.612 72.3378 375.036C67.4996 381.184 61.4519 387.158 60.4605 394.845C60.1914 396.247 60.375 397.695 60.9859 398.989C61.5989 399.909 62.4764 400.631 63.5083 401.065C64.5402 401.499 65.6804 401.626 66.7858 401.429C68.9994 400.999 71.0539 399.996 72.7344 398.525C82.8767 390.556 87.5265 377.669 89.8365 365.16C92.1466 352.651 92.6423 339.745 96.7766 327.671" fill="#E0D8C7"/>
<path d="M89.4186 303.467C87.4573 304.088 85.4296 304.428 83.3868 304.48C79.953 304.759 76.5076 304.138 73.3433 302.667C71.7791 301.904 70.3941 300.768 69.2915 299.344C68.1889 297.921 67.397 296.247 66.9749 294.446C66.2642 290.811 67.8165 286.62 70.9399 285.081C74.2784 283.43 78.1219 285.02 81.61 286.265C92.4111 290.113 104.886 290.244 114.593 283.825L116.37 282.995L113.2 286.498C113.2 286.498 102.586 298.172 89.4186 303.467Z" fill="#E0D8C7"/>
<path d="M63.213 330.405C66.1421 330.584 68.007 333.512 68.6319 336.172C69.0036 337.505 69.0602 338.896 68.7979 340.251C67.8996 344.161 62.5881 346.571 58.5654 345.009C54.5427 343.447 52.7071 338.475 54.6599 334.922C55.7408 333.167 57.4925 331.838 59.5791 331.19C61.6656 330.543 63.9401 330.623 65.9664 331.414" fill="#E0D8C7"/>
<path d="M194.546 410.106C194.86 410.151 195.179 410.151 195.494 410.106C197.314 409.788 199.172 407.302 199.172 407.302C200.936 404.68 202.661 401.77 202.566 398.628C202.406 396.572 201.755 394.587 200.67 392.845C200.019 391.502 199.039 390.35 197.826 389.501C197.006 389.015 196.089 388.722 195.143 388.643C193.958 388.511 192.759 388.624 191.618 388.974C190.477 389.324 189.417 389.904 188.501 390.679C187.585 391.454 186.833 392.409 186.288 393.487C185.743 394.564 185.417 395.742 185.33 396.951C193.825 398.367 194.621 406.511 194.546 410.106Z" fill="#E0D8C7"/>
<path d="M202.975 416.591C205.291 416.696 207.598 416.233 209.691 415.241C210.587 414.797 211.452 414.291 212.277 413.726C213.241 413.161 214.064 412.387 214.688 411.463C215.278 410.222 215.543 408.852 215.459 407.482C215.581 406.058 215.429 404.624 215.01 403.257C214.364 401.835 213.383 400.59 212.15 399.625C211.147 398.644 209.941 397.892 208.617 397.421C207.955 397.197 207.245 397.151 206.56 397.287C205.874 397.424 205.237 397.738 204.713 398.197C204.713 398.197 205.367 405.238 200.047 409.54C194.728 413.842 202.975 416.591 202.975 416.591Z" fill="#E0D8C7"/>
<path d="M196.567 423.754C199.844 426.971 204.233 430.106 206.447 429.446C209.61 428.487 211.756 425.249 212.801 421.898C213.276 420.587 213.444 419.17 213.29 417.773C213.089 416.401 212.284 413.937 211.124 414.545C209.964 415.153 204.281 419.34 200.026 417.154C195.771 414.968 195.292 415.339 195.292 415.339L194.017 417.567C194.017 417.567 193.299 420.537 196.567 423.754Z" fill="#E0D8C7"/>
<path d="M187.247 430.177C188.418 433.108 181.616 431.144 179.089 429.616C176.831 428.245 174.62 426.021 174.555 423.143C174.573 421.937 174.85 420.754 175.363 419.693C177.528 414.809 182.564 411.453 187.358 412.481C187.358 412.481 191.642 411.858 191.791 414.331C191.939 416.804 188.074 418.155 187.609 419.527C187.145 420.898 184.878 424.203 187.247 430.177Z" fill="#E0D8C7"/>
<path d="M177.912 418.241C175.649 421.001 173.888 412.017 174.8 408.526C175.531 406.257 176.754 404.186 178.377 402.471C179.673 400.974 181.251 399.467 183.195 399.383C183.976 399.314 184.761 399.44 185.485 399.748C186.908 400.413 192.529 402.2 193.825 410.623C195.12 419.045 186.105 408.236 177.912 418.241Z" fill="#E0D8C7"/>
<path d="M193.887 416.605C194.557 427.914 204.472 425.668 204.725 431.408C204.476 432.833 203.763 434.138 202.696 435.124C201.507 435.821 200.121 436.115 198.748 435.959C195.379 435.879 191.645 435.345 189.473 432.828C188.1 431.117 187.397 428.971 187.494 426.786C187.765 424.339 188.323 421.933 189.158 419.616C189.679 418.804 190.372 418.114 191.189 417.594C192.005 417.074 192.926 416.736 193.887 416.605Z" fill="#E0D8C7"/>
<path d="M187.831 416.849C186.834 414.496 188.11 411.779 190.183 410.093C191.042 409.372 192.057 408.814 193.166 408.454C194.275 408.094 195.455 407.938 196.633 407.997C197.81 408.076 198.941 408.437 199.907 409.042C200.872 409.647 201.635 410.473 202.116 411.433C202.507 412.373 202.649 413.381 202.529 414.377C202.41 415.374 202.033 416.332 201.428 417.177C199.544 419.885 198.119 421.404 193.184 420.773C188.249 420.143 187.831 416.849 187.831 416.849Z" fill="#E0D8C7"/>
<path d="M187.831 416.849C186.834 414.496 188.11 411.779 190.183 410.093C191.042 409.372 192.057 408.814 193.166 408.454C194.275 408.094 195.455 407.938 196.633 407.997C197.81 408.076 198.941 408.437 199.907 409.042C200.872 409.647 201.635 410.473 202.116 411.433C202.507 412.373 202.649 413.381 202.529 414.377C202.41 415.374 202.033 416.332 201.428 417.177C199.544 419.885 198.119 421.404 193.184 420.773C188.249 420.143 187.831 416.849 187.831 416.849Z" stroke="#FAF2E1" stroke-width="2.155" stroke-miterlimit="10"/>
<path d="M168.09 226.965C157.634 216.711 151.007 202.948 149.381 188.11C149.352 187.185 149.139 186.275 148.755 185.439C147.483 183.176 143.937 183.496 142.263 185.488C140.588 187.479 140.28 190.257 140.158 192.87C139.765 200.757 140.607 209.577 146.257 214.852C148.461 216.716 150.916 218.235 153.544 219.359L166.996 225.955" fill="#E0D8C7"/>
<path d="M131.455 204.327C128.02 199.048 127.237 192.445 127.454 186.135C127.671 179.826 128.775 173.573 128.719 167.263C128.802 166.05 128.536 164.839 127.954 163.772C126.53 161.672 123.095 161.994 121.274 163.772C119.452 165.55 118.811 168.18 118.282 170.668C116.839 177.432 115.537 184.471 117.037 191.225C118.537 197.979 123.548 204.469 130.379 205.415" fill="#E0D8C7"/>
<path d="M155.156 248.211C155.243 243.512 154.151 238.867 151.981 234.707C149.811 230.547 146.635 227.007 142.745 224.416C140.481 222.936 137.381 221.849 135.213 223.436C132.891 225.16 133.27 228.991 135.213 231.214C137.157 233.438 139.888 234.555 142.424 235.956C147.712 238.876 152.088 243.226 155.058 248.515" fill="#E0D8C7"/>
<path d="M146.54 267.91C146.54 267.91 131.759 277.815 140.819 294.305C149.878 310.794 145.198 319.624 136.013 313.23C126.829 306.836 118.06 277.187 146.54 267.91Z" fill="#E0D8C7"/>
<path d="M101.893 306.7C111.08 346.883 151.626 341.836 155.028 348.654C158.43 355.471 94.9331 366.326 101.806 306.71L101.893 306.7Z" fill="#E0D8C7"/>
<path d="M224.12 423.051C224.116 424.33 224.492 425.581 225.199 426.646C225.906 427.711 226.914 428.543 228.093 429.036C229.273 429.529 230.573 429.66 231.828 429.415C233.083 429.169 234.236 428.557 235.143 427.655C236.05 426.754 236.669 425.603 236.922 424.35C237.175 423.097 237.051 421.796 236.565 420.614C236.079 419.431 235.254 418.419 234.193 417.705C233.132 416.992 231.883 416.609 230.604 416.605C229.755 416.603 228.914 416.767 228.129 417.09C227.343 417.413 226.629 417.887 226.027 418.485C225.425 419.084 224.947 419.795 224.62 420.579C224.292 421.362 224.123 422.202 224.12 423.051Z" fill="#E0D8C7"/>
<path d="M75.4248 425.225C75.4248 426.504 75.804 427.754 76.5143 428.817C77.2247 429.88 78.2344 430.709 79.4158 431.198C80.5971 431.688 81.897 431.816 83.1511 431.566C84.4051 431.317 85.5571 430.701 86.4612 429.797C87.3654 428.893 87.9811 427.741 88.2306 426.487C88.48 425.233 88.352 423.933 87.8627 422.751C87.3734 421.57 86.5447 420.56 85.4816 419.85C84.4184 419.14 83.1685 418.76 81.8898 418.76C80.1752 418.76 78.5308 419.442 77.3184 420.654C76.1059 421.866 75.4248 423.511 75.4248 425.225Z" fill="#E0D8C7"/>
<path d="M28.7116 7.15532C19.8291 51.235 32.462 117.037 56.0304 153.695" stroke="#E0D8C7" stroke-width="1.59648" stroke-miterlimit="10"/>
<path d="M35.0048 95.5096C34.0783 96.2826 34.5415 97.8668 35.153 98.9643C40.9808 109.538 48.3559 119.33 57.6118 126.888C66.8677 134.446 78.0786 139.676 89.8453 140.726C92.9399 141.002 97.2575 139.828 96.961 136.631C96.8313 134.952 95.3674 133.768 93.9498 132.929C89.4284 130.314 84.1843 129.503 79.1255 128.214C60.9828 123.455 45.1339 112.075 34.523 96.1872" fill="#E0D8C7"/>
<path d="M31.7157 94.2938C31.0935 108.995 30.3742 124.121 23.9388 137.529C22.1113 141.37 19.8366 144.999 17.8924 148.795C17.4504 149.504 17.2248 150.316 17.241 151.14C17.4452 152.904 19.681 153.781 21.5572 153.689C25.3873 153.504 28.6341 150.918 30.8602 147.917C38.0052 138.378 37.0137 125.552 35.7208 113.907C34.8718 106.335 34.0293 98.7663 33.1933 91.2003" fill="#E0D8C7"/>
<path d="M28.545 74.9251C21.1778 86.8724 16.6026 100.214 15.1358 114.027C15.0305 114.946 15.0209 116.114 15.7967 116.721C17.1663 117.779 18.9957 116.151 19.8577 114.689C26.808 102.889 30.0265 89.4004 29.1196 75.8723C32.6713 86.1387 40.0543 94.78 49.8463 100.131C54.3384 102.568 59.9032 104.242 64.5772 102.145C65.0082 99.0187 63.4758 95.8921 61.2537 93.5839C58.9098 91.3853 56.2447 89.5266 53.3423 88.0663L28.4587 73.9596" fill="#E0D8C7"/>
<path d="M23.6525 46.8297C18.9593 54.7234 15.476 63.2478 13.3142 72.1305C12.8677 73.4528 12.8088 74.8708 13.1441 76.2241C13.5882 77.5363 15.0341 78.6174 16.4043 78.1646C17.031 77.9188 17.5768 77.5097 17.9825 76.9819C21.7625 72.5833 23.2367 66.6878 23.8604 60.9586C24.4841 55.2294 24.4274 49.3986 25.7504 43.7895C26.0998 51.1521 28.7925 58.2239 33.4522 64.0173C38.1772 69.6633 45.3119 73.5443 52.7869 73.7754C53.9304 73.7754 55.3006 73.6368 55.8298 72.6388C56.359 71.6408 55.7448 70.5042 55.0644 69.6356C52.4562 66.3274 48.5533 64.2852 44.9623 62.0121C37.9245 57.5695 31.7253 51.9703 26.6387 45.4621" fill="#E0D8C7"/>
<path d="M27.2836 14.8794C24.7393 15.9855 22.5208 17.7342 20.8424 19.9565C18.3563 23.1036 16.6091 26.7771 15.7317 30.7017C14.8544 34.6263 14.8698 38.7002 15.7767 42.618C17.1424 42.9695 18.2079 41.4463 18.7793 40.1478C20.9768 35.1624 22.6863 29.9729 23.8838 24.6528C24.7555 20.8255 25.4239 16.7735 27.7582 13.6199C29.2427 22.4579 32.3818 30.9304 37.0082 38.5856C39.8365 43.2624 43.459 47.7927 48.5248 49.7747C49.1065 50.0694 49.7451 50.2325 50.3958 50.2527C51.0466 50.273 51.6939 50.1498 52.2926 49.8919C53.6196 49.1205 53.9973 47.3533 53.8423 45.8302C53.4452 41.9248 50.5879 38.8101 47.8855 36.0079L28.0778 15.4262" fill="#E0D8C7"/>
<path d="M76.5027 313.165C79.4782 313.165 81.8902 316.059 81.8902 319.63C81.8902 323.2 79.4782 326.095 76.5027 326.095C73.5273 326.095 71.1152 323.2 71.1152 319.63C71.1152 316.059 73.5273 313.165 76.5027 313.165Z" fill="#E0D8C7"/>
<path d="M58.594 4.99961C55.3718 12.4688 55.1804 20.8078 58.0569 28.4033C60.9334 35.9988 66.6733 42.3107 74.1661 46.1179C76.5285 47.4693 79.2465 48.1554 82.0036 48.0961C84.7381 47.8787 87.4956 46.2266 88.1821 43.7484C89.0631 40.4876 86.4315 37.3899 83.7198 35.2595C78.388 31.0749 72.0265 28.1945 66.7061 23.9881C61.3857 19.7818 57.015 13.5102 57.8961 6.98866C58.0219 6.13 58.7999 5.03222 59.5551 5.51047" fill="#E0D8C7"/>
<path d="M68.5482 64.7848C67.9663 64.8308 67.3859 64.671 66.8778 64.3249C66.3697 63.9788 65.9559 63.4614 65.6869 62.8357C65.1719 61.5867 64.8671 60.2264 64.7903 58.8337C64.6091 57.2306 64.4661 55.3738 65.2863 54.1283C65.8266 53.3678 66.562 52.8481 67.3751 52.652C69.8644 51.9139 72.4682 52.9865 74.8145 54.2321C75.635 54.5828 76.3674 55.1825 76.9414 55.9736C77.358 56.7066 77.5808 57.5753 77.5804 58.4647C77.5797 60.2061 77.1683 61.9111 76.3946 63.3799C75.6209 64.8486 74.5169 66.0201 73.2121 66.757C72.5056 67.2001 71.7277 67.452 70.9326 67.4951C69.9001 67.4666 68.9154 66.9626 68.1798 66.0859C67.4442 65.2092 67.0131 64.0261 66.9745 62.7781" fill="#E0D8C7"/>
<path d="M686.394 162.014C680.53 152.092 673.507 142.902 665.473 134.638C658.306 127.261 650.279 120.576 644.608 111.994C643.335 110.063 642.141 107.775 642.721 105.532C643.424 102.831 646.427 101.392 649.196 101.068C656.006 100.298 662.66 104.304 666.902 109.684C671.144 115.063 673.432 121.714 675.643 128.198C679.431 139.359 683.219 150.493 687.008 161.601L686.394 162.014Z" fill="#E0D8C7"/>
<path d="M692.613 149.559C690.339 154.17 688.64 159.043 687.555 164.067C686.181 147.863 687.348 131.543 691.016 115.699C691.943 111.704 693.115 107.608 695.593 104.617C698.072 101.626 702.213 100.086 705.35 102.106C708.487 104.126 709.47 108.512 709.414 112.507C709.179 126.625 698.764 137.305 692.613 149.559Z" fill="#E0D8C7"/>
<path d="M684.252 123.198C686.909 97.5298 682.444 85.5327 681.83 80.0865C680.557 68.6138 674.45 55.7015 664.626 49.6415C663.319 48.7197 661.76 48.2211 660.161 48.213C656.611 48.4474 654.434 52.599 654.892 56.1256C655.349 59.6522 657.56 62.6543 659.658 65.5225C665.441 73.4016 683.917 98.7909 684.286 123.198" fill="#E0D8C7"/>
<path d="M703.228 62.0302C705.349 59.4633 707.537 55.9479 710.808 56.584C714.425 57.2759 715.475 62.0525 714.794 65.6684C712.862 75.8688 704.177 83.1452 697.78 91.3368C689.953 101.365 685.21 113.45 684.127 126.123C684.127 126.123 684.663 117.373 684.908 114.851C685.154 112.329 689.017 79.1164 703.228 62.0302Z" fill="#E0D8C7"/>
<path d="M689.542 79.7852C689.799 58.5808 680.611 43.1686 671.245 25.1784C669.392 21.6072 667.461 17.9131 667.237 13.8955C667.014 9.87782 669.057 5.43608 672.908 4.24194C677.686 2.75764 682.398 6.7753 685.188 10.938C696.843 28.3033 694.32 51.1147 691.351 71.8726" fill="#E0D8C7"/>
<path d="M645.534 19.8555C642.129 19.6211 640.053 15.9717 639.338 12.646C638.913 10.9787 638.848 9.24004 639.148 7.5458C640.175 2.64648 646.248 -0.355587 650.848 1.59744C655.447 3.55047 657.546 9.75552 655.313 14.2084C654.076 16.4009 652.071 18.0591 649.685 18.8645C647.299 19.6699 644.7 19.5657 642.386 18.5721" fill="#E0D8C7"/>
<path d="M636.893 31.3391C636.893 30.0147 636.5 28.72 635.764 27.6189C635.028 26.5177 633.982 25.6595 632.758 25.1527C631.534 24.6459 630.187 24.5132 628.888 24.7716C627.588 25.03 626.395 25.6677 625.458 26.6042C624.521 27.5407 623.883 28.7338 623.625 30.0327C623.366 31.3316 623.499 32.678 624.006 33.9016C624.513 35.1251 625.371 36.1709 626.473 36.9066C627.574 37.6424 628.87 38.0352 630.194 38.0352C631.971 38.0352 633.674 37.3297 634.931 36.0739C636.187 34.8182 636.893 33.115 636.893 31.3391Z" fill="#E0D8C7"/>
<path d="M702.525 206.177C686.898 181.496 683.955 149.305 685.425 119.211C686.895 89.1168 692.246 59.2941 690.892 29.1219" stroke="#E0D8C7" stroke-width="1.46223" stroke-miterlimit="10"/>
<path d="M673.184 430.427C684.028 421.222 688.72 406.717 691.392 392.75C700.713 344.657 687.456 272.864 662.724 232.857" stroke="#E0D8C7" stroke-width="1.46223" stroke-miterlimit="10"/>
<path d="M685.114 296.51C686.15 295.681 685.632 293.963 684.959 292.772C678.434 281.3 670.19 270.667 659.854 262.467C649.517 254.267 636.975 248.582 623.822 247.464C620.352 247.164 615.536 248.437 615.857 251.906C616.012 253.718 617.638 255.012 619.233 255.923C624.277 258.76 630.15 259.63 635.805 261.038C656.078 266.204 673.79 278.547 685.653 295.775" fill="#E0D8C7"/>
<path d="M690.045 297.598C690.708 281.115 691.485 264.156 698.331 249.133C700.278 244.825 702.701 240.746 704.773 236.501C705.245 235.706 705.489 234.796 705.477 233.871C705.259 231.894 702.867 230.9 700.878 231.003C696.798 231.21 693.328 234.109 690.957 237.474C683.344 248.18 684.401 262.551 685.778 275.607C686.676 284.097 687.573 292.587 688.471 301.077" fill="#E0D8C7"/>
<path d="M693.149 319.817C701.117 306.37 706.064 291.352 707.649 275.803C707.753 274.768 707.773 273.443 706.924 272.759C705.453 271.579 703.465 273.412 702.533 275.047C695.037 288.342 691.582 303.533 692.59 318.761C688.742 307.2 680.756 297.469 670.167 291.437C665.31 288.704 659.292 286.82 654.238 289.18C653.782 292.69 655.429 296.221 657.832 298.82C660.371 301.289 663.252 303.382 666.387 305.032L693.315 320.873" fill="#E0D8C7"/>
<path d="M697.699 351.303C702.835 342.46 706.649 332.913 709.019 322.965C709.508 321.483 709.573 319.894 709.205 318.378C708.719 316.908 707.134 315.697 705.643 316.194C704.977 316.481 704.398 316.938 703.965 317.519C699.822 322.447 698.206 329.063 697.523 335.483C696.839 341.902 696.912 348.425 695.451 354.72C695.06 346.472 692.11 338.551 687.01 332.055C681.832 325.719 674.002 321.37 665.81 321.122C664.556 321.122 663.055 321.277 662.485 322.395C661.915 323.514 662.578 324.787 663.324 325.76C666.183 329.467 670.45 331.755 674.385 334.292C682.097 339.276 688.89 345.553 694.467 352.846" fill="#E0D8C7"/>
<path d="M694.313 384.528C697.031 383.351 699.4 381.493 701.19 379.133C703.852 375.798 705.722 371.902 706.66 367.74C707.598 363.578 707.58 359.257 706.606 355.102C705.146 354.74 704.017 356.355 703.396 357.732C701.052 363.018 699.224 368.517 697.938 374.153C697.006 378.222 696.301 382.519 693.795 385.863C692.204 376.486 688.847 367.495 683.904 359.368C680.88 354.419 677.006 349.605 671.6 347.513C670.977 347.198 670.292 347.023 669.594 347.002C668.896 346.98 668.202 347.112 667.561 347.389C666.152 348.196 665.738 350.081 665.904 351.696C666.328 355.837 669.383 359.13 672.273 362.112C679.337 369.38 686.397 376.628 693.453 383.855" fill="#E0D8C7"/>
<path d="M686.815 412.68C691.42 410.382 695.461 407.097 698.651 403.06C701.842 399.023 704.102 394.332 705.272 389.322C701.222 388.669 698.167 392.759 696.137 396.321C692.981 401.843 689.826 407.365 686.67 412.887C686.563 407.046 685.156 401.302 682.551 396.073C679.946 390.843 676.209 386.259 671.611 382.654C670.244 381.618 668.173 380.666 666.951 381.877C666.637 382.282 666.415 382.75 666.299 383.248C666.183 383.747 666.175 384.264 666.277 384.766C667.23 396.155 675.982 405.183 684.216 413.146" fill="#E0D8C7"/>
<path d="M594.452 347.761C595.962 354.542 595.787 361.589 593.943 368.287C592.1 374.984 588.644 381.129 583.878 386.184C564.831 406.094 530.125 408.03 504.854 402.501C486.377 398.453 469.278 389.777 451.308 383.751C437.461 379.04 422.423 375.934 407.747 378.201C393.071 380.469 377.059 391.34 371.56 399.747" stroke="#E0D8C7" stroke-width="1.46223" stroke-miterlimit="10"/>
<path d="M583.357 385.812C585.366 378.026 582.321 369.629 577.257 363.365C572.192 357.101 565.367 352.597 558.614 348.217C551.861 343.838 544.995 339.385 539.837 333.215C540.035 340.872 542.713 348.258 547.47 354.264C557.102 366.336 573.891 371.161 583.005 383.627" fill="#E0D8C7"/>
<path d="M587.149 383.006C592.069 379.31 598.2 377.725 604.104 376.007C614.803 372.901 625.854 368.697 632.958 360.166C637.816 354.378 640.457 347.099 643.005 339.976C629.233 341.959 616.567 348.633 607.149 358.871C604.047 362.413 601.156 366.132 598.49 370.012L591.127 380.241" fill="#E0D8C7"/>
<path d="M557.021 402.471C567.015 406.498 577.61 410.609 588.268 409.014C591.465 408.49 594.592 407.604 597.589 406.374C606.556 402.817 614.691 397.445 621.482 390.595C613.943 390.502 606.175 390.44 599.142 393.183C596.491 394.219 593.964 395.627 591.406 396.818C583.665 400.357 575.15 401.872 566.663 401.218C564.262 400.882 561.831 400.802 559.413 400.98" fill="#E0D8C7"/>
<path d="M557.536 399.902C559.524 393.224 557.246 386.07 554.429 379.682C551.549 373.034 548.018 366.501 542.756 361.521C538.955 357.918 534.367 355.236 530.462 351.747C525.556 347.344 521.84 341.775 519.66 335.554C521.645 344.51 524.561 353.233 528.36 361.583C530.007 365.622 532.054 369.486 534.471 373.117C541.027 382.436 551.788 388.927 555.93 399.571" fill="#E0D8C7"/>
<path d="M531.314 406.178C539.466 406.095 547.521 407.951 554.814 411.593C558.315 413.354 561.598 415.497 565.037 417.36C579.278 425.084 595.849 427.714 612.037 427.114C602.353 434.227 589.49 436.163 577.662 433.916C565.834 431.669 555.032 425.706 545.628 418.251C540.284 414.006 535.198 409.191 528.87 406.613" fill="#E0D8C7"/>
<path d="M490.547 399.499C510.836 406.354 522.654 429.101 543.057 435.634C537.05 436.669 530.929 435.313 524.994 433.998C518.718 432.621 512.265 431.161 507.004 427.485C501.101 423.344 497.32 416.925 493.726 410.692L486.477 398.06" fill="#E0D8C7"/>
<path d="M469.264 400.162C472.371 405.339 473.469 411.468 475.872 417.018C479.365 425.02 485.386 431.658 493.013 435.913C481.703 435.064 471.47 427.889 465.163 418.467C458.856 409.045 456.204 397.842 455.552 386.64C460.761 390.502 465.981 394.571 469.264 400.162Z" fill="#E0D8C7"/>
<path d="M525.874 404.438C529.541 402.948 530.483 398.143 530.017 394.209C528.981 384.746 523.223 376.608 518.086 368.542C512.949 360.477 508.091 351.5 509.075 342.026C506.951 347.092 505.63 352.457 505.16 357.93C504.702 361.883 505.055 365.889 506.196 369.702C507.35 372.761 508.873 375.668 510.732 378.357L526.91 403.983" fill="#E0D8C7"/>
<path d="M454.715 384.011C450.537 378.711 448.339 372.12 448.5 365.374C448.853 358.696 452.301 352.08 458.019 348.611C462.068 346.158 466.957 345.36 471.017 342.927C473.092 341.672 474.899 340.02 476.335 338.065C477.771 336.111 478.807 333.893 479.385 331.538C482.425 336.489 483.532 342.388 482.492 348.104C481.941 350.928 480.736 353.584 478.973 355.858C477.211 358.133 474.94 359.963 472.342 361.202C469.722 362.361 466.832 362.817 464.202 363.945C460.444 365.712 457.432 368.75 455.698 372.522C453.964 376.295 453.619 380.558 454.725 384.56" fill="#E0D8C7"/>
<path d="M486.521 395.793C490.404 393.901 493.382 390.552 494.806 386.475C496.175 382.415 496.814 378.146 496.691 373.864C496.771 369.018 496.487 364.172 495.842 359.369C494.931 352.753 493.574 345.194 497.862 340.08C488.83 347.224 481.57 357.816 481.974 369.319C482.285 378.098 486.977 386.63 485.433 395.275" fill="#E0D8C7"/>
<path d="M663.934 430.654C666.857 423.537 667.033 415.588 664.429 408.349C661.825 401.109 656.625 395.092 649.838 391.465C647.703 390.171 645.24 389.517 642.744 389.581C640.268 389.788 637.783 391.362 637.161 393.723C636.364 396.829 638.735 399.779 641.2 401.809C646.016 405.795 651.775 408.539 656.591 412.535C661.407 416.532 665.363 422.527 664.555 428.739C664.452 429.557 663.748 430.592 663.064 430.137" fill="#E0D8C7"/>
<path d="M653.513 429.774C653.938 423.044 649.111 416.625 642.825 414.191C640.463 413.27 637.75 412.866 635.45 413.902C633.151 414.937 631.556 417.795 632.592 420.114C633.628 422.433 636.735 423.22 639.324 423.572C644.502 424.369 650.002 425.643 653.171 429.784" fill="#E0D8C7"/>
<path d="M692.704 430.705C697.414 430.758 702.081 429.806 706.394 427.913C710.707 426.021 714.567 423.231 717.716 419.73C719.736 417.463 721.497 414.76 721.776 411.737C722.056 408.714 720.461 405.359 717.572 404.417C717.165 404.278 716.738 404.204 716.308 404.2C714.237 404.2 712.693 406.105 711.492 407.823L700.907 422.971C698.494 426.429 695.625 430.218 691.451 430.86" fill="#E0D8C7"/>
<path d="M653.164 366.211C653.795 366.171 654.425 366.315 654.976 366.626C655.528 366.937 655.977 367.4 656.271 367.961C656.826 369.085 657.16 370.304 657.255 371.554C657.451 373.003 657.607 374.66 656.706 375.788C656.121 376.472 655.321 376.936 654.437 377.103C651.734 377.776 648.917 376.814 646.369 375.695C645.474 375.383 644.675 374.845 644.049 374.132C643.6 373.472 643.358 372.693 643.355 371.895C643.355 370.333 643.8 368.803 644.639 367.485C645.477 366.167 646.674 365.114 648.089 364.451C648.851 364.049 649.693 363.819 650.554 363.778C651.674 363.806 652.742 364.26 653.54 365.046C654.338 365.833 654.807 366.893 654.852 368.013" fill="#E0D8C7"/>
<path d="M446.532 382.778C445.227 382.312 444.057 383.741 443.58 385.045C441.25 391.465 444.482 398.422 447.475 404.562C450.468 410.702 453.306 418.022 450.292 424.11C447.464 429.867 439.365 432.238 433.876 428.925" stroke="#E0D8C7" stroke-width="1.46223" stroke-miterlimit="10"/>
<path d="M349.424 395.16C349.724 394.933 350.084 394.799 350.46 394.777C364.038 392.985 377.305 400.73 386.606 410.794C388.946 413.341 391.453 416.198 394.539 417.472C394.456 417.627 394.394 417.793 394.322 417.959C392.323 418.756 390.417 420.029 388.408 420.837C382.681 423.187 376.114 421.945 370.262 419.884C364.949 418.01 359.781 415.422 355.763 411.488C351.744 407.553 348.927 402.169 349.01 396.506C348.984 396.265 349.008 396.022 349.079 395.79C349.15 395.559 349.268 395.344 349.424 395.16Z" fill="#E0D8C7"/>
<path d="M414.848 411.198C414.597 410.942 414.311 410.722 413.999 410.546C412.228 409.573 408.976 410.401 408.976 410.401C405.713 411.436 402.295 412.689 400.255 415.423C399.002 417.276 398.227 419.41 397.997 421.635C397.652 423.201 397.709 424.829 398.163 426.367C398.542 427.334 399.133 428.204 399.892 428.914C400.817 429.83 401.917 430.55 403.127 431.032C404.337 431.513 405.632 431.745 406.933 431.714C408.235 431.683 409.517 431.39 410.703 430.852C411.888 430.313 412.953 429.542 413.833 428.582C407.598 421.593 412.362 414.242 414.848 411.198Z" fill="#E0D8C7"/>
<path d="M412.262 401.684C410.409 400.067 408.185 398.933 405.789 398.381C404.748 398.154 403.693 398.005 402.63 397.935C401.455 397.769 400.258 397.871 399.129 398.236C397.819 398.885 396.694 399.853 395.857 401.052C394.809 402.159 393.983 403.455 393.423 404.872C393.026 406.491 393.026 408.182 393.423 409.801C393.609 411.271 394.11 412.684 394.893 413.942C395.296 414.571 395.858 415.081 396.522 415.421C397.186 415.761 397.928 415.919 398.674 415.878C398.674 415.878 402.816 409.573 410.066 409.49C417.316 409.407 412.262 401.684 412.262 401.684Z" fill="#E0D8C7"/>
<path d="M421.115 399.23C420.358 394.498 418.567 389.052 416.309 388.11C413.036 386.733 409.194 387.851 406.221 389.787C405.008 390.49 403.984 391.478 403.238 392.665C402.555 393.887 401.706 396.351 403.062 396.662C404.419 396.972 411.845 397.49 414.082 402.066C416.319 406.643 416.951 406.674 416.951 406.674L419.406 405.804C419.406 405.804 421.871 403.961 421.115 399.23Z" fill="#E0D8C7"/>
<path d="M433.524 399.665C434.311 396.559 439.034 402.771 440.287 405.753C441.416 408.394 441.965 411.665 440.235 413.943C439.479 414.876 438.504 415.609 437.398 416.076C432.478 418.395 426.005 417.515 422.453 413.394C422.453 413.394 418.31 410.92 419.729 408.88C421.148 406.84 425.342 408.476 426.616 407.7C427.89 406.923 431.919 405.96 433.524 399.665Z" fill="#E0D8C7"/>
<path d="M434.435 417.453C438.35 416.656 433.731 425.684 430.52 428.055C428.313 429.526 425.797 430.468 423.167 430.809C420.992 431.192 418.547 431.379 416.766 430.084C416.026 429.587 415.413 428.924 414.974 428.148C414.177 426.575 410.407 421.046 415.057 412.835C419.707 404.625 420.236 420.331 434.435 417.453Z" fill="#E0D8C7"/>
<path d="M419.406 406.996C426.096 397.46 416.723 392.997 420.203 388.193C421.318 387.206 422.726 386.609 424.211 386.495C425.606 386.683 426.899 387.328 427.888 388.328C430.539 390.523 433.149 393.298 433.305 396.725C433.302 398.98 432.482 401.158 430.995 402.854C429.218 404.653 427.232 406.235 425.081 407.565C424.151 407.887 423.161 408.003 422.181 407.905C421.201 407.806 420.254 407.496 419.406 406.996Z" fill="#E0D8C7"/>
<path d="M424.948 410.568C424.026 413.332 421.043 415.01 418.133 415.217C416.911 415.322 415.681 415.176 414.518 414.788C413.354 414.4 412.283 413.778 411.37 412.96C410.471 412.126 409.814 411.066 409.468 409.891C409.122 408.716 409.099 407.469 409.402 406.282C409.767 405.173 410.383 404.163 411.202 403.332C412.021 402.5 413.021 401.869 414.125 401.488C417.625 400.225 419.883 399.759 423.446 403.558C427.009 407.358 424.948 410.568 424.948 410.568Z" fill="#E0D8C7"/>
<path d="M424.948 410.568C424.026 413.332 421.043 415.01 418.133 415.217C416.911 415.322 415.681 415.176 414.518 414.788C413.354 414.4 412.283 413.778 411.37 412.96C410.471 412.126 409.814 411.066 409.468 409.891C409.122 408.716 409.099 407.469 409.402 406.282C409.767 405.173 410.383 404.163 411.202 403.332C412.021 402.5 413.021 401.869 414.125 401.488C417.625 400.225 419.883 399.759 423.446 403.558C427.009 407.358 424.948 410.568 424.948 410.568Z" stroke="#E0D8C7" stroke-width="1.46223" stroke-miterlimit="10"/>
<path d="M593.412 351.085C600.175 350.495 606.193 346.695 611.806 342.875C620.092 337.222 628.595 330.875 632.748 321.722C632.964 321.371 633.103 320.978 633.155 320.569C633.207 320.16 633.17 319.745 633.048 319.351C632.427 318.036 630.47 318.316 629.123 318.885C625.983 320.222 623.064 322.027 620.465 324.238C623.168 320.48 626.182 316.504 630.594 315.085C631.279 314.917 631.943 314.67 632.572 314.35C634.364 313.253 634.561 310.468 633.256 308.832C632.551 308.052 631.649 307.477 630.644 307.167C629.64 306.858 628.57 306.825 627.549 307.072C625.506 307.59 623.63 308.624 622.101 310.074C620.506 311.441 619.046 312.973 617.337 314.216C617.736 312.175 618.664 310.274 620.027 308.703C621.39 307.131 623.14 305.944 625.105 305.26C626.605 304.941 628.052 304.411 629.403 303.686C629.936 303.27 630.379 302.75 630.703 302.157C631.028 301.563 631.227 300.91 631.29 300.237C631.352 299.563 631.275 298.884 631.065 298.242C630.854 297.599 630.514 297.007 630.066 296.5C629.66 296.056 629.129 295.746 628.543 295.61C627.918 295.524 627.28 295.595 626.689 295.817C620.009 297.888 615.297 303.634 610.957 309.122C612.66 303.003 616.443 297.668 621.656 294.036C622.841 293.345 623.917 292.479 624.846 291.469C625.303 290.957 625.602 290.323 625.705 289.645C625.808 288.966 625.711 288.272 625.426 287.648C624.286 285.691 621.283 286.147 619.336 287.275C613.784 290.454 610.626 296.48 607.767 302.195C607.92 298.764 608.76 295.398 610.236 292.296C611.713 289.195 613.796 286.421 616.363 284.138C617.699 282.968 619.305 281.57 619.035 279.821C618.884 279.18 618.532 278.604 618.031 278.175C617.53 277.747 616.906 277.49 616.249 277.439C614.925 277.382 613.617 277.745 612.511 278.475C609.355 280.458 606.905 283.385 605.509 286.84C604.141 290.27 603.138 293.834 602.516 297.474C601.704 291.408 602.936 285.244 606.017 279.955C606.814 278.578 607.788 277.015 607.26 275.513C606.607 273.598 603.821 273.236 602.154 274.364C600.486 275.493 599.699 277.532 599.129 279.469C597.841 283.864 597.145 288.411 597.058 292.991C594.034 287.151 596.913 280.09 596.519 273.526C589.849 273.308 582.444 273.422 577.566 277.978C579.713 282.961 581.065 288.251 581.574 293.653C580.179 289.697 578.234 285.957 575.795 282.544C574.988 281.156 573.726 280.092 572.222 279.531C570.679 279.127 568.7 280.183 568.773 281.777C568.946 282.704 569.419 283.548 570.119 284.18C573.676 288.339 575.692 293.597 575.826 299.068C574.245 296.563 572.667 294.057 571.093 291.551C569.746 289.418 568.255 287.161 565.914 286.219C563.574 285.277 560.259 286.457 560.032 288.963C564.625 292.384 568.438 296.743 571.217 301.75C569.272 299.212 566.798 297.128 563.967 295.641C562.538 294.9 560.967 294.474 559.359 294.39C557.752 294.306 556.145 294.566 554.646 295.154C553.735 295.558 552.761 296.449 553.124 297.38C553.363 297.839 553.75 298.203 554.221 298.416C558.278 300.727 562.026 303.541 565.376 306.792C563.762 304.889 561.75 303.362 559.483 302.319C557.173 301.418 554.304 301.584 552.502 303.355C550.7 305.125 550.545 307.496 550.327 309.753C555.107 310.417 559.61 312.392 563.336 315.458C561.181 313.993 558.683 313.112 556.086 312.901C554.252 312.756 552.036 313.201 551.342 314.909C550.648 316.618 551.932 318.45 553.517 319.279C555.102 320.107 556.945 320.221 558.696 320.656C560.446 321.091 562.238 322.033 562.838 323.762C560.543 322.975 558.147 322.518 555.723 322.405C555.224 322.336 554.717 322.438 554.284 322.695C553.507 323.286 553.817 324.507 554.211 325.398C558.261 334.55 564.506 343.082 573.299 347.886C582.092 352.69 593.661 353.063 601.739 347.151" fill="#E0D8C7"/>
<path d="M594.11 350.506C599.822 350.031 605.262 347.861 609.733 344.275C614.204 340.689 617.502 335.85 619.205 330.379C620.738 325.14 620.841 319.228 624.228 314.952C622.98 313.856 621.459 313.119 619.825 312.82C618.191 312.52 616.507 312.67 614.952 313.252C613.397 313.835 612.029 314.828 610.994 316.127C609.959 317.425 609.296 318.98 609.076 320.626C609.397 315.759 612.939 311.773 616.439 308.367C617.413 307.425 618.511 306.141 618.024 304.867C617.537 303.594 615.58 303.304 614.161 303.749C609.252 305.302 606.797 310.717 605.388 315.666C605.959 312.876 606.94 310.186 608.299 307.683C609.842 304.847 611.913 302.124 612.203 298.914C612.252 298.605 612.209 298.288 612.079 298.003C611.779 297.485 611.043 297.454 610.453 297.547C607.201 298.096 604.591 300.705 603.203 303.677C601.942 306.728 601.172 309.961 600.925 313.254C601.113 309.019 601.915 304.834 603.307 300.829C603.779 299.75 604.039 298.59 604.073 297.413C604.077 296.823 603.892 296.248 603.545 295.771C603.198 295.294 602.709 294.941 602.147 294.762C600.282 294.379 599.04 296.584 598.491 298.407C597.298 302.509 596.565 306.732 596.305 310.997C597.247 305.308 596.232 299.468 593.426 294.431C592.902 293.336 592.089 292.405 591.075 291.739C590.562 291.415 589.956 291.269 589.352 291.323C588.747 291.377 588.177 291.629 587.73 292.039C587.233 292.708 586.955 293.515 586.932 294.348C586.169 300.924 586.722 307.587 588.558 313.947C588.03 308.16 587.181 302.01 583.38 297.609C582.783 296.809 581.95 296.215 580.998 295.911C580.52 295.768 580.006 295.803 579.551 296.008C579.096 296.214 578.731 296.576 578.522 297.029C578.357 297.854 578.516 298.711 578.968 299.421C581.37 304.55 583.11 309.964 584.146 315.532C583.066 310.667 580.767 306.157 577.466 302.424C575.778 300.519 573.002 298.738 570.869 300.136C570.572 300.324 570.324 300.58 570.144 300.882C569.964 301.184 569.857 301.524 569.833 301.875C569.904 302.372 570.073 302.849 570.331 303.279C570.589 303.709 570.93 304.084 571.335 304.381C574.953 307.887 577.938 311.993 580.159 316.515C578.667 313.409 577.052 310.241 574.38 308.149C571.708 306.058 567.472 305.457 564.924 307.756C563.992 308.595 563.37 310.075 564.126 311.079C564.56 311.565 565.119 311.923 565.742 312.115C570.208 313.968 573.936 317.244 576.347 321.433C575.399 319.566 574.17 317.855 572.702 316.36C571.963 315.615 571.076 315.034 570.098 314.654C569.121 314.275 568.074 314.104 567.026 314.155C563.919 314.486 561.713 317.261 559.88 319.766C562.635 320.802 563.929 323.908 564.996 326.62C566.752 331.585 569.151 336.298 572.132 340.639C575.151 344.97 579.439 348.258 584.405 350.051C588.745 351.381 593.384 351.381 597.724 350.051" fill="#E0D8C7"/>
<path d="M591.848 350.796C588.016 350.64 584.909 347.689 582.465 344.77C580.697 342.642 579.064 340.404 577.576 338.071C576.416 336.238 575.298 334.105 575.816 331.993C578.667 333.828 581.196 336.12 583.304 338.775C581.128 336.8 579.176 334.592 577.483 332.19C576.309 330.724 575.522 328.987 575.194 327.137C575.961 326.796 576.8 327.386 577.411 327.955C579.908 330.239 582.173 332.764 584.174 335.493C582.192 333.484 580.311 331.389 578.529 329.208C577.738 328.396 577.192 327.377 576.955 326.268C576.923 326.11 576.944 325.946 577.017 325.802C577.076 325.725 577.151 325.662 577.237 325.617C577.323 325.572 577.418 325.547 577.514 325.543C577.951 325.561 578.378 325.674 578.766 325.875C579.154 326.075 579.494 326.357 579.762 326.702L587.416 334.095C585.065 330.759 583.033 327.209 581.346 323.493C580.901 322.457 580.487 321.298 581.067 320.387C583.627 323.464 585.84 326.815 587.664 330.378C586.556 326.485 584.298 322.82 584.298 318.772C584.298 318.14 584.619 317.291 585.241 317.426C585.468 317.503 585.664 317.652 585.8 317.85C588.399 320.93 590.225 324.586 591.123 328.514C590.947 326.444 590.316 324.373 589.963 322.302C589.474 320.234 589.633 318.065 590.419 316.09C591.009 316.162 591.351 316.784 591.579 317.332C593.26 321.413 594.072 325.8 593.961 330.212C594.135 326.211 594.627 322.229 595.432 318.306C595.587 317.508 596.064 316.504 596.861 316.649C597.068 316.715 597.257 316.828 597.413 316.979C597.569 317.13 597.689 317.315 597.762 317.519C598.311 318.931 598.513 320.454 598.353 321.96C598.22 324.961 597.822 327.945 597.162 330.875C597.976 327.461 599.106 324.13 600.538 320.925C600.849 320.304 601.284 319.61 601.977 319.569C602.148 321.609 601.937 323.663 601.356 325.626C600.735 328.256 600.072 330.875 599.368 333.484L604.256 324.166C604.743 323.224 605.489 322.095 606.545 322.25C605.997 327.244 604.713 332.128 602.734 336.746L608.161 328.162C608.42 327.748 608.917 327.262 609.331 327.531C609.502 327.666 609.613 327.863 609.642 328.08C609.845 329.393 609.68 330.737 609.165 331.962C605.199 348.311 596.405 350.599 596.405 350.599C594.946 351.149 593.35 351.217 591.848 350.796Z" fill="#E0D8C7"/>
<path d="M595.516 348.891C597.093 348.212 598.49 347.176 599.597 345.864C600.705 344.552 601.491 343.001 601.896 341.333C602.247 339.654 602.067 337.907 601.383 336.335C600.698 334.762 599.542 333.441 598.074 332.553C596.733 331.87 595.237 331.553 593.735 331.631C592.445 331.664 591.184 332.02 590.068 332.667C589.05 333.349 588.217 334.274 587.646 335.359C587.074 336.444 586.782 337.653 586.795 338.879C586.869 341.357 587.629 343.765 588.991 345.837C589.712 347.175 590.787 348.289 592.098 349.057" fill="#E0D8C7"/>
<path d="M677.925 185.22C677.723 181.064 676.395 177.041 674.082 173.582C672.915 171.867 671.38 170.434 669.588 169.387C667.796 168.341 665.793 167.709 663.725 167.536C661.726 167.453 659.489 168.043 658.464 169.762C657.438 171.48 657.946 173.675 658.464 175.611C664.171 203.566 656.175 208.05 651.214 209.924C646.253 211.798 632.126 206.103 627.952 204.322C624.244 202.728 621.645 199.197 619.459 195.791C618.934 194.694 618.075 193.791 617.005 193.213C616.38 193.029 615.716 193.029 615.092 193.212C614.467 193.396 613.909 193.756 613.483 194.248C612.653 195.257 612.106 196.468 611.899 197.758C610.273 205.296 613.577 213.465 619.47 218.466C625.363 223.466 633.535 223.29 641.157 224.45C663.684 227.877 678.38 199.259 677.925 185.22Z" fill="#E0D8C7"/>
<path d="M687.029 193.284C687.226 191.959 687.112 190.178 685.849 189.805C684.813 189.474 683.777 190.261 683.073 191.017C676.859 197.374 673.627 206.175 667.196 212.294V212.894L666.916 213.039C666.916 213.039 662.11 216.828 663.457 219.251C663.749 219.899 664.284 220.406 664.946 220.663C665.609 220.921 666.346 220.908 666.999 220.628C672.279 218 676.852 214.146 680.337 209.389C683.822 204.632 686.116 199.109 687.029 193.284Z" fill="#E0D8C7"/>
<path d="M669.703 225.391C673.086 225.613 676.476 225.069 679.619 223.8C682.763 222.531 685.579 220.569 687.859 218.061C688.876 216.967 689.74 215.741 690.428 214.416C691.355 212.525 691.749 210.416 691.567 208.318C691.589 207.811 691.473 207.308 691.232 206.861C690.992 206.415 690.635 206.042 690.2 205.781C689.74 205.679 689.263 205.688 688.807 205.807C688.352 205.926 687.931 206.151 687.579 206.464C674.26 218.661 667.156 220.162 666.358 221.353C665.561 222.544 666.296 225.174 669.703 225.391Z" fill="#E0D8C7"/>
<path d="M686.929 224.883C687.436 225.339 687.965 225.546 688.047 226.146C688.101 226.754 687.96 227.364 687.644 227.886C687.066 228.964 686.179 229.844 685.096 230.412C684.539 230.692 683.956 230.918 683.356 231.085C678.571 232.524 673.444 232.12 668.607 230.878C666.445 230.032 664.332 229.064 662.279 227.979L665.832 225.525C674.884 228.114 684.039 222.957 686.929 224.883Z" fill="#E0D8C7"/>
<path d="M615.816 228.622C614.667 227.938 613.403 226.748 613.88 225.516C614.263 224.48 615.516 224.232 616.572 224.139C625.417 223.393 634.293 226.458 643.097 225.371L643.573 225.743L643.853 225.619C643.853 225.619 649.839 224.315 650.844 226.882C651.16 227.519 651.213 228.255 650.992 228.93C650.772 229.606 650.294 230.168 649.663 230.496C644.281 232.908 638.4 233.996 632.512 233.67C626.623 233.344 620.899 231.613 615.816 228.622Z" fill="#E0D8C7"/>
<path d="M651.64 235.61C649.662 238.364 647.09 240.636 644.114 242.26C641.138 243.884 637.834 244.817 634.448 244.991C632.958 245.078 631.464 244.967 630.004 244.659C627.95 244.176 626.067 243.141 624.557 241.667C624.16 241.356 623.854 240.944 623.672 240.474C623.49 240.004 623.438 239.493 623.521 238.996C623.734 238.576 624.044 238.213 624.426 237.937C624.808 237.662 625.251 237.482 625.717 237.412C643.583 234.854 649.258 230.33 650.687 230.464C652.117 230.599 653.629 232.846 651.64 235.61Z" fill="#E0D8C7"/>
<path d="M640.311 248.584C640.311 249.267 640.166 249.805 640.58 250.25C641.019 250.675 641.581 250.95 642.185 251.037C643.386 251.276 644.63 251.15 645.759 250.675C646.328 250.425 646.869 250.116 647.374 249.753C651.517 246.968 654.448 242.744 656.571 238.23C657.295 236.023 657.89 233.776 658.353 231.5L654.21 232.691C650.45 241.336 640.652 245.136 640.311 248.584Z" fill="#E0D8C7"/>
<path d="M668.212 210.129L657.295 221.601C656.857 222.126 656.323 222.561 655.721 222.885C654.938 223.164 654.105 223.273 653.277 223.206C649.193 223.204 645.141 223.933 641.314 225.36C642.97 227.572 644.966 229.508 647.228 231.096C651.423 234.036 657.088 235.662 661.666 233.394C664.856 231.81 666.958 228.632 668.398 225.38C670.469 220.804 671.412 215.306 669.03 210.885" fill="#E0D8C7"/>
<path d="M659.76 214.571C661.296 210.294 662.403 205.876 663.064 201.38C663.72 196.855 662.998 192.237 660.993 188.128C659.193 184.904 656.532 182.245 653.308 180.445C648.715 177.695 643.234 176.838 638.021 178.053C635.446 178.695 633.071 179.965 631.107 181.748C629.142 183.531 627.65 185.773 626.763 188.272C625.989 190.962 625.788 193.784 626.173 196.555C626.475 200.888 628.102 205.023 630.833 208.4C639.119 216.683 653.401 222.336 656.063 221.622C658.725 220.907 659.76 214.571 659.76 214.571Z" fill="#E0D8C7"/>
<path d="M655.534 214.353C655.983 210.943 655.714 207.477 654.746 204.177C653.777 200.877 652.13 197.815 649.91 195.188C649.862 195.115 649.799 195.053 649.726 195.005C649.653 194.957 649.571 194.924 649.485 194.908" stroke="#E0D8C7" stroke-width="1.46223" stroke-linecap="round" stroke-linejoin="round"/>
<path d="M652.987 213.381L642.247 195.044V195.624" stroke="#E0D8C7" stroke-width="1.46223" stroke-linecap="round" stroke-linejoin="round"/>
<path d="M653.163 215.451C646.297 212.417 640.543 207.327 636.695 200.883" stroke="#E0D8C7" stroke-width="1.46223" stroke-linecap="round" stroke-linejoin="round"/>
<path d="M662.723 232.857C663.136 230.812 663.347 228.732 663.355 226.645C663.498 224.099 662.935 221.562 661.729 219.315C659.824 216.209 656.209 214.573 652.822 213.103C651.724 217.244 651.59 221.934 653.982 225.527C655.073 227.014 656.395 228.318 657.897 229.389C659.274 230.54 660.804 231.495 662.444 232.226" fill="#E0D8C7"/>
<path d="M637.307 203.515L636.499 203.618L635.691 203.515C635.304 203.427 634.946 203.237 634.656 202.966C634.326 202.761 634.058 202.471 633.879 202.127C633.662 201.793 633.537 201.407 633.516 201.009C633.433 200.61 633.455 200.196 633.578 199.808L633.879 199.094C634.13 198.652 634.486 198.279 634.915 198.006L635.64 197.706C636.161 197.561 636.713 197.561 637.235 197.706L636.437 197.603L635.64 197.706C636.029 197.586 636.443 197.568 636.841 197.654C637.239 197.673 637.626 197.798 637.959 198.017C638.304 198.196 638.593 198.464 638.798 198.793C639.066 199.085 639.252 199.442 639.337 199.829L639.451 200.636C639.444 201.167 639.302 201.688 639.037 202.148L638.571 202.759C638.198 203.126 637.738 203.393 637.235 203.535L637.307 203.515Z" fill="#E0D8C7"/>
<path d="M644.161 191.814C644.526 192.178 644.791 192.631 644.928 193.129C645.063 193.645 645.063 194.187 644.928 194.703L644.627 195.427C644.448 195.771 644.18 196.061 643.85 196.266C643.668 196.453 643.439 196.589 643.188 196.659C642.83 196.844 642.43 196.934 642.028 196.918C641.625 196.933 641.226 196.844 640.868 196.659C640.497 196.535 640.163 196.322 639.894 196.038L639.428 195.427C639.21 195.094 639.088 194.707 639.076 194.309C639.003 194.048 639.003 193.773 639.076 193.512C639.088 193.114 639.21 192.727 639.428 192.394L639.894 191.783C640.267 191.416 640.726 191.148 641.23 191.006L642.028 190.903C642.431 190.882 642.831 190.972 643.188 191.162C643.438 191.228 643.667 191.361 643.85 191.545C644.178 191.756 644.446 192.049 644.627 192.394L642.059 190.923C642.329 190.896 642.602 190.932 642.856 191.027C643.35 191.166 643.799 191.43 644.161 191.793V191.814Z" fill="#E0D8C7"/>
<path d="M650.087 190.685C650.491 190.661 650.893 190.75 651.247 190.944C651.62 191.057 651.954 191.272 652.21 191.565C652.496 191.828 652.71 192.16 652.832 192.528C653.021 192.885 653.11 193.285 653.091 193.688L652.987 194.485C652.848 194.973 652.588 195.418 652.231 195.779L651.62 196.256C651.161 196.522 650.639 196.662 650.108 196.66C649.705 196.679 649.305 196.589 648.948 196.401C648.574 196.285 648.237 196.07 647.975 195.779C647.689 195.517 647.475 195.185 647.353 194.817C647.163 194.478 647.06 194.097 647.053 193.709L647.167 192.911C647.308 192.413 647.571 191.957 647.933 191.586L648.544 191.11C649.007 190.843 649.532 190.703 650.067 190.706L650.087 190.685Z" fill="#E0D8C7"/>
<path d="M517.89 320.905C520.675 320.905 522.933 323.162 522.933 325.947C522.933 328.732 520.675 330.989 517.89 330.989C515.104 330.989 512.846 328.732 512.846 325.947C512.846 323.162 515.104 320.905 517.89 320.905Z" fill="#E0D8C7"/>
<path d="M493.934 325.946C493.932 327.036 494.253 328.102 494.857 329.009C495.461 329.916 496.321 330.624 497.328 331.043C498.334 331.461 499.443 331.572 500.512 331.36C501.582 331.149 502.564 330.625 503.336 329.855C504.108 329.085 504.633 328.104 504.847 327.035C505.06 325.966 504.952 324.858 504.535 323.851C504.118 322.844 503.412 321.983 502.506 321.377C501.599 320.772 500.534 320.448 499.444 320.448C497.984 320.448 496.584 321.027 495.551 322.058C494.518 323.089 493.936 324.487 493.934 325.946Z" fill="#E0D8C7"/>
<path d="M486.457 311.11C486.457 312.054 486.737 312.977 487.262 313.762C487.786 314.546 488.532 315.158 489.404 315.519C490.277 315.881 491.237 315.975 492.163 315.791C493.089 315.607 493.94 315.152 494.608 314.485C495.275 313.817 495.73 312.967 495.914 312.041C496.099 311.115 496.004 310.155 495.643 309.283C495.281 308.411 494.669 307.666 493.884 307.141C493.099 306.617 492.176 306.337 491.232 306.337C490.605 306.337 489.984 306.46 489.404 306.7C488.825 306.94 488.299 307.291 487.855 307.735C487.412 308.178 487.06 308.704 486.82 309.283C486.581 309.862 486.457 310.483 486.457 311.11Z" fill="#E0D8C7"/>
</svg>
