<svg width="20" height="20" viewBox="0 0 20 20" fill="none" xmlns="http://www.w3.org/2000/svg">
<g clip-path="url(#clip0_9_3141)">
<path fill-rule="evenodd" clip-rule="evenodd" d="M10.0003 11.7673L14.4195 16.1873C14.654 16.4218 14.972 16.5536 15.3037 16.5536C15.6353 16.5536 15.9533 16.4218 16.1878 16.1873C16.4223 15.9529 16.5541 15.6348 16.5541 15.3032C16.5541 14.9716 16.4223 14.6535 16.1878 14.419L11.767 9.99985L16.187 5.58068C16.303 5.46457 16.3951 5.32674 16.4579 5.17505C16.5207 5.02337 16.553 4.8608 16.5529 4.69664C16.5529 4.53247 16.5205 4.36992 16.4577 4.21826C16.3948 4.06661 16.3027 3.92882 16.1866 3.81276C16.0705 3.69671 15.9326 3.60466 15.7809 3.54187C15.6293 3.47908 15.4667 3.44679 15.3025 3.44683C15.1384 3.44686 14.9758 3.47924 14.8242 3.5421C14.6725 3.60496 14.5347 3.69707 14.4187 3.81318L10.0003 8.23235L5.58115 3.81318C5.4659 3.69374 5.32802 3.59845 5.17554 3.53287C5.02307 3.46728 4.85906 3.43272 4.69309 3.4312C4.52711 3.42968 4.3625 3.46123 4.20885 3.52401C4.0552 3.58679 3.91559 3.67954 3.79817 3.79685C3.68075 3.91416 3.58787 4.05368 3.52495 4.20727C3.46202 4.36086 3.43032 4.52545 3.43168 4.69142C3.43305 4.8574 3.46745 5.02144 3.53289 5.17397C3.59833 5.32651 3.69349 5.46448 3.81282 5.57985L8.23365 9.99985L3.81365 14.419C3.57916 14.6535 3.44742 14.9716 3.44742 15.3032C3.44742 15.6348 3.57916 15.9529 3.81365 16.1873C4.04815 16.4218 4.36619 16.5536 4.69782 16.5536C5.02945 16.5536 5.34749 16.4218 5.58199 16.1873L10.0003 11.7665V11.7673Z" fill="#33506E"/>
</g>
<defs>
<clipPath id="clip0_9_3141">
<rect width="20" height="20" fill="white"/>
</clipPath>
</defs>
</svg>
