<svg width="1920" height="74" viewBox="0 0 1920 74" fill="none" xmlns="http://www.w3.org/2000/svg">
<g clip-path="url(#clip0_12_13676)">
<path d="M711.96 63.043L-1.88477 63.043L-1.88477 67.0834L711.96 67.0834V63.043Z" fill="#487A9B"/>
<path d="M711.96 69.9597L-1.88477 69.9597L-1.88477 74.0001L711.96 74.0001V69.9597Z" fill="#487A9B"/>
<path d="M308.643 42.409C307.563 43.4654 306.492 44.5063 305.42 45.5704L299.961 50.9679L298.951 51.9549L296.56 54.2681L294.054 51.793L293.491 51.2378L291.61 49.3795L281.432 39.3556L269.665 50.8908L268.647 51.8624L266.257 54.1756L263.743 51.7004L262.379 50.3588L261.307 49.3487L251.129 39.3247L239.347 50.7983L238.344 51.7853L236.463 53.6281L222.583 39.9261L219.499 42.9333C218.42 43.9897 217.34 45.0384 216.276 46.0947L210.809 51.4923L209.853 52.433L207.463 54.7462L204.957 52.271L204.394 51.7236L202.512 49.8653L192.334 39.8413L180.568 51.4074L179.565 52.3944L177.175 54.7076L174.661 52.2325L173.289 50.8908L172.209 49.819L162.031 39.7951L150.264 51.3612L149.262 52.3481L147.365 54.2141V59.0719L148.445 58.0233L161.992 44.7222L169.703 52.3019L170.428 53.0036L172.132 54.6922L174.677 57.1982L177.129 59.6271L178.725 58.0849L192.311 44.7685L202.42 54.7462L204.964 57.2522L207.416 59.6734L209.013 58.1312L222.576 44.8533L236.532 58.4242L237.519 57.4681L251.09 44.1825L258.801 51.7621L259.526 52.4715L261.23 54.1525L263.774 56.6585L266.226 59.0873L267.822 57.5452L281.386 44.2596L291.517 54.2373L294.062 56.7433L296.514 59.1722L298.11 57.63L311.681 44.3367L325.637 58.1004V53.1963L311.72 39.4172L308.643 42.409Z" fill="#487A9B"/>
<path d="M314.164 32.3774L317.078 29.5013L321.959 24.7746L316.824 24.7438L313.354 28.2444L313.369 23.1014L317.109 19.4079L321.998 14.6658L316.847 14.6427L313.385 18.1511L313.393 14.6504L310.424 14.635L310.409 18.498L306.484 14.6195L301.564 14.7121L310.401 23.4252L310.385 28.5914L306.453 24.7129L301.449 24.6975L309.213 32.3774L296.475 44.7454L283.868 32.3003L286.783 29.4242L291.664 24.6975L286.528 24.6666L283.059 28.1673L283.074 23.0243L286.814 19.3308L291.702 14.5964L286.552 14.5656L283.089 18.074L283.097 14.5733L280.128 14.5656L280.113 18.4209L276.188 14.5424L271.269 14.635L280.105 23.3481L280.09 28.5143L276.157 24.6358L271.153 24.6281L278.918 32.3003L266.18 44.676L253.573 32.2232L256.495 29.3471L261.368 24.6281L256.233 24.5895L252.763 28.0902L252.779 22.9471L256.518 19.2537L261.407 14.5193L256.256 14.4962L252.794 17.9969L252.802 14.4962L249.833 14.4885L249.818 18.3438L245.893 14.4653L240.973 14.5579L249.81 23.271L249.794 28.4372L245.862 24.5664L240.858 24.551L248.63 32.2232L236.47 44.0283L225.066 32.7552L227.981 29.8791L232.862 25.1524L227.726 25.1216L224.264 28.6223L224.272 23.4792L228.012 19.7857L232.893 15.0513L227.749 15.0205L224.287 18.5289L224.295 15.0282L221.326 15.0205L221.319 18.8759L217.386 14.9974L212.467 15.0899L221.303 23.803L221.288 28.9692L217.355 25.0907L212.351 25.083L220.116 32.7552L207.378 45.1309L194.771 32.6781L197.693 29.8097L202.566 25.083L197.431 25.0445L193.969 28.5451L193.976 23.4021L197.716 19.7086L202.605 14.9742L197.454 14.9511L193.992 18.4518L194 14.9511L191.031 14.9434L191.016 18.7988L187.091 14.9203L182.164 15.0205L191.008 23.7336L190.992 28.8998L187.06 25.0213L182.056 25.0059L189.82 32.6781L177.082 45.0538L164.475 32.601L167.39 29.7326L172.271 25.0059L167.135 24.9674L163.666 28.468L163.681 23.325L167.421 19.6315L172.302 14.8971L167.158 14.874L163.696 18.3747L163.704 14.874L160.735 14.8663L160.72 18.7217L156.795 14.8432L151.876 14.9434L160.712 23.6565L160.697 28.8227L156.764 24.9442L151.76 24.9288L159.525 32.601L147.365 44.4216L147.35 49.2408L149.246 47.4133L154.652 42.2009L159.61 37.4048L160.681 36.3793L161.992 35.1224L163.65 36.7494L164.383 37.4511V37.4588L167.39 40.4197L174.569 47.4981L177.036 49.9116L179.542 47.4904L184.947 42.278L189.905 37.4742L190.977 36.4564L192.288 35.1995L193.946 36.8188L194.67 37.5282V37.5359L197.685 40.4968L204.872 47.5753L207.331 49.9887L209.837 47.5675L215.243 42.3474L220.208 37.5513L221.272 36.5335L222.583 35.2689L224.241 36.8959L224.974 37.6053V37.613L227.981 40.5739L236.54 48.7704L238.352 47.0278L243.749 41.823L248.707 37.0193L249.779 36.0014L251.09 34.7446L252.748 36.3638L253.48 37.0732V37.0809L256.487 40.0419L263.674 47.1203L266.133 49.5338L268.647 47.1049L274.045 41.8924L279.01 37.0964L280.075 36.0785L281.385 34.8217L283.043 36.4409L283.776 37.1426V37.158L286.783 40.119L293.962 47.1897L296.429 49.6032L298.943 47.182L304.34 41.9695L309.306 37.1735L310.37 36.1479L311.681 34.8911L313.339 36.5181L314.071 37.2197V37.2352L317.078 40.1961L325.637 48.6316L325.653 43.7276L314.164 32.3774Z" fill="#487A9B"/>
<path d="M465.64 43.2573L461.415 39.0858L458.331 42.093C457.259 43.1416 456.179 44.1903 455.115 45.2467L449.648 50.6442L448.646 51.6312L446.256 53.9444L443.75 51.4615L443.187 50.9141L441.305 49.0481L431.127 39.0241L419.368 50.5902L418.366 51.5772L415.976 53.8904L413.47 51.423L412.066 50.0505L410.987 48.9864L400.809 38.9624L389.05 50.5285L388.047 51.5155L386.166 53.3584L372.286 39.6564L369.202 42.6558L365.979 45.8173L360.52 51.2148L359.51 52.2017L357.119 54.515L354.613 52.0321L354.051 51.4846L352.169 49.6186L341.991 39.5947L330.232 51.1608L329.222 52.1478L326.832 54.461L324.318 51.9936L322.945 50.6519L321.866 49.5878L311.688 39.5638L299.967 50.968L298.957 51.955L297.061 53.821V58.6788L298.132 57.6378L311.696 44.3599L319.406 51.9396L320.131 52.649L321.851 54.3376L324.403 56.8436L326.847 59.2648L328.443 57.7226L342.006 44.4525L352.138 54.4301L354.683 56.9361L357.112 59.3727L358.708 57.8306L372.279 44.5064L386.243 58.085L387.23 57.1289L400.785 43.851L408.496 51.4307L409.221 52.1401L410.925 53.8287L413.477 56.3347L415.922 58.7559L417.518 57.2137L431.081 43.9513L441.213 53.9058L443.765 56.4118L446.209 58.833L447.805 57.2908L461.415 44.0052L465.178 47.7064C465.324 46.2645 465.386 44.7223 465.64 43.2573Z" fill="#487A9B"/>
<path d="M466.681 39.903C467.173 38.7948 467.811 37.7574 468.578 36.8187L463.867 32.1923L466.812 29.3008L471.693 24.5741L466.558 24.5355L463.088 28.0362V22.8931L466.812 19.2074L471.701 14.473H466.558L463.088 17.9737V14.4499H460.12V18.3052L456.195 14.4499L451.268 14.5501L460.104 23.2632V28.4294L456.164 24.5741H451.167L458.932 32.2463L446.178 44.5526L433.571 32.1075L436.486 29.2314L441.367 24.5047L436.239 24.4661L432.769 27.9745V22.8314L436.502 19.138L441.367 14.3959H436.224L432.754 17.8966V14.3728H429.801V18.2281L425.876 14.3728L420.949 14.4653L429.801 23.1322V28.2984L425.861 24.443H420.864L428.629 32.1537L415.922 44.4755L403.276 32.0304L406.191 29.1543L411.064 24.4276L405.936 24.389L402.466 27.8974V22.7543L406.198 19.0609L411.087 14.3188H405.944L402.474 17.8195V14.2957H399.505V18.151L395.581 14.2957L390.653 14.3882L399.498 23.1013V28.2675L395.558 24.4121L390.561 24.4121L398.326 32.1229L386.174 43.9203L374.769 32.5624L377.684 29.6863L382.565 24.9596H377.43L373.96 28.4603V23.3249L377.692 19.6315L382.58 14.8894H377.437L373.967 18.3901V14.8277H370.999V18.6831L367.074 14.8277L362.147 14.9202L370.991 23.6334V28.7996L367.051 24.9442H362.054L369.819 32.6164L357.081 44.9304L344.474 32.4853L347.389 29.6092L352.269 24.8825L347.134 24.8439L343.664 28.3523V23.2093L347.396 19.5158L352.285 14.7737L347.142 14.7737L343.672 18.2744V14.7583H340.703V18.6137L336.779 14.7583L331.851 14.8508L340.688 23.564V28.7302L336.748 24.8748L331.751 24.8748L339.516 32.5855L326.778 44.9227L314.178 32.3851L317.093 29.5089L321.966 24.7823L316.839 24.7823L313.369 28.2752V23.1322L317.101 19.4387L321.989 14.7043L316.846 14.7043L313.369 18.1819V14.6503H310.4V18.5057L306.475 14.6503L301.548 14.7429L310.385 23.456V28.6222L306.445 24.7668H301.448L309.213 32.4776L297.061 44.221V49.048L298.957 47.2128L304.355 42.0003L309.313 37.2043L310.377 36.1864L311.688 34.9219L313.369 36.5489L314.101 37.2505L317.116 40.2115L324.295 47.2899L326.755 49.6957L329.268 47.2745L334.666 42.062L339.585 37.2814L340.672 36.2404L341.983 34.9759L343.641 36.6028L344.374 37.3045L347.389 40.2654L354.567 47.3362L357.027 49.7496L359.541 47.3285L364.938 42.116L369.896 37.3199L370.96 36.2944L372.271 35.0375L373.929 36.6645L374.661 37.3662L377.676 40.3271L386.243 48.5776L388.047 46.835L393.445 41.6225L398.403 36.8264L399.467 35.8009L400.778 34.5441L402.435 36.171L403.207 36.8727L406.221 39.8259L413.4 46.9044L415.829 49.3487L418.343 46.9275L423.74 41.7151L428.698 36.919L429.801 35.878L431.112 34.6212L432.739 36.2404L433.51 36.9421L436.525 39.903L443.68 47.0355L446.14 49.4489L448.654 47.0278L454.051 41.8153L459.001 37.0115L460.066 35.9937L461.415 34.6983L463.073 36.3175L463.805 37.0269L466.681 39.903Z" fill="#487A9B"/>
<path d="M135.698 47.9763C135.661 46.8118 135.793 45.6481 136.092 44.5219L131.465 39.8954L128.381 42.9026L125.158 46.064L119.699 51.4615L118.673 52.4331L116.283 54.7463L113.777 52.2634L113.214 51.7083L111.348 49.8962L101.17 39.8723L89.3876 51.3767L88.3775 52.3637L85.9872 54.6769L83.4735 52.2017L82.1087 50.8909L81.0292 49.8191L70.851 39.7952L59.0922 51.3613L58.0821 52.3483L56.2006 54.1294L42.3213 40.4352L39.237 43.4346C38.1575 44.491 37.078 45.5397 36.0139 46.596L30.5547 51.9936L29.614 52.9497L27.2237 55.2629L24.6714 52.8186L24.1086 52.2634L22.2271 50.4051L12.049 40.3812L0.313221 51.8856L-0.720018 52.8726L-1.49109 53.6437C-1.67615 55.448 -1.83807 57.2137 -2 58.9795L-1.56049 58.5554L12.0104 45.2698L22.1423 55.2475L24.6869 57.7535L27.1389 60.1824L28.735 58.6402L42.3059 45.3469L56.27 58.9178L57.2493 57.9617L70.8125 44.7223L78.5232 52.2943L79.248 53.0037L80.9521 54.6846L83.5043 57.1906L85.9487 59.6195L87.5448 58.0773L101.1 44.7994L111.24 54.7463L113.792 57.2523L116.236 59.6812L117.833 58.139L131.396 44.838L135.799 49.1791C135.76 48.7782 135.721 48.3772 135.698 47.9763Z" fill="#487A9B"/>
<path d="M136.793 40.6125L137.402 41.214C138.004 40.1964 138.732 39.2586 139.569 38.4227L133.878 32.7938L136.793 29.9177L141.674 25.1987H136.538L133.069 28.6994V23.5564L136.808 19.8629L141.697 15.1285H136.546L133.084 18.6292V15.0668H130.115V18.9222L126.191 15.0668L121.271 15.1594L130.108 23.8725V29.0387L126.175 25.1833H121.171L128.936 32.8941L116.197 45.2313L103.59 32.7167L106.505 29.8483L111.386 25.1216H106.251L102.781 28.6223V23.4793L106.52 19.7858L111.409 15.0514L106.258 15.0514L102.812 18.5058V14.9897H99.8353V18.8451L95.9105 14.9897L90.9834 15.09L99.8276 23.8031V28.9693L95.8951 25.1139L90.8908 25.1139L98.6555 32.8247L85.902 45.0925L73.2949 32.6473L76.2096 29.7712L81.0905 25.0445L75.9551 25.0445L72.4853 28.5298V23.3867L76.225 19.6933L81.1136 14.9512L75.9628 14.9512L72.493 18.4518V14.9512H69.5552V18.8065L65.6305 14.9512L60.7033 15.0437L69.5475 23.7568V28.923L65.615 25.0677H60.6108L68.3755 32.7399L56.1925 44.4448L44.7883 33.1562L47.703 30.2878L52.5839 25.5612L47.4485 25.5226L43.9787 29.0233V23.8802L47.7338 20.2022L52.6147 15.4678L47.4717 15.4678L44.0096 18.9685V15.4215H41.0486V19.2769L37.1239 15.4215L32.2044 15.5218L41.0255 24.2272V29.3934L37.0853 25.538L32.0888 25.538L39.838 33.1562L27.0999 45.4934L14.4929 33.1023L17.4075 30.2262L22.2884 25.4995L17.1531 25.4995L13.6832 29.0001V23.8648L17.4229 20.1713L22.3193 15.4215L17.1762 15.4215L13.7141 18.9222V15.3676H10.7532V19.2229L6.82839 15.3676L1.85496 15.4215L10.6992 24.1347V29.3009L6.75899 25.4455H1.77786L9.5657 33.0945L-1.29102 43.6274C-1.29102 44.9614 -1.29102 46.303 -1.29102 47.6447C-1.29102 47.9146 -1.29102 48.1845 -1.29102 48.4543L-0.728132 47.9069L4.66938 42.6944L9.62739 37.8983L10.6992 36.8728L12.01 35.616L13.6678 37.2429L14.3926 37.9446L17.4075 40.9055L24.5862 47.984L27.0537 50.3974L29.5596 47.9763L34.9572 42.7638L39.9152 37.96L40.987 36.9422L42.2978 35.6854L43.9556 37.3046L44.6804 38.014L47.6953 40.9749L56.2619 49.1946L58.0662 47.4519L63.4637 42.2395L68.4217 37.4434L69.4935 36.4179L70.8044 35.161L72.4622 36.788L73.2332 37.4897L76.2404 40.4506L83.4191 47.5291L85.8866 49.9425L88.3926 47.5213L93.7901 42.3089L98.7481 37.5051L99.7813 36.495L101.092 35.2381L102.75 36.8574L103.482 37.5668L106.49 40.5277L113.661 47.6139L116.128 50.0273L118.642 47.5985L124.039 42.3937L128.997 37.5899L130.069 36.5721L131.395 35.3152L133.053 36.9345L133.824 37.6362L136.793 40.6125Z" fill="#487A9B"/>
<path d="M150.672 50.8909L149.97 51.5771L148.968 52.5641L146.578 54.8773L144.087 52.433L142.722 51.0914L141.635 50.0196L131.457 39.9956L119.706 51.4846L118.703 52.4716L116.799 54.3376V59.1954L117.878 58.1467L131.395 44.8765L139.106 52.433L139.877 53.2041L141.581 54.8928L144.133 57.3988L146.585 59.8199L148.174 58.2778L150.634 55.872C150.672 54.168 150.672 52.5179 150.672 50.8909Z" fill="#487A9B"/>
<path d="M151.034 40.867L146.524 45.2467L133.917 32.7553L136.831 29.8869L141.704 25.1602L136.569 25.1217L133.107 28.6224V23.4793L136.839 19.7858L141.728 15.0515L136.585 15.0515L133.13 18.5059V15.0283H130.162V18.8837L126.237 15.0283L121.31 15.1286L130.146 23.8417V29.0079L126.206 25.1525H121.209L128.974 32.8247L116.799 44.5759V49.3951L118.696 47.5676L124.093 42.3552L129.082 37.5514L130.146 36.5336L131.457 35.2767L133.115 36.896L133.847 37.6054L136.862 40.5663L144.041 47.6448L146.501 50.0582L149.014 47.637L150.865 45.8482C150.896 44.1826 150.957 42.5017 151.034 40.867Z" fill="#487A9B"/>
<path d="M580.846 38.7079L577.762 41.7151C576.69 42.7715 575.611 43.8124 574.546 44.8688L569.08 50.2663L568.077 51.2533L565.687 53.5665L563.196 51.0914L562.633 50.5439L560.752 48.6856L550.574 38.6617L538.792 50.1584L537.789 51.1454L535.399 53.4586L532.893 50.9911L531.521 49.6495L530.433 48.5777L520.255 38.5537L508.496 50.1198L507.494 51.1068L505.613 52.9497L491.733 39.2477L488.649 42.2549L485.426 45.4086L479.967 50.8061L478.956 51.7931L476.566 54.1063L474.06 51.6234L473.497 51.076L471.616 49.2177L461.438 39.1937L449.694 50.6673L448.684 51.662L446.294 53.9752L443.78 51.5078L443.009 50.7367C442.909 51.662 442.909 52.595 442.909 53.5357C442.909 54.0834 442.715 54.6135 442.361 55.0316L443.826 56.4658L446.271 58.8869L447.867 57.3448L461.415 44.0592L471.546 54.0369L474.091 56.5429L476.543 58.964L478.139 57.4219L491.702 44.144L505.674 57.7072L506.661 56.7511L520.217 43.4732L527.927 51.0528L528.652 51.7622L530.356 53.4509L532.908 55.9569L535.353 58.378L536.949 56.8359L550.504 43.558L560.636 53.5357L563.196 56.034L565.641 58.4551L567.237 56.913L580.792 43.6428L594.81 57.3833V52.4793L580.846 38.7079Z" fill="#487A9B"/>
<path d="M583.321 31.9379L586.236 29.0695L591.109 24.3428L585.981 24.3042L582.512 27.8049V22.6618L586.244 18.9684L591.132 14.234H585.989L582.535 17.7347V14.2109H579.566V18.0662L575.641 14.2109L570.714 14.3111L579.551 23.0242V28.1904L575.611 24.3351H570.614L578.379 32.0458L565.641 44.383L553.026 31.8685L555.94 28.9923L560.814 24.2657H555.686L552.216 27.7586V22.6156L555.948 18.9221L560.883 14.1569H555.74L552.27 17.6576V14.1337H549.317V17.9891L545.392 14.1337L540.465 14.2263L549.301 22.9394V28.1056L545.361 24.2502H540.365L548.129 31.961L535.391 44.2982L522.73 31.7913L525.645 28.9152L530.518 24.1886L525.414 24.15L521.944 27.6584V22.5153L525.676 18.8219L530.564 14.0798H525.421L521.952 17.5804V14.0566L518.983 14.0566V17.912L515.058 14.0566L510.131 14.1492L518.967 22.8623V28.0285L515.027 24.1731H510.031L517.795 31.8839L505.628 43.5965L494.224 32.3234L497.138 29.4473L502.012 24.7206L496.884 24.6743L493.414 28.175V23.0397L497.146 19.3462L502.05 14.6504H496.907L493.437 18.151V14.5887L490.469 14.5887V18.4441L486.544 14.5887L481.617 14.6504L490.453 23.3635V28.5297L486.513 24.6743H481.516L489.281 32.3465L476.535 44.7223L463.928 32.2463L466.812 29.3702L471.716 24.6743L466.588 24.6358L463.119 28.1442V23.0011L466.866 19.2768L471.755 14.5347H466.612L463.142 18.0354V14.5193L460.181 14.5193V18.3747L456.256 14.5193L451.329 14.6118L460.165 23.325V28.4912L456.225 24.6358H451.229L458.993 32.3465L446.255 44.6837L443.371 41.8384C443.217 43.3266 440.449 41.9927 440.287 43.4885L443.68 47.0355L446.178 49.5029L448.7 47.0355L454.097 41.823L459.101 37.0115L460.165 35.9937L461.476 34.7291L463.134 36.3561L463.905 37.0578L466.812 40.0958L473.991 47.1666L476.45 49.58L478.964 47.1589L484.362 41.9464L489.32 37.1503L490.384 36.1248L491.695 34.8679L493.352 36.4949L494.085 37.1966L497.1 40.1575L505.659 48.3617L507.463 46.6191L512.861 41.4066L517.819 36.6106L518.883 35.585L520.193 34.3282L521.851 35.9552L522.584 36.6568L525.599 39.6178L532.777 46.6885L535.237 49.102L537.751 46.6808L543.148 41.4683L548.106 36.6722L549.17 35.6467L550.481 34.3899L552.139 36.0168L552.872 36.7185L555.886 39.6794L563.065 46.7579L565.525 49.1714L568.039 46.7502L573.436 41.5377L578.394 36.7339L579.458 35.7161L580.769 34.4593L582.427 36.0785L583.198 36.7879L586.213 39.7488L594.81 48.1921V43.2881L583.321 31.9379Z" fill="#487A9B"/>
<path d="M700.333 38.4765L697.248 41.476L694.025 44.6374L688.566 50.0349L687.556 51.0219L685.166 53.3351L682.66 50.8908L682.097 50.3434L680.215 48.4774L670.037 38.4534L658.278 50.0195L657.268 50.8908L654.878 53.204L652.364 50.7366L650.992 49.3949L649.912 48.3308L639.734 38.3069L627.967 49.8499L626.957 50.8368L625.084 52.6874L611.204 38.9854L608.12 41.9849C607.04 43.049 605.961 44.0899 604.897 45.1463L599.438 50.5438L598.427 51.5308L596.037 53.844L593.531 51.3612L592.968 50.8137L591.087 48.9477L580.909 38.9237L569.181 50.4359L568.171 51.4229L565.78 53.7361L563.267 51.2686L562.495 50.4976C562.441 51.4306 562.403 52.3636 562.395 53.3043C562.405 53.8522 562.213 54.3845 561.855 54.8002L563.313 56.2344L565.765 58.6555L567.361 57.1134L580.932 43.8201L591.064 53.844L593.577 56.2883L596.029 58.7095L597.626 57.1674L611.189 43.8895L625.153 57.4681L626.14 56.5119L639.695 43.234L647.406 50.8137L648.131 51.5231L649.835 53.204L652.387 55.71L654.832 58.1312L656.428 56.5891L669.983 43.3189L680.115 53.2966L682.714 55.8026L685.158 58.2237L686.754 56.6816L700.294 43.3883L714.258 57.1519V52.2479L700.333 38.4765Z" fill="#487A9B"/>
<path d="M702.807 31.7066L705.722 28.8305L710.595 24.1116L705.467 24.073L701.99 27.5737V22.4306L705.73 18.7372L710.618 14.0028H705.475L701.99 17.4803V13.9797H699.06V17.835L695.135 13.9797L690.208 14.0722L699.044 22.7853V27.9515L695.112 24.0961H690.115L697.88 31.7683L685.119 44.0824L672.512 31.6141L675.426 28.7457L680.3 24.019L675.172 23.9805L671.702 27.4812V22.3612L675.442 18.6678L680.33 13.9334H675.187L671.718 17.4341V13.8794H668.749V17.7348L664.824 13.8794L659.897 13.9797L668.734 22.6928V27.859L664.801 24.0036H659.804L667.569 31.7144L654.831 44.0515L642.216 31.5601L645.131 28.684L650.004 23.9574L644.876 23.9034L641.407 27.4118V22.2841L645.146 18.5907L650.043 13.8794H644.9L641.43 17.3801V13.8254L638.461 13.8254V17.6808L634.536 13.8254L629.609 13.918L638.446 22.6311V27.7587L634.506 23.9034H629.509L637.274 31.6141L625.114 43.3576L613.71 32.0845L616.624 29.2161L621.498 24.4894L616.401 24.4508L612.939 27.9515V22.8085L616.671 19.115L621.559 14.3806H616.416L612.946 17.8813V14.3575L609.978 14.3575V18.2129L606.053 14.3575L601.126 14.4577L609.939 23.1323V28.2985L605.999 24.4431H601.002L608.767 32.1539L596.029 44.4911L583.414 32.0151L586.329 29.139L591.202 24.4123L586.067 24.3737L582.605 27.8821V22.7391L586.329 19.0456L591.218 14.3035H586.074L582.605 17.8042V14.2804L579.636 14.2804V18.1357L575.711 14.2804L570.784 14.3729L579.621 23.086V28.2522L575.68 24.3969H570.676L578.449 32.1076L565.726 44.3831L562.834 41.5378C562.688 43.026 559.912 41.6921 559.75 43.1879L563.197 46.7657L565.695 49.2409L568.209 46.8197L573.606 41.6072L578.572 36.8112L579.636 35.7856L580.947 34.5288L582.605 36.1557L583.376 36.8574L586.329 39.8261L593.508 46.9045L595.967 49.3488L598.481 46.9277L603.879 41.7152L608.844 36.9114L609.908 35.8936L611.219 34.6367L612.877 36.256L613.648 36.9654L616.663 39.9263L625.214 48.1305L627.026 46.3879L632.424 41.1754L637.382 36.3794L638.446 35.3538L639.757 34.097L641.414 35.7239L642.185 36.4256L645.2 39.3865L652.379 46.465L654.839 48.8785L657.268 46.4419L662.665 41.2294L667.631 36.4256L668.695 35.4078L670.006 34.151L671.664 35.7702L672.396 36.4796L675.411 39.4405L682.59 46.519L685.049 48.9324L687.563 46.5036L692.961 41.2988L697.926 36.495L699.006 35.4695L700.317 34.2126L701.974 35.8319L702.707 36.5336L705.722 39.4945L714.273 47.9609V43.0569L702.807 31.7066Z" fill="#487A9B"/>
<path d="M713.487 0L-0.357422 0L-0.357422 10.9261L713.487 10.9261V0Z" fill="#487A9B"/>
<path d="M1424.96 63.043L711.115 63.043V67.0834L1424.96 67.0834V63.043Z" fill="#487A9B"/>
<path d="M1424.96 69.9597L711.115 69.9597V74.0001L1424.96 74.0001V69.9597Z" fill="#487A9B"/>
<path d="M1021.64 42.409C1020.56 43.4654 1019.49 44.5063 1018.42 45.5704L1012.96 50.9679L1011.95 51.9549L1009.56 54.2681L1007.05 51.793L1006.49 51.2378L1004.61 49.3795L994.432 39.3556L982.665 50.8908L981.647 51.8624L979.257 54.1756L976.743 51.7004L975.379 50.3588L974.307 49.3487L964.129 39.3247L952.347 50.7983L951.344 51.7853L949.463 53.6281L935.583 39.9261L932.499 42.9333C931.42 43.9897 930.34 45.0384 929.276 46.0947L923.809 51.4923L922.853 52.433L920.463 54.7462L917.957 52.271L917.394 51.7236L915.512 49.8653L905.334 39.8413L893.568 51.4074L892.565 52.3944L890.175 54.7076L887.661 52.2325L886.289 50.8908L885.209 49.819L875.031 39.7951L863.264 51.3612L862.262 52.3481L860.365 54.2141V59.0719L861.445 58.0233L874.992 44.7222L882.703 52.3019L883.428 53.0036L885.132 54.6922L887.677 57.1982L890.129 59.6271L891.725 58.0849L905.311 44.7685L915.42 54.7462L917.964 57.2522L920.416 59.6734L922.013 58.1312L935.576 44.8533L949.532 58.4242L950.519 57.4681L964.09 44.1825L971.801 51.7621L972.526 52.4715L974.23 54.1525L976.774 56.6585L979.226 59.0873L980.822 57.5452L994.386 44.2596L1004.52 54.2373L1007.06 56.7433L1009.51 59.1722L1011.11 57.63L1024.68 44.3367L1038.64 58.1004V53.1963L1024.72 39.4172L1021.64 42.409Z" fill="#487A9B"/>
<path d="M1027.16 32.3774L1030.08 29.5013L1034.96 24.7746L1029.82 24.7438L1026.35 28.2444L1026.37 23.1014L1030.11 19.4079L1035 14.6658L1029.85 14.6427L1026.38 18.1511L1026.39 14.6504L1023.42 14.635L1023.41 18.498L1019.48 14.6195L1014.56 14.7121L1023.4 23.4252L1023.39 28.5914L1019.45 24.7129L1014.45 24.6975L1022.21 32.3774L1009.48 44.7454L996.868 32.3003L999.783 29.4242L1004.66 24.6975L999.528 24.6666L996.059 28.1673L996.074 23.0243L999.814 19.3308L1004.7 14.5964L999.552 14.5656L996.089 18.074L996.097 14.5733L993.128 14.5656L993.113 18.4209L989.188 14.5424L984.269 14.635L993.105 23.3481L993.09 28.5143L989.157 24.6358L984.153 24.6281L991.918 32.3003L979.18 44.676L966.573 32.2232L969.495 29.3471L974.368 24.6281L969.233 24.5895L965.763 28.0902L965.779 22.9471L969.518 19.2537L974.407 14.5193L969.256 14.4962L965.794 17.9969L965.802 14.4962L962.833 14.4885L962.818 18.3438L958.893 14.4653L953.973 14.5579L962.81 23.271L962.794 28.4372L958.862 24.5664L953.858 24.551L961.63 32.2232L949.47 44.0283L938.066 32.7552L940.981 29.8791L945.862 25.1524L940.726 25.1216L937.264 28.6223L937.272 23.4792L941.012 19.7857L945.893 15.0513L940.749 15.0205L937.287 18.5289L937.295 15.0282L934.326 15.0205L934.319 18.8759L930.386 14.9974L925.467 15.0899L934.303 23.803L934.288 28.9692L930.355 25.0907L925.351 25.083L933.116 32.7552L920.378 45.1309L907.771 32.6781L910.693 29.8097L915.566 25.083L910.431 25.0445L906.969 28.5451L906.976 23.4021L910.716 19.7086L915.605 14.9742L910.454 14.9511L906.992 18.4518L907 14.9511L904.031 14.9434L904.016 18.7988L900.091 14.9203L895.164 15.0205L904.008 23.7336L903.992 28.8998L900.06 25.0213L895.056 25.0059L902.82 32.6781L890.082 45.0538L877.475 32.601L880.39 29.7326L885.271 25.0059L880.135 24.9674L876.666 28.468L876.681 23.325L880.421 19.6315L885.302 14.8971L880.158 14.874L876.696 18.3747L876.704 14.874L873.735 14.8663L873.72 18.7217L869.795 14.8432L864.876 14.9434L873.712 23.6565L873.697 28.8227L869.764 24.9442L864.76 24.9288L872.525 32.601L860.365 44.4216L860.35 49.2408L862.246 47.4133L867.652 42.2009L872.61 37.4048L873.681 36.3793L874.992 35.1224L876.65 36.7494L877.383 37.4511V37.4588L880.39 40.4197L887.569 47.4981L890.036 49.9116L892.542 47.4904L897.947 42.278L902.905 37.4742L903.977 36.4564L905.288 35.1995L906.946 36.8188L907.67 37.5282V37.5359L910.685 40.4968L917.872 47.5753L920.331 49.9887L922.837 47.5675L928.243 42.3474L933.208 37.5513L934.272 36.5335L935.583 35.2689L937.241 36.8959L937.974 37.6053V37.613L940.981 40.5739L949.54 48.7704L951.352 47.0278L956.749 41.823L961.707 37.0193L962.779 36.0014L964.09 34.7446L965.748 36.3638L966.48 37.0732V37.0809L969.487 40.0419L976.674 47.1203L979.133 49.5338L981.647 47.1049L987.045 41.8924L992.01 37.0964L993.075 36.0785L994.385 34.8217L996.043 36.4409L996.776 37.1426V37.158L999.783 40.119L1006.96 47.1897L1009.43 49.6032L1011.94 47.182L1017.34 41.9695L1022.31 37.1735L1023.37 36.1479L1024.68 34.8911L1026.34 36.5181L1027.07 37.2197V37.2352L1030.08 40.1961L1038.64 48.6316L1038.65 43.7276L1027.16 32.3774Z" fill="#487A9B"/>
<path d="M1178.64 43.2573L1174.41 39.0858L1171.33 42.093C1170.26 43.1416 1169.18 44.1903 1168.12 45.2467L1162.65 50.6442L1161.65 51.6312L1159.26 53.9444L1156.75 51.4615L1156.19 50.9141L1154.31 49.0481L1144.13 39.0241L1132.37 50.5902L1131.37 51.5772L1128.98 53.8904L1126.47 51.423L1125.07 50.0505L1123.99 48.9864L1113.81 38.9624L1102.05 50.5285L1101.05 51.5155L1099.17 53.3584L1085.29 39.6564L1082.2 42.6558L1078.98 45.8173L1073.52 51.2148L1072.51 52.2017L1070.12 54.515L1067.61 52.0321L1067.05 51.4846L1065.17 49.6186L1054.99 39.5947L1043.23 51.1608L1042.22 52.1478L1039.83 54.461L1037.32 51.9936L1035.95 50.6519L1034.87 49.5878L1024.69 39.5638L1012.97 50.968L1011.96 51.955L1010.06 53.821V58.6788L1011.13 57.6378L1024.7 44.3599L1032.41 51.9396L1033.13 52.649L1034.85 54.3376L1037.4 56.8436L1039.85 59.2648L1041.44 57.7226L1055.01 44.4525L1065.14 54.4301L1067.68 56.9361L1070.11 59.3727L1071.71 57.8306L1085.28 44.5064L1099.24 58.085L1100.23 57.1289L1113.79 43.851L1121.5 51.4307L1122.22 52.1401L1123.92 53.8287L1126.48 56.3347L1128.92 58.7559L1130.52 57.2137L1144.08 43.9513L1154.21 53.9058L1156.76 56.4118L1159.21 58.833L1160.81 57.2908L1174.41 44.0052L1178.18 47.7064C1178.32 46.2645 1178.39 44.7223 1178.64 43.2573Z" fill="#487A9B"/>
<path d="M1179.68 39.903C1180.17 38.7948 1180.81 37.7574 1181.58 36.8187L1176.87 32.1923L1179.81 29.3008L1184.69 24.5741L1179.56 24.5355L1176.09 28.0362V22.8931L1179.81 19.2074L1184.7 14.473H1179.56L1176.09 17.9737V14.4499H1173.12V18.3052L1169.19 14.4499L1164.27 14.5501L1173.1 23.2632V28.4294L1169.16 24.5741H1164.17L1171.93 32.2463L1159.18 44.5526L1146.57 32.1075L1149.49 29.2314L1154.37 24.5047L1149.24 24.4661L1145.77 27.9745V22.8314L1149.5 19.138L1154.37 14.3959H1149.22L1145.75 17.8966V14.3728H1142.8V18.2281L1138.88 14.3728L1133.95 14.4653L1142.8 23.1322V28.2984L1138.86 24.443H1133.86L1141.63 32.1537L1128.92 44.4755L1116.28 32.0304L1119.19 29.1543L1124.06 24.4276L1118.94 24.389L1115.47 27.8974V22.7543L1119.2 19.0609L1124.09 14.3188H1118.94L1115.47 17.8195V14.2957H1112.51V18.151L1108.58 14.2957L1103.65 14.3882L1112.5 23.1013V28.2675L1108.56 24.4121L1103.56 24.4121L1111.33 32.1229L1099.17 43.9203L1087.77 32.5624L1090.68 29.6863L1095.56 24.9596H1090.43L1086.96 28.4603V23.3249L1090.69 19.6315L1095.58 14.8894H1090.44L1086.97 18.3901V14.8277H1084V18.6831L1080.07 14.8277L1075.15 14.9202L1083.99 23.6334V28.7996L1080.05 24.9442H1075.05L1082.82 32.6164L1070.08 44.9304L1057.47 32.4853L1060.39 29.6092L1065.27 24.8825L1060.13 24.8439L1056.66 28.3523V23.2093L1060.4 19.5158L1065.28 14.7737L1060.14 14.7737L1056.67 18.2744V14.7583H1053.7V18.6137L1049.78 14.7583L1044.85 14.8508L1053.69 23.564V28.7302L1049.75 24.8748L1044.75 24.8748L1052.52 32.5855L1039.78 44.9227L1027.18 32.3851L1030.09 29.5089L1034.97 24.7823L1029.84 24.7823L1026.37 28.2752V23.1322L1030.1 19.4387L1034.99 14.7043L1029.85 14.7043L1026.37 18.1819V14.6503H1023.4V18.5057L1019.48 14.6503L1014.55 14.7429L1023.38 23.456V28.6222L1019.44 24.7668H1014.45L1022.21 32.4776L1010.06 44.221V49.048L1011.96 47.2128L1017.35 42.0003L1022.31 37.2043L1023.38 36.1864L1024.69 34.9219L1026.37 36.5489L1027.1 37.2505L1030.12 40.2115L1037.29 47.2899L1039.75 49.6957L1042.27 47.2745L1047.67 42.062L1052.59 37.2814L1053.67 36.2404L1054.98 34.9759L1056.64 36.6028L1057.37 37.3045L1060.39 40.2654L1067.57 47.3362L1070.03 49.7496L1072.54 47.3285L1077.94 42.116L1082.9 37.3199L1083.96 36.2944L1085.27 35.0375L1086.93 36.6645L1087.66 37.3662L1090.68 40.3271L1099.24 48.5776L1101.05 46.835L1106.44 41.6225L1111.4 36.8264L1112.47 35.8009L1113.78 34.5441L1115.44 36.171L1116.21 36.8727L1119.22 39.8259L1126.4 46.9044L1128.83 49.3487L1131.34 46.9275L1136.74 41.7151L1141.7 36.919L1142.8 35.878L1144.11 34.6212L1145.74 36.2404L1146.51 36.9421L1149.52 39.903L1156.68 47.0355L1159.14 49.4489L1161.65 47.0278L1167.05 41.8153L1172 37.0115L1173.07 35.9937L1174.41 34.6983L1176.07 36.3175L1176.81 37.0269L1179.68 39.903Z" fill="#487A9B"/>
<path d="M848.698 47.9763C848.661 46.8118 848.793 45.6481 849.092 44.5219L844.465 39.8954L841.381 42.9026L838.158 46.064L832.699 51.4615L831.673 52.4331L829.283 54.7463L826.777 52.2634L826.214 51.7083L824.348 49.8962L814.17 39.8723L802.388 51.3767L801.378 52.3637L798.987 54.6769L796.474 52.2017L795.109 50.8909L794.029 49.8191L783.851 39.7952L772.092 51.3613L771.082 52.3483L769.201 54.1294L755.321 40.4352L752.237 43.4346C751.158 44.491 750.078 45.5397 749.014 46.596L743.555 51.9936L742.614 52.9497L740.224 55.2629L737.671 52.8186L737.109 52.2634L735.227 50.4051L725.049 40.3812L713.313 51.8856L712.28 52.8726L711.509 53.6437C711.324 55.448 711.162 57.2137 711 58.9795L711.44 58.5554L725.01 45.2698L735.142 55.2475L737.687 57.7535L740.139 60.1824L741.735 58.6402L755.306 45.3469L769.27 58.9178L770.249 57.9617L783.812 44.7223L791.523 52.2943L792.248 53.0037L793.952 54.6846L796.504 57.1906L798.949 59.6195L800.545 58.0773L814.1 44.7994L824.24 54.7463L826.792 57.2523L829.236 59.6812L830.833 58.139L844.396 44.838L848.799 49.1791C848.76 48.7782 848.721 48.3772 848.698 47.9763Z" fill="#487A9B"/>
<path d="M849.793 40.6125L850.402 41.214C851.004 40.1964 851.732 39.2586 852.569 38.4227L846.878 32.7938L849.793 29.9177L854.674 25.1987H849.538L846.069 28.6994V23.5564L849.808 19.8629L854.697 15.1285H849.546L846.084 18.6292V15.0668H843.115V18.9222L839.191 15.0668L834.271 15.1594L843.108 23.8725V29.0387L839.175 25.1833H834.171L841.936 32.8941L829.197 45.2313L816.59 32.7167L819.505 29.8483L824.386 25.1216H819.251L815.781 28.6223V23.4793L819.52 19.7858L824.409 15.0514L819.258 15.0514L815.812 18.5058V14.9897H812.835V18.8451L808.911 14.9897L803.983 15.09L812.828 23.8031V28.9693L808.895 25.1139L803.891 25.1139L811.656 32.8247L798.902 45.0925L786.295 32.6473L789.21 29.7712L794.09 25.0445L788.955 25.0445L785.485 28.5298V23.3867L789.225 19.6933L794.114 14.9512L788.963 14.9512L785.493 18.4518V14.9512H782.555V18.8065L778.63 14.9512L773.703 15.0437L782.548 23.7568V28.923L778.615 25.0677H773.611L781.375 32.7399L769.193 44.4448L757.788 33.1562L760.703 30.2878L765.584 25.5612L760.449 25.5226L756.979 29.0233V23.8802L760.734 20.2022L765.615 15.4678L760.472 15.4678L757.01 18.9685V15.4215H754.049V19.2769L750.124 15.4215L745.204 15.5218L754.026 24.2272V29.3934L750.085 25.538L745.089 25.538L752.838 33.1562L740.1 45.4934L727.493 33.1023L730.408 30.2262L735.288 25.4995L730.153 25.4995L726.683 29.0001V23.8648L730.423 20.1713L735.319 15.4215L730.176 15.4215L726.714 18.9222V15.3676H723.753V19.2229L719.828 15.3676L714.855 15.4215L723.699 24.1347V29.3009L719.759 25.4455H714.778L722.566 33.0945L711.709 43.6274C711.709 44.9614 711.709 46.303 711.709 47.6447C711.709 47.9146 711.709 48.1845 711.709 48.4543L712.272 47.9069L717.669 42.6944L722.627 37.8983L723.699 36.8728L725.01 35.616L726.668 37.2429L727.393 37.9446L730.408 40.9055L737.586 47.984L740.054 50.3974L742.56 47.9763L747.957 42.7638L752.915 37.96L753.987 36.9422L755.298 35.6854L756.956 37.3046L757.68 38.014L760.695 40.9749L769.262 49.1946L771.066 47.4519L776.464 42.2395L781.422 37.4434L782.494 36.4179L783.804 35.161L785.462 36.788L786.233 37.4897L789.24 40.4506L796.419 47.5291L798.887 49.9425L801.393 47.5213L806.79 42.3089L811.748 37.5051L812.781 36.495L814.092 35.2381L815.75 36.8574L816.482 37.5668L819.49 40.5277L826.661 47.6139L829.128 50.0273L831.642 47.5985L837.039 42.3937L841.997 37.5899L843.069 36.5721L844.395 35.3152L846.053 36.9345L846.824 37.6362L849.793 40.6125Z" fill="#487A9B"/>
<path d="M863.672 50.8909L862.97 51.5771L861.968 52.5641L859.578 54.8773L857.087 52.433L855.722 51.0914L854.635 50.0196L844.457 39.9956L832.706 51.4846L831.703 52.4716L829.799 54.3376V59.1954L830.878 58.1467L844.395 44.8765L852.106 52.433L852.877 53.2041L854.581 54.8928L857.133 57.3988L859.585 59.8199L861.174 58.2778L863.634 55.872C863.672 54.168 863.672 52.5179 863.672 50.8909Z" fill="#487A9B"/>
<path d="M864.034 40.867L859.524 45.2467L846.917 32.7553L849.831 29.8869L854.704 25.1602L849.569 25.1217L846.107 28.6224V23.4793L849.839 19.7858L854.728 15.0515L849.585 15.0515L846.13 18.5059V15.0283H843.162V18.8837L839.237 15.0283L834.31 15.1286L843.146 23.8417V29.0079L839.206 25.1525H834.209L841.974 32.8247L829.799 44.5759V49.3951L831.696 47.5676L837.093 42.3552L842.082 37.5514L843.146 36.5336L844.457 35.2767L846.115 36.896L846.847 37.6054L849.862 40.5663L857.041 47.6448L859.501 50.0582L862.014 47.637L863.865 45.8482C863.896 44.1826 863.957 42.5017 864.034 40.867Z" fill="#487A9B"/>
<path d="M1293.85 38.7079L1290.76 41.7151C1289.69 42.7715 1288.61 43.8124 1287.55 44.8688L1282.08 50.2663L1281.08 51.2533L1278.69 53.5665L1276.2 51.0914L1275.63 50.5439L1273.75 48.6856L1263.57 38.6617L1251.79 50.1584L1250.79 51.1454L1248.4 53.4586L1245.89 50.9911L1244.52 49.6495L1243.43 48.5777L1233.26 38.5537L1221.5 50.1198L1220.49 51.1068L1218.61 52.9497L1204.73 39.2477L1201.65 42.2549L1198.43 45.4086L1192.97 50.8061L1191.96 51.7931L1189.57 54.1063L1187.06 51.6234L1186.5 51.076L1184.62 49.2177L1174.44 39.1937L1162.69 50.6673L1161.68 51.662L1159.29 53.9752L1156.78 51.5078L1156.01 50.7367C1155.91 51.662 1155.91 52.595 1155.91 53.5357C1155.91 54.0834 1155.72 54.6135 1155.36 55.0316L1156.83 56.4658L1159.27 58.8869L1160.87 57.3448L1174.41 44.0592L1184.55 54.0369L1187.09 56.5429L1189.54 58.964L1191.14 57.4219L1204.7 44.144L1218.67 57.7072L1219.66 56.7511L1233.22 43.4732L1240.93 51.0528L1241.65 51.7622L1243.36 53.4509L1245.91 55.9569L1248.35 58.378L1249.95 56.8359L1263.5 43.558L1273.64 53.5357L1276.2 56.034L1278.64 58.4551L1280.24 56.913L1293.79 43.6428L1307.81 57.3833V52.4793L1293.85 38.7079Z" fill="#487A9B"/>
<path d="M1296.32 31.9379L1299.24 29.0695L1304.11 24.3428L1298.98 24.3042L1295.51 27.8049V22.6618L1299.24 18.9684L1304.13 14.234H1298.99L1295.53 17.7347V14.2109H1292.57V18.0662L1288.64 14.2109L1283.71 14.3111L1292.55 23.0242V28.1904L1288.61 24.3351H1283.61L1291.38 32.0458L1278.64 44.383L1266.03 31.8685L1268.94 28.9923L1273.81 24.2657H1268.69L1265.22 27.7586V22.6156L1268.95 18.9221L1273.88 14.1569H1268.74L1265.27 17.6576V14.1337H1262.32V17.9891L1258.39 14.1337L1253.47 14.2263L1262.3 22.9394V28.1056L1258.36 24.2502H1253.36L1261.13 31.961L1248.39 44.2982L1235.73 31.7913L1238.64 28.9152L1243.52 24.1886L1238.41 24.15L1234.94 27.6584V22.5153L1238.68 18.8219L1243.56 14.0798H1238.42L1234.95 17.5804V14.0566L1231.98 14.0566V17.912L1228.06 14.0566L1223.13 14.1492L1231.97 22.8623V28.0285L1228.03 24.1731H1223.03L1230.8 31.8839L1218.63 43.5965L1207.22 32.3234L1210.14 29.4473L1215.01 24.7206L1209.88 24.6743L1206.41 28.175V23.0397L1210.15 19.3462L1215.05 14.6504H1209.91L1206.44 18.151V14.5887L1203.47 14.5887V18.4441L1199.54 14.5887L1194.62 14.6504L1203.45 23.3635V28.5297L1199.51 24.6743H1194.52L1202.28 32.3465L1189.54 44.7223L1176.93 32.2463L1179.81 29.3702L1184.72 24.6743L1179.59 24.6358L1176.12 28.1442V23.0011L1179.87 19.2768L1184.75 14.5347H1179.61L1176.14 18.0354V14.5193L1173.18 14.5193V18.3747L1169.26 14.5193L1164.33 14.6118L1173.17 23.325V28.4912L1169.23 24.6358H1164.23L1171.99 32.3465L1159.26 44.6837L1156.37 41.8384C1156.22 43.3266 1153.45 41.9927 1153.29 43.4885L1156.68 47.0355L1159.18 49.5029L1161.7 47.0355L1167.1 41.823L1172.1 37.0115L1173.17 35.9937L1174.48 34.7291L1176.13 36.3561L1176.91 37.0578L1179.81 40.0958L1186.99 47.1666L1189.45 49.58L1191.96 47.1589L1197.36 41.9464L1202.32 37.1503L1203.38 36.1248L1204.69 34.8679L1206.35 36.4949L1207.08 37.1966L1210.1 40.1575L1218.66 48.3617L1220.46 46.6191L1225.86 41.4066L1230.82 36.6106L1231.88 35.585L1233.19 34.3282L1234.85 35.9552L1235.58 36.6568L1238.6 39.6178L1245.78 46.6885L1248.24 49.102L1250.75 46.6808L1256.15 41.4683L1261.11 36.6722L1262.17 35.6467L1263.48 34.3899L1265.14 36.0168L1265.87 36.7185L1268.89 39.6794L1276.07 46.7579L1278.52 49.1714L1281.04 46.7502L1286.44 41.5377L1291.39 36.7339L1292.46 35.7161L1293.77 34.4593L1295.43 36.0785L1296.2 36.7879L1299.21 39.7488L1307.81 48.1921V43.2881L1296.32 31.9379Z" fill="#487A9B"/>
<path d="M1413.33 38.4765L1410.25 41.476L1407.03 44.6374L1401.57 50.0349L1400.56 51.0219L1398.17 53.3351L1395.66 50.8908L1395.1 50.3434L1393.22 48.4774L1383.04 38.4534L1371.28 50.0195L1370.27 50.8908L1367.88 53.204L1365.36 50.7366L1363.99 49.3949L1362.91 48.3308L1352.73 38.3069L1340.97 49.8499L1339.96 50.8368L1338.08 52.6874L1324.2 38.9854L1321.12 41.9849C1320.04 43.049 1318.96 44.0899 1317.9 45.1463L1312.44 50.5438L1311.43 51.5308L1309.04 53.844L1306.53 51.3612L1305.97 50.8137L1304.09 48.9477L1293.91 38.9237L1282.18 50.4359L1281.17 51.4229L1278.78 53.7361L1276.27 51.2686L1275.5 50.4976C1275.44 51.4306 1275.4 52.3636 1275.4 53.3043C1275.4 53.8522 1275.21 54.3845 1274.86 54.8002L1276.31 56.2344L1278.76 58.6555L1280.36 57.1134L1293.93 43.8201L1304.06 53.844L1306.58 56.2883L1309.03 58.7095L1310.63 57.1674L1324.19 43.8895L1338.15 57.4681L1339.14 56.5119L1352.7 43.234L1360.41 50.8137L1361.13 51.5231L1362.83 53.204L1365.39 55.71L1367.83 58.1312L1369.43 56.5891L1382.98 43.3189L1393.12 53.2966L1395.71 55.8026L1398.16 58.2237L1399.75 56.6816L1413.29 43.3883L1427.26 57.1519V52.2479L1413.33 38.4765Z" fill="#487A9B"/>
<path d="M1415.81 31.7066L1418.72 28.8305L1423.6 24.1116L1418.47 24.073L1414.99 27.5737V22.4306L1418.73 18.7372L1423.62 14.0028H1418.48L1414.99 17.4803V13.9797H1412.06V17.835L1408.14 13.9797L1403.21 14.0722L1412.04 22.7853V27.9515L1408.11 24.0961H1403.12L1410.88 31.7683L1398.12 44.0824L1385.51 31.6141L1388.43 28.7457L1393.3 24.019L1388.17 23.9805L1384.7 27.4812V22.3612L1388.44 18.6678L1393.33 13.9334H1388.19L1384.72 17.4341V13.8794H1381.75V17.7348L1377.82 13.8794L1372.9 13.9797L1381.73 22.6928V27.859L1377.8 24.0036H1372.8L1380.57 31.7144L1367.83 44.0515L1355.22 31.5601L1358.13 28.684L1363 23.9574L1357.88 23.9034L1354.41 27.4118V22.2841L1358.15 18.5907L1363.04 13.8794H1357.9L1354.43 17.3801V13.8254L1351.46 13.8254V17.6808L1347.54 13.8254L1342.61 13.918L1351.45 22.6311V27.7587L1347.51 23.9034H1342.51L1350.27 31.6141L1338.11 43.3576L1326.71 32.0845L1329.62 29.2161L1334.5 24.4894L1329.4 24.4508L1325.94 27.9515V22.8085L1329.67 19.115L1334.56 14.3806H1329.42L1325.95 17.8813V14.3575L1322.98 14.3575V18.2129L1319.05 14.3575L1314.13 14.4577L1322.94 23.1323V28.2985L1319 24.4431H1314L1321.77 32.1539L1309.03 44.4911L1296.41 32.0151L1299.33 29.139L1304.2 24.4123L1299.07 24.3737L1295.6 27.8821V22.7391L1299.33 19.0456L1304.22 14.3035H1299.07L1295.6 17.8042V14.2804L1292.64 14.2804V18.1357L1288.71 14.2804L1283.78 14.3729L1292.62 23.086V28.2522L1288.68 24.3969H1283.68L1291.45 32.1076L1278.73 44.3831L1275.83 41.5378C1275.69 43.026 1272.91 41.6921 1272.75 43.1879L1276.2 46.7657L1278.69 49.2409L1281.21 46.8197L1286.61 41.6072L1291.57 36.8112L1292.64 35.7856L1293.95 34.5288L1295.6 36.1557L1296.38 36.8574L1299.33 39.8261L1306.51 46.9045L1308.97 49.3488L1311.48 46.9277L1316.88 41.7152L1321.84 36.9114L1322.91 35.8936L1324.22 34.6367L1325.88 36.256L1326.65 36.9654L1329.66 39.9263L1338.21 48.1305L1340.03 46.3879L1345.42 41.1754L1350.38 36.3794L1351.45 35.3538L1352.76 34.097L1354.41 35.7239L1355.19 36.4256L1358.2 39.3865L1365.38 46.465L1367.84 48.8785L1370.27 46.4419L1375.67 41.2294L1380.63 36.4256L1381.69 35.4078L1383.01 34.151L1384.66 35.7702L1385.4 36.4796L1388.41 39.4405L1395.59 46.519L1398.05 48.9324L1400.56 46.5036L1405.96 41.2988L1410.93 36.495L1412.01 35.4695L1413.32 34.2126L1414.97 35.8319L1415.71 36.5336L1418.72 39.4945L1427.27 47.9609V43.0569L1415.81 31.7066Z" fill="#487A9B"/>
<path d="M1426.49 0L712.643 0V10.9261L1426.49 10.9261V0Z" fill="#487A9B"/>
<path d="M2137.96 63.043L1424.12 63.043V67.0834L2137.96 67.0834V63.043Z" fill="#487A9B"/>
<path d="M2137.96 69.9597L1424.12 69.9597V74.0001L2137.96 74.0001V69.9597Z" fill="#487A9B"/>
<path d="M1734.64 42.409C1733.56 43.4654 1732.49 44.5063 1731.42 45.5704L1725.96 50.9679L1724.95 51.9549L1722.56 54.2681L1720.05 51.793L1719.49 51.2378L1717.61 49.3795L1707.43 39.3556L1695.67 50.8908L1694.65 51.8624L1692.26 54.1756L1689.74 51.7004L1688.38 50.3588L1687.31 49.3487L1677.13 39.3247L1665.35 50.7983L1664.34 51.7853L1662.46 53.6281L1648.58 39.9261L1645.5 42.9333C1644.42 43.9897 1643.34 45.0384 1642.28 46.0947L1636.81 51.4923L1635.85 52.433L1633.46 54.7462L1630.96 52.271L1630.39 51.7236L1628.51 49.8653L1618.33 39.8413L1606.57 51.4074L1605.57 52.3944L1603.17 54.7076L1600.66 52.2325L1599.29 50.8908L1598.21 49.819L1588.03 39.7951L1576.26 51.3612L1575.26 52.3481L1573.37 54.2141V59.0719L1574.44 58.0233L1587.99 44.7222L1595.7 52.3019L1596.43 53.0036L1598.13 54.6922L1600.68 57.1982L1603.13 59.6271L1604.72 58.0849L1618.31 44.7685L1628.42 54.7462L1630.96 57.2522L1633.42 59.6734L1635.01 58.1312L1648.58 44.8533L1662.53 58.4242L1663.52 57.4681L1677.09 44.1825L1684.8 51.7621L1685.53 52.4715L1687.23 54.1525L1689.77 56.6585L1692.23 59.0873L1693.82 57.5452L1707.39 44.2596L1717.52 54.2373L1720.06 56.7433L1722.51 59.1722L1724.11 57.63L1737.68 44.3367L1751.64 58.1004V53.1963L1737.72 39.4172L1734.64 42.409Z" fill="#487A9B"/>
<path d="M1740.16 32.3774L1743.08 29.5013L1747.96 24.7746L1742.82 24.7438L1739.35 28.2444L1739.37 23.1014L1743.11 19.4079L1748 14.6658L1742.85 14.6427L1739.38 18.1511L1739.39 14.6504L1736.42 14.635L1736.41 18.498L1732.48 14.6195L1727.56 14.7121L1736.4 23.4252L1736.39 28.5914L1732.45 24.7129L1727.45 24.6975L1735.21 32.3774L1722.48 44.7454L1709.87 32.3003L1712.78 29.4242L1717.66 24.6975L1712.53 24.6666L1709.06 28.1673L1709.07 23.0243L1712.81 19.3308L1717.7 14.5964L1712.55 14.5656L1709.09 18.074L1709.1 14.5733L1706.13 14.5656L1706.11 18.4209L1702.19 14.5424L1697.27 14.635L1706.11 23.3481L1706.09 28.5143L1702.16 24.6358L1697.15 24.6281L1704.92 32.3003L1692.18 44.676L1679.57 32.2232L1682.5 29.3471L1687.37 24.6281L1682.23 24.5895L1678.76 28.0902L1678.78 22.9471L1682.52 19.2537L1687.41 14.5193L1682.26 14.4962L1678.79 17.9969L1678.8 14.4962L1675.83 14.4885L1675.82 18.3438L1671.89 14.4653L1666.97 14.5579L1675.81 23.271L1675.79 28.4372L1671.86 24.5664L1666.86 24.551L1674.63 32.2232L1662.47 44.0283L1651.07 32.7552L1653.98 29.8791L1658.86 25.1524L1653.73 25.1216L1650.26 28.6223L1650.27 23.4792L1654.01 19.7857L1658.89 15.0513L1653.75 15.0205L1650.29 18.5289L1650.3 15.0282L1647.33 15.0205L1647.32 18.8759L1643.39 14.9974L1638.47 15.0899L1647.3 23.803L1647.29 28.9692L1643.36 25.0907L1638.35 25.083L1646.12 32.7552L1633.38 45.1309L1620.77 32.6781L1623.69 29.8097L1628.57 25.083L1623.43 25.0445L1619.97 28.5451L1619.98 23.4021L1623.72 19.7086L1628.6 14.9742L1623.45 14.9511L1619.99 18.4518L1620 14.9511L1617.03 14.9434L1617.02 18.7988L1613.09 14.9203L1608.16 15.0205L1617.01 23.7336L1616.99 28.8998L1613.06 25.0213L1608.06 25.0059L1615.82 32.6781L1603.08 45.0538L1590.48 32.601L1593.39 29.7326L1598.27 25.0059L1593.14 24.9674L1589.67 28.468L1589.68 23.325L1593.42 19.6315L1598.3 14.8971L1593.16 14.874L1589.7 18.3747L1589.7 14.874L1586.74 14.8663L1586.72 18.7217L1582.8 14.8432L1577.88 14.9434L1586.71 23.6565L1586.7 28.8227L1582.76 24.9442L1577.76 24.9288L1585.52 32.601L1573.37 44.4216L1573.35 49.2408L1575.25 47.4133L1580.65 42.2009L1585.61 37.4048L1586.68 36.3793L1587.99 35.1224L1589.65 36.7494L1590.38 37.4511V37.4588L1593.39 40.4197L1600.57 47.4981L1603.04 49.9116L1605.54 47.4904L1610.95 42.278L1615.91 37.4742L1616.98 36.4564L1618.29 35.1995L1619.95 36.8188L1620.67 37.5282V37.5359L1623.69 40.4968L1630.87 47.5753L1633.33 49.9887L1635.84 47.5675L1641.24 42.3474L1646.21 37.5513L1647.27 36.5335L1648.58 35.2689L1650.24 36.8959L1650.97 37.6053V37.613L1653.98 40.5739L1662.54 48.7704L1664.35 47.0278L1669.75 41.823L1674.71 37.0193L1675.78 36.0014L1677.09 34.7446L1678.75 36.3638L1679.48 37.0732V37.0809L1682.49 40.0419L1689.67 47.1203L1692.13 49.5338L1694.65 47.1049L1700.04 41.8924L1705.01 37.0964L1706.07 36.0785L1707.39 34.8217L1709.04 36.4409L1709.78 37.1426V37.158L1712.78 40.119L1719.96 47.1897L1722.43 49.6032L1724.94 47.182L1730.34 41.9695L1735.31 37.1735L1736.37 36.1479L1737.68 34.8911L1739.34 36.5181L1740.07 37.2197V37.2352L1743.08 40.1961L1751.64 48.6316L1751.65 43.7276L1740.16 32.3774Z" fill="#487A9B"/>
<path d="M1891.64 43.2573L1887.41 39.0858L1884.33 42.093C1883.26 43.1416 1882.18 44.1903 1881.12 45.2467L1875.65 50.6442L1874.65 51.6312L1872.26 53.9444L1869.75 51.4615L1869.19 50.9141L1867.31 49.0481L1857.13 39.0241L1845.37 50.5902L1844.37 51.5772L1841.98 53.8904L1839.47 51.423L1838.07 50.0505L1836.99 48.9864L1826.81 38.9624L1815.05 50.5285L1814.05 51.5155L1812.17 53.3584L1798.29 39.6564L1795.2 42.6558L1791.98 45.8173L1786.52 51.2148L1785.51 52.2017L1783.12 54.515L1780.61 52.0321L1780.05 51.4846L1778.17 49.6186L1767.99 39.5947L1756.23 51.1608L1755.22 52.1478L1752.83 54.461L1750.32 51.9936L1748.95 50.6519L1747.87 49.5878L1737.69 39.5638L1725.97 50.968L1724.96 51.955L1723.06 53.821V58.6788L1724.13 57.6378L1737.7 44.3599L1745.41 51.9396L1746.13 52.649L1747.85 54.3376L1750.4 56.8436L1752.85 59.2648L1754.44 57.7226L1768.01 44.4525L1778.14 54.4301L1780.68 56.9361L1783.11 59.3727L1784.71 57.8306L1798.28 44.5064L1812.24 58.085L1813.23 57.1289L1826.79 43.851L1834.5 51.4307L1835.22 52.1401L1836.92 53.8287L1839.48 56.3347L1841.92 58.7559L1843.52 57.2137L1857.08 43.9513L1867.21 53.9058L1869.76 56.4118L1872.21 58.833L1873.81 57.2908L1887.41 44.0052L1891.18 47.7064C1891.32 46.2645 1891.39 44.7223 1891.64 43.2573Z" fill="#487A9B"/>
<path d="M1892.68 39.903C1893.17 38.7948 1893.81 37.7574 1894.58 36.8187L1889.87 32.1923L1892.81 29.3008L1897.69 24.5741L1892.56 24.5355L1889.09 28.0362V22.8931L1892.81 19.2074L1897.7 14.473H1892.56L1889.09 17.9737V14.4499H1886.12V18.3052L1882.19 14.4499L1877.27 14.5501L1886.1 23.2632V28.4294L1882.16 24.5741H1877.17L1884.93 32.2463L1872.18 44.5526L1859.57 32.1075L1862.49 29.2314L1867.37 24.5047L1862.24 24.4661L1858.77 27.9745V22.8314L1862.5 19.138L1867.37 14.3959H1862.22L1858.75 17.8966V14.3728H1855.8V18.2281L1851.88 14.3728L1846.95 14.4653L1855.8 23.1322V28.2984L1851.86 24.443H1846.86L1854.63 32.1537L1841.92 44.4755L1829.28 32.0304L1832.19 29.1543L1837.06 24.4276L1831.94 24.389L1828.47 27.8974V22.7543L1832.2 19.0609L1837.09 14.3188H1831.94L1828.47 17.8195V14.2957H1825.51V18.151L1821.58 14.2957L1816.65 14.3882L1825.5 23.1013V28.2675L1821.56 24.4121L1816.56 24.4121L1824.33 32.1229L1812.17 43.9203L1800.77 32.5624L1803.68 29.6863L1808.56 24.9596H1803.43L1799.96 28.4603V23.3249L1803.69 19.6315L1808.58 14.8894H1803.44L1799.97 18.3901V14.8277H1797V18.6831L1793.07 14.8277L1788.15 14.9202L1796.99 23.6334V28.7996L1793.05 24.9442H1788.05L1795.82 32.6164L1783.08 44.9304L1770.47 32.4853L1773.39 29.6092L1778.27 24.8825L1773.13 24.8439L1769.66 28.3523V23.2093L1773.4 19.5158L1778.28 14.7737L1773.14 14.7737L1769.67 18.2744V14.7583H1766.7V18.6137L1762.78 14.7583L1757.85 14.8508L1766.69 23.564V28.7302L1762.75 24.8748L1757.75 24.8748L1765.52 32.5855L1752.78 44.9227L1740.18 32.3851L1743.09 29.5089L1747.97 24.7823L1742.84 24.7823L1739.37 28.2752V23.1322L1743.1 19.4387L1747.99 14.7043L1742.85 14.7043L1739.37 18.1819V14.6503H1736.4V18.5057L1732.48 14.6503L1727.55 14.7429L1736.38 23.456V28.6222L1732.44 24.7668H1727.45L1735.21 32.4776L1723.06 44.221V49.048L1724.96 47.2128L1730.35 42.0003L1735.31 37.2043L1736.38 36.1864L1737.69 34.9219L1739.37 36.5489L1740.1 37.2505L1743.12 40.2115L1750.29 47.2899L1752.75 49.6957L1755.27 47.2745L1760.67 42.062L1765.59 37.2814L1766.67 36.2404L1767.98 34.9759L1769.64 36.6028L1770.37 37.3045L1773.39 40.2654L1780.57 47.3362L1783.03 49.7496L1785.54 47.3285L1790.94 42.116L1795.9 37.3199L1796.96 36.2944L1798.27 35.0375L1799.93 36.6645L1800.66 37.3662L1803.68 40.3271L1812.24 48.5776L1814.05 46.835L1819.44 41.6225L1824.4 36.8264L1825.47 35.8009L1826.78 34.5441L1828.44 36.171L1829.21 36.8727L1832.22 39.8259L1839.4 46.9044L1841.83 49.3487L1844.34 46.9275L1849.74 41.7151L1854.7 36.919L1855.8 35.878L1857.11 34.6212L1858.74 36.2404L1859.51 36.9421L1862.52 39.903L1869.68 47.0355L1872.14 49.4489L1874.65 47.0278L1880.05 41.8153L1885 37.0115L1886.07 35.9937L1887.41 34.6983L1889.07 36.3175L1889.81 37.0269L1892.68 39.903Z" fill="#487A9B"/>
<path d="M1561.7 47.9763C1561.66 46.8118 1561.79 45.6481 1562.09 44.5219L1557.47 39.8954L1554.38 42.9026L1551.16 46.064L1545.7 51.4615L1544.67 52.4331L1542.28 54.7463L1539.78 52.2634L1539.21 51.7083L1537.35 49.8962L1527.17 39.8723L1515.39 51.3767L1514.38 52.3637L1511.99 54.6769L1509.47 52.2017L1508.11 50.8909L1507.03 49.8191L1496.85 39.7952L1485.09 51.3613L1484.08 52.3483L1482.2 54.1294L1468.32 40.4352L1465.24 43.4346C1464.16 44.491 1463.08 45.5397 1462.01 46.596L1456.55 51.9936L1455.61 52.9497L1453.22 55.2629L1450.67 52.8186L1450.11 52.2634L1448.23 50.4051L1438.05 40.3812L1426.31 51.8856L1425.28 52.8726L1424.51 53.6437C1424.32 55.448 1424.16 57.2137 1424 58.9795L1424.44 58.5554L1438.01 45.2698L1448.14 55.2475L1450.69 57.7535L1453.14 60.1824L1454.73 58.6402L1468.31 45.3469L1482.27 58.9178L1483.25 57.9617L1496.81 44.7223L1504.52 52.2943L1505.25 53.0037L1506.95 54.6846L1509.5 57.1906L1511.95 59.6195L1513.54 58.0773L1527.1 44.7994L1537.24 54.7463L1539.79 57.2523L1542.24 59.6812L1543.83 58.139L1557.4 44.838L1561.8 49.1791C1561.76 48.7782 1561.72 48.3772 1561.7 47.9763Z" fill="#487A9B"/>
<path d="M1562.79 40.6125L1563.4 41.214C1564 40.1964 1564.73 39.2586 1565.57 38.4227L1559.88 32.7938L1562.79 29.9177L1567.67 25.1987H1562.54L1559.07 28.6994V23.5564L1562.81 19.8629L1567.7 15.1285H1562.55L1559.08 18.6292V15.0668H1556.12V18.9222L1552.19 15.0668L1547.27 15.1594L1556.11 23.8725V29.0387L1552.18 25.1833H1547.17L1554.94 32.8941L1542.2 45.2313L1529.59 32.7167L1532.51 29.8483L1537.39 25.1216H1532.25L1528.78 28.6223V23.4793L1532.52 19.7858L1537.41 15.0514L1532.26 15.0514L1528.81 18.5058V14.9897H1525.84V18.8451L1521.91 14.9897L1516.98 15.09L1525.83 23.8031V28.9693L1521.9 25.1139L1516.89 25.1139L1524.66 32.8247L1511.9 45.0925L1499.29 32.6473L1502.21 29.7712L1507.09 25.0445L1501.96 25.0445L1498.49 28.5298V23.3867L1502.23 19.6933L1507.11 14.9512L1501.96 14.9512L1498.49 18.4518V14.9512H1495.56V18.8065L1491.63 14.9512L1486.7 15.0437L1495.55 23.7568V28.923L1491.62 25.0677H1486.61L1494.38 32.7399L1482.19 44.4448L1470.79 33.1562L1473.7 30.2878L1478.58 25.5612L1473.45 25.5226L1469.98 29.0233V23.8802L1473.73 20.2022L1478.61 15.4678L1473.47 15.4678L1470.01 18.9685V15.4215H1467.05V19.2769L1463.12 15.4215L1458.2 15.5218L1467.03 24.2272V29.3934L1463.09 25.538L1458.09 25.538L1465.84 33.1562L1453.1 45.4934L1440.49 33.1023L1443.41 30.2262L1448.29 25.4995L1443.15 25.4995L1439.68 29.0001V23.8648L1443.42 20.1713L1448.32 15.4215L1443.18 15.4215L1439.71 18.9222V15.3676H1436.75V19.2229L1432.83 15.3676L1427.85 15.4215L1436.7 24.1347V29.3009L1432.76 25.4455H1427.78L1435.57 33.0945L1424.71 43.6274C1424.71 44.9614 1424.71 46.303 1424.71 47.6447C1424.71 47.9146 1424.71 48.1845 1424.71 48.4543L1425.27 47.9069L1430.67 42.6944L1435.63 37.8983L1436.7 36.8728L1438.01 35.616L1439.67 37.2429L1440.39 37.9446L1443.41 40.9055L1450.59 47.984L1453.05 50.3974L1455.56 47.9763L1460.96 42.7638L1465.92 37.96L1466.99 36.9422L1468.3 35.6854L1469.96 37.3046L1470.68 38.014L1473.7 40.9749L1482.26 49.1946L1484.07 47.4519L1489.46 42.2395L1494.42 37.4434L1495.49 36.4179L1496.8 35.161L1498.46 36.788L1499.23 37.4897L1502.24 40.4506L1509.42 47.5291L1511.89 49.9425L1514.39 47.5213L1519.79 42.3089L1524.75 37.5051L1525.78 36.495L1527.09 35.2381L1528.75 36.8574L1529.48 37.5668L1532.49 40.5277L1539.66 47.6139L1542.13 50.0273L1544.64 47.5985L1550.04 42.3937L1555 37.5899L1556.07 36.5721L1557.4 35.3152L1559.05 36.9345L1559.82 37.6362L1562.79 40.6125Z" fill="#487A9B"/>
<path d="M1576.67 50.8909L1575.97 51.5771L1574.97 52.5641L1572.58 54.8773L1570.09 52.433L1568.72 51.0914L1567.64 50.0196L1557.46 39.9956L1545.71 51.4846L1544.7 52.4716L1542.8 54.3376V59.1954L1543.88 58.1467L1557.4 44.8765L1565.11 52.433L1565.88 53.2041L1567.58 54.8928L1570.13 57.3988L1572.59 59.8199L1574.17 58.2778L1576.63 55.872C1576.67 54.168 1576.67 52.5179 1576.67 50.8909Z" fill="#487A9B"/>
<path d="M1577.03 40.867L1572.52 45.2467L1559.92 32.7553L1562.83 29.8869L1567.7 25.1602L1562.57 25.1217L1559.11 28.6224V23.4793L1562.84 19.7858L1567.73 15.0515L1562.58 15.0515L1559.13 18.5059V15.0283H1556.16V18.8837L1552.24 15.0283L1547.31 15.1286L1556.15 23.8417V29.0079L1552.21 25.1525H1547.21L1554.97 32.8247L1542.8 44.5759V49.3951L1544.7 47.5676L1550.09 42.3552L1555.08 37.5514L1556.15 36.5336L1557.46 35.2767L1559.11 36.896L1559.85 37.6054L1562.86 40.5663L1570.04 47.6448L1572.5 50.0582L1575.01 47.637L1576.86 45.8482C1576.9 44.1826 1576.96 42.5017 1577.03 40.867Z" fill="#487A9B"/>
<path d="M2006.85 38.7079L2003.76 41.7151C2002.69 42.7715 2001.61 43.8124 2000.55 44.8688L1995.08 50.2663L1994.08 51.2533L1991.69 53.5665L1989.2 51.0914L1988.63 50.5439L1986.75 48.6856L1976.57 38.6617L1964.79 50.1584L1963.79 51.1454L1961.4 53.4586L1958.89 50.9911L1957.52 49.6495L1956.43 48.5777L1946.26 38.5537L1934.5 50.1198L1933.49 51.1068L1931.61 52.9497L1917.73 39.2477L1914.65 42.2549L1911.43 45.4086L1905.97 50.8061L1904.96 51.7931L1902.57 54.1063L1900.06 51.6234L1899.5 51.076L1897.62 49.2177L1887.44 39.1937L1875.69 50.6673L1874.68 51.662L1872.29 53.9752L1869.78 51.5078L1869.01 50.7367C1868.91 51.662 1868.91 52.595 1868.91 53.5357C1868.91 54.0834 1868.72 54.6135 1868.36 55.0316L1869.83 56.4658L1872.27 58.8869L1873.87 57.3448L1887.41 44.0592L1897.55 54.0369L1900.09 56.5429L1902.54 58.964L1904.14 57.4219L1917.7 44.144L1931.67 57.7072L1932.66 56.7511L1946.22 43.4732L1953.93 51.0528L1954.65 51.7622L1956.36 53.4509L1958.91 55.9569L1961.35 58.378L1962.95 56.8359L1976.5 43.558L1986.64 53.5357L1989.2 56.034L1991.64 58.4551L1993.24 56.913L2006.79 43.6428L2020.81 57.3833V52.4793L2006.85 38.7079Z" fill="#487A9B"/>
<path d="M2009.32 31.9379L2012.24 29.0695L2017.11 24.3428L2011.98 24.3042L2008.51 27.8049V22.6618L2012.24 18.9684L2017.13 14.234H2011.99L2008.53 17.7347V14.2109H2005.57V18.0662L2001.64 14.2109L1996.71 14.3111L2005.55 23.0242V28.1904L2001.61 24.3351H1996.61L2004.38 32.0458L1991.64 44.383L1979.03 31.8685L1981.94 28.9923L1986.81 24.2657H1981.69L1978.22 27.7586V22.6156L1981.95 18.9221L1986.88 14.1569H1981.74L1978.27 17.6576V14.1337H1975.32V17.9891L1971.39 14.1337L1966.47 14.2263L1975.3 22.9394V28.1056L1971.36 24.2502H1966.36L1974.13 31.961L1961.39 44.2982L1948.73 31.7913L1951.64 28.9152L1956.52 24.1886L1951.41 24.15L1947.94 27.6584V22.5153L1951.68 18.8219L1956.56 14.0798H1951.42L1947.95 17.5804V14.0566L1944.98 14.0566V17.912L1941.06 14.0566L1936.13 14.1492L1944.97 22.8623V28.0285L1941.03 24.1731H1936.03L1943.8 31.8839L1931.63 43.5965L1920.22 32.3234L1923.14 29.4473L1928.01 24.7206L1922.88 24.6743L1919.41 28.175V23.0397L1923.15 19.3462L1928.05 14.6504H1922.91L1919.44 18.151V14.5887L1916.47 14.5887V18.4441L1912.54 14.5887L1907.62 14.6504L1916.45 23.3635V28.5297L1912.51 24.6743H1907.52L1915.28 32.3465L1902.54 44.7223L1889.93 32.2463L1892.81 29.3702L1897.72 24.6743L1892.59 24.6358L1889.12 28.1442V23.0011L1892.87 19.2768L1897.75 14.5347H1892.61L1889.14 18.0354V14.5193L1886.18 14.5193V18.3747L1882.26 14.5193L1877.33 14.6118L1886.17 23.325V28.4912L1882.23 24.6358H1877.23L1884.99 32.3465L1872.26 44.6837L1869.37 41.8384C1869.22 43.3266 1866.45 41.9927 1866.29 43.4885L1869.68 47.0355L1872.18 49.5029L1874.7 47.0355L1880.1 41.823L1885.1 37.0115L1886.17 35.9937L1887.48 34.7291L1889.13 36.3561L1889.91 37.0578L1892.81 40.0958L1899.99 47.1666L1902.45 49.58L1904.96 47.1589L1910.36 41.9464L1915.32 37.1503L1916.38 36.1248L1917.69 34.8679L1919.35 36.4949L1920.08 37.1966L1923.1 40.1575L1931.66 48.3617L1933.46 46.6191L1938.86 41.4066L1943.82 36.6106L1944.88 35.585L1946.19 34.3282L1947.85 35.9552L1948.58 36.6568L1951.6 39.6178L1958.78 46.6885L1961.24 49.102L1963.75 46.6808L1969.15 41.4683L1974.11 36.6722L1975.17 35.6467L1976.48 34.3899L1978.14 36.0168L1978.87 36.7185L1981.89 39.6794L1989.07 46.7579L1991.52 49.1714L1994.04 46.7502L1999.44 41.5377L2004.39 36.7339L2005.46 35.7161L2006.77 34.4593L2008.43 36.0785L2009.2 36.7879L2012.21 39.7488L2020.81 48.1921V43.2881L2009.32 31.9379Z" fill="#487A9B"/>
<path d="M2139.49 0L1425.64 0V10.9261L2139.49 10.9261V0Z" fill="#487A9B"/>
</g>
<defs>
<clipPath id="clip0_12_13676">
<rect width="1920" height="74" fill="white"/>
</clipPath>
</defs>
</svg>
