<svg width="36" height="37" viewBox="0 0 36 37" fill="none" xmlns="http://www.w3.org/2000/svg">
<rect width="36" height="36" rx="8" transform="matrix(1.19249e-08 -1 -1 -1.19249e-08 36 36.7158)" fill="#487A9B"/>
<path d="M16 24.7158C17.1046 24.7158 18 23.8204 18 22.7158L18 10.7158C18 9.61125 17.1046 8.71582 16 8.71582L10 8.71582C8.89543 8.71582 8 9.61125 8 10.7158L8 22.7158C8 23.8204 8.89543 24.7158 10 24.7158L16 24.7158Z" stroke="white" stroke-width="2" stroke-linejoin="round"/>
<mask id="path-3-inside-1_9_11232" fill="white">
<path d="M14 21.7158C14.5523 21.7158 15 21.2681 15 20.7158C15 20.1635 14.5523 19.7158 14 19.7158L12 19.7158C11.4477 19.7158 11 20.1635 11 20.7158C11 21.2681 11.4477 21.7158 12 21.7158L14 21.7158Z"/>
</mask>
<path d="M14 21.7158L12 21.7158L12 17.7158L14 17.7158L14 21.7158ZM12 19.7158L14 19.7158L14 23.7158L12 23.7158L12 19.7158ZM13 20.7158C13 20.1635 12.5523 19.7158 12 19.7158L12 23.7158C10.3431 23.7158 9 22.3727 9 20.7158L13 20.7158ZM12 21.7158C12.5523 21.7158 13 21.2681 13 20.7158L9 20.7158C9 19.059 10.3431 17.7158 12 17.7158L12 21.7158ZM13 20.7158C13 21.2681 13.4477 21.7158 14 21.7158L14 17.7158C15.6569 17.7158 17 19.059 17 20.7158L13 20.7158ZM17 20.7158C17 22.3727 15.6569 23.7158 14 23.7158L14 19.7158C13.4477 19.7158 13 20.1635 13 20.7158L17 20.7158Z" fill="white" mask="url(#path-3-inside-1_9_11232)"/>
<path d="M26.8887 28.7158L21.8887 28.7158L21.8887 23.7158" stroke="white" stroke-width="2" stroke-linecap="round" stroke-linejoin="round"/>
<path d="M23.945 10.6742C26.4056 12.4964 28 15.4197 28 18.7158C28 21.9497 26.465 24.8253 24.0833 26.653L21.8889 28.7158" stroke="white" stroke-width="2" stroke-linecap="round" stroke-linejoin="round"/>
</svg>
