<svg width="579" height="900" viewBox="0 0 579 900" fill="none" xmlns="http://www.w3.org/2000/svg">
<path d="M205.011 486.295C207.034 482.375 209.786 478.898 212.009 475.107C214.458 471.419 215.765 467.073 215.763 462.625C215.581 460.082 214.745 457.632 213.338 455.52C211.931 453.407 210.002 451.707 207.745 450.587C207.095 450.22 206.379 449.992 205.64 449.916C204.9 449.839 204.153 449.917 203.444 450.143C202.544 450.555 201.76 451.191 201.167 451.993C196.968 456.969 194.085 462.947 192.791 469.365C191.497 475.784 191.833 482.43 193.768 488.68" fill="#406E8C"/>
<path d="M193.768 488.162L190.123 472.981C189.34 469.597 188.465 466.046 186.078 463.568C184.919 462.442 183.613 461.484 182.196 460.721C180.01 459.408 177.276 458.15 175.017 459.352C172.757 460.554 172.265 463.679 172.338 466.305C172.656 476.179 176.503 485.598 183.162 492.804" fill="#406E8C"/>
<path d="M183.399 492.675C181.614 489.186 179.712 485.759 177.696 482.393C174.379 476.846 170.407 471.206 164.448 468.876C161.806 467.84 158.161 467.914 156.904 470.485C156.33 472.002 156.33 473.682 156.904 475.2C158.434 480.521 161.053 485.454 164.588 489.679C168.123 493.904 172.497 497.325 177.422 499.72" fill="#406E8C"/>
<path d="M175.709 499.276L166.087 491.509C163.325 489.072 160.262 487.008 156.976 485.37C153.662 483.724 149.85 483.439 146.334 484.575C145.506 484.834 144.747 485.282 144.115 485.885C143.483 486.487 142.996 487.228 142.69 488.052C142.428 489.169 142.498 490.34 142.89 491.417C144.109 494.685 146.204 497.542 148.94 499.664C155.235 505.095 162.837 508.732 170.971 510.205" fill="#406E8C"/>
<path d="M169.004 510.002C159.547 507.616 149.561 505.231 140.195 507.912C138.35 508.353 136.626 509.206 135.147 510.408C134.416 511.017 133.832 511.786 133.437 512.657C133.042 513.528 132.848 514.479 132.869 515.438C133.027 516.514 133.441 517.535 134.076 518.412C134.712 519.289 135.548 519.994 136.514 520.468C139.364 521.789 142.503 522.337 145.625 522.058C155.41 522.058 165.815 520.764 173.469 514.551" fill="#406E8C"/>
<path d="M193.749 508.762C201.129 524.702 220.318 537.24 237.793 537.184C242.185 537.184 246.558 536.407 250.968 536.407C258.666 536.523 266.167 538.891 272.57 543.227C278.974 547.564 284.007 553.684 287.066 560.854" fill="#406E8C"/>
<path d="M193.749 508.762C201.129 524.702 220.318 537.24 237.793 537.184C242.185 537.184 246.558 536.407 250.968 536.407C258.666 536.523 266.167 538.891 272.57 543.227C278.974 547.564 284.007 553.684 287.066 560.854" stroke="#487A9B" stroke-width="0.666262" stroke-miterlimit="10"/>
<path d="M232.91 518.045C232.797 513.241 233.077 508.435 233.748 503.677C234.623 497.741 235.571 491.491 239.343 486.831C246.048 493.1 247.616 503.27 246.978 512.498C246.431 520.431 244.172 528.9 238.012 533.819L234.368 536.944C235.471 535.599 236.212 533.987 236.518 532.265C236.7 529.88 233.001 524.702 232.91 518.045Z" fill="#406E8C"/>
<path d="M206.925 545.376C200.204 548.394 194.462 553.279 190.361 559.467C198.081 560.974 206.057 560.378 213.476 557.741C220.896 555.103 227.494 550.518 232.6 544.452C233.661 543.285 234.468 541.905 234.969 540.402C235.249 539.344 235.42 538.26 235.479 537.166C225.538 538.061 215.851 540.846 206.925 545.376Z" fill="#406E8C"/>
<path d="M218.022 531.859C216.279 529.724 215.089 527.182 214.56 524.462C214.078 522.818 213.772 521.125 213.649 519.414C213.622 517.25 213.842 515.091 214.305 512.979C214.615 511.129 214.943 509.428 215.253 507.671" fill="#406E8C"/>
<path d="M218.022 531.859C216.279 529.724 215.089 527.182 214.56 524.462C214.078 522.818 213.772 521.125 213.649 519.414C213.622 517.25 213.842 515.091 214.305 512.979C214.615 511.129 214.943 509.428 215.253 507.671" stroke="#487A9B" stroke-width="0.659599" stroke-linecap="round" stroke-linejoin="round"/>
<path d="M216.346 531.674C207.272 529.259 197.651 530.149 189.158 534.189Z" fill="#406E8C"/>
<path d="M216.346 531.674C207.272 529.259 197.651 530.149 189.158 534.189" stroke="#487A9B" stroke-width="0.666262" stroke-miterlimit="10"/>
<path d="M214.286 510.131C213.45 507.207 213.244 504.135 213.681 501.123C214.118 498.111 215.188 495.23 216.819 492.674C218.898 489.747 221.349 487.11 224.108 484.834C225.974 489.532 226.046 494.768 224.309 499.516C222.522 504.223 219.045 508.068 214.578 510.279" fill="#406E8C"/>
<path d="M190.798 533.357C187.7 531.23 183.509 532.081 180.101 533.837C175.582 536.186 171.646 540.402 171.154 545.524C171.956 546.2 172.892 546.693 173.898 546.971C174.904 547.248 175.956 547.304 176.985 547.133C180.472 546.885 183.782 545.482 186.406 543.139C189.001 540.76 190.56 537.436 190.743 533.893" fill="#406E8C"/>
<path d="M187.189 451.216C187.606 451.211 188.022 451.162 188.428 451.068H188.775C189.491 450.928 190.172 450.644 190.778 450.233C191.384 449.822 191.904 449.291 192.305 448.674C192.706 448.056 192.982 447.362 193.115 446.635C193.248 445.907 193.237 445.16 193.081 444.437C192.925 443.714 192.629 443.03 192.209 442.425C191.789 441.82 191.253 441.307 190.635 440.915C190.016 440.523 189.326 440.261 188.606 440.143C187.886 440.026 187.15 440.056 186.442 440.232L185.968 440.324C184.648 440.619 183.482 441.399 182.695 442.515C181.909 443.631 181.557 445.002 181.709 446.366C181.861 447.729 182.505 448.986 183.517 449.896C184.529 450.805 185.837 451.302 187.189 451.29V451.216Z" fill="#406E8C"/>
<path d="M160.494 460.24C161.057 460.246 161.617 460.159 162.152 459.981C163.421 459.556 164.502 458.691 165.205 457.538C165.908 456.385 166.188 455.017 165.997 453.675C165.783 452.357 165.117 451.158 164.117 450.288C163.117 449.419 161.847 448.935 160.53 448.923C159.584 448.942 158.658 449.201 157.836 449.676C157.013 450.151 156.322 450.828 155.823 451.645C155.325 452.461 155.036 453.391 154.983 454.35C154.93 455.308 155.114 456.265 155.519 457.133C155.984 458.067 156.695 458.852 157.573 459.4C158.452 459.949 159.463 460.239 160.494 460.24Z" fill="#406E8C"/>
<path d="M140.249 477.53C141.167 477.524 142.069 477.284 142.871 476.832C143.674 476.379 144.351 475.729 144.841 474.941C145.24 474.328 145.516 473.641 145.652 472.919C145.788 472.197 145.781 471.455 145.632 470.736C145.483 470.017 145.194 469.335 144.783 468.73C144.372 468.125 143.846 467.608 143.237 467.211C142.029 466.418 140.561 466.14 139.152 466.437C137.743 466.735 136.507 467.585 135.711 468.802L135.547 469.079C135.02 469.92 134.726 470.89 134.696 471.886C134.666 472.883 134.901 473.869 135.376 474.741C135.852 475.614 136.55 476.34 137.398 476.844C138.246 477.347 139.212 477.61 140.194 477.604L140.249 477.53Z" fill="#406E8C"/>
<path d="M128.294 502.383C129.223 502.385 130.138 502.146 130.951 501.69C131.764 501.234 132.449 500.575 132.941 499.775L133.069 499.572C133.673 498.352 133.813 496.949 133.462 495.631C133.11 494.313 132.292 493.173 131.164 492.428C130.036 491.684 128.677 491.389 127.347 491.598C126.018 491.807 124.811 492.506 123.957 493.562L123.757 493.895C123.381 494.518 123.13 495.209 123.019 495.93C122.907 496.651 122.937 497.388 123.106 498.097C123.275 498.807 123.581 499.475 124.005 500.065C124.43 500.654 124.965 501.153 125.579 501.532C126.395 502.054 127.331 502.347 128.294 502.383Z" fill="#406E8C"/>
<path d="M206.761 488.495L207.125 482.67C207.125 482.67 194.369 479.268 179.609 489.438C164.849 499.609 165.031 519.155 165.031 519.155C165.031 519.155 181.012 515.974 187.354 512.368" fill="#406E8C"/>
<path d="M171.026 516.474C174.572 507.621 180.565 499.999 188.283 494.524C192.498 491.168 197.541 489.051 202.861 488.403H203.298C203.918 488.403 204.519 488.403 205.12 488.403C205.682 488.418 206.242 488.467 206.797 488.551C206.36 492.49 204.428 499.535 196.92 506.544C189.507 512.959 180.338 516.92 170.644 517.898L171.026 516.474Z" fill="#406E8C"/>
<path d="M57.8105 445.465C67.3811 461.905 78.8446 477.132 91.9593 490.825C103.658 503.048 116.76 514.125 126.017 528.345C128.094 531.544 130.044 535.335 129.097 539.052C127.949 543.527 123.047 545.912 118.528 546.449C107.412 547.725 96.5512 541.086 89.6267 532.173C82.7022 523.26 78.9667 512.239 75.3587 501.495C69.1752 483.003 62.9917 464.555 56.8083 446.149L57.8105 445.465Z" fill="#406E8C"/>
<path d="M47.6601 466.102C51.3714 458.462 54.1437 450.388 55.9148 442.062C58.1587 468.913 56.2528 495.953 50.2659 522.206C48.7534 528.826 46.8401 535.613 42.7947 540.568C38.7493 545.524 31.9887 548.076 26.8682 544.729C21.7477 541.382 20.1443 534.115 20.2354 527.495C20.618 504.103 37.6195 486.406 47.6601 466.102Z" fill="#406E8C"/>
<path d="M61.3093 509.779C56.9724 552.31 64.2613 572.189 65.2636 581.213C67.3409 600.223 77.3086 621.618 93.3444 631.659C95.478 633.186 98.0222 634.012 100.633 634.026C106.428 633.637 109.981 626.759 109.234 620.915C108.487 615.072 104.879 610.097 101.453 605.345C92.0142 592.29 61.8559 550.221 61.2546 509.779" fill="#406E8C"/>
<path d="M30.3312 611.134C26.869 615.387 23.2974 621.212 17.9582 620.158C12.0542 619.011 10.3413 611.097 11.4528 605.105C14.6053 588.204 28.7823 576.147 39.2238 562.574C51.9992 545.958 59.7417 525.934 61.5098 504.935C61.5098 504.935 60.6351 519.433 60.2342 523.612C59.8333 527.791 53.5284 582.823 30.3312 611.134Z" fill="#406E8C"/>
<path d="M52.672 581.713C52.2529 616.847 67.25 642.385 82.5386 672.193C85.5635 678.111 88.716 684.232 89.0804 690.889C89.4449 697.546 86.1101 704.905 79.8234 706.884C72.0242 709.343 64.3343 702.686 59.7787 695.789C40.7545 667.016 44.8729 629.218 49.72 594.824" fill="#406E8C"/>
<path d="M39.1505 699.894C42.0036 714.618 49.0782 728.16 59.4866 738.819C71.7139 751.246 88.4603 759.733 96.4053 775.322C97.8296 777.601 98.3566 780.341 97.8813 782.996C96.2413 788.877 87.9865 788.914 82.2829 786.953C51.3048 776.321 35.8704 742.203 33.5015 709.01C32.8312 698.536 32.9896 688.023 33.9753 677.574L35.3967 667.108L39.1505 699.894Z" fill="#406E8C"/>
<path d="M37.2551 777.633C45.4747 792.546 56.7011 805.533 70.2013 815.745C80.2418 823.327 91.4303 829.281 101.015 837.436C110.6 845.591 118.728 856.667 119.584 869.334C119.967 874.882 118.582 880.984 114.117 884.128C107.575 888.603 98.774 884.276 92.5783 879.32C67.0669 858.775 51.8695 827.543 42.248 795.922" fill="#406E8C"/>
<path d="M37.9843 835.328C39.8066 843.224 40.335 854.264 32.6815 856.538C25.3926 858.683 19.9258 849.974 17.7574 842.651C-0.647271 746.715 31.898 697.028 31.898 697.028C31.898 697.028 20.2357 773.75 37.9843 835.328Z" fill="#406E8C"/>
<path d="M44.4902 613.333C44.4902 613.333 -21.1469 673.894 15.7534 723.822C21.2202 724.284 15.7535 681.291 44.4902 617.05" fill="#406E8C"/>
<path d="M222.068 771.272C237.812 790.023 260.226 806.592 285.555 805.852Z" fill="#406E8C"/>
<path d="M222.068 771.272C237.812 790.023 260.226 806.592 285.555 805.852" stroke="#487A9B" stroke-width="0.666262" stroke-linecap="round" stroke-linejoin="round"/>
<path d="M209.384 750.358C200.273 758.199 195.517 769.959 191.344 781.313C185.148 798.141 179.463 816.133 182.798 833.756C182.855 834.479 183.061 835.182 183.403 835.82C183.746 836.457 184.216 837.014 184.784 837.455C187.025 838.749 189.558 836.327 190.907 834.089C194.05 828.899 196.403 823.257 197.886 817.354C197.886 825.62 197.558 834.533 192.656 841.134C191.838 842.085 191.141 843.134 190.579 844.26C189.121 847.699 191.654 851.971 195.207 853.006C197.013 853.417 198.894 853.324 200.652 852.738C202.41 852.152 203.979 851.095 205.193 849.678C207.582 846.802 209.218 843.361 209.949 839.674C210.86 835.975 211.389 832.277 212.591 828.763C214.097 832.147 214.703 835.873 214.348 839.568C213.993 843.264 212.69 846.8 210.569 849.826C208.741 851.844 207.207 854.117 206.013 856.575C205.676 857.726 205.575 858.935 205.715 860.128C205.855 861.32 206.233 862.471 206.827 863.51C207.421 864.548 208.217 865.453 209.168 866.169C210.118 866.884 211.203 867.395 212.354 867.67C213.39 867.89 214.466 867.8 215.452 867.411C216.436 866.881 217.275 866.113 217.894 865.174C225.42 855.318 226.331 842.004 227.005 829.54C230.795 840.219 230.795 851.906 227.005 862.585C226.013 864.817 225.35 867.184 225.037 869.612C224.907 870.831 225.129 872.062 225.676 873.155C226.222 874.248 227.07 875.157 228.117 875.77C231.761 877.452 235.57 873.698 237.228 870.037C241.948 859.682 240.344 847.625 238.631 836.345C241.894 841.498 244.108 847.26 245.144 853.294C246.18 859.328 246.016 865.511 244.663 871.479C243.952 874.549 243.059 878.229 245.228 880.503C246.097 881.278 247.187 881.753 248.34 881.86C249.492 881.966 250.649 881.698 251.642 881.095C253.616 879.837 255.142 877.971 255.997 875.77C258.505 869.622 259.041 862.828 257.528 856.353C256.006 849.927 253.826 843.679 251.022 837.713C258.338 845.726 262.825 855.976 263.778 866.857C264.033 869.686 264.234 872.959 266.511 874.623C269.391 876.713 273.8 874.383 275.021 871.017C276.242 867.652 275.313 863.861 274.165 860.458C271.555 852.712 267.946 845.349 263.432 838.564C273.709 843.964 276.771 857.222 284.023 866.302C293.809 859.737 304.323 851.915 306.692 840.247C298.554 835.288 291.226 829.074 284.971 821.829C291.002 826.149 297.602 829.585 304.578 832.036C307.151 833.218 310.046 833.466 312.778 832.739C315.402 831.722 317.17 828.153 315.439 825.916C314.253 824.735 312.715 823.987 311.065 823.789C301.728 821.403 293.485 815.826 287.722 807.997L302.173 814.062C306.254 815.764 310.701 817.52 314.928 816.503C319.156 815.486 322.819 810.309 320.595 806.425C310.493 806.182 300.556 803.768 291.44 799.343C296.828 801.016 302.51 801.489 308.095 800.73C310.884 800.33 313.557 799.333 315.938 797.806C318.32 796.279 320.354 794.257 321.908 791.872C322.8 790.337 323.292 788.044 321.908 787.064C321.095 786.657 320.17 786.54 319.284 786.731C311.112 787.549 302.871 787.319 294.756 786.047C299.012 787.138 303.45 787.283 307.767 786.473C311.995 785.4 315.985 782.182 316.769 777.8C317.48 773.75 315.384 769.793 313.379 766.224C305.844 770.209 297.363 771.983 288.889 771.346C293.468 771.281 297.953 770.007 301.899 767.648C304.687 765.965 307.366 763.025 306.674 759.826C305.981 756.627 302.209 755.258 299.111 755.684C296.013 756.109 293.225 757.866 290.292 759.031C287.358 760.196 283.804 760.658 281.18 758.772C285.279 757.555 289.183 755.743 292.77 753.391C293.569 753.005 294.212 752.352 294.592 751.542C295.102 749.877 293.426 748.416 291.932 747.51C276.807 738.357 259.131 732.384 241.656 734.474C224.181 736.563 207.143 747.936 201.567 764.893" fill="#406E8C"/>
<path d="M209.02 751.967C201.308 758.564 195.71 767.345 192.942 777.187C190.173 787.029 190.359 797.486 193.477 807.22C196.629 816.466 202.478 825.157 201.986 834.958C204.905 835.281 207.856 834.791 210.521 833.541C213.187 832.291 215.466 830.327 217.115 827.861C218.763 825.396 219.719 822.521 219.879 819.546C220.039 816.57 219.397 813.607 218.022 810.974C222.505 818.371 221.484 827.857 219.844 836.437C219.407 838.823 219.152 841.8 221.12 843.187C223.088 844.574 226.24 842.928 227.808 840.801C233.274 833.405 231.288 823.068 228.281 814.395C230.307 819.043 231.634 823.974 232.217 829.022C232.892 834.736 232.691 840.857 235.552 845.831C235.785 846.337 236.167 846.757 236.645 847.033C237.611 847.477 238.705 846.756 239.452 845.997C243.552 841.855 244.645 835.365 243.661 829.558C242.376 823.806 240.192 818.3 237.192 813.248C241.24 819.602 244.347 826.524 246.413 833.793C246.837 835.859 247.647 837.824 248.8 839.581C249.4 840.438 250.253 841.078 251.236 841.411C252.218 841.743 253.28 841.75 254.267 841.43C257.328 840.062 256.891 835.531 255.797 832.332C253.314 825.139 250.064 818.244 246.103 811.769C250.543 821.026 257.943 828.482 267.095 832.924C268.965 833.976 271.081 834.494 273.218 834.422C274.285 834.358 275.302 833.942 276.114 833.238C276.927 832.534 277.49 831.579 277.719 830.52C277.753 829.034 277.333 827.574 276.516 826.341C270.918 815.967 263.342 806.828 254.23 799.454C260.881 807.35 268.352 815.43 278.284 817.945C279.961 818.492 281.764 818.492 283.441 817.945C284.27 817.658 284.969 817.078 285.411 816.311C285.852 815.543 286.007 814.64 285.846 813.766C285.445 812.342 284.024 811.492 282.748 810.752C274.091 805.75 266.089 799.662 258.932 792.63C265.42 798.588 273.286 802.786 281.801 804.835C286.174 805.87 291.969 805.593 293.609 801.358C293.858 800.765 293.965 800.121 293.92 799.478C293.876 798.835 293.682 798.212 293.354 797.66C292.749 797.009 292.02 796.488 291.213 796.129C290.405 795.77 289.534 795.58 288.652 795.57C279.875 794.218 271.392 791.341 263.578 787.064C268.863 790.004 274.384 793.037 280.397 793.277C286.411 793.518 293.044 790.06 294.374 784.031C294.848 781.849 294.228 779.039 292.133 778.354C291.022 778.124 289.87 778.2 288.798 778.576C280.5 780.471 271.819 779.548 264.088 775.95C267.353 777.708 270.861 778.955 274.493 779.649C276.312 779.969 278.177 779.898 279.966 779.439C281.756 778.98 283.43 778.144 284.88 776.986C288.998 773.288 289.363 767.019 289.418 761.453C284.406 762.766 279.414 759.604 275.113 756.737C267.532 751.321 259.287 746.932 250.586 743.682C241.808 740.445 232.256 740.057 223.252 742.573C215.679 745.128 209.029 749.918 204.155 756.331" fill="#406E8C"/>
<path d="M211.972 749.23C217.858 745.902 225.056 746.549 231.561 748.305C236.253 749.587 240.86 751.168 245.355 753.039C248.89 754.5 252.644 756.46 254.084 760.066C251.354 760.177 248.619 760.085 245.902 759.789C247.724 760.288 249.656 760.843 251.478 761.49C254.662 762.412 257.564 764.136 259.915 766.501C259.168 767.777 257.364 767.796 255.906 767.611L254.594 767.408C255.975 767.801 257.231 768.553 258.239 769.59C258.442 769.787 258.577 770.047 258.621 770.329C258.616 770.503 258.573 770.672 258.494 770.826C258.415 770.98 258.303 771.113 258.166 771.217C257.524 771.642 256.798 771.918 256.039 772.027C255.28 772.136 254.507 772.074 253.774 771.846L235.26 768.979C242.029 771.423 248.552 774.52 254.74 778.225C256.416 779.205 258.239 780.537 258.384 782.478C251.583 780.641 245.001 778.049 238.759 774.749C244.317 779.261 251.278 782.275 255.396 788.174C256.052 789.098 256.453 790.67 255.396 791.114C254.987 791.243 254.548 791.243 254.139 791.114C247.261 789.293 240.909 785.839 235.606 781.036C237.994 783.902 240.946 786.195 243.57 788.84C246.344 791.336 248.302 794.633 249.182 798.289C248.271 798.807 247.141 798.289 246.266 797.697C239.701 793.477 234.068 787.924 229.72 781.387C233.548 787.389 236.899 793.69 239.743 800.231C240.326 801.562 240.672 803.522 239.36 804.132C239.001 804.252 238.619 804.284 238.246 804.227C237.872 804.169 237.517 804.022 237.21 803.799C234.941 802.33 233.064 800.317 231.743 797.937C228.9 793.428 226.461 788.669 224.454 783.717C226.748 789.539 228.511 795.562 229.72 801.71C229.901 802.298 229.933 802.922 229.815 803.526C229.698 804.129 229.433 804.694 229.046 805.168C226.716 802.375 224.924 799.164 223.762 795.7C221.976 791.225 220.257 786.725 218.605 782.201L221.12 800.859C221.375 802.708 221.411 805.075 219.771 806C215.502 798.179 212.395 789.76 210.551 781.017C210.854 787.058 211.17 793.093 211.498 799.121C211.498 800.009 211.316 801.229 210.441 801.266C210.064 801.243 209.71 801.07 209.457 800.785C207.827 799.077 206.692 796.947 206.177 794.628C204.868 790.372 203.953 786.001 203.444 781.572L203.17 782.423C199.799 761.897 207.434 751.782 211.972 749.23Z" fill="#406E8C"/>
<path d="M208.637 755.776C204.865 760.547 204.756 767.796 207.18 773.381C208.384 776.193 210.42 778.556 213.005 780.142C215.591 781.729 218.598 782.462 221.612 782.238C224.225 781.852 226.691 780.767 228.755 779.095C230.589 777.736 232.055 775.929 233.019 773.843C233.789 771.782 234.037 769.557 233.741 767.374C233.445 765.19 232.614 763.116 231.324 761.342C228.707 757.806 225.165 755.083 221.102 753.483C218.712 752.269 216.039 751.744 213.375 751.967C213.375 751.967 211.79 751.801 208.637 755.776Z" fill="#406E8C"/>
<path d="M381.806 638.446C376.904 626.074 367.865 617.79 357.77 609.21C345.67 598.892 334.464 587.186 326.664 573.225C318.865 559.264 314.674 542.88 317.043 526.995C330.309 526.2 343.283 532.654 352.905 541.955C362.554 551.37 370.087 562.786 374.99 575.425C383.846 598.059 384.102 638.427 384.102 638.427L381.806 638.446Z" fill="#406E8C"/>
<path d="M434.487 758.605C424.41 747.898 418.87 733.586 415.317 719.218C405.46 678.816 409.537 636.207 426.87 598.485C427.799 596.487 429.402 594.176 431.534 594.62C432.992 594.934 433.83 596.469 434.468 597.819C447.224 625.464 446.368 657.843 438.915 687.375C436.673 696.288 434.833 705.293 432.354 714.132C429.402 724.747 425.886 747.122 438.423 761.508" fill="#406E8C"/>
<path d="M395.181 690.833C384.958 665.259 356.203 639.37 340.295 628.072C323.239 615.959 301.19 613.962 280.598 610.93C299.641 654.275 342.554 685.859 389.003 690.833H395.181Z" fill="#406E8C"/>
<path d="M485.904 817.713C476.384 797.666 473.336 775.083 477.194 753.176C479.708 739.03 485.084 725.531 487.635 711.385C490.186 697.238 489.457 681.557 481.112 670C468.549 685.347 460.257 703.824 457.094 723.515C455.833 730.552 455.66 737.746 456.584 744.836C457.823 753.084 461.049 760.85 464.31 768.506C471.126 784.532 478.105 800.503 485.248 816.418" fill="#406E8C"/>
<path d="M530.904 899.713C521.384 879.666 518.336 857.083 522.194 835.176C524.708 821.03 530.084 807.531 532.635 793.385C535.186 779.238 534.457 763.557 526.112 752C513.549 767.347 505.257 785.824 502.094 805.515C500.833 812.552 500.66 819.746 501.584 826.836C502.823 835.084 506.049 842.85 509.31 850.506C516.126 866.532 523.105 882.503 530.248 898.418" fill="#406E8C"/>
<path d="M309.335 701.836C339.238 701.688 367.1 716.999 391.536 734.511C415.535 751.708 438.076 771.605 464.754 784.032C403.472 788.433 340.732 755.536 309.335 701.836Z" fill="#406E8C"/>
<path d="M423 812.001C452.903 811.853 480.765 827.164 505.201 844.676C529.2 861.874 551.741 881.771 578.419 894.197C517.137 898.598 454.397 865.701 423 812.001Z" fill="#406E8C"/>
<path d="M305.49 560.558C238.067 559.448 185.951 620.028 188.867 686.931C189.763 705.737 194.445 724.157 202.625 741.057" fill="#406E8C"/>
<path d="M305.49 560.558C238.067 559.448 185.951 620.028 188.867 686.931C189.763 705.737 194.445 724.157 202.625 741.057" stroke="#487A9B" stroke-width="0.666262" stroke-miterlimit="10"/>
<path d="M259.022 692.109C261.9 693.133 265.045 693.067 267.878 691.924C269.263 691.311 270.381 690.207 271.021 688.818C271.662 687.429 271.782 685.851 271.359 684.379C270.811 683.237 270.043 682.218 269.099 681.384C255.269 667.607 238.121 655.939 230.45 637.91C226.756 628.91 225.641 619.034 227.233 609.42C228.826 599.805 233.061 590.842 239.452 583.562L244.208 578.273L235.096 584.764C235.096 584.764 206.761 619.751 236.481 675.744C242.932 687.763 259.022 692.109 259.022 692.109Z" fill="#406E8C"/>
<path d="M188.721 666.202C178.589 668.661 165.724 738.449 143.42 767.907C134.545 779.649 123.503 791.04 121.662 805.722C121.169 808.405 121.506 811.176 122.628 813.655C123.752 815.409 125.363 816.785 127.257 817.611C129.15 818.437 131.243 818.676 133.27 818.297C137.336 817.469 141.111 815.554 144.203 812.749C162.845 797.531 171.391 772.918 175.637 749.027C179.883 725.135 180.776 700.486 188.283 677.445" fill="#406E8C"/>
<path d="M174.47 629.311C170.658 630.462 166.711 631.084 162.735 631.16C156.043 631.672 149.329 630.537 143.164 627.85C140.079 626.488 137.341 624.432 135.156 621.836C132.972 619.241 131.398 616.175 130.554 612.871C129.169 606.251 132.194 598.577 138.262 595.766C144.767 592.752 152.275 595.655 159.054 597.93C180.119 604.957 204.427 605.216 223.324 593.473L226.805 591.976L220.627 598.355C220.627 598.355 200.109 619.658 174.47 629.311Z" fill="#406E8C"/>
<path d="M124.505 681.014C130.063 681.402 133.452 687.449 134.618 692.959C135.312 695.722 135.418 698.603 134.928 701.41C133.252 709.528 123.338 714.502 115.831 711.266C108.323 708.03 104.897 697.749 108.542 690.371C110.562 686.738 113.834 683.99 117.729 682.656C121.623 681.321 125.866 681.494 129.643 683.14" fill="#406E8C"/>
<path d="M375.263 838.471C375.868 838.557 376.481 838.557 377.085 838.471C380.584 837.861 384.156 833.09 384.156 833.09C387.545 828.06 390.862 822.476 390.679 816.448C390.371 812.504 389.12 808.695 387.035 805.352C385.782 802.775 383.9 800.566 381.568 798.936C379.992 798.004 378.23 797.441 376.411 797.29C374.134 797.038 371.83 797.254 369.637 797.925C367.444 798.596 365.406 799.709 363.646 801.197C361.886 802.684 360.439 804.516 359.392 806.584C358.345 808.651 357.719 810.912 357.551 813.23C373.878 815.911 375.409 831.537 375.263 838.471Z" fill="#406E8C"/>
<path d="M389.312 848.938C393.636 849.137 397.941 848.254 401.849 846.367C403.525 845.525 405.139 844.56 406.678 843.483C408.478 842.407 410.016 840.934 411.179 839.174C412.264 836.805 412.758 834.201 412.619 831.592C412.849 828.88 412.558 826.148 411.762 823.548C409.179 818.552 404.957 814.628 399.827 812.453C398.591 812.025 397.266 811.937 395.986 812.197C394.706 812.456 393.516 813.055 392.538 813.933C392.538 813.933 393.759 827.339 383.827 835.531C373.896 843.723 389.312 848.938 389.312 848.938Z" fill="#406E8C"/>
<path d="M341.442 851.527C336.923 856.982 333.406 839.211 335.228 832.332C336.676 827.836 339.12 823.737 342.371 820.349C344.941 817.391 348.093 814.413 351.993 814.247C353.552 814.121 355.119 814.368 356.567 814.968C359.391 816.281 370.634 819.832 373.222 836.474C375.81 853.117 357.806 831.74 341.442 851.527Z" fill="#406E8C"/>
<path d="M361.98 850.603C360.157 845.702 362.49 840.044 366.28 836.53C367.846 835.028 369.698 833.867 371.722 833.116C373.747 832.366 375.9 832.043 378.052 832.166C380.206 832.337 382.276 833.093 384.043 834.355C385.809 835.618 387.208 837.34 388.092 839.341C388.805 841.297 389.06 843.393 388.839 845.466C388.617 847.539 387.925 849.531 386.817 851.287C383.391 856.927 380.785 860.108 371.747 858.776C362.709 857.445 361.98 850.603 361.98 850.603Z" fill="#406E8C"/>
<path d="M252.956 442.008C253.117 433.137 251.067 424.368 246.996 416.515C242.924 408.663 236.964 401.982 229.668 397.092C225.422 394.318 219.627 392.247 215.564 395.243C211.208 398.516 211.919 405.746 215.564 409.925C219.208 414.104 224.329 416.249 229.085 418.894C238.998 424.4 247.202 432.603 252.774 442.582" fill="#406E8C"/>
<path d="M502.952 610.622C503.775 604.536 505.844 598.692 509.027 593.466C512.209 588.24 516.434 583.747 521.429 580.277C521.544 580.176 521.677 580.1 521.821 580.052C521.965 580.004 522.117 579.987 522.268 580" fill="#406E8C"/>
<path d="M502.952 610.622C503.775 604.536 505.844 598.692 509.027 593.466C512.209 588.24 516.434 583.747 521.429 580.277C521.544 580.176 521.677 580.1 521.821 580.052C521.965 580.004 522.117 579.987 522.268 580" stroke="#487A9B" stroke-width="0.666262" stroke-linecap="round" stroke-linejoin="round"/>
<path d="M507.708 610.252L534.477 583.716L534.167 584.696" fill="#406E8C"/>
<path d="M507.708 610.252L534.477 583.716L534.167 584.696" stroke="#487A9B" stroke-width="0.666262" stroke-linecap="round" stroke-linejoin="round"/>
<path d="M506.45 613.673C519.545 611.705 531.714 605.657 541.273 596.365Z" fill="#406E8C"/>
<path d="M506.45 613.673C519.545 611.705 531.714 605.657 541.273 596.365" stroke="#487A9B" stroke-width="0.666262" stroke-linecap="round" stroke-linejoin="round"/>
<path d="M544.316 591.317L543.059 590.762L541.656 590.577C542.365 590.541 543.07 590.7 543.697 591.039C544.351 591.256 544.94 591.638 545.409 592.149C545.912 592.618 546.289 593.21 546.503 593.869C546.835 594.505 546.992 595.22 546.958 595.94L546.776 597.382C546.529 598.277 546.058 599.093 545.409 599.749L544.334 600.581C543.526 601.074 542.599 601.33 541.656 601.321L540.945 601.228C540.7 601.205 540.457 601.168 540.216 601.117C539.773 600.963 539.34 600.777 538.922 600.563C538.315 600.238 537.8 599.761 537.428 599.176C536.963 598.651 536.637 598.015 536.48 597.327C536.167 595.924 536.361 594.454 537.027 593.184L537.847 592.093C538.495 591.44 539.299 590.969 540.18 590.725L541.601 590.521C542.535 590.533 543.451 590.788 544.261 591.261L544.316 591.317Z" fill="#406E8C"/>
<path d="M536.717 576.69L531.633 578.039C531.942 577.697 532.305 577.409 532.708 577.189L533.984 576.653C534.447 576.556 534.916 576.488 535.387 576.449C536.329 576.451 537.253 576.706 538.066 577.189C538.864 577.663 539.526 578.341 539.987 579.155C540.447 579.969 540.689 580.892 540.69 581.83C540.715 582.549 540.558 583.262 540.234 583.901C540.02 584.56 539.644 585.152 539.141 585.621C538.485 586.277 537.676 586.754 536.79 587.008C535.872 587.267 534.902 587.267 533.984 587.008C533.102 586.757 532.298 586.279 531.651 585.621C531.496 585.455 531.356 585.276 531.232 585.085C530.764 584.562 530.437 583.925 530.285 583.236C530.16 582.765 530.093 582.281 530.084 581.793C530.088 580.852 530.333 579.928 530.795 579.112C531.241 578.352 531.868 577.716 532.617 577.263C533.016 577.039 533.438 576.859 533.874 576.727C534.78 576.467 535.739 576.467 536.644 576.727L536.717 576.69Z" fill="#406E8C"/>
<path d="M521.83 582.977C521.121 583.011 520.416 582.852 519.789 582.515C519.14 582.297 518.556 581.915 518.094 581.405C517.577 580.948 517.198 580.352 517.001 579.685C516.668 579.049 516.511 578.334 516.545 577.614L516.727 576.19C516.978 575.291 517.448 574.471 518.094 573.805L519.151 572.973C519.968 572.501 520.889 572.247 521.83 572.233C522.538 572.207 523.24 572.367 523.87 572.695C524.519 572.913 525.103 573.295 525.565 573.805C526.077 574.274 526.454 574.875 526.658 575.543C527 576.176 527.158 576.894 527.114 577.614L526.932 579.038C526.685 579.933 526.214 580.749 525.565 581.405L524.508 582.237C523.698 582.726 522.772 582.982 521.83 582.977Z" fill="#406E8C"/>
<path d="M138.609 661.986C138.609 664.18 139.25 666.325 140.451 668.15C141.653 669.974 143.36 671.396 145.358 672.236C147.356 673.076 149.554 673.296 151.675 672.868C153.796 672.439 155.744 671.383 157.273 669.831C158.802 668.279 159.844 666.302 160.265 664.15C160.687 661.998 160.471 659.767 159.643 657.74C158.816 655.712 157.414 653.98 155.616 652.761C153.818 651.541 151.705 650.891 149.542 650.891C146.642 650.891 143.861 652.06 141.811 654.14C139.761 656.221 138.609 659.043 138.609 661.986Z" fill="#406E8C"/>
<path d="M281.709 562.796C281.709 562.796 255.833 582.046 271.705 614.111C287.577 646.176 279.377 663.317 263.268 650.872C247.159 638.427 231.816 580.825 281.709 562.796Z" fill="#406E8C"/>
<path d="M198.287 635.894C215.507 713.929 291.531 704.11 297.89 717.35C304.25 730.59 185.258 751.689 198.086 635.986L198.287 635.894Z" fill="#406E8C"/>
<path d="M30.4822 371.35C55.8407 414.239 56.3648 467.798 48.977 517.292C41.5893 566.786 26.9998 615.302 24.8697 665.31C22.7396 715.319 35.1482 769.359 72.459 802.109" stroke="#487A9B" stroke-width="0.618117" stroke-miterlimit="10"/>
<path d="M279.782 412.423C260.882 394.316 248.905 370.007 245.971 343.8C245.909 342.165 245.517 340.559 244.821 339.082C242.539 335.085 236.132 335.651 233.089 339.168C230.046 342.685 229.522 347.592 229.285 352.206C228.592 366.137 230.097 381.731 240.324 391.047C244.312 394.323 248.741 397.004 253.477 399.007L277.804 410.656" fill="#406E8C"/>
<path d="M223.168 372.225C216.997 362.652 215.611 350.678 216 339.252C216.389 327.826 218.367 316.452 218.248 304.941C218.412 302.748 217.942 300.554 216.896 298.628C214.343 294.802 208.19 295.385 204.927 298.628C201.664 301.87 200.514 306.605 199.568 311.117C196.964 323.4 194.648 336.164 197.336 348.413C200.024 360.662 209.001 372.431 221.224 374.232" fill="#406E8C"/>
<path d="M79.3726 0.720703C61.6724 15.972 54.0141 40.007 49.6525 63.1498C34.4374 142.837 56.0766 261.794 96.4473 328.083" stroke="#487A9B" stroke-width="0.618117" stroke-miterlimit="10"/>
<path d="M59.8978 222.61C58.2072 223.983 59.0526 226.831 60.1514 228.804C70.802 247.812 84.2588 265.431 101.131 279.018C118.003 292.605 138.475 302.023 159.945 303.876C165.609 304.374 173.47 302.264 172.946 296.517C172.692 293.514 170.038 291.37 167.435 289.86C159.202 285.16 149.616 283.718 140.386 281.385C107.293 272.825 78.383 252.375 59.0187 223.828" fill="#406E8C"/>
<path d="M51.8508 220.809C50.7688 248.121 49.5009 276.222 38.3263 301.114C35.148 308.251 31.1921 315.01 27.811 322.044C27.0397 323.362 26.6419 324.87 26.6614 326.402C27.0165 329.678 30.9217 331.325 34.1675 331.154C40.8284 330.811 46.4917 326.007 50.3631 320.432C62.7887 302.693 61.0644 278.881 58.8159 257.248C57.3507 243.18 55.8856 229.112 54.4205 215.045" fill="#406E8C"/>
<path d="M46.7786 183.994C33.7736 206.275 25.6978 231.159 23.1107 256.922C22.9417 258.637 22.9079 260.833 24.2941 261.966C26.6947 263.921 29.9406 260.885 31.4621 258.174C43.6974 236.146 49.3374 210.975 47.6916 185.743C53.9724 204.899 67.0075 221.023 84.2922 231.017C92.221 235.546 102.043 238.668 110.293 234.757C111.037 228.941 108.349 223.091 104.427 218.785C100.282 214.693 95.5794 211.226 90.4628 208.492L46.5082 182.244" fill="#406E8C"/>
<path d="M39.357 131.823C30.9727 146.476 24.7474 162.295 20.8792 178.778C20.0805 181.233 19.9751 183.866 20.5749 186.378C21.3695 188.814 23.956 190.821 26.3905 189.998C27.477 189.522 28.4213 188.765 29.1292 187.802C35.8914 179.636 38.5287 168.674 39.6445 158.037C40.7603 147.401 40.642 136.593 43.0256 126.162C43.6642 139.828 48.4797 152.953 56.8037 163.716C65.2565 174.215 78.0372 181.42 91.4096 181.832C93.4552 181.832 95.9064 181.575 96.8362 179.722C97.766 177.869 96.6841 175.759 95.4669 174.146C90.8009 168.005 83.8358 164.213 77.4117 160.01C64.8245 151.751 53.7353 141.351 44.6316 129.267" fill="#406E8C"/>
<path d="M44.8852 76.7712C40.4483 78.7214 36.5819 81.7999 33.6598 85.7092C29.315 91.2358 26.2621 97.6904 24.7306 104.587C23.1991 111.484 23.2291 118.644 24.8182 125.527C27.2019 126.128 29.0446 123.451 30.0589 121.17C33.8842 112.412 36.8678 103.3 38.9682 93.9611C40.4897 87.2189 41.6393 80.0994 45.7305 74.5581C48.3277 90.0963 53.8062 104.993 61.8753 118.459C66.8118 126.66 73.1345 134.637 81.9592 138.102C82.9762 138.625 84.0939 138.914 85.2333 138.95C86.3726 138.985 87.5058 138.766 88.5525 138.308C90.8517 136.97 91.5278 133.848 91.2573 131.171C90.5642 124.309 85.5771 118.854 80.8604 113.913C69.3308 101.87 57.8068 89.8609 46.2884 77.8863" fill="#406E8C"/>
<path d="M57.1251 30.125C49.6088 33.9323 43.0123 39.3746 37.8052 46.0642C32.5981 52.7538 28.9085 60.5263 26.9993 68.828C33.6094 69.9088 38.5965 63.1323 41.91 57.2308C47.0606 48.0812 52.2112 38.9316 57.3618 29.7819C57.5372 39.4599 59.8341 48.9769 64.0859 57.6417C68.3377 66.3066 74.4375 73.9019 81.9426 79.8762C84.1741 81.5917 87.5553 83.1701 89.5501 81.1628C90.0614 80.492 90.4243 79.7172 90.614 78.8912C90.8036 78.0653 90.8155 77.2075 90.649 76.3765C89.0937 57.5053 74.8084 42.5457 61.3685 29.353" fill="#406E8C"/>
<path d="M94.47 0.343262C89.6993 12.1364 89.4114 25.3066 93.6621 37.3028C97.9129 49.299 106.4 59.2674 117.479 65.2771C120.964 67.4217 124.984 68.5055 129.059 68.3994C133.099 68.0563 137.157 65.4486 138.171 61.5372C139.473 56.3905 135.601 51.5012 131.578 48.1387C123.717 41.5338 114.317 36.9876 106.456 30.3655C98.5949 23.7435 92.1369 13.8104 93.4556 3.51704C93.6246 2.16175 94.7742 0.446195 95.89 1.20104" fill="#406E8C"/>
<path d="M47.5052 0.257334C39.8174 0.170387 32.1997 1.74731 25.1597 4.88301C18.1197 8.01871 11.8192 12.6412 6.6781 18.4422C3.3815 22.1993 0.507469 26.6769 0.0510167 31.6863C-0.405436 36.6958 2.19803 42.2542 6.9147 43.8153C7.57898 44.0458 8.27526 44.1674 8.97724 44.1756C12.3584 44.1756 14.8774 41.019 16.8384 38.1711L34.1159 13.0725C38.0549 7.34258 42.7378 1.06365 49.5508 0" fill="#406E8C"/>
<path d="M112.051 107.119C111.02 107.186 109.992 106.947 109.092 106.432C108.192 105.918 107.458 105.149 106.979 104.22C106.073 102.359 105.528 100.338 105.373 98.2671C105.052 95.8654 104.798 93.1205 106.269 91.2505C107.223 90.1183 108.529 89.3498 109.971 89.0717C114.384 87.9566 118.982 89.5521 123.141 91.4049C124.603 91.922 125.907 92.8145 126.928 93.9954C127.662 95.0881 128.056 96.3787 128.061 97.701C128.061 100.289 127.334 102.824 125.966 105.009C124.598 107.194 122.644 108.937 120.335 110.036C119.09 110.702 117.717 111.083 116.311 111.151C114.482 111.104 112.739 110.353 111.436 109.05C110.133 107.747 109.368 105.989 109.295 104.134" fill="#406E8C"/>
<path d="M71.6299 407.016C71.9581 413.902 74.1262 420.568 77.9019 426.299C79.8065 429.141 82.3129 431.516 85.2377 433.249C88.1626 434.982 91.4322 436.031 94.8075 436.318C98.0703 436.455 101.722 435.477 103.396 432.629C105.069 429.781 104.241 426.144 103.396 422.936C94.0805 376.616 107.132 369.188 115.229 366.083C123.327 362.978 146.387 372.413 153.2 375.364C159.252 378.006 163.495 383.856 167.062 389.5C167.92 391.318 169.322 392.813 171.069 393.772C172.088 394.077 173.172 394.077 174.192 393.773C175.211 393.468 176.122 392.873 176.817 392.056C178.173 390.385 179.066 388.378 179.403 386.24C182.058 373.751 176.665 360.216 167.045 351.929C157.426 343.643 144.087 343.935 131.645 342.013C94.8751 336.335 70.886 383.753 71.6299 407.016Z" fill="#406E8C"/>
<path d="M56.7701 393.652C56.4489 395.848 56.6348 398.798 58.6973 399.416C60.3878 399.965 62.0784 398.661 63.228 397.409C73.3714 386.875 78.646 372.293 89.1444 362.154V361.159L89.6008 360.919C89.6008 360.919 97.445 354.64 95.2473 350.626C94.7699 349.553 93.897 348.713 92.8158 348.286C91.7347 347.859 90.5318 347.88 89.4656 348.344C80.8474 352.699 73.3821 359.085 67.6939 366.967C62.0057 374.85 58.26 384 56.7701 393.652Z" fill="#406E8C"/>
<path d="M85.0535 340.452C79.5315 340.084 73.999 340.986 68.8678 343.089C63.7367 345.192 59.1392 348.442 55.4178 352.598C53.7586 354.41 52.3483 356.442 51.2253 358.637C49.7109 361.771 49.068 365.265 49.3657 368.742C49.3302 369.581 49.5189 370.415 49.9116 371.155C50.3044 371.895 50.8868 372.513 51.5972 372.945C52.3476 373.113 53.1266 373.099 53.8702 372.902C54.6138 372.705 55.3007 372.332 55.8743 371.813C77.615 351.603 89.2122 349.116 90.514 347.143C91.8157 345.17 90.6154 340.812 85.0535 340.452Z" fill="#406E8C"/>
<path d="M56.9384 341.293C56.11 340.538 55.2478 340.195 55.1126 339.2C55.0245 338.193 55.2555 337.183 55.7719 336.318C56.7141 334.532 58.1629 333.074 59.9308 332.132C60.8395 331.668 61.7907 331.294 62.7709 331.017C70.5813 328.632 78.9496 329.301 86.8445 331.36C90.3745 332.762 93.8231 334.365 97.1738 336.164L91.3752 340.23C76.5997 335.941 61.6551 344.484 56.9384 341.293Z" fill="#406E8C"/>
<path d="M173.013 335.1C174.889 336.232 176.952 338.205 176.174 340.247C175.549 341.962 173.503 342.374 171.779 342.528C157.341 343.763 142.853 338.685 128.483 340.487L127.706 339.869L127.249 340.075C127.249 340.075 117.478 342.237 115.838 337.982C115.322 336.927 115.235 335.708 115.595 334.589C115.956 333.469 116.735 332.537 117.765 331.995C126.549 327.998 136.149 326.195 145.761 326.735C155.373 327.275 164.717 330.144 173.013 335.1Z" fill="#406E8C"/>
<path d="M114.536 323.52C117.765 318.958 121.963 315.192 126.821 312.501C131.68 309.81 137.072 308.264 142.6 307.977C145.03 307.832 147.469 308.017 149.852 308.526C153.206 309.327 156.28 311.041 158.744 313.484C159.392 313.999 159.891 314.683 160.188 315.461C160.486 316.24 160.571 317.086 160.435 317.91C160.087 318.606 159.581 319.207 158.957 319.664C158.334 320.121 157.611 320.419 156.851 320.535C127.689 324.772 118.425 332.269 116.092 332.046C113.759 331.823 111.29 328.1 114.536 323.52Z" fill="#406E8C"/>
<path d="M133.031 302.024C133.031 300.892 133.268 300 132.592 299.262C131.875 298.559 130.958 298.103 129.971 297.958C128.012 297.562 125.98 297.771 124.139 298.559C123.21 298.973 122.326 299.485 121.502 300.085C114.739 304.7 109.955 311.7 106.489 319.18C105.307 322.836 104.336 326.559 103.582 330.331L110.344 328.358C116.481 314.033 132.473 307.737 133.031 302.024Z" fill="#406E8C"/>
<path d="M87.4877 365.74L105.306 346.731C106.021 345.863 106.894 345.141 107.876 344.604C109.154 344.143 110.514 343.962 111.866 344.072C118.532 344.076 125.145 342.868 131.392 340.504C128.689 336.838 125.431 333.63 121.739 331C114.892 326.127 105.644 323.434 98.1721 327.191C92.9651 329.816 89.5333 335.083 87.1834 340.47C83.8023 348.052 82.2639 357.162 86.1522 364.487" fill="#406E8C"/>
<path d="M101.283 358.38C98.7756 365.466 96.969 372.787 95.8897 380.236C94.8193 387.734 95.9974 395.386 99.2709 402.195C102.209 407.536 106.552 411.943 111.815 414.925C119.311 419.481 128.258 420.902 136.768 418.888C140.97 417.824 144.847 415.721 148.054 412.766C151.26 409.811 153.696 406.097 155.144 401.955C156.408 397.499 156.736 392.823 156.108 388.231C155.613 381.052 152.958 374.201 148.5 368.605C134.976 354.88 111.663 345.513 107.318 346.697C102.973 347.881 101.283 358.38 101.283 358.38Z" fill="#406E8C"/>
<path d="M96.447 328.083C95.7744 331.472 95.4291 334.919 95.4158 338.376C95.1836 342.596 96.102 346.798 98.07 350.522C101.181 355.669 107.081 358.38 112.609 360.816C114.401 353.954 114.621 346.182 110.715 340.229C108.935 337.764 106.777 335.604 104.325 333.83C102.077 331.923 99.5795 330.341 96.9035 329.129" fill="#406E8C"/>
<path d="M514.536 602.812C513.982 605.726 513.16 608.579 512.082 611.331C510.932 614.731 508.915 617.743 506.251 620.037C502.239 623.103 496.93 623.267 491.985 623.315C492.722 617.345 495.046 611.136 499.862 607.804C501.989 606.448 504.304 605.451 506.723 604.85C509.048 604.088 511.461 603.667 513.892 603.599" fill="#406E8C"/>
</svg>
