<svg width="360" height="262" viewBox="0 0 360 262" fill="none" xmlns="http://www.w3.org/2000/svg">
<path d="M165.9 173.133C156.748 179.042 153.494 191.14 153.321 202.168C153.187 210.915 154.651 220.038 159.667 227.142C166.471 236.811 176.836 239.131 186.822 243.727C197.881 248.846 208.688 251.195 220.999 248.846" stroke="#E0D8C7" stroke-linecap="round" stroke-linejoin="round"/>
<path d="M142.72 218.22C139.71 214.938 138.058 210.559 136.998 206.162C134.065 193.801 135.28 180.767 140.443 169.225C140.72 168.614 141.198 167.901 141.834 168.042C142.269 168.133 142.524 168.608 142.709 169.021C146.512 177.475 146.257 187.382 144.04 196.424C143.366 199.152 142.818 201.902 142.084 204.612C141.198 207.86 140.15 214.706 143.888 219.108" fill="#E0D8C7"/>
<path d="M163.53 169.301C163.617 168.16 163.827 167.029 164.157 165.924C164.483 164.567 165.218 163.317 166.28 162.309C167.903 160.941 170.265 160.62 172.47 160.362C172.47 162.681 171.775 165.169 169.808 166.678C168.933 167.3 167.954 167.794 166.907 168.142C165.91 168.546 164.856 168.825 163.775 168.969" fill="#E0D8C7"/>
<path d="M31.9928 117.279C32.1067 119.6 32.8467 121.848 34.1341 123.782C34.7837 124.739 35.6394 125.539 36.6382 126.122C37.637 126.706 38.7535 127.057 39.9058 127.152C41.0197 127.204 42.2664 126.868 42.8436 125.909C43.4207 124.949 43.1264 123.724 42.8436 122.649C39.6634 107.042 44.1191 104.533 46.8837 103.493C49.6484 102.453 57.521 105.62 59.8469 106.62C61.919 107.505 63.3677 109.51 64.5797 111.377C64.8721 111.991 65.3509 112.497 65.9476 112.822C66.2955 112.926 66.6659 112.926 67.0141 112.824C67.3623 112.721 67.6734 112.52 67.91 112.244C68.3763 111.681 68.6815 111.002 68.7931 110.279C69.6992 106.071 67.858 101.516 64.574 98.7186C61.2899 95.9209 56.736 96.0307 52.488 95.3834C39.9289 93.4932 31.7446 109.441 31.9928 117.279Z" fill="#E0D8C7"/>
<path d="M28.198 113.623C28.0928 114.379 28.1537 115.372 28.8351 115.616C29.3891 115.812 29.9153 115.36 30.3142 114.92C33.6381 111.274 35.372 106.212 38.8067 102.703V102.358L38.9507 102.275C38.9507 102.275 41.5212 100.092 40.801 98.7064C40.6466 98.3353 40.3633 98.0436 40.0114 97.8936C39.6595 97.7436 39.267 97.7471 38.9175 97.9035C36.0921 99.4153 33.6448 101.631 31.7799 104.366C29.9151 107.101 28.6869 110.275 28.198 113.623Z" fill="#E0D8C7"/>
<path d="M37.646 95.2534C35.7864 95.1411 33.9237 95.4242 32.1958 96.0816C30.4679 96.7391 28.9191 97.7541 27.6638 99.0517C27.1065 99.6164 26.6333 100.25 26.2573 100.935C25.7438 101.914 25.5252 103.007 25.6252 104.095C25.6138 104.358 25.6782 104.619 25.8115 104.85C25.9449 105.082 26.1422 105.275 26.3825 105.409C26.6343 105.463 26.8961 105.458 27.1458 105.397C27.3956 105.335 27.6259 105.218 27.8175 105.055C35.1405 98.7405 39.0469 97.9573 39.4853 97.3403C39.9238 96.7234 39.5423 95.3661 37.646 95.2534Z" fill="#E0D8C7"/>
<path d="M27.5565 95.0054C27.2548 94.7694 26.9408 94.6645 26.8854 94.3603C26.8564 94.0518 26.9426 93.7434 27.1317 93.4792C27.4778 92.935 28.0047 92.4899 28.6464 92.1994C28.9765 92.0598 29.3206 91.9457 29.6747 91.8585C32.5195 91.1348 35.5674 91.334 38.443 91.9687C39.7303 92.3938 40.9866 92.8842 42.2052 93.4372L40.0932 94.675C34.6869 93.369 29.2745 95.9809 27.5565 95.0054Z" fill="#E0D8C7"/>
<path d="M66.6303 93.4791C67.2592 93.9355 67.9504 94.712 67.6898 95.5226C67.4801 96.2038 66.7946 96.3672 66.2167 96.4285C61.3839 96.919 56.5228 94.9027 51.707 95.6179L51.452 95.3727L51.2934 95.4545C51.2934 95.4545 48.0187 96.3127 47.4691 94.6235C47.2947 94.2048 47.2647 93.7203 47.3856 93.2752C47.5065 92.8301 47.7686 92.4604 48.115 92.2463C51.0589 90.6596 54.276 89.9435 57.4972 90.158C60.7185 90.3725 63.8502 91.5113 66.6303 93.4791Z" fill="#E0D8C7"/>
<path d="M47.8114 89.9686C48.8495 88.518 50.2012 87.3204 51.7657 86.4652C53.3302 85.6099 55.0673 85.1189 56.8477 85.0287C57.6309 84.98 58.4171 85.0387 59.1844 85.2032C60.2636 85.458 61.2536 86.0007 62.0494 86.7735C62.2621 86.935 62.4275 87.1508 62.5281 87.3984C62.6287 87.6459 62.6609 87.9159 62.6214 88.1802C62.5099 88.4007 62.3474 88.5915 62.1476 88.7365C61.9477 88.8816 61.7161 88.9769 61.4721 89.0144C52.0708 90.3612 49.086 92.7494 48.3343 92.673C47.5826 92.5967 46.7602 91.4244 47.8114 89.9686Z" fill="#E0D8C7"/>
<path d="M53.6854 82.6883C53.6854 82.2889 53.7674 81.9681 53.5331 81.7078C53.2847 81.4599 52.9671 81.2989 52.6253 81.2478C51.9458 81.11 51.2419 81.1859 50.6046 81.4657C50.2846 81.6135 49.9787 81.7918 49.6909 81.9983C47.3481 83.6264 45.6905 86.0958 44.4898 88.7407C44.0796 90.0305 43.7432 91.3442 43.4824 92.6748L45.8252 91.9788C47.9513 86.925 53.4921 84.7159 53.6854 82.6883Z" fill="#E0D8C7"/>
<path d="M38.2754 102.892L44.0104 96.8701C44.2407 96.5946 44.522 96.3658 44.839 96.1962C45.2511 96.0501 45.6896 95.9927 46.1255 96.0277C48.275 96.0263 50.4071 95.6435 52.422 94.8973C51.5523 93.733 50.5014 92.7147 49.3092 91.8811C47.1286 90.3431 44.1194 89.4899 41.7098 90.6801C40.0308 91.5116 38.9241 93.1746 38.1664 94.881C37.0761 97.2831 36.5855 100.174 37.8338 102.489" fill="#E0D8C7"/>
<path d="M42.8725 100.415C42.0272 102.763 41.4193 105.191 41.0581 107.662C40.6981 110.146 41.0933 112.682 42.1921 114.938C43.1774 116.71 44.6339 118.173 46.3992 119.164C48.9149 120.67 51.9139 121.141 54.7679 120.478C56.1786 120.126 57.4801 119.429 58.5558 118.448C59.6315 117.467 60.4476 116.233 60.9311 114.858C61.3572 113.381 61.4692 111.83 61.26 110.307C61.088 107.93 60.198 105.662 58.7085 103.805C54.1726 99.2541 46.3538 96.1425 44.8966 96.5407C43.4395 96.9389 42.8725 100.415 42.8725 100.415Z" fill="#E0D8C7"/>
<path d="M44.8866 100.338C44.6135 102.355 44.7792 104.405 45.3733 106.356C45.9673 108.308 46.9765 110.119 48.3364 111.672C48.4062 111.746 48.4886 111.832 48.5901 111.832" stroke="#FAF2E1" stroke-linecap="round" stroke-linejoin="round"/>
<path d="M47.3125 101.615L52.4209 111.832V111.508" stroke="#FAF2E1" stroke-linecap="round" stroke-linejoin="round"/>
<path d="M47.3125 100.338C50.5056 102.189 53.184 105.314 54.9751 109.277" stroke="#FAF2E1" stroke-linecap="round" stroke-linejoin="round"/>
<path d="M41.2971 90.1208C41.0678 91.3113 40.9484 92.5215 40.9405 93.7352C40.8617 95.2167 41.1792 96.692 41.8584 98.0003C42.9342 99.8075 44.9746 100.765 46.8865 101.615C47.5062 99.2051 47.5822 96.4762 46.2317 94.4159C45.6158 93.5505 44.8697 92.7919 44.0217 92.169C43.2435 91.5019 42.3798 90.9485 41.455 90.5244" fill="#E0D8C7"/>
<path d="M55.8604 106.789L56.2028 106.723L56.5451 106.789C56.8625 106.944 57.1342 107.256 57.3143 107.673C57.4211 107.886 57.4844 108.14 57.4966 108.405C57.5409 108.656 57.5409 108.919 57.4966 109.17L57.3632 109.625C57.2543 109.896 57.1015 110.123 56.9186 110.284L56.6118 110.482C56.3857 110.568 56.1487 110.568 55.9226 110.482L56.2694 110.555L56.6118 110.482C56.445 110.562 56.2668 110.573 56.096 110.515C55.9251 110.507 55.759 110.43 55.6159 110.291C55.4677 110.175 55.3421 110.005 55.2513 109.796C55.136 109.611 55.0562 109.383 55.0201 109.137L54.9756 108.629C54.9744 108.289 55.0343 107.954 55.149 107.66L55.3535 107.271C55.5116 107.038 55.7077 106.87 55.9226 106.783L55.8604 106.789Z" fill="#FAF2E1"/>
<path d="M51.6955 113.798C51.4647 113.566 51.2987 113.277 51.2139 112.961C51.1214 112.634 51.1214 112.287 51.2139 111.96L51.4052 111.505C51.523 111.287 51.693 111.101 51.9 110.965C52.0178 110.849 52.1631 110.765 52.3222 110.721C52.5492 110.601 52.8044 110.544 53.0611 110.556C53.3156 110.544 53.5687 110.601 53.7934 110.721C54.0303 110.798 54.2436 110.934 54.4135 111.116L54.7104 111.505C54.8486 111.718 54.9283 111.963 54.9413 112.217C54.9874 112.383 54.9874 112.558 54.9413 112.724C54.9262 112.977 54.8467 113.222 54.7104 113.436L54.4135 113.825C54.1789 114.057 53.888 114.225 53.5691 114.312L53.0611 114.385C52.8047 114.394 52.5503 114.337 52.3222 114.22C52.1626 114.173 52.0174 114.087 51.9 113.97C51.6917 113.837 51.5213 113.653 51.4052 113.436L53.0413 114.378C52.8708 114.393 52.6992 114.368 52.5399 114.306C52.2234 114.221 51.9346 114.055 51.7021 113.825L51.6955 113.798Z" fill="#FAF2E1"/>
<path d="M48.5874 110.556C48.7581 110.546 48.9277 110.602 49.0795 110.72C49.2346 110.806 49.3755 110.941 49.4924 111.116C49.6092 111.291 49.6993 111.502 49.7561 111.735C49.8347 111.963 49.8725 112.217 49.866 112.473L49.8177 112.98C49.7614 113.3 49.6492 113.591 49.4925 113.824L49.2333 114.12C49.0384 114.296 48.8148 114.387 48.5874 114.384C48.4178 114.396 48.2493 114.34 48.0996 114.219C47.9419 114.142 47.7997 114.006 47.6866 113.824C47.5654 113.657 47.4746 113.446 47.423 113.211C47.3448 112.983 47.307 112.729 47.3131 112.473L47.3571 111.966C47.4174 111.645 47.5308 111.353 47.6866 111.116L47.9459 110.819C48.1412 110.65 48.362 110.56 48.5874 110.556Z" fill="#FAF2E1"/>
<path d="M71.3922 134.107C72.1544 132.945 73.1913 131.915 74.0359 130.819C74.9457 129.72 75.4239 128.43 75.4092 127.114C75.3413 126.36 75.0265 125.634 74.4963 125.007C73.9661 124.381 73.239 123.877 72.3879 123.546C72.146 123.434 71.8782 123.363 71.6008 123.337C71.3234 123.311 71.0422 123.329 70.7743 123.393C70.4386 123.519 70.1446 123.707 69.916 123.941C68.3343 125.417 67.2486 127.19 66.7609 129.092C66.2733 130.995 66.3997 132.966 67.1282 134.819" fill="#E0D8C7"/>
<path d="M67.7469 134.694C67.3834 133.176 67.0309 131.653 66.6893 130.125C66.4494 129.112 66.1878 128.043 65.4736 127.292C65.1266 126.956 64.738 126.668 64.3179 126.434C63.6583 126.045 62.8406 125.661 62.1701 126.028C61.4995 126.395 61.3414 127.33 61.3632 128.121C61.4702 131.096 62.6326 133.931 64.6341 136.097" fill="#E0D8C7"/>
<path d="M65.1927 136.65C64.5881 135.657 63.9835 134.68 63.3003 133.724C62.1999 132.148 60.8818 130.573 58.8987 129.885C58.022 129.596 56.8128 129.617 56.3956 130.342C56.2054 130.775 56.2054 131.253 56.3956 131.686C56.9044 133.198 57.7742 134.599 58.9482 135.799C60.1223 136.999 61.5743 137.971 63.2096 138.651" fill="#E0D8C7"/>
<path d="M62.6387 138.027L59.6854 135.76C58.8361 135.052 57.8963 134.451 56.8887 133.972C55.8708 133.495 54.7015 133.412 53.6221 133.74C53.4036 133.784 53.198 133.875 53.0201 134.004C52.8422 134.134 52.6963 134.3 52.5931 134.491C52.4899 134.682 52.4318 134.892 52.423 135.107C52.4143 135.321 52.4551 135.535 52.5425 135.733C52.9215 136.688 53.5706 137.522 54.4163 138.141C56.3468 139.72 58.6787 140.778 61.1733 141.205" fill="#E0D8C7"/>
<path d="M59.9519 142.291C56.9772 141.5 53.8419 140.708 50.8901 141.598C50.31 141.744 49.7676 142.027 49.3024 142.426C49.0724 142.627 48.8886 142.883 48.7654 143.172C48.6421 143.461 48.5827 143.777 48.5917 144.095C48.6402 144.452 48.7702 144.79 48.9702 145.08C49.1702 145.37 49.4339 145.603 49.738 145.758C50.6346 146.197 51.6216 146.381 52.6039 146.292C55.6818 146.292 58.9603 145.856 61.3619 143.801" fill="#E0D8C7"/>
<path d="M67.748 141.205C70.0424 146.281 76.111 150.285 81.6117 150.267C82.9998 150.267 84.3764 150.019 85.7587 150.013C88.1818 150.05 90.5429 150.805 92.5586 152.188C94.5742 153.57 96.1587 155.522 97.1215 157.808" stroke="#E0D8C7" stroke-miterlimit="10"/>
<path d="M80.5232 144.369C80.4953 142.897 80.5709 141.425 80.7491 139.968C80.9848 138.157 81.2401 136.245 82.2564 134.82C84.0633 136.732 84.4856 139.849 84.3137 142.672C84.1664 145.099 83.5625 147.684 81.898 149.189L80.916 150.145C81.2147 149.734 81.416 149.241 81.5003 148.714C81.5445 147.99 80.5478 146.406 80.5232 144.369Z" fill="#E0D8C7"/>
<path d="M72.1045 152.873C69.8199 153.876 67.8672 155.493 66.4697 157.541C69.0932 158.037 71.803 157.838 74.3232 156.963C76.8434 156.089 79.0839 154.57 80.8167 152.561C81.1782 152.173 81.4544 151.715 81.6278 151.216C81.7193 150.865 81.7753 150.506 81.795 150.145C78.4208 150.449 75.134 151.374 72.1045 152.873Z" fill="#E0D8C7"/>
<path d="M75.4089 148.868C74.9021 148.191 74.5545 147.386 74.3973 146.524C74.2592 146.005 74.1704 145.471 74.1325 144.931C74.1246 144.245 74.1885 143.561 74.3232 142.892C74.4132 142.306 74.5085 141.767 74.5986 141.205" stroke="#E0D8C7" stroke-width="0.99" stroke-linecap="round" stroke-linejoin="round"/>
<path d="M75.4095 148.036C72.4267 147.23 69.2633 147.524 66.4697 148.868" stroke="#E0D8C7" stroke-miterlimit="10"/>
<path d="M74.3937 141.161C74.1294 140.28 74.0642 139.354 74.2025 138.447C74.3408 137.54 74.6794 136.672 75.1953 135.902C75.8548 135.022 76.6302 134.229 77.5021 133.542C78.0941 134.958 78.1168 136.536 77.5656 137.966C77.0025 139.382 75.9041 140.54 74.4917 141.205" fill="#E0D8C7"/>
<path d="M66.4698 149.295C65.6594 148.571 64.5742 148.864 63.6833 149.451C62.5081 150.25 61.4845 151.673 61.3613 153.401C61.5693 153.629 61.8119 153.794 62.0726 153.888C62.3333 153.982 62.6062 154.001 62.873 153.944C63.7804 153.859 64.6414 153.384 65.323 152.59C65.6589 152.195 65.9316 151.715 66.1252 151.179C66.3189 150.644 66.4295 150.062 66.4508 149.47" fill="#E0D8C7"/>
<path d="M65.7368 123.326C65.8746 123.325 66.0117 123.314 66.146 123.292L66.2603 123.271C66.4991 123.241 66.7268 123.178 66.9298 123.086C67.1328 122.993 67.3071 122.873 67.442 122.732C67.577 122.591 67.67 122.433 67.7154 122.267C67.7608 122.101 67.7578 121.93 67.7064 121.764C67.655 121.599 67.5564 121.442 67.4164 121.304C67.2764 121.166 67.0979 121.049 66.8916 120.96C66.6853 120.871 66.4554 120.812 66.2157 120.786C65.9759 120.76 65.7312 120.769 65.4962 120.811L65.3337 120.836C64.8978 120.903 64.5128 121.08 64.253 121.333C63.9933 121.586 63.8773 121.898 63.9274 122.207C63.9775 122.517 64.1902 122.803 64.5244 123.009C64.8585 123.216 65.2905 123.328 65.7368 123.326Z" fill="#E0D8C7"/>
<path d="M57.5321 125.88C57.7175 125.878 57.9003 125.836 58.0681 125.758C58.2359 125.679 58.3846 125.565 58.5041 125.424C58.6236 125.283 58.711 125.118 58.7605 124.94C58.81 124.763 58.8202 124.576 58.7906 124.394C58.7412 124.097 58.5877 123.827 58.3574 123.631C58.1271 123.436 57.8348 123.328 57.5321 123.326C57.3143 123.33 57.101 123.388 56.9117 123.496C56.7224 123.603 56.5632 123.756 56.4485 123.94C56.3337 124.124 56.2672 124.334 56.255 124.55C56.2428 124.767 56.2852 124.983 56.3784 125.179C56.4868 125.39 56.6521 125.568 56.8557 125.691C57.0593 125.815 57.2934 125.88 57.5321 125.88Z" fill="#E0D8C7"/>
<path d="M51.1526 130.988C51.3649 130.987 51.5734 130.933 51.759 130.83C51.9445 130.728 52.1011 130.58 52.2143 130.402V130.381C52.3061 130.242 52.3693 130.087 52.4003 129.924C52.4314 129.761 52.4296 129.593 52.3951 129.431C52.3607 129.268 52.2942 129.114 52.1995 128.977C52.1048 128.841 51.9839 128.724 51.8436 128.634C51.5646 128.455 51.2262 128.393 50.9015 128.461C50.5767 128.528 50.2916 128.72 50.1077 128.994L50.0656 129.057C49.9437 129.248 49.8757 129.467 49.8688 129.693C49.8618 129.919 49.9162 130.142 50.0261 130.34C50.136 130.537 50.2975 130.702 50.4935 130.816C50.6895 130.93 50.9128 130.99 51.14 130.988H51.1526Z" fill="#E0D8C7"/>
<path d="M47.3181 139.928C47.5378 139.927 47.7537 139.843 47.9458 139.682C48.1378 139.522 48.2996 139.29 48.416 139.01L48.4463 138.945C48.5934 138.515 48.6293 138.018 48.5472 137.55C48.4651 137.083 48.2708 136.678 48.0019 136.413C47.7329 136.149 47.4085 136.045 47.0913 136.12C46.7742 136.196 46.4869 136.446 46.2851 136.822L46.2332 136.939C46.1104 137.235 46.0425 137.575 46.0366 137.924C46.0306 138.273 46.0868 138.618 46.1993 138.923C46.3118 139.228 46.4766 139.482 46.6764 139.659C46.8762 139.836 47.1037 139.928 47.3354 139.928H47.3181Z" fill="#E0D8C7"/>
<path d="M72.7342 135.514L72.8558 133.712C72.8558 133.712 68.5988 132.656 63.6728 135.813C58.7468 138.969 58.8077 145.036 58.8077 145.036C58.8077 145.036 64.135 144.043 66.2513 142.924" fill="#E0D8C7"/>
<path d="M61.4234 143.328C62.4283 140.644 64.1297 138.333 66.3223 136.672C67.5191 135.656 68.9506 135.016 70.4608 134.82H70.585C70.7608 134.82 70.9316 134.82 71.1023 134.82C71.2616 134.824 71.4205 134.839 71.5782 134.864C71.454 136.057 70.9057 138.189 68.7744 140.311C66.6838 142.248 64.0984 143.45 61.3613 143.759L61.4234 143.328Z" fill="#E0D8C7"/>
<path d="M71.5789 133.567C71.5789 133.567 62.0024 132.543 60.085 143.759" stroke="#FAF2E1" stroke-linecap="round" stroke-linejoin="round"/>
<path d="M18.6907 105.446C27.4948 119.561 27.6768 137.188 25.1118 153.476C22.5469 169.765 17.4816 185.732 16.742 202.19C16.0025 218.648 20.3106 236.433 33.2645 247.205" stroke="#E0D8C7" stroke-miterlimit="10"/>
<path d="M25.9016 122.049C28.7674 127.028 32.1975 131.642 36.1201 135.791C39.6226 139.492 43.5452 142.856 46.3167 147.168C46.9386 148.132 47.5224 149.287 47.2387 150.409C46.9004 151.766 45.4329 152.495 44.0744 152.652C40.7465 153.038 37.4949 151.025 35.4217 148.317C33.3486 145.609 32.2356 142.279 31.1554 139.015C29.3005 133.408 27.4492 127.814 25.6016 122.234L25.9016 122.049Z" fill="#E0D8C7"/>
<path d="M22.7072 128.112C23.8838 125.782 24.7628 123.316 25.3238 120.771C26.0164 128.997 25.4111 137.28 23.5299 145.322C23.05 147.351 22.4501 149.431 21.1818 150.95C19.9135 152.47 17.794 153.258 16.1829 152.243C14.5718 151.228 14.0748 148.989 14.1091 146.954C14.229 139.766 19.565 134.342 22.7072 128.112Z" fill="#E0D8C7"/>
<path d="M27.303 141.205C25.9572 154.32 28.2247 160.456 28.5301 163.233C29.1747 169.101 32.2677 175.698 37.2494 178.794C37.9122 179.263 38.7016 179.516 39.5112 179.519C41.3037 179.399 42.4064 177.278 42.1745 175.481C41.9427 173.685 40.8287 172.14 39.76 170.68C36.831 166.654 27.4783 153.682 27.2861 141.205" fill="#E0D8C7"/>
<path d="M17.3985 172.853C16.3394 174.171 15.2527 175.97 13.6281 175.649C11.8316 175.294 11.3104 172.841 11.6541 170.979C12.6134 165.74 16.9216 162.004 20.1043 157.797C23.9878 152.644 26.3415 146.436 26.88 139.928C26.88 139.928 26.6138 144.427 26.4974 145.716C26.381 147.006 24.407 164.073 17.3985 172.853Z" fill="#E0D8C7"/>
<path d="M23.829 164.193C23.7111 174.903 28.1154 182.688 32.6108 191.774C33.5002 193.578 34.4325 195.444 34.5343 197.468C34.6362 199.491 33.661 201.746 31.8178 202.349C29.5192 203.093 27.2635 201.069 25.924 198.967C20.3302 190.196 21.5411 178.646 22.9663 168.19" fill="#E0D8C7"/>
<path d="M19.8327 199.777C20.7383 204.277 22.9695 208.413 26.2464 211.665C30.0865 215.468 35.3539 218.061 37.8529 222.839C38.3052 223.541 38.4711 224.386 38.3171 225.205C37.8013 227.005 35.2106 227.016 33.4166 226.416C23.6442 223.167 18.8297 212.751 18.0674 202.562C17.8565 199.356 17.9064 196.138 18.2164 192.939L18.6635 189.735L19.8327 199.777Z" fill="#E0D8C7"/>
<path d="M19.2178 224.217C21.7624 228.787 25.2414 232.766 29.4266 235.894C32.5396 238.217 36.0084 240.018 38.9801 242.545C41.9518 245.072 44.4715 248.437 44.7427 252.318C44.8557 254.018 44.4263 255.888 43.0478 256.851C41.0196 258.216 38.2909 256.896 36.3756 255.372C28.4153 249.083 23.7375 239.492 20.7545 229.82" fill="#E0D8C7"/>
<path d="M20.1179 240.67C20.7207 243.062 20.8895 246.419 18.3575 247.104C15.946 247.756 14.1374 245.117 13.42 242.888C7.33107 213.757 18.0983 198.675 18.0983 198.675C18.0983 198.675 14.2399 221.96 20.1179 240.67Z" fill="#E0D8C7"/>
<path d="M21.7711 173.133C21.7711 173.133 0.813718 192.027 12.5924 207.614C14.3374 207.758 12.6215 194.336 21.7711 174.282" fill="#E0D8C7"/>
<path d="M76.6875 221.663C81.434 227.202 88.1991 232.091 95.8441 231.873" stroke="#E0D8C7" stroke-linecap="round" stroke-linejoin="round"/>
<path d="M73.4252 216.373C70.7037 218.749 69.2831 222.298 68.0366 225.736C66.1915 230.817 64.4878 236.262 65.4893 241.589C65.5054 241.807 65.5661 242.02 65.6674 242.212C65.7687 242.405 65.9083 242.573 66.0772 242.707C66.7467 243.098 67.5032 242.366 67.906 241.69C68.8451 240.119 69.5479 238.411 69.9907 236.625C69.9907 239.129 69.8927 241.818 68.434 243.819C68.1899 244.108 67.9798 244.425 67.808 244.764C67.3726 245.804 68.1346 247.089 69.1905 247.408C69.7304 247.53 70.2923 247.501 70.8172 247.323C71.3421 247.145 71.8105 246.825 72.1733 246.396C72.8899 245.53 73.3806 244.492 73.5993 243.378C73.866 242.26 74.0239 241.142 74.3831 240.08C74.834 241.102 75.0155 242.229 74.9094 243.346C74.8034 244.463 74.4136 245.532 73.779 246.446C73.2338 247.057 72.7756 247.744 72.4182 248.487C72.3177 248.835 72.2874 249.2 72.3292 249.561C72.371 249.921 72.484 250.269 72.6614 250.583C72.8387 250.897 73.0766 251.171 73.3605 251.387C73.6444 251.603 73.9683 251.758 74.3124 251.841C74.6231 251.913 74.948 251.886 75.2431 251.762C75.5355 251.603 75.7858 251.373 75.9725 251.092C78.215 248.107 78.4871 244.082 78.6939 240.32C79.8288 243.546 79.8288 247.078 78.6939 250.304C78.4 250.979 78.2038 251.694 78.1115 252.428C78.0711 252.796 78.136 253.169 78.2983 253.501C78.4607 253.832 78.7135 254.108 79.026 254.295C80.1145 254.803 81.2521 253.669 81.7474 252.556C83.1572 249.426 82.6782 245.787 82.1665 242.371C83.1418 243.929 83.804 245.671 84.1143 247.494C84.4247 249.318 84.3768 251.188 83.9736 252.992C83.7559 253.92 83.4892 255.038 84.1369 255.726C84.3971 255.961 84.7236 256.106 85.0691 256.138C85.4145 256.17 85.761 256.088 86.0582 255.905C86.6439 255.521 87.0971 254.958 87.3537 254.295C88.1026 252.434 88.2626 250.379 87.8109 248.42C87.3502 246.495 86.6934 244.625 85.8514 242.841C88.0408 245.258 89.3817 248.356 89.6615 251.645C89.7377 252.5 89.7975 253.495 90.4779 253.993C91.3433 254.63 92.6551 253.926 93.0198 252.903C93.3844 251.88 93.1123 250.745 92.7639 249.711C91.9844 247.369 90.9064 245.144 89.5581 243.093C92.6333 244.725 93.5423 248.738 95.7086 251.505C98.6314 249.521 101.772 247.151 102.48 243.629C100.047 242.103 97.8634 240.194 96.0079 237.972C97.8062 239.28 99.7762 240.319 101.859 241.058C102.626 241.42 103.493 241.495 104.308 241.27C105.092 240.968 105.62 239.89 105.103 239.208C104.748 238.854 104.289 238.63 103.797 238.57C101.01 237.848 98.5496 236.162 96.8298 233.797L101.141 235.625C102.365 236.144 103.688 236.675 104.951 236.362C106.213 236.049 107.308 234.495 106.643 233.316C103.626 233.244 100.658 232.516 97.9347 231.181C99.5462 231.687 101.245 231.83 102.915 231.6C103.756 231.486 104.563 231.187 105.281 230.724C106 230.261 106.613 229.645 107.079 228.917C107.346 228.458 107.493 227.76 107.079 227.463C106.836 227.342 106.559 227.308 106.295 227.368C103.854 227.613 101.393 227.542 98.9689 227.156C100.239 227.491 101.566 227.535 102.855 227.284C104.123 226.96 105.315 225.988 105.544 224.668C105.756 223.444 105.136 222.248 104.532 221.169C102.282 222.37 99.7505 222.904 97.2217 222.712C98.588 222.693 99.9258 222.307 101.103 221.594C101.935 221.085 102.735 220.196 102.529 219.229C102.322 218.262 101.201 217.849 100.27 217.977C99.339 218.106 98.5117 218.637 97.6408 218.983C96.77 219.33 95.6977 219.481 94.9194 218.911C96.1382 218.54 97.2999 217.994 98.3702 217.29C98.6091 217.174 98.8014 216.976 98.9145 216.731C99.0669 216.228 98.5661 215.786 98.1253 215.518C93.6022 212.723 88.3279 210.945 83.1027 211.571C77.8775 212.197 72.7883 215.613 71.1555 220.739" fill="#E0D8C7"/>
<path d="M72.2448 216.177C69.7726 218.237 67.9784 220.979 67.092 224.054C66.2056 227.128 66.2674 230.394 67.2695 233.433C68.2739 236.321 70.1543 239.029 69.9907 242.096C70.9223 242.191 71.8627 242.035 72.7116 241.644C73.5606 241.253 74.2864 240.641 74.8118 239.875C75.3373 239.108 75.6427 238.215 75.6955 237.29C75.7484 236.365 75.5467 235.443 75.112 234.623C76.5485 236.933 76.2215 239.902 75.696 242.575C75.5558 243.326 75.4741 244.256 76.1106 244.683C76.7471 245.111 77.7456 244.608 78.2537 243.944C80.0055 241.634 79.3632 238.4 78.3997 235.691C79.0472 237.144 79.4742 238.683 79.6669 240.26C79.8829 242.05 79.8187 243.956 80.7296 245.515C80.8049 245.673 80.9299 245.803 81.0859 245.885C81.3895 246.023 81.7399 245.804 81.9793 245.567C83.299 244.268 83.6436 242.24 83.3341 240.433C82.92 238.634 82.2182 236.913 81.2552 235.333C82.5524 237.32 83.5479 239.483 84.21 241.755C84.3475 242.398 84.6071 243.01 84.975 243.557C85.1655 243.827 85.4387 244.029 85.7543 244.133C86.0698 244.237 86.4109 244.237 86.7268 244.135C87.7079 243.707 87.5677 242.298 87.2174 241.299C86.4253 239.051 85.3834 236.898 84.1107 234.877C85.5374 237.757 87.9087 240.074 90.8379 241.449C91.4394 241.778 92.1189 241.941 92.8058 241.923C93.1469 241.903 93.472 241.773 93.7314 241.553C93.9908 241.333 94.1702 241.035 94.2423 240.704C94.2533 240.24 94.1186 239.784 93.8569 239.399C92.0644 236.158 89.6365 233.304 86.7152 231.002C88.8466 233.462 91.2466 235.986 94.4292 236.777C94.9646 236.948 95.5406 236.948 96.0759 236.777C96.3415 236.688 96.5656 236.506 96.7072 236.267C96.8487 236.027 96.8983 235.745 96.8468 235.472C96.7183 235.022 96.2628 234.756 95.8599 234.525C93.0802 232.968 90.5133 231.066 88.2218 228.865C90.3053 230.729 92.8328 232.041 95.5679 232.677C96.9635 232.994 98.8205 232.908 99.3461 231.591C99.4289 231.407 99.4647 231.205 99.4504 231.004C99.4362 230.802 99.3723 230.607 99.2643 230.436C99.072 230.232 98.8397 230.069 98.5817 229.957C98.3237 229.845 98.0454 229.786 97.7636 229.783C94.9627 229.361 92.2564 228.464 89.7634 227.133C91.451 228.057 93.2204 228.998 95.1533 229.079C97.0862 229.16 99.2001 228.068 99.6264 226.191C99.7782 225.51 99.5797 224.632 98.9081 224.418C98.5526 224.344 98.1835 224.366 97.8395 224.482C95.1808 225.079 92.397 224.791 89.9211 223.662C90.9669 224.212 92.0912 224.601 93.2554 224.817C93.8386 224.916 94.4364 224.893 95.0098 224.749C95.5833 224.604 96.1196 224.342 96.584 223.979C97.9037 222.824 98.0205 220.872 98.038 219.128C96.4321 219.544 94.838 218.551 93.454 217.661C91.0273 215.965 88.3844 214.594 85.594 213.584C82.782 212.569 79.7197 212.448 76.8347 213.238C74.404 214.031 72.2701 215.528 70.709 217.534" fill="#E0D8C7"/>
<path d="M73.2744 214.714C75.1023 213.714 77.3376 213.904 79.3579 214.44C80.8205 214.826 82.257 215.302 83.6587 215.866C84.7566 216.308 85.9223 216.906 86.3637 217.997C85.5176 218.028 84.6702 217.998 83.8285 217.907C84.3944 218.058 84.9603 218.226 85.5602 218.427C86.5462 218.709 87.4463 219.228 88.1803 219.937C87.9426 220.328 87.3824 220.328 86.9297 220.272L86.5222 220.211C86.9506 220.334 87.3401 220.563 87.654 220.876C87.7183 220.935 87.7602 221.014 87.7729 221.1C87.7729 221.152 87.7606 221.203 87.737 221.25C87.7134 221.296 87.6792 221.337 87.637 221.368C87.4361 221.495 87.2097 221.578 86.9733 221.611C86.7369 221.644 86.4962 221.626 86.2675 221.558L80.518 220.686C82.6205 221.428 84.6478 222.364 86.5731 223.482C87.0881 223.778 87.654 224.181 87.7049 224.773C85.5919 224.214 83.5465 223.431 81.6045 222.436C83.3022 223.8 85.4923 224.712 86.7712 226.49C86.9749 226.769 87.0994 227.245 86.7712 227.379C86.6464 227.421 86.5112 227.421 86.3864 227.379C84.25 226.833 82.2767 225.79 80.6311 224.337C81.3668 225.204 82.2836 225.897 83.0985 226.691C83.9633 227.447 84.5734 228.446 84.8471 229.554C84.6922 229.604 84.5265 229.614 84.3667 229.582C84.2068 229.549 84.0583 229.476 83.936 229.369C81.8971 228.093 80.1476 226.414 78.7976 224.438C79.9861 226.255 81.0269 228.162 81.9101 230.141C82.0912 230.544 82.1987 231.136 81.7912 231.321C81.6793 231.356 81.5606 231.364 81.4446 231.346C81.3287 231.327 81.2187 231.282 81.1235 231.215C80.4236 230.754 79.8516 230.127 79.4597 229.392C78.5771 228.03 77.8195 226.593 77.1961 225.098C77.911 226.855 78.4586 228.674 78.8316 230.532C78.8938 230.719 78.9051 230.919 78.8644 231.111C78.8236 231.303 78.7323 231.482 78.5996 231.628C77.8775 230.781 77.321 229.808 76.9584 228.76C76.3925 227.412 75.8719 226.048 75.3626 224.678C75.6229 226.562 75.8776 228.441 76.1379 230.32C76.2171 230.879 76.2284 231.6 75.7191 231.88C74.3933 229.515 73.4284 226.97 72.8556 224.326C72.9518 226.149 73.0537 227.977 73.1499 229.8C73.1499 230.068 73.099 230.432 72.8273 230.443C72.7095 230.437 72.5984 230.387 72.5161 230.303C72.012 229.786 71.6615 229.142 71.5031 228.441C71.0917 227.154 70.8074 225.83 70.6543 224.488L70.5637 224.751C69.5111 218.55 71.8653 215.492 73.2744 214.714Z" fill="#E0D8C7"/>
<path d="M72.5519 216.605C71.3666 218.206 71.3263 220.637 72.0916 222.51C72.4719 223.453 73.1148 224.246 73.9312 224.778C74.7477 225.31 75.6974 225.556 76.649 225.481C77.4728 225.346 78.2501 224.982 78.9047 224.427C79.4827 223.97 79.9456 223.364 80.2512 222.665C80.494 221.973 80.5727 221.227 80.4803 220.493C80.3879 219.76 80.1271 219.063 79.7218 218.466C78.8933 217.272 77.7739 216.349 76.4879 215.799C75.7361 215.389 74.8928 215.215 74.0538 215.297C74.0538 215.297 73.5474 215.272 72.5519 216.605Z" fill="#E0D8C7"/>
<path d="M166.085 234.434C151.92 227.468 138.628 217.092 132.396 202.654C128.849 194.439 127.784 185.419 125.597 176.77C123.41 168.122 119.687 159.282 112.446 153.976" stroke="#E0D8C7" stroke-linecap="round" stroke-linejoin="round"/>
<path d="M127.035 180.795C125.469 177.117 122.566 174.644 119.335 172.089C115.45 169.022 111.857 165.53 109.362 161.378C106.867 157.226 105.512 152.336 106.271 147.611C110.53 147.374 114.684 149.263 117.775 152.066C120.865 154.871 123.278 158.271 124.85 162.033C127.69 168.774 127.771 180.79 127.771 180.79L127.035 180.795Z" fill="#E0D8C7"/>
<path d="M130.325 197.398C127.135 189.234 118.167 180.97 113.197 177.328C107.874 173.461 100.993 172.83 94.5664 171.856C100.509 185.698 113.902 195.781 128.398 197.368L130.325 197.398Z" fill="#E0D8C7"/>
<path d="M215.891 249.71C206.646 253.095 197.014 255.921 187.122 256.133C177.23 256.345 166.958 253.65 159.698 247.205C176.051 249.694 193.362 253.53 210.412 250.699C215.346 249.911 215.891 249.71 215.891 249.71Z" fill="#E0D8C7"/>
<path d="M189.071 244.651C189.071 244.651 174.954 241.959 167.5 242.208C162.943 242.358 158.696 242.862 154.924 242.329C152.356 241.921 149.84 241.218 147.425 240.234C142.756 238.417 138.304 236.061 134.155 233.211C134.155 233.211 167.139 226.125 189.071 244.651Z" fill="#E0D8C7"/>
<path d="M103.506 201.229C113.095 201.181 122.018 205.678 129.849 210.823C137.54 215.88 144.764 221.725 153.313 225.375C133.692 226.69 113.579 217.004 103.506 201.229Z" fill="#E0D8C7"/>
<path d="M103.506 157.812C82.1157 157.474 65.5817 175.906 66.5067 196.255C66.784 201.978 68.2698 207.584 70.8715 212.723" stroke="#E0D8C7" stroke-miterlimit="10"/>
<path d="M88.0513 197.184C88.9577 197.487 89.9454 197.467 90.8382 197.129C91.2748 196.945 91.6271 196.613 91.8289 196.194C92.0306 195.776 92.0678 195.301 91.9334 194.858C91.7645 194.513 91.5244 194.206 91.2281 193.956C86.8757 189.803 81.4797 186.296 79.0655 180.863C77.9031 178.154 77.5522 175.181 78.0534 172.286C78.5545 169.392 79.8873 166.694 81.8983 164.503L83.3892 162.916L80.522 164.87C80.522 164.87 71.6108 175.402 80.9578 192.258C82.9878 195.876 88.0513 197.184 88.0513 197.184Z" fill="#E0D8C7"/>
<path d="M66.4696 189.735C63.2029 190.492 59.0548 212.153 51.8691 221.293C49.0019 224.936 45.4178 228.477 44.8303 233.033C44.6708 233.863 44.7796 234.721 45.1417 235.488C45.5049 236.033 46.025 236.461 46.6365 236.719C47.248 236.976 47.9238 237.051 48.5788 236.934C49.8906 236.679 51.1082 236.085 52.1041 235.213C58.1147 230.491 60.8703 222.854 62.2393 215.44C63.6083 208.027 63.902 200.379 66.3521 193.223" fill="#E0D8C7"/>
<path d="M61.9924 178.88C60.8301 179.248 59.6284 179.449 58.4178 179.48C56.3829 179.646 54.341 179.277 52.4657 178.406C51.5388 177.953 50.718 177.28 50.0646 176.437C49.4111 175.593 48.9419 174.601 48.6917 173.534C48.2705 171.38 49.1904 168.896 51.0415 167.984C53.0199 167.005 55.2977 167.948 57.3648 168.686C63.7658 170.966 71.1588 171.044 76.9113 167.239L77.9643 166.747L76.0856 168.824C76.0856 168.824 69.7955 175.742 61.9924 178.88Z" fill="#E0D8C7"/>
<path d="M46.4626 194.843C48.1985 194.949 49.3037 196.684 49.674 198.261C49.8943 199.051 49.9279 199.875 49.7724 200.678C49.2401 202.995 46.0923 204.424 43.7084 203.498C41.3244 202.572 40.2366 199.626 41.3938 197.52C42.0345 196.48 43.0726 195.692 44.3091 195.309C45.5456 194.925 46.8935 194.972 48.0944 195.441" fill="#E0D8C7"/>
<path d="M124.292 242.077C124.479 242.103 124.668 242.103 124.854 242.077C125.933 241.888 127.034 240.415 127.034 240.415C128.079 238.861 129.102 237.136 129.046 235.274C128.951 234.056 128.565 232.88 127.922 231.847C127.536 231.051 126.956 230.369 126.236 229.865C125.75 229.578 125.207 229.404 124.646 229.357C123.944 229.279 123.234 229.346 122.558 229.553C121.881 229.761 121.253 230.104 120.71 230.564C120.168 231.023 119.722 231.589 119.399 232.228C119.076 232.866 118.883 233.564 118.831 234.281C123.865 235.12 124.337 239.946 124.292 242.077Z" fill="#E0D8C7"/>
<path d="M129.288 245.919C130.66 245.982 132.027 245.707 133.267 245.119C133.799 244.856 134.311 244.556 134.8 244.221C135.371 243.886 135.859 243.428 136.229 242.88C136.579 242.145 136.736 241.333 136.686 240.521C136.758 239.677 136.668 238.827 136.42 238.017C136.037 237.175 135.455 236.436 134.725 235.865C134.131 235.283 133.416 234.837 132.631 234.558C132.239 234.426 131.818 234.398 131.412 234.479C131.006 234.56 130.628 234.746 130.317 235.019C130.317 235.019 130.705 239.191 127.553 241.741C124.4 244.29 129.288 245.919 129.288 245.919Z" fill="#E0D8C7"/>
<path d="M125.491 250.165C127.433 252.072 130.034 253.929 131.346 253.538C133.221 252.97 134.493 251.051 135.112 249.065C135.393 248.288 135.493 247.448 135.402 246.62C135.282 245.807 134.805 244.347 134.118 244.707C133.431 245.068 130.063 247.549 127.541 246.253C125.02 244.958 124.736 245.178 124.736 245.178L123.98 246.498C123.98 246.498 123.554 248.258 125.491 250.165Z" fill="#E0D8C7"/>
<path d="M119.968 253.971C120.662 255.708 116.631 254.544 115.133 253.639C113.795 252.826 112.485 251.508 112.446 249.802C112.457 249.087 112.621 248.386 112.925 247.758C114.208 244.863 117.193 242.874 120.034 243.484C120.034 243.484 122.573 243.114 122.661 244.58C122.749 246.046 120.458 246.846 120.183 247.659C119.907 248.472 118.564 250.43 119.968 253.971Z" fill="#E0D8C7"/>
<path d="M114.436 246.897C113.095 248.534 112.051 243.209 112.592 241.141C113.025 239.795 113.75 238.569 114.712 237.552C115.479 236.665 116.415 235.772 117.567 235.722C118.029 235.681 118.495 235.755 118.924 235.938C119.767 236.332 123.098 237.391 123.866 242.383C124.634 247.374 119.292 240.969 114.436 246.897Z" fill="#E0D8C7"/>
<path d="M123.902 245.928C124.299 252.63 130.175 251.299 130.325 254.7C130.177 255.545 129.755 256.318 129.122 256.903C128.418 257.316 127.596 257.49 126.783 257.398C124.786 257.35 122.573 257.034 121.286 255.542C120.473 254.528 120.056 253.256 120.114 251.961C120.274 250.512 120.605 249.086 121.1 247.712C121.409 247.231 121.819 246.822 122.303 246.514C122.787 246.206 123.333 246.006 123.902 245.928Z" fill="#E0D8C7"/>
<path d="M120.313 246.073C119.722 244.678 120.479 243.068 121.707 242.069C122.216 241.641 122.818 241.311 123.475 241.098C124.132 240.884 124.831 240.792 125.53 240.827C126.227 240.874 126.897 241.088 127.47 241.446C128.042 241.805 128.494 242.294 128.779 242.863C129.011 243.42 129.095 244.017 129.024 244.608C128.953 245.199 128.73 245.767 128.371 246.267C127.255 247.872 126.41 248.772 123.486 248.398C120.561 248.025 120.313 246.073 120.313 246.073Z" fill="#E0D8C7"/>
<path d="M120.313 246.073C119.722 244.678 120.479 243.068 121.707 242.069C122.216 241.641 122.818 241.311 123.475 241.098C124.132 240.884 124.831 240.792 125.53 240.827C126.227 240.874 126.897 241.088 127.47 241.446C128.042 241.805 128.494 242.294 128.779 242.863C129.011 243.42 129.095 244.017 129.024 244.608C128.953 245.199 128.73 245.767 128.371 246.267C127.255 247.872 126.41 248.772 123.486 248.398C120.561 248.025 120.313 246.073 120.313 246.073Z" stroke="#FAF2E1" stroke-miterlimit="10"/>
<path d="M108.615 133.542C102.419 127.466 98.4914 119.31 97.5278 110.516C97.5104 109.968 97.3839 109.429 97.1564 108.933C96.4025 107.592 94.3014 107.782 93.3091 108.962C92.3168 110.142 92.1338 111.788 92.0618 113.337C91.8289 118.011 92.3279 123.238 95.6762 126.364C96.9823 127.469 98.4372 128.369 99.9947 129.035L107.966 132.944" fill="#E0D8C7"/>
<path d="M86.9026 120.127C84.8671 116.998 84.403 113.085 84.5316 109.346C84.6602 105.607 85.3145 101.901 85.281 98.1615C85.3301 97.4427 85.1729 96.7248 84.828 96.0928C83.9836 94.8482 81.9481 95.0388 80.8688 96.0928C79.7896 97.1467 79.4093 98.7053 79.0962 100.18C78.2406 104.188 77.4689 108.359 78.358 112.362C79.2472 116.365 82.2165 120.211 86.2652 120.771" fill="#E0D8C7"/>
<path d="M100.949 146.133C101 143.349 100.353 140.596 99.0676 138.131C97.7818 135.666 95.8991 133.568 93.5942 132.032C92.2522 131.155 90.415 130.511 89.1307 131.451C87.7542 132.473 87.9788 134.743 89.1307 136.061C90.2825 137.379 91.9009 138.041 93.4041 138.871C96.5379 140.602 99.1307 143.179 100.891 146.313" fill="#E0D8C7"/>
<path d="M95.8436 157.807C95.8436 157.807 87.0842 163.677 92.4532 173.449C97.8223 183.221 95.0484 188.454 89.6054 184.665C84.1623 180.876 78.9659 163.305 95.8436 157.807Z" fill="#E0D8C7"/>
<path d="M69.3838 180.795C74.8279 204.608 98.8565 201.618 100.873 205.658C102.889 209.698 65.2591 216.131 69.332 180.801L69.3838 180.795Z" fill="#E0D8C7"/>
<path d="M141.819 249.748C141.817 250.506 142.04 251.247 142.459 251.879C142.878 252.51 143.475 253.003 144.174 253.295C144.873 253.587 145.643 253.665 146.387 253.519C147.131 253.374 147.814 253.011 148.352 252.477C148.889 251.942 149.256 251.261 149.406 250.518C149.556 249.775 149.483 249.005 149.195 248.304C148.907 247.603 148.417 247.003 147.789 246.58C147.16 246.157 146.42 245.93 145.662 245.928C145.159 245.927 144.66 246.024 144.195 246.216C143.73 246.407 143.306 246.688 142.949 247.042C142.593 247.397 142.309 247.819 142.115 248.283C141.921 248.747 141.821 249.245 141.819 249.748Z" fill="#E0D8C7"/>
<path d="M53.6982 251.036C53.6982 251.794 53.9229 252.535 54.3439 253.165C54.7649 253.795 55.3633 254.286 56.0634 254.576C56.7635 254.866 57.5338 254.942 58.277 254.794C59.0202 254.646 59.7029 254.281 60.2387 253.746C60.7745 253.21 61.1394 252.527 61.2873 251.784C61.4351 251.041 61.3592 250.27 61.0692 249.57C60.7793 248.87 60.2882 248.272 59.6581 247.851C59.0281 247.43 58.2873 247.205 57.5296 247.205C56.5134 247.205 55.5389 247.609 54.8204 248.327C54.1019 249.046 53.6982 250.02 53.6982 251.036Z" fill="#E0D8C7"/>
<path d="M26.0149 3.27726C20.7509 29.4 28.2375 68.3957 42.2047 90.1206" stroke="#E0D8C7" stroke-width="0.740826" stroke-miterlimit="10"/>
<path d="M29.7443 55.6387C29.1953 56.0968 29.4698 57.0357 29.8322 57.6861C33.2859 63.9524 37.6565 69.755 43.1418 74.2343C48.6271 78.7135 55.2709 81.8127 62.2442 82.4348C64.0781 82.5988 66.6368 81.9032 66.4611 80.0086C66.3843 79.0132 65.5167 78.3119 64.6766 77.8142C61.9971 76.2646 58.8894 75.7839 55.8914 75.0204C45.1396 72.1999 35.7471 65.4556 29.4588 56.0403" fill="#E0D8C7"/>
<path d="M27.7963 54.9178C27.4276 63.6299 27.0013 72.5938 23.1875 80.5399C22.1045 82.8164 20.7564 84.9671 19.6042 87.2163C19.3423 87.6366 19.2087 88.1179 19.2183 88.6063C19.3392 89.6515 20.6643 90.1714 21.7761 90.1167C24.0459 90.0072 25.9701 88.4749 27.2893 86.6964C31.5236 81.0433 30.936 73.4421 30.1698 66.5413C29.6667 62.0539 29.1674 57.5683 28.672 53.0845" fill="#E0D8C7"/>
<path d="M25.9162 43.4397C21.5503 50.52 18.8388 58.4266 17.9696 66.6123C17.9071 67.1573 17.9015 67.8494 18.3612 68.2091C19.1729 68.8358 20.2571 67.8712 20.7679 67.0047C24.8868 60.0118 26.7942 52.0181 26.2568 44.0011C28.3616 50.0852 32.7369 55.2062 38.5399 58.3776C41.202 59.8218 44.4999 60.8137 47.2698 59.5711C47.5253 57.7182 46.6171 55.8653 45.3002 54.4974C43.9112 53.1944 42.3317 52.0929 40.6117 51.2275L25.8651 42.8675" fill="#E0D8C7"/>
<path d="M23.0167 26.7898C20.2354 31.4678 18.1711 36.5196 16.89 41.7837C16.6254 42.5673 16.5905 43.4077 16.7892 44.2097C17.0524 44.9873 17.9092 45.6281 18.7213 45.3597C19.0927 45.214 19.4161 44.9716 19.6565 44.6588C21.8967 42.0521 22.7703 38.5582 23.1399 35.163C23.5095 31.7677 23.4759 28.3122 24.26 24.9881C24.4671 29.3514 26.0628 33.5423 28.8243 36.9756C31.6244 40.3216 35.8527 42.6216 40.2825 42.7585C40.9602 42.7585 41.7722 42.6764 42.0858 42.0849C42.3994 41.4935 42.0354 40.8199 41.6322 40.3052C40.0865 38.3447 37.7736 37.1344 35.6454 35.7873C31.4747 33.1545 27.8009 29.8363 24.7864 25.9793" fill="#E0D8C7"/>
<path d="M25.1687 7.85492C23.6608 8.51044 22.3461 9.54673 21.3515 10.8638C19.8781 12.7288 18.8427 14.9058 18.3228 17.2316C17.8028 19.5574 17.812 21.9717 18.3494 24.2935C19.1588 24.5018 19.7902 23.5992 20.1288 22.8296C21.4311 19.8752 22.4442 16.7997 23.1539 13.6469C23.6705 11.3787 24.0666 8.97744 25.4499 7.1085C26.3297 12.3461 28.19 17.3672 30.9317 21.9038C32.6079 24.6754 34.7547 27.3602 37.7567 28.5348C38.1015 28.7094 38.4799 28.8061 38.8656 28.8181C39.2512 28.8301 39.6348 28.7571 39.9896 28.6042C40.776 28.1471 40.9999 27.0998 40.9081 26.1972C40.6727 23.8827 38.9794 22.0369 37.3779 20.3762L25.6393 8.17895" fill="#E0D8C7"/>
<path d="M54.3373 184.627C56.1006 184.627 57.5301 186.342 57.5301 188.458C57.5301 190.574 56.1006 192.29 54.3373 192.29C52.574 192.29 51.1445 190.574 51.1445 188.458C51.1445 186.342 52.574 184.627 54.3373 184.627Z" fill="#E0D8C7"/>
<path d="M43.7244 2.00032C41.8148 6.42674 41.7014 11.3687 43.4061 15.8699C45.1108 20.3712 48.5124 24.1118 52.9528 26.368C54.3529 27.169 55.9636 27.5755 57.5975 27.5404C59.2181 27.4116 60.8522 26.4325 61.2591 24.9638C61.7812 23.0314 60.2216 21.1956 58.6146 19.9331C55.4549 17.4532 51.6848 15.7462 48.5319 13.2534C45.3789 10.7606 42.7887 7.04391 43.3108 3.17908C43.3854 2.67021 43.8465 2.01964 44.294 2.30307" fill="#E0D8C7"/>
<path d="M49.6224 37.4304C49.2776 37.4577 48.9336 37.363 48.6325 37.1579C48.3314 36.9528 48.0862 36.6461 47.9268 36.2754C47.6215 35.5351 47.441 34.729 47.3954 33.9037C47.288 32.9536 47.2033 31.8532 47.6894 31.1151C48.0095 30.6644 48.4453 30.3564 48.9272 30.2402C50.4025 29.8028 51.9455 30.4384 53.336 31.1766C53.8223 31.3845 54.2563 31.7398 54.5964 32.2087C54.8433 32.6431 54.9754 33.1579 54.9751 33.685C54.9747 34.717 54.7309 35.7274 54.2724 36.5978C53.8139 37.4682 53.1597 38.1625 52.3864 38.5992C51.9677 38.8618 51.5067 39.0111 51.0355 39.0366C50.4236 39.0197 49.8401 38.721 49.4041 38.2015C48.9682 37.682 48.7127 36.9808 48.6898 36.2412" fill="#E0D8C7"/>
<path d="M194.099 173.133C203.251 179.042 206.505 191.14 206.678 202.168C206.812 210.915 205.348 220.038 200.332 227.142C193.528 236.811 183.163 239.131 173.177 243.727C162.118 248.846 151.311 251.195 139 248.846" stroke="#E0D8C7" stroke-linecap="round" stroke-linejoin="round"/>
<path d="M217.279 218.22C220.289 214.938 221.941 210.559 223.001 206.162C225.934 193.801 224.719 180.767 219.556 169.225C219.279 168.614 218.801 167.901 218.165 168.042C217.73 168.133 217.475 168.608 217.29 169.021C213.487 177.475 213.742 187.382 215.959 196.424C216.633 199.152 217.181 201.902 217.915 204.612C218.801 207.86 219.849 214.706 216.111 219.108" fill="#E0D8C7"/>
<path d="M196.469 169.301C196.382 168.16 196.172 167.029 195.842 165.924C195.516 164.567 194.781 163.317 193.719 162.309C192.096 160.941 189.734 160.62 187.529 160.362C187.529 162.681 188.224 165.169 190.192 166.678C191.066 167.3 192.045 167.794 193.092 168.142C194.089 168.546 195.143 168.825 196.224 168.969" fill="#E0D8C7"/>
<path d="M328.006 117.279C327.892 119.6 327.152 121.848 325.865 123.782C325.215 124.739 324.36 125.539 323.361 126.122C322.362 126.706 321.246 127.057 320.093 127.152C318.979 127.204 317.733 126.868 317.155 125.909C316.578 124.949 316.873 123.724 317.155 122.649C320.336 107.042 315.88 104.533 313.115 103.493C310.351 102.453 302.478 105.62 300.152 106.62C298.08 107.505 296.631 109.51 295.419 111.377C295.127 111.991 294.648 112.497 294.051 112.822C293.703 112.926 293.333 112.926 292.985 112.824C292.637 112.721 292.326 112.52 292.089 112.244C291.623 111.681 291.318 111.002 291.206 110.279C290.3 106.071 292.141 101.516 295.425 98.7186C298.709 95.9209 303.263 96.0307 307.511 95.3834C320.07 93.4932 328.254 109.441 328.006 117.279Z" fill="#E0D8C7"/>
<path d="M331.801 113.623C331.906 114.379 331.845 115.372 331.164 115.616C330.61 115.812 330.084 115.36 329.685 114.92C326.361 111.274 324.627 106.212 321.192 102.703V102.358L321.048 102.275C321.048 102.275 318.478 100.092 319.198 98.7064C319.352 98.3353 319.636 98.0436 319.988 97.8936C320.34 97.7436 320.732 97.7471 321.082 97.9035C323.907 99.4153 326.354 101.631 328.219 104.366C330.084 107.101 331.312 110.275 331.801 113.623Z" fill="#E0D8C7"/>
<path d="M322.353 95.2534C324.213 95.1411 326.075 95.4242 327.803 96.0816C329.531 96.7391 331.08 97.7541 332.335 99.0517C332.893 99.6164 333.366 100.25 333.742 100.935C334.255 101.914 334.474 103.007 334.374 104.095C334.385 104.358 334.321 104.619 334.187 104.85C334.054 105.082 333.857 105.275 333.616 105.409C333.365 105.463 333.103 105.458 332.853 105.397C332.603 105.335 332.373 105.218 332.182 105.055C324.859 98.7405 320.952 97.9573 320.514 97.3403C320.075 96.7234 320.457 95.3661 322.353 95.2534Z" fill="#E0D8C7"/>
<path d="M332.442 95.0054C332.744 94.7694 333.058 94.6645 333.114 94.3603C333.143 94.0518 333.056 93.7434 332.867 93.4792C332.521 92.935 331.994 92.4899 331.353 92.1994C331.023 92.0598 330.678 91.9457 330.324 91.8585C327.48 91.1348 324.432 91.334 321.556 91.9687C320.269 92.3938 319.012 92.8842 317.794 93.4372L319.906 94.675C325.312 93.369 330.725 95.9809 332.442 95.0054Z" fill="#E0D8C7"/>
<path d="M293.369 93.4791C292.74 93.9355 292.049 94.712 292.309 95.5226C292.519 96.2038 293.204 96.3672 293.782 96.4285C298.615 96.919 303.476 94.9027 308.292 95.6179L308.547 95.3727L308.706 95.4545C308.706 95.4545 311.98 96.3127 312.53 94.6235C312.704 94.2048 312.734 93.7203 312.613 93.2752C312.493 92.8301 312.23 92.4604 311.884 92.2463C308.94 90.6596 305.723 89.9435 302.502 90.158C299.281 90.3725 296.149 91.5113 293.369 93.4791Z" fill="#E0D8C7"/>
<path d="M312.188 89.9686C311.149 88.518 309.798 87.3204 308.233 86.4652C306.669 85.6099 304.932 85.1189 303.151 85.0287C302.368 84.98 301.582 85.0387 300.815 85.2032C299.735 85.458 298.745 86.0007 297.95 86.7735C297.737 86.935 297.572 87.1508 297.471 87.3984C297.37 87.6459 297.338 87.9159 297.378 88.1802C297.489 88.4007 297.652 88.5915 297.851 88.7365C298.051 88.8816 298.283 88.9769 298.527 89.0144C307.928 90.3612 310.913 92.7494 311.665 92.673C312.416 92.5967 313.239 91.4244 312.188 89.9686Z" fill="#E0D8C7"/>
<path d="M306.314 82.6883C306.314 82.2889 306.232 81.9681 306.466 81.7078C306.714 81.4599 307.032 81.2989 307.374 81.2478C308.053 81.11 308.757 81.1859 309.394 81.4657C309.714 81.6135 310.02 81.7918 310.308 81.9983C312.651 83.6264 314.308 86.0958 315.509 88.7407C315.919 90.0305 316.256 91.3442 316.517 92.6748L314.174 91.9788C312.048 86.925 306.507 84.7159 306.314 82.6883Z" fill="#E0D8C7"/>
<path d="M321.724 102.892L315.989 96.8701C315.758 96.5946 315.477 96.3658 315.16 96.1962C314.748 96.0501 314.309 95.9927 313.873 96.0277C311.724 96.0263 309.592 95.6435 307.577 94.8973C308.447 93.733 309.498 92.7147 310.69 91.8811C312.87 90.3431 315.88 89.4899 318.289 90.6801C319.968 91.5116 321.075 93.1746 321.833 94.881C322.923 97.2831 323.414 100.174 322.165 102.489" fill="#E0D8C7"/>
<path d="M317.127 100.415C317.972 102.763 318.58 105.191 318.941 107.662C319.301 110.146 318.906 112.682 317.807 114.938C316.822 116.71 315.365 118.173 313.6 119.164C311.084 120.67 308.085 121.141 305.231 120.478C303.82 120.126 302.519 119.429 301.443 118.448C300.368 117.467 299.551 116.233 299.068 114.858C298.642 113.381 298.53 111.83 298.739 110.307C298.911 107.93 299.801 105.662 301.291 103.805C305.826 99.2541 313.645 96.1425 315.102 96.5407C316.56 96.9389 317.127 100.415 317.127 100.415Z" fill="#E0D8C7"/>
<path d="M315.112 100.338C315.386 102.355 315.22 104.405 314.626 106.356C314.032 108.308 313.022 110.119 311.663 111.672C311.593 111.746 311.51 111.832 311.409 111.832" stroke="#FAF2E1" stroke-linecap="round" stroke-linejoin="round"/>
<path d="M312.687 101.615L307.578 111.832V111.508" stroke="#FAF2E1" stroke-linecap="round" stroke-linejoin="round"/>
<path d="M312.687 100.338C309.493 102.189 306.815 105.314 305.024 109.277" stroke="#FAF2E1" stroke-linecap="round" stroke-linejoin="round"/>
<path d="M318.702 90.1208C318.931 91.3113 319.051 92.5215 319.059 93.7352C319.137 95.2167 318.82 96.692 318.141 98.0003C317.065 99.8075 315.024 100.765 313.113 101.615C312.493 99.2051 312.417 96.4762 313.767 94.4159C314.383 93.5505 315.129 92.7919 315.977 92.169C316.756 91.5019 317.619 90.9485 318.544 90.5244" fill="#E0D8C7"/>
<path d="M304.139 106.789L303.796 106.723L303.454 106.789C303.137 106.944 302.865 107.256 302.685 107.673C302.578 107.886 302.515 108.14 302.502 108.405C302.458 108.656 302.458 108.919 302.502 109.17L302.636 109.625C302.745 109.896 302.898 110.123 303.08 110.284L303.387 110.482C303.613 110.568 303.85 110.568 304.076 110.482L303.73 110.555L303.387 110.482C303.554 110.562 303.732 110.573 303.903 110.515C304.074 110.507 304.24 110.43 304.383 110.291C304.531 110.175 304.657 110.005 304.748 109.796C304.863 109.611 304.943 109.383 304.979 109.137L305.023 108.629C305.025 108.289 304.965 107.954 304.85 107.66L304.645 107.271C304.487 107.038 304.291 106.87 304.076 106.783L304.139 106.789Z" fill="#FAF2E1"/>
<path d="M308.304 113.798C308.534 113.566 308.7 113.277 308.785 112.961C308.878 112.634 308.878 112.287 308.785 111.96L308.594 111.505C308.476 111.287 308.306 111.101 308.099 110.965C307.981 110.849 307.836 110.765 307.677 110.721C307.45 110.601 307.195 110.544 306.938 110.556C306.683 110.544 306.43 110.601 306.206 110.721C305.969 110.798 305.755 110.934 305.586 111.116L305.289 111.505C305.15 111.718 305.071 111.963 305.058 112.217C305.012 112.383 305.012 112.558 305.058 112.724C305.073 112.977 305.152 113.222 305.289 113.436L305.586 113.825C305.82 114.057 306.111 114.225 306.43 114.312L306.938 114.385C307.194 114.394 307.449 114.337 307.677 114.22C307.836 114.173 307.982 114.087 308.099 113.97C308.307 113.837 308.478 113.653 308.594 113.436L306.958 114.378C307.128 114.393 307.3 114.368 307.459 114.306C307.776 114.221 308.064 114.055 308.297 113.825L308.304 113.798Z" fill="#FAF2E1"/>
<path d="M311.412 110.556C311.241 110.546 311.071 110.602 310.92 110.72C310.764 110.806 310.623 110.941 310.507 111.116C310.39 111.291 310.3 111.502 310.243 111.735C310.164 111.963 310.126 112.217 310.133 112.473L310.181 112.98C310.238 113.3 310.35 113.591 310.507 113.824L310.766 114.12C310.961 114.296 311.184 114.387 311.412 114.384C311.581 114.396 311.75 114.34 311.899 114.219C312.057 114.142 312.199 114.006 312.312 113.824C312.434 113.657 312.524 113.446 312.576 113.211C312.654 112.983 312.692 112.729 312.686 112.473L312.642 111.966C312.582 111.645 312.468 111.353 312.312 111.116L312.053 110.819C311.858 110.65 311.637 110.56 311.412 110.556Z" fill="#FAF2E1"/>
<path d="M288.607 134.107C287.845 132.945 286.808 131.915 285.963 130.819C285.053 129.72 284.575 128.43 284.59 127.114C284.658 126.36 284.972 125.634 285.503 125.007C286.033 124.381 286.76 123.877 287.611 123.546C287.853 123.434 288.121 123.363 288.398 123.337C288.676 123.311 288.957 123.329 289.225 123.393C289.56 123.519 289.854 123.707 290.083 123.941C291.665 125.417 292.75 127.19 293.238 129.092C293.726 130.995 293.599 132.966 292.871 134.819" fill="#E0D8C7"/>
<path d="M292.252 134.694C292.616 133.176 292.968 131.653 293.31 130.125C293.55 129.112 293.811 128.043 294.525 127.292C294.872 126.956 295.261 126.668 295.681 126.434C296.341 126.045 297.158 125.661 297.829 126.028C298.499 126.395 298.658 127.33 298.636 128.121C298.529 131.096 297.366 133.931 295.365 136.097" fill="#E0D8C7"/>
<path d="M294.806 136.65C295.411 135.657 296.016 134.68 296.699 133.724C297.799 132.148 299.117 130.573 301.1 129.885C301.977 129.596 303.186 129.617 303.603 130.342C303.794 130.775 303.794 131.253 303.603 131.686C303.095 133.198 302.225 134.599 301.051 135.799C299.877 136.999 298.425 137.971 296.789 138.651" fill="#E0D8C7"/>
<path d="M297.36 138.027L300.314 135.76C301.163 135.052 302.103 134.451 303.11 133.972C304.128 133.495 305.297 133.412 306.377 133.74C306.595 133.784 306.801 133.875 306.979 134.004C307.157 134.134 307.303 134.3 307.406 134.491C307.509 134.682 307.567 134.892 307.576 135.107C307.585 135.321 307.544 135.535 307.456 135.733C307.077 136.688 306.428 137.522 305.583 138.141C303.652 139.72 301.32 140.778 298.826 141.205" fill="#E0D8C7"/>
<path d="M300.047 142.291C303.022 141.5 306.157 140.708 309.109 141.598C309.689 141.744 310.231 142.027 310.697 142.426C310.927 142.627 311.11 142.883 311.234 143.172C311.357 143.461 311.416 143.777 311.407 144.095C311.359 144.452 311.229 144.79 311.029 145.08C310.829 145.37 310.565 145.603 310.261 145.758C309.364 146.197 308.377 146.381 307.395 146.292C304.317 146.292 301.039 145.856 298.637 143.801" fill="#E0D8C7"/>
<path d="M292.251 141.205C289.957 146.281 283.888 150.285 278.387 150.267C276.999 150.267 275.623 150.019 274.24 150.013C271.817 150.05 269.456 150.805 267.44 152.188C265.425 153.57 263.84 155.522 262.877 157.808" stroke="#E0D8C7" stroke-miterlimit="10"/>
<path d="M279.476 144.369C279.504 142.897 279.428 141.425 279.25 139.968C279.014 138.157 278.759 136.245 277.743 134.82C275.936 136.732 275.513 139.849 275.685 142.672C275.833 145.099 276.437 147.684 278.101 149.189L279.083 150.145C278.784 149.734 278.583 149.241 278.499 148.714C278.455 147.99 279.451 146.406 279.476 144.369Z" fill="#E0D8C7"/>
<path d="M287.895 152.873C290.179 153.876 292.132 155.493 293.529 157.541C290.906 158.037 288.196 157.838 285.676 156.963C283.156 156.089 280.915 154.57 279.182 152.561C278.821 152.173 278.545 151.715 278.371 151.216C278.28 150.865 278.224 150.506 278.204 150.145C281.578 150.449 284.865 151.374 287.895 152.873Z" fill="#E0D8C7"/>
<path d="M284.59 148.868C285.097 148.191 285.444 147.386 285.602 146.524C285.74 146.005 285.829 145.471 285.867 144.931C285.874 144.245 285.81 143.561 285.676 142.892C285.586 142.306 285.49 141.767 285.4 141.205" stroke="#E0D8C7" stroke-width="0.99" stroke-linecap="round" stroke-linejoin="round"/>
<path d="M284.59 148.036C287.572 147.23 290.736 147.524 293.529 148.868" stroke="#E0D8C7" stroke-miterlimit="10"/>
<path d="M285.605 141.161C285.87 140.28 285.935 139.354 285.797 138.447C285.658 137.54 285.32 136.672 284.804 135.902C284.144 135.022 283.369 134.229 282.497 133.542C281.905 134.958 281.882 136.536 282.433 137.966C282.996 139.382 284.095 140.54 285.507 141.205" fill="#E0D8C7"/>
<path d="M293.529 149.295C294.34 148.571 295.425 148.864 296.316 149.451C297.491 150.25 298.514 151.673 298.638 153.401C298.43 153.629 298.187 153.794 297.926 153.888C297.666 153.982 297.393 154.001 297.126 153.944C296.219 153.859 295.358 153.384 294.676 152.59C294.34 152.195 294.067 151.715 293.874 151.179C293.68 150.644 293.569 150.062 293.548 149.47" fill="#E0D8C7"/>
<path d="M294.262 123.326C294.124 123.325 293.987 123.314 293.853 123.292L293.739 123.271C293.5 123.241 293.272 123.178 293.069 123.086C292.866 122.993 292.692 122.873 292.557 122.732C292.422 122.591 292.329 122.433 292.284 122.267C292.238 122.101 292.241 121.93 292.293 121.764C292.344 121.599 292.443 121.442 292.583 121.304C292.723 121.166 292.901 121.049 293.107 120.96C293.314 120.871 293.544 120.812 293.783 120.786C294.023 120.76 294.268 120.769 294.503 120.811L294.665 120.836C295.101 120.903 295.486 121.08 295.746 121.333C296.006 121.586 296.122 121.898 296.072 122.207C296.021 122.517 295.809 122.803 295.475 123.009C295.14 123.216 294.709 123.328 294.262 123.326Z" fill="#E0D8C7"/>
<path d="M302.467 125.88C302.282 125.878 302.099 125.836 301.931 125.758C301.763 125.679 301.614 125.565 301.495 125.424C301.375 125.283 301.288 125.118 301.239 124.94C301.189 124.763 301.179 124.576 301.208 124.394C301.258 124.097 301.411 123.827 301.642 123.631C301.872 123.436 302.164 123.328 302.467 123.326C302.685 123.33 302.898 123.388 303.087 123.496C303.277 123.603 303.436 123.756 303.551 123.94C303.665 124.124 303.732 124.334 303.744 124.55C303.756 124.767 303.714 124.983 303.621 125.179C303.512 125.39 303.347 125.568 303.143 125.691C302.94 125.815 302.706 125.88 302.467 125.88Z" fill="#E0D8C7"/>
<path d="M308.846 130.988C308.634 130.987 308.426 130.933 308.24 130.83C308.055 130.728 307.898 130.58 307.785 130.402V130.381C307.693 130.242 307.63 130.087 307.599 129.924C307.568 129.761 307.569 129.593 307.604 129.431C307.638 129.268 307.705 129.114 307.8 128.977C307.894 128.841 308.015 128.724 308.155 128.634C308.434 128.455 308.773 128.393 309.098 128.461C309.422 128.528 309.707 128.72 309.891 128.994L309.933 129.057C310.055 129.248 310.123 129.467 310.13 129.693C310.137 129.919 310.083 130.142 309.973 130.34C309.863 130.537 309.702 130.702 309.506 130.816C309.31 130.93 309.086 130.99 308.859 130.988H308.846Z" fill="#E0D8C7"/>
<path d="M312.681 139.928C312.461 139.927 312.245 139.843 312.053 139.682C311.861 139.522 311.699 139.29 311.583 139.01L311.553 138.945C311.406 138.515 311.37 138.018 311.452 137.55C311.534 137.083 311.728 136.678 311.997 136.413C312.266 136.149 312.591 136.045 312.908 136.12C313.225 136.196 313.512 136.446 313.714 136.822L313.766 136.939C313.889 137.235 313.956 137.575 313.962 137.924C313.968 138.273 313.912 138.618 313.8 138.923C313.687 139.228 313.522 139.482 313.323 139.659C313.123 139.836 312.895 139.928 312.664 139.928H312.681Z" fill="#E0D8C7"/>
<path d="M287.265 135.514L287.143 133.712C287.143 133.712 291.4 132.656 296.326 135.813C301.252 138.969 301.191 145.036 301.191 145.036C301.191 145.036 295.864 144.043 293.748 142.924" fill="#E0D8C7"/>
<path d="M298.576 143.328C297.571 140.644 295.869 138.333 293.677 136.672C292.48 135.656 291.048 135.016 289.538 134.82H289.414C289.238 134.82 289.067 134.82 288.897 134.82C288.737 134.824 288.578 134.839 288.421 134.864C288.545 136.057 289.093 138.189 291.225 140.311C293.315 142.248 295.901 143.45 298.638 143.759L298.576 143.328Z" fill="#E0D8C7"/>
<path d="M288.42 133.567C288.42 133.567 297.997 132.543 299.914 143.759" stroke="#FAF2E1" stroke-linecap="round" stroke-linejoin="round"/>
<path d="M341.308 105.446C332.504 119.561 332.322 137.188 334.887 153.476C337.452 169.765 342.517 185.732 343.257 202.19C343.997 218.648 339.688 236.433 326.735 247.205" stroke="#E0D8C7" stroke-miterlimit="10"/>
<path d="M334.097 122.049C331.232 127.028 327.802 131.642 323.879 135.791C320.376 139.492 316.454 142.856 313.682 147.168C313.06 148.132 312.477 149.287 312.76 150.409C313.099 151.766 314.566 152.495 315.925 152.652C319.253 153.038 322.504 151.025 324.577 148.317C326.65 145.609 327.763 142.279 328.844 139.015C330.699 133.408 332.55 127.814 334.397 122.234L334.097 122.049Z" fill="#E0D8C7"/>
<path d="M337.292 128.112C336.115 125.782 335.236 123.316 334.675 120.771C333.983 128.997 334.588 137.28 336.469 145.322C336.949 147.351 337.549 149.431 338.817 150.95C340.085 152.47 342.205 153.258 343.816 152.243C345.427 151.228 345.924 148.989 345.89 146.954C345.77 139.766 340.434 134.342 337.292 128.112Z" fill="#E0D8C7"/>
<path d="M332.696 141.205C334.042 154.32 331.774 160.456 331.469 163.233C330.824 169.101 327.731 175.698 322.75 178.794C322.087 179.263 321.297 179.516 320.488 179.519C318.695 179.399 317.593 177.278 317.824 175.481C318.056 173.685 319.17 172.14 320.239 170.68C323.168 166.654 332.521 153.682 332.713 141.205" fill="#E0D8C7"/>
<path d="M342.601 172.853C343.66 174.171 344.746 175.97 346.371 175.649C348.167 175.294 348.689 172.841 348.345 170.979C347.386 165.74 343.077 162.004 339.895 157.797C336.011 152.644 333.658 146.436 333.119 139.928C333.119 139.928 333.385 144.427 333.502 145.716C333.618 147.006 335.592 164.073 342.601 172.853Z" fill="#E0D8C7"/>
<path d="M336.17 164.193C336.288 174.903 331.884 182.688 327.388 191.774C326.499 193.578 325.566 195.444 325.465 197.468C325.363 199.491 326.338 201.746 328.181 202.349C330.48 203.093 332.736 201.069 334.075 198.967C339.669 190.196 338.458 178.646 337.033 168.19" fill="#E0D8C7"/>
<path d="M340.166 199.777C339.261 204.277 337.029 208.413 333.753 211.665C329.912 215.468 324.645 218.061 322.146 222.839C321.694 223.541 321.528 224.386 321.682 225.205C322.198 227.005 324.788 227.016 326.582 226.416C336.355 223.167 341.169 212.751 341.932 202.562C342.142 199.356 342.093 196.138 341.783 192.939L341.336 189.735L340.166 199.777Z" fill="#E0D8C7"/>
<path d="M340.781 224.217C338.237 228.787 334.758 232.766 330.572 235.894C327.459 238.217 323.991 240.018 321.019 242.545C318.047 245.072 315.527 248.437 315.256 252.318C315.143 254.018 315.573 255.888 316.951 256.851C318.979 258.216 321.708 256.896 323.623 255.372C331.584 249.083 336.262 239.492 339.245 229.82" fill="#E0D8C7"/>
<path d="M339.881 240.67C339.278 243.062 339.109 246.419 341.642 247.104C344.053 247.756 345.862 245.117 346.579 242.888C352.668 213.757 341.901 198.675 341.901 198.675C341.901 198.675 345.759 221.96 339.881 240.67Z" fill="#E0D8C7"/>
<path d="M338.228 173.133C338.228 173.133 359.185 192.027 347.407 207.614C345.662 207.758 347.378 194.336 338.228 174.282" fill="#E0D8C7"/>
<path d="M283.312 221.663C278.565 227.202 271.8 232.091 264.155 231.873" stroke="#E0D8C7" stroke-linecap="round" stroke-linejoin="round"/>
<path d="M286.574 216.373C289.295 218.749 290.716 222.298 291.962 225.736C293.808 230.817 295.511 236.262 294.51 241.589C294.494 241.807 294.433 242.02 294.332 242.212C294.23 242.405 294.091 242.573 293.922 242.707C293.252 243.098 292.496 242.366 292.093 241.69C291.154 240.119 290.451 238.411 290.008 236.625C290.008 239.129 290.106 241.818 291.565 243.819C291.809 244.108 292.019 244.425 292.191 244.764C292.626 245.804 291.864 247.089 290.808 247.408C290.269 247.53 289.707 247.501 289.182 247.323C288.657 247.145 288.188 246.825 287.826 246.396C287.109 245.53 286.618 244.492 286.4 243.378C286.133 242.26 285.975 241.142 285.616 240.08C285.165 241.102 284.984 242.229 285.09 243.346C285.196 244.463 285.585 245.532 286.22 246.446C286.765 247.057 287.223 247.744 287.581 248.487C287.681 248.835 287.712 249.2 287.67 249.561C287.628 249.921 287.515 250.269 287.338 250.583C287.16 250.897 286.922 251.171 286.639 251.387C286.355 251.603 286.031 251.758 285.687 251.841C285.376 251.913 285.051 251.886 284.756 251.762C284.464 251.603 284.213 251.373 284.027 251.092C281.784 248.107 281.512 244.082 281.305 240.32C280.17 243.546 280.17 247.078 281.305 250.304C281.599 250.979 281.795 251.694 281.887 252.428C281.928 252.796 281.863 253.169 281.701 253.501C281.538 253.832 281.285 254.108 280.973 254.295C279.884 254.803 278.747 253.669 278.252 252.556C276.842 249.426 277.321 245.787 277.832 242.371C276.857 243.929 276.195 245.671 275.885 247.494C275.574 249.318 275.622 251.188 276.025 252.992C276.243 253.92 276.51 255.038 275.862 255.726C275.602 255.961 275.275 256.106 274.93 256.138C274.584 256.17 274.238 256.088 273.941 255.905C273.355 255.521 272.902 254.958 272.645 254.295C271.896 252.434 271.736 250.379 272.188 248.42C272.649 246.495 273.306 244.625 274.148 242.841C271.958 245.258 270.617 248.356 270.338 251.645C270.261 252.5 270.201 253.495 269.521 253.993C268.656 254.63 267.344 253.926 266.979 252.903C266.615 251.88 266.887 250.745 267.235 249.711C268.015 247.369 269.093 245.144 270.441 243.093C267.366 244.725 266.457 248.738 264.29 251.505C261.368 249.521 258.227 247.151 257.519 243.629C259.952 242.103 262.136 240.194 263.991 237.972C262.193 239.28 260.223 240.319 258.14 241.058C257.373 241.42 256.506 241.495 255.691 241.27C254.907 240.968 254.379 239.89 254.896 239.208C255.251 238.854 255.71 238.63 256.202 238.57C258.989 237.848 261.449 236.162 263.169 233.797L258.858 235.625C257.634 236.144 256.311 236.675 255.048 236.362C253.786 236.049 252.692 234.495 253.356 233.316C256.373 233.244 259.341 232.516 262.064 231.181C260.453 231.687 258.754 231.83 257.084 231.6C256.243 231.486 255.436 231.187 254.718 230.724C253.999 230.261 253.386 229.645 252.92 228.917C252.653 228.458 252.506 227.76 252.92 227.463C253.163 227.342 253.44 227.308 253.704 227.368C256.145 227.613 258.606 227.542 261.03 227.156C259.76 227.491 258.433 227.535 257.144 227.284C255.876 226.96 254.684 225.988 254.455 224.668C254.243 223.444 254.863 222.248 255.467 221.169C257.718 222.37 260.248 222.904 262.777 222.712C261.411 222.693 260.073 222.307 258.896 221.594C258.064 221.085 257.264 220.196 257.47 219.229C257.677 218.262 258.799 217.849 259.729 217.977C260.66 218.106 261.487 218.637 262.358 218.983C263.229 219.33 264.301 219.481 265.08 218.911C263.861 218.54 262.699 217.994 261.629 217.29C261.39 217.174 261.198 216.976 261.085 216.731C260.932 216.228 261.433 215.786 261.874 215.518C266.397 212.723 271.671 210.945 276.896 211.571C282.122 212.197 287.211 215.613 288.844 220.739" fill="#E0D8C7"/>
<path d="M287.754 216.177C290.226 218.237 292.021 220.979 292.907 224.054C293.793 227.128 293.732 230.394 292.729 233.433C291.725 236.321 289.845 239.029 290.008 242.096C289.077 242.191 288.136 242.035 287.287 241.644C286.438 241.253 285.713 240.641 285.187 239.875C284.662 239.108 284.356 238.215 284.303 237.29C284.251 236.365 284.452 235.443 284.887 234.623C283.45 236.933 283.777 239.902 284.303 242.575C284.443 243.326 284.525 244.256 283.888 244.683C283.252 245.111 282.253 244.608 281.745 243.944C279.993 241.634 280.636 238.4 281.599 235.691C280.952 237.144 280.525 238.683 280.332 240.26C280.116 242.05 280.18 243.956 279.269 245.515C279.194 245.673 279.069 245.803 278.913 245.885C278.61 246.023 278.259 245.804 278.02 245.567C276.7 244.268 276.355 242.24 276.665 240.433C277.079 238.634 277.781 236.913 278.744 235.333C277.447 237.32 276.451 239.483 275.789 241.755C275.652 242.398 275.392 243.01 275.024 243.557C274.834 243.827 274.56 244.029 274.245 244.133C273.929 244.237 273.588 244.237 273.272 244.135C272.291 243.707 272.431 242.298 272.782 241.299C273.574 239.051 274.616 236.898 275.888 234.877C274.462 237.757 272.09 240.074 269.161 241.449C268.56 241.778 267.88 241.941 267.193 241.923C266.852 241.903 266.527 241.773 266.268 241.553C266.008 241.333 265.829 241.035 265.757 240.704C265.746 240.24 265.88 239.784 266.142 239.399C267.935 236.158 270.363 233.304 273.284 231.002C271.152 233.462 268.752 235.986 265.57 236.777C265.034 236.948 264.458 236.948 263.923 236.777C263.657 236.688 263.433 236.506 263.292 236.267C263.15 236.027 263.101 235.745 263.152 235.472C263.281 235.022 263.736 234.756 264.139 234.525C266.919 232.968 269.486 231.066 271.777 228.865C269.694 230.729 267.166 232.041 264.431 232.677C263.035 232.994 261.179 232.908 260.653 231.591C260.57 231.407 260.534 231.205 260.549 231.004C260.563 230.802 260.627 230.607 260.735 230.436C260.927 230.232 261.159 230.069 261.417 229.957C261.675 229.845 261.954 229.786 262.235 229.783C265.036 229.361 267.743 228.464 270.236 227.133C268.548 228.057 266.779 228.998 264.846 229.079C262.913 229.16 260.799 228.068 260.373 226.191C260.221 225.51 260.419 224.632 261.091 224.418C261.446 224.344 261.816 224.366 262.16 224.482C264.818 225.079 267.602 224.791 270.078 223.662C269.032 224.212 267.908 224.601 266.744 224.817C266.16 224.916 265.563 224.893 264.989 224.749C264.416 224.604 263.879 224.342 263.415 223.979C262.095 222.824 261.979 220.872 261.961 219.128C263.567 219.544 265.161 218.551 266.545 217.661C268.972 215.965 271.615 214.594 274.405 213.584C277.217 212.569 280.279 212.448 283.164 213.238C285.595 214.031 287.729 215.528 289.29 217.534" fill="#E0D8C7"/>
<path d="M286.725 214.714C284.897 213.714 282.661 213.904 280.641 214.44C279.179 214.826 277.742 215.302 276.34 215.866C275.242 216.308 274.077 216.906 273.635 217.997C274.481 218.028 275.329 217.998 276.171 217.907C275.605 218.058 275.039 218.226 274.439 218.427C273.453 218.709 272.553 219.228 271.819 219.937C272.056 220.328 272.617 220.328 273.069 220.272L273.477 220.211C273.048 220.334 272.659 220.563 272.345 220.876C272.281 220.935 272.239 221.014 272.226 221.1C272.226 221.152 272.238 221.203 272.262 221.25C272.286 221.296 272.32 221.337 272.362 221.368C272.563 221.495 272.789 221.578 273.026 221.611C273.262 221.644 273.503 221.626 273.731 221.558L279.481 220.686C277.379 221.428 275.351 222.364 273.426 223.482C272.911 223.778 272.345 224.181 272.294 224.773C274.407 224.214 276.453 223.431 278.395 222.436C276.697 223.8 274.507 224.712 273.228 226.49C273.024 226.769 272.9 227.245 273.228 227.379C273.353 227.421 273.488 227.421 273.613 227.379C275.749 226.833 277.722 225.79 279.368 224.337C278.632 225.204 277.715 225.897 276.901 226.691C276.036 227.447 275.426 228.446 275.152 229.554C275.307 229.604 275.472 229.614 275.632 229.582C275.792 229.549 275.941 229.476 276.063 229.369C278.102 228.093 279.851 226.414 281.201 224.438C280.013 226.255 278.972 228.162 278.089 230.141C277.908 230.544 277.8 231.136 278.208 231.321C278.32 231.356 278.438 231.364 278.554 231.346C278.67 231.327 278.78 231.282 278.876 231.215C279.575 230.754 280.147 230.127 280.539 229.392C281.422 228.03 282.18 226.593 282.803 225.098C282.088 226.855 281.54 228.674 281.167 230.532C281.105 230.719 281.094 230.919 281.135 231.111C281.175 231.303 281.267 231.482 281.399 231.628C282.122 230.781 282.678 229.808 283.041 228.76C283.606 227.412 284.127 226.048 284.636 224.678C284.376 226.562 284.121 228.441 283.861 230.32C283.782 230.879 283.771 231.6 284.28 231.88C285.606 229.515 286.571 226.97 287.143 224.326C287.047 226.149 286.945 227.977 286.849 229.8C286.849 230.068 286.9 230.432 287.172 230.443C287.29 230.437 287.401 230.387 287.483 230.303C287.987 229.786 288.337 229.142 288.496 228.441C288.907 227.154 289.192 225.83 289.345 224.488L289.435 224.751C290.488 218.55 288.134 215.492 286.725 214.714Z" fill="#E0D8C7"/>
<path d="M287.447 216.605C288.632 218.206 288.673 220.637 287.907 222.51C287.527 223.453 286.884 224.246 286.068 224.778C285.251 225.31 284.302 225.556 283.35 225.481C282.526 225.346 281.749 224.982 281.094 224.427C280.516 223.97 280.053 223.364 279.748 222.665C279.505 221.973 279.426 221.227 279.519 220.493C279.611 219.76 279.872 219.063 280.277 218.466C281.106 217.272 282.225 216.349 283.511 215.799C284.263 215.389 285.106 215.215 285.945 215.297C285.945 215.297 286.452 215.272 287.447 216.605Z" fill="#E0D8C7"/>
<path d="M193.914 234.434C208.079 227.468 221.371 217.092 227.603 202.654C231.15 194.439 232.215 185.419 234.402 176.77C236.589 168.122 240.312 159.282 247.553 153.976" stroke="#E0D8C7" stroke-linecap="round" stroke-linejoin="round"/>
<path d="M232.964 180.795C234.53 177.117 237.433 174.644 240.664 172.089C244.549 169.022 248.142 165.53 250.637 161.378C253.132 157.226 254.487 152.336 253.728 147.611C249.469 147.374 245.315 149.263 242.224 152.066C239.134 154.871 236.721 158.271 235.149 162.033C232.309 168.774 232.228 180.79 232.228 180.79L232.964 180.795Z" fill="#E0D8C7"/>
<path d="M229.674 197.398C232.864 189.234 241.832 180.97 246.802 177.328C252.125 173.461 259.006 172.83 265.433 171.856C259.49 185.698 246.097 195.781 231.601 197.368L229.674 197.398Z" fill="#E0D8C7"/>
<path d="M144.108 249.71C153.353 253.095 162.985 255.921 172.877 256.133C182.769 256.345 193.041 253.65 200.301 247.205C183.948 249.694 166.637 253.53 149.587 250.699C144.653 249.911 144.108 249.71 144.108 249.71Z" fill="#E0D8C7"/>
<path d="M170.928 244.651C170.928 244.651 185.045 241.959 192.499 242.208C197.056 242.358 201.303 242.862 205.075 242.329C207.643 241.921 210.159 241.218 212.574 240.234C217.243 238.417 221.695 236.061 225.844 233.211C225.844 233.211 192.86 226.125 170.928 244.651Z" fill="#E0D8C7"/>
<path d="M256.493 201.229C246.904 201.181 237.981 205.678 230.15 210.823C222.459 215.88 215.235 221.725 206.686 225.375C226.308 226.69 246.42 217.004 256.493 201.229Z" fill="#E0D8C7"/>
<path d="M256.493 157.812C277.883 157.474 294.417 175.906 293.492 196.255C293.215 201.978 291.729 207.584 289.128 212.723" stroke="#E0D8C7" stroke-miterlimit="10"/>
<path d="M271.948 197.184C271.041 197.487 270.054 197.467 269.161 197.129C268.724 196.945 268.372 196.613 268.17 196.194C267.968 195.776 267.931 195.301 268.066 194.858C268.235 194.513 268.475 194.206 268.771 193.956C273.123 189.803 278.519 186.296 280.934 180.863C282.096 178.154 282.447 175.181 281.946 172.286C281.445 169.392 280.112 166.694 278.101 164.503L276.61 162.916L279.477 164.87C279.477 164.87 288.388 175.402 279.041 192.258C277.011 195.876 271.948 197.184 271.948 197.184Z" fill="#E0D8C7"/>
<path d="M293.529 189.735C296.796 190.492 300.944 212.153 308.13 221.293C310.997 224.936 314.581 228.477 315.169 233.033C315.328 233.863 315.219 234.721 314.857 235.488C314.494 236.033 313.974 236.461 313.363 236.719C312.751 236.976 312.075 237.051 311.42 236.934C310.108 236.679 308.891 236.085 307.895 235.213C301.884 230.491 299.129 222.854 297.76 215.44C296.391 208.027 296.097 200.379 293.647 193.223" fill="#E0D8C7"/>
<path d="M298.007 178.88C299.169 179.248 300.371 179.449 301.581 179.48C303.616 179.646 305.658 179.277 307.533 178.406C308.46 177.953 309.281 177.28 309.934 176.437C310.588 175.593 311.057 174.601 311.307 173.534C311.729 171.38 310.809 168.896 308.958 167.984C306.979 167.005 304.701 167.948 302.634 168.686C296.233 170.966 288.84 171.044 283.088 167.239L282.035 166.747L283.913 168.824C283.913 168.824 290.204 175.742 298.007 178.88Z" fill="#E0D8C7"/>
<path d="M313.536 194.843C311.8 194.949 310.695 196.684 310.325 198.261C310.105 199.051 310.071 199.875 310.227 200.678C310.759 202.995 313.907 204.424 316.291 203.498C318.675 202.572 319.762 199.626 318.605 197.52C317.965 196.48 316.926 195.692 315.69 195.309C314.453 194.925 313.105 194.972 311.905 195.441" fill="#E0D8C7"/>
<path d="M235.707 242.077C235.52 242.103 235.331 242.103 235.145 242.077C234.066 241.888 232.965 240.415 232.965 240.415C231.92 238.861 230.897 237.136 230.953 235.274C231.048 234.056 231.434 232.88 232.077 231.847C232.463 231.051 233.044 230.369 233.763 229.865C234.249 229.578 234.792 229.404 235.353 229.357C236.055 229.279 236.765 229.346 237.441 229.553C238.118 229.761 238.746 230.104 239.289 230.564C239.831 231.023 240.277 231.589 240.6 232.228C240.923 232.866 241.116 233.564 241.168 234.281C236.134 235.12 235.662 239.946 235.707 242.077Z" fill="#E0D8C7"/>
<path d="M230.711 245.919C229.339 245.982 227.972 245.707 226.732 245.119C226.2 244.856 225.688 244.556 225.199 244.221C224.628 243.886 224.14 243.428 223.77 242.88C223.42 242.145 223.263 241.333 223.313 240.521C223.241 239.677 223.331 238.827 223.579 238.017C223.962 237.175 224.544 236.436 225.274 235.865C225.868 235.283 226.583 234.837 227.368 234.558C227.76 234.426 228.181 234.398 228.587 234.479C228.993 234.56 229.371 234.746 229.682 235.019C229.682 235.019 229.294 239.191 232.447 241.741C235.599 244.29 230.711 245.919 230.711 245.919Z" fill="#E0D8C7"/>
<path d="M234.508 250.165C232.566 252.072 229.965 253.929 228.653 253.538C226.778 252.97 225.506 251.051 224.887 249.065C224.606 248.288 224.506 247.448 224.597 246.62C224.717 245.807 225.194 244.347 225.881 244.707C226.568 245.068 229.936 247.549 232.458 246.253C234.979 244.958 235.263 245.178 235.263 245.178L236.019 246.498C236.019 246.498 236.445 248.258 234.508 250.165Z" fill="#E0D8C7"/>
<path d="M240.031 253.971C239.337 255.708 243.368 254.544 244.866 253.639C246.204 252.826 247.514 251.508 247.553 249.802C247.542 249.087 247.378 248.386 247.074 247.758C245.791 244.863 242.806 242.874 239.965 243.484C239.965 243.484 237.426 243.114 237.338 244.58C237.25 246.046 239.541 246.846 239.816 247.659C240.092 248.472 241.435 250.43 240.031 253.971Z" fill="#E0D8C7"/>
<path d="M245.563 246.897C246.904 248.534 247.948 243.209 247.407 241.141C246.974 239.795 246.249 238.569 245.287 237.552C244.52 236.665 243.584 235.772 242.432 235.722C241.97 235.681 241.504 235.755 241.075 235.938C240.232 236.332 236.901 237.391 236.133 242.383C235.365 247.374 240.707 240.969 245.563 246.897Z" fill="#E0D8C7"/>
<path d="M236.097 245.928C235.7 252.63 229.824 251.299 229.674 254.7C229.822 255.545 230.244 256.318 230.877 256.903C231.581 257.316 232.403 257.49 233.216 257.398C235.213 257.35 237.426 257.034 238.713 255.542C239.526 254.528 239.943 253.256 239.885 251.961C239.725 250.512 239.394 249.086 238.899 247.712C238.59 247.231 238.18 246.822 237.696 246.514C237.212 246.206 236.666 246.006 236.097 245.928Z" fill="#E0D8C7"/>
<path d="M239.686 246.073C240.277 244.678 239.521 243.068 238.292 242.069C237.783 241.641 237.181 241.311 236.524 241.098C235.867 240.884 235.168 240.792 234.469 240.827C233.772 240.874 233.102 241.088 232.529 241.446C231.957 241.805 231.505 242.294 231.22 242.863C230.988 243.42 230.904 244.017 230.975 244.608C231.046 245.199 231.269 245.767 231.628 246.267C232.744 247.872 233.589 248.772 236.513 248.398C239.438 248.025 239.686 246.073 239.686 246.073Z" fill="#E0D8C7"/>
<path d="M239.686 246.073C240.277 244.678 239.521 243.068 238.292 242.069C237.783 241.641 237.181 241.311 236.524 241.098C235.867 240.884 235.168 240.792 234.469 240.827C233.772 240.874 233.102 241.088 232.529 241.446C231.957 241.805 231.505 242.294 231.22 242.863C230.988 243.42 230.904 244.017 230.975 244.608C231.046 245.199 231.269 245.767 231.628 246.267C232.744 247.872 233.589 248.772 236.513 248.398C239.438 248.025 239.686 246.073 239.686 246.073Z" stroke="#FAF2E1" stroke-miterlimit="10"/>
<path d="M251.384 133.542C257.58 127.466 261.508 119.31 262.471 110.516C262.489 109.968 262.615 109.429 262.843 108.933C263.597 107.592 265.698 107.782 266.69 108.962C267.682 110.142 267.865 111.788 267.937 113.337C268.17 118.011 267.671 123.238 264.323 126.364C263.017 127.469 261.562 128.369 260.004 129.035L252.033 132.944" fill="#E0D8C7"/>
<path d="M273.096 120.127C275.132 116.998 275.596 113.085 275.467 109.346C275.339 105.607 274.685 101.901 274.718 98.1615C274.669 97.4427 274.826 96.7248 275.171 96.0928C276.015 94.8482 278.051 95.0388 279.13 96.0928C280.209 97.1467 280.59 98.7053 280.903 100.18C281.758 104.188 282.53 108.359 281.641 112.362C280.752 116.365 277.782 120.211 273.734 120.771" fill="#E0D8C7"/>
<path d="M259.05 146.133C258.999 143.349 259.646 140.596 260.931 138.131C262.217 135.666 264.1 133.568 266.405 132.032C267.747 131.155 269.584 130.511 270.868 131.451C272.245 132.473 272.02 134.743 270.868 136.061C269.716 137.379 268.098 138.041 266.595 138.871C263.461 140.602 260.868 143.179 259.108 146.313" fill="#E0D8C7"/>
<path d="M264.155 157.807C264.155 157.807 272.915 163.677 267.546 173.449C262.177 183.221 264.951 188.454 270.394 184.665C275.837 180.876 281.033 163.305 264.155 157.807Z" fill="#E0D8C7"/>
<path d="M290.615 180.795C285.171 204.608 261.142 201.618 259.126 205.658C257.11 209.698 294.74 216.131 290.667 180.801L290.615 180.795Z" fill="#E0D8C7"/>
<path d="M218.18 249.748C218.182 250.506 217.959 251.247 217.54 251.879C217.121 252.51 216.524 253.003 215.825 253.295C215.126 253.587 214.356 253.665 213.612 253.519C212.868 253.374 212.185 253.011 211.647 252.477C211.11 251.942 210.743 251.261 210.593 250.518C210.443 249.775 210.516 249.005 210.804 248.304C211.092 247.603 211.582 247.003 212.21 246.58C212.839 246.157 213.579 245.93 214.337 245.928C214.84 245.927 215.339 246.024 215.804 246.216C216.27 246.407 216.693 246.688 217.05 247.042C217.406 247.397 217.69 247.819 217.884 248.283C218.078 248.747 218.178 249.245 218.18 249.748Z" fill="#E0D8C7"/>
<path d="M306.301 251.036C306.301 251.794 306.076 252.535 305.655 253.165C305.234 253.795 304.636 254.286 303.936 254.576C303.236 254.866 302.465 254.942 301.722 254.794C300.979 254.646 300.296 254.281 299.76 253.746C299.224 253.21 298.86 252.527 298.712 251.784C298.564 251.041 298.64 250.27 298.93 249.57C299.22 248.87 299.711 248.272 300.341 247.851C300.971 247.43 301.712 247.205 302.469 247.205C303.486 247.205 304.46 247.609 305.179 248.327C305.897 249.046 306.301 250.02 306.301 251.036Z" fill="#E0D8C7"/>
<path d="M333.984 3.27726C339.248 29.4 331.761 68.3957 317.794 90.1206" stroke="#E0D8C7" stroke-width="0.740826" stroke-miterlimit="10"/>
<path d="M330.255 55.6387C330.804 56.0968 330.529 57.0357 330.167 57.6861C326.713 63.9524 322.342 69.755 316.857 74.2343C311.372 78.7135 304.728 81.8127 297.755 82.4348C295.921 82.5988 293.362 81.9032 293.538 80.0086C293.615 79.0132 294.482 78.3119 295.322 77.8142C298.002 76.2646 301.11 75.7839 304.108 75.0204C314.859 72.1999 324.252 65.4556 330.54 56.0403" fill="#E0D8C7"/>
<path d="M332.203 54.9178C332.571 63.6299 332.998 72.5938 336.811 80.5399C337.895 82.8164 339.243 84.9671 340.395 87.2163C340.657 87.6366 340.79 88.1179 340.781 88.6063C340.66 89.6515 339.335 90.1714 338.223 90.1167C335.953 90.0072 334.029 88.4749 332.71 86.6964C328.475 81.0433 329.063 73.4421 329.829 66.5413C330.332 62.0539 330.832 57.5683 331.327 53.0845" fill="#E0D8C7"/>
<path d="M334.083 43.4397C338.449 50.52 341.16 58.4266 342.029 66.6123C342.092 67.1573 342.098 67.8494 341.638 68.2091C340.826 68.8358 339.742 67.8712 339.231 67.0047C335.112 60.0118 333.205 52.0181 333.742 44.0011C331.637 50.0852 327.262 55.2062 321.459 58.3776C318.797 59.8218 315.499 60.8137 312.729 59.5711C312.474 57.7182 313.382 55.8653 314.699 54.4974C316.088 53.1944 317.667 52.0929 319.387 51.2275L334.134 42.8675" fill="#E0D8C7"/>
<path d="M336.982 26.7898C339.764 31.4678 341.828 36.5196 343.109 41.7837C343.374 42.5673 343.409 43.4077 343.21 44.2097C342.947 44.9873 342.09 45.6281 341.278 45.3597C340.906 45.214 340.583 44.9716 340.343 44.6588C338.102 42.0521 337.229 38.5582 336.859 35.163C336.489 31.7677 336.523 28.3122 335.739 24.9881C335.532 29.3514 333.936 33.5423 331.175 36.9756C328.375 40.3216 324.146 42.6216 319.717 42.7585C319.039 42.7585 318.227 42.6764 317.913 42.0849C317.6 41.4935 317.964 40.8199 318.367 40.3052C319.913 38.3447 322.225 37.1344 324.354 35.7873C328.524 33.1545 332.198 29.8363 335.213 25.9793" fill="#E0D8C7"/>
<path d="M334.83 7.85492C336.338 8.51044 337.653 9.54673 338.648 10.8638C340.121 12.7288 341.156 14.9058 341.676 17.2316C342.196 19.5574 342.187 21.9717 341.65 24.2935C340.84 24.5018 340.209 23.5992 339.87 22.8296C338.568 19.8752 337.555 16.7997 336.845 13.6469C336.329 11.3787 335.932 8.97744 334.549 7.1085C333.669 12.3461 331.809 17.3672 329.067 21.9038C327.391 24.6754 325.244 27.3602 322.242 28.5348C321.898 28.7094 321.519 28.8061 321.133 28.8181C320.748 28.8301 320.364 28.7571 320.009 28.6042C319.223 28.1471 318.999 27.0998 319.091 26.1972C319.326 23.8827 321.02 22.0369 322.621 20.3762L334.36 8.17895" fill="#E0D8C7"/>
<path d="M305.662 184.627C303.898 184.627 302.469 186.342 302.469 188.458C302.469 190.574 303.898 192.29 305.662 192.29C307.425 192.29 308.854 190.574 308.854 188.458C308.854 186.342 307.425 184.627 305.662 184.627Z" fill="#E0D8C7"/>
<path d="M316.275 2.00032C318.184 6.42674 318.298 11.3687 316.593 15.8699C314.888 20.3712 311.487 24.1118 307.046 26.368C305.646 27.169 304.035 27.5755 302.401 27.5404C300.781 27.4116 299.147 26.4325 298.74 24.9638C298.218 23.0314 299.777 21.1956 301.384 19.9331C304.544 17.4532 308.314 15.7462 311.467 13.2534C314.62 10.7606 317.21 7.04391 316.688 3.17908C316.614 2.67021 316.153 2.01964 315.705 2.30307" fill="#E0D8C7"/>
<path d="M310.377 37.4304C310.721 37.4577 311.065 37.363 311.366 37.1579C311.668 36.9528 311.913 36.6461 312.072 36.2754C312.377 35.5351 312.558 34.729 312.604 33.9037C312.711 32.9536 312.796 31.8532 312.31 31.1151C311.989 30.6644 311.554 30.3564 311.072 30.2402C309.597 29.8028 308.053 30.4384 306.663 31.1766C306.177 31.3845 305.743 31.7398 305.403 32.2087C305.156 32.6431 305.024 33.1579 305.024 33.685C305.024 34.717 305.268 35.7274 305.727 36.5978C306.185 37.4682 306.839 38.1625 307.613 38.5992C308.031 38.8618 308.492 39.0111 308.964 39.0366C309.575 39.0197 310.159 38.721 310.595 38.2015C311.031 37.682 311.286 36.9808 311.309 36.2412" fill="#E0D8C7"/>
</svg>
