<svg width="360" height="215" viewBox="0 0 360 215" fill="none" xmlns="http://www.w3.org/2000/svg">
<path d="M132.121 142.833C124.589 147.696 121.911 157.652 121.769 166.727C121.658 173.926 122.864 181.434 126.991 187.28C132.59 195.237 141.121 197.146 149.338 200.928C158.439 205.141 167.333 207.074 177.464 205.141" stroke="#E0D8C7" stroke-linecap="round" stroke-linejoin="round"/>
<path d="M113.045 179.938C110.568 177.237 109.208 173.633 108.336 170.015C105.922 159.842 106.923 149.116 111.171 139.617C111.399 139.114 111.793 138.528 112.316 138.644C112.674 138.719 112.884 139.11 113.036 139.45C116.166 146.406 115.956 154.56 114.132 162.001C113.577 164.245 113.125 166.509 112.522 168.739C111.793 171.412 110.93 177.046 114.006 180.669" fill="#E0D8C7"/>
<path d="M130.17 139.68C130.242 138.741 130.414 137.81 130.685 136.9C130.954 135.784 131.558 134.755 132.433 133.926C133.769 132.8 135.712 132.536 137.527 132.323C137.527 134.232 136.955 136.28 135.336 137.521C134.616 138.033 133.81 138.44 132.949 138.726C132.129 139.059 131.261 139.288 130.371 139.407" fill="#E0D8C7"/>
<path d="M21.9225 96.8686C22.0162 98.7791 22.6252 100.628 23.6847 102.22C24.2193 103.008 24.9235 103.666 25.7454 104.146C26.5673 104.626 27.4862 104.916 28.4345 104.993C29.3512 105.036 30.3771 104.76 30.8521 103.971C31.3271 103.181 31.0849 102.172 30.8521 101.288C28.235 88.4442 31.9018 86.3798 34.177 85.5235C36.4521 84.6673 42.9309 87.2741 44.845 88.097C46.5502 88.8248 47.7424 90.4754 48.7399 92.0119C48.9805 92.5173 49.3745 92.9335 49.8656 93.2011C50.1519 93.2862 50.4567 93.2866 50.7432 93.2022C51.0297 93.1178 51.2858 92.9522 51.4805 92.7254C51.8643 92.262 52.1154 91.7031 52.2072 91.1081C52.9529 87.6451 51.4378 83.8967 48.7351 81.5944C46.0325 79.2921 42.2849 79.3825 38.789 78.8497C28.4535 77.2942 21.7182 90.4183 21.9225 96.8686Z" fill="#E0D8C7"/>
<path d="M18.7992 93.8595C18.7126 94.4812 18.7627 95.2986 19.3235 95.4993C19.7794 95.6608 20.2125 95.2888 20.5407 94.9266C23.2761 91.9261 24.703 87.7607 27.5296 84.8729V84.589L27.6481 84.5204C27.6481 84.5204 29.7635 82.7241 29.1708 81.5836C29.0438 81.2782 28.8106 81.0381 28.521 80.9147C28.2314 80.7912 27.9084 80.7942 27.6208 80.9228C25.2956 82.167 23.2816 83.9906 21.7469 86.2412C20.2123 88.4917 19.2015 91.1039 18.7992 93.8595Z" fill="#E0D8C7"/>
<path d="M26.5751 78.7421C25.0447 78.6497 23.5118 78.8827 22.0898 79.4238C20.6679 79.9648 19.3932 80.8001 18.3602 81.8679C17.9016 82.3327 17.5122 82.854 17.2027 83.4176C16.7802 84.2233 16.6003 85.1227 16.6825 86.018C16.6732 86.2345 16.7262 86.4494 16.8359 86.6398C16.9456 86.8302 17.108 86.9891 17.3058 87.0997C17.513 87.1438 17.7284 87.1403 17.9339 87.0896C18.1395 87.0389 18.329 86.9424 18.4867 86.8083C24.5132 81.6119 27.7279 80.9673 28.0887 80.4596C28.4496 79.9518 28.1356 78.8349 26.5751 78.7421Z" fill="#E0D8C7"/>
<path d="M18.2707 78.5386C18.0224 78.3444 17.764 78.2581 17.7184 78.0077C17.6946 77.7539 17.7655 77.5001 17.9211 77.2826C18.206 76.8348 18.6396 76.4685 19.1676 76.2295C19.4393 76.1146 19.7225 76.0207 20.0139 75.9489C22.355 75.3533 24.8633 75.5173 27.2297 76.0396C28.2891 76.3895 29.323 76.793 30.3258 77.2481L28.5877 78.2667C24.1386 77.192 19.6845 79.3415 18.2707 78.5386Z" fill="#E0D8C7"/>
<path d="M50.4269 77.2822C50.9444 77.6578 51.5132 78.2968 51.2988 78.9639C51.1262 79.5244 50.5621 79.6589 50.0865 79.7094C46.1093 80.113 42.1089 78.4537 38.1457 79.0423L37.9359 78.8405L37.8054 78.9078C37.8054 78.9078 35.1104 79.6141 34.6582 78.2239C34.5146 77.8794 34.4899 77.4807 34.5894 77.1144C34.689 76.7481 34.9047 76.4438 35.1897 76.2676C37.6124 74.9618 40.2599 74.3725 42.9108 74.5491C45.5617 74.7256 48.139 75.6628 50.4269 77.2822Z" fill="#E0D8C7"/>
<path d="M34.9399 74.3931C35.7942 73.1993 36.9065 72.2138 38.1941 71.5099C39.4816 70.806 40.9111 70.402 42.3763 70.3278C43.0208 70.2877 43.6678 70.336 44.2993 70.4714C45.1874 70.6811 46.0021 71.1276 46.657 71.7637C46.8321 71.8966 46.9681 72.0742 47.051 72.2779C47.1338 72.4816 47.1603 72.7038 47.1277 72.9213C47.0359 73.1028 46.9023 73.2597 46.7378 73.3791C46.5733 73.4985 46.3827 73.5769 46.1819 73.6078C38.4452 74.7161 35.9888 76.6815 35.3702 76.6186C34.7516 76.5558 34.0747 75.5911 34.9399 74.3931Z" fill="#E0D8C7"/>
<path d="M39.7735 68.4022C39.7735 68.0735 39.841 67.8095 39.6482 67.5954C39.4437 67.3913 39.1823 67.2589 38.901 67.2168C38.3419 67.1033 37.7626 67.1658 37.2381 67.3961C36.9748 67.5177 36.7231 67.6644 36.4862 67.8344C34.5582 69.1743 33.1941 71.2064 32.206 73.3831C31.8684 74.4445 31.5916 75.5256 31.377 76.6206L33.305 76.0478C35.0546 71.8888 39.6144 70.0708 39.7735 68.4022Z" fill="#E0D8C7"/>
<path d="M27.0921 85.0283L31.8117 80.0729C32.0012 79.8462 32.2327 79.6579 32.4936 79.5183C32.8327 79.3981 33.1936 79.3508 33.5524 79.3797C35.3213 79.3785 37.0758 79.0635 38.734 78.4494C38.0183 77.4912 37.1535 76.6533 36.1723 75.9673C34.3778 74.7016 31.9014 73.9994 29.9185 74.9789C28.5367 75.6631 27.626 77.0317 27.0024 78.436C26.1051 80.4128 25.7014 82.7921 26.7287 84.6974" fill="#E0D8C7"/>
<path d="M30.874 82.9895C30.1784 84.9223 29.6782 86.9204 29.3809 88.9536C29.0847 90.9982 29.4099 93.0849 30.3141 94.9412C31.125 96.3998 32.3236 97.6039 33.7763 98.4195C35.8466 99.6589 38.3147 100.046 40.6634 99.5009C41.8243 99.2112 42.8954 98.637 43.7806 97.8298C44.6658 97.0225 45.3375 96.0075 45.7354 94.8756C46.086 93.66 46.1782 92.3841 46.006 91.1305C45.8645 89.1742 45.132 87.3077 43.9063 85.7796C40.1735 82.0345 33.739 79.4738 32.5398 79.8015C31.3406 80.1292 30.874 82.9895 30.874 82.9895Z" fill="#E0D8C7"/>
<path d="M32.5329 82.9263C32.3081 84.5863 32.4446 86.2733 32.9334 87.8794C33.4223 89.4856 34.2528 90.9756 35.372 92.2542C35.4294 92.3147 35.4972 92.3853 35.5807 92.3853" stroke="#FAF2E1" stroke-linecap="round" stroke-linejoin="round"/>
<path d="M34.5293 83.9773L38.7333 92.3853V92.1192" stroke="#FAF2E1" stroke-linecap="round" stroke-linejoin="round"/>
<path d="M34.5293 82.9262C37.1571 84.4498 39.3613 87.0214 40.8353 90.2832" stroke="#FAF2E1" stroke-linecap="round" stroke-linejoin="round"/>
<path d="M29.5776 74.5186C29.3889 75.4983 29.2906 76.4943 29.2841 77.4931C29.2193 78.7123 29.4806 79.9264 30.0395 81.003C30.9248 82.4903 32.604 83.2785 34.1774 83.9775C34.6874 81.9945 34.7499 79.7488 33.6385 78.0533C33.1317 77.3411 32.5177 76.7168 31.8197 76.2041C31.1793 75.6552 30.4686 75.1998 29.7075 74.8507" fill="#E0D8C7"/>
<path d="M41.5641 88.2357L41.8458 88.1815L42.1276 88.2357C42.3888 88.3627 42.6124 88.6196 42.7606 88.963C42.8485 89.1383 42.9006 89.3474 42.9106 89.5653C42.947 89.7717 42.947 89.9885 42.9106 90.1948L42.8008 90.5693C42.7112 90.7925 42.5854 90.979 42.4349 91.112L42.1825 91.2748C41.9964 91.3453 41.8014 91.3453 41.6153 91.2748L41.9007 91.3345L42.1825 91.2748C42.0452 91.3403 41.8986 91.3497 41.758 91.3019C41.6174 91.2955 41.4806 91.2316 41.3628 91.1174C41.2409 91.0222 41.1376 90.882 41.0628 90.7104C40.968 90.5578 40.9023 90.3705 40.8725 90.1677L40.836 89.7498C40.835 89.4699 40.8842 89.1945 40.9787 88.9521L41.147 88.6319C41.2771 88.4403 41.4384 88.3019 41.6153 88.2303L41.5641 88.2357Z" fill="#FAF2E1"/>
<path d="M38.136 94.0039C37.9461 93.8127 37.8095 93.5753 37.7397 93.3151C37.6636 93.0456 37.6636 92.7603 37.7397 92.4908L37.8971 92.1166C37.9941 91.9371 38.1339 91.7843 38.3043 91.6719C38.4013 91.5768 38.5208 91.5077 38.6518 91.4713C38.8386 91.3724 39.0486 91.3256 39.2598 91.3357C39.4693 91.3255 39.6776 91.3723 39.8625 91.4713C40.0574 91.5348 40.233 91.6468 40.3728 91.7967L40.6171 92.1166C40.7309 92.2918 40.7964 92.4938 40.8071 92.7023C40.8451 92.8389 40.8451 92.9833 40.8071 93.1199C40.7947 93.3281 40.7293 93.5297 40.6171 93.7056L40.3728 94.0256C40.1798 94.2171 39.9403 94.3553 39.6779 94.4269L39.2598 94.4865C39.0489 94.4941 38.8395 94.4474 38.6518 94.3509C38.5205 94.3125 38.401 94.2416 38.3043 94.1449C38.1329 94.0359 37.9927 93.8846 37.8971 93.7056L39.2436 94.4811C39.1032 94.4933 38.962 94.4729 38.8309 94.4214C38.5705 94.3517 38.3328 94.2153 38.1414 94.0256L38.136 94.0039Z" fill="#FAF2E1"/>
<path d="M35.5785 91.3352C35.719 91.3271 35.8585 91.3739 35.9834 91.4708C36.1111 91.541 36.2271 91.6521 36.3232 91.7963C36.4194 91.9405 36.4935 92.1144 36.5403 92.3059C36.6049 92.4933 36.6361 92.7025 36.6307 92.9133L36.5909 93.3308C36.5446 93.5939 36.4522 93.8336 36.3233 94.025L36.11 94.269C35.9496 94.4136 35.7656 94.4887 35.5785 94.4859C35.4389 94.4962 35.3002 94.4493 35.1771 94.3504C35.0472 94.2868 34.9303 94.1749 34.8372 94.025C34.7374 93.8873 34.6627 93.7137 34.6202 93.5206C34.5559 93.3331 34.5248 93.124 34.5298 92.9133L34.566 92.4957C34.6157 92.232 34.7089 91.9914 34.8372 91.7962L35.0505 91.5521C35.2112 91.4133 35.393 91.3386 35.5785 91.3352Z" fill="#FAF2E1"/>
<path d="M54.3459 110.717C54.9731 109.761 55.8264 108.913 56.5215 108.011C57.2702 107.107 57.6638 106.045 57.6516 104.962C57.5958 104.342 57.3367 103.744 56.9004 103.229C56.464 102.713 55.8657 102.298 55.1653 102.026C54.9662 101.934 54.7459 101.875 54.5176 101.854C54.2893 101.832 54.0578 101.848 53.8373 101.9C53.5611 102.004 53.3192 102.158 53.131 102.351C51.8293 103.565 50.9359 105.024 50.5346 106.59C50.1333 108.156 50.2373 109.778 50.8368 111.303" fill="#E0D8C7"/>
<path d="M51.3448 111.2C51.0457 109.951 50.7556 108.698 50.4745 107.44C50.2771 106.606 50.0618 105.727 49.4741 105.108C49.1884 104.832 48.8687 104.595 48.523 104.403C47.9801 104.082 47.3072 103.766 46.7554 104.069C46.2036 104.371 46.0735 105.14 46.0914 105.791C46.1795 108.24 47.1361 110.572 48.7832 112.354" fill="#E0D8C7"/>
<path d="M49.2437 112.809C48.7461 111.992 48.2486 111.188 47.6863 110.402C46.7807 109.105 45.696 107.808 44.064 107.242C43.3426 107.004 42.3474 107.021 42.0041 107.618C41.8476 107.974 41.8476 108.368 42.0041 108.724C42.4228 109.968 43.1386 111.122 44.1048 112.109C45.071 113.097 46.2659 113.897 47.6117 114.456" fill="#E0D8C7"/>
<path d="M47.1423 113.943L44.7119 112.077C44.013 111.494 43.2395 111 42.4103 110.606C41.5727 110.213 40.6104 110.145 39.7221 110.415C39.5423 110.451 39.3731 110.526 39.2267 110.632C39.0802 110.739 38.9602 110.876 38.8753 111.033C38.7903 111.19 38.7425 111.363 38.7353 111.539C38.7281 111.716 38.7617 111.892 38.8337 112.055C39.1456 112.841 39.6797 113.527 40.3757 114.036C41.9644 115.336 43.8834 116.207 45.9363 116.558" fill="#E0D8C7"/>
<path d="M44.9306 117.452C42.4826 116.801 39.9025 116.149 37.4733 116.882C36.9958 117.002 36.5495 117.235 36.1667 117.563C35.9773 117.729 35.8261 117.939 35.7247 118.177C35.6233 118.415 35.5744 118.675 35.5818 118.937C35.6217 119.23 35.7287 119.509 35.8933 119.747C36.0578 119.986 36.2749 120.178 36.5252 120.305C37.2629 120.666 38.0752 120.817 38.8836 120.744C41.4166 120.744 44.1146 120.386 46.091 118.694" fill="#E0D8C7"/>
<path d="M51.3457 116.558C53.2338 120.736 58.228 124.03 62.7548 124.016C63.8971 124.016 65.03 123.812 66.1676 123.807C68.1616 123.837 70.1047 124.459 71.7635 125.596C73.4223 126.734 74.7262 128.34 75.5186 130.221" stroke="#E0D8C7" stroke-miterlimit="10"/>
<path d="M61.8601 119.162C61.8372 117.951 61.8993 116.739 62.046 115.54C62.2399 114.05 62.45 112.476 63.2865 111.303C64.7734 112.877 65.1209 115.442 64.9795 117.765C64.8583 119.762 64.3613 121.89 62.9915 123.128L62.1834 123.915C62.4292 123.577 62.5948 123.171 62.6642 122.737C62.7006 122.141 61.8803 120.838 61.8601 119.162Z" fill="#E0D8C7"/>
<path d="M54.932 126.161C53.052 126.985 51.4449 128.317 50.2949 130.002C52.4539 130.41 54.684 130.246 56.7579 129.527C58.8319 128.807 60.6758 127.557 62.1017 125.904C62.3992 125.584 62.6265 125.207 62.7693 124.796C62.8446 124.508 62.8907 124.213 62.9069 123.915C60.13 124.165 57.4252 124.927 54.932 126.161Z" fill="#E0D8C7"/>
<path d="M57.6516 122.864C57.2345 122.307 56.9484 121.645 56.8191 120.936C56.7054 120.508 56.6323 120.069 56.6011 119.624C56.5946 119.06 56.6473 118.497 56.758 117.947C56.8321 117.465 56.9106 117.021 56.9847 116.558" stroke="#E0D8C7" stroke-width="0.99" stroke-linecap="round" stroke-linejoin="round"/>
<path d="M57.6519 122.18C55.1972 121.516 52.5939 121.759 50.2949 122.864" stroke="#E0D8C7" stroke-miterlimit="10"/>
<path d="M56.8161 116.521C56.5986 115.797 56.5449 115.035 56.6587 114.289C56.7725 113.542 57.0512 112.828 57.4758 112.194C58.0185 111.47 58.6566 110.817 59.3742 110.252C59.8614 111.417 59.88 112.715 59.4264 113.893C58.963 115.058 58.0591 116.011 56.8968 116.558" fill="#E0D8C7"/>
<path d="M50.2938 123.216C49.627 122.62 48.7339 122.862 48.0007 123.345C47.0336 124.002 46.1912 125.173 46.0898 126.595C46.261 126.782 46.4606 126.919 46.6752 126.996C46.8897 127.073 47.1143 127.089 47.3339 127.042C48.0806 126.972 48.7892 126.581 49.3501 125.928C49.6265 125.602 49.8509 125.208 50.0103 124.767C50.1696 124.326 50.2607 123.848 50.2782 123.36" fill="#E0D8C7"/>
<path d="M49.6908 101.844C49.8042 101.844 49.9171 101.834 50.0275 101.817L50.1216 101.799C50.3181 101.775 50.5055 101.723 50.6726 101.647C50.8397 101.57 50.983 101.471 51.0941 101.356C51.2052 101.24 51.2817 101.11 51.3191 100.973C51.3565 100.836 51.3539 100.695 51.3117 100.559C51.2694 100.423 51.1882 100.294 51.073 100.181C50.9578 100.067 50.8109 99.9705 50.6412 99.8972C50.4714 99.8239 50.2822 99.7753 50.0849 99.7542C49.8876 99.7331 49.6862 99.74 49.4928 99.7744L49.3591 99.7951C49.0003 99.8502 48.6835 99.996 48.4697 100.204C48.256 100.413 48.1605 100.669 48.2018 100.924C48.243 101.179 48.418 101.414 48.693 101.584C48.968 101.754 49.3235 101.846 49.6908 101.844Z" fill="#E0D8C7"/>
<path d="M42.9394 103.946C43.092 103.945 43.2425 103.91 43.3805 103.846C43.5186 103.781 43.641 103.687 43.7393 103.571C43.8376 103.455 43.9096 103.319 43.9503 103.173C43.991 103.027 43.9995 102.873 43.9751 102.724C43.9344 102.479 43.8081 102.257 43.6186 102.096C43.4291 101.935 43.1885 101.846 42.9394 101.844C42.7601 101.848 42.5846 101.896 42.4289 101.984C42.2731 102.072 42.142 102.198 42.0476 102.35C41.9532 102.501 41.8985 102.674 41.8884 102.852C41.8783 103.03 41.9132 103.208 41.99 103.369C42.0792 103.543 42.2152 103.689 42.3828 103.791C42.5503 103.893 42.743 103.947 42.9394 103.946Z" fill="#E0D8C7"/>
<path d="M37.6889 108.15C37.8636 108.149 38.0352 108.105 38.1879 108.02C38.3406 107.936 38.4694 107.815 38.5626 107.668V107.65C38.6381 107.536 38.6902 107.408 38.7157 107.274C38.7412 107.14 38.7398 107.002 38.7114 106.868C38.683 106.735 38.6283 106.608 38.5504 106.495C38.4725 106.383 38.3729 106.287 38.2575 106.213C38.0279 106.066 37.7494 106.015 37.4822 106.07C37.2149 106.126 36.9803 106.283 36.829 106.509L36.7943 106.561C36.694 106.718 36.638 106.899 36.6323 107.084C36.6266 107.27 36.6713 107.454 36.7618 107.617C36.8523 107.779 36.9852 107.915 37.1465 108.009C37.3078 108.103 37.4915 108.152 37.6785 108.15H37.6889Z" fill="#E0D8C7"/>
<path d="M34.5345 115.507C34.7153 115.507 34.893 115.437 35.051 115.305C35.2091 115.173 35.3422 114.983 35.438 114.752L35.4629 114.698C35.584 114.344 35.6136 113.936 35.546 113.551C35.4784 113.166 35.3185 112.833 35.0972 112.615C34.8759 112.398 34.6088 112.312 34.3479 112.374C34.0869 112.436 33.8505 112.642 33.6844 112.951L33.6417 113.048C33.5406 113.291 33.4848 113.571 33.4798 113.858C33.4749 114.146 33.5212 114.429 33.6138 114.681C33.7064 114.932 33.8419 115.141 34.0064 115.286C34.1708 115.432 34.3581 115.508 34.5487 115.507H34.5345Z" fill="#E0D8C7"/>
<path d="M55.4491 111.875L55.5492 110.392C55.5492 110.392 52.0459 109.523 47.9921 112.12C43.9383 114.718 43.9883 119.711 43.9883 119.711C43.9883 119.711 48.3724 118.894 50.1141 117.973" fill="#E0D8C7"/>
<path d="M46.1409 118.305C46.9679 116.097 48.3681 114.194 50.1725 112.828C51.1573 111.992 52.3354 111.465 53.5782 111.303H53.6804C53.8252 111.303 53.9657 111.303 54.1061 111.303C54.2373 111.307 54.3681 111.319 54.4978 111.34C54.3956 112.321 53.9444 114.076 52.1904 115.822C50.47 117.416 48.3423 118.406 46.0898 118.66L46.1409 118.305Z" fill="#E0D8C7"/>
<path d="M54.499 110.272C54.499 110.272 46.618 109.43 45.04 118.66" stroke="#FAF2E1" stroke-linecap="round" stroke-linejoin="round"/>
<path d="M10.9751 87.1306C18.2205 98.7465 18.3702 113.252 16.2594 126.657C14.1485 140.062 9.98003 153.202 9.37142 166.746C8.76281 180.29 12.3082 194.926 22.9686 203.791" stroke="#E0D8C7" stroke-miterlimit="10"/>
<path d="M16.91 100.793C19.2684 104.891 22.0912 108.688 25.3193 112.103C28.2017 115.148 31.4298 117.917 33.7106 121.465C34.2224 122.259 34.7028 123.209 34.4693 124.132C34.191 125.249 32.9832 125.849 31.8653 125.978C29.1266 126.296 26.4507 124.64 24.7446 122.411C23.0385 120.182 22.1226 117.441 21.2336 114.756C19.7071 110.142 18.1836 105.538 16.6631 100.945L16.91 100.793Z" fill="#E0D8C7"/>
<path d="M14.2813 105.783C15.2496 103.866 15.9729 101.837 16.4346 99.7422C17.0045 106.512 16.5065 113.329 14.9583 119.946C14.5634 121.616 14.0697 123.328 13.026 124.578C11.9822 125.829 10.238 126.477 8.91212 125.642C7.58628 124.807 7.17724 122.964 7.20545 121.29C7.30418 115.374 11.6954 110.91 14.2813 105.783Z" fill="#E0D8C7"/>
<path d="M18.0621 116.558C16.9546 127.351 18.8206 132.4 19.0719 134.686C19.6024 139.514 22.1478 144.944 26.2475 147.492C26.7929 147.878 27.4425 148.086 28.1088 148.088C29.584 147.989 30.4914 146.244 30.3006 144.766C30.1098 143.287 29.1931 142.016 28.3136 140.814C25.9031 137.501 18.2064 126.826 18.0481 116.558" fill="#E0D8C7"/>
<path d="M9.91169 142.603C9.04015 143.687 8.1458 145.168 6.80883 144.904C5.33041 144.612 4.90148 142.593 5.18439 141.06C5.97379 136.75 9.51927 133.674 12.1385 130.213C15.3344 125.972 17.2713 120.863 17.7145 115.507C17.7145 115.507 17.4954 119.21 17.3996 120.271C17.3038 121.332 15.6794 135.377 9.91169 142.603Z" fill="#E0D8C7"/>
<path d="M15.2038 135.476C15.1068 144.29 18.7313 150.696 22.4308 158.174C23.1627 159.658 23.93 161.194 24.0138 162.859C24.0975 164.525 23.295 166.38 21.7782 166.876C19.8866 167.489 18.0302 165.823 16.9279 164.093C12.3244 156.875 13.321 147.37 14.4939 138.765" fill="#E0D8C7"/>
<path d="M11.9155 164.76C12.6607 168.463 14.4969 171.866 17.1936 174.542C20.3539 177.673 24.6886 179.806 26.7451 183.738C27.1174 184.316 27.2539 185.012 27.1272 185.685C26.7027 187.167 24.5707 187.176 23.0943 186.682C15.0522 184.008 11.09 175.437 10.4627 167.052C10.2892 164.413 10.3302 161.765 10.5853 159.132L10.9532 156.496L11.9155 164.76Z" fill="#E0D8C7"/>
<path d="M11.4082 184.873C13.5023 188.634 16.3653 191.908 19.8096 194.482C22.3713 196.394 25.226 197.877 27.6716 199.956C30.1172 202.036 32.1908 204.805 32.4139 207.999C32.5069 209.398 32.1536 210.936 31.0191 211.729C29.35 212.853 27.1044 211.766 25.5283 210.512C18.9773 205.337 15.1277 197.443 12.6728 189.484" fill="#E0D8C7"/>
<path d="M12.1496 198.412C12.6457 200.381 12.7846 203.144 10.7009 203.708C8.71639 204.244 7.22801 202.072 6.63761 200.237C1.62672 176.264 10.4876 163.853 10.4876 163.853C10.4876 163.853 7.31235 183.015 12.1496 198.412Z" fill="#E0D8C7"/>
<path d="M13.5099 142.833C13.5099 142.833 -3.73689 158.382 5.95638 171.209C7.39242 171.328 5.98031 160.282 13.5099 143.778" fill="#E0D8C7"/>
<path d="M58.7031 182.771C62.6093 187.329 68.1766 191.353 74.468 191.173" stroke="#E0D8C7" stroke-linecap="round" stroke-linejoin="round"/>
<path d="M56.0193 178.418C53.7797 180.373 52.6106 183.294 51.5848 186.123C50.0663 190.304 48.6643 194.785 49.4885 199.169C49.5018 199.349 49.5517 199.523 49.635 199.682C49.7184 199.84 49.8333 199.979 49.9723 200.089C50.5232 200.411 51.1459 199.808 51.4773 199.252C52.2502 197.959 52.8285 196.554 53.1929 195.084C53.1929 197.145 53.1123 199.358 51.9118 201.004C51.7109 201.242 51.538 201.503 51.3967 201.782C51.0383 202.637 51.6654 203.695 52.5344 203.958C52.9787 204.058 53.4411 204.034 53.8731 203.888C54.305 203.741 54.6906 203.478 54.9891 203.125C55.5788 202.412 55.9826 201.558 56.1626 200.641C56.3821 199.721 56.512 198.801 56.8076 197.927C57.1787 198.768 57.328 199.695 57.2408 200.615C57.1535 201.534 56.8327 202.414 56.3104 203.166C55.8618 203.669 55.4848 204.234 55.1906 204.846C55.1079 205.132 55.083 205.433 55.1174 205.729C55.1518 206.026 55.2448 206.312 55.3907 206.571C55.5367 206.829 55.7325 207.054 55.9661 207.232C56.1997 207.41 56.4663 207.537 56.7494 207.606C57.0051 207.665 57.2726 207.643 57.5154 207.541C57.756 207.41 57.962 207.22 58.1156 206.989C59.961 204.533 60.185 201.221 60.3552 198.125C61.2891 200.779 61.2891 203.686 60.3552 206.341C60.1133 206.896 59.9519 207.485 59.8759 208.089C59.8426 208.392 59.896 208.699 60.0297 208.972C60.1633 209.245 60.3714 209.472 60.6285 209.625C61.5243 210.044 62.4605 209.11 62.8681 208.194C64.0282 205.618 63.634 202.624 63.213 199.813C64.0156 201.094 64.5606 202.528 64.8159 204.029C65.0713 205.53 65.0319 207.068 64.7001 208.553C64.5209 209.317 64.3015 210.237 64.8345 210.803C65.0487 210.997 65.3174 211.115 65.6016 211.142C65.8859 211.168 66.1711 211.101 66.4157 210.95C66.8976 210.634 67.2706 210.171 67.4817 209.625C68.0981 208.094 68.2297 206.403 67.858 204.79C67.4789 203.206 66.9384 201.667 66.2455 200.199C68.0472 202.188 69.1508 204.738 69.3809 207.445C69.4437 208.148 69.4929 208.967 70.0528 209.377C70.765 209.901 71.8445 209.322 72.1447 208.48C72.4448 207.638 72.2208 206.704 71.9341 205.853C71.2926 203.926 70.4055 202.094 69.2958 200.406C71.8266 201.75 72.5747 205.053 74.3574 207.33C76.7628 205.697 79.3473 203.746 79.9296 200.848C77.9279 199.592 76.1307 198.021 74.6038 196.193C76.0836 197.269 77.7049 198.124 79.419 198.732C80.0504 199.03 80.7635 199.092 81.4347 198.907C82.0797 198.658 82.5142 197.77 82.0886 197.209C81.7961 196.918 81.4183 196.734 81.0136 196.685C78.7199 196.09 76.6954 194.703 75.2801 192.756L78.8277 194.261C79.8356 194.688 80.924 195.125 81.9632 194.868C83.0024 194.61 83.9027 193.331 83.3563 192.361C80.8732 192.302 78.4306 191.703 76.1894 190.603C77.5155 191.02 78.9135 191.137 80.288 190.948C80.9799 190.854 81.6441 190.609 82.2354 190.228C82.8266 189.847 83.3311 189.339 83.7146 188.74C83.9341 188.363 84.055 187.788 83.7146 187.544C83.5144 187.444 83.287 187.417 83.0696 187.466C81.0607 187.668 79.0351 187.609 77.0405 187.291C78.0861 187.567 79.178 187.603 80.2387 187.397C81.2824 187.13 82.2633 186.33 82.4514 185.244C82.6261 184.237 82.1155 183.252 81.6183 182.364C79.7666 183.353 77.6837 183.792 75.6026 183.634C76.7271 183.618 77.8279 183.301 78.7964 182.714C79.4817 182.295 80.1401 181.564 79.9699 180.768C79.7997 179.972 78.877 179.632 78.111 179.738C77.3451 179.844 76.6642 180.281 75.9476 180.566C75.2309 180.851 74.3485 180.975 73.7079 180.506C74.7109 180.201 75.667 179.752 76.5478 179.172C76.7444 179.076 76.9027 178.914 76.9957 178.712C77.1211 178.298 76.709 177.935 76.3462 177.714C72.6239 175.414 68.2835 173.951 63.9834 174.466C59.6833 174.981 55.4952 177.792 54.1514 182.01" fill="#E0D8C7"/>
<path d="M55.0475 178.257C53.013 179.952 51.5364 182.209 50.807 184.739C50.0776 187.269 50.1284 189.956 50.9531 192.458C51.7797 194.834 53.3271 197.063 53.1925 199.587C53.9592 199.665 54.733 199.536 55.4317 199.215C56.1303 198.893 56.7276 198.389 57.1601 197.758C57.5925 197.127 57.8438 196.392 57.8873 195.631C57.9308 194.87 57.7648 194.112 57.4071 193.437C58.5893 195.338 58.3202 197.781 57.8877 199.981C57.7723 200.599 57.705 201.364 58.2289 201.716C58.7527 202.067 59.5744 201.654 59.9925 201.107C61.4342 199.206 60.9056 196.545 60.1127 194.316C60.6456 195.511 60.997 196.778 61.1555 198.075C61.3333 199.548 61.2804 201.117 62.0301 202.4C62.092 202.53 62.1949 202.637 62.3233 202.704C62.5731 202.818 62.8615 202.638 63.0585 202.443C64.1446 201.374 64.4281 199.705 64.1734 198.218C63.8327 196.738 63.2551 195.321 62.4626 194.021C63.5301 195.656 64.3494 197.436 64.8943 199.306C65.0074 199.835 65.221 200.338 65.5238 200.789C65.6806 201.011 65.9054 201.177 66.1651 201.263C66.4248 201.348 66.7055 201.349 66.9655 201.264C67.7728 200.913 67.6575 199.753 67.3692 198.931C66.7173 197.081 65.8599 195.308 64.8126 193.646C65.9866 196.016 67.9381 197.922 70.3487 199.054C70.8437 199.325 71.4029 199.459 71.9682 199.444C72.2489 199.427 72.5164 199.32 72.7299 199.139C72.9434 198.958 73.091 198.713 73.1503 198.441C73.1594 198.059 73.0485 197.684 72.8332 197.367C71.358 194.7 69.36 192.351 66.9559 190.457C68.7099 192.481 70.6851 194.558 73.3041 195.209C73.7447 195.35 74.2187 195.35 74.6593 195.209C74.8779 195.136 75.0623 194.986 75.1788 194.789C75.2953 194.592 75.3361 194.36 75.2937 194.135C75.1879 193.765 74.8131 193.546 74.4815 193.356C72.194 192.075 70.0816 190.509 68.1957 188.698C69.9104 190.232 71.9904 191.312 74.2412 191.835C75.3898 192.096 76.918 192.025 77.3505 190.941C77.4186 190.79 77.4481 190.624 77.4364 190.458C77.4246 190.292 77.372 190.132 77.2832 189.991C77.1249 189.823 76.9338 189.689 76.7215 189.597C76.5091 189.505 76.2801 189.456 76.0481 189.454C73.7432 189.106 71.516 188.368 69.4644 187.272C70.8533 188.033 72.3094 188.807 73.9 188.874C75.4907 188.941 77.2303 188.042 77.5811 186.498C77.7061 185.937 77.5427 185.214 76.9901 185.039C76.6975 184.978 76.3937 184.996 76.1106 185.091C73.9226 185.582 71.6317 185.345 69.5942 184.416C70.4548 184.869 71.3801 185.189 72.3382 185.367C72.8181 185.448 73.31 185.429 73.782 185.31C74.2539 185.192 74.6953 184.976 75.0774 184.677C76.1635 183.727 76.2596 182.121 76.274 180.685C74.9525 181.027 73.6405 180.21 72.5016 179.478C70.5046 178.082 68.3295 176.954 66.0332 176.123C63.7191 175.287 61.199 175.188 58.8247 175.837C56.8244 176.491 55.0683 177.722 53.7836 179.373" fill="#E0D8C7"/>
<path d="M55.8944 177.052C57.3986 176.229 59.2382 176.385 60.9008 176.827C62.1045 177.144 63.2866 177.536 64.4402 178C65.3437 178.364 66.303 178.856 66.6663 179.753C65.9699 179.78 65.2726 179.755 64.5799 179.68C65.0456 179.804 65.5113 179.942 66.005 180.108C66.8164 180.34 67.5571 180.767 68.1612 181.35C67.9656 181.672 67.5045 181.672 67.132 181.626L66.7967 181.576C67.1492 181.677 67.4697 181.865 67.7281 182.123C67.781 182.172 67.8155 182.237 67.8259 182.307C67.8259 182.35 67.8158 182.392 67.7964 182.431C67.777 182.469 67.7488 182.502 67.7141 182.528C67.5487 182.633 67.3624 182.701 67.1679 182.728C66.9734 182.755 66.7753 182.74 66.5871 182.685L61.8555 181.967C63.5858 182.578 65.2541 183.348 66.8386 184.267C67.2624 184.511 67.7281 184.843 67.77 185.33C66.0311 184.87 64.3478 184.225 62.7496 183.407C64.1468 184.53 65.9491 185.28 67.0016 186.743C67.1692 186.973 67.2717 187.364 67.0016 187.475C66.8989 187.509 66.7876 187.509 66.6849 187.475C64.9268 187.025 63.3029 186.167 61.9486 184.971C62.554 185.685 63.3085 186.255 63.9791 186.909C64.6908 187.53 65.1929 188.353 65.4182 189.265C65.2907 189.306 65.1543 189.314 65.0228 189.287C64.8912 189.261 64.769 189.201 64.6684 189.113C62.9905 188.063 61.5507 186.681 60.4397 185.054C61.4178 186.549 62.2743 188.119 63.0011 189.748C63.1502 190.079 63.2386 190.567 62.9033 190.719C62.8112 190.747 62.7135 190.754 62.6181 190.739C62.5226 190.724 62.4321 190.687 62.3538 190.631C61.7778 190.252 61.3071 189.736 60.9846 189.131C60.2582 188.01 59.6348 186.828 59.1218 185.597C59.7101 187.043 60.1607 188.541 60.4677 190.07C60.5189 190.223 60.5282 190.388 60.4947 190.546C60.4611 190.704 60.386 190.851 60.2767 190.972C59.6825 190.274 59.2246 189.474 58.9262 188.611C58.4605 187.502 58.032 186.379 57.6129 185.252C57.8271 186.803 58.0367 188.349 58.2509 189.895C58.3161 190.355 58.3254 190.949 57.9063 191.179C56.8152 189.233 56.0211 187.138 55.5498 184.962C55.6289 186.462 55.7128 187.967 55.7919 189.467C55.7919 189.688 55.75 189.987 55.5265 189.996C55.4295 189.991 55.3381 189.95 55.2704 189.881C54.8555 189.456 54.5671 188.925 54.4367 188.349C54.0981 187.289 53.8642 186.2 53.7382 185.096L53.6637 185.312C52.7974 180.209 54.7348 177.692 55.8944 177.052Z" fill="#E0D8C7"/>
<path d="M55.3004 178.609C54.3249 179.926 54.2918 181.927 54.9216 183.468C55.2346 184.244 55.7636 184.897 56.4355 185.335C57.1074 185.773 57.8889 185.975 58.6721 185.913C59.3501 185.802 59.9897 185.503 60.5284 185.045C61.0041 184.669 61.385 184.171 61.6365 183.596C61.8363 183.026 61.9011 182.412 61.8251 181.808C61.749 181.205 61.5344 180.632 61.2008 180.14C60.5191 179.157 59.5978 178.398 58.5395 177.945C57.9209 177.608 57.2268 177.465 56.5364 177.532C56.5364 177.532 56.1197 177.512 55.3004 178.609Z" fill="#E0D8C7"/>
<path d="M132.272 193.281C120.615 187.548 109.676 179.009 104.547 167.127C101.628 160.367 100.752 152.944 98.952 145.827C97.1522 138.709 94.0888 131.435 88.1299 127.068" stroke="#E0D8C7" stroke-linecap="round" stroke-linejoin="round"/>
<path d="M100.137 149.139C98.8485 146.112 96.4589 144.077 93.8001 141.974C90.6027 139.45 87.6458 136.577 85.5927 133.16C83.5397 129.743 82.4242 125.718 83.0493 121.83C86.5544 121.635 89.9729 123.189 92.5163 125.496C95.0592 127.805 97.0451 130.602 98.3389 133.699C100.676 139.246 100.743 149.135 100.743 149.135L100.137 149.139Z" fill="#E0D8C7"/>
<path d="M102.845 162.802C100.219 156.083 92.839 149.282 88.7487 146.285C84.3682 143.103 78.7054 142.583 73.417 141.782C78.3076 153.174 89.329 161.471 101.258 162.777L102.845 162.802Z" fill="#E0D8C7"/>
<path d="M173.26 205.852C165.652 208.638 157.726 210.964 149.585 211.138C141.445 211.312 132.991 209.094 127.017 203.79C140.474 205.839 154.72 208.996 168.751 206.666C172.812 206.018 173.26 205.852 173.26 205.852Z" fill="#E0D8C7"/>
<path d="M151.191 201.688C151.191 201.688 139.573 199.473 133.439 199.678C129.689 199.802 126.194 200.216 123.09 199.778C120.976 199.442 118.906 198.864 116.919 198.053C113.076 196.559 109.412 194.62 105.998 192.274C105.998 192.274 133.142 186.442 151.191 201.688Z" fill="#E0D8C7"/>
<path d="M80.7744 165.955C88.6656 165.915 96.0088 169.616 102.453 173.85C108.783 178.012 114.727 182.822 121.763 185.826C105.616 186.908 89.0644 178.937 80.7744 165.955Z" fill="#E0D8C7"/>
<path d="M80.7738 130.225C63.1708 129.947 49.5642 145.115 50.3254 161.862C50.5535 166.571 51.7763 171.185 53.9173 175.414" stroke="#E0D8C7" stroke-miterlimit="10"/>
<path d="M68.0549 162.626C68.8008 162.875 69.6137 162.859 70.3484 162.58C70.7077 162.429 70.9977 162.156 71.1637 161.811C71.3297 161.467 71.3603 161.076 71.2497 160.711C71.1107 160.428 70.9131 160.175 70.6693 159.969C67.0875 156.552 62.6468 153.665 60.6601 149.194C59.7035 146.965 59.4147 144.518 59.8272 142.136C60.2396 139.754 61.3364 137.534 62.9913 135.731L64.2183 134.425L61.8587 136.033C61.8587 136.033 54.5252 144.7 62.2174 158.572C63.8879 161.549 68.0549 162.626 68.0549 162.626Z" fill="#E0D8C7"/>
<path d="M50.2946 156.496C47.6063 157.119 44.1926 174.945 38.2791 182.467C35.9196 185.465 32.9701 188.379 32.4866 192.128C32.3553 192.811 32.4449 193.517 32.7428 194.149C33.0418 194.597 33.4697 194.95 33.973 195.161C34.4762 195.373 35.0323 195.435 35.5714 195.339C36.651 195.129 37.653 194.64 38.4725 193.922C43.419 190.036 45.6867 183.751 46.8133 177.65C47.9399 171.55 48.1817 165.255 50.1979 159.367" fill="#E0D8C7"/>
<path d="M46.6099 147.562C45.6533 147.865 44.6644 148.031 43.6682 148.056C41.9935 148.192 40.3132 147.889 38.7699 147.172C38.0071 146.8 37.3316 146.246 36.7939 145.552C36.2561 144.857 35.8699 144.041 35.6641 143.163C35.3174 141.39 36.0745 139.346 37.5978 138.595C39.226 137.79 41.1005 138.566 42.8016 139.173C48.0693 141.049 54.1533 141.113 58.8874 137.983L59.7539 137.578L58.2078 139.286C58.2078 139.286 53.0314 144.98 46.6099 147.562Z" fill="#E0D8C7"/>
<path d="M33.8286 160.7C35.2571 160.787 36.1666 162.215 36.4714 163.512C36.6527 164.163 36.6803 164.841 36.5523 165.502C36.1142 167.409 33.5238 168.584 31.5619 167.822C29.6001 167.06 28.7048 164.636 29.6572 162.903C30.1844 162.047 31.0387 161.399 32.0563 161.083C33.0739 160.767 34.1832 160.806 35.1714 161.192" fill="#E0D8C7"/>
<path d="M97.8791 199.571C98.0325 199.592 98.1881 199.592 98.3415 199.571C99.2293 199.416 100.136 198.203 100.136 198.203C100.996 196.924 101.837 195.505 101.791 193.973C101.713 192.97 101.395 192.002 100.866 191.152C100.548 190.497 100.071 189.936 99.479 189.521C99.079 189.284 98.6319 189.141 98.1704 189.103C97.5926 189.039 97.008 189.094 96.4515 189.264C95.895 189.435 95.378 189.718 94.9314 190.096C94.4847 190.474 94.1176 190.94 93.8519 191.465C93.5862 191.991 93.4273 192.565 93.3848 193.155C97.5277 193.846 97.9161 197.817 97.8791 199.571Z" fill="#E0D8C7"/>
<path d="M101.991 202.733C103.121 202.784 104.245 202.558 105.266 202.074C105.704 201.858 106.125 201.611 106.528 201.335C106.998 201.06 107.399 200.683 107.703 200.232C107.991 199.626 108.121 198.958 108.079 198.29C108.139 197.596 108.065 196.896 107.86 196.23C107.545 195.536 107.067 194.929 106.466 194.458C105.977 193.98 105.389 193.613 104.743 193.383C104.42 193.274 104.074 193.252 103.739 193.318C103.405 193.385 103.094 193.538 102.839 193.762C102.839 193.762 103.157 197.196 100.563 199.294C97.9689 201.392 101.991 202.733 101.991 202.733Z" fill="#E0D8C7"/>
<path d="M98.8658 206.226C100.464 207.796 102.605 209.325 103.685 209.003C105.227 208.535 106.274 206.956 106.783 205.321C107.015 204.682 107.097 203.991 107.022 203.309C106.924 202.64 106.531 201.438 105.965 201.735C105.4 202.032 102.628 204.074 100.553 203.008C98.4779 201.941 98.2442 202.122 98.2442 202.122L97.6226 203.209C97.6226 203.209 97.272 204.657 98.8658 206.226Z" fill="#E0D8C7"/>
<path d="M94.3199 209.359C94.8909 210.788 91.5738 209.83 90.3413 209.085C89.2401 208.416 88.1616 207.332 88.1299 205.928C88.1388 205.34 88.274 204.763 88.5241 204.245C89.58 201.864 92.036 200.227 94.3743 200.728C94.3743 200.728 96.4633 200.424 96.5358 201.63C96.6083 202.837 94.7232 203.495 94.4966 204.164C94.2701 204.833 93.1644 206.445 94.3199 209.359Z" fill="#E0D8C7"/>
<path d="M89.7671 203.537C88.6635 204.884 87.8047 200.502 88.2497 198.8C88.606 197.693 89.2024 196.683 89.9941 195.847C90.626 195.116 91.3958 194.382 92.3437 194.341C92.7245 194.307 93.1076 194.368 93.4606 194.519C94.1548 194.843 96.896 195.714 97.5279 199.822C98.1598 203.93 93.7632 198.658 89.7671 203.537Z" fill="#E0D8C7"/>
<path d="M97.5588 202.74C97.8854 208.255 102.721 207.16 102.844 209.959C102.723 210.654 102.375 211.291 101.855 211.771C101.275 212.112 100.599 212.255 99.9294 212.179C98.2863 212.14 96.465 211.879 95.4059 210.652C94.7364 209.817 94.3937 208.771 94.4408 207.705C94.5728 206.512 94.8452 205.338 95.2525 204.208C95.5065 203.812 95.8444 203.476 96.2427 203.222C96.6409 202.968 97.09 202.804 97.5588 202.74Z" fill="#E0D8C7"/>
<path d="M94.605 202.859C94.1188 201.711 94.7411 200.386 95.7524 199.564C96.1713 199.212 96.6663 198.94 97.2071 198.764C97.7479 198.589 98.3232 198.513 98.8979 198.542C99.4719 198.58 100.024 198.756 100.494 199.051C100.965 199.346 101.337 199.749 101.572 200.217C101.763 200.676 101.832 201.167 101.773 201.653C101.715 202.139 101.531 202.607 101.236 203.019C100.318 204.34 99.6223 205.08 97.2158 204.773C94.8092 204.465 94.605 202.859 94.605 202.859Z" fill="#E0D8C7"/>
<path d="M94.605 202.859C94.1188 201.711 94.7411 200.386 95.7524 199.564C96.1713 199.212 96.6663 198.94 97.2071 198.764C97.7479 198.589 98.3232 198.513 98.8979 198.542C99.4719 198.58 100.024 198.756 100.494 199.051C100.965 199.346 101.337 199.749 101.572 200.217C101.763 200.676 101.832 201.167 101.773 201.653C101.715 202.139 101.531 202.607 101.236 203.019C100.318 204.34 99.6223 205.08 97.2158 204.773C94.8092 204.465 94.605 202.859 94.605 202.859Z" stroke="#FAF2E1" stroke-miterlimit="10"/>
<path d="M84.9774 110.252C79.8781 105.252 76.6461 98.5396 75.8531 91.303C75.8388 90.8516 75.7347 90.408 75.5475 90.0003C74.927 88.8965 73.198 89.0528 72.3813 90.024C71.5647 90.9951 71.4142 92.35 71.3548 93.6243C71.1632 97.4711 71.5738 101.773 74.3294 104.345C75.4041 105.254 76.6015 105.995 77.8833 106.543L84.4436 109.76" fill="#E0D8C7"/>
<path d="M67.1109 99.2116C65.4358 96.6372 65.0538 93.4169 65.1596 90.3395C65.2655 87.2622 65.8039 84.2126 65.7763 81.1353C65.8167 80.5438 65.6874 79.953 65.4035 79.4329C64.7086 78.4086 63.0335 78.5655 62.1454 79.4329C61.2572 80.3002 60.9442 81.5828 60.6865 82.7962C59.9824 86.095 59.3474 89.5275 60.0791 92.8217C60.8108 96.1159 63.2544 99.2808 66.5862 99.7422" fill="#E0D8C7"/>
<path d="M78.6697 120.614C78.7121 118.322 78.1796 116.057 77.1215 114.028C76.0634 112 74.514 110.273 72.6172 109.009C71.5128 108.288 70.0009 107.757 68.9439 108.531C67.8111 109.372 67.996 111.24 68.9439 112.325C69.8918 113.409 71.2237 113.954 72.4607 114.637C75.0397 116.062 77.1735 118.183 78.6223 120.762" fill="#E0D8C7"/>
<path d="M74.4677 130.221C74.4677 130.221 67.2592 135.052 71.6777 143.093C76.0961 151.135 73.8133 155.442 69.334 152.323C64.8547 149.205 60.5783 134.745 74.4677 130.221Z" fill="#E0D8C7"/>
<path d="M52.6941 149.139C57.1742 168.736 76.9486 166.275 78.6079 169.6C80.2672 172.925 49.2996 178.218 52.6514 149.144L52.6941 149.139Z" fill="#E0D8C7"/>
<path d="M112.304 205.884C112.302 206.507 112.485 207.117 112.83 207.637C113.175 208.156 113.666 208.562 114.242 208.802C114.817 209.043 115.451 209.107 116.063 208.987C116.675 208.867 117.237 208.569 117.68 208.129C118.122 207.689 118.424 207.128 118.547 206.517C118.671 205.906 118.61 205.272 118.373 204.695C118.136 204.118 117.734 203.624 117.216 203.276C116.699 202.928 116.09 202.742 115.466 202.74C115.052 202.739 114.642 202.819 114.259 202.976C113.876 203.134 113.527 203.365 113.234 203.657C112.94 203.949 112.707 204.296 112.547 204.678C112.388 205.06 112.305 205.47 112.304 205.884Z" fill="#E0D8C7"/>
<path d="M39.7852 206.944C39.7852 207.567 39.9701 208.177 40.3165 208.695C40.663 209.214 41.1554 209.618 41.7315 209.857C42.3077 210.095 42.9416 210.158 43.5533 210.036C44.1649 209.914 44.7267 209.614 45.1676 209.173C45.6086 208.732 45.9089 208.17 46.0305 207.559C46.1522 206.947 46.0898 206.313 45.8511 205.737C45.6125 205.161 45.2083 204.669 44.6898 204.322C44.1713 203.976 43.5617 203.791 42.9381 203.791C42.1019 203.791 41.2999 204.123 40.7086 204.714C40.1173 205.305 39.7852 206.107 39.7852 206.944Z" fill="#E0D8C7"/>
<path d="M17.0019 3.05092C12.6699 24.5486 18.831 56.6401 30.3253 74.5186" stroke="#E0D8C7" stroke-width="0.740826" stroke-miterlimit="10"/>
<path d="M20.0711 46.1415C19.6193 46.5185 19.8452 47.2911 20.1434 47.8263C22.9857 52.9833 26.5825 57.7585 31.0966 61.4447C35.6107 65.1308 41.0782 67.6814 46.8169 68.1933C48.3261 68.3283 50.4318 67.7558 50.2872 66.1966C50.2239 65.3775 49.51 64.8004 48.8187 64.3908C46.6136 63.1155 44.056 62.7199 41.5888 62.0916C32.7406 59.7705 25.0111 54.2203 19.8362 46.472" fill="#E0D8C7"/>
<path d="M18.4679 45.5484C18.1645 52.7181 17.8136 60.0949 14.6751 66.6341C13.7838 68.5076 12.6744 70.2775 11.7262 72.1284C11.5107 72.4744 11.4007 72.8704 11.4086 73.2724C11.5082 74.1325 12.5986 74.5604 13.5136 74.5153C15.3815 74.4253 16.965 73.1643 18.0507 71.7006C21.5353 67.0484 21.0517 60.793 20.4212 55.114C20.0071 51.4211 19.5962 47.7296 19.1885 44.0397" fill="#E0D8C7"/>
<path d="M16.9219 36.1024C13.3289 41.9291 11.0976 48.4358 10.3822 55.1722C10.3308 55.6207 10.3262 56.1903 10.7045 56.4863C11.3725 57.002 12.2647 56.2082 12.6851 55.4951C16.0748 49.7404 17.6444 43.162 17.2021 36.5643C18.9343 41.5712 22.535 45.7856 27.3106 48.3955C29.5013 49.584 32.2153 50.4003 34.4948 49.3777C34.705 47.8528 33.9576 46.328 32.8739 45.2023C31.7308 44.13 30.431 43.2235 29.0155 42.5113L16.8798 35.6315" fill="#E0D8C7"/>
<path d="M14.5352 22.4002C12.2463 26.2499 10.5475 30.4073 9.49317 34.7394C9.27545 35.3843 9.24671 36.0758 9.41021 36.7358C9.62683 37.3758 10.332 37.9031 11.0002 37.6822C11.3059 37.5623 11.5721 37.3628 11.7699 37.1054C13.6134 34.9602 14.3324 32.085 14.6366 29.2908C14.9408 26.4967 14.9131 23.653 15.5583 20.9175C15.7288 24.5082 17.042 27.9571 19.3145 30.7826C21.6189 33.5361 25.0985 35.4289 28.7441 35.5416C29.3017 35.5416 29.97 35.474 30.2281 34.9873C30.4862 34.5006 30.1866 33.9462 29.8548 33.5226C28.5827 31.9092 26.6793 30.9133 24.928 29.8046C21.4956 27.638 18.4723 24.9073 15.9916 21.7332" fill="#E0D8C7"/>
<path d="M16.3067 6.81816C15.0658 7.35762 13.9839 8.21043 13.1653 9.29427C11.9528 10.8291 11.1007 12.6207 10.6729 14.5347C10.245 16.4487 10.2525 18.4356 10.6948 20.3463C11.3608 20.5177 11.8805 19.7749 12.1592 19.1416C13.2309 16.7102 14.0646 14.1793 14.6486 11.5847C15.0738 9.71807 15.3997 7.74193 16.5382 6.20389C17.2621 10.5142 18.7931 14.6463 21.0494 18.3797C22.4288 20.6605 24.1955 22.87 26.666 23.8366C26.9498 23.9803 27.2612 24.0599 27.5786 24.0698C27.8959 24.0796 28.2116 24.0196 28.5036 23.8938C29.1508 23.5176 29.335 22.6557 29.2594 21.9129C29.0657 20.0082 27.6722 18.4892 26.3543 17.1226L16.694 7.08482" fill="#E0D8C7"/>
<path d="M40.3101 152.292C41.7612 152.292 42.9376 153.704 42.9376 155.445C42.9376 157.187 41.7612 158.598 40.3101 158.598C38.859 158.598 37.6826 157.187 37.6826 155.445C37.6826 153.704 38.859 152.292 40.3101 152.292Z" fill="#E0D8C7"/>
<path d="M31.5765 1.99964C30.005 5.64235 29.9117 9.70931 31.3146 13.4136C32.7174 17.1179 35.5168 20.1963 39.171 22.053C40.3232 22.7121 41.6488 23.0467 42.9934 23.0178C44.327 22.9118 45.6718 22.106 46.0066 20.8974C46.4363 19.3072 45.1529 17.7964 43.8304 16.7574C41.2301 14.7166 38.1275 13.3118 35.5328 11.2604C32.938 9.2089 30.8064 6.15025 31.2361 2.9697C31.2975 2.55093 31.6769 2.01554 32.0452 2.24878" fill="#E0D8C7"/>
<path d="M36.4303 31.1567C36.1465 31.1791 35.8634 31.1012 35.6156 30.9324C35.3678 30.7636 35.166 30.5112 35.0348 30.2061C34.7836 29.597 34.635 28.9335 34.5975 28.2544C34.5092 27.4725 34.4394 26.567 34.8394 25.9595C35.1029 25.5886 35.4616 25.3351 35.8581 25.2395C37.0722 24.8796 38.342 25.4026 39.4863 26.0101C39.8865 26.1812 40.2437 26.4736 40.5236 26.8594C40.7268 27.217 40.8355 27.6406 40.8353 28.0744C40.8349 28.9237 40.6343 29.7552 40.257 30.4715C39.8796 31.1878 39.3412 31.7591 38.7049 32.1185C38.3603 32.3346 37.9809 32.4575 37.5931 32.4785C37.0896 32.4646 36.6094 32.2188 36.2506 31.7912C35.8918 31.3637 35.6816 30.7867 35.6628 30.178" fill="#E0D8C7"/>
<path d="M339.986 65.1719C337.831 61.5257 335.251 58.1486 332.298 55.1117C329.664 52.4009 326.715 49.9443 324.631 46.7905C324.163 46.081 323.724 45.2402 323.937 44.4159C324.196 43.4234 325.299 42.8944 326.317 42.7754C328.819 42.4925 331.264 43.9648 332.823 45.9415C334.382 47.9183 335.223 50.3626 336.035 52.7454C337.428 56.8465 338.82 60.9381 340.212 65.0201L339.986 65.1719Z" fill="#E0D8C7"/>
<path d="M342.272 60.5948C341.436 62.2891 340.812 64.0797 340.413 65.9263C339.908 59.9714 340.337 53.9742 341.685 48.1518C342.025 46.6836 342.456 45.1785 343.367 44.0794C344.278 42.9803 345.8 42.4143 346.953 43.1566C348.105 43.8989 348.466 45.5107 348.446 46.9789C348.36 52.1669 344.532 56.0917 342.272 60.5948Z" fill="#E0D8C7"/>
<path d="M339.198 50.9077C340.175 41.475 338.534 37.0663 338.308 35.0649C337.84 30.8489 335.596 26.1039 331.986 23.877C331.506 23.5382 330.933 23.355 330.345 23.352C329.041 23.4381 328.241 24.9638 328.409 26.2597C328.577 27.5557 329.389 28.6589 330.161 29.7129C332.286 32.6083 339.075 41.9385 339.211 50.9077" fill="#E0D8C7"/>
<path d="M346.173 28.4295C346.952 27.4862 347.756 26.1943 348.958 26.4281C350.287 26.6824 350.673 28.4377 350.423 29.7664C349.713 33.5149 346.521 36.1889 344.171 39.1991C341.294 42.8842 339.551 47.3253 339.153 51.9824C339.153 51.9824 339.35 48.7671 339.44 47.8402C339.531 46.9134 340.95 34.7083 346.173 28.4295Z" fill="#E0D8C7"/>
<path d="M341.143 34.9541C341.238 27.1619 337.861 21.4982 334.419 14.8871C333.738 13.5748 333.029 12.2173 332.947 10.7408C332.864 9.26442 333.615 7.63216 335.031 7.19334C336.786 6.64788 338.518 8.1243 339.543 9.65404C343.826 16.0354 342.899 24.4182 341.808 32.0464" fill="#E0D8C7"/>
<path d="M324.971 12.9307C323.72 12.8445 322.957 11.5035 322.694 10.2813C322.538 9.66862 322.515 9.02969 322.625 8.40708C323.002 6.60667 325.234 5.50347 326.924 6.22117C328.614 6.93887 329.386 9.21911 328.565 10.8555C328.11 11.6612 327.374 12.2705 326.497 12.5665C325.62 12.8625 324.665 12.8242 323.814 12.459" fill="#E0D8C7"/>
<path d="M321.794 17.1506C321.794 16.664 321.65 16.1882 321.379 15.7835C321.109 15.3789 320.724 15.0635 320.275 14.8772C319.825 14.691 319.33 14.6423 318.852 14.7372C318.375 14.8322 317.936 15.0665 317.592 15.4107C317.248 15.7548 317.013 16.1932 316.918 16.6706C316.823 17.1479 316.872 17.6427 317.058 18.0923C317.245 18.5419 317.56 18.9262 317.965 19.1966C318.37 19.467 318.846 19.6113 319.333 19.6113C319.985 19.6113 320.611 19.3521 321.073 18.8906C321.535 18.4291 321.794 17.8032 321.794 17.1506Z" fill="#E0D8C7"/>
<path d="M345.915 81.4003C340.172 72.3307 339.091 60.501 339.631 49.442C340.171 38.383 342.137 27.4237 341.64 16.336" stroke="#E0D8C7" stroke-width="0.511271" stroke-miterlimit="10"/>
<path d="M335.132 163.808C339.117 160.426 340.841 155.095 341.823 149.962C345.249 132.289 340.377 105.907 331.288 91.2048" stroke="#E0D8C7" stroke-width="0.511271" stroke-miterlimit="10"/>
<path d="M339.517 114.597C339.898 114.292 339.707 113.661 339.46 113.223C337.062 109.007 334.032 105.1 330.234 102.086C326.436 99.0731 321.827 96.9842 316.993 96.5733C315.718 96.463 313.948 96.931 314.066 98.2056C314.123 98.8714 314.721 99.347 315.307 99.6818C317.16 100.724 319.318 101.044 321.397 101.561C328.847 103.46 335.355 107.996 339.715 114.327" fill="#E0D8C7"/>
<path d="M341.327 114.996C341.571 108.939 341.857 102.707 344.372 97.1862C345.088 95.6034 345.978 94.1043 346.74 92.5443C346.913 92.2522 347.003 91.9177 346.998 91.5779C346.918 90.8512 346.039 90.4859 345.309 90.524C343.809 90.6001 342.534 91.6654 341.662 92.902C338.865 96.8362 339.253 102.117 339.759 106.915C340.089 110.035 340.419 113.155 340.749 116.275" fill="#E0D8C7"/>
<path d="M342.469 123.161C345.397 118.22 347.215 112.701 347.797 106.987C347.835 106.607 347.843 106.12 347.531 105.868C346.99 105.435 346.259 106.108 345.917 106.709C343.162 111.595 341.893 117.177 342.263 122.773C340.849 118.525 337.914 114.949 334.023 112.732C332.238 111.728 330.027 111.035 328.169 111.903C328.002 113.193 328.607 114.49 329.49 115.445C330.423 116.353 331.482 117.121 332.634 117.728L342.53 123.549" fill="#E0D8C7"/>
<path d="M344.141 134.732C346.029 131.482 347.43 127.974 348.301 124.318C348.481 123.774 348.505 123.19 348.37 122.632C348.191 122.092 347.609 121.647 347.061 121.83C346.816 121.935 346.603 122.103 346.444 122.317C344.922 124.128 344.328 126.559 344.077 128.918C343.825 131.277 343.852 133.674 343.315 135.987C343.172 132.956 342.088 130.045 340.214 127.659C338.311 125.33 335.433 123.732 332.423 123.641C331.962 123.641 331.41 123.698 331.201 124.109C330.992 124.52 331.235 124.988 331.509 125.345C332.56 126.707 334.128 127.548 335.574 128.48C338.408 130.312 340.904 132.619 342.954 135.299" fill="#E0D8C7"/>
<path d="M342.897 146.941C343.896 146.509 344.766 145.826 345.424 144.959C346.402 143.733 347.09 142.302 347.434 140.772C347.779 139.243 347.772 137.655 347.415 136.128C346.878 135.995 346.463 136.588 346.235 137.094C345.374 139.037 344.702 141.058 344.229 143.129C343.886 144.624 343.628 146.203 342.707 147.432C342.122 143.986 340.888 140.682 339.072 137.696C337.96 135.877 336.537 134.108 334.55 133.339C334.321 133.223 334.07 133.159 333.813 133.151C333.557 133.143 333.302 133.192 333.066 133.293C332.548 133.59 332.396 134.283 332.457 134.876C332.613 136.398 333.736 137.608 334.798 138.704C337.393 141.375 339.988 144.038 342.581 146.694" fill="#E0D8C7"/>
<path d="M340.141 157.286C341.833 156.442 343.318 155.235 344.49 153.751C345.663 152.268 346.493 150.544 346.923 148.703C345.435 148.463 344.312 149.966 343.566 151.275C342.407 153.304 341.247 155.333 340.088 157.362C340.048 155.216 339.531 153.105 338.574 151.184C337.617 149.262 336.243 147.577 334.554 146.252C334.051 145.872 333.29 145.522 332.841 145.967C332.726 146.116 332.644 146.288 332.602 146.471C332.559 146.654 332.556 146.844 332.594 147.029C332.944 151.214 336.16 154.532 339.186 157.458" fill="#E0D8C7"/>
<path d="M306.199 133.43C306.754 135.922 306.689 138.512 306.012 140.973C305.335 143.434 304.065 145.692 302.313 147.55C295.314 154.867 282.56 155.578 273.273 153.546C266.483 152.059 260.2 148.87 253.596 146.656C248.508 144.925 242.981 143.783 237.588 144.616C232.195 145.45 226.311 149.445 224.29 152.534" stroke="#E0D8C7" stroke-width="0.511271" stroke-miterlimit="10"/>
<path d="M302.122 147.413C302.86 144.552 301.741 141.466 299.88 139.164C298.019 136.862 295.511 135.207 293.029 133.598C290.548 131.988 288.024 130.352 286.129 128.085C286.202 130.899 287.186 133.613 288.934 135.82C292.474 140.256 298.643 142.029 301.992 146.61" fill="#E0D8C7"/>
<path d="M303.516 146.382C305.323 145.024 307.577 144.441 309.746 143.81C313.678 142.668 317.739 141.124 320.35 137.988C322.135 135.862 323.105 133.187 324.041 130.569C318.98 131.298 314.326 133.75 310.865 137.513C309.725 138.814 308.663 140.181 307.683 141.607L304.977 145.366" fill="#E0D8C7"/>
<path d="M292.443 153.535C296.116 155.015 300.01 156.526 303.926 155.94C305.101 155.747 306.25 155.422 307.351 154.97C310.647 153.663 313.636 151.688 316.132 149.171C313.361 149.137 310.507 149.114 307.922 150.122C306.948 150.503 306.019 151.02 305.079 151.458C302.235 152.759 299.106 153.315 295.987 153.075C295.104 152.951 294.211 152.922 293.323 152.987" fill="#E0D8C7"/>
<path d="M292.632 152.592C293.363 150.138 292.526 147.509 291.491 145.161C290.433 142.718 289.135 140.317 287.201 138.487C285.804 137.163 284.118 136.178 282.684 134.896C280.88 133.278 279.515 131.231 278.714 128.945C279.443 132.236 280.515 135.442 281.911 138.51C282.516 139.994 283.268 141.414 284.156 142.749C286.566 146.173 290.52 148.559 292.043 152.47" fill="#E0D8C7"/>
<path d="M282.997 154.897C285.993 154.867 288.953 155.549 291.633 156.887C292.919 157.534 294.126 158.321 295.389 159.006C300.622 161.845 306.712 162.811 312.661 162.59C309.102 165.204 304.375 165.916 300.029 165.09C295.682 164.265 291.713 162.073 288.257 159.333C286.293 157.774 284.424 156.004 282.099 155.057" fill="#E0D8C7"/>
<path d="M268.015 152.443C275.471 154.962 279.814 163.321 287.312 165.722C285.104 166.102 282.855 165.604 280.674 165.121C278.368 164.615 275.996 164.078 274.063 162.728C271.894 161.206 270.504 158.847 269.184 156.556L266.52 151.914" fill="#E0D8C7"/>
<path d="M260.194 152.687C261.336 154.589 261.74 156.842 262.623 158.881C263.906 161.822 266.119 164.261 268.922 165.825C264.765 165.513 261.005 162.876 258.687 159.414C256.369 155.951 255.395 151.834 255.155 147.718C257.07 149.137 258.988 150.632 260.194 152.687Z" fill="#E0D8C7"/>
<path d="M280.998 154.258C282.345 153.71 282.692 151.944 282.52 150.499C282.14 147.021 280.024 144.03 278.136 141.067C276.248 138.103 274.463 134.804 274.825 131.322C274.044 133.184 273.559 135.156 273.386 137.167C273.218 138.62 273.347 140.091 273.767 141.493C274.191 142.617 274.75 143.685 275.434 144.674L281.379 154.09" fill="#E0D8C7"/>
<path d="M254.848 146.751C253.313 144.804 252.505 142.382 252.565 139.903C252.694 137.449 253.961 135.017 256.062 133.743C257.55 132.841 259.347 132.548 260.839 131.654C261.601 131.193 262.265 130.585 262.793 129.867C263.321 129.149 263.702 128.334 263.914 127.469C265.031 129.288 265.438 131.456 265.056 133.556C264.853 134.594 264.411 135.57 263.763 136.406C263.115 137.242 262.281 137.914 261.326 138.369C260.363 138.796 259.301 138.963 258.334 139.378C256.954 140.027 255.847 141.144 255.209 142.53C254.572 143.916 254.446 145.483 254.852 146.953" fill="#E0D8C7"/>
<path d="M266.536 151.081C267.963 150.386 269.058 149.155 269.581 147.657C270.084 146.165 270.319 144.596 270.274 143.022C270.303 141.242 270.198 139.461 269.962 137.696C269.627 135.264 269.128 132.487 270.704 130.607C267.385 133.233 264.717 137.125 264.865 141.352C264.979 144.579 266.704 147.714 266.136 150.891" fill="#E0D8C7"/>
<path d="M331.733 163.892C332.807 161.276 332.872 158.355 331.915 155.695C330.958 153.034 329.047 150.823 326.553 149.49C325.768 149.015 324.864 148.774 323.946 148.798C323.037 148.874 322.123 149.452 321.895 150.32C321.602 151.461 322.473 152.546 323.379 153.291C325.149 154.756 327.265 155.765 329.035 157.233C330.805 158.702 332.258 160.905 331.962 163.188C331.924 163.488 331.665 163.869 331.414 163.701" fill="#E0D8C7"/>
<path d="M327.903 163.568C328.059 161.095 326.286 158.736 323.975 157.842C323.108 157.504 322.111 157.355 321.266 157.736C320.421 158.116 319.835 159.166 320.215 160.019C320.596 160.871 321.738 161.16 322.689 161.289C324.592 161.582 326.613 162.05 327.778 163.572" fill="#E0D8C7"/>
<path d="M342.305 163.911C344.036 163.93 345.751 163.58 347.336 162.885C348.921 162.189 350.339 161.164 351.497 159.878C352.239 159.044 352.886 158.051 352.989 156.94C353.091 155.829 352.505 154.597 351.443 154.25C351.294 154.199 351.137 154.172 350.979 154.17C350.218 154.17 349.651 154.87 349.209 155.502L345.32 161.069C344.433 162.339 343.379 163.732 341.845 163.968" fill="#E0D8C7"/>
<path d="M327.775 140.21C328.007 140.196 328.239 140.249 328.441 140.363C328.644 140.477 328.809 140.647 328.917 140.853C329.121 141.266 329.244 141.714 329.279 142.174C329.351 142.706 329.408 143.315 329.077 143.73C328.862 143.981 328.568 144.151 328.243 144.213C327.25 144.46 326.215 144.107 325.278 143.696C324.949 143.581 324.656 143.383 324.426 143.121C324.261 142.879 324.172 142.592 324.171 142.299C324.171 141.725 324.334 141.163 324.642 140.678C324.951 140.194 325.39 139.807 325.91 139.564C326.19 139.416 326.5 139.331 326.816 139.316C327.228 139.327 327.62 139.493 327.914 139.782C328.207 140.071 328.379 140.461 328.396 140.872" fill="#E0D8C7"/>
<path d="M251.841 146.298C251.362 146.127 250.932 146.652 250.757 147.131C249.9 149.49 251.088 152.047 252.188 154.304C253.288 156.56 254.33 159.25 253.223 161.487C252.184 163.602 249.208 164.474 247.19 163.256" stroke="#E0D8C7" stroke-width="0.511271" stroke-miterlimit="10"/>
<path d="M216.156 150.849C216.266 150.765 216.399 150.716 216.537 150.708C221.526 150.05 226.402 152.896 229.819 156.594C230.68 157.53 231.601 158.58 232.735 159.048C232.704 159.105 232.682 159.166 232.655 159.227C231.92 159.52 231.22 159.988 230.482 160.285C228.377 161.148 225.964 160.692 223.814 159.935C221.861 159.246 219.962 158.295 218.485 156.849C217.008 155.403 215.973 153.425 216.004 151.343C215.994 151.255 216.003 151.166 216.029 151.081C216.055 150.996 216.098 150.917 216.156 150.849Z" fill="#E0D8C7"/>
<path d="M240.197 156.743C240.105 156.648 240 156.568 239.885 156.503C239.234 156.145 238.039 156.45 238.039 156.45C236.84 156.83 235.584 157.29 234.834 158.295C234.374 158.976 234.089 159.76 234.005 160.578C233.878 161.153 233.899 161.751 234.066 162.317C234.205 162.672 234.422 162.992 234.701 163.253C235.041 163.589 235.445 163.854 235.89 164.031C236.334 164.208 236.81 164.293 237.289 164.282C237.767 164.27 238.238 164.163 238.674 163.965C239.109 163.767 239.501 163.483 239.824 163.131C237.533 160.563 239.284 157.861 240.197 156.743Z" fill="#E0D8C7"/>
<path d="M239.248 153.246C238.567 152.652 237.75 152.235 236.87 152.032C236.487 151.949 236.099 151.894 235.709 151.868C235.277 151.807 234.837 151.845 234.422 151.979C233.941 152.217 233.527 152.573 233.22 153.014C232.835 153.42 232.531 153.897 232.325 154.418C232.179 155.012 232.179 155.634 232.325 156.229C232.394 156.769 232.578 157.288 232.866 157.751C233.013 157.981 233.22 158.169 233.464 158.294C233.708 158.419 233.981 158.477 234.255 158.462C234.255 158.462 235.777 156.145 238.441 156.114C241.106 156.084 239.248 153.246 239.248 153.246Z" fill="#E0D8C7"/>
<path d="M242.501 152.344C242.223 150.605 241.564 148.604 240.735 148.258C239.532 147.752 238.12 148.162 237.028 148.874C236.582 149.132 236.205 149.495 235.931 149.932C235.68 150.381 235.368 151.286 235.867 151.4C236.365 151.514 239.094 151.705 239.916 153.386C240.738 155.068 240.971 155.08 240.971 155.08L241.873 154.76C241.873 154.76 242.778 154.083 242.501 152.344Z" fill="#E0D8C7"/>
<path d="M247.061 152.504C247.35 151.362 249.086 153.645 249.547 154.741C249.961 155.711 250.163 156.914 249.527 157.751C249.249 158.093 248.891 158.363 248.485 158.534C246.677 159.387 244.298 159.063 242.993 157.549C242.993 157.549 241.47 156.64 241.992 155.89C242.513 155.141 244.054 155.742 244.523 155.456C244.991 155.171 246.471 154.817 247.061 152.504Z" fill="#E0D8C7"/>
<path d="M247.396 159.04C248.834 158.747 247.137 162.065 245.957 162.936C245.146 163.477 244.221 163.823 243.255 163.949C242.456 164.089 241.557 164.158 240.903 163.682C240.631 163.499 240.405 163.256 240.244 162.971C239.951 162.392 238.566 160.361 240.275 157.343C241.984 154.326 242.178 160.098 247.396 159.04Z" fill="#E0D8C7"/>
<path d="M241.873 155.198C244.332 151.694 240.887 150.054 242.166 148.288C242.576 147.925 243.093 147.706 243.639 147.664C244.151 147.734 244.627 147.97 244.99 148.338C245.964 149.144 246.924 150.164 246.981 151.424C246.98 152.252 246.678 153.053 246.132 153.676C245.479 154.337 244.749 154.918 243.959 155.407C243.617 155.526 243.253 155.568 242.893 155.532C242.533 155.496 242.185 155.382 241.873 155.198Z" fill="#E0D8C7"/>
<path d="M243.909 156.51C243.57 157.526 242.474 158.143 241.404 158.219C240.955 158.257 240.503 158.204 240.076 158.061C239.648 157.919 239.255 157.69 238.919 157.389C238.589 157.083 238.347 156.693 238.22 156.262C238.093 155.83 238.085 155.371 238.196 154.935C238.33 154.528 238.556 154.157 238.857 153.851C239.158 153.546 239.526 153.314 239.931 153.174C241.218 152.709 242.048 152.538 243.357 153.935C244.666 155.331 243.909 156.51 243.909 156.51Z" fill="#E0D8C7"/>
<path d="M243.909 156.51C243.57 157.526 242.474 158.143 241.404 158.219C240.955 158.257 240.503 158.204 240.076 158.061C239.648 157.919 239.255 157.69 238.919 157.389C238.589 157.083 238.347 156.693 238.22 156.262C238.093 155.83 238.085 155.371 238.196 154.935C238.33 154.528 238.556 154.157 238.857 153.851C239.158 153.546 239.526 153.314 239.931 153.174C241.218 152.709 242.048 152.538 243.357 153.935C244.666 155.331 243.909 156.51 243.909 156.51Z" stroke="#E0D8C7" stroke-width="0.511271" stroke-miterlimit="10"/>
<path d="M305.817 134.651C308.303 134.435 310.514 133.038 312.577 131.634C315.622 129.557 318.746 127.224 320.273 123.861C320.352 123.732 320.403 123.588 320.422 123.437C320.441 123.287 320.428 123.134 320.383 122.99C320.155 122.507 319.435 122.609 318.94 122.819C317.787 123.31 316.714 123.973 315.759 124.786C316.752 123.404 317.86 121.943 319.481 121.422C319.733 121.36 319.977 121.27 320.208 121.152C320.866 120.749 320.939 119.725 320.459 119.124C320.2 118.838 319.869 118.626 319.499 118.512C319.13 118.399 318.737 118.386 318.362 118.477C317.611 118.668 316.922 119.048 316.36 119.581C315.774 120.083 315.237 120.646 314.609 121.103C314.756 120.353 315.097 119.654 315.598 119.077C316.099 118.499 316.742 118.063 317.464 117.811C318.015 117.694 318.547 117.5 319.043 117.233C319.239 117.08 319.402 116.889 319.521 116.671C319.64 116.453 319.714 116.213 319.737 115.965C319.759 115.718 319.731 115.469 319.654 115.232C319.577 114.996 319.452 114.779 319.287 114.593C319.138 114.429 318.943 114.315 318.727 114.265C318.497 114.234 318.263 114.26 318.046 114.341C315.591 115.102 313.859 117.214 312.265 119.231C312.891 116.982 314.281 115.022 316.196 113.687C316.632 113.433 317.027 113.115 317.369 112.743C317.537 112.555 317.647 112.322 317.684 112.073C317.722 111.824 317.687 111.569 317.582 111.339C317.163 110.62 316.059 110.788 315.344 111.202C313.304 112.371 312.143 114.585 311.092 116.685C311.149 115.424 311.457 114.187 312 113.048C312.542 111.908 313.308 110.888 314.251 110.05C314.742 109.62 315.332 109.106 315.233 108.463C315.178 108.227 315.048 108.016 314.864 107.858C314.68 107.701 314.451 107.606 314.21 107.588C313.723 107.567 313.242 107.7 312.836 107.968C311.676 108.697 310.776 109.773 310.263 111.043C309.76 112.303 309.391 113.613 309.163 114.95C308.864 112.721 309.317 110.456 310.449 108.512C310.742 108.006 311.1 107.432 310.906 106.88C310.666 106.176 309.642 106.043 309.03 106.458C308.417 106.873 308.128 107.622 307.918 108.334C307.445 109.949 307.189 111.62 307.157 113.303C306.046 111.157 307.104 108.562 306.959 106.15C304.508 106.07 301.787 106.112 299.994 107.786C300.783 109.617 301.28 111.561 301.467 113.546C300.955 112.092 300.24 110.718 299.343 109.464C299.047 108.954 298.583 108.563 298.03 108.356C297.463 108.208 296.736 108.596 296.763 109.182C296.826 109.523 297 109.833 297.258 110.065C298.565 111.594 299.305 113.526 299.355 115.536C298.774 114.615 298.194 113.695 297.615 112.774C297.121 111.99 296.573 111.161 295.712 110.814C294.852 110.468 293.634 110.902 293.551 111.823C295.239 113.08 296.64 114.682 297.661 116.522C296.946 115.589 296.037 114.823 294.997 114.277C294.472 114.004 293.894 113.848 293.304 113.817C292.713 113.786 292.122 113.882 291.571 114.098C291.237 114.246 290.879 114.574 291.012 114.916C291.1 115.084 291.242 115.218 291.415 115.296C292.906 116.146 294.283 117.18 295.515 118.375C294.921 117.675 294.182 117.114 293.349 116.731C292.5 116.4 291.446 116.461 290.784 117.111C290.121 117.762 290.064 118.633 289.984 119.463C291.741 119.707 293.396 120.432 294.765 121.559C293.973 121.021 293.055 120.697 292.101 120.619C291.427 120.566 290.612 120.73 290.357 121.357C290.102 121.985 290.574 122.659 291.157 122.963C291.739 123.267 292.416 123.309 293.06 123.469C293.703 123.629 294.361 123.975 294.582 124.611C293.738 124.321 292.858 124.154 291.967 124.112C291.784 124.087 291.597 124.124 291.438 124.219C291.153 124.436 291.267 124.885 291.412 125.212C292.9 128.575 295.195 131.71 298.426 133.476C301.657 135.241 305.909 135.378 308.877 133.206" fill="#E0D8C7"/>
<path d="M306.074 134.439C308.173 134.264 310.172 133.467 311.815 132.149C313.458 130.831 314.67 129.053 315.296 127.042C315.859 125.117 315.897 122.945 317.142 121.373C316.683 120.97 316.124 120.7 315.524 120.59C314.924 120.48 314.305 120.535 313.733 120.749C313.162 120.963 312.659 121.328 312.279 121.805C311.898 122.282 311.655 122.853 311.574 123.458C311.692 121.67 312.993 120.205 314.28 118.953C314.637 118.607 315.041 118.135 314.862 117.667C314.683 117.199 313.964 117.093 313.442 117.256C311.638 117.827 310.736 119.817 310.219 121.636C310.428 120.61 310.789 119.622 311.288 118.702C311.855 117.66 312.616 116.659 312.723 115.48C312.741 115.366 312.725 115.249 312.677 115.145C312.567 114.954 312.297 114.943 312.08 114.977C310.885 115.179 309.926 116.138 309.416 117.23C308.952 118.351 308.669 119.539 308.578 120.749C308.648 119.193 308.942 117.655 309.454 116.183C309.627 115.787 309.723 115.361 309.735 114.928C309.737 114.711 309.669 114.5 309.541 114.325C309.414 114.149 309.234 114.02 309.027 113.954C308.342 113.813 307.886 114.623 307.684 115.293C307.246 116.801 306.976 118.353 306.881 119.92C307.227 117.829 306.854 115.683 305.823 113.832C305.63 113.43 305.331 113.088 304.959 112.843C304.77 112.724 304.548 112.67 304.325 112.69C304.103 112.71 303.894 112.802 303.729 112.953C303.547 113.199 303.445 113.495 303.436 113.802C303.156 116.218 303.359 118.667 304.034 121.004C303.84 118.877 303.528 116.617 302.131 115C301.911 114.706 301.605 114.488 301.256 114.376C301.08 114.324 300.891 114.336 300.724 114.412C300.557 114.487 300.423 114.621 300.346 114.787C300.285 115.09 300.344 115.405 300.51 115.666C301.392 117.551 302.032 119.54 302.413 121.586C302.015 119.799 301.171 118.141 299.958 116.769C299.337 116.069 298.317 115.415 297.533 115.928C297.424 115.998 297.333 116.092 297.267 116.203C297.201 116.314 297.162 116.439 297.153 116.568C297.179 116.75 297.241 116.926 297.336 117.084C297.431 117.242 297.556 117.379 297.705 117.488C299.034 118.777 300.131 120.286 300.947 121.948C300.399 120.806 299.805 119.642 298.824 118.873C297.842 118.105 296.285 117.884 295.349 118.729C295.006 119.037 294.778 119.581 295.056 119.95C295.215 120.129 295.42 120.26 295.649 120.331C297.29 121.012 298.661 122.215 299.547 123.755C299.198 123.069 298.746 122.44 298.207 121.891C297.935 121.617 297.61 121.404 297.25 121.264C296.891 121.124 296.506 121.062 296.121 121.08C294.979 121.202 294.169 122.222 293.495 123.142C294.508 123.523 294.983 124.664 295.375 125.661C296.02 127.486 296.902 129.218 297.998 130.813C299.107 132.404 300.683 133.613 302.508 134.271C304.103 134.76 305.807 134.76 307.402 134.271" fill="#E0D8C7"/>
<path d="M305.243 134.545C303.835 134.488 302.693 133.404 301.795 132.331C301.145 131.549 300.545 130.727 299.998 129.869C299.572 129.196 299.161 128.412 299.351 127.636C300.399 128.31 301.329 129.152 302.103 130.128C301.303 129.402 300.586 128.591 299.964 127.708C299.533 127.169 299.243 126.531 299.123 125.851C299.405 125.726 299.713 125.943 299.938 126.152C300.855 126.991 301.688 127.919 302.423 128.922C301.695 128.184 301.003 127.414 300.349 126.612C300.058 126.314 299.857 125.939 299.77 125.532C299.758 125.474 299.766 125.413 299.793 125.36C299.815 125.332 299.842 125.309 299.874 125.293C299.905 125.276 299.94 125.267 299.976 125.265C300.136 125.272 300.293 125.314 300.436 125.387C300.578 125.461 300.703 125.565 300.802 125.691L303.614 128.408C302.75 127.182 302.004 125.878 301.384 124.512C301.22 124.132 301.068 123.705 301.281 123.371C302.222 124.501 303.035 125.733 303.705 127.042C303.298 125.612 302.469 124.265 302.469 122.777C302.469 122.545 302.587 122.233 302.815 122.282C302.898 122.311 302.97 122.366 303.02 122.438C303.976 123.57 304.646 124.914 304.977 126.357C304.912 125.596 304.68 124.835 304.55 124.074C304.371 123.314 304.429 122.517 304.718 121.792C304.935 121.818 305.06 122.046 305.144 122.248C305.762 123.748 306.06 125.36 306.02 126.981C306.083 125.511 306.264 124.048 306.56 122.606C306.617 122.313 306.792 121.944 307.085 121.997C307.161 122.021 307.231 122.063 307.288 122.118C307.345 122.174 307.389 122.242 307.416 122.317C307.618 122.836 307.692 123.395 307.633 123.949C307.585 125.052 307.438 126.148 307.196 127.225C307.495 125.97 307.91 124.746 308.436 123.568C308.551 123.34 308.71 123.085 308.965 123.07C309.028 123.82 308.951 124.574 308.737 125.296C308.509 126.262 308.265 127.225 308.006 128.184L309.803 124.759C309.982 124.413 310.256 123.998 310.644 124.055C310.442 125.89 309.97 127.685 309.243 129.382L311.238 126.228C311.333 126.076 311.515 125.897 311.668 125.996C311.731 126.046 311.771 126.118 311.782 126.198C311.857 126.68 311.796 127.174 311.607 127.624C310.149 133.632 306.918 134.473 306.918 134.473C306.382 134.675 305.795 134.7 305.243 134.545Z" fill="#E0D8C7"/>
<path d="M306.591 133.845C307.17 133.596 307.683 133.215 308.09 132.733C308.497 132.251 308.786 131.681 308.935 131.068C309.064 130.451 308.998 129.809 308.746 129.231C308.495 128.653 308.07 128.168 307.531 127.841C307.038 127.591 306.488 127.474 305.936 127.503C305.462 127.515 304.999 127.646 304.589 127.883C304.214 128.134 303.908 128.474 303.698 128.873C303.488 129.271 303.381 129.716 303.386 130.166C303.413 131.077 303.692 131.962 304.193 132.723C304.458 133.215 304.853 133.624 305.335 133.906" fill="#E0D8C7"/>
<path d="M336.873 73.699C336.799 72.1718 336.311 70.6935 335.461 69.4224C335.032 68.792 334.468 68.2654 333.81 67.881C333.151 67.4965 332.415 67.264 331.655 67.2004C330.921 67.17 330.099 67.3869 329.722 68.0185C329.345 68.65 329.531 69.4567 329.722 70.1682C331.819 80.4411 328.881 82.0886 327.058 82.7773C325.234 83.466 320.043 81.3733 318.509 80.7189C317.147 80.133 316.191 78.8355 315.388 77.5837C315.195 77.1806 314.88 76.849 314.486 76.6363C314.257 76.5687 314.013 76.5687 313.783 76.6361C313.554 76.7036 313.349 76.8358 313.192 77.0168C312.887 77.3874 312.686 77.8326 312.61 78.3066C312.012 81.0765 313.227 84.0785 315.392 85.9163C317.558 87.754 320.561 87.6893 323.362 88.1154C331.64 89.3748 337.041 78.8583 336.873 73.699Z" fill="#E0D8C7"/>
<path d="M340.22 76.6624C340.292 76.1754 340.25 75.521 339.786 75.384C339.405 75.2622 339.025 75.5514 338.766 75.8291C336.482 78.1653 335.295 81.3994 332.931 83.648V83.8687L332.828 83.922C332.828 83.922 331.062 85.3145 331.557 86.2049C331.665 86.4428 331.861 86.6291 332.105 86.7237C332.348 86.8183 332.619 86.8137 332.859 86.7109C334.799 85.745 336.48 84.3288 337.76 82.5806C339.041 80.8324 339.884 78.8031 340.22 76.6624Z" fill="#E0D8C7"/>
<path d="M333.853 88.4612C335.096 88.5428 336.342 88.3429 337.497 87.8765C338.652 87.4101 339.687 86.6892 340.525 85.7674C340.898 85.3655 341.216 84.915 341.469 84.4281C341.81 83.7331 341.954 82.9583 341.887 82.1871C341.895 82.0009 341.853 81.816 341.764 81.6519C341.676 81.4878 341.545 81.3507 341.385 81.2549C341.216 81.2176 341.041 81.2208 340.873 81.2645C340.706 81.3081 340.551 81.3909 340.422 81.506C335.527 85.9881 332.917 86.5398 332.624 86.9773C332.33 87.4149 332.601 88.3813 333.853 88.4612Z" fill="#E0D8C7"/>
<path d="M340.183 88.2753C340.37 88.4427 340.564 88.5188 340.594 88.7395C340.614 88.9629 340.562 89.1869 340.446 89.3787C340.234 89.7749 339.908 90.0983 339.51 90.3071C339.305 90.4101 339.091 90.4929 338.87 90.5544C337.112 91.0833 335.228 90.9349 333.45 90.4783C332.656 90.1675 331.879 89.8118 331.125 89.413L332.43 88.5112C335.757 89.4624 339.121 87.5676 340.183 88.2753Z" fill="#E0D8C7"/>
<path d="M314.049 89.6485C313.627 89.3974 313.163 88.9598 313.338 88.5071C313.479 88.1266 313.939 88.0353 314.327 88.001C317.578 87.7271 320.839 88.8533 324.074 88.4538L324.25 88.5908L324.352 88.5451C324.352 88.5451 326.552 88.0657 326.921 89.0093C327.038 89.2433 327.057 89.5136 326.976 89.7619C326.895 90.0103 326.719 90.2168 326.487 90.3372C324.51 91.2235 322.349 91.6235 320.185 91.5036C318.021 91.3838 315.917 90.7477 314.049 89.6485Z" fill="#E0D8C7"/>
<path d="M327.216 92.2166C326.489 93.2284 325.544 94.0636 324.45 94.6603C323.356 95.2571 322.142 95.6 320.898 95.6637C320.35 95.6958 319.801 95.6549 319.265 95.542C318.51 95.3644 317.818 94.9842 317.263 94.4424C317.117 94.3281 317.005 94.1765 316.938 94.0038C316.871 93.8311 316.852 93.6435 316.882 93.4608C316.961 93.3064 317.075 93.173 317.215 93.0717C317.355 92.9705 317.518 92.9043 317.689 92.8786C324.255 91.9388 326.34 90.2761 326.865 90.3256C327.391 90.3751 327.946 91.2007 327.216 92.2166Z" fill="#E0D8C7"/>
<path d="M323.051 96.9841C323.051 97.2352 322.998 97.4331 323.15 97.5967C323.311 97.7526 323.518 97.8537 323.74 97.8859C324.181 97.9737 324.638 97.9273 325.053 97.7527C325.262 97.6608 325.461 97.5473 325.647 97.4141C327.169 96.3906 328.246 94.8382 329.026 93.1793C329.293 92.3684 329.511 91.5426 329.681 90.7062L328.159 91.1437C326.777 94.3208 323.177 95.7171 323.051 96.9841Z" fill="#E0D8C7"/>
<path d="M333.305 82.8534L329.294 87.0691C329.133 87.2618 328.936 87.4219 328.715 87.5409C328.427 87.6432 328.121 87.6834 327.817 87.6589C326.316 87.658 324.827 87.926 323.421 88.4503C324.029 89.2634 324.763 89.9748 325.594 90.5581C327.136 91.6387 329.217 92.2361 330.9 91.4028C332.072 90.8207 332.845 89.6526 333.374 88.4579C334.135 86.7762 334.481 84.7558 333.606 83.1312" fill="#E0D8C7"/>
<path d="M330.199 84.4852C330.763 82.9137 331.17 81.2899 331.413 79.6379C331.654 77.9749 331.389 76.278 330.652 74.7677C329.99 73.5833 329.013 72.6059 327.828 71.9446C326.14 70.9341 324.126 70.619 322.21 71.0657C321.264 71.3016 320.391 71.7681 319.669 72.4233C318.947 73.0786 318.399 73.9023 318.073 74.821C317.788 75.8093 317.715 76.8462 317.856 77.8649C317.967 79.4569 318.565 80.9763 319.569 82.2176C322.614 85.2614 327.862 87.3388 328.84 87.0763C329.818 86.8138 330.199 84.4852 330.199 84.4852Z" fill="#E0D8C7"/>
<path d="M328.645 84.4053C328.809 83.1522 328.711 81.8786 328.355 80.6658C327.999 79.4531 327.394 78.328 326.578 77.3626C326.56 77.3359 326.537 77.313 326.51 77.2954C326.484 77.2777 326.453 77.2657 326.422 77.2598" stroke="#E0D8C7" stroke-width="0.511271" stroke-linecap="round" stroke-linejoin="round"/>
<path d="M327.71 84.0479L323.764 77.3095V77.5226" stroke="#E0D8C7" stroke-width="0.511271" stroke-linecap="round" stroke-linejoin="round"/>
<path d="M327.773 84.8086C325.25 83.6936 323.136 81.823 321.722 79.4552" stroke="#E0D8C7" stroke-width="0.511271" stroke-linecap="round" stroke-linejoin="round"/>
<path d="M331.287 91.2051C331.439 90.4535 331.516 89.6889 331.519 88.9222C331.572 87.9864 331.365 87.0544 330.922 86.2284C330.221 85.0869 328.893 84.4858 327.649 83.9455C327.245 85.4674 327.196 87.191 328.075 88.5113C328.476 89.0579 328.961 89.537 329.514 89.9305C330.02 90.3535 330.582 90.7043 331.184 90.973" fill="#E0D8C7"/>
<path d="M321.948 80.4219L321.651 80.46L321.355 80.4219C321.212 80.3895 321.081 80.3199 320.974 80.2203C320.853 80.145 320.754 80.0385 320.689 79.9121C320.609 79.7892 320.563 79.6474 320.555 79.5011C320.525 79.3545 320.533 79.2025 320.578 79.0598L320.689 78.7973C320.781 78.635 320.912 78.4978 321.069 78.3978L321.336 78.2874C321.527 78.2342 321.73 78.2342 321.922 78.2874L321.629 78.2494L321.336 78.2874C321.479 78.2431 321.631 78.2365 321.777 78.2684C321.923 78.2753 322.065 78.3213 322.188 78.4016C322.315 78.4673 322.421 78.5659 322.496 78.6869C322.595 78.7941 322.663 78.9254 322.694 79.0674L322.736 79.3642C322.734 79.5593 322.681 79.7506 322.584 79.9197L322.413 80.1442C322.276 80.2791 322.107 80.3773 321.922 80.4295L321.948 80.4219Z" fill="#E0D8C7"/>
<path d="M324.467 76.1226C324.601 76.2565 324.698 76.4231 324.748 76.6058C324.798 76.7954 324.798 76.9946 324.748 77.1842L324.638 77.4505C324.572 77.577 324.474 77.6834 324.353 77.7587C324.286 77.8274 324.202 77.8773 324.109 77.9033C323.978 77.9713 323.831 78.0041 323.683 77.9984C323.535 78.0037 323.388 77.971 323.257 77.9033C323.12 77.8577 322.997 77.7793 322.899 77.675L322.727 77.4505C322.647 77.328 322.603 77.1859 322.598 77.0396C322.571 76.9437 322.571 76.8425 322.598 76.7466C322.603 76.6003 322.647 76.4582 322.727 76.3357L322.899 76.1112C323.036 75.9763 323.205 75.8781 323.39 75.8259L323.683 75.7878C323.831 75.7803 323.978 75.8132 324.109 75.8829C324.201 75.9075 324.285 75.9561 324.353 76.0237C324.473 76.1014 324.571 76.2089 324.638 76.3357L323.694 75.7954C323.794 75.7855 323.894 75.7985 323.987 75.8335C324.169 75.8847 324.334 75.9816 324.467 76.115V76.1226Z" fill="#E0D8C7"/>
<path d="M326.643 75.708C326.792 75.6989 326.939 75.7319 327.07 75.8031C327.207 75.8444 327.33 75.9235 327.424 76.0314C327.529 76.1279 327.607 76.2498 327.652 76.3852C327.721 76.5162 327.754 76.6634 327.747 76.8114L327.709 77.1043C327.658 77.2837 327.562 77.4472 327.431 77.5799L327.207 77.755C327.038 77.853 326.846 77.9042 326.651 77.9033C326.503 77.9105 326.356 77.8776 326.225 77.8082C326.087 77.7656 325.964 77.6867 325.867 77.5799C325.762 77.4834 325.683 77.3616 325.639 77.2261C325.569 77.1016 325.531 76.9617 325.528 76.819L325.57 76.526C325.622 76.3427 325.719 76.1753 325.852 76.039L326.076 75.864C326.246 75.7658 326.44 75.7146 326.636 75.7156L326.643 75.708Z" fill="#E0D8C7"/>
<path d="M278.063 123.561C279.087 123.561 279.917 124.391 279.917 125.414C279.917 126.438 279.087 127.267 278.063 127.267C277.04 127.267 276.21 126.438 276.21 125.414C276.21 124.391 277.04 123.561 278.063 123.561Z" fill="#E0D8C7"/>
<path d="M269.261 125.414C269.26 125.814 269.378 126.206 269.6 126.54C269.822 126.873 270.138 127.133 270.508 127.287C270.878 127.441 271.285 127.481 271.678 127.403C272.071 127.326 272.432 127.133 272.716 126.85C273 126.567 273.193 126.207 273.271 125.814C273.35 125.421 273.31 125.014 273.157 124.644C273.003 124.274 272.744 123.958 272.411 123.735C272.078 123.512 271.686 123.394 271.286 123.394C270.749 123.394 270.235 123.606 269.855 123.985C269.476 124.364 269.262 124.878 269.261 125.414Z" fill="#E0D8C7"/>
<path d="M266.513 119.961C266.513 120.308 266.616 120.647 266.808 120.936C267.001 121.224 267.275 121.449 267.596 121.582C267.916 121.715 268.269 121.749 268.61 121.682C268.95 121.614 269.263 121.447 269.508 121.202C269.753 120.956 269.92 120.644 269.988 120.304C270.056 119.963 270.021 119.611 269.888 119.29C269.755 118.97 269.531 118.696 269.242 118.503C268.954 118.31 268.614 118.207 268.267 118.207C268.037 118.207 267.809 118.253 267.596 118.341C267.383 118.429 267.19 118.558 267.027 118.721C266.864 118.884 266.734 119.077 266.646 119.29C266.558 119.503 266.513 119.731 266.513 119.961Z" fill="#E0D8C7"/>
</svg>
