<svg width="360" height="375" viewBox="0 0 360 375" fill="none" xmlns="http://www.w3.org/2000/svg">
<g clip-path="url(#clip0_29_1150)">
<path d="M103.284 38.9467C105.392 38.233 107.343 37.1022 109.029 35.6177C110.573 34.3643 111.925 33.3866 113.731 33.3311C114.767 33.3486 115.795 33.5135 116.787 33.8209L116.132 33.5593C116.686 33.7431 117.168 33.9101 117.68 34.0582C116.435 33.5147 115.227 32.8861 114.063 32.1768C112.521 31.173 111.86 29.4635 110.882 27.6981C109.797 25.4056 108.09 23.4858 105.967 22.171C105.29 21.7596 105.729 21.715 106.836 21.9146C107.383 22.0191 108.104 22.1619 108.92 22.3992C109.735 22.6364 110.652 22.9514 111.609 23.2863C112.092 23.4534 112.582 23.6196 113.075 23.8176L114.545 24.4686C115.52 24.9058 116.486 25.3358 117.368 25.7823C118.76 26.5027 120.09 27.3449 121.342 28.2998C122.064 28.9802 122.699 29.7519 123.233 30.5966C123.81 31.4653 124.3 32.3915 124.696 33.3612C125.281 34.7596 125.752 36.2054 126.105 37.6838C126.105 37.6838 126.179 37.7244 126.325 37.7895L126.933 38.1279C127.452 38.4274 128.192 38.8484 129.087 39.3496C129.983 39.8509 130.98 40.5179 132.057 41.2167C132.589 41.5709 133.157 41.9053 133.717 42.3125L135.352 43.547L137.025 44.7855L138.534 46.0888C139.502 46.9428 140.446 47.7033 141.156 48.4635L143.614 50.9029L142.381 52.0766L140.095 49.5557C139.429 48.775 138.545 47.9845 137.635 47.0926C137.173 46.6513 136.694 46.1958 136.214 45.7244L134.658 44.4258L133.102 43.1114C132.58 42.7002 132.039 42.323 131.528 41.9428C130.493 41.1996 129.552 40.4629 128.678 39.9435L126.55 38.5911C126.052 38.2655 125.727 38.1145 125.727 38.1145C124.979 38.4226 123.345 39.0608 121.626 39.6197C120.001 40.2487 118.299 40.6399 116.568 40.782C115.289 40.7672 114.013 40.6561 112.75 40.4497C111.964 40.3615 111.107 40.2645 110.259 40.1747L109.007 40.0137L107.76 39.9004C106.975 39.8201 106.19 39.7398 105.536 39.6462C104.882 39.5527 104.28 39.5178 103.845 39.442C102.985 39.3132 102.657 39.1385 103.284 38.9467Z" fill="#DCD5C7"/>
<path d="M111.64 31.3824C111.64 31.3824 111.05 31.2263 110.107 31.042C109.164 30.8577 107.883 30.5477 106.48 30.2741C105.078 30.0004 103.586 29.6799 102.223 29.4182C101.055 29.2135 99.9077 28.896 98.7971 28.4698C97.1196 27.84 96.1606 26.4328 94.9215 24.862C94.2594 24.0212 93.5188 23.2494 92.7103 22.5576C91.6992 21.6879 90.5472 21.0085 89.307 20.5505C88.5983 20.2944 89.0134 20.1642 90.045 20.1394C91.6337 20.1892 93.2188 20.322 94.7944 20.537C98.6668 21.1119 103.246 22.3273 104.924 23.2852C105.892 23.843 106.778 24.5398 107.556 25.3547C108.346 26.1965 109.065 27.106 109.705 28.0735C110.312 28.9643 110.787 29.7883 111.116 30.3792C111.445 30.97 111.64 31.3824 111.64 31.3824Z" fill="#DCD5C7"/>
<path d="M89.6484 38.3875C90.6831 37.8502 91.6456 37.1766 92.5116 36.3838C93.2387 35.6865 93.923 34.9434 94.5606 34.1587C95.7856 32.7457 96.8611 31.4759 98.5784 31.0612C99.7214 30.888 100.879 30.8401 102.032 30.9183C103.454 31.0079 104.87 31.182 106.272 31.4398C107.649 31.6841 108.904 32.0447 109.819 32.2639C110.319 32.3822 110.813 32.5271 111.299 32.6977L110.417 33.3155C109.872 33.7071 109.107 34.249 108.227 34.7947C107.346 35.3404 106.444 35.9043 105.506 36.4237C104.658 36.9278 103.749 37.3136 102.802 37.5709C101.218 37.916 97.3355 38.2065 94.1635 38.4489C92.5697 38.6109 91.1684 38.7533 90.3047 38.745C89.4409 38.7367 89.0791 38.6935 89.6484 38.3875Z" fill="#DCD5C7"/>
<path d="M96.7989 28.961L95.2393 28.9114C94.2786 28.865 92.969 28.91 91.5495 28.8622C88.708 28.8229 85.437 28.8432 83.6845 28.485C81.932 28.1269 80.7726 26.9002 79.3169 25.5835C77.6166 23.8859 75.4864 22.7156 73.17 22.2065C72.4481 22.0558 72.8263 21.8653 73.8974 21.6844C74.4286 21.6304 75.1078 21.4973 75.9093 21.4239C76.7108 21.3504 77.62 21.3461 78.5823 21.3283C79.5446 21.3105 80.5531 21.2881 81.5593 21.3219C82.5654 21.3557 83.5684 21.4378 84.5014 21.5191C85.3569 21.5755 86.2084 21.6841 87.0515 21.8442C87.666 21.948 88.2741 22.0893 88.8724 22.2674C89.3768 22.4415 89.8658 22.6596 90.3343 22.9191C90.8334 23.2027 91.3153 23.5172 91.7773 23.861C92.6775 24.5366 93.5283 25.2794 94.3228 26.0833C94.9668 26.7133 95.5781 27.3778 96.1541 28.0741C96.5568 28.6255 96.7989 28.961 96.7989 28.961Z" fill="#DCD5C7"/>
<path d="M76.1377 39.7766C77.8772 38.4428 79.3298 36.7529 80.4041 34.8131C81.3992 33.1913 82.2602 31.7112 83.9323 31.0691C85.6044 30.427 88.7797 30.0563 91.6088 30.0488C93.0099 30.0665 94.3086 30.0706 95.2501 30.159L96.8196 30.3116L96.0703 31.0921C95.5963 31.5804 94.9488 32.2065 94.2097 32.9299C93.4705 33.6533 92.6343 34.4185 91.7966 35.0879C91.3774 35.4186 90.9552 35.7177 90.5407 36.0159C90.149 36.2895 89.7347 36.5271 89.3027 36.726C88.8147 36.9405 88.312 37.1174 87.7985 37.255C87.177 37.4222 86.4585 37.6313 85.6869 37.8538C84.9152 38.0762 84.0874 38.2804 83.2665 38.4759C82.4456 38.6714 81.6154 38.9318 80.8268 39.14C80.0382 39.3482 79.3082 39.5184 78.6383 39.6666C77.9683 39.8147 77.4085 39.9756 76.9734 40.0599C75.9693 40.2099 75.6068 40.1587 76.1377 39.7766Z" fill="#DCD5C7"/>
<path d="M82.2704 29.2212C82.1311 29.2264 81.9923 29.2405 81.8546 29.2634C81.5852 29.2908 81.1963 29.3703 80.7289 29.4418C79.7788 29.5864 78.4752 29.7749 77.0685 29.9419C75.6618 30.1089 74.1587 30.4057 72.7728 30.5465C71.6049 30.7248 70.4257 30.8125 69.2451 30.809C67.4599 30.6783 66.1441 29.6035 64.541 28.5339C63.6878 27.9143 62.7826 27.3742 61.8363 26.92C60.6507 26.3753 59.3796 26.0545 58.0837 25.9728C56.6119 25.8663 59.4953 24.965 63.2721 24.3811C67.0488 23.7971 71.6567 23.5289 73.4931 23.8705C74.5619 24.0706 75.5954 24.435 76.5588 24.9516C77.5554 25.4897 78.5131 26.1012 79.4242 26.7812C80.2626 27.4164 80.997 28.022 81.4984 28.4673C81.9998 28.9125 82.2704 29.2212 82.2704 29.2212Z" fill="#DCD5C7"/>
<path d="M63.1835 42.9978C64.0509 42.1779 64.8109 41.2451 65.4441 40.223C65.9635 39.3349 66.423 38.4111 66.8193 37.4581C67.5898 35.6831 68.2684 34.1655 69.793 33.2822C70.8199 32.7257 71.9102 32.303 73.0386 32.024C74.3662 31.681 75.844 31.3627 77.2269 31.1101C78.6099 30.8575 79.9087 30.7816 80.8549 30.6774C81.3246 30.6296 81.7096 30.5905 81.9713 30.5639C82.2331 30.5373 82.3871 30.5217 82.3871 30.5217L81.767 31.433C81.3776 31.9928 80.8293 32.7609 80.2008 33.5851C79.5724 34.4093 78.8546 35.2745 78.1054 36.055C77.445 36.8427 76.6922 37.5429 75.8641 38.1396C74.4388 39.0047 70.7102 40.4961 67.6601 41.7665C64.6099 43.0369 62.23 43.919 63.1835 42.9978Z" fill="#DCD5C7"/>
<path d="M67.4809 31.7887C67.4809 31.7887 66.8964 31.9361 65.9684 32.2305C65.0404 32.5249 63.7928 32.8918 62.4212 33.2633C59.926 34.0911 57.3697 34.7095 54.7775 35.1126C51.199 35.3322 49.0604 31.5959 43.107 31.7767C42.337 31.855 42.6954 31.5384 43.6475 31.0895C45.1038 30.5043 46.5889 29.998 48.0967 29.5729C48.9939 29.2816 49.9658 29.0388 50.9399 28.8197C51.914 28.6007 52.8727 28.3832 53.7729 28.2037C55.2065 27.9178 56.6628 27.7697 58.1231 27.7616C60.0923 27.7855 62.5091 28.8285 64.3547 29.8334C65.2817 30.3395 66.0679 30.8358 66.6317 31.2027C67.1956 31.5696 67.4809 31.7887 67.4809 31.7887Z" fill="#DCD5C7"/>
<path d="M55.6517 37.5848C57.0357 36.4518 60.0965 35.2923 62.7535 34.4621C64.1073 34.0684 65.3664 33.7403 66.2851 33.5109C67.2038 33.2815 67.8068 33.1642 67.8068 33.1642L67.3098 34.1431C67.0026 34.7505 66.5628 35.5956 66.0428 36.4968C65.058 38.3698 63.7974 40.0746 62.3059 41.5506C61.2564 42.328 60.1613 43.038 59.0269 43.6766C58.2904 44.1036 57.5554 44.5464 56.8189 44.9734C56.0824 45.4004 55.2982 45.8163 54.6087 46.2465C53.1349 47.0926 51.87 47.7653 51.0443 48.1534C50.2185 48.5414 49.8589 48.602 50.2606 48.089C53.7261 44.0152 52.8514 39.7582 55.6517 37.5848Z" fill="#DCD5C7"/>
<path d="M53.1172 36.45L48.5804 38.4317C47.3372 38.9262 46.0362 39.5466 44.8439 40.004C43.8147 40.4231 42.7551 40.7583 41.6748 41.0063C40.0339 41.3251 38.6112 40.6774 36.9153 40.0174C34.8801 39.149 32.6566 38.8556 30.4743 39.1673C29.0945 39.3716 31.5828 37.9982 34.8341 36.5553C36.4962 35.8902 38.3255 35.1841 39.9774 34.656C41.2785 34.2454 42.6085 33.939 43.9555 33.7395C45.7957 33.5525 48.1559 34.2491 49.9796 34.9441C51.0618 35.3615 52.1108 35.865 53.1172 36.45Z" fill="#DCD5C7"/>
<path d="M38.7431 53.637C39.886 51.8735 40.6264 49.8665 40.9089 47.7665C41.2613 46.01 41.5319 44.4538 42.7236 43.2603C43.5413 42.5237 44.4445 41.8942 45.4126 41.3863C46.5884 40.6905 47.8033 40.0672 49.0509 39.5199C50.2671 38.9881 51.4002 38.4808 52.2274 38.1887C52.6464 38.018 52.9783 37.9123 53.227 37.8309L53.6037 37.7046C53.6037 37.7046 53.0914 39.1733 52.3678 41.0316C51.6592 42.9023 50.6634 44.6437 49.4184 46.1894C48.5229 47.0591 47.5586 47.8505 46.5355 48.5553C45.3103 49.4801 43.9217 50.5657 42.6388 51.4564C40.1207 53.329 38.0643 54.6664 38.7431 53.637Z" fill="#DCD5C7"/>
<path d="M40.1798 42.4388L38.9425 43.1568C38.2045 43.568 37.1482 44.2276 35.9973 44.8727C33.7155 46.1291 31.1608 47.7013 29.5774 48.1343C27.9941 48.5673 26.5889 48.1819 24.8757 47.7478C23.9491 47.4868 23.0009 47.3152 22.0433 47.2353C20.8661 47.1861 19.6886 47.3274 18.5539 47.6539C17.9024 47.8322 18.1368 47.5203 18.9043 46.93C20.0452 46.0731 21.2443 45.3013 22.4923 44.6206C25.1788 43.0335 28.0343 41.7711 31.0021 40.8585C32.9929 40.6144 35.0109 40.7765 36.9409 41.3354C38.0417 41.6335 39.1235 42.002 40.1798 42.4388Z" fill="#DCD5C7"/>
<path d="M30.9208 50.2222C32.5996 48.5112 34.511 47.0606 36.5953 45.9159C37.7062 45.2588 38.7354 44.642 39.5465 44.2634C40.3577 43.8848 40.8168 43.6461 40.8168 43.6461C40.8168 43.6461 40.4939 45.1435 39.9351 46.9371C39.4816 48.8335 38.7067 50.6326 37.646 52.2519C36.7191 53.5306 33.9415 56.0218 31.7241 58.1119C30.5766 59.1169 29.5792 60.0667 28.9519 60.5786C28.3247 61.0906 27.9781 61.2058 28.259 60.649C28.76 59.6657 29.1199 58.6128 29.3275 57.5232C29.509 56.6079 29.6305 55.6811 29.6912 54.749C29.8157 53.0477 29.8915 51.4873 30.9208 50.2222Z" fill="#DCD5C7"/>
<path d="M29.4289 49.7418C29.3752 50.9369 29.1084 52.1116 28.6417 53.2072C27.668 55.4928 26.0531 57.4267 24.0042 58.7607C22.9139 59.5518 20.1555 60.8646 17.5595 62.2489C16.2222 62.897 14.9588 63.5856 13.8981 64.1176C13.143 64.5274 12.3484 64.8549 11.5273 65.0949C11.7447 64.2446 12.0573 63.4232 12.4588 62.6472C13.0592 61.3336 13.7452 60.0634 14.512 58.845C15.8373 56.5676 17.3923 54.4406 19.1512 52.499C20.9888 50.6333 23.4069 49.4948 25.9798 49.284C27.1478 49.1905 28.322 49.3464 29.4289 49.7418Z" fill="#DCD5C7"/>
<path d="M71.3732 45.4377C71.3732 45.4377 71.2124 45.4957 70.977 45.6041C70.7417 45.7126 70.3998 45.8359 70.1042 45.9795C69.8086 46.1232 69.4749 46.2705 69.2365 46.38C68.9982 46.4895 68.8457 46.5715 68.8457 46.5715L68.8814 46.6764C68.8814 46.6764 69.0339 46.5945 69.2693 46.486C69.5047 46.3775 69.8189 46.2306 70.134 46.0866C70.4492 45.9426 70.7645 45.8087 70.9913 45.7135C71.2181 45.6182 71.3884 45.55 71.3884 45.55L71.3732 45.4377Z" fill="#DCD5C7"/>
<path d="M76.1204 54.4366L76.0506 54.357L75.7931 54.5647C75.6441 54.686 75.4427 54.8465 75.2494 55.021L74.7225 55.4882C74.5784 55.6145 74.4887 55.7076 74.4887 55.7076L74.5632 55.7821C74.5632 55.7821 74.6529 55.6889 74.7981 55.5656C74.9432 55.4423 75.1336 55.2689 75.325 55.0985C75.5164 54.9281 75.7149 54.7687 75.8658 54.6433L76.1204 54.4366Z" fill="#DCD5C7"/>
<path d="M70.7463 57.02C70.788 56.2649 70.468 55.4308 70.4232 54.5178C70.3783 53.6048 70.5763 52.5468 71.7592 51.4511C72.0034 51.2042 72.4698 50.8096 72.9341 50.409C72.3802 50.6527 71.8103 50.8684 71.5021 51.0235C70.0326 51.692 69.0036 51.6678 68.089 51.43C67.1744 51.1922 66.4196 50.7683 65.5704 50.7806C65.1214 50.7985 64.6775 50.8857 64.2537 51.0392C64.0469 51.1071 63.8436 51.186 63.6449 51.2757C64.6467 49.9219 65.9676 48.8535 67.4824 48.1718C68.6403 47.6695 69.8918 47.4374 71.1471 47.4921C73.4095 47.5817 75.1702 48.4537 76.4644 48.5242L76.4992 48.6266C75.6633 49.6714 75.2516 51.5769 74.5319 53.455C74.1732 54.4341 73.6858 55.3579 73.0834 56.2007C72.3451 57.1802 71.4315 58.0052 70.3919 58.6311C70.4559 58.4732 70.5105 58.3113 70.5552 58.1465C70.6558 57.7786 70.7198 57.4012 70.7463 57.02Z" fill="#DCD5C7"/>
<path d="M63.6041 51.2331L62.5013 52.1108L61.4256 53.0395L61.4809 53.1345L62.5507 52.2079L63.6488 51.3353L63.6041 51.2331Z" fill="#DCD5C7"/>
<path d="M70.4342 58.6599L70.3481 58.5997L69.7601 59.4369C69.4913 59.8718 69.2195 60.3077 69.2195 60.3077L69.3124 60.3587L69.8482 59.5031L70.4342 58.6599Z" fill="#DCD5C7"/>
<path d="M66.1536 62.3294C65.9731 61.5869 65.4778 60.8836 65.177 60.019C64.8761 59.1543 64.8212 58.0862 65.6923 56.711C65.8868 56.4145 66.2043 55.8911 66.5762 55.4022C66.0809 55.7599 65.6115 56.1455 65.3268 56.3698C64.0783 57.408 63.075 57.6617 62.128 57.6856C61.181 57.7095 60.3305 57.506 59.5321 57.7737C59.1026 57.9253 58.6953 58.137 58.3218 58.4028C58.0068 58.6347 57.8077 58.8214 57.8077 58.8214C58.4091 57.2114 59.4054 55.7892 60.6994 54.6935C61.6989 53.8849 62.8637 53.3204 64.1059 53.0426C64.6339 52.9189 65.1706 52.8383 65.7109 52.8016C66.2287 52.7703 66.7035 52.7477 67.1671 52.7596C67.6307 52.7715 68.0559 52.777 68.4456 52.7648C68.8053 52.7696 69.1646 52.7407 69.5191 52.6784L69.585 52.7661C69.0153 53.9853 69.0746 55.9439 68.8414 57.9304C68.7396 58.9574 68.5068 59.9661 68.1491 60.9305C67.7057 62.0465 67.0651 63.0681 66.2597 63.9434C66.2728 63.7736 66.2762 63.6031 66.2698 63.4329C66.2717 63.0617 66.2327 62.6915 66.1536 62.3294Z" fill="#DCD5C7"/>
<path d="M57.7493 58.7982C57.7493 58.7982 57.6407 58.9421 57.4823 59.1614C57.3239 59.3807 57.1157 59.6754 56.9163 59.9771C56.717 60.2787 56.5119 60.5825 56.3674 60.8137L56.1292 61.2037L56.2087 61.2831L56.443 60.8912C56.5845 60.661 56.7907 60.3603 56.99 60.0586C57.3837 59.4504 57.82 58.8808 57.82 58.8808L57.7493 58.7982Z" fill="#DCD5C7"/>
<path d="M66.3107 63.9717L66.2103 63.937C66.2103 63.937 66.0253 64.4058 65.8797 64.8941C65.8068 65.1332 65.7133 65.3696 65.6787 65.5476L65.6009 65.8493L65.7041 65.8729L65.779 65.5723C65.8292 65.392 65.9081 65.1609 65.981 64.9217C66.0538 64.6826 66.1257 64.4405 66.1946 64.267L66.3107 63.9717Z" fill="#DCD5C7"/>
<path d="M63.054 67.5084C62.7745 66.957 62.278 66.3758 61.8786 65.665C61.3895 64.8665 61.1456 63.9347 61.1788 62.9913C60.442 63.6014 59.6018 64.066 58.7008 64.3614C57.9538 64.5745 57.231 64.8691 56.5448 65.2403C56.1667 65.4914 55.8294 65.8023 55.5455 66.1616C55.4028 66.3314 55.2693 66.5093 55.1458 66.6943C55.3117 65.1499 55.8311 63.668 56.6611 62.3702C57.316 61.3727 58.1742 60.5339 59.1758 59.9123C60.9784 58.7858 62.8032 58.5636 64.114 58.2294C64.0993 59.6234 64.5299 61.3806 64.682 63.1875C64.7685 64.1182 64.7392 65.0564 64.595 65.9795C64.4048 67.0569 64.0509 68.0968 63.5463 69.0608C63.5189 68.8929 63.4831 68.7264 63.439 68.5623C63.3424 68.1995 63.2136 67.8467 63.054 67.5084Z" fill="#DCD5C7"/>
<path d="M55.1029 66.6627L55.0566 66.7774C55.0254 66.8495 54.9818 66.9531 54.9396 67.0798L54.5998 68.0102C54.4726 68.3501 54.367 68.6957 54.2915 68.9562L54.1598 69.389L54.2537 69.443L54.3854 69.0102C54.4648 68.7517 54.5645 68.4082 54.6918 68.0683L55.0326 67.1409C55.0789 66.9994 55.1324 66.8605 55.193 66.7248L55.1029 66.6627Z" fill="#DCD5C7"/>
<path d="M63.6052 69.0701L63.4984 69.0647C63.4818 69.171 63.4722 69.2782 63.4698 69.3858L63.4232 70.0783C63.4015 70.3327 63.4034 70.5888 63.3942 70.7644L63.3911 71.0831L63.4968 71.0754L63.5009 70.7598C63.502 70.5702 63.5002 70.3141 63.527 70.0747L63.5736 69.3822C63.5771 69.2863 63.5857 69.2055 63.5908 69.153L63.6052 69.0701Z" fill="#DCD5C7"/>
<path d="M60.7712 71.4844C60.4539 71.0472 60.1721 70.5837 59.9288 70.0988C59.641 69.5585 59.4049 68.9907 59.2238 68.4034C58.8296 68.8845 58.3938 69.3278 57.9218 69.7278C57.418 70.1764 56.9061 70.601 56.6065 70.878C56.287 71.1843 56.0109 71.5352 55.7862 71.9205C55.6807 72.1055 55.5857 72.2965 55.5018 72.4928C55.3226 69.8543 56.1078 67.8985 57.1403 66.6307C57.6217 66.0363 58.1923 65.5249 58.8304 65.1157C59.4012 64.7633 60.0005 64.4624 60.6216 64.2162C60.8498 64.8097 61.1029 65.428 61.3132 66.0651C61.5512 66.7169 61.7387 67.3871 61.8738 68.0694C62.1366 69.4782 62.1099 70.9813 61.5529 73.0001C61.4941 72.8293 61.4262 72.662 61.3495 72.499C61.1949 72.1393 61.0008 71.7989 60.7712 71.4844Z" fill="#DCD5C7"/>
<path d="M55.4467 72.4687L55.3628 72.8876C55.3077 73.1407 55.2364 73.4807 55.2002 73.8182L55.0604 74.7576C55.0419 74.8605 55.0291 74.9644 55.0219 75.0689L55.0089 75.1851L55.1123 75.2188L55.1242 75.0995C55.1319 75.0258 55.1421 74.9207 55.1608 74.7923C55.2021 74.5374 55.2499 74.1957 55.3017 73.856L55.3786 73.3585L55.4623 72.9294L55.5492 72.5095L55.4467 72.4687Z" fill="#DCD5C7"/>
<path d="M61.5929 72.9956L61.4873 73.0134L61.5108 73.3428L61.5365 73.6884L61.5876 74.089L61.6818 74.8289C61.6931 74.9296 61.711 75.011 61.7217 75.0713L61.7514 75.1586L61.8507 75.1228L61.8357 75.0302C61.8191 74.9498 61.8068 74.8685 61.7987 74.7867L61.7026 74.0509C61.6633 73.7812 61.6368 73.5103 61.624 73.3088L61.5929 72.9956Z" fill="#DCD5C7"/>
<path d="M56.5244 75.0638C56.5333 74.601 56.5973 74.141 56.7148 73.6942C56.8371 73.251 57.0076 72.8234 57.223 72.4195C57.6263 71.6634 58.1598 70.989 58.7973 70.4292C58.9787 70.7693 59.1859 71.1372 59.3629 71.5126C59.5399 71.888 59.6935 72.2719 59.8473 72.6659C59.9884 73.054 60.103 73.4519 60.1902 73.8566C60.2798 74.2499 60.3232 74.6528 60.3196 75.0567C60.3219 75.564 60.2378 76.0678 60.0712 76.5452C59.9311 77.0113 59.7098 77.4797 59.5335 78.013C59.3207 78.604 59.1842 79.2212 59.1276 79.8488C59.0923 80.2385 59.0896 80.6307 59.1195 81.0209C59.1634 81.4844 59.2366 81.9444 59.3387 82.3981C59.2396 81.9427 59.1122 81.4943 58.9574 81.0557C58.8202 80.6524 58.6952 80.2852 58.5423 79.9518C58.273 79.3579 57.973 78.7791 57.6438 78.2181C57.356 77.7389 57.0961 77.2425 56.8655 76.7316C56.6484 76.2035 56.5326 75.6372 56.5244 75.0638Z" fill="#DCD5C7"/>
<path d="M79.1883 47.7816C79.4983 47.6123 80.0182 47.3268 80.5875 47.0708C79.9861 47.1458 79.3909 47.2388 79.038 47.2918C78.6795 47.3503 78.3178 47.386 77.9551 47.3985C77.6535 47.4043 77.352 47.3807 77.0547 47.3279C76.5552 47.243 76.0747 47.066 75.6362 46.8055C74.8252 46.3513 74.1841 45.731 73.3581 45.522C72.9229 45.427 72.4772 45.3923 72.033 45.4188C71.821 45.4274 71.6099 45.4516 71.4012 45.4912C72.6807 44.4654 74.188 43.7836 75.7873 43.5072C77.0246 43.3154 78.2877 43.4054 79.4875 43.771C80.0042 43.9214 80.5086 44.1134 80.9959 44.3454C81.4616 44.566 81.891 44.7862 82.2922 45.02C82.6934 45.2537 83.0639 45.4647 83.4063 45.6318C83.7215 45.814 84.0516 45.9675 84.3928 46.0904C84.3928 46.0904 85.1946 45.9195 86.4129 45.7572C87.9054 45.5549 89.4101 45.4639 90.9154 45.4849C92.4267 45.5044 93.9345 45.6382 95.4268 45.8852C95.7343 45.9399 96.0151 45.9839 96.2607 46.0305C96.5063 46.0771 96.7246 46.1301 96.9025 46.1707L97.4588 46.2911L97.2412 47.1467L96.7061 47.0018L96.0943 46.8339C95.8534 46.7721 95.5841 46.7138 95.2882 46.6448C93.8395 46.3227 92.3702 46.1084 90.8917 46.0037C89.4061 45.8999 87.9152 45.9057 86.4305 46.0211C85.8197 46.059 85.3163 46.1324 84.9602 46.1662C84.785 46.1821 84.6453 46.2054 84.5514 46.219L84.4048 46.2415C83.3645 47.0424 82.5177 48.8075 81.368 50.4251C80.7855 51.2803 80.0879 52.0461 79.2963 52.6995C78.3405 53.461 77.2512 54.026 76.0879 54.3634C76.4844 53.851 76.7599 53.2508 76.8928 52.6101C76.9917 52.0555 77.0564 51.4949 77.0864 50.9319C77.112 50.3606 77.2578 49.8019 77.5138 49.2944C77.6732 48.9947 77.8813 48.7254 78.1291 48.4981C78.4485 48.2103 78.8049 47.9692 79.1883 47.7816Z" fill="#DCD5C7"/>
<path d="M49.828 21.7104C49.2937 22.2495 48.7257 22.7521 48.1276 23.2149C47.5289 23.7137 47.0736 24.11 47.2208 24.0632C48.2082 23.2272 49.3285 22.5731 50.5322 22.1298C51.565 21.761 52.6203 21.4626 53.6912 21.2367C54.6187 21.048 55.5259 20.7662 56.4 20.3954C56.8331 20.1911 57.2461 19.9443 57.6332 19.6584C58.0694 19.3274 58.4717 18.9515 58.8337 18.5365C58.9915 18.3582 58.2304 18.067 57.3162 17.9034C56.5297 17.7579 55.7275 17.7249 54.9322 17.8054C52.919 18.168 52.0669 18.8296 51.4794 19.4607C50.892 20.0918 50.5661 20.8167 49.828 21.7104Z" fill="#DCD5C7"/>
<path d="M48.5154 13.6078C49.7926 14.1629 50.3486 14.7775 51.1463 15.3068C51.944 15.8362 52.969 16.2797 54.9933 16.9501C55.395 17.0733 56.4579 17.3129 57.3803 17.5308C58.3028 17.7487 59.1034 17.9514 59.0653 17.7162C58.9676 17.1429 58.7628 16.5946 58.4622 16.1017C58.1677 15.6207 57.7888 15.2002 57.3449 14.8618C56.314 14.1099 55.132 13.6061 53.8864 13.3877C52.374 13.0973 50.839 12.9498 49.3005 12.9468C47.6332 12.9164 45.8525 12.9672 43.9183 12.9926C43.7032 13.0624 44.5499 13.0391 45.5974 13.0984C46.5886 13.1248 47.5711 13.2964 48.5154 13.6078Z" fill="#DCD5C7"/>
<path d="M44.5677 22.9086C44.3985 23.1894 44.2084 23.4563 43.999 23.7067L43.2684 24.5932L42.6934 25.2847C42.5634 25.4596 42.503 25.5592 42.5685 25.5197C42.9732 25.0364 43.4142 24.5866 43.8876 24.1746C44.3329 23.7947 44.802 23.4455 45.292 23.1294C46.2341 22.5148 47.1695 22.0452 48.0135 21.6082C49.7115 20.7016 51.0367 19.8752 51.8584 17.8262C51.9084 17.7322 51.7386 17.6748 51.4611 17.6598C51.0994 17.6606 50.7383 17.6895 50.3807 17.7461C49.6677 17.8474 48.9692 18.0373 48.3005 18.3116C47.9319 18.489 47.5758 18.6928 47.2349 18.9215C46.9695 19.0934 46.7185 19.2879 46.4847 19.503C46.1381 19.8096 45.8457 20.1758 45.6205 20.5852C45.4359 20.9321 45.2756 21.2921 45.1408 21.6625C44.9724 22.0885 44.781 22.5045 44.5677 22.9086Z" fill="#DCD5C7"/>
<path d="M41.843 15.8786C42.34 15.9804 42.8249 16.137 43.2893 16.3456C43.6879 16.5166 44.0338 16.6961 44.4344 16.8492C44.8951 17.0211 45.3717 17.1437 45.8567 17.2149C46.148 17.253 46.4743 17.2879 46.8473 17.3185C47.2204 17.3492 47.6391 17.3636 48.1144 17.3831C48.4857 17.3822 49.4666 17.3086 50.3211 17.2286C50.6909 17.2014 51.059 17.1539 51.4239 17.0862C51.701 17.0323 51.8576 16.9678 51.8071 16.8744C50.7316 14.9558 48.7565 14.4162 46.3434 14.5613C45.0159 14.657 43.697 14.8534 42.3976 15.1488L40.1911 15.624C39.8054 15.7008 39.4206 15.7971 39.0201 15.8808C38.6197 15.9645 38.1996 16.0294 37.7986 16.1281C37.7124 16.1788 37.85 16.157 38.1208 16.1149L39.2721 15.9578C39.7425 15.8856 40.2166 15.8416 40.6919 15.8259C41.0763 15.7989 41.4624 15.8165 41.843 15.8786Z" fill="#DCD5C7"/>
<path d="M39.9048 24.9706C39.6341 25.5735 39.3174 26.1533 38.9575 26.7045C38.6188 27.3001 38.3509 27.7485 38.4486 27.6623C38.605 27.403 38.7639 27.1527 38.9298 26.9103C39.0957 26.6678 39.2811 26.4515 39.4623 26.2291C39.8122 25.8058 40.1898 25.4076 40.5924 25.0371C41.3462 24.3164 42.155 23.7222 42.8569 23.1479C44.2638 21.9934 45.345 20.9494 45.6441 18.9421C45.6785 18.7516 45.0223 18.905 44.3044 19.1954C43.9452 19.3389 43.5943 19.5032 43.2532 19.6875C43.0028 19.8111 42.7637 19.9576 42.5387 20.125C41.1958 21.201 40.7432 21.9691 40.4996 22.6717C40.3876 23.0163 40.2962 23.3677 40.2261 23.7239C40.1485 24.1469 40.0411 24.5636 39.9048 24.9706Z" fill="#DCD5C7"/>
<path d="M36.3695 19.0831C36.8285 19.1001 37.285 19.1616 37.7328 19.2667C38.1182 19.3578 38.4637 19.4683 38.8426 19.5367C39.599 19.6763 40.5105 19.6705 42.2252 19.3534C42.3937 19.3224 42.6924 19.2348 43.0424 19.1342C43.3925 19.0336 43.7933 18.9004 44.166 18.7782C44.9088 18.5247 45.5404 18.2849 45.4131 18.1407C44.052 16.6758 42.241 16.595 40.1409 17.1492C38.0407 17.7033 35.6696 18.8302 32.7723 19.9356C32.6314 20.0471 33.2675 19.806 34.0602 19.5424C34.8528 19.2788 35.8277 19.049 36.3695 19.0831Z" fill="#DCD5C7"/>
<path d="M36.1296 27.4556C35.976 28.0301 35.7763 28.5905 35.5324 29.1309C35.3155 29.6997 35.1356 30.1289 35.2188 30.0422C35.6039 29.0961 36.1237 28.2142 36.7611 27.4256C37.0598 27.0518 37.3466 26.6866 37.6536 26.367C37.9605 26.0475 38.2304 25.707 38.5132 25.412C39.6029 24.1706 40.4168 23.0715 40.354 21.2497C40.3477 21.0591 39.7934 21.3348 39.1922 21.6987C38.6951 22.0163 38.2274 22.3803 37.795 22.7861C36.7596 23.9322 36.4776 24.6933 36.3468 25.3373C36.216 25.9812 36.2978 26.5808 36.1296 27.4556Z" fill="#DCD5C7"/>
<path d="M32.1106 22.6121C33.1033 22.4954 33.6712 22.6548 34.3553 22.6583C35.0393 22.6618 35.849 22.5337 37.3196 21.9991C37.8687 21.7603 38.4051 21.4916 38.9265 21.1939C39.5614 20.8643 40.096 20.528 39.95 20.419C38.5217 19.3667 36.9306 19.57 35.1596 20.363C33.3886 21.1559 31.4589 22.4779 29.0314 23.8784C28.9181 23.994 29.453 23.6921 30.1276 23.3505C30.7554 23.0185 31.4218 22.7704 32.1106 22.6121Z" fill="#DCD5C7"/>
<path d="M33.2727 29.6447C33.2036 30.1557 33.0955 30.6602 32.9493 31.1536C32.8189 31.6642 32.7406 32.0629 32.7931 31.9779C33.2345 30.1423 34.2966 28.7784 35.0846 27.5884C35.2822 27.3032 35.4644 27.0069 35.6303 26.701C35.795 26.4196 35.9311 26.1214 36.0363 25.8112C36.2578 25.1577 36.3086 24.4557 36.1835 23.7756C36.1556 23.6187 35.6997 23.9116 35.2337 24.321C34.8448 24.6533 34.4887 25.0243 34.1706 25.4286C33.4206 26.5331 33.2588 27.2284 33.2208 27.8024C33.1827 28.3764 33.3234 28.8793 33.2727 29.6447Z" fill="#DCD5C7"/>
<path d="M29.3714 26.1008C30.0053 25.9608 30.6505 25.882 31.2986 25.8653C31.8963 25.8011 32.5638 25.5777 33.7528 24.9379C33.9479 24.815 34.5395 24.4343 35.0265 24.0481C35.5134 23.662 35.9518 23.3325 35.8177 23.2569C35.1989 22.9159 34.486 22.8011 33.7956 22.9313C33.4441 22.9987 33.1004 23.1032 32.7697 23.2431C32.4123 23.4072 32.0653 23.5942 31.7306 23.8031C30.3095 24.7052 28.8107 26.0676 26.8964 27.57C26.8292 27.6963 27.2232 27.3456 27.7678 26.9766C28.2621 26.6126 28.8014 26.318 29.3714 26.1008Z" fill="#DCD5C7"/>
<path d="M31.108 31.9722C31.1228 32.1753 31.1175 32.3795 31.092 32.5815C31.0648 32.8143 31.037 33.062 31.0167 33.3025C30.9788 33.7507 30.9418 34.0925 30.9839 34.0131C31.0215 33.6272 31.0883 33.245 31.1836 32.8697C31.2941 32.5083 31.41 32.1575 31.5355 31.8236L31.9668 30.8793C32.1029 30.5742 32.279 30.2917 32.3967 30.0144C32.9317 28.8957 33.2872 27.9126 32.8759 26.6351C32.8356 26.5017 32.4818 26.8255 32.1239 27.227C31.844 27.5613 31.5876 27.9157 31.3565 28.2874C31.1583 28.6911 31.0035 29.1159 30.8948 29.5542C30.83 29.8372 30.8126 30.1295 30.8434 30.4185C30.8713 30.6592 30.9129 30.8979 30.9678 31.1336C31.0145 31.3737 31.069 31.641 31.108 31.9722Z" fill="#DCD5C7"/>
<path d="M27.3241 29.4294C27.6015 29.3011 27.8934 29.209 28.1929 29.1552C28.4554 29.1007 28.6943 29.0558 28.9338 28.996C29.2193 28.913 29.4953 28.7983 29.7569 28.654C30.1596 28.4319 30.5437 28.1758 30.9053 27.8884C31.2463 27.6082 31.5693 27.3056 31.8724 26.9824C32.2601 26.6015 32.5918 26.2425 32.4595 26.1985C31.2117 25.7554 30.1431 26.2454 29.0467 27.1854C27.9503 28.1253 26.8173 29.4761 25.3718 31.0173C25.3141 31.126 25.6392 30.7861 26.0462 30.3969C26.2571 30.19 26.4824 29.9992 26.7203 29.8261C26.9094 29.6751 27.1115 29.5423 27.3241 29.4294Z" fill="#DCD5C7"/>
<path d="M26.7591 36.3331C26.7591 36.3331 26.7591 36.3331 26.7669 36.3185C26.8706 35.8866 27.0114 35.4652 27.1877 35.0591C27.3621 34.7237 27.5565 34.3998 27.7698 34.0891C27.9809 33.8033 28.2047 33.5706 28.4236 33.3121C28.6425 33.0537 28.8432 32.8575 29.0459 32.6434C29.2437 32.4316 29.426 32.2051 29.5914 31.9657C29.7746 31.7231 29.9269 31.4575 30.0448 31.1751C30.1793 30.8409 30.288 30.4962 30.37 30.1444C30.412 29.9467 30.4488 29.7308 30.4777 29.4951C30.5065 29.2594 30.5486 29.0197 30.5743 28.7479C30.1236 28.8853 29.6936 29.0864 29.2966 29.3453C28.9721 29.543 28.6797 29.7918 28.4302 30.0827C28.2145 30.3371 28.0294 30.6174 27.8791 30.9175C27.749 31.2116 27.6449 31.5171 27.5683 31.8304C27.2714 33.129 27.2566 34.4757 26.7591 36.3331Z" fill="#DCD5C7"/>
<path d="M67.1304 22.9144L66.8744 22.6634C66.7081 22.5087 66.4867 22.2695 66.1856 22.0198C65.4738 21.3888 64.7179 20.8126 63.9239 20.2959C63.1284 19.7879 62.2972 19.3415 61.4373 18.9605C61.0896 18.7915 60.7844 18.6959 60.5794 18.6072C60.3744 18.5185 60.2506 18.4793 60.2506 18.4793L60.168 18.7115L60.715 18.9661C61.0661 19.1218 61.5546 19.3816 62.1223 19.7089C63.5001 20.5313 64.7679 21.5352 65.8935 22.6951C66.9993 23.8563 67.9721 25.1444 68.7927 26.5339L69.2423 27.3138C69.3632 27.5536 69.4723 27.7601 69.5593 27.9313L69.8342 28.4677L70.8206 27.9162L70.4076 27.2141C70.1723 26.7916 69.8027 26.259 69.445 25.7179C69.0874 25.1768 68.6819 24.6698 68.3646 24.3041L67.992 23.8538L67.8421 23.6893C67.8672 23.0988 67.8323 22.5073 67.738 21.9244C67.6921 21.6199 67.6304 21.3103 67.5573 20.9943C67.4842 20.6783 67.3773 20.3701 67.2616 20.0644C66.7681 18.6936 66.0298 17.4299 65.0848 16.3385C64.0273 15.1184 62.7653 14.1039 61.359 13.3436C59.9089 12.5525 58.333 12.0349 56.7058 11.815C55.3216 11.6679 53.9283 11.6326 52.5388 11.7092C55.2566 11.9651 57.8888 12.8211 60.2562 14.2189C60.7214 14.4808 61.1279 14.7975 61.5126 15.0714C61.8973 15.3452 62.237 15.6549 62.5371 15.9345C62.8371 16.2142 63.125 16.5099 63.377 16.7892C63.6291 17.0685 63.8549 17.3484 64.0552 17.6062C64.2556 17.8641 64.4407 18.1439 64.6079 18.3946C64.7736 18.6327 64.927 18.8796 65.0676 19.1344L65.4432 19.823C65.5588 20.0522 65.6717 20.2723 65.7789 20.4892C66.1861 21.3223 66.6373 22.132 67.1304 22.9144Z" fill="#DCD5C7"/>
<path d="M256.534 38.9467C254.427 38.233 252.475 37.1022 250.789 35.6177C249.246 34.3643 247.894 33.3866 246.087 33.3311C245.052 33.3486 244.024 33.5135 243.032 33.8209L243.687 33.5593C243.133 33.7431 242.65 33.9101 242.138 34.0582C243.383 33.5147 244.591 32.8861 245.755 32.1768C247.297 31.173 247.959 29.4635 248.937 27.6981C250.022 25.4056 251.729 23.4858 253.851 22.171C254.528 21.7596 254.09 21.715 252.982 21.9146C252.436 22.0191 251.714 22.1619 250.899 22.3992C250.083 22.6364 249.166 22.9514 248.209 23.2863C247.727 23.4534 247.236 23.6196 246.743 23.8176L245.274 24.4686C244.299 24.9058 243.332 25.3358 242.45 25.7823C241.058 26.5027 239.729 27.3449 238.477 28.2998C237.755 28.9802 237.119 29.7519 236.585 30.5966C236.009 31.4653 235.519 32.3915 235.123 33.3612C234.538 34.7596 234.066 36.2054 233.713 37.6838C233.713 37.6838 233.639 37.7244 233.493 37.7895L232.885 38.1279C232.367 38.4274 231.627 38.8484 230.731 39.3496C229.836 39.8509 228.839 40.5179 227.761 41.2167C227.23 41.5709 226.661 41.9053 226.101 42.3125L224.467 43.547L222.793 44.7855L221.284 46.0888C220.316 46.9428 219.372 47.7033 218.662 48.4635L216.205 50.9029L217.437 52.0766L219.723 49.5557C220.389 48.775 221.273 47.9845 222.183 47.0926C222.645 46.6513 223.124 46.1958 223.605 45.7244L225.16 44.4258L226.716 43.1114C227.238 42.7002 227.779 42.323 228.29 41.9428C229.325 41.1996 230.267 40.4629 231.141 39.9435L233.268 38.5911C233.766 38.2655 234.092 38.1145 234.092 38.1145C234.839 38.4226 236.473 39.0608 238.192 39.6197C239.817 40.2487 241.52 40.6399 243.251 40.782C244.529 40.7672 245.805 40.6561 247.069 40.4497C247.854 40.3615 248.711 40.2645 249.559 40.1747L250.811 40.0137L252.058 39.9004C252.843 39.8201 253.628 39.7398 254.282 39.6462C254.937 39.5527 255.539 39.5178 255.974 39.442C256.833 39.3132 257.161 39.1385 256.534 38.9467Z" fill="#DCD5C7"/>
<path d="M248.179 31.3824C248.179 31.3824 248.769 31.2263 249.712 31.042C250.654 30.8577 251.936 30.5477 253.338 30.2741C254.74 30.0004 256.233 29.6799 257.595 29.4182C258.764 29.2135 259.911 28.896 261.021 28.4698C262.699 27.84 263.658 26.4328 264.897 24.862C265.559 24.0212 266.3 23.2494 267.108 22.5576C268.119 21.6879 269.271 21.0085 270.511 20.5505C271.22 20.2944 270.805 20.1642 269.773 20.1394C268.185 20.1892 266.6 20.322 265.024 20.537C261.152 21.1119 256.573 22.3273 254.895 23.2852C253.926 23.843 253.04 24.5398 252.263 25.3547C251.472 26.1965 250.753 27.106 250.113 28.0735C249.507 28.9643 249.031 29.7883 248.702 30.3792C248.374 30.97 248.179 31.3824 248.179 31.3824Z" fill="#DCD5C7"/>
<path d="M270.17 38.3875C269.135 37.8502 268.173 37.1766 267.307 36.3838C266.58 35.6865 265.895 34.9434 265.258 34.1587C264.033 32.7457 262.957 31.4759 261.24 31.0612C260.097 30.888 258.939 30.8401 257.786 30.9183C256.364 31.0079 254.948 31.182 253.546 31.4398C252.17 31.6841 250.915 32.0447 249.999 32.2639C249.499 32.3822 249.005 32.5271 248.52 32.6977L249.401 33.3155C249.947 33.7071 250.711 34.249 251.592 34.7947C252.472 35.3404 253.374 35.9043 254.312 36.4237C255.16 36.9278 256.069 37.3136 257.016 37.5709C258.6 37.916 262.483 38.2065 265.655 38.4489C267.249 38.6109 268.65 38.7533 269.514 38.745C270.377 38.7367 270.739 38.6935 270.17 38.3875Z" fill="#DCD5C7"/>
<path d="M263.019 28.961L264.579 28.9114C265.54 28.865 266.849 28.91 268.269 28.8622C271.11 28.8229 274.381 28.8432 276.134 28.485C277.886 28.1269 279.046 26.9002 280.501 25.5835C282.202 23.8859 284.332 22.7156 286.648 22.2065C287.37 22.0558 286.992 21.8653 285.921 21.6844C285.39 21.6304 284.711 21.4973 283.909 21.4239C283.108 21.3504 282.198 21.3461 281.236 21.3283C280.274 21.3105 279.265 21.2881 278.259 21.3219C277.253 21.3557 276.25 21.4378 275.317 21.5191C274.461 21.5755 273.61 21.6841 272.767 21.8442C272.152 21.948 271.544 22.0893 270.946 22.2674C270.442 22.4415 269.953 22.6596 269.484 22.9191C268.985 23.2027 268.503 23.5172 268.041 23.861C267.141 24.5366 266.29 25.2794 265.496 26.0833C264.852 26.7133 264.24 27.3778 263.664 28.0741C263.262 28.6255 263.019 28.961 263.019 28.961Z" fill="#DCD5C7"/>
<path d="M283.681 39.7766C281.941 38.4428 280.489 36.7529 279.414 34.8131C278.419 33.1913 277.558 31.7112 275.886 31.0691C274.214 30.427 271.039 30.0563 268.21 30.0488C266.808 30.0665 265.51 30.0706 264.568 30.159L262.999 30.3116L263.748 31.0921C264.222 31.5804 264.87 32.2065 265.609 32.9299C266.348 33.6533 267.184 34.4185 268.022 35.0879C268.441 35.4186 268.863 35.7177 269.278 36.0159C269.669 36.2895 270.084 36.5271 270.516 36.726C271.004 36.9405 271.506 37.1174 272.02 37.255C272.641 37.4222 273.36 37.6313 274.131 37.8538C274.903 38.0762 275.731 38.2804 276.552 38.4759C277.373 38.6714 278.203 38.9318 278.992 39.14C279.78 39.3482 280.51 39.5184 281.18 39.6666C281.85 39.8147 282.41 39.9756 282.845 40.0599C283.849 40.2099 284.212 40.1587 283.681 39.7766Z" fill="#DCD5C7"/>
<path d="M277.548 29.2212C277.687 29.2264 277.826 29.2405 277.964 29.2634C278.233 29.2908 278.622 29.3703 279.089 29.4418C280.04 29.5864 281.343 29.7749 282.75 29.9419C284.157 30.1089 285.66 30.4057 287.046 30.5465C288.213 30.7248 289.393 30.8125 290.573 30.809C292.358 30.6783 293.674 29.6035 295.277 28.5339C296.131 27.9143 297.036 27.3742 297.982 26.92C299.168 26.3753 300.439 26.0545 301.735 25.9728C303.206 25.8663 300.323 24.965 296.546 24.3811C292.77 23.7971 288.162 23.5289 286.325 23.8705C285.256 24.0706 284.223 24.435 283.26 24.9516C282.263 25.4897 281.305 26.1012 280.394 26.7812C279.556 27.4164 278.821 28.022 278.32 28.4673C277.819 28.9125 277.548 29.2212 277.548 29.2212Z" fill="#DCD5C7"/>
<path d="M296.635 42.9978C295.767 42.1779 295.007 41.2451 294.374 40.223C293.855 39.3349 293.395 38.4111 292.999 37.4581C292.229 35.6831 291.55 34.1655 290.025 33.2822C288.998 32.7257 287.908 32.303 286.78 32.024C285.452 31.681 283.974 31.3627 282.591 31.1101C281.209 30.8575 279.91 30.7816 278.963 30.6774C278.494 30.6296 278.109 30.5905 277.847 30.5639C277.585 30.5373 277.431 30.5217 277.431 30.5217L278.051 31.433C278.441 31.9928 278.989 32.7609 279.618 33.5851C280.246 34.4093 280.964 35.2745 281.713 36.055C282.373 36.8427 283.126 37.5429 283.954 38.1396C285.38 39.0047 289.108 40.4961 292.158 41.7665C295.208 43.0369 297.588 43.919 296.635 42.9978Z" fill="#DCD5C7"/>
<path d="M292.337 31.7887C292.337 31.7887 292.922 31.9361 293.85 32.2305C294.778 32.5249 296.026 32.8918 297.397 33.2633C299.892 34.0911 302.449 34.7095 305.041 35.1126C308.619 35.3322 310.758 31.5959 316.711 31.7767C317.481 31.855 317.123 31.5384 316.171 31.0895C314.715 30.5043 313.229 29.998 311.722 29.5729C310.824 29.2816 309.853 29.0388 308.878 28.8197C307.904 28.6007 306.946 28.3832 306.045 28.2037C304.612 27.9178 303.156 27.7697 301.695 27.7616C299.726 27.7855 297.309 28.8285 295.464 29.8334C294.537 30.3395 293.75 30.8358 293.187 31.2027C292.623 31.5696 292.337 31.7887 292.337 31.7887Z" fill="#DCD5C7"/>
<path d="M304.167 37.5848C302.783 36.4518 299.722 35.2923 297.065 34.4621C295.711 34.0684 294.452 33.7403 293.533 33.5109C292.615 33.2815 292.012 33.1642 292.012 33.1642L292.509 34.1431C292.816 34.7505 293.256 35.5956 293.776 36.4968C294.76 38.3698 296.021 40.0746 297.512 41.5506C298.562 42.328 299.657 43.038 300.791 43.6766C301.528 44.1036 302.263 44.5464 302.999 44.9734C303.736 45.4004 304.52 45.8163 305.21 46.2465C306.683 47.0926 307.948 47.7653 308.774 48.1534C309.6 48.5414 309.959 48.602 309.558 48.089C306.092 44.0152 306.967 39.7582 304.167 37.5848Z" fill="#DCD5C7"/>
<path d="M306.701 36.45L311.238 38.4317C312.481 38.9262 313.782 39.5466 314.974 40.004C316.004 40.4231 317.063 40.7583 318.144 41.0063C319.784 41.3251 321.207 40.6774 322.903 40.0174C324.938 39.149 327.162 38.8556 329.344 39.1673C330.724 39.3716 328.236 37.9982 324.984 36.5553C323.322 35.8902 321.493 35.1841 319.841 34.656C318.54 34.2454 317.21 33.939 315.863 33.7395C314.023 33.5525 311.662 34.2491 309.839 34.9441C308.757 35.3615 307.708 35.865 306.701 36.45Z" fill="#DCD5C7"/>
<path d="M321.075 53.637C319.932 51.8735 319.192 49.8665 318.909 47.7665C318.557 46.01 318.286 44.4538 317.095 43.2603C316.277 42.5237 315.374 41.8942 314.406 41.3863C313.23 40.6905 312.015 40.0672 310.767 39.5199C309.551 38.9881 308.418 38.4808 307.591 38.1887C307.172 38.018 306.84 37.9123 306.591 37.8309L306.215 37.7046C306.215 37.7046 306.727 39.1733 307.451 41.0316C308.159 42.9023 309.155 44.6437 310.4 46.1894C311.295 47.0591 312.26 47.8505 313.283 48.5553C314.508 49.4801 315.897 50.5657 317.18 51.4564C319.698 53.329 321.754 54.6664 321.075 53.637Z" fill="#DCD5C7"/>
<path d="M319.639 42.4388L320.876 43.1568C321.614 43.568 322.67 44.2276 323.821 44.8727C326.103 46.1291 328.658 47.7013 330.241 48.1343C331.824 48.5673 333.23 48.1819 334.943 47.7478C335.869 47.4868 336.817 47.3152 337.775 47.2353C338.952 47.1861 340.13 47.3274 341.264 47.6539C341.916 47.8322 341.682 47.5203 340.914 46.93C339.773 46.0731 338.574 45.3013 337.326 44.6206C334.64 43.0335 331.784 41.7711 328.816 40.8585C326.825 40.6144 324.807 40.7765 322.877 41.3354C321.777 41.6335 320.695 42.002 319.639 42.4388Z" fill="#DCD5C7"/>
<path d="M328.898 50.2222C327.219 48.5112 325.307 47.0606 323.223 45.9159C322.112 45.2588 321.083 44.642 320.272 44.2634C319.461 43.8848 319.002 43.6461 319.002 43.6461C319.002 43.6461 319.324 45.1435 319.883 46.9371C320.337 48.8335 321.112 50.6326 322.172 52.2519C323.099 53.5306 325.877 56.0218 328.094 58.1119C329.242 59.1169 330.239 60.0667 330.866 60.5786C331.494 61.0906 331.84 61.2058 331.559 60.649C331.058 59.6657 330.698 58.6128 330.491 57.5232C330.309 56.6079 330.188 55.6811 330.127 54.749C330.003 53.0477 329.927 51.4873 328.898 50.2222Z" fill="#DCD5C7"/>
<path d="M330.39 49.7418C330.443 50.9369 330.71 52.1116 331.177 53.2072C332.15 55.4928 333.765 57.4267 335.814 58.7607C336.904 59.5518 339.663 60.8646 342.259 62.2489C343.596 62.897 344.86 63.5856 345.92 64.1176C346.675 64.5274 347.47 64.8549 348.291 65.0949C348.074 64.2446 347.761 63.4232 347.36 62.6472C346.759 61.3336 346.073 60.0634 345.306 58.845C343.981 56.5676 342.426 54.4406 340.667 52.499C338.83 50.6333 336.411 49.4948 333.839 49.284C332.671 49.1905 331.496 49.3464 330.39 49.7418Z" fill="#DCD5C7"/>
<path d="M288.445 45.4377C288.445 45.4377 288.606 45.4957 288.841 45.6041C289.077 45.7126 289.419 45.8359 289.714 45.9795C290.01 46.1232 290.344 46.2705 290.582 46.38C290.82 46.4895 290.973 46.5715 290.973 46.5715L290.937 46.6764C290.937 46.6764 290.784 46.5945 290.549 46.486C290.314 46.3775 289.999 46.2306 289.684 46.0866C289.369 45.9426 289.054 45.8087 288.827 45.7135C288.6 45.6182 288.43 45.55 288.43 45.55L288.445 45.4377Z" fill="#DCD5C7"/>
<path d="M283.698 54.4366L283.768 54.357L284.025 54.5647C284.174 54.686 284.376 54.8465 284.569 55.021L285.096 55.4882C285.24 55.6145 285.33 55.7076 285.33 55.7076L285.255 55.7821C285.255 55.7821 285.165 55.6889 285.02 55.5656C284.875 55.4423 284.685 55.2689 284.493 55.0985C284.302 54.9281 284.104 54.7687 283.953 54.6433L283.698 54.4366Z" fill="#DCD5C7"/>
<path d="M289.072 57.02C289.03 56.2649 289.35 55.4308 289.395 54.5178C289.44 53.6048 289.242 52.5468 288.059 51.4511C287.815 51.2042 287.349 50.8096 286.884 50.409C287.438 50.6527 288.008 50.8684 288.316 51.0235C289.786 51.692 290.815 51.6678 291.729 51.43C292.644 51.1922 293.399 50.7683 294.248 50.7806C294.697 50.7985 295.141 50.8857 295.565 51.0392C295.772 51.1071 295.975 51.186 296.174 51.2757C295.172 49.9219 293.851 48.8535 292.336 48.1718C291.178 47.6695 289.927 47.4374 288.671 47.4921C286.409 47.5817 284.648 48.4537 283.354 48.5242L283.319 48.6266C284.155 49.6714 284.567 51.5769 285.286 53.455C285.645 54.4341 286.133 55.3579 286.735 56.2007C287.473 57.1802 288.387 58.0052 289.426 58.6311C289.362 58.4732 289.308 58.3113 289.263 58.1465C289.163 57.7786 289.099 57.4012 289.072 57.02Z" fill="#DCD5C7"/>
<path d="M296.214 51.2331L297.317 52.1108L298.393 53.0395L298.337 53.1345L297.268 52.2079L296.17 51.3353L296.214 51.2331Z" fill="#DCD5C7"/>
<path d="M289.384 58.6599L289.47 58.5997L290.058 59.4369C290.327 59.8718 290.599 60.3077 290.599 60.3077L290.506 60.3587L289.97 59.5031L289.384 58.6599Z" fill="#DCD5C7"/>
<path d="M293.665 62.3294C293.845 61.5869 294.341 60.8836 294.641 60.019C294.942 59.1543 294.997 58.0862 294.126 56.711C293.932 56.4145 293.614 55.8911 293.242 55.4022C293.737 55.7599 294.207 56.1455 294.492 56.3698C295.74 57.408 296.743 57.6617 297.69 57.6856C298.637 57.7095 299.488 57.506 300.286 57.7737C300.716 57.9253 301.123 58.137 301.497 58.4028C301.812 58.6347 302.011 58.8214 302.011 58.8214C301.409 57.2114 300.413 55.7892 299.119 54.6935C298.119 53.8849 296.955 53.3204 295.712 53.0426C295.184 52.9189 294.648 52.8383 294.107 52.8016C293.59 52.7703 293.115 52.7477 292.651 52.7596C292.188 52.7715 291.762 52.777 291.373 52.7648C291.013 52.7696 290.654 52.7407 290.299 52.6784L290.233 52.7661C290.803 53.9853 290.744 55.9439 290.977 57.9304C291.079 58.9574 291.312 59.9661 291.669 60.9305C292.113 62.0465 292.753 63.0681 293.559 63.9434C293.546 63.7736 293.542 63.6031 293.549 63.4329C293.547 63.0617 293.586 62.6915 293.665 62.3294Z" fill="#DCD5C7"/>
<path d="M302.069 58.7982C302.069 58.7982 302.178 58.9421 302.336 59.1614C302.494 59.3807 302.703 59.6754 302.902 59.9771C303.101 60.2787 303.306 60.5825 303.451 60.8137L303.689 61.2037L303.61 61.2831L303.375 60.8912C303.234 60.661 303.028 60.3603 302.828 60.0586C302.435 59.4504 301.998 58.8808 301.998 58.8808L302.069 58.7982Z" fill="#DCD5C7"/>
<path d="M293.508 63.9717L293.608 63.937C293.608 63.937 293.793 64.4058 293.939 64.8941C294.012 65.1332 294.105 65.3696 294.14 65.5476L294.217 65.8493L294.114 65.8729L294.039 65.5723C293.989 65.392 293.91 65.1609 293.837 64.9217C293.765 64.6826 293.693 64.4405 293.624 64.267L293.508 63.9717Z" fill="#DCD5C7"/>
<path d="M296.764 67.5084C297.044 66.957 297.54 66.3758 297.94 65.665C298.429 64.8665 298.673 63.9347 298.64 62.9913C299.376 63.6014 300.217 64.066 301.118 64.3614C301.865 64.5745 302.587 64.8691 303.274 65.2403C303.652 65.4914 303.989 65.8023 304.273 66.1616C304.416 66.3314 304.549 66.5093 304.673 66.6943C304.507 65.1499 303.987 63.668 303.157 62.3702C302.502 61.3727 301.644 60.5339 300.643 59.9123C298.84 58.7858 297.015 58.5636 295.704 58.2294C295.719 59.6234 295.288 61.3806 295.136 63.1875C295.05 64.1182 295.079 65.0564 295.223 65.9795C295.414 67.0569 295.767 68.0968 296.272 69.0608C296.299 68.8929 296.335 68.7264 296.379 68.5623C296.476 68.1995 296.605 67.8467 296.764 67.5084Z" fill="#DCD5C7"/>
<path d="M304.715 66.6627L304.762 66.7774C304.793 66.8495 304.837 66.9531 304.879 67.0798L305.219 68.0102C305.346 68.3501 305.451 68.6957 305.527 68.9562L305.659 69.389L305.565 69.443L305.433 69.0102C305.354 68.7517 305.254 68.4082 305.127 68.0683L304.786 67.1409C304.739 66.9994 304.686 66.8605 304.625 66.7248L304.715 66.6627Z" fill="#DCD5C7"/>
<path d="M296.213 69.0701L296.32 69.0647C296.337 69.171 296.346 69.2782 296.349 69.3858L296.395 70.0783C296.417 70.3327 296.415 70.5888 296.424 70.7644L296.427 71.0831L296.322 71.0754L296.317 70.7598C296.316 70.5702 296.318 70.3141 296.291 70.0747L296.245 69.3822C296.241 69.2863 296.233 69.2055 296.228 69.153L296.213 69.0701Z" fill="#DCD5C7"/>
<path d="M299.047 71.4844C299.365 71.0472 299.646 70.5837 299.89 70.0988C300.177 69.5585 300.413 68.9907 300.595 68.4034C300.989 68.8845 301.425 69.3278 301.897 69.7278C302.4 70.1764 302.912 70.601 303.212 70.878C303.531 71.1843 303.807 71.5352 304.032 71.9205C304.138 72.1055 304.233 72.2965 304.317 72.4928C304.496 69.8543 303.711 67.8985 302.678 66.6307C302.197 66.0363 301.626 65.5249 300.988 65.1157C300.417 64.7633 299.818 64.4624 299.197 64.2162C298.969 64.8097 298.715 65.428 298.505 66.0651C298.267 66.7169 298.08 67.3871 297.945 68.0694C297.682 69.4782 297.709 70.9813 298.265 73.0001C298.324 72.8293 298.392 72.662 298.469 72.499C298.623 72.1393 298.818 71.7989 299.047 71.4844Z" fill="#DCD5C7"/>
<path d="M304.372 72.4687L304.456 72.8876C304.511 73.1407 304.582 73.4807 304.618 73.8182L304.758 74.7576C304.776 74.8605 304.789 74.9644 304.796 75.0689L304.809 75.1851L304.706 75.2188L304.694 75.0995C304.686 75.0258 304.676 74.9207 304.658 74.7923C304.616 74.5374 304.568 74.1957 304.517 73.856L304.44 73.3585L304.356 72.9294L304.269 72.5095L304.372 72.4687Z" fill="#DCD5C7"/>
<path d="M298.225 72.9956L298.331 73.0134L298.308 73.3428L298.282 73.6884L298.231 74.089L298.137 74.8289C298.125 74.9296 298.107 75.011 298.097 75.0713L298.067 75.1586L297.968 75.1228L297.983 75.0302C297.999 74.9498 298.012 74.8685 298.02 74.7867L298.116 74.0509C298.155 73.7812 298.182 73.5103 298.194 73.3088L298.225 72.9956Z" fill="#DCD5C7"/>
<path d="M303.294 75.0638C303.285 74.601 303.221 74.141 303.104 73.6942C302.981 73.251 302.811 72.8234 302.595 72.4195C302.192 71.6634 301.659 70.989 301.021 70.4292C300.84 70.7693 300.632 71.1372 300.455 71.5126C300.278 71.888 300.125 72.2719 299.971 72.6659C299.83 73.054 299.715 73.4519 299.628 73.8566C299.539 74.2499 299.495 74.6528 299.499 75.0567C299.496 75.564 299.581 76.0678 299.747 76.5452C299.887 77.0113 300.109 77.4797 300.285 78.013C300.498 78.604 300.634 79.2212 300.691 79.8488C300.726 80.2385 300.729 80.6307 300.699 81.0209C300.655 81.4844 300.582 81.9444 300.48 82.3981C300.579 81.9427 300.706 81.4943 300.861 81.0557C300.998 80.6524 301.123 80.2852 301.276 79.9518C301.545 79.3579 301.845 78.7791 302.175 78.2181C302.462 77.7389 302.722 77.2425 302.953 76.7316C303.17 76.2035 303.286 75.6372 303.294 75.0638Z" fill="#DCD5C7"/>
<path d="M280.63 47.7816C280.32 47.6123 279.8 47.3268 279.231 47.0708C279.832 47.1458 280.427 47.2388 280.78 47.2918C281.139 47.3503 281.501 47.386 281.863 47.3985C282.165 47.4043 282.466 47.3807 282.764 47.3279C283.263 47.243 283.744 47.066 284.182 46.8055C284.993 46.3513 285.634 45.731 286.46 45.522C286.895 45.427 287.341 45.3923 287.785 45.4188C287.997 45.4274 288.208 45.4516 288.417 45.4912C287.138 44.4654 285.63 43.7836 284.031 43.5072C282.794 43.3154 281.531 43.4054 280.331 43.771C279.814 43.9214 279.31 44.1134 278.822 44.3454C278.357 44.566 277.927 44.7862 277.526 45.02C277.125 45.2537 276.754 45.4647 276.412 45.6318C276.097 45.814 275.767 45.9675 275.426 46.0904C275.426 46.0904 274.624 45.9195 273.405 45.7572C271.913 45.5549 270.408 45.4639 268.903 45.4849C267.392 45.5044 265.884 45.6382 264.392 45.8852C264.084 45.9399 263.803 45.9839 263.558 46.0305C263.312 46.0771 263.094 46.1301 262.916 46.1707L262.36 46.2911L262.577 47.1467L263.112 47.0018L263.724 46.8339C263.965 46.7721 264.234 46.7138 264.53 46.6448C265.979 46.3227 267.448 46.1084 268.927 46.0037C270.412 45.8999 271.903 45.9057 273.388 46.0211C273.999 46.059 274.502 46.1324 274.858 46.1662C275.033 46.1821 275.173 46.2054 275.267 46.219L275.414 46.2415C276.454 47.0424 277.301 48.8075 278.45 50.4251C279.033 51.2803 279.73 52.0461 280.522 52.6995C281.478 53.461 282.567 54.026 283.73 54.3634C283.334 53.851 283.058 53.2508 282.926 52.6101C282.827 52.0555 282.762 51.4949 282.732 50.9319C282.706 50.3606 282.561 49.8019 282.305 49.2944C282.145 48.9947 281.937 48.7254 281.689 48.4981C281.37 48.2103 281.013 47.9692 280.63 47.7816Z" fill="#DCD5C7"/>
<path d="M309.99 21.7104C310.525 22.2495 311.093 22.7521 311.691 23.2149C312.289 23.7137 312.745 24.11 312.598 24.0632C311.61 23.2272 310.49 22.5731 309.286 22.1298C308.253 21.761 307.198 21.4626 306.127 21.2367C305.2 21.048 304.292 20.7662 303.418 20.3954C302.985 20.1911 302.572 19.9443 302.185 19.6584C301.749 19.3274 301.347 18.9515 300.985 18.5365C300.827 18.3582 301.588 18.067 302.502 17.9034C303.289 17.7579 304.091 17.7249 304.886 17.8054C306.899 18.168 307.751 18.8296 308.339 19.4607C308.926 20.0918 309.252 20.8167 309.99 21.7104Z" fill="#DCD5C7"/>
<path d="M311.303 13.6078C310.026 14.1629 309.47 14.7775 308.672 15.3068C307.874 15.8362 306.849 16.2797 304.825 16.9501C304.423 17.0733 303.36 17.3129 302.438 17.5308C301.516 17.7487 300.715 17.9514 300.753 17.7162C300.851 17.1429 301.056 16.5946 301.356 16.1017C301.651 15.6207 302.03 15.2002 302.473 14.8618C303.504 14.1099 304.686 13.6061 305.932 13.3877C307.444 13.0973 308.979 12.9498 310.518 12.9468C312.185 12.9164 313.966 12.9672 315.9 12.9926C316.115 13.0624 315.268 13.0391 314.221 13.0984C313.23 13.1248 312.247 13.2964 311.303 13.6078Z" fill="#DCD5C7"/>
<path d="M315.251 22.9086C315.42 23.1894 315.61 23.4563 315.819 23.7067L316.55 24.5932L317.125 25.2847C317.255 25.4596 317.315 25.5592 317.25 25.5197C316.845 25.0364 316.404 24.5866 315.931 24.1746C315.486 23.7947 315.016 23.4455 314.526 23.1294C313.584 22.5148 312.649 22.0452 311.805 21.6082C310.107 20.7016 308.782 19.8752 307.96 17.8262C307.91 17.7322 308.08 17.6748 308.357 17.6598C308.719 17.6606 309.08 17.6895 309.438 17.7461C310.151 17.8474 310.849 18.0373 311.518 18.3116C311.886 18.489 312.243 18.6928 312.583 18.9215C312.849 19.0934 313.1 19.2879 313.334 19.503C313.68 19.8096 313.973 20.1758 314.198 20.5852C314.382 20.9321 314.543 21.2921 314.678 21.6625C314.846 22.0885 315.037 22.5045 315.251 22.9086Z" fill="#DCD5C7"/>
<path d="M317.975 15.8786C317.478 15.9804 316.993 16.137 316.529 16.3456C316.13 16.5166 315.785 16.6961 315.384 16.8492C314.923 17.0211 314.447 17.1437 313.962 17.2149C313.67 17.253 313.344 17.2879 312.971 17.3185C312.598 17.3492 312.179 17.3636 311.704 17.3831C311.333 17.3822 310.352 17.3086 309.497 17.2286C309.127 17.2014 308.759 17.1539 308.394 17.0862C308.117 17.0323 307.961 16.9678 308.011 16.8744C309.087 14.9558 311.062 14.4162 313.475 14.5613C314.802 14.657 316.121 14.8534 317.421 15.1488L319.627 15.624C320.013 15.7008 320.398 15.7971 320.798 15.8808C321.199 15.9645 321.619 16.0294 322.02 16.1281C322.106 16.1788 321.968 16.157 321.698 16.1149L320.546 15.9578C320.076 15.8856 319.602 15.8416 319.126 15.8259C318.742 15.7989 318.356 15.8165 317.975 15.8786Z" fill="#DCD5C7"/>
<path d="M319.914 24.9706C320.184 25.5735 320.501 26.1533 320.861 26.7045C321.2 27.3001 321.467 27.7485 321.37 27.6623C321.213 27.403 321.054 27.1527 320.889 26.9103C320.723 26.6678 320.537 26.4515 320.356 26.2291C320.006 25.8058 319.629 25.4076 319.226 25.0371C318.472 24.3164 317.663 23.7222 316.961 23.1479C315.555 21.9934 314.473 20.9494 314.174 18.9421C314.14 18.7516 314.796 18.905 315.514 19.1954C315.873 19.3389 316.224 19.5032 316.565 19.6875C316.816 19.8111 317.055 19.9576 317.28 20.125C318.623 21.201 319.075 21.9691 319.319 22.6717C319.431 23.0163 319.522 23.3677 319.592 23.7239C319.67 24.1469 319.777 24.5636 319.914 24.9706Z" fill="#DCD5C7"/>
<path d="M323.449 19.0831C322.99 19.1001 322.533 19.1616 322.086 19.2667C321.7 19.3578 321.355 19.4683 320.976 19.5367C320.219 19.6763 319.308 19.6705 317.593 19.3534C317.425 19.3224 317.126 19.2348 316.776 19.1342C316.426 19.0336 316.025 18.9004 315.652 18.7782C314.91 18.5247 314.278 18.2849 314.405 18.1407C315.766 16.6758 317.577 16.595 319.678 17.1492C321.778 17.7033 324.149 18.8302 327.046 19.9356C327.187 20.0471 326.551 19.806 325.758 19.5424C324.966 19.2788 323.991 19.049 323.449 19.0831Z" fill="#DCD5C7"/>
<path d="M323.689 27.4556C323.842 28.0301 324.042 28.5905 324.286 29.1309C324.503 29.6997 324.683 30.1289 324.6 30.0422C324.214 29.0961 323.695 28.2142 323.057 27.4256C322.759 27.0518 322.472 26.6866 322.165 26.367C321.858 26.0475 321.588 25.707 321.305 25.412C320.215 24.1706 319.402 23.0715 319.464 21.2497C319.471 21.0591 320.025 21.3348 320.626 21.6987C321.123 22.0163 321.591 22.3803 322.023 22.7861C323.059 23.9322 323.341 24.6933 323.472 25.3373C323.602 25.9812 323.521 26.5808 323.689 27.4556Z" fill="#DCD5C7"/>
<path d="M327.708 22.6121C326.715 22.4954 326.147 22.6548 325.463 22.6583C324.779 22.6618 323.969 22.5337 322.499 21.9991C321.95 21.7603 321.413 21.4916 320.892 21.1939C320.257 20.8643 319.722 20.528 319.868 20.419C321.297 19.3667 322.888 19.57 324.659 20.363C326.43 21.1559 328.359 22.4779 330.787 23.8784C330.9 23.994 330.365 23.6921 329.691 23.3505C329.063 23.0185 328.397 22.7704 327.708 22.6121Z" fill="#DCD5C7"/>
<path d="M326.546 29.6447C326.615 30.1557 326.723 30.6602 326.869 31.1536C326.999 31.6642 327.078 32.0629 327.025 31.9779C326.584 30.1423 325.522 28.7784 324.734 27.5884C324.536 27.3032 324.354 27.0069 324.188 26.701C324.023 26.4196 323.887 26.1214 323.782 25.8112C323.561 25.1577 323.51 24.4557 323.635 23.7756C323.663 23.6187 324.119 23.9116 324.585 24.321C324.974 24.6533 325.33 25.0243 325.648 25.4286C326.398 26.5331 326.56 27.2284 326.598 27.8024C326.636 28.3764 326.495 28.8793 326.546 29.6447Z" fill="#DCD5C7"/>
<path d="M330.447 26.1008C329.813 25.9608 329.168 25.882 328.52 25.8653C327.922 25.8011 327.255 25.5777 326.066 24.9379C325.87 24.815 325.279 24.4343 324.792 24.0481C324.305 23.662 323.867 23.3325 324.001 23.2569C324.619 22.9159 325.332 22.8011 326.023 22.9313C326.374 22.9987 326.718 23.1032 327.049 23.2431C327.406 23.4072 327.753 23.5942 328.088 23.8031C329.509 24.7052 331.008 26.0676 332.922 27.57C332.989 27.6963 332.595 27.3456 332.051 26.9766C331.556 26.6126 331.017 26.318 330.447 26.1008Z" fill="#DCD5C7"/>
<path d="M328.71 31.9722C328.696 32.1753 328.701 32.3795 328.726 32.5815C328.754 32.8143 328.781 33.062 328.802 33.3025C328.84 33.7507 328.877 34.0925 328.834 34.0131C328.797 33.6272 328.73 33.245 328.635 32.8697C328.524 32.5083 328.408 32.1575 328.283 31.8236L327.852 30.8793C327.715 30.5742 327.539 30.2917 327.422 30.0144C326.887 28.8957 326.531 27.9126 326.942 26.6351C326.983 26.5017 327.337 26.8255 327.694 27.227C327.974 27.5613 328.231 27.9157 328.462 28.2874C328.66 28.6911 328.815 29.1159 328.924 29.5542C328.988 29.8372 329.006 30.1295 328.975 30.4185C328.947 30.6592 328.906 30.8979 328.851 31.1336C328.804 31.3737 328.749 31.641 328.71 31.9722Z" fill="#DCD5C7"/>
<path d="M332.494 29.4294C332.217 29.3011 331.925 29.209 331.625 29.1552C331.363 29.1007 331.124 29.0558 330.885 28.996C330.599 28.913 330.323 28.7983 330.061 28.654C329.659 28.4319 329.275 28.1758 328.913 27.8884C328.572 27.6082 328.249 27.3056 327.946 26.9824C327.558 26.6015 327.227 26.2425 327.359 26.1985C328.607 25.7554 329.675 26.2454 330.772 27.1854C331.868 28.1253 333.001 29.4761 334.447 31.0173C334.504 31.126 334.179 30.7861 333.772 30.3969C333.561 30.19 333.336 29.9992 333.098 29.8261C332.909 29.6751 332.707 29.5423 332.494 29.4294Z" fill="#DCD5C7"/>
<path d="M333.059 36.3331C333.059 36.3331 333.059 36.3331 333.051 36.3185C332.948 35.8866 332.807 35.4652 332.631 35.0591C332.456 34.7237 332.262 34.3998 332.049 34.0891C331.837 33.8033 331.614 33.5706 331.395 33.3121C331.176 33.0537 330.975 32.8575 330.772 32.6434C330.575 32.4316 330.392 32.2051 330.227 31.9657C330.044 31.7231 329.891 31.4575 329.774 31.1751C329.639 30.8409 329.53 30.4962 329.448 30.1444C329.406 29.9467 329.37 29.7308 329.341 29.4951C329.312 29.2594 329.27 29.0197 329.244 28.7479C329.695 28.8853 330.125 29.0864 330.522 29.3453C330.846 29.543 331.139 29.7918 331.388 30.0827C331.604 30.3371 331.789 30.6174 331.939 30.9175C332.069 31.2116 332.173 31.5171 332.25 31.8304C332.547 33.129 332.562 34.4757 333.059 36.3331Z" fill="#DCD5C7"/>
<path d="M292.688 22.9144L292.944 22.6634C293.11 22.5087 293.332 22.2695 293.633 22.0198C294.345 21.3888 295.1 20.8126 295.894 20.2959C296.69 19.7879 297.521 19.3415 298.381 18.9605C298.729 18.7915 299.034 18.6959 299.239 18.6072C299.444 18.5185 299.568 18.4793 299.568 18.4793L299.65 18.7115L299.103 18.9661C298.752 19.1218 298.264 19.3816 297.696 19.7089C296.318 20.5313 295.051 21.5352 293.925 22.6951C292.819 23.8563 291.846 25.1444 291.026 26.5339L290.576 27.3138C290.455 27.5536 290.346 27.7601 290.259 27.9313L289.984 28.4677L288.998 27.9162L289.411 27.2141C289.646 26.7916 290.016 26.259 290.373 25.7179C290.731 25.1768 291.136 24.6698 291.454 24.3041L291.826 23.8538L291.976 23.6893C291.951 23.0988 291.986 22.5073 292.08 21.9244C292.126 21.6199 292.188 21.3103 292.261 20.9943C292.334 20.6783 292.441 20.3701 292.557 20.0644C293.05 18.6936 293.789 17.4299 294.734 16.3385C295.791 15.1184 297.053 14.1039 298.459 13.3436C299.909 12.5525 301.485 12.0349 303.113 11.815C304.497 11.6679 305.89 11.6326 307.28 11.7092C304.562 11.9651 301.93 12.8211 299.562 14.2189C299.097 14.4808 298.69 14.7975 298.306 15.0714C297.921 15.3452 297.581 15.6549 297.281 15.9345C296.981 16.2142 296.693 16.5099 296.441 16.7892C296.189 17.0685 295.964 17.3484 295.763 17.6062C295.563 17.8641 295.378 18.1439 295.211 18.3946C295.045 18.6327 294.891 18.8796 294.751 19.1344L294.375 19.823C294.26 20.0522 294.147 20.2723 294.039 20.4892C293.632 21.3223 293.181 22.132 292.688 22.9144Z" fill="#DCD5C7"/>
</g>
<defs>
<clipPath id="clip0_29_1150">
<rect width="360" height="375" fill="white"/>
</clipPath>
</defs>
</svg>
