<svg width="187" height="188" viewBox="0 0 187 188" fill="none" xmlns="http://www.w3.org/2000/svg">
<g clip-path="url(#clip0_8_14424)">
<g filter="url(#filter0_d_8_14424)">
<ellipse cx="89.6889" cy="90.4679" rx="90" ry="89.5" transform="rotate(-26.8038 89.6889 90.4679)" fill="#E6E058"/>
</g>
<path d="M27.9115 90.3223L33.1085 88.9148L33.6531 90.9256L28.456 92.3331L27.9115 90.3223ZM29.7098 96.227L27.2041 96.9056L24.2718 86.0784L32.4541 83.8624L32.9987 85.8732L27.3221 87.4105L29.7098 96.227ZM37.0827 94.2303L34.1505 83.403L36.6562 82.7244L39.0355 91.5099L44.4646 90.0396L45.0176 92.0813L37.0827 94.2303ZM46.4176 91.7022L43.4853 80.8749L45.9911 80.1963L48.9233 91.0236L46.4176 91.7022ZM51.4929 90.3277L48.5606 79.5004L50.6333 78.9391L59.1326 85.0047L58.1272 85.277L56.0159 77.4814L58.4907 76.8111L61.423 87.6384L59.3658 88.1955L50.8511 82.1341L51.8564 81.8618L53.9677 89.6574L51.4929 90.3277ZM66.2275 86.3372L63.8482 77.5517L60.3834 78.49L59.8305 76.4483L69.2657 73.893L69.8186 75.9348L66.3539 76.8731L68.7332 85.6586L66.2275 86.3372ZM80.6148 82.4408L75.8312 78.1415L77.5265 76.3708L83.4608 81.6701L80.6148 82.4408ZM73.5771 84.3468L70.6448 73.5195L73.1351 72.8451L76.0673 83.6724L73.5771 84.3468ZM74.1591 79.5074L73.5936 77.4193L77.3676 76.3972L77.9331 78.4853L74.1591 79.5074ZM78.1104 77.6072L75.7303 77.953L77.7753 71.5884L80.4203 70.8721L78.1104 77.6072ZM84.6346 81.3522L81.7024 70.5249L86.389 69.2557C87.3583 68.9932 88.2369 68.9268 89.0246 69.0565C89.8096 69.176 90.4724 69.4779 91.0131 69.9624C91.5539 70.4468 91.9345 71.0963 92.1551 71.911C92.373 72.7153 92.3707 73.463 92.1483 74.1541C91.926 74.8452 91.5075 75.4455 90.8929 75.955C90.2755 76.4543 89.4821 76.8352 88.5128 77.0977L85.2182 77.9899L86.0261 76.5592L87.1404 80.6735L84.6346 81.3522ZM86.1015 76.8376L84.6653 75.9482L87.8207 75.0937C88.594 74.8842 89.1268 74.5629 89.419 74.1296C89.7112 73.6963 89.7776 73.1857 89.6185 72.598C89.4565 71.9999 89.1401 71.5875 88.6692 71.3609C88.1983 71.1342 87.5761 71.1256 86.8028 71.3351L83.6474 72.1896L84.4385 70.697L86.1015 76.8376ZM95.6764 78.3618L92.7441 67.5346L95.2344 66.8601L97.1445 73.9133L100.401 65.461L102.752 64.8243L105.684 75.6516L103.209 76.3218L101.303 69.2841L98.0429 77.7209L95.6764 78.3618ZM108.38 74.9215L105.447 64.0942L110.49 62.7286C111.748 62.3879 112.793 62.365 113.625 62.6597C114.458 62.9545 114.996 63.5504 115.239 64.4475C115.479 65.3343 115.336 66.1146 114.81 66.7883C114.281 67.4516 113.47 67.9313 112.377 68.2273L112.495 67.4981C113.712 67.1686 114.721 67.1554 115.523 67.4585C116.324 67.7616 116.849 68.3721 117.098 69.2898C117.355 70.2385 117.196 71.0838 116.623 71.8258C116.056 72.5547 115.087 73.1049 113.716 73.4763L108.38 74.9215ZM110.367 72.391L113.12 71.6453C113.698 71.4889 114.105 71.2568 114.343 70.949C114.581 70.6411 114.635 70.2501 114.507 69.7757C114.384 69.322 114.144 69.0274 113.786 68.8918C113.425 68.7459 112.956 68.7512 112.379 68.9076L109.626 69.6532L110.367 72.391ZM109.152 67.9054L111.488 67.2729C112.035 67.1249 112.418 66.9049 112.637 66.6129C112.854 66.3107 112.904 65.943 112.787 65.5099C112.67 65.0768 112.443 64.7897 112.105 64.6486C111.766 64.4971 111.322 64.4954 110.776 64.6434L108.44 65.2759L109.152 67.9054ZM118.683 72.1312L120.576 59.997L123.051 59.3267L130.825 68.8428L128.195 69.555L121.647 61.0684L122.637 60.8003L121.25 71.4358L118.683 72.1312ZM120.467 69.1576L120.617 67.0749L126.186 65.5669L127.381 67.2851L120.467 69.1576ZM132.261 68.454L129.328 57.6267L131.819 56.9523L133.729 64.0055L136.985 55.5532L139.336 54.9165L142.268 65.7437L139.793 66.414L137.887 59.3763L134.627 67.8131L132.261 68.454ZM134.136 55.5777C133.105 55.8569 132.291 55.856 131.695 55.5748C131.109 55.2908 130.708 54.7738 130.494 54.0238L132.211 53.5588C132.322 53.9273 132.507 54.1815 132.766 54.3216C133.033 54.4485 133.378 54.4548 133.801 54.3403C134.213 54.2286 134.503 54.0506 134.669 53.8063C134.832 53.5518 134.869 53.2375 134.779 52.8635L136.496 52.3985C136.689 53.154 136.599 53.8037 136.227 54.3474C135.854 54.8911 135.157 55.3012 134.136 55.5777ZM21.7179 120.131L21.3709 118.482C21.4459 118.473 21.5157 118.465 21.5804 118.459C21.645 118.452 21.7031 118.442 21.7547 118.428C22.0744 118.341 22.2953 118.176 22.4175 117.933C22.5398 117.69 22.5975 117.392 22.5906 117.039C22.5912 116.674 22.5512 116.281 22.4704 115.86C22.3972 115.426 22.3136 114.995 22.2197 114.567L21.496 111.343L28.178 109.533L30.4149 117.793L28.4814 118.316L26.5461 111.17L27.1371 111.575L23.2084 112.639L23.4794 111.984L23.9617 114.194C24.1291 114.935 24.2515 115.632 24.3291 116.286C24.4141 116.927 24.4267 117.505 24.3668 118.019C24.3171 118.531 24.1674 118.959 23.9175 119.303C23.678 119.645 23.3159 119.881 22.8313 120.012C22.6766 120.054 22.5023 120.085 22.3083 120.104C22.1246 120.121 21.9278 120.13 21.7179 120.131ZM33.0187 117.087L30.7818 108.828L32.7153 108.304L34.9521 116.564L33.0187 117.087ZM31.3876 107.203C31.0267 107.3 30.697 107.268 30.3984 107.105C30.1101 106.94 29.9226 106.697 29.8361 106.378C29.7467 106.048 29.7861 105.744 29.9543 105.466C30.1301 105.175 30.3984 104.98 30.7593 104.883C31.1202 104.785 31.4434 104.814 31.7289 104.969C32.0219 105.111 32.2117 105.341 32.2983 105.661C32.3905 106.001 32.3552 106.321 32.1926 106.619C32.0272 106.908 31.7589 107.102 31.3876 107.203ZM37.5653 115.856L35.3284 107.596L37.3547 107.048L42.2678 112.009L41.4635 112.227L43.3715 105.418L45.1812 104.928L47.4336 113.184L45.6857 113.657L44.0102 107.47L44.374 107.587L42.667 113.545L41.8318 113.771L37.2986 109.354L37.6446 109.161L39.3286 115.379L37.5653 115.856ZM50.0269 112.481L47.79 104.222L49.7235 103.698L51.9603 111.958L50.0269 112.481ZM48.3958 102.596C48.0349 102.694 47.7052 102.662 47.4066 102.499C47.1183 102.334 46.9308 102.091 46.8443 101.772C46.7549 101.442 46.7943 101.138 46.9625 100.86C47.1383 100.569 47.4066 100.374 47.7675 100.276C48.1284 100.179 48.4516 100.207 48.7371 100.362C49.0301 100.504 49.2199 100.735 49.3065 101.055C49.3987 101.395 49.3634 101.715 49.2008 102.013C49.0354 102.302 48.7671 102.496 48.3958 102.596ZM56.2904 110.785L54.3719 103.701L54.9461 104.043L51.5896 104.952L51.1456 103.313L58.8794 101.218L59.3234 102.858L55.9824 103.763L56.3053 103.177L58.2238 110.261L56.2904 110.785ZM65.8668 108.308C65.0212 108.537 64.2196 108.56 63.4619 108.378C62.7014 108.185 62.0439 107.821 61.4892 107.285C60.9345 106.749 60.5469 106.074 60.3262 105.259C60.1028 104.434 60.0967 103.656 60.3079 102.923C60.5163 102.181 60.9016 101.539 61.4638 101C62.026 100.46 62.7299 100.076 63.5754 99.8469C64.4313 99.6151 65.2381 99.5903 65.9958 99.7725C66.7638 99.9519 67.4186 100.306 67.9601 100.834C68.512 101.36 68.901 102.04 69.1273 102.876C69.3479 103.69 69.354 104.469 69.1456 105.212C68.9475 105.951 68.5636 106.598 67.9939 107.15C67.4317 107.69 66.7227 108.076 65.8668 108.308ZM65.4186 106.653C65.8929 106.524 66.2878 106.307 66.6031 106C66.9185 105.693 67.1262 105.316 67.2263 104.868C67.3368 104.418 67.3208 103.929 67.1783 103.403C67.0331 102.867 66.8006 102.438 66.4807 102.115C66.1684 101.779 65.7986 101.558 65.3716 101.452C64.9445 101.347 64.499 101.357 64.0349 101.482C63.5606 101.611 63.1657 101.828 62.8504 102.135C62.5453 102.439 62.3376 102.816 62.2272 103.267C62.1139 103.707 62.1299 104.195 62.2752 104.731C62.4176 105.257 62.6501 105.687 62.9728 106.02C63.2954 106.353 63.6652 106.574 64.0819 106.683C64.509 106.788 64.9545 106.778 65.4186 106.653ZM72.1557 106.488L69.9188 98.2286L73.9558 97.1353C74.956 96.8644 75.79 96.8378 76.4577 97.0554C77.1357 97.2702 77.5668 97.7179 77.7511 98.3985C77.9326 99.0687 77.807 99.6672 77.3741 100.194C76.9384 100.71 76.2772 101.089 75.3904 101.329L75.4925 100.787C76.4928 100.516 77.2855 100.5 77.8706 100.74C78.4634 100.967 78.8547 101.431 79.0445 102.132C79.2428 102.864 79.1246 103.511 78.6897 104.071C78.2521 104.621 77.4765 105.047 76.3628 105.349L72.1557 106.488ZM73.6151 104.582L75.827 103.983C76.3529 103.841 76.7275 103.651 76.951 103.413C77.1716 103.165 77.2344 102.866 77.1395 102.515C77.0389 102.144 76.8412 101.904 76.5462 101.796C76.2513 101.688 75.8409 101.705 75.315 101.847L73.0412 102.463L73.6151 104.582ZM72.6936 101.179L74.7198 100.631C75.2148 100.497 75.5622 100.308 75.7623 100.066C75.9698 99.8106 76.0289 99.5179 75.9395 99.1879C75.8473 98.8477 75.65 98.6299 75.3475 98.5348C75.0554 98.4368 74.6618 98.4548 74.1669 98.5889L72.1406 99.1376L72.6936 101.179ZM86.7437 102.537L86.2913 100.867L86.0867 100.541L85.295 97.6172C85.1414 97.05 84.8526 96.6579 84.4285 96.4407C84.0016 96.2132 83.4428 96.193 82.7519 96.3801C82.2879 96.5058 81.8485 96.7022 81.4339 96.9694C81.0296 97.2339 80.7077 97.5369 80.4682 97.8785L79.3291 96.6762C79.6803 96.2158 80.1378 95.8208 80.7015 95.491C81.2727 95.1482 81.8883 94.8874 82.5482 94.7086C83.7444 94.3847 84.7455 94.4235 85.5515 94.825C86.365 95.2134 86.9338 96.0057 87.2577 97.2018L88.5689 102.043L86.7437 102.537ZM84.1745 103.349C83.5558 103.517 82.9865 103.561 82.4666 103.48C81.944 103.389 81.5035 103.193 81.1451 102.892C80.7943 102.577 80.5547 102.183 80.4262 101.708C80.3006 101.244 80.2957 100.797 80.4117 100.367C80.5381 99.9348 80.8245 99.5418 81.2712 99.1884C81.7178 98.835 82.3587 98.5452 83.194 98.319L85.5914 97.6697L85.9391 98.9535L83.6809 99.5651C83.0209 99.7438 82.6068 99.9722 82.4386 100.25C82.2676 100.518 82.224 100.806 82.3078 101.116C82.4027 101.466 82.6173 101.707 82.9516 101.838C83.2859 101.969 83.7005 101.967 84.1955 101.833C84.6698 101.705 85.0632 101.482 85.3758 101.165C85.6987 100.845 85.8854 100.451 85.9359 99.9837L86.5749 101.056C86.5205 101.591 86.2873 102.058 85.8753 102.457C85.4735 102.854 84.9066 103.151 84.1745 103.349ZM90.9614 101.395L88.7245 93.1356L90.6579 92.612L91.5669 95.9684L95.7277 94.8416L94.8187 91.4851L96.7521 90.9615L98.989 99.2212L97.0556 99.7448L96.1717 96.4811L92.0109 97.608L92.8948 100.872L90.9614 101.395ZM101.58 98.5194L99.3433 90.2598L101.277 89.7362L103.514 97.9958L101.58 98.5194ZM99.9491 88.6347C99.5882 88.7325 99.2584 88.7 98.9598 88.5374C98.6715 88.372 98.4841 88.1295 98.3975 87.8098C98.3082 87.4798 98.3476 87.1758 98.5158 86.8979C98.6915 86.6068 98.9599 86.4124 99.3208 86.3146C99.6817 86.2169 100.005 86.2456 100.29 86.4007C100.583 86.5427 100.773 86.7735 100.86 87.0932C100.952 87.4334 100.917 87.7529 100.754 88.0515C100.589 88.3398 100.32 88.5342 99.9491 88.6347ZM110.401 96.1304L108.165 87.8708L116.084 85.726L118.321 93.9857L116.403 94.5051L114.489 87.4365L115.059 87.7635L110.093 89.1082L110.421 88.5382L112.335 95.6068L110.401 96.1304ZM125.941 91.9219L125.489 90.2515L125.284 89.925L124.492 87.0017C124.339 86.4345 124.05 86.0424 123.626 85.8252C123.199 85.5977 122.64 85.5775 121.949 85.7646C121.485 85.8902 121.046 86.0867 120.631 86.3539C120.227 86.6184 119.905 86.9214 119.666 87.263L118.526 86.0607C118.878 85.6003 119.335 85.2052 119.899 84.8755C120.47 84.5326 121.086 84.2718 121.746 84.0931C122.942 83.7692 123.943 83.808 124.749 84.2095C125.562 84.5979 126.131 85.3902 126.455 86.5863L127.766 91.4276L125.941 91.9219ZM123.372 92.734C122.753 92.9015 122.184 92.945 121.664 92.8644C121.141 92.7736 120.701 92.5774 120.343 92.276C119.992 91.9615 119.752 91.5671 119.624 91.0928C119.498 90.6287 119.493 90.1818 119.609 89.7519C119.735 89.3193 120.022 88.9262 120.469 88.5729C120.915 88.2195 121.556 87.9297 122.391 87.7035L124.789 87.0542L125.137 88.338L122.878 88.9496C122.218 89.1283 121.804 89.3567 121.636 89.6346C121.465 89.9023 121.421 90.1908 121.505 90.5002C121.6 90.8508 121.815 91.0915 122.149 91.2223C122.483 91.3532 122.898 91.3515 123.393 91.2175C123.867 91.089 124.261 90.8663 124.573 90.5492C124.896 90.2293 125.083 89.8357 125.133 89.3682L125.772 90.4403C125.718 90.9752 125.485 91.4423 125.073 91.8417C124.671 92.2383 124.104 92.5357 123.372 92.734ZM134.487 86.1044C134.146 86.3961 133.77 86.6639 133.36 86.9077C132.958 87.1384 132.514 87.3194 132.03 87.4507C130.988 87.7327 130.113 87.7096 129.404 87.3814C128.696 87.0531 128.203 86.3786 127.927 85.3577L127.21 82.7128L129.144 82.1891L129.827 84.7103C129.975 85.2569 130.237 85.612 130.613 85.7757C131 85.9366 131.472 85.9416 132.028 85.7908C132.4 85.6903 132.758 85.5434 133.104 85.35C133.45 85.1567 133.782 84.9286 134.098 84.6659L134.487 86.1044ZM135.232 89.4057L132.995 81.1461L134.929 80.6225L137.166 88.8821L135.232 89.4057ZM145.69 86.5736L141.632 83.4224L142.946 82.0207L147.963 85.9578L145.69 86.5736ZM139.766 88.178L137.529 79.9183L139.462 79.3947L141.699 87.6544L139.766 88.178ZM140.23 84.4993L139.795 82.8907L142.594 82.1325L143.03 83.7411L140.23 84.4993ZM143.412 83.0067L141.544 83.2803L143.453 78.314L145.525 77.7527L143.412 83.0067ZM149.327 85.5885L147.09 77.3289L149.024 76.8053L150.498 82.2498L153.586 75.5695L155.35 75.092L157.587 83.3516L155.653 83.8753L154.179 78.4307L151.106 85.1068L149.327 85.5885ZM58.3829 132.091C57.5168 132.325 56.6945 132.354 55.9162 132.178C55.1454 131.988 54.4827 131.625 53.928 131.089C53.3733 130.553 52.9857 129.878 52.7651 129.063C52.5417 128.238 52.5355 127.46 52.7467 126.727C52.9551 125.985 53.3456 125.342 53.9181 124.8C54.5009 124.255 55.2254 123.865 56.0916 123.63C56.8959 123.412 57.6469 123.386 58.3447 123.551C59.05 123.703 59.6476 124.051 60.1376 124.593L58.8873 125.861C58.5337 125.537 58.1513 125.33 57.7401 125.242C57.3393 125.152 56.9326 125.162 56.5202 125.274C56.0458 125.402 55.6458 125.621 55.3201 125.931C54.9944 126.241 54.7764 126.621 54.666 127.071C54.5528 127.511 54.5688 127.999 54.714 128.536C54.8592 129.072 55.0931 129.507 55.4158 129.84C55.7357 130.163 56.1143 130.375 56.5517 130.478C56.9891 130.581 57.4449 130.569 57.9193 130.44C58.3317 130.328 58.6881 130.132 58.9884 129.852C59.2991 129.568 59.5251 129.197 59.6665 128.738L61.3859 129.202C61.2338 129.908 60.8945 130.514 60.3679 131.022C59.8489 131.517 59.1872 131.873 58.3829 132.091ZM65.0612 133.503C64.659 133.612 64.2387 133.654 63.8002 133.629C63.3618 133.604 62.9764 133.509 62.644 133.344L63.032 131.712C63.2754 131.834 63.5348 131.913 63.8102 131.949C64.0856 131.985 64.3522 131.968 64.61 131.899C64.9606 131.804 65.2205 131.639 65.3895 131.405C65.5586 131.171 65.6801 130.823 65.754 130.36L65.9403 129.148L66.0321 128.874L67.1794 120.727L69.0355 120.224L67.5856 130.196C67.4954 130.885 67.3393 131.453 67.1174 131.9C66.9058 132.345 66.6236 132.693 66.2708 132.943C65.9284 133.191 65.5252 133.377 65.0612 133.503ZM66.0002 130.227L59.956 122.683L61.9668 122.139L66.9295 128.448L66.0002 130.227ZM70.9251 128.578L73.2781 122.861L73.5278 123.905L68.8274 120.281L70.9774 119.698L74.2854 122.289L73.4657 122.511L75.0298 118.601L77.1179 118.035L74.858 123.545L74.5928 122.504L79.494 126.257L77.3131 126.848L73.8269 124.09L74.6605 123.98L73.0596 128L70.9251 128.578ZM85.7381 124.566L85.2857 122.896L85.0811 122.569L84.2894 119.646C84.1358 119.079 83.8469 118.687 83.4229 118.47C82.996 118.242 82.4371 118.222 81.7463 118.409C81.2822 118.535 80.8429 118.731 80.4283 118.998C80.024 119.263 79.7021 119.566 79.4625 119.907L78.3234 118.705C78.6747 118.245 79.1322 117.85 79.6959 117.52C80.2671 117.177 80.8827 116.916 81.5426 116.737C82.7388 116.414 83.7399 116.452 84.5459 116.854C85.3594 117.242 85.9282 118.035 86.2521 119.231L87.5632 124.072L85.7381 124.566ZM83.1689 125.378C82.5502 125.546 81.9809 125.589 81.461 125.509C80.9383 125.418 80.4978 125.222 80.1395 124.92C79.7887 124.606 79.5491 124.211 79.4206 123.737C79.2949 123.273 79.2901 122.826 79.4061 122.396C79.5324 121.964 79.8189 121.571 80.2655 121.217C80.7122 120.864 81.3531 120.574 82.1883 120.348L84.5858 119.699L84.9335 120.982L82.6752 121.594C82.0153 121.773 81.6012 122.001 81.433 122.279C81.262 122.547 81.2184 122.835 81.3022 123.145C81.3971 123.495 81.6117 123.736 81.946 123.867C82.2803 123.998 82.6949 123.996 83.1898 123.862C83.6642 123.733 84.0576 123.511 84.3702 123.194C84.6931 122.874 84.8798 122.48 84.9303 122.013L85.5692 123.085C85.5149 123.62 85.2817 124.087 84.8697 124.486C84.4679 124.883 83.901 125.18 83.1689 125.378ZM94.5635 122.292C93.8932 122.474 93.2378 122.485 92.5972 122.327C91.9669 122.166 91.4029 121.82 90.9054 121.291C90.4154 120.748 90.0405 119.998 89.7808 119.039C89.5183 118.069 89.458 117.234 89.5998 116.531C89.7519 115.826 90.0607 115.25 90.5262 114.803C90.9889 114.345 91.5709 114.022 92.2721 113.832C93.0867 113.611 93.8509 113.592 94.5645 113.775C95.2885 113.956 95.9161 114.311 96.4473 114.843C96.9889 115.371 97.3756 116.063 97.6074 116.919C97.8392 117.775 97.856 118.573 97.6579 119.313C97.4674 120.039 97.1051 120.663 96.571 121.184C96.0473 121.702 95.3781 122.072 94.5635 122.292ZM90.7684 126.425L87.7189 115.164L89.5595 114.666L90.0873 116.615L90.6203 118.828L91.3698 120.982L92.7018 125.901L90.7684 126.425ZM93.8987 120.696C94.3627 120.57 94.7473 120.356 95.0523 120.052C95.3677 119.745 95.5806 119.366 95.691 118.916C95.8014 118.465 95.7854 117.977 95.643 117.451C95.4978 116.915 95.2652 116.485 94.9454 116.162C94.6227 115.829 94.2478 115.61 93.8208 115.504C93.404 115.396 92.9636 115.404 92.4996 115.53C92.0356 115.656 91.6459 115.872 91.3305 116.179C91.0151 116.485 90.8022 116.864 90.6918 117.314C90.5786 117.755 90.5946 118.243 90.7398 118.779C90.8822 119.305 91.1148 119.734 91.4374 120.068C91.7601 120.401 92.135 120.62 92.562 120.726C92.9891 120.832 93.4347 120.822 93.8987 120.696ZM100.65 120.528L98.4132 112.268L100.347 111.745L101.821 117.189L104.91 110.509L106.673 110.031L108.91 118.291L106.976 118.815L105.502 113.37L102.429 120.046L100.65 120.528ZM117.435 115.982L113.377 112.831L114.691 111.429L119.708 115.366L117.435 115.982ZM111.511 117.587L109.274 109.327L111.207 108.803L113.444 117.063L111.511 117.587ZM111.975 113.908L111.54 112.299L114.339 111.541L114.775 113.15L111.975 113.908ZM115.157 112.415L113.289 112.689L115.198 107.723L117.27 107.161L115.157 112.415ZM121.072 114.997L118.835 106.737L120.769 106.214L123.005 114.473L121.072 114.997ZM119.441 105.112C119.08 105.21 118.75 105.178 118.452 105.015C118.163 104.85 117.976 104.607 117.889 104.287C117.8 103.957 117.839 103.654 118.008 103.376C118.183 103.084 118.452 102.89 118.813 102.792C119.173 102.695 119.497 102.723 119.782 102.878C120.075 103.02 120.265 103.251 120.352 103.571C120.444 103.911 120.409 104.231 120.246 104.529C120.08 104.817 119.812 105.012 119.441 105.112ZM125.619 113.766L123.382 105.506L127.419 104.413C128.419 104.142 129.253 104.115 129.921 104.333C130.599 104.548 131.03 104.995 131.214 105.676C131.396 106.346 131.27 106.945 130.837 107.472C130.401 107.988 129.74 108.366 128.853 108.606L128.955 108.064C129.956 107.793 130.748 107.778 131.334 108.018C131.926 108.245 132.318 108.709 132.507 109.41C132.706 110.142 132.587 110.788 132.153 111.349C131.715 111.899 130.939 112.325 129.826 112.626L125.619 113.766ZM127.078 111.86L129.29 111.261C129.816 111.118 130.19 110.928 130.414 110.691C130.634 110.443 130.697 110.144 130.602 109.793C130.502 109.422 130.304 109.182 130.009 109.074C129.714 108.965 129.304 108.983 128.778 109.125L126.504 109.741L127.078 111.86ZM126.156 108.457L128.183 107.908C128.678 107.774 129.025 107.586 129.225 107.344C129.433 107.088 129.492 106.795 129.402 106.466C129.31 106.125 129.113 105.907 128.81 105.812C128.518 105.714 128.125 105.732 127.63 105.866L125.604 106.415L126.156 108.457ZM134.316 107.559L131.984 100.42L134.274 99.8004L135.847 107.144L134.316 107.559ZM136.091 111.046C135.73 111.144 135.399 111.106 135.097 110.933C134.796 110.76 134.6 110.509 134.511 110.179C134.422 109.849 134.465 109.538 134.641 109.247C134.814 108.946 135.08 108.746 135.441 108.648C135.802 108.551 136.128 108.59 136.419 108.765C136.708 108.931 136.896 109.179 136.986 109.509C137.075 109.839 137.039 110.153 136.876 110.451C136.713 110.75 136.452 110.948 136.091 111.046Z" fill="#33506E"/>
</g>
<defs>
<filter id="filter0_d_8_14424" x="-0.228516" y="0.84668" width="186.836" height="186.242" filterUnits="userSpaceOnUse" color-interpolation-filters="sRGB">
<feFlood flood-opacity="0" result="BackgroundImageFix"/>
<feColorMatrix in="SourceAlpha" type="matrix" values="0 0 0 0 0 0 0 0 0 0 0 0 0 0 0 0 0 0 127 0" result="hardAlpha"/>
<feOffset dx="7" dy="7"/>
<feComposite in2="hardAlpha" operator="out"/>
<feColorMatrix type="matrix" values="0 0 0 0 1 0 0 0 0 1 0 0 0 0 1 0 0 0 1 0"/>
<feBlend mode="normal" in2="BackgroundImageFix" result="effect1_dropShadow_8_14424"/>
<feBlend mode="normal" in="SourceGraphic" in2="effect1_dropShadow_8_14424" result="shape"/>
</filter>
<clipPath id="clip0_8_14424">
<rect width="187" height="188" fill="white"/>
</clipPath>
</defs>
</svg>
