<svg width="698" height="900" viewBox="0 0 698 900" fill="none" xmlns="http://www.w3.org/2000/svg">
<g clip-path="url(#clip0_8_14681)">
<path d="M102.019 505.104C102.403 497.324 104.901 489.793 109.246 483.311C111.438 480.101 114.326 477.421 117.697 475.467C121.068 473.512 124.836 472.334 128.725 472.018C132.485 471.843 136.693 472.967 138.641 476.182C140.589 479.398 139.595 483.505 138.641 487.108C127.907 539.411 142.946 547.818 152.277 551.305C161.608 554.792 188.178 544.176 196.029 540.825C203.022 537.861 207.911 531.139 212.002 524.882C212.989 522.824 214.605 521.129 216.619 520.039C217.793 519.693 219.043 519.691 220.218 520.035C221.393 520.378 222.444 521.053 223.242 521.977C224.816 523.864 225.846 526.14 226.222 528.563C229.281 542.665 223.067 557.93 211.983 567.306C200.899 576.682 185.529 576.313 171.192 578.483C128.803 584.818 101.181 531.372 102.019 505.104Z" fill="#D0C0A1"/>
<path d="M85.1437 520.617C84.7728 518.166 84.9876 514.944 87.3885 514.153C89.3405 513.517 91.1949 514.983 92.6003 516.411C104.312 528.238 110.422 544.657 122.524 556.041V557.16L123.032 557.43C123.032 557.43 132.089 564.511 129.551 569.007C129.007 570.211 128.009 571.157 126.769 571.643C125.529 572.13 124.146 572.119 122.915 571.611C112.959 566.707 104.336 559.519 97.7649 550.647C91.194 541.776 86.8664 531.479 85.1437 520.617Z" fill="#D0C0A1"/>
<path d="M118.154 580.913C111.8 581.32 105.435 580.295 99.5314 577.914C93.6275 575.533 88.3353 571.857 84.0462 567.158C82.142 565.113 80.5253 562.819 79.2404 560.339C77.4861 556.793 76.7391 552.835 77.0807 548.895C77.0419 547.943 77.2619 546.997 77.7174 546.159C78.173 545.321 78.8472 544.622 79.6684 544.135C80.5288 543.941 81.4233 543.956 82.2765 544.18C83.1298 544.403 83.9169 544.827 84.5715 545.418C109.593 568.285 122.94 571.121 124.438 573.356C125.936 575.59 124.633 580.505 118.154 580.913Z" fill="#D0C0A1"/>
<path d="M85.1635 579.817C84.1988 580.68 83.1947 581.063 83.0175 582.175C82.925 583.302 83.2006 584.429 83.805 585.394C84.9119 587.383 86.5965 589.009 88.6481 590.071C89.7036 590.581 90.8039 590.998 91.936 591.316C101.032 593.961 110.777 593.233 119.971 590.914C124.087 589.36 128.104 587.568 132 585.548L125.247 581.025C107.962 585.797 90.6563 576.253 85.1635 579.817Z" fill="#D0C0A1"/>
<path d="M219.177 586.534C221.332 585.247 223.699 583.058 222.807 580.773C222.088 578.853 219.74 578.392 217.76 578.22C201.205 576.837 184.552 582.521 168.054 580.505L167.181 581.196L166.637 580.965C166.637 580.965 155.419 578.546 153.536 583.308C152.939 584.488 152.836 585.854 153.25 587.108C153.665 588.363 154.563 589.405 155.749 590.009C165.834 594.482 176.855 596.5 187.89 595.895C198.925 595.291 209.653 592.081 219.177 586.534Z" fill="#D0C0A1"/>
<path d="M151.79 599.889C155.516 605.19 160.367 609.566 165.982 612.691C171.597 615.816 177.831 617.61 184.22 617.94C187.031 618.118 189.853 617.903 192.606 617.302C196.479 616.371 200.032 614.388 202.888 611.564C203.652 610.974 204.245 610.185 204.606 609.281C204.967 608.376 205.083 607.39 204.941 606.424C204.541 605.618 203.958 604.921 203.241 604.391C202.523 603.861 201.692 603.513 200.816 603.376C167.077 598.454 156.365 589.728 153.667 590.007C150.969 590.286 148.018 594.569 151.79 599.889Z" fill="#D0C0A1"/>
<path d="M172.954 624.148C172.954 625.433 173.227 626.466 172.447 627.304C171.62 628.102 170.563 628.62 169.426 628.785C167.165 629.228 164.822 628.984 162.701 628.083C161.637 627.608 160.619 627.034 159.661 626.369C151.864 621.128 146.348 613.178 142.352 604.664C140.987 600.512 139.868 596.284 139 592L146.796 594.241C153.872 610.509 172.311 617.621 172.954 624.148Z" fill="#D0C0A1"/>
<path d="M121.153 552L141.361 573.689C142.173 574.681 143.164 575.505 144.281 576.116C145.733 576.643 147.278 576.849 148.814 576.723C156.388 576.728 163.9 578.107 171 580.795C167.935 584.989 164.233 588.656 160.032 591.659C152.348 597.198 141.745 600.272 133.255 595.985C127.339 592.99 123.439 587 120.769 580.853C116.927 572.201 115.199 561.788 119.597 553.449" fill="#D0C0A1"/>
<path d="M136.659 560.632C133.763 552.598 131.681 544.293 130.443 535.842C129.21 527.344 130.564 518.671 134.328 510.956C137.703 504.893 142.693 499.888 148.74 496.498C157.358 491.346 167.632 489.736 177.409 492.003C182.242 493.207 186.7 495.594 190.385 498.949C194.07 502.304 196.866 506.523 198.522 511.228C199.982 516.28 200.366 521.584 199.649 526.794C199.06 534.926 196.011 542.684 190.908 549.035C175.37 564.602 148.585 575.245 143.593 573.883C138.601 572.521 136.659 560.632 136.659 560.632Z" fill="#D0C0A1"/>
<path d="M144.4 560C143.545 553.507 144.064 546.908 145.925 540.625C147.785 534.343 150.946 528.514 155.206 523.513C155.424 523.276 155.682 523 156 523" stroke="#FAF2E1" stroke-linecap="round" stroke-linejoin="round"/>
<path d="M149 558L170 524V525.076" stroke="#FAF2E1" stroke-linecap="round" stroke-linejoin="round"/>
<path d="M149 562C161.918 556.409 172.754 546.971 180 535" stroke="#FAF2E1" stroke-linecap="round" stroke-linejoin="round"/>
<path d="M131.212 595C130.457 591.168 130.065 587.272 130.039 583.365C129.78 578.596 130.824 573.847 133.057 569.635C136.595 563.818 143.306 560.735 149.593 558C151.631 565.757 151.881 574.542 147.44 581.174C145.414 583.96 142.961 586.402 140.172 588.407C137.612 590.554 134.772 592.336 131.731 593.701" fill="#DCD5C7"/>
<path d="M178.811 539.794L180.285 540L181.759 539.794C183.126 539.31 184.296 538.333 185.072 537.026C185.532 536.359 185.804 535.563 185.857 534.733C186.048 533.948 186.048 533.123 185.857 532.338L185.283 530.912C184.813 530.063 184.155 529.353 183.368 528.847L182.047 528.227C181.073 527.959 180.052 527.959 179.079 528.227L180.572 528L182.047 528.227C181.328 527.978 180.561 527.942 179.825 528.124C179.089 528.149 178.374 528.392 177.757 528.826C177.119 529.189 176.578 529.722 176.187 530.376C175.691 530.956 175.347 531.669 175.192 532.441L175 534.031C174.995 535.097 175.253 536.145 175.747 537.067L176.628 538.286C177.308 539.015 178.153 539.542 179.079 539.814L178.811 539.794Z" fill="#FAF2E1"/>
<path d="M165.726 517.687C165.003 518.354 164.483 519.182 164.217 520.09C163.928 521.03 163.928 522.025 164.217 522.966L164.816 524.271C165.185 524.897 165.718 525.43 166.366 525.822C166.735 526.154 167.19 526.395 167.689 526.522C168.4 526.867 169.199 527.031 170.003 526.995C170.8 527.031 171.593 526.868 172.296 526.522C173.038 526.301 173.707 525.91 174.239 525.387L175.168 524.271C175.602 523.66 175.851 522.955 175.892 522.228C176.036 521.751 176.036 521.247 175.892 520.771C175.844 520.044 175.595 519.341 175.168 518.727L174.239 517.611C173.504 516.943 172.593 516.461 171.594 516.211L170.003 516.003C169.2 515.977 168.403 516.139 167.689 516.476C167.189 516.61 166.734 516.857 166.366 517.195C165.714 517.575 165.18 518.103 164.816 518.727L169.941 516.022C169.407 515.979 168.869 516.051 168.37 516.23C167.379 516.473 166.475 516.949 165.746 517.611L165.726 517.687Z" fill="#FAF2E1"/>
<path d="M154.989 526.997C155.792 527.028 156.588 526.85 157.302 526.481C158.03 526.214 158.692 525.791 159.241 525.242C159.79 524.693 160.213 524.031 160.481 523.302C160.849 522.589 161.027 521.793 160.997 520.991L160.77 519.402C160.505 518.4 159.978 517.488 159.242 516.76L158.024 515.831C157.108 515.281 156.058 514.995 154.989 515.005C154.193 514.967 153.401 515.145 152.698 515.521C151.957 515.763 151.289 516.189 150.758 516.76C150.188 517.284 149.762 517.944 149.519 518.679C149.152 519.393 148.974 520.189 149.003 520.991L149.209 522.58C149.493 523.584 150.026 524.5 150.758 525.243L151.976 526.171C152.893 526.7 153.931 526.984 154.989 526.997Z" fill="#FAF2E1"/>
<path d="M234.316 446.48C236.533 450.523 239.549 454.109 242.005 457.923C244.651 461.745 246.042 466.235 245.999 470.816C245.802 473.44 244.886 475.967 243.344 478.147C241.802 480.326 239.687 482.079 237.212 483.232C236.509 483.621 235.73 483.868 234.923 483.96C234.116 484.052 233.298 483.986 232.519 483.766C231.543 483.325 230.688 482.672 230.023 481.859C225.423 476.722 222.265 470.553 220.847 463.93C219.429 457.308 219.796 450.45 221.915 444" fill="#D0C0A1"/>
<path d="M222 443.942C220.691 449.29 219.421 454.657 218.191 460.044C217.327 463.613 216.384 467.378 213.812 470.026C212.562 471.209 211.163 472.225 209.649 473.046C207.273 474.419 204.328 475.772 201.913 474.478C199.498 473.183 198.928 469.889 199.007 467.104C199.392 456.619 203.579 446.631 210.788 439" fill="#D0C0A1"/>
<path d="M211 439.387C209.039 443.052 207.077 446.658 204.861 450.187C201.291 456.003 197.016 461.82 190.583 464.36C187.739 465.426 183.816 465.349 182.463 462.673C181.846 461.075 181.846 459.308 182.463 457.71C184.113 452.13 186.935 446.956 190.743 442.526C194.552 438.097 199.262 434.51 204.567 432" fill="#D0C0A1"/>
<path d="M203 432.612L192.594 440.897C189.601 443.486 186.289 445.681 182.739 447.431C179.153 449.175 175.033 449.478 171.229 448.277C170.459 448.116 169.735 447.786 169.108 447.312C168.481 446.838 167.967 446.23 167.603 445.534C167.24 444.838 167.035 444.07 167.004 443.285C166.973 442.5 167.117 441.718 167.425 440.995C168.761 437.505 171.048 434.458 174.028 432.198C180.83 426.425 189.047 422.56 197.836 421" fill="#D0C0A1"/>
<path d="M196.142 421.386C185.893 424.02 175.092 426.654 164.922 423.693C162.923 423.206 161.054 422.264 159.452 420.936C158.659 420.267 158.026 419.418 157.601 418.455C157.177 417.492 156.972 416.44 157.003 415.383C157.17 414.195 157.618 413.069 158.307 412.104C158.996 411.139 159.905 410.364 160.953 409.849C164.041 408.389 167.442 407.777 170.826 408.073C181.43 408.073 192.726 409.522 201 416.363" fill="#D0C0A1"/>
<path d="M222 422C229.811 405.49 250.471 392.469 269.198 392.527C273.923 392.527 278.61 393.332 283.316 393.351C291.565 393.232 299.604 390.776 306.466 386.279C313.328 381.782 318.722 375.435 322 368" stroke="#D0C0A1" stroke-miterlimit="10"/>
<path d="M264.022 412.975C263.913 418.065 264.209 423.155 264.906 428.197C265.829 434.457 266.829 441.07 270.808 446C277.882 439.387 279.535 428.607 278.862 418.845C278.286 410.452 275.921 401.511 269.405 396.307L265.56 393C266.729 394.422 267.517 396.127 267.847 397.95C268.02 400.454 264.118 405.932 264.022 412.975Z" fill="#D0C0A1"/>
<path d="M236.648 384.099C229.493 380.828 223.377 375.551 219 368.87C227.217 367.25 235.704 367.9 243.598 370.754C251.491 373.608 258.509 378.564 263.936 385.117C265.068 386.384 265.933 387.879 266.476 389.507C266.763 390.651 266.938 391.821 267 393C256.432 392.008 246.137 388.989 236.648 384.099Z" fill="#D0C0A1"/>
<path d="M248 398C246.412 400.297 245.324 403.028 244.832 405.951C244.399 407.714 244.121 409.526 244.002 411.358C243.977 413.684 244.178 416.005 244.599 418.275C244.881 420.263 245.18 422.092 245.462 424" stroke="#D0C0A1" stroke-width="0.99" stroke-linecap="round" stroke-linejoin="round"/>
<path d="M246 398.604C236.324 401.13 226.062 400.209 217 396" stroke="#D0C0A1" stroke-miterlimit="10"/>
<path d="M243.889 421.157C242.992 424.261 242.771 427.521 243.24 430.718C243.709 433.915 244.858 436.973 246.608 439.687C248.846 442.787 251.477 445.581 254.436 448C256.444 443.013 256.521 437.453 254.651 432.412C252.74 427.423 249.013 423.345 244.221 421" fill="#D0C0A1"/>
<path d="M219 396.661C215.669 398.929 211.208 398.01 207.545 396.173C202.714 393.671 198.506 389.215 198 383.8C198.855 383.089 199.852 382.569 200.924 382.276C201.996 381.982 203.118 381.923 204.214 382.1C207.945 382.366 211.484 383.856 214.286 386.341C215.667 387.58 216.788 389.082 217.584 390.76C218.38 392.438 218.835 394.258 218.922 396.114" fill="#D0C0A1"/>
<path d="M215.178 483C215.645 483.004 216.111 483.057 216.566 483.158L216.954 483.257C217.764 483.397 218.537 483.693 219.226 484.129C219.915 484.564 220.506 485.128 220.964 485.789C221.422 486.45 221.738 487.193 221.892 487.974C222.046 488.755 222.035 489.559 221.861 490.336C221.687 491.113 221.352 491.848 220.877 492.498C220.402 493.147 219.797 493.697 219.096 494.116C218.396 494.534 217.616 494.812 216.803 494.932C215.989 495.052 215.159 495.013 214.362 494.817L213.81 494.698C212.331 494.384 211.025 493.552 210.144 492.362C209.262 491.171 208.869 489.708 209.039 488.254C209.209 486.8 209.93 485.458 211.064 484.488C212.198 483.518 213.664 482.988 215.178 483Z" fill="#D0C0A1"/>
<path d="M187.009 474C187.881 474.008 188.74 474.188 189.528 474.526C190.316 474.865 191.015 475.355 191.576 475.962C192.138 476.57 192.549 477.281 192.781 478.046C193.013 478.812 193.061 479.615 192.922 480.399C192.69 481.679 191.969 482.842 190.887 483.684C189.805 484.526 188.432 484.992 187.009 485C185.986 484.982 184.984 484.73 184.095 484.268C183.206 483.806 182.458 483.148 181.919 482.355C181.38 481.561 181.067 480.657 181.01 479.726C180.952 478.794 181.151 477.863 181.589 477.02C182.099 476.109 182.875 475.345 183.832 474.812C184.789 474.279 185.888 473.998 187.009 474Z" fill="#D0C0A1"/>
<path d="M165.034 455C166.032 455.006 167.011 455.262 167.883 455.743C168.755 456.225 169.491 456.917 170.023 457.756V457.854C170.454 458.506 170.751 459.236 170.896 460.002C171.042 460.768 171.034 461.556 170.872 462.319C170.71 463.082 170.398 463.806 169.953 464.448C169.508 465.09 168.94 465.639 168.281 466.061C166.97 466.9 165.38 467.192 163.855 466.876C162.329 466.559 160.99 465.659 160.126 464.369L159.928 464.074C159.355 463.178 159.035 462.146 159.003 461.086C158.97 460.025 159.225 458.975 159.742 458.047C160.258 457.118 161.017 456.345 161.938 455.809C162.859 455.273 163.908 454.994 164.975 455H165.034Z" fill="#D0C0A1"/>
<path d="M152.521 429C153.467 429.002 154.397 429.266 155.224 429.769C156.051 430.272 156.748 430.997 157.249 431.876L157.379 432.08C158.013 433.426 158.168 434.982 157.814 436.447C157.461 437.911 156.624 439.18 155.466 440.007C154.307 440.835 152.91 441.162 151.544 440.925C150.178 440.689 148.941 439.906 148.072 438.728L147.849 438.361C147.32 437.434 147.028 436.368 147.002 435.276C146.976 434.183 147.218 433.103 147.703 432.147C148.187 431.191 148.897 430.396 149.757 429.842C150.618 429.289 151.598 428.998 152.596 429H152.521Z" fill="#D0C0A1"/>
<path d="M236.61 443.309L237 449.424C237 449.424 223.364 453.008 207.584 442.297C191.805 431.585 192 411 192 411C192 411 209.065 414.369 215.844 418.167" fill="#D0C0A1"/>
<path d="M198.231 414.495C201.968 423.802 208.297 431.818 216.452 437.575C220.903 441.098 226.227 443.32 231.844 444H232.306C232.96 444 233.595 444 234.23 444C234.823 443.985 235.414 443.933 236 443.845C235.538 439.71 233.499 432.315 225.572 424.958C217.796 418.242 208.18 414.072 198 413L198.231 414.495Z" fill="#DCD5C7"/>
<path d="M236 446.917C236 446.917 201.84 450.424 195 412" stroke="#FAF2E1" stroke-linecap="round" stroke-linejoin="round"/>
<path d="M54.7202 546C83.8864 497.311 84.4892 436.507 75.9921 380.319C67.495 324.131 50.7147 269.053 48.2647 212.281C45.8147 155.509 60.0867 94.1602 103 57.0002" stroke="#DCD5C7" stroke-miterlimit="10"/>
<path d="M77.0642 489C87.228 471.778 99.3932 455.825 113.305 441.473C125.727 428.675 139.639 417.041 149.469 402.129C151.674 398.794 153.745 394.8 152.739 390.922C151.539 386.229 146.334 383.708 141.516 383.165C129.713 381.827 118.181 388.789 110.828 398.154C103.476 407.52 99.5285 419.038 95.6974 430.324C89.1187 449.714 82.5529 469.06 76 488.36L77.0642 489Z" fill="#DCD5C7"/>
<path d="M66.1798 467.709C70.1721 475.735 73.1546 484.231 75.0581 493C77.408 464.658 75.3543 436.121 68.9712 408.417C67.3429 401.425 65.3075 394.258 61.004 389.024C56.7006 383.79 49.5088 381.075 44.0423 384.571C38.5757 388.067 36.8893 395.781 37.0056 402.792C37.4126 427.556 55.5181 446.246 66.1798 467.709Z" fill="#DCD5C7"/>
<path d="M80.4634 421C75.8092 376.5 83.6509 355.681 84.7069 346.258C86.9362 326.349 97.633 303.963 114.861 293.457C117.153 291.866 119.883 291.009 122.683 291C128.882 291.407 132.696 298.604 131.894 304.699C131.092 310.793 127.24 316.037 123.544 320.99C113.414 334.65 81.0696 378.667 80.4047 421" fill="#DCD5C7"/>
<path d="M47.5911 314.591C43.8595 310.131 40.0302 304.042 34.3057 305.128C27.9756 306.33 26.1391 314.63 27.3505 320.932C30.7304 338.657 45.9109 351.301 57.1254 365.535C70.8093 382.973 79.1026 403.977 81 426C81 426 80.0622 410.777 79.6519 406.414C79.2416 402.051 72.2863 344.3 47.5911 314.591Z" fill="#DCD5C7"/>
<path d="M71.4143 346C70.9898 308.822 86.8536 281.799 103.046 250.255C106.249 243.994 109.607 237.517 109.974 230.492C110.341 223.467 106.828 215.64 100.189 213.546C91.91 210.963 83.7851 217.988 78.9603 225.287C58.812 255.734 63.1736 295.829 68.3072 332.127" fill="#DCD5C7"/>
<path d="M57.3931 221.295C60.451 205.743 67.9854 191.45 79.0505 180.211C92.0179 167.064 109.805 158.104 118.243 141.593C119.77 139.166 120.331 136.243 119.811 133.415C118.069 127.194 109.321 127.155 103.263 129.229C70.2637 140.458 54.0061 176.455 51.432 211.669C50.72 222.751 50.8883 233.873 51.9352 244.927L53.4448 256L57.3931 221.295Z" fill="#DCD5C7"/>
<path d="M55 139C63.7671 123.31 75.753 109.649 90.1724 98.911C100.897 90.936 112.849 84.7505 123.087 76.0752C133.325 67.3999 142.006 55.8458 142.941 42.5216C143.33 36.6862 141.851 30.2673 137.101 26.9606C130.114 22.2728 120.712 26.8049 114.114 32.0374C86.6882 53.6283 70.5716 86.5595 60.2943 119.763" fill="#DCD5C7"/>
<path d="M55.7784 78.6244C57.7341 70.3439 58.2816 58.72 50.0679 56.3486C42.2452 54.0938 36.3783 63.2296 34.051 70.9464C14.2989 171.79 49.2269 224 49.2269 224C49.2269 224 36.7107 143.391 55.7784 78.6244Z" fill="#DCD5C7"/>
<path d="M63 312C63 312 -7.56307 248.438 32.0956 196.004C37.971 195.519 32.1935 240.67 63 308.136" fill="#DCD5C7"/>
<path d="M253 146C269.601 126.482 293.262 109.255 320 110.025" stroke="#D0C0A1" stroke-linecap="round" stroke-linejoin="round"/>
<path d="M239.302 167.914C229.616 159.676 224.56 147.367 220.123 135.446C213.556 117.827 207.492 98.9469 211.057 80.4742C211.114 79.7173 211.33 78.9809 211.691 78.313C212.051 77.645 212.548 77.0605 213.149 76.5974C215.532 75.2406 218.225 77.7798 219.658 80.1253C223.001 85.5722 225.502 91.4928 227.078 97.6869C227.078 89.003 226.729 79.6794 221.537 72.7401C220.669 71.7396 219.921 70.6401 219.31 69.4642C217.76 65.8588 220.472 61.4006 224.23 60.2957C226.151 59.8718 228.151 59.974 230.02 60.5914C231.888 61.2088 233.555 62.3187 234.846 63.8042C237.397 66.8067 239.143 70.4085 239.922 74.2714C240.871 78.1481 241.433 82.0249 242.711 85.7078C244.316 82.1615 244.962 78.2557 244.585 74.3812C244.207 70.5067 242.82 66.7993 240.561 63.6297C238.621 61.5122 236.99 59.1302 235.718 56.5546C235.36 55.3479 235.252 54.0807 235.401 52.8307C235.55 51.5808 235.952 50.3744 236.583 49.2856C237.215 48.1967 238.061 47.2482 239.072 46.4983C240.082 45.7484 241.235 45.2128 242.46 44.9244C243.565 44.6722 244.722 44.767 245.772 45.1958C246.813 45.7495 247.704 46.5477 248.368 47.5218C256.35 57.8727 257.318 71.829 258.054 84.8743C262.094 73.6884 262.094 61.4409 258.054 50.2549C257.008 47.9139 256.31 45.4324 255.982 42.8891C255.837 41.6103 256.069 40.3173 256.646 39.1676C257.224 38.018 258.124 37.0616 259.236 36.4149C263.111 34.651 267.159 38.5859 268.922 42.4433C273.94 53.2982 272.235 65.917 270.414 77.7605C273.885 72.3604 276.242 66.3204 277.347 59.9957C278.451 53.671 278.281 47.1892 276.846 40.9313C276.071 37.7136 275.122 33.8369 277.427 31.4527C278.353 30.6359 279.515 30.1355 280.745 30.024C281.974 29.9125 283.207 30.1956 284.265 30.8324C286.35 32.1629 287.963 34.116 288.876 36.4149C291.542 42.8666 292.111 49.9939 290.503 56.7872C288.864 63.4627 286.526 69.9467 283.529 76.1322C291.322 67.7511 296.094 57.0065 297.09 45.6028C297.361 42.6371 297.574 39.1868 299.996 37.4617C303.076 35.2519 307.745 37.6943 309.043 41.2415C310.341 44.7887 309.372 48.7236 308.132 52.3096C305.358 60.4301 301.521 68.1472 296.722 75.26C307.667 69.5999 310.902 55.6824 318.613 46.0874C329.016 52.9687 340.193 61.1874 342.712 73.3991C334.055 78.6906 326.282 85.3101 319.678 93.0155C326.078 88.4797 333.09 84.8771 340.503 82.3156C343.234 81.0601 346.318 80.7996 349.221 81.5791C352.011 82.6258 353.89 86.3668 352.049 88.7317C350.784 89.9594 349.15 90.7359 347.4 90.9414C337.48 93.4471 328.724 99.2923 322.603 107.495L337.946 101.157C342.305 99.3539 347.013 97.5125 351.507 98.598C356.001 99.6835 359.895 105.072 357.532 109.162C346.793 109.411 336.229 111.934 326.536 116.567C332.271 114.812 338.317 114.316 344.262 115.113C347.254 115.509 350.127 116.545 352.684 118.15C355.241 119.756 357.423 121.893 359.082 124.417C360.031 126.007 360.554 128.43 359.082 129.457C358.216 129.879 357.232 129.995 356.292 129.786C347.604 128.936 338.843 129.184 330.217 130.523C334.739 129.36 339.461 129.208 344.049 130.077C348.562 131.201 352.805 134.574 353.619 139.149C354.374 143.394 352.166 147.542 350.015 151.283C342.007 147.119 332.999 145.267 323.998 145.933C328.861 146 333.622 147.337 337.811 149.81C340.775 151.574 343.622 154.656 342.886 158.009C342.15 161.363 338.159 162.797 334.847 162.351C331.534 161.905 328.589 160.064 325.49 158.862C322.39 157.66 318.574 157.137 315.804 159.114C320.142 160.4 324.276 162.293 328.086 164.735C328.936 165.138 329.621 165.823 330.023 166.674C330.565 168.418 328.783 169.95 327.214 170.88C311.115 180.572 292.344 186.736 273.746 184.565C255.149 182.394 237.035 170.55 231.224 152.776" fill="#D0C0A1"/>
<path d="M238.305 166.349C230.041 159.402 224.043 150.151 221.08 139.781C218.117 129.412 218.324 118.395 221.674 108.144C225.031 98.404 231.317 89.268 230.77 78.9244C233.885 78.6026 237.028 79.1295 239.866 80.4489C242.704 81.7684 245.13 83.8309 246.887 86.4172C248.643 89.0034 249.664 92.0165 249.841 95.1357C250.018 98.255 249.343 101.364 247.89 104.131C252.692 96.3391 251.599 86.3266 249.842 77.3075C249.374 74.7752 249.101 71.639 251.228 70.1975C253.356 68.756 256.694 70.4507 258.392 72.6909C264.249 80.4827 262.101 91.3913 258.88 100.527C261.045 95.6273 262.473 90.4351 263.117 85.1189C263.839 79.0802 263.624 72.6519 266.669 67.3924C266.921 66.8594 267.339 66.422 267.86 66.1457C268.875 65.6782 270.046 66.4184 270.847 67.2171C275.259 71.6 276.41 78.4374 275.376 84.5345C273.991 90.6006 271.645 96.4072 268.426 101.735C272.763 95.0354 276.091 87.7373 278.304 80.0737C278.763 77.9047 279.631 75.8423 280.861 73.996C281.498 73.0864 282.411 72.4057 283.466 72.0548C284.521 71.7039 285.661 71.7016 286.717 72.048C289.997 73.4895 289.528 78.2426 288.357 81.6125C285.709 89.1942 282.226 96.4592 277.972 103.274C282.741 93.5602 290.668 85.746 300.46 81.1061C302.471 79.9979 304.742 79.4464 307.039 79.5087C308.179 79.5767 309.266 80.0152 310.133 80.7574C311 81.4996 311.6 82.5046 311.841 83.6189C311.877 85.184 311.427 86.7219 310.552 88.0213C304.56 98.9522 296.444 108.581 286.678 116.345C293.803 108.046 301.827 99.5338 312.465 96.8651C314.255 96.29 316.181 96.29 317.97 96.8651C318.858 97.1675 319.607 97.7789 320.081 98.5873C320.554 99.3957 320.719 100.347 320.547 101.267C320.118 102.787 318.595 103.683 317.248 104.462C307.956 109.713 299.375 116.128 291.715 123.552C298.68 117.264 307.129 112.841 316.272 110.696C320.937 109.624 327.145 109.916 328.902 114.358C329.179 114.98 329.298 115.661 329.251 116.34C329.203 117.019 328.99 117.676 328.629 118.254C327.986 118.941 327.209 119.49 326.347 119.869C325.484 120.247 324.554 120.446 323.612 120.455C314.249 121.88 305.202 124.905 296.868 129.396C302.51 126.279 308.425 123.104 314.886 122.831C321.347 122.559 328.414 126.24 329.839 132.571C330.347 134.87 329.683 137.831 327.438 138.551C326.249 138.801 325.016 138.727 323.866 138.337C314.978 136.323 305.672 137.295 297.395 141.103C300.891 139.248 304.65 137.934 308.542 137.207C310.491 136.873 312.489 136.951 314.406 137.438C316.323 137.924 318.116 138.808 319.669 140.032C324.08 143.928 324.471 150.512 324.529 156.395C319.161 154.992 313.832 158.343 309.205 161.343C301.093 167.063 292.258 171.688 282.93 175.095C273.53 178.518 263.293 178.927 253.649 176.264C245.523 173.587 238.39 168.538 233.171 161.771" fill="#DCD5C7"/>
<path d="M241.311 169.524C247.65 172.995 255.401 172.336 262.407 170.474C267.479 169.139 272.46 167.488 277.321 165.53C281.128 163.998 285.17 161.924 286.701 158.143C283.767 158.033 280.828 158.136 277.909 158.453C279.872 157.93 281.834 157.348 283.914 156.65C287.333 155.672 290.455 153.873 293 151.415C292.176 150.058 290.233 150.058 288.663 150.252L287.25 150.465C288.736 150.038 290.086 149.244 291.175 148.158C291.398 147.953 291.543 147.679 291.587 147.382C291.587 147.201 291.545 147.023 291.463 146.862C291.381 146.7 291.262 146.56 291.116 146.451C290.419 146.01 289.634 145.723 288.815 145.609C287.995 145.496 287.16 145.558 286.367 145.792L266.43 148.817C273.721 146.242 280.751 142.996 287.427 139.122C289.213 138.095 291.175 136.699 291.352 134.644C284.025 136.582 276.932 139.299 270.197 142.748C276.084 138.017 283.679 134.857 288.114 128.691C288.82 127.722 289.252 126.074 288.114 125.608C287.681 125.464 287.212 125.464 286.779 125.608C279.371 127.502 272.529 131.119 266.822 136.156C269.373 133.151 272.552 130.746 275.378 127.993C278.377 125.373 280.493 121.909 281.442 118.066C280.904 117.891 280.33 117.857 279.776 117.97C279.221 118.082 278.706 118.336 278.282 118.706C271.212 123.13 265.145 128.953 260.464 135.807C264.585 129.507 268.194 122.894 271.257 116.03C271.885 114.634 272.258 112.579 270.845 111.939C270.457 111.818 270.045 111.788 269.643 111.852C269.241 111.916 268.86 112.072 268.529 112.308C266.102 113.905 264.119 116.078 262.76 118.628C259.699 123.351 257.072 128.334 254.911 133.519C257.39 127.425 259.288 121.115 260.582 114.673C260.798 114.026 260.837 113.333 260.696 112.666C260.554 111.999 260.238 111.38 259.777 110.873C257.273 113.812 255.344 117.184 254.086 120.819C252.124 125.492 250.319 130.223 248.553 134.973C249.455 128.439 250.338 121.924 251.241 115.41C251.516 113.471 251.555 110.97 249.789 110C245.191 118.201 241.846 127.028 239.859 136.195C240.193 129.874 240.546 123.534 240.88 117.213C240.88 116.282 240.703 115.022 239.761 114.983C239.353 115.005 238.967 115.178 238.682 115.468C236.934 117.261 235.719 119.495 235.169 121.924C233.743 126.389 232.757 130.98 232.226 135.632L231.912 134.721C228.262 156.223 236.425 166.829 241.311 169.524Z" fill="#D0C0A1"/>
<path d="M238.268 162.71C234.29 157.542 234.155 149.689 236.723 143.639C237.999 140.592 240.157 138.032 242.896 136.313C245.636 134.594 248.823 133.801 252.017 134.043C254.781 134.48 257.39 135.653 259.586 137.448C261.526 138.924 263.08 140.88 264.105 143.138C264.92 145.373 265.184 147.784 264.874 150.153C264.564 152.521 263.689 154.771 262.328 156.7C259.548 160.557 255.792 163.539 251.476 165.314C248.953 166.638 246.123 167.2 243.308 166.937C243.308 166.937 241.609 167.017 238.268 162.71Z" fill="#DCD5C7"/>
<path d="M342 367.984C269.807 369.152 214.003 305.383 217.125 234.976C218.061 215.176 223.075 195.781 231.856 178" stroke="#D0C0A1" stroke-miterlimit="10"/>
<path d="M291.558 229.743C294.634 228.69 297.985 228.758 301.014 229.937C302.496 230.576 303.691 231.733 304.376 233.188C305.06 234.644 305.187 236.299 304.731 237.841C304.157 239.039 303.343 240.108 302.337 240.979C287.569 255.431 269.26 267.636 261.069 286.543C257.124 295.972 255.934 306.318 257.635 316.39C259.335 326.463 263.857 335.852 270.681 343.479L275.739 349L266.011 342.2C266.011 342.2 235.774 305.548 267.49 246.888C274.377 234.296 291.558 229.743 291.558 229.743Z" fill="#D0C0A1"/>
<path d="M217 257C206.166 254.42 192.41 180.619 168.58 149.476C159.071 137.061 147.186 124.999 145.237 109.476C144.708 106.647 145.069 103.723 146.27 101.109C147.474 99.2522 149.199 97.7939 151.227 96.9174C153.255 96.0409 155.496 95.7852 157.668 96.1824C162.019 97.0508 166.057 99.0764 169.359 102.047C189.292 118.137 198.431 144.158 202.971 169.417C207.511 194.675 208.485 220.735 216.61 245.114" fill="#D0C0A1"/>
<path d="M201.993 295.101C197.918 293.891 193.704 293.228 189.459 293.127C182.323 292.582 175.164 293.794 168.588 296.66C165.337 298.148 162.459 300.362 160.168 303.136C157.876 305.91 156.231 309.173 155.354 312.683C153.877 319.767 157.103 327.936 163.593 330.935C170.531 334.152 178.518 331.054 185.767 328.627C208.212 321.128 234.136 320.872 254.308 333.382L258 335L251.412 328.173C251.412 328.173 229.355 305.421 201.993 295.101Z" fill="#D0C0A1"/>
<path d="M148.571 241C154.396 240.61 158.105 234.205 159.348 228.386C160.087 225.468 160.199 222.426 159.678 219.462C157.891 210.909 147.328 205.636 139.328 209.054C131.328 212.471 127.677 223.348 131.561 231.119C133.711 234.959 137.194 237.866 141.344 239.282C145.493 240.699 150.017 240.525 154.047 238.794" fill="#D0C0A1"/>
<path d="M416.243 75.0683C416.9 74.9775 417.566 74.9775 418.223 75.0683C422.024 75.7177 425.905 80.7947 425.905 80.7947C429.587 86.1471 433.19 92.0899 432.992 98.505C432.658 102.702 431.298 106.755 429.033 110.312C427.672 113.055 425.627 115.406 423.093 117.14C421.381 118.132 419.466 118.731 417.491 118.892C415.017 119.16 412.513 118.93 410.131 118.216C407.748 117.502 405.534 116.318 403.622 114.735C401.71 113.151 400.138 111.202 399 109.002C397.862 106.801 397.182 104.396 397 101.929C414.739 99.0363 416.402 82.4083 416.243 75.0683Z" fill="#D0C0A1"/>
<path d="M431.3 64.0299C435.867 63.8175 440.416 64.7498 444.543 66.7442C446.312 67.6373 448.016 68.6552 449.644 69.7906C451.545 70.9273 453.169 72.4821 454.399 74.3405C455.563 76.8367 456.086 79.5908 455.919 82.347C456.16 85.2099 455.86 88.0931 455.034 90.8416C453.76 93.7003 451.825 96.2055 449.394 98.145C447.416 100.118 445.038 101.631 442.426 102.578C441.121 103.028 439.721 103.12 438.369 102.846C437.017 102.572 435.761 101.94 434.726 101.016C434.726 101.016 436.016 86.8579 425.525 78.2071C415.035 69.5562 431.3 64.0299 431.3 64.0299Z" fill="#D0C0A1"/>
<path d="M421.261 50.1142C427.852 43.9288 436.678 37.902 441.129 39.1708C447.489 41.0145 451.805 47.2395 453.906 53.6827C454.861 56.2031 455.198 58.9264 454.889 61.6127C454.484 64.2494 452.865 68.9876 450.533 67.8179C448.202 66.6482 436.774 58.5993 428.218 62.8022C419.661 67.0051 418.698 66.2914 418.698 66.2914L416.135 62.0092C416.135 62.0092 414.69 56.2996 421.261 50.1142Z" fill="#D0C0A1"/>
<path d="M402.504 36.8085C404.948 31.3695 390.746 35.0148 385.468 37.8501C380.754 40.396 376.136 44.5235 376 49.8662C376.038 52.1043 376.617 54.3005 377.688 56.2696C382.209 65.3348 392.725 71.5646 402.736 69.6552C402.736 69.6552 411.681 70.8124 411.991 66.222C412.302 61.6316 404.23 59.1242 403.26 56.5782C402.29 54.0323 397.556 47.8989 402.504 36.8085Z" fill="#D0C0A1"/>
<path d="M380.097 61.0976C375.313 55.2614 371.59 74.2537 373.519 81.633C375.064 86.4311 377.649 90.8075 381.08 94.433C383.819 97.5983 387.156 100.783 391.265 100.962C392.915 101.107 394.576 100.842 396.106 100.19C399.115 98.7853 410.997 95.0067 413.736 77.2014C416.475 59.3962 397.418 82.2463 380.097 61.0976Z" fill="#D0C0A1"/>
<path d="M414.254 64.0002C415.536 41.8438 434.514 46.2435 435 34.9976C434.522 32.2052 433.158 29.6483 431.115 27.7173C428.839 26.3503 426.186 25.7753 423.559 26.0798C417.11 26.2376 409.962 27.2833 405.805 32.2157C403.177 35.5682 401.832 39.7726 402.017 44.0535C402.535 48.8463 403.604 53.561 405.202 58.1011C406.2 59.6924 407.526 61.0444 409.089 62.0631C410.652 63.0817 412.415 63.7428 414.254 64.0002Z" fill="#D0C0A1"/>
<path d="M402.664 62.8054C400.748 67.9003 403.201 73.7835 407.187 77.4364C408.838 78.9976 410.789 80.2051 412.921 80.9852C415.053 81.7653 417.321 82.1016 419.586 81.9738C421.849 81.8033 424.023 81.0216 425.879 79.7117C427.735 78.4017 429.202 76.6123 430.127 74.5333C430.878 72.4982 431.15 70.3161 430.921 68.1579C430.692 65.9998 429.967 63.9243 428.804 62.0941C425.182 56.2301 422.442 52.9425 412.955 54.3075C403.469 55.6726 402.664 62.8054 402.664 62.8054Z" fill="#DCD5C7"/>
<path d="M402.664 62.8054C400.748 67.9003 403.201 73.7835 407.187 77.4364C408.838 78.9976 410.789 80.2051 412.921 80.9852C415.053 81.7653 417.321 82.1016 419.586 81.9738C421.849 81.8033 424.023 81.0216 425.879 79.7117C427.735 78.4017 429.202 76.6123 430.127 74.5333C430.878 72.4982 431.15 70.3161 430.921 68.1579C430.692 65.9998 429.967 63.9243 428.804 62.0941C425.182 56.2301 422.442 52.9425 412.955 54.3075C403.469 55.6726 402.664 62.8054 402.664 62.8054Z" stroke="#FAF2E1" stroke-miterlimit="10"/>
<path d="M363 450C341.353 470.698 327.633 498.479 324.267 528.431C324.206 530.299 323.764 532.135 322.969 533.823C320.335 538.391 312.996 537.744 309.529 533.725C306.062 529.705 305.423 524.097 305.171 518.823C304.358 502.902 306.101 485.098 317.798 474.451C322.361 470.688 327.444 467.623 332.885 465.353L360.734 452.039" fill="#DCD5C7"/>
<path d="M287 496.221C279.942 506.999 278.332 520.481 278.778 533.365C279.224 546.248 281.493 559.015 281.377 571.898C281.547 574.375 281.002 576.848 279.806 579.025C276.878 583.313 269.819 582.657 266.077 579.025C262.334 575.394 261.016 570.025 259.93 564.945C256.963 551.134 254.287 536.764 257.37 522.973C260.453 509.182 270.75 495.932 284.789 494" fill="#DCD5C7"/>
<path d="M334.99 405.599C335.164 414.866 332.985 424.027 328.656 432.231C324.327 440.435 317.988 447.416 310.227 452.527C305.709 455.445 299.523 457.589 295.199 454.459C290.564 451.059 291.32 443.505 295.199 439.119C299.077 434.734 304.526 432.531 309.587 429.768C320.139 424.009 328.869 415.431 334.796 405" fill="#DCD5C7"/>
<path d="M316 366C316 366 288.565 345.735 305.381 311.998C322.198 278.261 313.509 260.195 296.461 273.277C279.413 286.359 263.138 347.02 316 366Z" fill="#D0C0A1"/>
<path d="M227.219 289C245.634 206.788 326.915 217.113 333.735 203.164C340.556 189.216 213.266 167.007 227.044 288.981L227.219 289Z" fill="#D0C0A1"/>
<path d="M475 48.54C474.992 45.8699 475.748 43.2575 477.17 41.0331C478.592 38.8087 480.617 37.0722 482.99 36.0431C485.362 35.0141 487.975 34.7388 490.499 35.252C493.022 35.7651 495.342 37.0438 497.165 38.9262C498.989 40.8087 500.234 43.2103 500.743 45.8275C501.252 48.4447 501.002 51.1599 500.025 53.6297C499.048 56.0995 497.388 58.213 495.254 59.7029C493.121 61.1929 490.609 61.9923 488.038 62.0002C486.331 62.0054 484.64 61.6614 483.061 60.9878C481.481 60.3142 480.045 59.3242 478.835 58.0743C477.624 56.8244 476.662 55.3391 476.004 53.7032C475.346 52.0673 475.005 50.3128 475 48.54Z" fill="#D0C0A1"/>
<path d="M174 45.5002C174 43.2258 174.704 41.0024 176.022 39.1112C177.341 37.22 179.215 35.746 181.408 34.8756C183.601 34.0052 186.013 33.7775 188.341 34.2212C190.669 34.6649 192.807 35.7602 194.485 37.3685C196.164 38.9768 197.306 41.0259 197.769 43.2567C198.232 45.4875 197.995 47.7998 197.087 49.9011C196.178 52.0025 194.64 53.7985 192.667 55.0621C190.693 56.3258 188.373 57.0002 186 57.0002C182.817 57.0002 179.765 55.7886 177.515 53.632C175.264 51.4753 174 48.5502 174 45.5002Z" fill="#DCD5C7"/>
<path d="M80.2496 894.188C63.0073 805.227 87.5297 672.426 133.279 598.442" stroke="#D0C0A1" stroke-width="0.740826" stroke-miterlimit="10"/>
<path d="M91.8596 716.189C89.9438 714.637 90.9017 711.458 92.1661 709.256C104.217 688.035 119.466 668.385 138.605 653.217C157.744 638.048 180.926 627.553 205.256 625.446C211.655 624.891 220.583 627.247 219.97 633.663C219.701 637.033 216.674 639.408 213.743 641.094C204.394 646.341 193.551 647.969 183.09 650.555C145.576 660.106 112.804 682.945 90.8634 714.829" fill="#D0C0A1"/>
<path d="M82.7409 718.2C81.5148 687.71 80.0971 656.339 67.4144 628.53C63.8127 620.563 59.3297 613.036 55.4981 605.165C54.627 603.693 54.1826 602.009 54.2145 600.3C54.6168 596.642 59.0232 594.822 62.7207 595.014C70.269 595.397 76.6678 600.76 81.055 606.984C95.1362 626.768 93.182 653.37 90.634 677.521C88.9609 693.226 87.3005 708.924 85.6529 724.616" fill="#D0C0A1"/>
<path d="M76.9933 759.3C62.2575 734.418 53.1059 706.632 50.172 677.866C49.9613 675.95 49.9421 673.518 51.4939 672.254C54.2335 670.052 57.8927 673.441 59.617 676.487C73.5191 701.061 79.9568 729.153 78.1428 757.327C85.2469 735.946 100.015 717.949 119.601 706.804C128.586 701.729 139.717 698.243 149.066 702.61C149.928 709.122 146.863 715.633 142.418 720.441C137.73 725.019 132.399 728.891 126.594 731.932L76.8209 761.311" fill="#D0C0A1"/>
<path d="M68.5636 817.542C59.049 801.181 51.9874 783.514 47.6046 765.103C46.6996 762.363 46.5801 759.424 47.2598 756.619C48.1602 753.899 51.0914 751.659 53.8693 752.597C55.1398 753.107 56.2464 753.954 57.0687 755.048C64.732 764.165 67.7206 776.384 68.9851 788.258C70.2495 800.132 70.1345 812.217 72.8167 823.843C73.5251 808.583 78.9839 793.926 88.4305 781.919C98.0095 770.217 112.474 762.173 127.628 761.694C129.946 761.694 132.724 761.981 133.797 764.05C134.87 766.118 133.624 768.474 132.245 770.274C126.957 777.131 119.045 781.363 111.765 786.075C97.4973 795.282 84.9296 806.887 74.6175 820.376" fill="#D0C0A1"/>
<path d="M74.8663 878.981C69.8339 876.811 65.446 873.381 62.1262 869.022C57.2087 862.849 53.7528 855.643 52.0176 847.945C50.2823 840.246 50.3127 832.255 52.1065 824.57C54.8078 823.881 56.9152 826.868 58.0455 829.416C62.3919 839.195 65.7733 849.374 68.1418 859.81C69.8661 867.317 71.188 875.266 75.8051 881.452C78.7413 864.115 84.9504 847.496 94.101 832.48C99.6952 823.306 106.86 814.42 116.88 810.532C118.031 809.954 119.294 809.634 120.581 809.594C121.868 809.554 123.148 809.796 124.332 810.302C126.957 811.815 127.704 815.281 127.398 818.269C126.612 825.93 120.961 832.039 115.616 837.536L76.4373 877.909" fill="#D0C0A1"/>
<path d="M175 273C181.627 273 187 267.628 187 261C187 254.373 181.627 249 175 249C168.373 249 163 254.373 163 261C163 267.628 168.373 273 175 273Z" fill="#DCD5C7"/>
<path d="M268.46 751.447C266.11 761.985 266.373 772.938 269.227 783.351C272.081 793.764 277.439 803.322 284.834 811.191C314.506 842.141 368.456 845.135 407.74 836.54C436.462 830.247 463.043 816.76 490.912 807.392C512.518 800.15 535.895 795.321 558.692 798.782C581.49 802.242 606.396 819.19 615.09 832.291" stroke="#D0C0A1" stroke-width="0.622567" stroke-miterlimit="10"/>
<path d="M285.704 810.595C282.597 798.492 287.314 785.439 295.187 775.718C303.06 765.997 313.669 758.963 324.167 752.155C334.664 745.347 345.338 738.426 353.339 728.834C353.052 740.741 348.886 752.229 341.474 761.554C326.501 780.321 300.403 787.821 286.251 807.215" fill="#D0C0A1"/>
<path d="M279.81 806.234C272.163 800.488 262.632 798.041 253.455 795.354C236.84 790.525 219.726 784.007 208.601 770.745C201.05 761.732 196.944 750.417 193 739.36C214.405 742.439 234.089 752.815 248.722 768.733C253.547 774.228 258.042 780.006 262.181 786.035L273.596 801.952" fill="#D0C0A1"/>
<path d="M326.661 836.492C311.109 842.769 294.638 849.158 278.072 846.68C273.126 845.865 268.291 844.482 263.662 842.559C249.717 837.04 237.065 828.694 226.504 818.047C238.241 817.902 250.299 817.806 261.231 822.055C265.369 823.664 269.281 825.853 273.258 827.704C285.291 833.207 298.527 835.56 311.72 834.544C315.454 834.027 319.232 833.908 322.99 834.19" fill="#D0C0A1"/>
<path d="M325.856 832.5C322.749 822.135 326.307 810.998 330.686 801.067C335.178 790.734 340.652 780.578 348.831 772.837C354.74 767.236 361.872 763.067 367.958 757.659C375.621 750.798 381.425 742.112 384.83 732.407C381.748 746.332 377.221 759.898 371.322 772.885C368.754 779.162 365.566 785.169 361.807 790.815C351.616 805.3 334.889 815.391 328.449 831.921" fill="#D0C0A1"/>
<path d="M392.959 703.98C392.202 708.937 386.068 711.625 381.238 710.289C376.408 708.953 372.85 704.849 370.226 700.632C364.172 690.766 361.516 679.274 358.747 668.04C358.151 665.626 357.459 662.938 355.382 661.522C351.593 658.882 348.678 655.172 347.01 650.867L362.852 654.617L392.959 703.98Z" fill="#D0C0A1"/>
<path d="M362.754 661.457C367.101 679.049 377.888 696.045 394.599 703.062C397.816 704.644 401.448 705.178 404.984 704.591C408.445 703.771 411.665 700.664 411.424 697.123C410.989 691.635 382.315 677.955 376.004 664.821C369.693 651.688 366.666 649.258 366.666 649.258L362.754 661.457Z" fill="#D0C0A1"/>
<path d="M372.656 660.959C379.208 675.267 389.673 688.126 404.115 694.403C407.492 696.099 411.258 696.871 415.03 696.641C418.766 696.19 422.469 693.776 423.402 690.122C424.546 685.712 421.309 681.19 417.317 679.001C413.324 676.812 408.671 676.297 404.26 675.17C392.233 672.096 382.863 663.212 375.135 653.507C371.77 649.258 368.872 652.718 372.656 660.959Z" fill="#D0C0A1"/>
<path d="M319.35 563.36C329.439 549.862 339.834 536.583 350.535 523.525C351.079 522.72 351.853 522.097 352.757 521.739C354.608 521.24 356.267 523.074 357.007 524.861C358.561 528.863 358.561 533.301 357.007 537.302C355.389 541.217 353.371 544.955 350.986 548.456C344.079 558.434 336.635 568.03 328.688 577.201" fill="#D0C0A1"/>
<path d="M356.862 538.976C359.598 544.793 359.939 551.451 357.812 557.517C355.662 563.501 352.551 569.095 348.602 574.079C345.769 577.942 342.796 581.697 339.683 585.345C337.426 588.205 334.61 590.576 331.408 592.314C325.692 595.131 322.746 589.498 322.746 589.498L323.551 568.301L356.862 538.976Z" fill="#D0C0A1"/>
<path d="M341.068 595.002C346.478 590.689 349.891 584.218 352.161 577.684C352.702 576.335 352.949 574.887 352.885 573.435C352.828 572.714 352.58 572.021 352.167 571.428C351.754 570.834 351.19 570.36 350.535 570.055C345.206 567.979 325.274 588.097 325.274 588.097C325.274 588.097 324.936 607.862 341.068 595.002Z" fill="#D0C0A1"/>
<path d="M332.488 596.628C330.089 585.876 327.658 575.045 323.037 565.066C322.603 564.132 322.007 563.118 320.993 563.006C319.656 562.845 318.819 564.374 318.384 565.661C315.503 574.143 312.814 582.915 312.766 591.864C312.766 598.028 314.376 599.992 324.277 601.279C334.178 602.567 332.488 596.628 332.488 596.628Z" fill="#D0C0A1"/>
<path d="M375.634 650.61C375.376 652.488 374.742 654.295 373.772 655.923C372.801 657.552 371.513 658.968 369.983 660.089C368.125 661.419 365.951 662.239 363.677 662.467C361.403 662.696 359.109 662.326 357.023 661.393C349.987 658.383 344.562 650.738 338.395 645.089C333.81 640.799 328.382 637.511 322.457 635.432C316.999 633.597 311.46 633.115 306.003 631.296C299.932 629.487 294.761 625.466 291.513 620.029C289.404 617.085 288.064 613.66 287.617 610.067C287.117 603.725 290.836 596.29 309.432 593.972C343.837 589.659 365.781 620.545 372.479 632.793C375.387 638.249 376.492 644.486 375.634 650.61Z" fill="#D0C0A1"/>
<path d="M346.704 618.677C347.992 617.406 385.569 627.819 397.048 605.158C408.528 582.496 345.738 611.161 345.738 611.161" fill="#D0C0A1"/>
<path d="M289.002 607.685L243.697 617.342C253.937 619.176 264.45 618.774 274.85 618.372L288.471 617.841L298.727 618.372L288.857 607.218" fill="#D0C0A1"/>
<path d="M359.052 612.883C382.655 611.725 413.438 604.949 419.765 582.191C421.375 576.3 362.369 587.679 356.203 595.066C350.036 602.454 344.836 613.592 359.052 612.883Z" fill="#D0C0A1"/>
<path d="M358.232 598.06C358.232 598.06 353.192 585.909 359.053 580.565C364.913 575.222 370.081 575.544 370.081 575.544C388.451 572.518 412.488 562.088 424.418 554.91C425.06 554.528 425.789 554.316 426.535 554.293C427.282 554.27 428.022 554.436 428.687 554.777C429.351 555.119 429.918 555.623 430.335 556.243C430.751 556.863 431.003 557.578 431.067 558.322C432.677 576.171 411.538 585.764 397.258 592.459C386.519 597.481 358.232 598.06 358.232 598.06Z" fill="#D0C0A1"/>
<path d="M369.984 660.089C368.126 661.419 365.951 662.239 363.678 662.467C361.404 662.696 359.11 662.326 357.024 661.393C349.988 658.383 344.562 650.738 338.396 645.089C333.811 640.799 328.383 637.511 322.457 635.432C316.999 633.597 311.461 633.114 306.003 631.296C299.932 629.487 294.762 625.466 291.513 620.029C289.404 617.085 288.065 613.66 287.617 610.067L288.809 607.218C298.725 605.303 308.958 605.8 318.642 608.668C328.326 611.537 337.177 616.692 344.45 623.699C348.239 627.562 351.711 631.722 354.834 636.14C359.793 642.948 363.866 650.368 368.632 657.321C369.255 658.149 369.714 659.089 369.984 660.089Z" fill="#D0C0A1"/>
<path d="M304.377 615.153C303.634 614.979 302.934 614.66 302.315 614.214C301.697 613.768 301.173 613.204 300.773 612.555C300.373 611.905 300.106 611.183 299.987 610.431C299.868 609.678 299.899 608.908 300.078 608.168C300.576 606.71 301.618 605.501 302.986 604.794C304.354 604.086 305.942 603.934 307.42 604.369C308.858 604.924 310.034 606.002 310.712 607.387C311.389 608.772 311.519 610.361 311.074 611.837C310.526 613.279 309.467 614.47 308.1 615.185C306.732 615.899 305.15 616.088 303.652 615.716" fill="#FAF2E1"/>
<path d="M363.689 577.266C364.252 576.928 364.542 576.397 365.154 576.654C365.918 577.049 366.562 577.641 367.02 578.368C367.479 579.095 367.735 579.931 367.762 580.79C367.806 582.499 367.517 584.199 366.909 585.796C363.082 597.626 356.613 608.43 347.991 617.39C346.067 619.734 343.481 621.445 340.569 622.299C339.111 622.556 337.609 622.302 336.315 621.581C335.022 620.86 334.017 619.715 333.469 618.34C331.376 613.044 348.507 586.488 363.689 577.266Z" fill="#D0C0A1"/>
<path d="M490.912 700.925C499.429 688.05 518.894 684.074 531.79 692.588C542.641 699.767 547.471 713.19 549.596 726.065C550.598 731.291 550.75 736.645 550.047 741.919C548.437 751.688 542.271 759.993 537.038 768.411C531.806 776.828 527.185 786.598 529.117 796.303" stroke="#D0C0A1" stroke-width="0.622567" stroke-miterlimit="10"/>
<path d="M366.621 842.254C353.943 842.136 341.418 845.026 330.074 850.687C324.633 853.407 319.529 856.739 314.184 859.652C292.063 871.643 266.287 875.827 241.139 874.797C256.176 885.854 276.172 888.88 294.526 885.468C312.88 882.056 329.704 872.705 344.323 861.101C352.646 854.502 360.551 847.034 370.372 843.01" fill="#D0C0A1"/>
<path d="M429.943 831.873C398.387 842.543 380.033 877.887 348.316 888.059C357.638 889.669 367.153 887.544 376.395 885.516C386.054 883.36 396.165 881.09 404.344 875.377C413.521 868.939 419.397 858.96 424.984 849.271L436.254 829.635" fill="#D0C0A1"/>
<path d="M463.06 832.903C458.23 840.95 456.523 850.478 452.788 859.105C447.367 871.551 438.005 881.872 426.143 888.478C443.724 887.158 459.646 876.02 469.435 861.358C479.224 846.696 483.361 829.297 484.376 811.883C476.278 817.886 468.163 824.244 463.06 832.903Z" fill="#DCD5C7"/>
<path d="M375.202 839.566C369.502 837.232 368.053 829.764 368.762 823.648C370.372 808.937 379.339 796.287 387.309 783.765C395.278 771.243 402.861 757.257 401.332 742.53C404.63 750.41 406.678 758.757 407.401 767.268C408.114 773.43 407.567 779.672 405.792 785.616C403.985 790.369 401.612 794.887 398.724 799.071L373.527 838.922" fill="#D0C0A1"/>
<path d="M485.696 807.795C492.154 799.541 495.541 789.3 495.275 778.824C494.712 768.443 489.351 758.142 480.464 752.767C474.168 748.952 466.569 747.713 460.258 743.931C453.756 739.976 449.08 733.612 447.25 726.227C442.527 733.925 440.808 743.093 442.42 751.978C443.273 756.365 445.144 760.49 447.881 764.023C450.618 767.556 454.146 770.399 458.181 772.322C462.255 774.125 466.746 774.833 470.852 776.603C476.705 779.335 481.398 784.056 484.093 789.925C486.788 795.794 487.311 802.43 485.567 808.648" fill="#DCD5C7"/>
<path d="M436.269 826.111C430.232 823.17 425.603 817.963 423.389 811.625C421.259 805.327 420.262 798.701 420.443 792.054C420.333 784.519 420.796 776.986 421.827 769.521C423.244 759.253 425.353 747.504 418.607 739.553C432.646 750.642 443.949 767.107 443.305 784.989C442.822 798.637 435.528 811.899 437.943 825.338" fill="#D0C0A1"/>
<path d="M498.399 805.879C500.427 805.171 502.263 807.392 502.987 809.404C506.61 819.383 501.586 830.215 496.933 839.759C492.281 849.303 487.869 860.682 492.554 870.146C496.95 879.078 509.556 882.78 518.073 877.614" stroke="#D0C0A1" stroke-width="0.622567" stroke-miterlimit="10"/>
<path d="M649.351 825.145C648.892 824.779 648.328 824.57 647.741 824.549C626.634 821.749 606.01 833.788 591.569 849.432C587.914 853.391 584.034 857.85 579.236 859.813L579.558 860.586C582.666 861.809 585.628 863.805 588.751 865.044C597.655 868.697 607.878 866.782 616.958 863.579C625.217 860.65 633.251 856.642 639.498 850.526C645.745 844.41 650.14 836.041 650.011 827.221C650.075 826.469 649.838 825.722 649.351 825.145Z" fill="#D0C0A1"/>
<path d="M546.295 754.602C552.849 743.76 560.652 733.723 569.543 724.697C576.852 717.278 585.24 710.373 595.303 707.669C601.421 706.06 607.861 706.06 614.075 704.772C622.029 703.163 629.451 699.686 636.76 696.177C634.055 718.308 615.54 737.541 593.532 741.098C585.482 742.402 577.335 741.806 569.286 742.707C561.236 743.609 552.848 746.281 547.76 752.59" fill="#D0C0A1"/>
<path d="M494.806 707.569C494.464 707.128 494.188 706.64 493.985 706.12C492.874 703.175 494.838 698.347 494.838 698.347C497.076 693.518 499.781 688.545 504.418 686.002C507.521 684.468 510.955 683.721 514.416 683.829C516.894 683.626 519.384 684.064 521.644 685.101C523.062 685.886 524.279 686.988 525.203 688.319C526.414 689.94 527.288 691.788 527.77 693.752C528.253 695.717 528.336 697.759 528.013 699.756C527.69 701.754 526.968 703.666 525.891 705.378C524.813 707.091 523.402 708.569 521.741 709.726C512.371 698.604 499.974 704.366 494.806 707.569Z" fill="#D0C0A1"/>
<path d="M480.702 701.549C478.601 698.353 477.324 694.688 476.983 690.879C476.862 689.234 476.862 687.582 476.983 685.938C476.987 684.094 477.399 682.275 478.191 680.61C479.472 678.727 481.204 677.194 483.23 676.152C485.169 674.776 487.356 673.787 489.67 673.239C492.24 672.945 494.842 673.282 497.253 674.221C499.5 674.84 501.587 675.938 503.371 677.439C504.252 678.193 504.917 679.166 505.299 680.26C505.681 681.355 505.765 682.531 505.544 683.668C505.544 683.668 494.95 688.674 493.276 699.86C491.602 711.045 480.702 701.549 480.702 701.549Z" fill="#D0C0A1"/>
<path d="M475.035 714.667C467.903 712.494 459.901 708.583 458.935 704.913C457.519 699.57 460.046 693.905 463.653 689.72C464.998 688.01 466.739 686.652 468.724 685.761C470.753 684.956 474.745 684.151 474.922 686.324C475.132 688.738 474.327 700.037 480.912 704.447C487.496 708.857 487.352 709.838 487.352 709.838L485.484 713.444C485.484 713.444 482.167 716.856 475.035 714.667Z" fill="#D0C0A1"/>
<path d="M472.75 722.138C467.807 722.702 476.437 731.296 480.703 733.855C484.519 736.141 489.43 737.686 493.326 735.465C494.92 734.491 496.252 733.143 497.206 731.538C501.826 724.472 501.859 714.3 496.256 707.975C496.256 707.975 493.31 701.103 489.816 702.825C486.322 704.547 487.997 711.371 486.596 713.174C485.195 714.976 482.78 721.012 472.75 722.138Z" fill="#D0C0A1"/>
<path d="M500.264 739.05C498.22 744.893 513.144 739.694 517.443 735.268C520.165 732.18 522.137 728.507 523.207 724.533C524.269 721.314 525.074 717.548 523.464 714.522C522.854 713.263 521.962 712.161 520.856 711.303C518.602 709.693 510.89 702.757 497.254 708.18C483.617 713.604 507.735 717.853 500.264 739.05Z" fill="#D0C0A1"/>
<path d="M487.287 713.637C471.187 721.925 466.357 706.539 458.179 710.884C456.409 712.377 455.186 714.415 454.701 716.678C454.696 718.871 455.415 721.004 456.746 722.746C459.563 727.269 463.282 731.888 468.531 732.854C472.014 733.342 475.557 732.547 478.497 730.617C481.635 728.269 484.492 725.569 487.014 722.569C487.705 721.189 488.087 719.675 488.134 718.133C488.181 716.59 487.893 715.056 487.287 713.637Z" fill="#D0C0A1"/>
<path d="M491.682 722.972C496.142 722.135 499.362 717.902 500.296 713.476C500.715 711.617 500.752 709.692 500.403 707.819C500.054 705.946 499.328 704.163 498.267 702.58C497.173 701.016 495.677 699.777 493.937 698.993C492.198 698.208 490.278 697.907 488.382 698.121C486.596 698.45 484.91 699.185 483.456 700.271C482.001 701.357 480.816 702.764 479.994 704.382C477.321 709.5 476.114 712.88 481.169 719.157C486.225 725.434 491.682 722.972 491.682 722.972Z" fill="#D0C0A1"/>
<path d="M491.682 722.972C496.142 722.135 499.362 717.902 500.296 713.476C500.715 711.617 500.752 709.692 500.403 707.819C500.054 705.946 499.328 704.163 498.267 702.58C497.173 701.016 495.677 699.777 493.937 698.993C492.198 698.208 490.278 697.907 488.382 698.121C486.596 698.45 484.91 699.185 483.456 700.271C482.001 701.357 480.816 702.764 479.994 704.382C477.321 709.5 476.114 712.88 481.169 719.157C486.225 725.434 491.682 722.972 491.682 722.972Z" stroke="#FAF2E1" stroke-width="0.622567" stroke-miterlimit="10"/>
<path d="M547.648 849.995C548.041 849.592 548.491 849.251 548.985 848.981C551.722 847.484 556.777 848.772 556.777 848.772C561.849 850.382 567.162 852.313 570.333 856.562C572.283 859.443 573.494 862.759 573.859 866.219C574.4 868.648 574.306 871.176 573.585 873.558C573.004 875.062 572.09 876.415 570.913 877.517C569.473 878.939 567.761 880.057 565.88 880.804C563.999 881.551 561.987 881.912 559.964 881.866C557.94 881.819 555.947 881.366 554.102 880.533C552.257 879.7 550.599 878.505 549.226 877.018C558.918 866.235 551.529 854.824 547.648 849.995Z" fill="#D0C0A1"/>
<path d="M551.673 835.269C554.558 832.762 558.013 830.999 561.736 830.134C563.353 829.783 564.994 829.552 566.646 829.442C568.472 829.191 570.331 829.35 572.088 829.909C574.126 830.923 575.879 832.427 577.191 834.287C578.821 836.009 580.1 838.032 580.959 840.242C581.902 845.063 581.109 850.063 578.721 854.357C578.099 855.334 577.229 856.129 576.199 856.661C575.17 857.192 574.018 857.441 572.861 857.383C572.861 857.383 566.421 847.565 555.151 847.436C543.881 847.307 551.673 835.269 551.673 835.269Z" fill="#D0C0A1"/>
<path d="M537.908 831.454C539.099 824.099 541.868 815.649 545.378 814.168C550.466 812.044 556.439 813.782 561.075 816.776C562.958 817.875 564.544 819.416 565.696 821.266C566.759 823.149 568.095 826.996 565.97 827.479C563.844 827.962 552.317 828.75 548.839 835.88C545.362 843.01 544.38 843.042 544.38 843.042L540.564 841.69C540.564 841.69 536.732 838.809 537.908 831.454Z" fill="#D0C0A1"/>
<path d="M518.619 832.146C517.395 827.318 510.054 836.975 508.106 841.61C506.367 845.698 505.497 850.784 508.186 854.341C509.374 855.782 510.893 856.914 512.614 857.64C520.245 861.246 530.323 859.894 535.83 853.472C535.83 853.472 542.27 849.625 540.064 846.454C537.858 843.284 531.338 845.827 529.357 844.62C527.377 843.413 521.114 841.948 518.619 832.146Z" fill="#D0C0A1"/>
<path d="M517.203 859.781C511.117 858.541 518.314 872.576 523.304 876.278C526.737 878.541 530.641 879.989 534.719 880.511C538.1 881.106 541.9 881.412 544.685 879.384C545.827 878.606 546.774 877.577 547.454 876.375C548.71 873.928 554.554 865.35 547.325 852.586C540.097 839.823 539.227 864.271 517.203 859.781Z" fill="#D0C0A1"/>
<path d="M540.579 843.461C530.163 828.654 544.733 821.717 539.323 814.249C537.596 812.712 535.414 811.78 533.109 811.593C530.939 811.895 528.927 812.895 527.377 814.442C523.272 817.854 519.199 822.184 518.957 827.511C518.953 831.028 520.229 834.426 522.547 837.071C525.315 839.863 528.4 842.321 531.74 844.394C533.194 844.885 534.736 845.055 536.262 844.894C537.787 844.733 539.26 844.244 540.579 843.461Z" fill="#D0C0A1"/>
<path d="M531.949 849.078C533.398 853.375 538.019 855.999 542.543 856.304C544.441 856.472 546.353 856.249 548.162 855.648C549.97 855.047 551.636 854.082 553.056 852.812C554.455 851.514 555.479 849.864 556.02 848.035C556.562 846.205 556.6 844.264 556.131 842.415C555.561 840.69 554.601 839.12 553.325 837.828C552.048 836.535 550.491 835.555 548.773 834.963C543.348 833.015 539.822 832.275 534.284 838.182C528.745 844.088 531.949 849.078 531.949 849.078Z" fill="#D0C0A1"/>
<path d="M531.949 849.078C533.398 853.375 538.019 855.999 542.543 856.304C544.441 856.472 546.353 856.249 548.162 855.648C549.97 855.047 551.636 854.082 553.056 852.812C554.455 851.514 555.479 849.864 556.02 848.035C556.562 846.205 556.6 844.264 556.131 842.415C555.561 840.69 554.601 839.12 553.325 837.828C552.048 836.535 550.491 835.555 548.773 834.963C543.348 833.015 539.822 832.275 534.284 838.182C528.745 844.088 531.949 849.078 531.949 849.078Z" stroke="#FAF2E1" stroke-width="0.622567" stroke-miterlimit="10"/>
<path d="M270.086 756.646C259.557 755.728 250.219 749.821 241.477 743.882C228.597 735.095 215.395 725.229 208.923 711.001C208.587 710.458 208.371 709.85 208.291 709.217C208.21 708.584 208.267 707.941 208.456 707.331C209.422 705.271 212.465 705.722 214.558 706.591C219.442 708.672 223.985 711.478 228.034 714.912C223.815 709.069 219.146 702.889 212.288 700.684C211.218 700.436 210.185 700.052 209.213 699.541C206.428 697.851 206.106 693.522 208.134 690.963C209.234 689.753 210.64 688.86 212.203 688.379C213.767 687.897 215.431 687.845 217.021 688.227C220.189 689.053 223.1 690.658 225.49 692.894C227.969 695.019 230.223 697.401 232.88 699.332C232.262 696.158 230.821 693.202 228.702 690.759C226.583 688.316 223.86 686.472 220.805 685.41C218.499 684.907 216.276 684.077 214.204 682.948C213.374 682.304 212.685 681.497 212.179 680.577C211.673 679.657 211.362 678.643 211.263 677.597C211.165 676.552 211.283 675.498 211.609 674.499C211.934 673.501 212.461 672.58 213.157 671.794C213.782 671.094 214.609 670.605 215.524 670.394C216.498 670.264 217.488 670.381 218.406 670.732C228.79 673.951 236.116 682.883 242.862 691.413C240.221 681.894 234.339 673.594 226.23 667.947C224.391 666.872 222.721 665.533 221.272 663.972C220.563 663.175 220.102 662.189 219.944 661.134C219.787 660.079 219.941 659.002 220.386 658.033C222.141 654.975 226.826 655.683 229.853 657.437C238.466 662.378 243.377 671.762 247.836 680.646C247.598 675.308 246.291 670.073 243.993 665.249C241.695 660.425 238.452 656.11 234.457 652.561C232.397 650.742 229.885 648.585 230.304 645.865C230.54 644.869 231.086 643.973 231.865 643.308C232.643 642.642 233.613 642.242 234.635 642.163C236.694 642.066 238.731 642.63 240.447 643.773C245.36 646.851 249.174 651.403 251.346 656.778C253.481 662.12 255.052 667.67 256.031 673.339C257.302 663.911 255.393 654.329 250.606 646.107C249.35 643.966 247.853 641.536 248.658 639.186C249.672 636.224 254.003 635.645 256.611 637.399C259.219 639.154 260.426 642.324 261.312 645.334C263.305 652.169 264.387 659.236 264.532 666.354C269.217 657.276 264.741 646.3 265.369 636.096C275.721 635.758 287.233 635.951 294.816 643.016C291.479 650.764 289.376 658.986 288.585 667.384C290.754 661.239 293.778 655.431 297.569 650.13C298.832 647.972 300.799 646.313 303.139 645.431C305.538 644.819 308.597 646.445 308.485 648.923C308.219 650.365 307.483 651.678 306.392 652.657C300.868 659.126 297.741 667.299 297.537 675.802C299.984 671.907 302.436 668.012 304.894 664.117C306.971 660.817 309.29 657.309 312.944 655.828C316.599 654.347 321.735 656.198 322.105 660.093C314.965 665.416 309.034 672.191 304.701 679.97C307.729 676.03 311.574 672.791 315.971 670.474C318.194 669.326 320.636 668.664 323.134 668.533C325.633 668.403 328.131 668.807 330.461 669.718C331.878 670.345 333.375 671.73 332.828 673.178C332.458 673.899 331.849 674.468 331.105 674.788C324.802 678.385 318.977 682.759 313.765 687.808C316.283 684.859 319.408 682.487 322.926 680.855C326.532 679.455 330.976 679.713 333.777 682.465C336.579 685.217 336.82 688.903 337.158 692.411C329.728 693.438 322.732 696.515 316.953 701.296C320.297 699.004 324.182 697.628 328.223 697.304C331.073 697.079 334.518 697.771 335.597 700.427C336.675 703.082 334.695 705.947 332.232 707.235C329.769 708.522 326.887 708.683 324.182 709.359C321.477 710.035 318.676 711.516 317.742 714.188C321.309 712.958 325.034 712.248 328.803 712.079C329.576 711.957 330.369 712.11 331.04 712.514C332.248 713.447 331.765 715.33 331.153 716.714C324.858 730.942 315.15 744.22 301.481 751.672C287.812 759.124 269.829 759.72 257.271 750.546" fill="#D0C0A1"/>
<path d="M268.943 755.728C260.076 754.973 251.636 751.595 244.697 746.025C237.758 740.456 232.635 732.947 229.981 724.456C227.599 716.312 227.438 707.138 222.173 700.475C224.114 698.772 226.48 697.628 229.02 697.163C231.56 696.699 234.179 696.931 236.597 697.836C239.016 698.741 241.143 700.284 242.754 702.302C244.364 704.32 245.397 706.737 245.743 709.295C245.228 701.73 239.722 695.534 234.28 690.255C232.767 688.774 231.06 686.794 231.817 684.799C232.573 682.803 235.632 682.368 237.822 683.06C245.453 685.491 249.269 693.892 251.458 701.585C250.584 697.252 249.065 693.075 246.951 689.192C244.552 684.782 241.332 680.55 240.881 675.544C240.792 675.065 240.853 674.57 241.058 674.128C241.541 673.323 242.668 673.275 243.602 673.436C248.657 674.289 252.698 678.264 254.872 682.964C256.844 687.704 258.04 692.731 258.414 697.851C258.135 691.267 256.887 684.759 254.711 678.538C253.985 676.857 253.581 675.056 253.519 673.226C253.516 672.311 253.805 671.418 254.343 670.677C254.882 669.937 255.642 669.386 256.514 669.106C259.412 668.511 261.344 671.939 262.197 674.788C264.047 681.154 265.176 687.708 265.562 694.327C264.095 685.484 265.673 676.405 270.038 668.575C270.852 666.869 272.115 665.417 273.692 664.374C274.493 663.879 275.433 663.656 276.37 663.74C277.308 663.824 278.193 664.211 278.893 664.841C279.669 665.879 280.103 667.134 280.132 668.43C281.328 678.653 280.469 689.011 277.605 698.898C278.426 689.917 279.746 680.34 285.655 673.5C286.589 672.261 287.882 671.34 289.358 670.86C290.099 670.643 290.893 670.698 291.597 671.017C292.3 671.336 292.865 671.898 293.189 672.599C293.446 673.886 293.198 675.223 292.497 676.333C288.761 684.299 286.056 692.71 284.447 701.36C286.148 693.801 289.737 686.797 294.88 681C297.488 678.039 301.819 675.287 305.119 677.443C305.581 677.74 305.967 678.141 306.246 678.613C306.526 679.085 306.691 679.616 306.729 680.163C306.622 680.934 306.36 681.675 305.959 682.341C305.558 683.008 305.026 683.587 304.395 684.042C298.775 689.498 294.135 695.878 290.678 702.905C292.996 698.077 295.508 693.152 299.661 689.901C303.815 686.649 310.4 685.732 314.361 689.289C315.81 690.593 316.776 692.91 315.6 694.472C314.929 695.224 314.067 695.78 313.105 696.081C306.158 698.96 300.357 704.052 296.602 710.566C298.086 707.669 299.997 705.011 302.27 702.68C303.42 701.522 304.802 700.619 306.325 700.031C307.848 699.443 309.478 699.183 311.108 699.268C315.938 699.767 319.352 704.096 322.201 707.975C317.919 709.585 315.906 714.413 314.264 718.63C311.527 726.347 307.792 733.673 303.155 740.422C298.462 747.15 291.796 752.256 284.077 755.036C277.329 757.098 270.12 757.098 263.372 755.036" fill="#DCD5C7"/>
<path d="M272.501 756.163C278.458 755.921 283.288 751.334 287.087 746.812C289.842 743.502 292.38 740.018 294.687 736.382C296.49 733.533 298.229 730.218 297.424 726.935C293.006 729.805 289.076 733.364 285.783 737.477C289.166 734.413 292.201 730.985 294.831 727.256C296.662 724.973 297.891 722.267 298.406 719.386C297.214 718.855 295.91 719.772 294.944 720.658C291.066 724.211 287.545 728.136 284.431 732.375C287.506 729.268 290.436 725.937 293.205 722.621C294.433 721.35 295.28 719.761 295.653 718.034C295.703 717.789 295.669 717.533 295.556 717.31C295.468 717.187 295.352 717.087 295.218 717.017C295.083 716.947 294.934 716.909 294.783 716.907C294.107 716.937 293.446 717.114 292.845 717.425C292.245 717.736 291.719 718.175 291.306 718.71L279.408 730.218C283.054 725.029 286.207 719.512 288.826 713.737C289.519 712.127 290.162 710.309 289.261 708.908C285.284 713.689 281.845 718.892 279.005 724.424C280.744 718.372 284.238 712.691 284.238 706.398C284.238 705.416 283.739 704.08 282.789 704.289C282.432 704.411 282.122 704.642 281.903 704.949C277.858 709.754 275.015 715.453 273.612 721.575C273.886 718.356 274.868 715.137 275.431 711.918C276.187 708.701 275.934 705.33 274.707 702.261C273.789 702.358 273.258 703.323 272.903 704.177C270.298 710.528 269.037 717.351 269.2 724.215C268.93 717.995 268.171 711.806 266.93 705.706C266.673 704.466 265.932 702.889 264.693 703.13C264.374 703.231 264.083 703.404 263.843 703.635C263.603 703.867 263.42 704.152 263.308 704.466C262.441 706.663 262.12 709.039 262.374 711.387C262.588 716.046 263.208 720.677 264.226 725.229C262.962 719.926 261.205 714.753 258.977 709.778C258.51 708.796 257.818 707.733 256.739 707.653C256.475 710.83 256.802 714.028 257.705 717.085C258.671 721.173 259.702 725.245 260.796 729.3L253.213 714.815C252.441 713.351 251.281 711.596 249.639 711.854C250.501 719.583 252.497 727.143 255.564 734.29L247.144 720.963C246.725 720.303 245.968 719.563 245.308 719.982C245.048 720.191 244.876 720.489 244.825 720.819C244.516 722.867 244.778 724.961 245.582 726.87C251.732 752.268 265.401 755.841 265.401 755.841C267.671 756.711 270.162 756.824 272.501 756.163Z" fill="#D0C0A1"/>
<path d="M266.803 753.217C264.354 752.154 262.184 750.539 260.464 748.497C258.743 746.456 257.519 744.045 256.885 741.452C256.34 738.842 256.619 736.128 257.683 733.683C258.747 731.238 260.544 729.184 262.826 727.804C264.91 726.744 267.238 726.255 269.572 726.388C271.578 726.427 273.541 726.982 275.271 727.997C276.855 729.058 278.149 730.496 279.037 732.182C279.925 733.868 280.379 735.749 280.359 737.654C280.254 741.507 279.072 745.254 276.946 748.47C275.837 750.558 274.163 752.292 272.116 753.475" fill="#DCD5C7"/>
<path d="M387.79 737.103C392.12 737.103 395.63 733.594 395.63 729.265C395.63 724.936 392.12 721.427 387.79 721.427C383.46 721.427 379.949 724.936 379.949 729.265C379.949 733.594 383.46 737.103 387.79 737.103Z" fill="#D0C0A1"/>
<path d="M416.481 737.811C421.202 737.811 425.03 733.985 425.03 729.265C425.03 724.545 421.202 720.718 416.481 720.718C411.759 720.718 407.932 724.545 407.932 729.265C407.932 733.985 411.759 737.811 416.481 737.811Z" fill="#DCD5C7"/>
<path d="M429.231 713.621C433.33 713.621 436.653 710.299 436.653 706.201C436.653 702.103 433.33 698.781 429.231 698.781C425.132 698.781 421.809 702.103 421.809 706.201C421.809 710.299 425.132 713.621 429.231 713.621Z" fill="#D0C0A1"/>
<path d="M387.501 552.11C393.885 552.11 399.061 546.936 399.061 540.553C399.061 534.171 393.885 528.997 387.501 528.997C381.117 528.997 375.941 534.171 375.941 540.553C375.941 546.936 381.117 552.11 387.501 552.11Z" fill="#DCD5C7"/>
<path d="M599.518 787.273C606.293 784.484 609.523 776.733 606.734 769.961C603.944 763.188 596.19 759.958 589.416 762.747C582.641 765.536 579.41 773.287 582.2 780.06C584.989 786.832 592.743 790.062 599.518 787.273Z" fill="#D0C0A1"/>
<path d="M141.914 899.591C135.738 884.525 135.371 867.703 140.885 852.382C146.399 837.061 157.401 824.329 171.763 816.649C176.292 813.923 181.502 812.539 186.787 812.659C192.028 813.097 197.314 816.43 198.63 821.429C200.319 828.006 195.274 834.255 190.076 838.552C179.856 846.993 167.662 852.803 157.464 861.288C147.266 869.773 138.888 882.424 140.576 895.579C140.818 897.311 142.309 899.525 143.757 898.56" fill="#D0C0A1"/>
<path d="M158.963 779.153C157.625 779.065 156.29 779.369 155.122 780.027C153.954 780.685 153.002 781.669 152.383 782.858C151.199 785.232 150.498 787.818 150.322 790.466C149.905 793.513 149.576 797.043 151.462 799.411C152.705 800.857 154.396 801.845 156.265 802.218C161.99 803.621 167.977 801.582 173.372 799.214C175.259 798.547 176.943 797.407 178.263 795.903C179.221 794.51 179.733 792.858 179.732 791.167C179.731 787.857 178.785 784.616 177.006 781.823C175.227 779.031 172.688 776.804 169.688 775.403C168.063 774.561 166.274 774.082 164.446 774C162.072 774.054 159.807 775.013 158.116 776.679C156.424 778.346 155.433 780.595 155.344 782.968" fill="#D0C0A1"/>
<path d="M562.213 111.846C565.786 104.58 567.904 96.6843 568.448 88.6049C569.213 81.4701 570.189 75.5176 574.66 70.669C577.349 68.0114 580.392 65.7381 583.704 63.9137L581.369 64.9729C583.249 63.9836 584.904 63.1395 586.586 62.1719C582.03 64.0709 577.353 65.6634 572.584 66.9389C566.103 68.472 560.083 65.9571 553.113 64.1287C544.533 61.2727 535.31 60.9636 526.559 63.2387C523.788 63.984 524.796 62.7287 528.129 60.3348C529.79 59.1688 531.993 57.642 534.677 56.1027C537.361 54.5634 540.499 52.9543 543.792 51.2881C545.448 50.444 547.121 49.5779 548.882 48.7824L554.284 46.5639C557.88 45.1055 561.438 43.6514 564.822 42.4573C570.202 40.6133 575.73 39.2352 581.346 38.3384C584.914 38.1424 588.492 38.3986 591.996 39.101C595.668 39.7524 599.266 40.7719 602.735 42.144C607.771 44.0871 612.638 46.4434 617.286 49.189C617.286 49.189 617.578 49.0969 618.116 48.8772L620.525 48.1314C622.608 47.5217 625.564 46.6356 629.121 45.5432C632.677 44.4508 636.913 43.505 641.435 42.4274C643.69 41.9195 645.989 41.266 648.451 40.8158L655.752 39.6148L663.163 38.3213L670.318 37.6185C674.954 37.2114 679.291 36.6363 683.03 36.6688L695.486 36.3098L695.313 42.4355L683.088 42.1466C679.41 41.9466 675.149 42.2925 670.566 42.4527C668.268 42.5636 665.891 42.6832 663.469 42.7675L656.208 43.6025L648.903 44.4022C646.53 44.7423 644.192 45.2193 641.924 45.6081C637.398 46.4652 633.127 47.0934 629.58 48.0843L620.72 50.2796C618.624 50.7701 617.411 51.2445 617.411 51.2445C616.282 53.9595 613.727 59.8035 610.754 65.6733C608.198 71.4723 604.842 76.8841 600.783 81.7507C597.479 85.0494 593.94 88.1023 590.192 90.8851C587.961 92.7162 585.528 94.7102 583.134 96.6998L579.531 99.5651L576.059 102.536C573.851 104.385 571.643 106.234 569.735 107.708C567.828 109.183 566.202 110.666 564.9 111.613C562.378 113.536 561.098 113.957 562.213 111.846Z" fill="#DCD5C7"/>
<path d="M564.383 71.2913C564.383 71.2913 562.481 72.4438 559.606 74.4458C556.732 76.4479 552.675 79.0214 548.4 82.0003C544.126 84.9792 539.504 88.0766 535.362 90.9807C531.86 93.5207 528.126 95.7252 524.211 97.565C518.331 100.378 512.317 99.3893 505.173 98.7249C501.353 98.3665 497.506 98.3838 493.689 98.7768C488.903 99.2567 484.24 100.576 479.913 102.675C477.454 103.889 478.184 102.483 480.756 99.7305C484.939 95.7105 489.323 91.9051 493.891 88.3289C505.235 79.6544 520.007 70.7253 526.718 68.725C530.604 67.5831 534.632 67 538.682 66.9935C542.833 67.0197 546.974 67.3997 551.06 68.1295C554.866 68.7575 558.168 69.5611 560.504 70.1692C562.841 70.7772 564.383 71.2913 564.383 71.2913Z" fill="#DCD5C7"/>
<path d="M525.978 146.026C527.259 141.994 528.01 137.813 528.213 133.587C528.302 129.961 528.167 126.333 527.807 122.724C527.355 116.024 526.883 110.069 530.218 104.561C532.698 101.15 535.532 98.0116 538.675 95.1985C542.533 91.7115 546.589 88.4505 550.824 85.4316C554.957 82.448 559.075 80.0687 561.967 78.2255C563.544 77.2144 565.172 76.2852 566.845 75.4416L566.16 79.2731C565.759 81.6673 565.18 85.0051 564.314 88.6555C563.448 92.3059 562.573 96.0577 561.495 99.7916C560.607 103.254 559.262 106.583 557.497 109.691C554.326 114.678 545.148 125.526 537.663 134.401C534.003 138.96 530.786 142.968 528.56 145.201C526.333 147.433 525.3 148.269 525.978 146.026Z" fill="#DCD5C7"/>
<path d="M520.355 103.994L516.246 107.939C513.676 110.33 510.446 113.858 506.7 117.442C499.345 124.755 491.044 133.338 485.662 137.02C480.279 140.703 474.211 140.685 467.158 141.216C458.515 141.44 450.11 144.093 442.906 148.872C440.68 150.381 441.163 148.922 443.44 145.68C444.66 144.16 446.057 142.059 447.917 139.786C449.778 137.513 452.088 135.131 454.5 132.577C456.913 130.023 459.431 127.337 462.086 124.796C464.741 122.256 467.51 119.843 470.098 117.611C472.425 115.52 474.875 113.568 477.433 111.766C479.265 110.421 481.176 109.185 483.155 108.066C484.884 107.183 486.685 106.448 488.539 105.87C490.532 105.272 492.56 104.795 494.61 104.442C498.621 103.77 502.675 103.394 506.741 103.315C509.981 103.198 513.226 103.252 516.461 103.476C518.886 103.794 520.355 103.994 520.355 103.994Z" fill="#DCD5C7"/>
<path d="M494.999 184.712C496.062 176.866 495.489 168.886 493.317 161.272C491.749 154.654 490.198 148.737 492.84 142.783C495.483 136.829 502.652 127.627 509.857 120.229C513.479 116.619 516.806 113.241 519.434 111.005L523.828 107.29L523.892 111.18C523.919 113.628 523.852 116.869 523.798 120.592C523.743 124.314 523.547 128.393 523.104 132.238C522.872 134.152 522.551 135.995 522.248 137.816C521.941 139.516 521.485 141.186 520.886 142.807C520.184 144.611 519.348 146.361 518.386 148.042C517.222 150.078 515.917 152.47 514.511 155.035C513.104 157.6 511.508 160.265 509.907 162.891C508.306 165.517 506.846 168.329 505.36 170.902C503.874 173.475 502.441 175.802 501.106 177.917C499.77 180.031 498.748 181.891 497.851 183.235C495.667 186.226 494.612 187.044 494.999 184.712Z" fill="#DCD5C7"/>
<path d="M483.913 142.535C483.571 142.911 483.252 143.308 482.959 143.724C482.34 144.495 481.549 145.706 480.536 147.103C478.476 149.94 475.625 153.807 472.457 157.891C469.288 161.974 466.202 166.631 463.02 170.595C460.489 174.083 457.7 177.377 454.677 180.448C449.787 184.779 443.704 185.546 436.901 187.074C433.152 187.763 429.473 188.784 425.905 190.126C421.498 191.867 417.439 194.387 413.923 197.564C409.895 201.139 414.974 191.383 423.139 180.083C431.303 168.784 442.389 156.1 447.944 152.157C451.18 149.866 454.742 148.074 458.511 146.842C462.42 145.577 466.414 144.596 470.464 143.906C474.214 143.295 477.623 142.882 480.032 142.678C482.44 142.475 483.913 142.535 483.913 142.535Z" fill="#DCD5C7"/>
<path d="M470.084 226.491C470.221 222.195 469.798 217.899 468.825 213.712C467.902 210.154 466.734 206.664 465.332 203.267C462.802 196.854 460.689 191.32 462.344 185.153C463.556 181.094 465.27 177.201 467.444 173.566C469.965 169.252 472.932 164.609 475.823 160.375C478.714 156.141 481.838 152.565 483.991 149.838C485.069 148.495 485.953 147.394 486.554 146.645C487.155 145.896 487.508 145.456 487.508 145.456L488.234 149.334C488.658 151.738 489.204 155.073 489.688 158.757C490.171 162.44 490.531 166.459 490.595 170.349C490.905 174.025 490.757 177.726 490.154 181.365C488.706 187.229 482.964 200.653 478.395 211.76C473.825 222.867 469.983 231.263 470.084 226.491Z" fill="#DCD5C7"/>
<path d="M452.657 187.479C452.657 187.479 451.538 189.369 449.914 192.52C448.29 195.671 446.034 199.835 443.473 204.334C439.199 212.895 434.239 221.097 428.641 228.858C420.06 238.737 405.132 235.047 390.389 251.024C388.621 253.227 388.734 251.507 390.028 247.91C392.264 242.66 394.773 237.53 397.546 232.543C399.099 229.48 400.966 226.343 402.898 223.259C404.83 220.175 406.727 217.135 408.571 214.342C411.507 209.893 414.851 205.727 418.559 201.898C423.648 196.821 432.461 193.105 439.72 190.783C443.369 189.62 446.634 188.801 449.004 188.24C451.373 187.68 452.657 187.479 452.657 187.479Z" fill="#DCD5C7"/>
<path d="M437.136 232.709C437.799 226.288 442.677 215.429 447.358 206.439C449.817 201.931 452.201 197.834 453.966 194.868C455.73 191.903 456.973 190.039 456.973 190.039L458.184 193.764C458.939 196.072 459.957 199.315 460.912 202.906C463.143 210.121 464.244 217.637 464.175 225.189C463.465 229.854 462.468 234.472 461.189 239.015C460.39 241.995 459.636 245.011 458.837 247.991C458.038 250.971 457.089 254.048 456.419 256.913C454.799 262.856 453.274 267.824 452.149 270.94C451.023 274.057 450.259 275.145 449.985 272.824C448.512 253.681 435.492 245.404 437.136 232.709Z" fill="#DCD5C7"/>
<path d="M427.789 236.504L421.226 253.253C419.304 257.722 417.554 262.654 415.669 266.899C414.103 270.623 412.246 274.218 410.116 277.651C406.734 282.722 401.46 284.826 395.457 287.612C388.06 290.767 381.639 295.839 376.857 302.304C373.851 306.41 376.725 296.513 381.371 284.454C383.93 278.468 386.812 271.946 389.692 266.327C391.974 261.915 394.594 257.686 397.528 253.678C401.753 248.414 409.545 243.985 415.962 240.953C419.783 239.165 423.737 237.678 427.789 236.504Z" fill="#DCD5C7"/>
<path d="M434.632 316.63C433.082 309.274 429.888 302.365 425.288 296.419C421.737 291.143 418.486 286.578 418.504 280.509C418.726 276.549 419.437 272.632 420.622 268.847C421.862 264.054 423.385 259.34 425.184 254.728C426.942 250.236 428.55 246.023 429.922 243.14C430.559 241.624 431.139 240.496 431.568 239.646L432.21 238.35C432.21 238.35 434.623 243.329 437.484 249.826C440.414 256.314 442.283 263.231 443.021 270.312C442.938 274.805 442.48 279.283 441.654 283.7C440.868 289.19 440.073 295.504 439.054 301.059C437.369 312.272 435.507 320.953 434.632 316.63Z" fill="#DCD5C7"/>
<path d="M409.927 285.104L408.587 290.113C407.744 293.057 406.718 297.448 405.414 302.051C402.771 311.119 400.231 321.682 397.285 326.886C394.339 332.09 389.775 334.799 384.3 338.191C381.273 339.96 378.417 342.008 375.769 344.307C372.639 347.256 369.99 350.677 367.92 354.447C366.708 356.589 366.516 355.204 366.981 351.738C367.723 346.636 368.829 341.594 370.291 336.651C373.129 325.707 377.222 315.128 382.488 305.123C386.953 299.325 392.517 294.463 398.861 290.816C402.427 288.684 406.123 286.776 409.927 285.104Z" fill="#DCD5C7"/>
<path d="M406.007 328.563C405.959 319.94 407.164 311.356 409.586 303.081C410.758 298.553 411.823 294.338 412.935 291.284C414.047 288.229 414.614 286.44 414.614 286.44C414.614 286.44 417.584 290.996 420.701 296.902C424.348 302.789 426.928 309.273 428.322 316.056C429.195 321.645 428.415 335.069 428.049 346.037C427.665 351.523 427.525 356.48 427.22 359.386C426.915 362.292 426.322 363.482 425.629 361.368C424.417 357.622 422.668 354.072 420.437 350.828C418.582 348.084 416.544 345.468 414.337 342.998C410.344 338.453 406.585 334.385 406.007 328.563Z" fill="#DCD5C7"/>
<path d="M400.979 331.262C403.87 334.366 406.165 337.976 407.75 341.911C411.055 350.12 411.831 359.129 409.979 367.782C409.199 372.588 405.482 383.039 402.361 393.244C400.588 398.34 399.107 403.343 397.746 407.429C396.856 410.415 395.657 413.3 394.169 416.037C392.57 413.361 391.287 410.508 390.345 407.536C388.55 402.712 387.084 397.772 385.955 392.75C383.569 383.644 382.15 374.312 381.722 364.909C381.687 355.488 384.977 346.357 391.012 339.123C393.758 335.845 397.151 333.169 400.979 331.262Z" fill="#DCD5C7"/>
<path d="M497.177 211.179C497.177 211.179 496.913 211.742 496.587 212.626C496.261 213.509 495.7 214.707 495.309 215.835C494.918 216.963 494.439 218.2 494.108 219.094C493.778 219.987 493.596 220.589 493.596 220.589L493.954 220.757C493.954 220.757 494.136 220.155 494.462 219.272C494.788 218.388 495.218 217.204 495.658 216.024C496.098 214.844 496.564 213.689 496.901 212.86C497.239 212.032 497.501 211.418 497.501 211.418L497.177 211.179Z" fill="#DCD5C7"/>
<path d="M532.098 221.122L531.718 221.107L531.587 222.294C531.514 222.983 531.406 223.906 531.354 224.843L531.192 227.376C531.144 228.065 531.151 228.531 531.151 228.531L531.53 228.521C531.53 228.521 531.523 228.056 531.582 227.371C531.64 226.687 531.687 225.76 531.744 224.838C531.801 223.917 531.904 223.004 531.971 222.299L532.098 221.122Z" fill="#DCD5C7"/>
<path d="M524.922 241.544C523.116 239.563 520.185 238.328 517.758 236.181C515.33 234.033 513.154 230.892 513.399 225.089C513.397 223.84 513.588 221.645 513.759 219.44C512.962 221.489 512.053 223.511 511.659 224.699C509.601 230.19 506.912 232.814 503.974 234.61C501.036 236.406 498.035 237.323 495.897 239.568C494.796 240.784 493.884 242.158 493.19 243.645C492.834 244.352 492.515 245.078 492.235 245.819C491.363 239.848 492.029 233.753 494.17 228.111C495.853 223.845 498.461 220.004 501.805 216.866C507.809 211.187 514.514 208.758 517.998 205.557L518.346 205.72C518.859 210.492 522.635 216.292 525.556 222.828C527.121 226.192 528.217 229.754 528.814 233.416C529.411 237.772 529.168 242.201 528.1 246.465C527.863 245.906 527.592 245.362 527.289 244.837C526.613 243.662 525.82 242.559 524.922 241.544Z" fill="#DCD5C7"/>
<path d="M492.023 245.82L491.43 250.873L491.036 255.982L491.418 256.073L491.802 250.985L492.395 245.957L492.023 245.82Z" fill="#DCD5C7"/>
<path d="M528.281 246.426L527.909 246.501L528.528 250.111C528.944 251.891 529.354 253.681 529.354 253.681L529.72 253.565L528.921 250.046L528.281 246.426Z" fill="#DCD5C7"/>
<path d="M526.646 266.695C524.304 265.324 521.257 264.872 518.298 263.512C515.34 262.152 512.493 259.646 511.233 253.962C510.978 252.72 510.463 250.593 510.174 248.411C509.815 250.59 509.594 252.771 509.435 254.07C508.878 259.901 506.958 263.147 504.601 265.677C502.243 268.206 499.556 269.92 498.196 272.666C497.483 274.163 496.98 275.75 496.699 277.384C496.482 278.78 496.447 279.763 496.447 279.763C493.903 274.201 492.844 268.074 493.372 261.981C493.875 257.369 495.419 252.93 497.887 249.001C498.922 247.317 500.088 245.717 501.375 244.217C502.618 242.789 503.773 241.494 504.987 240.315C506.201 239.135 507.301 238.04 508.265 236.993C509.195 236.067 510.039 235.058 510.787 233.979L511.178 234.024C512.812 238.534 517.926 243.238 522.363 248.773C524.706 251.586 526.667 254.695 528.197 258.021C529.893 261.945 530.845 266.15 531.006 270.422C530.61 269.966 530.186 269.535 529.739 269.129C528.803 268.204 527.765 267.387 526.646 266.695Z" fill="#DCD5C7"/>
<path d="M496.241 279.854C496.241 279.854 496.329 280.494 496.48 281.451C496.631 282.408 496.846 283.683 497.101 284.951C497.357 286.219 497.603 287.507 497.819 288.458L498.199 290.046L498.604 290.036L498.209 288.453C497.987 287.513 497.752 286.229 497.496 284.961C496.96 282.425 496.631 279.874 496.631 279.874L496.241 279.854Z" fill="#DCD5C7"/>
<path d="M531.21 270.356L530.866 270.532C530.866 270.532 531.581 272.178 532.446 273.769C532.866 274.552 533.227 275.382 533.589 275.914L534.155 276.865L534.478 276.654L533.908 275.713C533.579 275.135 533.195 274.356 532.775 273.573C532.355 272.79 531.925 272.002 531.662 271.392L531.21 270.356Z" fill="#DCD5C7"/>
<path d="M531.856 287.623C529.745 286.985 527.005 286.838 524.184 286.117C520.912 285.412 517.928 283.737 515.623 281.31C515.287 284.745 514.319 288.089 512.767 291.172C511.399 293.649 510.3 296.265 509.489 298.976C509.159 300.585 509.086 302.235 509.271 303.867C509.337 304.661 509.447 305.45 509.6 306.231C506.111 301.968 503.682 296.937 502.513 291.553C501.658 287.371 501.724 283.052 502.707 278.898C504.456 271.402 508.552 266.091 511.052 261.843C514.547 265.339 520.099 268.574 525.065 272.659C527.644 274.742 529.947 277.146 531.917 279.812C534.161 282.98 535.892 286.483 537.046 290.19C536.551 289.845 536.038 289.525 535.509 289.233C534.344 288.585 533.121 288.046 531.856 287.623Z" fill="#DCD5C7"/>
<path d="M509.408 306.267L509.58 306.672C509.683 306.932 509.834 307.303 510.048 307.727L511.537 310.921C512.073 312.096 512.679 313.228 513.146 314.071L513.906 315.488L514.282 315.377L513.522 313.96C513.07 313.112 512.455 312 511.918 310.825L510.44 307.636C510.199 307.164 509.984 306.68 509.795 306.186L509.408 306.267Z" fill="#DCD5C7"/>
<path d="M537.22 290.06L536.933 290.325C537.16 290.632 537.408 290.923 537.674 291.196L539.31 293.035C539.899 293.723 540.552 294.353 540.974 294.813L541.773 295.611L542.024 295.317L541.234 294.523C540.757 294.05 540.103 293.419 539.565 292.755L537.93 290.916C537.696 290.669 537.513 290.447 537.393 290.303L537.22 290.06Z" fill="#DCD5C7"/>
<path d="M536.099 303.442C534.181 303.185 532.287 302.771 530.437 302.202C528.333 301.613 526.292 300.82 524.341 299.836C524.554 302.057 524.564 304.294 524.372 306.517C524.223 308.944 523.991 311.332 523.928 312.801C523.888 314.394 524.072 315.984 524.475 317.526C524.674 318.26 524.916 318.982 525.199 319.688C518.056 313.61 515.106 306.711 514.53 300.874C514.253 298.144 514.414 295.387 515.007 292.707C515.571 290.345 516.339 288.035 517.302 285.804C519.388 286.681 521.601 287.554 523.752 288.586C526.011 289.582 528.188 290.756 530.262 292.095C534.502 294.904 538.242 298.703 541.935 305.163C541.352 304.892 540.755 304.654 540.146 304.45C538.84 303.961 537.482 303.623 536.099 303.442Z" fill="#DCD5C7"/>
<path d="M524.997 319.769L525.844 321.027C526.344 321.798 527.024 322.827 527.786 323.758L529.808 326.453C530.022 326.756 530.253 327.047 530.499 327.325L530.76 327.647L531.109 327.461L530.838 327.134C530.671 326.931 530.43 326.644 530.153 326.277C529.613 325.537 528.869 324.565 528.141 323.587L527.077 322.153L526.204 320.871L525.362 319.603L524.997 319.769Z" fill="#DCD5C7"/>
<path d="M542.028 305.044L541.804 305.364L542.698 306.119L543.639 306.909L544.784 307.77L546.899 309.359C547.182 309.579 547.434 309.734 547.614 309.856L547.911 309.995L548.074 309.647L547.801 309.457C547.555 309.301 547.318 309.131 547.09 308.949L544.981 307.375C544.198 306.809 543.444 306.206 542.901 305.74L542.028 305.044Z" fill="#DCD5C7"/>
<path d="M534.324 323.397C533.174 322.226 532.172 320.919 531.34 319.504C530.529 318.085 529.881 316.58 529.408 315.016C528.522 312.089 528.175 309.025 528.385 305.973C529.71 306.344 531.171 306.716 532.574 307.185C533.977 307.655 535.342 308.206 536.733 308.782C538.077 309.377 539.377 310.065 540.625 310.842C541.851 311.583 542.982 312.47 543.997 313.481C545.288 314.733 546.349 316.202 547.134 317.821C547.957 319.342 548.579 321.081 549.48 322.864C550.433 324.885 551.649 326.772 553.095 328.476C553.992 329.535 554.979 330.515 556.044 331.404C557.33 332.44 558.683 333.39 560.093 334.249C558.686 333.378 557.224 332.598 555.718 331.914C554.346 331.271 553.096 330.686 551.861 330.258C549.668 329.488 547.436 328.834 545.174 328.302C543.225 327.864 541.304 327.31 539.42 326.644C537.528 325.901 535.797 324.798 534.324 323.397Z" fill="#DCD5C7"/>
<path d="M523.072 196.609C523.435 195.381 524.039 193.317 524.844 191.197C523.499 192.951 522.214 194.735 521.447 195.786C520.68 196.867 519.847 197.898 518.953 198.876C518.197 199.677 517.367 200.405 516.475 201.049C514.984 202.141 513.309 202.956 511.529 203.453C508.307 204.442 505.099 204.575 502.46 206.212C501.108 207.111 499.882 208.187 498.815 209.412C498.296 209.986 497.818 210.597 497.385 211.239C498.053 205.358 500.175 199.735 503.558 194.878C506.231 191.175 509.685 188.104 513.675 185.881C515.375 184.906 517.15 184.067 518.982 183.371C520.73 182.704 522.384 182.13 524.001 181.663C525.618 181.197 527.098 180.754 528.396 180.275C529.662 179.905 530.894 179.424 532.077 178.839C532.077 178.839 533.691 176.324 536.391 172.744C539.689 168.349 543.301 164.199 547.198 160.325C551.106 156.431 555.295 152.83 559.732 149.55C560.655 148.884 561.484 148.261 562.229 147.735C562.974 147.21 563.666 146.773 564.223 146.409L565.948 145.257L567.561 147.947L565.827 148.983L563.84 150.162C563.068 150.637 562.232 151.195 561.302 151.796C556.787 154.776 552.492 158.077 548.452 161.673C544.395 165.291 540.603 169.194 537.104 173.353C535.641 175.04 534.541 176.535 533.718 177.548C533.311 178.044 533.013 178.466 532.808 178.745L532.49 179.183C531.863 183.883 534.173 190.47 535.336 197.481C536.015 201.122 536.174 204.84 535.808 208.526C535.297 212.908 533.947 217.15 531.832 221.022C531.546 218.716 530.729 216.509 529.445 214.573C528.292 212.94 527.037 211.381 525.687 209.906C524.305 208.422 523.262 206.656 522.63 204.729C522.277 203.57 522.126 202.359 522.183 201.149C522.269 199.602 522.569 198.075 523.072 196.609Z" fill="#DCD5C7"/>
</g>
<defs>
<clipPath id="clip0_8_14681">
<rect width="698" height="900" fill="white"/>
</clipPath>
</defs>
</svg>
