<svg width="39" height="34" viewBox="0 0 39 34" fill="none" xmlns="http://www.w3.org/2000/svg">
<path d="M19.2883 5.2301C19.0488 4.93709 18.8116 4.63747 18.5677 4.34886C18.2772 3.96449 17.9655 3.59674 17.634 3.24732C16.1683 1.85577 14.3794 0.853162 12.4295 0.330424C11.6554 0.0936169 10.8484 -0.0172089 10.0393 0.0021636C9.78441 0.0131791 9.52958 0.0418186 9.27473 0.0660526C8.7958 0.110114 8.31248 0.136551 7.83574 0.20705C6.74349 0.389339 5.71239 0.837128 4.83256 1.51128C3.18267 2.68333 2.06443 4.28497 1.23839 6.11574C0.554245 7.61093 0.211971 9.24054 0.236592 10.8854C0.27062 12.4263 0.553288 13.9515 1.07362 15.4018C1.27015 15.9377 1.4998 16.4609 1.76126 16.9682C1.99633 17.4462 2.227 17.4705 2.61805 17.1114L2.64002 17.0893C3.40286 16.3596 4.26089 15.7371 5.19065 15.2387C7.19282 14.0909 9.52465 13.6597 11.8034 14.016C13.6132 14.2981 15.3719 14.8452 17.0233 15.6397C17.9745 16.0935 18.9236 16.554 19.8903 16.9616C21.4764 17.6445 23.1417 18.0917 24.807 18.5324C26.226 18.9099 27.6887 19.0973 29.1569 19.0897C30.4374 19.0679 31.713 18.9241 32.9663 18.6601C34.1996 18.4431 35.344 17.8731 36.2617 17.0188C36.6917 16.6424 37.0621 16.2027 37.3602 15.7146C37.7545 14.9969 38.0311 14.2203 38.1796 13.4146C38.4264 12.1129 38.4797 10.7818 38.3378 9.46444C38.196 8.35922 37.8832 7.28293 37.4107 6.27436C36.7742 4.75817 35.8144 3.40011 34.5986 2.29558C33.6694 1.48044 32.6544 0.795276 31.4395 0.511077C30.7547 0.375515 30.062 0.284266 29.3656 0.237894C28.9169 0.180342 28.464 0.163383 28.0123 0.187222C27.4832 0.2366 26.9583 0.323472 26.4415 0.447187C24.9402 0.824743 23.5239 1.48408 22.2673 2.39031C21.332 3.00535 20.54 3.81541 19.9452 4.76525C19.8756 4.88565 19.7809 4.98953 19.6675 5.06976C19.5541 5.15 19.4247 5.2047 19.2883 5.2301Z" fill="#487A9B"/>
<path d="M36.2942 18.686C36.0572 18.6393 35.811 18.6789 35.6017 18.7975C35.0184 19.1235 34.3975 19.3806 33.7523 19.5632C32.7609 19.839 31.7441 20.0185 30.7168 20.0992C29.1398 20.2568 27.548 20.1964 25.9882 19.9198C24.3415 19.5923 22.718 19.1612 21.1279 18.6291C19.7576 18.1616 18.4217 17.6024 17.1297 16.9555C15.4081 16.0922 13.5643 15.486 11.6596 15.1572C10.5842 14.9652 9.48375 14.9489 8.40295 15.1091C6.20507 15.4788 4.33553 16.4852 2.70499 17.9531C2.62667 18.0274 2.56039 18.113 2.50843 18.2069C2.25826 18.6444 2.34314 19.0426 2.57321 19.456C3.45892 20.9726 4.52101 22.3836 5.73824 23.6607C8.84967 27.0495 12.3252 29.9897 16.5356 32.0111C17.2056 32.3305 17.8757 32.6215 18.5458 32.9146C18.8328 33.0381 19.154 33.0628 19.4571 32.9846C19.7765 32.9059 20.1004 32.8359 20.4109 32.7287C22.0597 32.1428 23.6237 31.3493 25.0635 30.3682C27.7266 28.5827 30.1655 26.4958 32.3295 24.1508C33.809 22.6044 35.0847 20.8824 36.1266 19.0251C36.1892 18.9288 36.2316 18.8216 36.2942 18.686Z" fill="#FFD500"/>
</svg>
