<svg width="547" height="886" viewBox="0 0 547 886" fill="none" xmlns="http://www.w3.org/2000/svg">
<path d="M341.951 486.295C339.929 482.375 337.177 478.898 334.954 475.107C332.505 471.419 331.198 467.073 331.2 462.625C331.382 460.082 332.218 457.632 333.625 455.52C335.032 453.407 336.961 451.707 339.218 450.587C339.868 450.22 340.584 449.992 341.323 449.916C342.063 449.839 342.81 449.917 343.519 450.143C344.419 450.555 345.203 451.191 345.796 451.993C349.995 456.969 352.878 462.947 354.172 469.365C355.466 475.784 355.13 482.43 353.195 488.68" fill="#406E8C"/>
<path d="M353.195 488.162L356.84 472.981C357.623 469.597 358.498 466.046 360.885 463.568C362.044 462.442 363.35 461.484 364.767 460.721C366.953 459.408 369.687 458.15 371.946 459.352C374.206 460.554 374.698 463.679 374.625 466.305C374.307 476.179 370.46 485.598 363.801 492.804" fill="#406E8C"/>
<path d="M363.563 492.675C365.349 489.186 367.25 485.759 369.267 482.393C372.584 476.846 376.556 471.206 382.515 468.876C385.157 467.84 388.801 467.914 390.059 470.485C390.633 472.002 390.633 473.682 390.059 475.2C388.528 480.521 385.91 485.454 382.375 489.679C378.839 493.904 374.466 497.325 369.54 499.72" fill="#406E8C"/>
<path d="M371.254 499.276L380.875 491.509C383.638 489.072 386.701 487.008 389.987 485.37C393.301 483.724 397.113 483.439 400.629 484.575C401.457 484.834 402.216 485.282 402.848 485.885C403.479 486.487 403.967 487.228 404.273 488.052C404.535 489.169 404.465 490.34 404.073 491.417C402.854 494.685 400.758 497.542 398.023 499.664C391.728 505.095 384.125 508.732 375.992 510.205" fill="#406E8C"/>
<path d="M377.96 510.002C387.417 507.616 397.403 505.231 406.769 507.912C408.614 508.353 410.338 509.206 411.817 510.408C412.547 511.017 413.132 511.786 413.527 512.657C413.921 513.528 414.116 514.479 414.095 515.438C413.937 516.514 413.523 517.535 412.888 518.412C412.252 519.289 411.416 519.994 410.45 520.468C407.6 521.789 404.46 522.337 401.339 522.058C391.553 522.058 381.149 520.764 373.495 514.551" fill="#406E8C"/>
<path d="M353.214 508.762C345.833 524.702 326.645 537.24 309.17 537.184C304.778 537.184 300.405 536.407 295.995 536.407C288.297 536.523 280.796 538.891 274.393 543.227C267.989 547.564 262.955 553.684 259.896 560.854" stroke="#487A9B" stroke-width="0.666262" stroke-miterlimit="10"/>
<path d="M314.053 518.045C314.166 513.241 313.886 508.435 313.215 503.677C312.34 497.741 311.392 491.491 307.62 486.831C300.914 493.1 299.347 503.27 299.985 512.498C300.532 520.431 302.791 528.9 308.951 533.819L312.595 536.944C311.492 535.599 310.751 533.987 310.445 532.265C310.262 529.88 313.962 524.702 314.053 518.045Z" fill="#406E8C"/>
<path d="M340.038 545.376C346.759 548.394 352.501 553.279 356.602 559.467C348.882 560.974 340.906 560.378 333.487 557.741C326.067 555.103 319.469 550.518 314.363 544.452C313.302 543.285 312.495 541.905 311.994 540.402C311.714 539.344 311.543 538.26 311.483 537.166C321.425 538.061 331.112 540.846 340.038 545.376Z" fill="#406E8C"/>
<path d="M328.94 531.859C330.684 529.724 331.874 527.182 332.403 524.462C332.885 522.818 333.191 521.125 333.314 519.414C333.341 517.25 333.121 515.091 332.658 512.979C332.348 511.129 332.02 509.428 331.71 507.671" stroke="#487A9B" stroke-width="0.659599" stroke-linecap="round" stroke-linejoin="round"/>
<path d="M330.617 531.674C339.691 529.259 349.312 530.149 357.805 534.189" stroke="#487A9B" stroke-width="0.666262" stroke-miterlimit="10"/>
<path d="M332.677 510.131C333.513 507.207 333.719 504.135 333.282 501.123C332.845 498.111 331.775 495.23 330.144 492.674C328.065 489.747 325.614 487.11 322.855 484.834C320.989 489.532 320.917 494.768 322.654 499.516C324.441 504.223 327.918 508.068 332.385 510.279" fill="#406E8C"/>
<path d="M356.165 533.357C359.263 531.23 363.454 532.081 366.862 533.837C371.381 536.186 375.317 540.402 375.809 545.524C375.007 546.2 374.071 546.693 373.065 546.971C372.059 547.248 371.006 547.304 369.978 547.133C366.491 546.885 363.181 545.482 360.557 543.139C357.962 540.76 356.403 537.436 356.22 533.893" fill="#406E8C"/>
<path d="M359.774 451.216C359.357 451.211 358.941 451.162 358.535 451.068H358.188C357.472 450.928 356.791 450.644 356.185 450.233C355.578 449.822 355.059 449.291 354.658 448.674C354.257 448.056 353.981 447.362 353.848 446.635C353.715 445.907 353.726 445.16 353.882 444.437C354.037 443.714 354.334 443.03 354.754 442.425C355.174 441.82 355.709 441.307 356.328 440.915C356.947 440.523 357.636 440.261 358.357 440.143C359.077 440.026 359.812 440.056 360.521 440.232L360.995 440.324C362.315 440.619 363.481 441.399 364.268 442.515C365.054 443.631 365.405 445.002 365.254 446.366C365.102 447.729 364.458 448.986 363.446 449.896C362.434 450.805 361.125 451.302 359.774 451.29V451.216Z" fill="#406E8C"/>
<path d="M386.469 460.24C385.906 460.246 385.346 460.159 384.811 459.981C383.542 459.556 382.461 458.691 381.758 457.538C381.055 456.385 380.774 455.017 380.966 453.675C381.18 452.357 381.846 451.158 382.846 450.288C383.846 449.419 385.116 448.935 386.433 448.923C387.379 448.942 388.305 449.201 389.127 449.676C389.949 450.151 390.641 450.828 391.139 451.645C391.638 452.461 391.927 453.391 391.98 454.35C392.033 455.308 391.849 456.265 391.444 457.133C390.979 458.067 390.268 458.852 389.389 459.4C388.511 459.949 387.5 460.239 386.469 460.24Z" fill="#406E8C"/>
<path d="M406.714 477.53C405.796 477.524 404.894 477.284 404.092 476.832C403.289 476.379 402.612 475.729 402.122 474.941C401.722 474.328 401.447 473.641 401.311 472.919C401.175 472.197 401.182 471.455 401.331 470.736C401.48 470.017 401.769 469.335 402.18 468.73C402.591 468.125 403.116 467.608 403.726 467.211C404.934 466.418 406.402 466.14 407.811 466.437C409.22 466.735 410.456 467.585 411.252 468.802L411.416 469.079C411.943 469.92 412.237 470.89 412.267 471.886C412.297 472.883 412.062 473.869 411.587 474.741C411.111 475.614 410.413 476.34 409.565 476.844C408.717 477.347 407.751 477.61 406.769 477.604L406.714 477.53Z" fill="#406E8C"/>
<path d="M418.668 502.383C417.739 502.385 416.825 502.146 416.012 501.69C415.199 501.234 414.514 500.575 414.022 499.775L413.894 499.572C413.29 498.352 413.15 496.949 413.501 495.631C413.853 494.313 414.671 493.173 415.799 492.428C416.927 491.684 418.286 491.389 419.616 491.598C420.945 491.807 422.152 492.506 423.005 493.562L423.206 493.895C423.582 494.518 423.832 495.209 423.944 495.93C424.056 496.651 424.026 497.388 423.857 498.097C423.688 498.807 423.382 499.475 422.958 500.065C422.533 500.654 421.998 501.153 421.384 501.532C420.568 502.054 419.632 502.347 418.668 502.383Z" fill="#406E8C"/>
<path d="M340.202 488.495L339.838 482.67C339.838 482.67 352.594 479.268 367.354 489.438C382.114 499.609 381.932 519.155 381.932 519.155C381.932 519.155 365.951 515.974 359.609 512.368" fill="#406E8C"/>
<path d="M375.937 516.474C372.391 507.621 366.398 499.999 358.68 494.524C354.465 491.168 349.422 489.051 344.102 488.403H343.665C343.045 488.403 342.444 488.403 341.843 488.403C341.281 488.418 340.721 488.467 340.166 488.551C340.603 492.49 342.535 499.535 350.043 506.544C357.456 512.959 366.625 516.92 376.319 517.898L375.937 516.474Z" fill="#406E8C"/>
<path d="M489.152 445.465C479.582 461.905 468.118 477.132 455.004 490.825C443.305 503.048 430.203 514.125 420.946 528.345C418.869 531.544 416.919 535.335 417.866 539.052C419.014 543.527 423.916 545.912 428.435 546.449C439.551 547.725 450.412 541.086 457.336 532.173C464.261 523.26 467.996 512.239 471.604 501.495C477.788 483.003 483.971 464.555 490.155 446.149L489.152 445.465Z" fill="#406E8C"/>
<path d="M499.303 466.102C495.592 458.462 492.819 450.388 491.048 442.062C488.804 468.913 490.71 495.953 496.697 522.206C498.209 528.826 500.123 535.613 504.168 540.568C508.214 545.524 514.974 548.076 520.095 544.729C525.215 541.382 526.819 534.115 526.728 527.495C526.345 504.103 509.343 486.406 499.303 466.102Z" fill="#406E8C"/>
<path d="M485.654 509.779C489.991 552.31 482.702 572.189 481.699 581.213C479.622 600.223 469.654 621.618 453.619 631.659C451.485 633.186 448.941 634.012 446.33 634.026C440.535 633.637 436.982 626.759 437.729 620.915C438.476 615.072 442.084 610.097 445.51 605.345C454.949 592.29 485.107 550.221 485.708 509.779" fill="#406E8C"/>
<path d="M516.632 611.134C520.094 615.387 523.665 621.212 529.005 620.158C534.909 619.011 536.622 611.097 535.51 605.105C532.358 588.204 518.181 576.147 507.739 562.574C494.964 545.958 487.221 525.934 485.453 504.935C485.453 504.935 486.328 519.433 486.729 523.612C487.13 527.791 493.435 582.823 516.632 611.134Z" fill="#406E8C"/>
<path d="M494.291 581.713C494.71 616.847 479.713 642.385 464.424 672.193C461.399 678.111 458.247 684.232 457.882 690.889C457.518 697.546 460.853 704.905 467.14 706.884C474.939 709.343 482.629 702.686 487.184 695.789C506.208 667.016 502.09 629.218 497.243 594.824" fill="#406E8C"/>
<path d="M507.812 699.894C504.959 714.618 497.885 728.16 487.476 738.819C475.249 751.246 458.503 759.733 450.558 775.322C449.133 777.601 448.606 780.341 449.082 782.996C450.722 788.877 458.976 788.914 464.68 786.953C495.658 776.321 511.093 742.203 513.461 709.01C514.132 698.536 513.973 688.023 512.988 677.574L511.566 667.108L507.812 699.894Z" fill="#406E8C"/>
<path d="M509.708 777.633C501.488 792.546 490.262 805.533 476.762 815.745C466.721 823.327 455.533 829.281 445.948 837.436C436.363 845.591 428.235 856.667 427.379 869.334C426.996 874.882 428.381 880.984 432.846 884.128C439.387 888.603 448.189 884.276 454.385 879.32C479.896 858.775 495.093 827.543 504.715 795.922" fill="#406E8C"/>
<path d="M508.979 835.328C507.156 843.224 506.628 854.264 514.281 856.538C521.57 858.683 527.037 849.974 529.206 842.651C547.61 746.715 515.065 697.028 515.065 697.028C515.065 697.028 526.727 773.75 508.979 835.328Z" fill="#406E8C"/>
<path d="M502.473 613.333C502.473 613.333 568.11 673.894 531.209 723.822C525.743 724.284 531.209 681.291 502.473 617.05" fill="#406E8C"/>
<path d="M324.895 771.272C309.151 790.023 286.737 806.592 261.408 805.852" stroke="#487A9B" stroke-width="0.666262" stroke-linecap="round" stroke-linejoin="round"/>
<path d="M337.579 750.358C346.69 758.199 351.446 769.959 355.619 781.313C361.815 798.141 367.5 816.133 364.165 833.756C364.108 834.479 363.902 835.182 363.56 835.82C363.217 836.457 362.747 837.014 362.179 837.455C359.938 838.749 357.405 836.327 356.056 834.089C352.912 828.899 350.56 823.257 349.077 817.354C349.077 825.62 349.405 834.533 354.307 841.134C355.124 842.085 355.822 843.134 356.384 844.26C357.842 847.699 355.309 851.971 351.756 853.006C349.95 853.417 348.069 853.324 346.311 852.738C344.553 852.152 342.984 851.095 341.77 849.678C339.38 846.802 337.745 843.361 337.014 839.674C336.103 835.975 335.574 832.277 334.372 828.763C332.866 832.147 332.26 835.873 332.615 839.568C332.97 843.264 334.273 846.8 336.394 849.826C338.222 851.844 339.756 854.117 340.95 856.575C341.287 857.726 341.388 858.935 341.248 860.128C341.108 861.32 340.73 862.471 340.136 863.51C339.542 864.548 338.746 865.453 337.795 866.169C336.845 866.884 335.76 867.395 334.608 867.67C333.573 867.89 332.497 867.8 331.511 867.411C330.527 866.881 329.688 866.113 329.069 865.174C321.543 855.318 320.632 842.004 319.958 829.54C316.168 840.219 316.168 851.906 319.958 862.585C320.95 864.817 321.613 867.184 321.926 869.612C322.056 870.831 321.834 872.062 321.287 873.155C320.74 874.248 319.892 875.157 318.846 875.77C315.202 877.452 311.393 873.698 309.735 870.037C305.015 859.682 306.619 847.625 308.332 836.345C305.069 841.498 302.854 847.26 301.819 853.294C300.783 859.328 300.947 865.511 302.3 871.479C303.011 874.549 303.904 878.229 301.735 880.503C300.866 881.278 299.776 881.753 298.623 881.86C297.47 881.966 296.314 881.698 295.321 881.095C293.347 879.837 291.821 877.971 290.966 875.77C288.457 869.622 287.922 862.828 289.435 856.353C290.957 849.927 293.137 843.679 295.941 837.713C288.625 845.726 284.138 855.976 283.185 866.857C282.93 869.686 282.729 872.959 280.452 874.623C277.572 876.713 273.162 874.383 271.942 871.017C270.721 867.652 271.65 863.861 272.798 860.458C275.408 852.712 279.017 845.349 283.531 838.564C273.254 843.964 270.192 857.222 262.94 866.302C253.154 859.737 242.64 851.915 240.271 840.247C248.409 835.288 255.737 829.074 261.992 821.829C255.961 826.149 249.361 829.585 242.385 832.036C239.812 833.218 236.917 833.466 234.185 832.739C231.561 831.722 229.793 828.153 231.524 825.916C232.71 824.735 234.248 823.987 235.898 823.789C245.235 821.403 253.478 815.826 259.241 807.997L244.79 814.062C240.708 815.764 236.262 817.52 232.035 816.503C227.807 815.486 224.144 810.309 226.367 806.425C236.47 806.182 246.407 803.768 255.523 799.343C250.135 801.016 244.453 801.489 238.868 800.73C236.079 800.33 233.406 799.333 231.024 797.806C228.643 796.279 226.609 794.257 225.055 791.872C224.162 790.337 223.67 788.044 225.055 787.064C225.868 786.657 226.793 786.54 227.679 786.731C235.851 787.549 244.092 787.319 252.207 786.047C247.951 787.138 243.512 787.283 239.196 786.473C234.968 785.4 230.978 782.182 230.194 777.8C229.483 773.75 231.579 769.793 233.583 766.224C241.119 770.209 249.6 771.983 258.074 771.346C253.494 771.281 249.01 770.007 245.064 767.648C242.275 765.965 239.597 763.025 240.289 759.826C240.982 756.627 244.754 755.258 247.852 755.684C250.949 756.109 253.737 757.866 256.671 759.031C259.605 760.196 263.158 760.658 265.782 758.772C261.684 757.555 257.78 755.743 254.193 753.391C253.394 753.005 252.75 752.352 252.371 751.542C251.86 749.877 253.537 748.416 255.031 747.51C270.156 738.357 287.832 732.384 305.307 734.474C322.782 736.563 339.82 747.936 345.396 764.893" fill="#406E8C"/>
<path d="M337.943 751.967C345.654 758.564 351.253 767.345 354.021 777.187C356.79 787.029 356.604 797.486 353.486 807.22C350.334 816.466 344.484 825.157 344.976 834.958C342.057 835.281 339.107 834.791 336.442 833.541C333.776 832.291 331.497 830.327 329.848 827.861C328.2 825.396 327.244 822.521 327.084 819.546C326.924 816.57 327.566 813.607 328.941 810.974C324.458 818.371 325.478 827.857 327.119 836.437C327.556 838.823 327.811 841.8 325.843 843.187C323.875 844.574 320.722 842.928 319.155 840.801C313.689 833.405 315.675 823.068 318.682 814.395C316.656 819.043 315.329 823.974 314.746 829.022C314.071 834.736 314.272 840.857 311.411 845.831C311.178 846.337 310.796 846.757 310.317 847.033C309.352 847.477 308.258 846.756 307.511 845.997C303.411 841.855 302.318 835.365 303.302 829.558C304.587 823.806 306.771 818.3 309.771 813.248C305.723 819.602 302.616 826.524 300.55 833.793C300.126 835.859 299.316 837.824 298.163 839.581C297.563 840.438 296.71 841.078 295.727 841.411C294.744 841.743 293.683 841.75 292.696 841.43C289.635 840.062 290.072 835.531 291.166 832.332C293.649 825.139 296.899 818.244 300.86 811.769C296.42 821.026 289.02 828.482 279.868 832.924C277.998 833.976 275.882 834.494 273.745 834.422C272.678 834.358 271.661 833.942 270.849 833.238C270.036 832.534 269.473 831.579 269.244 830.52C269.21 829.034 269.63 827.574 270.447 826.341C276.045 815.967 283.621 806.828 292.733 799.454C286.082 807.35 278.61 815.43 268.679 817.945C267.002 818.492 265.199 818.492 263.522 817.945C262.693 817.658 261.994 817.078 261.552 816.311C261.111 815.543 260.956 814.64 261.117 813.766C261.518 812.342 262.939 811.492 264.215 810.752C272.872 805.75 280.874 799.662 288.031 792.63C281.543 798.588 273.677 802.786 265.162 804.835C260.789 805.87 254.994 805.593 253.354 801.358C253.105 800.765 252.998 800.121 253.042 799.478C253.087 798.835 253.281 798.212 253.609 797.66C254.214 797.009 254.942 796.488 255.75 796.129C256.558 795.77 257.429 795.58 258.311 795.57C267.088 794.218 275.57 791.341 283.385 787.064C278.1 790.004 272.579 793.037 266.565 793.277C260.552 793.518 253.919 790.06 252.589 784.031C252.115 781.849 252.735 779.039 254.83 778.354C255.941 778.124 257.093 778.2 258.165 778.576C266.462 780.471 275.143 779.548 282.874 775.95C279.609 777.708 276.102 778.955 272.469 779.649C270.651 779.969 268.786 779.898 266.997 779.439C265.207 778.98 263.533 778.144 262.083 776.986C257.964 773.288 257.6 767.019 257.545 761.453C262.556 762.766 267.549 759.604 271.85 756.737C279.431 751.321 287.676 746.932 296.377 743.682C305.155 740.445 314.707 740.057 323.711 742.573C331.284 745.128 337.934 749.918 342.808 756.331" fill="#406E8C"/>
<path d="M334.991 749.23C329.105 745.902 321.907 746.549 315.402 748.305C310.71 749.587 306.103 751.168 301.608 753.039C298.072 754.5 294.319 756.46 292.879 760.066C295.609 760.177 298.344 760.085 301.061 759.789C299.239 760.288 297.307 760.843 295.485 761.49C292.301 762.412 289.399 764.136 287.048 766.501C287.795 767.777 289.599 767.796 291.057 767.611L292.369 767.408C290.988 767.801 289.732 768.553 288.724 769.59C288.521 769.787 288.386 770.047 288.342 770.329C288.346 770.503 288.39 770.672 288.469 770.826C288.548 770.98 288.66 771.113 288.797 771.217C289.439 771.642 290.165 771.918 290.924 772.027C291.683 772.136 292.456 772.074 293.189 771.846L311.703 768.979C304.934 771.423 298.411 774.52 292.223 778.225C290.546 779.205 288.724 780.537 288.578 782.478C295.38 780.641 301.962 778.049 308.204 774.749C302.646 779.261 295.685 782.275 291.567 788.174C290.911 789.098 290.51 790.67 291.567 791.114C291.976 791.243 292.415 791.243 292.824 791.114C299.702 789.293 306.054 785.839 311.356 781.036C308.969 783.902 306.017 786.195 303.393 788.84C300.619 791.336 298.661 794.633 297.781 798.289C298.692 798.807 299.822 798.289 300.696 797.697C307.261 793.477 312.895 787.924 317.242 781.387C313.415 787.389 310.064 793.69 307.22 800.231C306.637 801.562 306.291 803.522 307.603 804.132C307.962 804.252 308.343 804.284 308.717 804.227C309.091 804.169 309.445 804.022 309.753 803.799C312.022 802.33 313.899 800.317 315.22 797.937C318.063 793.428 320.502 788.669 322.509 783.717C320.215 789.539 318.452 795.562 317.242 801.71C317.062 802.298 317.03 802.922 317.147 803.526C317.265 804.129 317.53 804.694 317.917 805.168C320.246 802.375 322.039 799.164 323.201 795.7C324.987 791.225 326.706 786.725 328.358 782.201L325.843 800.859C325.588 802.708 325.552 805.075 327.192 806C331.461 798.179 334.568 789.76 336.412 781.017C336.109 787.058 335.793 793.093 335.465 799.121C335.465 800.009 335.647 801.229 336.522 801.266C336.899 801.243 337.253 801.07 337.506 800.785C339.136 799.077 340.27 796.947 340.786 794.628C342.095 790.372 343.01 786.001 343.519 781.572L343.792 782.423C347.164 761.897 339.528 751.782 334.991 749.23Z" fill="#406E8C"/>
<path d="M338.325 755.776C342.097 760.547 342.207 767.796 339.783 773.381C338.579 776.193 336.543 778.556 333.958 780.142C331.372 781.729 328.365 782.462 325.351 782.238C322.737 781.852 320.272 780.767 318.208 779.095C316.374 777.736 314.907 775.929 313.944 773.843C313.174 771.782 312.926 769.557 313.222 767.374C313.518 765.19 314.349 763.116 315.639 761.342C318.256 757.806 321.797 755.083 325.861 753.483C328.251 752.269 330.924 751.744 333.588 751.967C333.588 751.967 335.173 751.801 338.325 755.776Z" fill="#406E8C"/>
<path d="M165.158 638.446C170.06 626.074 179.099 617.79 189.194 609.21C201.293 598.892 212.5 587.186 220.299 573.225C228.099 559.264 232.29 542.88 229.921 526.995C216.655 526.2 203.681 532.654 194.059 541.955C184.41 551.37 176.877 562.786 171.974 575.425C163.117 598.059 162.862 638.427 162.862 638.427L165.158 638.446Z" fill="#406E8C"/>
<path d="M112.476 758.605C122.553 747.898 128.093 733.586 131.646 719.218C141.503 678.816 137.426 636.207 120.093 598.485C119.164 596.487 117.56 594.176 115.428 594.62C113.971 594.934 113.132 596.469 112.495 597.819C99.7389 625.464 100.595 657.843 108.048 687.375C110.29 696.288 112.13 705.293 114.608 714.132C117.56 724.747 121.077 747.122 108.54 761.508" fill="#406E8C"/>
<path d="M151.782 690.833C162.005 665.259 190.76 639.37 206.668 628.072C223.724 615.959 245.773 613.962 266.365 610.93C247.322 654.275 204.408 685.859 157.96 690.833H151.782Z" fill="#406E8C"/>
<path d="M12.217 822.143C21.737 802.096 24.7849 779.513 20.9273 757.607C18.4127 743.461 13.037 729.962 10.4859 715.815C7.93474 701.669 8.66367 685.988 17.0095 674.431C29.5722 689.778 37.8641 708.254 41.0267 727.946C42.2886 734.983 42.4607 742.176 41.5369 749.267C40.2978 757.514 37.0724 765.281 33.8106 772.937C26.9954 788.963 20.0162 804.934 12.873 820.849" fill="#406E8C"/>
<path d="M237.628 701.836C207.725 701.688 179.863 716.999 155.427 734.511C131.428 751.708 108.887 771.605 82.209 784.032C143.491 788.433 206.231 755.536 237.628 701.836Z" fill="#406E8C"/>
<path d="M241.474 560.558C308.897 559.448 361.013 620.028 358.097 686.931C357.201 705.737 352.519 724.157 344.339 741.057" stroke="#487A9B" stroke-width="0.666262" stroke-miterlimit="10"/>
<path d="M287.94 692.109C285.063 693.133 281.918 693.067 279.084 691.924C277.7 691.311 276.582 690.207 275.942 688.818C275.301 687.429 275.181 685.851 275.604 684.379C276.151 683.237 276.92 682.218 277.863 681.384C291.694 667.607 308.842 655.939 316.513 637.91C320.207 628.91 321.322 619.034 319.73 609.42C318.137 599.805 313.902 590.842 307.511 583.562L302.755 578.273L311.867 584.764C311.867 584.764 340.202 619.751 310.482 675.744C304.031 687.763 287.94 692.109 287.94 692.109Z" fill="#406E8C"/>
<path d="M358.242 666.202C368.374 668.661 381.239 738.449 403.543 767.907C412.417 779.649 423.46 791.04 425.301 805.722C425.794 808.405 425.457 811.176 424.335 813.655C423.211 815.409 421.6 816.785 419.706 817.611C417.812 818.437 415.72 818.676 413.693 818.297C409.626 817.469 405.852 815.554 402.76 812.749C384.118 797.531 375.572 772.918 371.326 749.027C367.08 725.135 366.187 700.486 358.68 677.445" fill="#406E8C"/>
<path d="M372.493 629.311C376.305 630.462 380.252 631.084 384.228 631.16C390.919 631.672 397.633 630.537 403.799 627.85C406.883 626.488 409.622 624.432 411.806 621.836C413.991 619.241 415.565 616.175 416.409 612.871C417.794 606.251 414.769 598.577 408.701 595.766C402.196 592.752 394.688 595.655 387.909 597.93C366.844 604.957 342.535 605.216 323.639 593.473L320.158 591.976L326.336 598.355C326.336 598.355 346.854 619.658 372.493 629.311Z" fill="#406E8C"/>
<path d="M422.458 681.014C416.9 681.402 413.511 687.449 412.345 692.959C411.651 695.722 411.545 698.603 412.035 701.41C413.711 709.528 423.624 714.502 431.132 711.266C438.64 708.03 442.066 697.749 438.421 690.371C436.401 686.738 433.129 683.99 429.234 682.656C425.34 681.321 421.096 681.494 417.319 683.14" fill="#406E8C"/>
<path d="M171.7 838.471C171.095 838.557 170.482 838.557 169.878 838.471C166.379 837.861 162.807 833.09 162.807 833.09C159.418 828.06 156.101 822.476 156.284 816.448C156.592 812.504 157.842 808.695 159.928 805.352C161.18 802.775 163.062 800.566 165.395 798.936C166.971 798.004 168.733 797.441 170.552 797.29C172.829 797.038 175.133 797.254 177.326 797.925C179.519 798.596 181.557 799.709 183.317 801.197C185.077 802.684 186.524 804.516 187.571 806.584C188.618 808.651 189.244 810.912 189.412 813.23C173.085 815.911 171.554 831.537 171.7 838.471Z" fill="#406E8C"/>
<path d="M157.651 848.938C153.327 849.137 149.022 848.254 145.114 846.367C143.438 845.525 141.824 844.56 140.285 843.483C138.485 842.407 136.947 840.934 135.784 839.174C134.699 836.805 134.204 834.201 134.344 831.592C134.114 828.88 134.405 826.148 135.201 823.548C137.784 818.552 142.006 814.628 147.136 812.453C148.372 812.025 149.697 811.937 150.977 812.197C152.257 812.456 153.447 813.055 154.425 813.933C154.425 813.933 153.204 827.339 163.136 835.531C173.067 843.723 157.651 848.938 157.651 848.938Z" fill="#406E8C"/>
<path d="M205.521 851.527C210.04 856.982 213.557 839.211 211.735 832.332C210.287 827.836 207.843 823.737 204.591 820.349C202.022 817.391 198.87 814.413 194.97 814.247C193.411 814.121 191.844 814.368 190.396 814.968C187.572 816.281 176.328 819.832 173.741 836.474C171.153 853.117 189.157 831.74 205.521 851.527Z" fill="#406E8C"/>
<path d="M184.984 850.603C186.806 845.702 184.474 840.044 180.684 836.53C179.117 835.028 177.266 833.867 175.241 833.116C173.217 832.366 171.064 832.043 168.912 832.166C166.758 832.337 164.688 833.093 162.921 834.355C161.154 835.618 159.756 837.34 158.871 839.341C158.159 841.297 157.904 843.393 158.125 845.466C158.346 847.539 159.039 849.531 160.147 851.287C163.573 856.927 166.179 860.108 175.217 858.776C184.255 857.445 184.984 850.603 184.984 850.603Z" fill="#406E8C"/>
<path d="M294.007 442.008C293.846 433.137 295.896 424.368 299.967 416.515C304.039 408.663 309.999 401.982 317.295 397.092C321.541 394.318 327.336 392.247 331.399 395.243C335.754 398.516 335.044 405.746 331.399 409.925C327.755 414.104 322.634 416.249 317.878 418.894C307.964 424.4 299.761 432.603 294.189 442.582" fill="#406E8C"/>
<path d="M44.0111 610.622C43.1878 604.536 41.1185 598.692 37.9362 593.466C34.754 588.24 30.5292 583.747 25.5335 580.277C25.4193 580.176 25.2862 580.1 25.1422 580.052C24.9982 580.004 24.8462 579.987 24.6953 580" stroke="#487A9B" stroke-width="0.666262" stroke-linecap="round" stroke-linejoin="round"/>
<path d="M39.2551 610.252L12.4863 583.716L12.7961 584.696" stroke="#487A9B" stroke-width="0.666262" stroke-linecap="round" stroke-linejoin="round"/>
<path d="M40.5125 613.673C27.4177 611.705 15.2491 605.657 5.68945 596.365" stroke="#487A9B" stroke-width="0.666262" stroke-linecap="round" stroke-linejoin="round"/>
<path d="M2.64683 591.317L3.90418 590.762L5.30728 590.577C4.59827 590.541 3.89285 590.7 3.26638 591.039C2.61203 591.256 2.02263 591.638 1.55347 592.149C1.05056 592.618 0.674194 593.21 0.460113 593.869C0.127869 594.505 -0.0294875 595.22 0.00455212 595.94L0.186787 597.382C0.433951 598.277 0.904705 599.093 1.55347 599.749L2.62858 600.581C3.43695 601.074 4.36418 601.33 5.30728 601.321L6.01798 601.228C6.26274 601.205 6.50605 601.168 6.74687 601.117C7.19018 600.963 7.62245 600.777 8.04065 600.563C8.64794 600.238 9.16261 599.761 9.5349 599.176C10.0002 598.651 10.3263 598.015 10.4824 597.327C10.796 595.924 10.602 594.454 9.93579 593.184L9.11576 592.093C8.46784 591.44 7.66423 590.969 6.78329 590.725L5.36195 590.521C4.4274 590.533 3.51143 590.788 2.70149 591.261L2.64683 591.317Z" fill="#406E8C"/>
<path d="M10.2457 576.69L15.3297 578.039C15.0209 577.697 14.6574 577.409 14.2546 577.189L12.9791 576.653C12.5158 576.556 12.0472 576.488 11.5759 576.449C10.6342 576.451 9.70988 576.706 8.89721 577.189C8.09889 577.663 7.43669 578.341 6.97637 579.155C6.51605 579.969 6.27363 580.892 6.27318 581.83C6.24773 582.549 6.40459 583.262 6.72874 583.901C6.94282 584.56 7.31919 585.152 7.82209 585.621C8.47805 586.277 9.28664 586.754 10.1728 587.008C11.0909 587.267 12.061 587.267 12.9791 587.008C13.8613 586.757 14.6647 586.279 15.3115 585.621C15.4666 585.455 15.6068 585.276 15.7306 585.085C16.1994 584.562 16.526 583.925 16.6782 583.236C16.8024 582.765 16.8697 582.281 16.8786 581.793C16.8744 580.852 16.6296 579.928 16.168 579.112C15.7215 578.352 15.0952 577.716 14.3458 577.263C13.9469 577.039 13.5253 576.859 13.0884 576.727C12.1828 576.467 11.2242 576.467 10.3186 576.727L10.2457 576.69Z" fill="#406E8C"/>
<path d="M25.1334 582.977C25.8422 583.011 26.5472 582.852 27.1743 582.515C27.8231 582.297 28.4065 581.915 28.869 581.405C29.3856 580.948 29.7645 580.352 29.9623 579.685C30.2945 579.049 30.4519 578.334 30.4179 577.614L30.2357 576.19C29.9854 575.291 29.5153 574.471 28.869 573.805L27.8121 572.973C26.9949 572.501 26.0734 572.247 25.1334 572.233C24.4253 572.207 23.7225 572.367 23.0925 572.695C22.4436 572.913 21.8603 573.295 21.3978 573.805C20.8863 574.274 20.5087 574.875 20.3044 575.543C19.9633 576.176 19.8053 576.894 19.8489 577.614L20.0311 579.038C20.2783 579.933 20.749 580.749 21.3978 581.405L22.4547 582.237C23.2649 582.726 24.1909 582.982 25.1334 582.977Z" fill="#406E8C"/>
<path d="M408.354 661.986C408.354 664.18 407.713 666.325 406.512 668.15C405.31 669.974 403.603 671.396 401.605 672.236C399.607 673.076 397.409 673.296 395.288 672.868C393.167 672.439 391.219 671.383 389.69 669.831C388.16 668.279 387.119 666.302 386.697 664.15C386.276 661.998 386.492 659.767 387.32 657.74C388.147 655.712 389.548 653.98 391.346 652.761C393.144 651.541 395.258 650.891 397.421 650.891C400.32 650.891 403.101 652.06 405.152 654.14C407.202 656.221 408.354 659.043 408.354 661.986Z" fill="#406E8C"/>
<path d="M265.254 562.796C265.254 562.796 291.13 582.046 275.258 614.111C259.386 646.176 267.586 663.317 283.695 650.872C299.804 638.427 315.147 580.825 265.254 562.796Z" fill="#406E8C"/>
<path d="M348.676 635.894C331.456 713.929 255.432 704.11 249.073 717.35C242.713 730.59 361.705 751.689 348.877 635.986L348.676 635.894Z" fill="#406E8C"/>
<path d="M516.482 371.35C491.123 414.239 490.599 467.798 497.987 517.292C505.375 566.786 519.964 615.302 522.094 665.31C524.224 715.319 511.816 769.359 474.505 802.109" stroke="#487A9B" stroke-width="0.618117" stroke-miterlimit="10"/>
<path d="M267.181 412.423C286.08 394.316 298.058 370.007 300.992 343.8C301.054 342.165 301.445 340.559 302.142 339.082C304.424 335.085 310.831 335.651 313.874 339.168C316.917 342.685 317.441 347.592 317.678 352.206C318.371 366.137 316.866 381.731 306.638 391.047C302.651 394.323 298.222 397.004 293.486 399.007L269.159 410.656" fill="#406E8C"/>
<path d="M323.795 372.225C329.965 362.652 331.352 350.678 330.963 339.252C330.574 327.826 328.596 316.452 328.715 304.941C328.551 302.748 329.021 300.554 330.067 298.628C332.62 294.802 338.773 295.385 342.036 298.628C345.299 301.87 346.449 306.605 347.395 311.117C349.999 323.4 352.315 336.164 349.627 348.413C346.939 360.662 337.962 372.431 325.739 374.232" fill="#406E8C"/>
<path d="M467.59 0.720703C485.29 15.972 492.949 40.007 497.31 63.1498C512.526 142.837 490.886 261.794 450.516 328.083" stroke="#487A9B" stroke-width="0.618117" stroke-miterlimit="10"/>
<path d="M487.065 222.61C488.756 223.983 487.91 226.831 486.811 228.804C476.161 247.812 462.704 265.431 445.832 279.018C428.96 292.605 408.488 302.023 387.018 303.876C381.354 304.374 373.493 302.264 374.017 296.517C374.271 293.514 376.925 291.37 379.528 289.86C387.761 285.16 397.347 283.718 406.577 281.385C439.67 272.825 468.58 252.375 487.944 223.828" fill="#406E8C"/>
<path d="M495.113 220.809C496.195 248.121 497.463 276.222 508.638 301.114C511.816 308.251 515.772 315.01 519.153 322.044C519.924 323.362 520.322 324.87 520.302 326.402C519.947 329.678 516.042 331.325 512.796 331.154C506.135 330.811 500.472 326.007 496.601 320.432C484.175 302.693 485.9 278.881 488.148 257.248C489.613 243.18 491.078 229.112 492.543 215.045" fill="#406E8C"/>
<path d="M500.184 183.994C513.189 206.275 521.265 231.159 523.852 256.922C524.021 258.637 524.055 260.833 522.669 261.966C520.268 263.921 517.022 260.885 515.501 258.174C503.266 236.146 497.625 210.975 499.271 185.743C492.99 204.899 479.955 221.023 462.671 231.017C454.742 235.546 444.92 238.668 436.67 234.757C435.926 228.941 438.614 223.091 442.536 218.785C446.681 214.693 451.383 211.226 456.5 208.492L500.455 182.244" fill="#406E8C"/>
<path d="M507.606 131.823C515.99 146.476 522.216 162.295 526.084 178.778C526.882 181.233 526.988 183.866 526.388 186.378C525.593 188.814 523.007 190.821 520.572 189.998C519.486 189.522 518.542 188.765 517.834 187.802C511.071 179.636 508.434 168.674 507.318 158.037C506.203 147.401 506.321 136.593 503.937 126.162C503.299 139.828 498.483 152.953 490.159 163.716C481.706 174.215 468.926 181.42 455.553 181.832C453.508 181.832 451.056 181.575 450.127 179.722C449.197 177.869 450.279 175.759 451.496 174.146C456.162 168.005 463.127 164.213 469.551 160.01C482.138 151.751 493.228 141.351 502.331 129.267" fill="#406E8C"/>
<path d="M502.078 76.7712C506.515 78.7214 510.381 81.7999 513.303 85.7092C517.648 91.2358 520.701 97.6904 522.232 104.587C523.764 111.484 523.734 118.644 522.145 125.527C519.761 126.128 517.918 123.451 516.904 121.17C513.079 112.412 510.095 103.3 507.995 93.9611C506.473 87.2189 505.324 80.0994 501.232 74.5581C498.635 90.0963 493.157 104.993 485.088 118.459C480.151 126.66 473.828 134.637 465.004 138.102C463.987 138.625 462.869 138.914 461.73 138.95C460.59 138.985 459.457 138.766 458.41 138.308C456.111 136.97 455.435 133.848 455.706 131.171C456.399 124.309 461.386 118.854 466.102 113.913C477.632 101.87 489.156 89.8609 500.674 77.8863" fill="#406E8C"/>
<path d="M489.838 30.125C497.354 33.9323 503.951 39.3746 509.158 46.0642C514.365 52.7538 518.054 60.5263 519.964 68.828C513.354 69.9088 508.366 63.1323 505.053 57.2308C499.902 48.0812 494.752 38.9316 489.601 29.7819C489.426 39.4599 487.129 48.9769 482.877 57.6417C478.625 66.3066 472.525 73.9019 465.02 79.8762C462.789 81.5917 459.408 83.1701 457.413 81.1628C456.901 80.492 456.539 79.7172 456.349 78.8912C456.159 78.0653 456.147 77.2075 456.314 76.3765C457.869 57.5053 472.154 42.5457 485.594 29.353" fill="#406E8C"/>
<path d="M452.494 0.343262C457.265 12.1364 457.552 25.3066 453.302 37.3028C449.051 49.299 440.564 59.2674 429.485 65.2771C426 67.4217 421.98 68.5055 417.905 68.3994C413.865 68.0563 409.807 65.4486 408.793 61.5372C407.491 56.3905 411.362 51.5012 415.386 48.1387C423.247 41.5338 432.647 36.9876 440.508 30.3655C448.369 23.7435 454.827 13.8104 453.508 3.51704C453.339 2.16175 452.19 0.446195 451.074 1.20104" fill="#406E8C"/>
<path d="M499.458 0.257334C507.146 0.170387 514.763 1.74731 521.803 4.88301C528.843 8.01871 535.144 12.6412 540.285 18.4422C543.581 22.1993 546.455 26.6769 546.912 31.6863C547.368 36.6958 544.765 42.2542 540.048 43.8153C539.384 44.0458 538.688 44.1674 537.986 44.1756C534.605 44.1756 532.086 41.019 530.124 38.1711L512.847 13.0725C508.908 7.34258 504.225 1.06365 497.412 0" fill="#406E8C"/>
<path d="M434.912 107.119C435.943 107.186 436.971 106.947 437.871 106.432C438.771 105.918 439.505 105.149 439.984 104.22C440.89 102.359 441.435 100.338 441.59 98.2671C441.911 95.8654 442.165 93.1205 440.694 91.2505C439.74 90.1183 438.434 89.3498 436.991 89.0717C432.579 87.9566 427.981 89.5521 423.822 91.4049C422.36 91.922 421.056 92.8145 420.035 93.9954C419.301 95.0881 418.907 96.3787 418.902 97.701C418.902 100.289 419.629 102.824 420.997 105.009C422.365 107.194 424.319 108.937 426.628 110.036C427.873 110.702 429.246 111.083 430.652 111.151C432.481 111.104 434.224 110.353 435.527 109.05C436.83 107.747 437.595 105.989 437.668 104.134" fill="#406E8C"/>
<path d="M475.333 407.016C475.005 413.902 472.837 420.568 469.061 426.299C467.156 429.141 464.65 431.516 461.725 433.249C458.8 434.982 455.531 436.031 452.155 436.318C448.893 436.455 445.241 435.477 443.567 432.629C441.894 429.781 442.722 426.144 443.567 422.936C452.882 376.616 439.831 369.188 431.733 366.083C423.636 362.978 400.576 372.413 393.763 375.364C387.711 378.006 383.468 383.856 379.901 389.5C379.043 391.318 377.641 392.813 375.894 393.772C374.875 394.077 373.791 394.077 372.771 393.773C371.752 393.468 370.84 392.873 370.146 392.056C368.79 390.385 367.897 388.378 367.56 386.24C364.905 373.751 370.298 360.216 379.918 351.929C389.537 343.643 402.875 343.935 415.318 342.013C452.088 336.335 476.077 383.753 475.333 407.016Z" fill="#406E8C"/>
<path d="M490.193 393.652C490.514 395.848 490.328 398.798 488.266 399.416C486.575 399.965 484.884 398.661 483.735 397.409C473.592 386.875 468.317 372.293 457.819 362.154V361.159L457.362 360.919C457.362 360.919 449.518 354.64 451.716 350.626C452.193 349.553 453.066 348.713 454.147 348.286C455.228 347.859 456.431 347.88 457.497 348.344C466.116 352.699 473.581 359.085 479.269 366.967C484.957 374.85 488.703 384 490.193 393.652Z" fill="#406E8C"/>
<path d="M461.909 340.452C467.431 340.084 472.964 340.986 478.095 343.089C483.226 345.192 487.824 348.442 491.545 352.598C493.204 354.41 494.615 356.442 495.738 358.637C497.252 361.771 497.895 365.265 497.597 368.742C497.633 369.581 497.444 370.415 497.051 371.155C496.658 371.895 496.076 372.513 495.366 372.945C494.615 373.113 493.836 373.099 493.093 372.902C492.349 372.705 491.662 372.332 491.089 371.813C469.348 351.603 457.751 349.116 456.449 347.143C455.147 345.17 456.347 340.812 461.909 340.452Z" fill="#406E8C"/>
<path d="M490.024 341.293C490.853 340.538 491.715 340.195 491.85 339.2C491.938 338.193 491.707 337.183 491.191 336.318C490.249 334.532 488.8 333.074 487.032 332.132C486.123 331.668 485.172 331.294 484.192 331.017C476.382 328.632 468.013 329.301 460.118 331.36C456.588 332.762 453.14 334.365 449.789 336.164L455.588 340.23C470.363 335.941 485.308 344.484 490.024 341.293Z" fill="#406E8C"/>
<path d="M373.95 335.1C372.073 336.232 370.011 338.205 370.789 340.247C371.414 341.962 373.46 342.374 375.184 342.528C389.622 343.763 404.11 338.685 418.479 340.487L419.257 339.869L419.714 340.075C419.714 340.075 429.485 342.237 431.125 337.982C431.641 336.927 431.728 335.708 431.367 334.589C431.007 333.469 430.228 332.537 429.198 331.995C420.413 327.998 410.814 326.195 401.202 326.735C391.59 327.275 382.246 330.144 373.95 335.1Z" fill="#406E8C"/>
<path d="M432.427 323.52C429.198 318.958 425 315.192 420.141 312.501C415.283 309.81 409.891 308.264 404.363 307.977C401.932 307.832 399.493 308.017 397.111 308.526C393.757 309.327 390.683 311.041 388.218 313.484C387.571 313.999 387.072 314.683 386.774 315.461C386.477 316.24 386.392 317.086 386.528 317.91C386.876 318.606 387.382 319.207 388.006 319.664C388.629 320.121 389.351 320.419 390.112 320.535C419.274 324.772 428.538 332.269 430.871 332.046C433.204 331.823 435.672 328.1 432.427 323.52Z" fill="#406E8C"/>
<path d="M413.932 302.024C413.932 300.892 413.695 300 414.371 299.262C415.088 298.559 416.005 298.103 416.992 297.958C418.951 297.562 420.983 297.771 422.824 298.559C423.753 298.973 424.637 299.485 425.461 300.085C432.224 304.7 437.008 311.7 440.474 319.18C441.656 322.836 442.626 326.559 443.381 330.331L436.619 328.358C430.482 314.033 414.49 307.737 413.932 302.024Z" fill="#406E8C"/>
<path d="M459.475 365.74L441.657 346.731C440.941 345.863 440.069 345.141 439.087 344.604C437.809 344.143 436.449 343.962 435.097 344.072C428.431 344.076 421.818 342.868 415.571 340.504C418.273 336.838 421.532 333.63 425.224 331C432.071 326.127 441.319 323.434 448.791 327.191C453.998 329.816 457.43 335.083 459.779 340.47C463.161 348.052 464.699 357.162 460.811 364.487" fill="#406E8C"/>
<path d="M445.68 358.38C448.187 365.466 449.994 372.787 451.073 380.236C452.144 387.734 450.965 395.386 447.692 402.195C444.754 407.536 440.411 411.943 435.148 414.925C427.652 419.481 418.705 420.902 410.195 418.888C405.993 417.824 402.116 415.721 398.909 412.766C395.703 409.811 393.267 406.097 391.819 401.955C390.555 397.499 390.227 392.823 390.855 388.231C391.35 381.052 394.005 374.201 398.463 368.605C411.987 354.88 435.3 345.513 439.645 346.697C443.99 347.881 445.68 358.38 445.68 358.38Z" fill="#406E8C"/>
<path d="M450.516 328.083C451.188 331.472 451.534 334.919 451.547 338.376C451.779 342.596 450.861 346.798 448.893 350.522C445.782 355.669 439.882 358.38 434.354 360.816C432.562 353.954 432.342 346.182 436.248 340.229C438.028 337.764 440.186 335.604 442.638 333.83C444.886 331.923 447.383 330.341 450.059 329.129" fill="#406E8C"/>
<path d="M32.4277 602.812C32.9822 605.726 33.8041 608.579 34.8821 611.331C36.0322 614.731 38.0492 617.743 40.7128 620.037C44.7248 623.103 50.0341 623.267 54.9784 623.315C54.2416 617.345 51.9179 611.136 47.1014 607.804C44.9749 606.448 42.6595 605.451 40.2412 604.85C37.9155 604.088 35.5028 603.667 33.072 603.599" fill="#406E8C"/>
</svg>
