<svg width="425" height="74" viewBox="0 0 425 74" fill="none" xmlns="http://www.w3.org/2000/svg">
<g clip-path="url(#clip0_19_202)">
<path d="M710.96 63.043L-2.88477 63.043L-2.88477 67.0834L710.96 67.0834V63.043Z" fill="#487A9B"/>
<path d="M710.96 69.9597L-2.88477 69.9597L-2.88477 74.0001L710.96 74.0001V69.9597Z" fill="#487A9B"/>
<path d="M307.643 42.409C306.563 43.4654 305.492 44.5063 304.42 45.5704L298.961 50.9679L297.951 51.9549L295.56 54.2681L293.054 51.793L292.491 51.2378L290.61 49.3795L280.432 39.3556L268.665 50.8908L267.647 51.8624L265.257 54.1756L262.743 51.7004L261.379 50.3588L260.307 49.3487L250.129 39.3247L238.347 50.7983L237.344 51.7853L235.463 53.6281L221.583 39.9261L218.499 42.9333C217.42 43.9897 216.34 45.0384 215.276 46.0947L209.809 51.4923L208.853 52.433L206.463 54.7462L203.957 52.271L203.394 51.7236L201.512 49.8653L191.334 39.8413L179.568 51.4074L178.565 52.3944L176.175 54.7076L173.661 52.2325L172.289 50.8908L171.209 49.819L161.031 39.7951L149.264 51.3612L148.262 52.3481L146.365 54.2141V59.0719L147.445 58.0233L160.992 44.7222L168.703 52.3019L169.428 53.0036L171.132 54.6922L173.677 57.1982L176.129 59.6271L177.725 58.0849L191.311 44.7685L201.42 54.7462L203.964 57.2522L206.416 59.6734L208.013 58.1312L221.576 44.8533L235.532 58.4242L236.519 57.4681L250.09 44.1825L257.801 51.7621L258.526 52.4715L260.23 54.1525L262.774 56.6585L265.226 59.0873L266.822 57.5452L280.386 44.2596L290.517 54.2373L293.062 56.7433L295.514 59.1722L297.11 57.63L310.681 44.3367L324.637 58.1004V53.1963L310.72 39.4172L307.643 42.409Z" fill="#487A9B"/>
<path d="M313.164 32.3774L316.078 29.5013L320.959 24.7746L315.824 24.7438L312.354 28.2444L312.369 23.1014L316.109 19.4079L320.998 14.6658L315.847 14.6427L312.385 18.1511L312.393 14.6504L309.424 14.635L309.409 18.498L305.484 14.6195L300.564 14.7121L309.401 23.4252L309.385 28.5914L305.453 24.7129L300.449 24.6975L308.213 32.3774L295.475 44.7454L282.868 32.3003L285.783 29.4242L290.664 24.6975L285.528 24.6666L282.059 28.1673L282.074 23.0243L285.814 19.3308L290.702 14.5964L285.552 14.5656L282.089 18.074L282.097 14.5733L279.128 14.5656L279.113 18.4209L275.188 14.5424L270.269 14.635L279.105 23.3481L279.09 28.5143L275.157 24.6358L270.153 24.6281L277.918 32.3003L265.18 44.676L252.573 32.2232L255.495 29.3471L260.368 24.6281L255.233 24.5895L251.763 28.0902L251.779 22.9471L255.518 19.2537L260.407 14.5193L255.256 14.4962L251.794 17.9969L251.802 14.4962L248.833 14.4885L248.818 18.3438L244.893 14.4653L239.973 14.5579L248.81 23.271L248.794 28.4372L244.862 24.5664L239.858 24.551L247.63 32.2232L235.47 44.0283L224.066 32.7552L226.981 29.8791L231.862 25.1524L226.726 25.1216L223.264 28.6223L223.272 23.4792L227.012 19.7857L231.893 15.0513L226.749 15.0205L223.287 18.5289L223.295 15.0282L220.326 15.0205L220.319 18.8759L216.386 14.9974L211.467 15.0899L220.303 23.803L220.288 28.9692L216.355 25.0907L211.351 25.083L219.116 32.7552L206.378 45.1309L193.771 32.6781L196.693 29.8097L201.566 25.083L196.431 25.0445L192.969 28.5451L192.976 23.4021L196.716 19.7086L201.605 14.9742L196.454 14.9511L192.992 18.4518L193 14.9511L190.031 14.9434L190.016 18.7988L186.091 14.9203L181.164 15.0205L190.008 23.7336L189.992 28.8998L186.06 25.0213L181.056 25.0059L188.82 32.6781L176.082 45.0538L163.475 32.601L166.39 29.7326L171.271 25.0059L166.135 24.9674L162.666 28.468L162.681 23.325L166.421 19.6315L171.302 14.8971L166.158 14.874L162.696 18.3747L162.704 14.874L159.735 14.8663L159.72 18.7217L155.795 14.8432L150.876 14.9434L159.712 23.6565L159.697 28.8227L155.764 24.9442L150.76 24.9288L158.525 32.601L146.365 44.4216L146.35 49.2408L148.246 47.4133L153.652 42.2009L158.61 37.4048L159.681 36.3793L160.992 35.1224L162.65 36.7494L163.383 37.4511V37.4588L166.39 40.4197L173.569 47.4981L176.036 49.9116L178.542 47.4904L183.947 42.278L188.905 37.4742L189.977 36.4564L191.288 35.1995L192.946 36.8188L193.67 37.5282V37.5359L196.685 40.4968L203.872 47.5753L206.331 49.9887L208.837 47.5675L214.243 42.3474L219.208 37.5513L220.272 36.5335L221.583 35.2689L223.241 36.8959L223.974 37.6053V37.613L226.981 40.5739L235.54 48.7704L237.352 47.0278L242.749 41.823L247.707 37.0193L248.779 36.0014L250.09 34.7446L251.748 36.3638L252.48 37.0732V37.0809L255.487 40.0419L262.674 47.1203L265.133 49.5338L267.647 47.1049L273.045 41.8924L278.01 37.0964L279.075 36.0785L280.385 34.8217L282.043 36.4409L282.776 37.1426V37.158L285.783 40.119L292.962 47.1897L295.429 49.6032L297.943 47.182L303.34 41.9695L308.306 37.1735L309.37 36.1479L310.681 34.8911L312.339 36.5181L313.071 37.2197V37.2352L316.078 40.1961L324.637 48.6316L324.653 43.7276L313.164 32.3774Z" fill="#487A9B"/>
<path d="M464.64 43.2573L460.415 39.0858L457.331 42.093C456.259 43.1416 455.179 44.1903 454.115 45.2467L448.648 50.6442L447.646 51.6312L445.256 53.9444L442.75 51.4615L442.187 50.9141L440.305 49.0481L430.127 39.0241L418.368 50.5902L417.366 51.5772L414.976 53.8904L412.47 51.423L411.066 50.0505L409.987 48.9864L399.809 38.9624L388.05 50.5285L387.047 51.5155L385.166 53.3584L371.286 39.6564L368.202 42.6558L364.979 45.8173L359.52 51.2148L358.51 52.2017L356.119 54.515L353.613 52.0321L353.051 51.4846L351.169 49.6186L340.991 39.5947L329.232 51.1608L328.222 52.1478L325.832 54.461L323.318 51.9936L321.945 50.6519L320.866 49.5878L310.688 39.5638L298.967 50.968L297.957 51.955L296.061 53.821V58.6788L297.132 57.6378L310.696 44.3599L318.406 51.9396L319.131 52.649L320.851 54.3376L323.403 56.8436L325.847 59.2648L327.443 57.7226L341.006 44.4525L351.138 54.4301L353.683 56.9361L356.112 59.3727L357.708 57.8306L371.279 44.5064L385.243 58.085L386.23 57.1289L399.785 43.851L407.496 51.4307L408.221 52.1401L409.925 53.8287L412.477 56.3347L414.922 58.7559L416.518 57.2137L430.081 43.9513L440.213 53.9058L442.765 56.4118L445.209 58.833L446.805 57.2908L460.415 44.0052L464.178 47.7064C464.324 46.2645 464.386 44.7223 464.64 43.2573Z" fill="#487A9B"/>
<path d="M465.681 39.903C466.173 38.7948 466.811 37.7574 467.578 36.8187L462.867 32.1923L465.812 29.3008L470.693 24.5741L465.558 24.5355L462.088 28.0362V22.8931L465.812 19.2074L470.701 14.473H465.558L462.088 17.9737V14.4499H459.12V18.3052L455.195 14.4499L450.268 14.5501L459.104 23.2632V28.4294L455.164 24.5741H450.167L457.932 32.2463L445.178 44.5526L432.571 32.1075L435.486 29.2314L440.367 24.5047L435.239 24.4661L431.769 27.9745V22.8314L435.502 19.138L440.367 14.3959H435.224L431.754 17.8966V14.3728H428.801V18.2281L424.876 14.3728L419.949 14.4653L428.801 23.1322V28.2984L424.861 24.443H419.864L427.629 32.1537L414.922 44.4755L402.276 32.0304L405.191 29.1543L410.064 24.4276L404.936 24.389L401.466 27.8974V22.7543L405.198 19.0609L410.087 14.3188H404.944L401.474 17.8195V14.2957H398.505V18.151L394.581 14.2957L389.653 14.3882L398.498 23.1013V28.2675L394.558 24.4121L389.561 24.4121L397.326 32.1229L385.174 43.9203L373.769 32.5624L376.684 29.6863L381.565 24.9596H376.43L372.96 28.4603V23.3249L376.692 19.6315L381.58 14.8894H376.437L372.967 18.3901V14.8277H369.999V18.6831L366.074 14.8277L361.147 14.9202L369.991 23.6334V28.7996L366.051 24.9442H361.054L368.819 32.6164L356.081 44.9304L343.474 32.4853L346.389 29.6092L351.269 24.8825L346.134 24.8439L342.664 28.3523V23.2093L346.396 19.5158L351.285 14.7737L346.142 14.7737L342.672 18.2744V14.7583H339.703V18.6137L335.779 14.7583L330.851 14.8508L339.688 23.564V28.7302L335.748 24.8748L330.751 24.8748L338.516 32.5855L325.778 44.9227L313.178 32.3851L316.093 29.5089L320.966 24.7823L315.839 24.7823L312.369 28.2752V23.1322L316.101 19.4387L320.989 14.7043L315.846 14.7043L312.369 18.1819V14.6503H309.4V18.5057L305.475 14.6503L300.548 14.7429L309.385 23.456V28.6222L305.445 24.7668H300.448L308.213 32.4776L296.061 44.221V49.048L297.957 47.2128L303.355 42.0003L308.313 37.2043L309.377 36.1864L310.688 34.9219L312.369 36.5489L313.101 37.2505L316.116 40.2115L323.295 47.2899L325.755 49.6957L328.268 47.2745L333.666 42.062L338.585 37.2814L339.672 36.2404L340.983 34.9759L342.641 36.6028L343.374 37.3045L346.389 40.2654L353.567 47.3362L356.027 49.7496L358.541 47.3285L363.938 42.116L368.896 37.3199L369.96 36.2944L371.271 35.0375L372.929 36.6645L373.661 37.3662L376.676 40.3271L385.243 48.5776L387.047 46.835L392.445 41.6225L397.403 36.8264L398.467 35.8009L399.778 34.5441L401.435 36.171L402.207 36.8727L405.221 39.8259L412.4 46.9044L414.829 49.3487L417.343 46.9275L422.74 41.7151L427.698 36.919L428.801 35.878L430.112 34.6212L431.739 36.2404L432.51 36.9421L435.525 39.903L442.68 47.0355L445.14 49.4489L447.654 47.0278L453.051 41.8153L458.001 37.0115L459.066 35.9937L460.415 34.6983L462.073 36.3175L462.805 37.0269L465.681 39.903Z" fill="#487A9B"/>
<path d="M134.698 47.9763C134.661 46.8118 134.793 45.6481 135.092 44.5219L130.465 39.8954L127.381 42.9026L124.158 46.064L118.699 51.4615L117.673 52.4331L115.283 54.7463L112.777 52.2634L112.214 51.7083L110.348 49.8962L100.17 39.8723L88.3876 51.3767L87.3775 52.3637L84.9872 54.6769L82.4735 52.2017L81.1087 50.8909L80.0292 49.8191L69.851 39.7952L58.0922 51.3613L57.0821 52.3483L55.2006 54.1294L41.3213 40.4352L38.237 43.4346C37.1575 44.491 36.078 45.5397 35.0139 46.596L29.5547 51.9936L28.614 52.9497L26.2237 55.2629L23.6714 52.8186L23.1086 52.2634L21.2271 50.4051L11.049 40.3812L-0.686779 51.8856L-1.72002 52.8726L-2.49109 53.6437C-2.67615 55.448 -2.83807 57.2137 -3 58.9795L-2.56049 58.5554L11.0104 45.2698L21.1423 55.2475L23.6869 57.7535L26.1389 60.1824L27.735 58.6402L41.3059 45.3469L55.27 58.9178L56.2493 57.9617L69.8125 44.7223L77.5232 52.2943L78.248 53.0037L79.9521 54.6846L82.5043 57.1906L84.9487 59.6195L86.5448 58.0773L100.1 44.7994L110.24 54.7463L112.792 57.2523L115.236 59.6812L116.833 58.139L130.396 44.838L134.799 49.1791C134.76 48.7782 134.721 48.3772 134.698 47.9763Z" fill="#487A9B"/>
<path d="M135.793 40.6125L136.402 41.214C137.004 40.1964 137.732 39.2586 138.569 38.4227L132.878 32.7938L135.793 29.9177L140.674 25.1987H135.538L132.069 28.6994V23.5564L135.808 19.8629L140.697 15.1285H135.546L132.084 18.6292V15.0668H129.115V18.9222L125.191 15.0668L120.271 15.1594L129.108 23.8725V29.0387L125.175 25.1833H120.171L127.936 32.8941L115.197 45.2313L102.59 32.7167L105.505 29.8483L110.386 25.1216H105.251L101.781 28.6223V23.4793L105.52 19.7858L110.409 15.0514L105.258 15.0514L101.812 18.5058V14.9897H98.8353V18.8451L94.9105 14.9897L89.9834 15.09L98.8276 23.8031V28.9693L94.8951 25.1139L89.8908 25.1139L97.6555 32.8247L84.902 45.0925L72.2949 32.6473L75.2096 29.7712L80.0905 25.0445L74.9551 25.0445L71.4853 28.5298V23.3867L75.225 19.6933L80.1136 14.9512L74.9628 14.9512L71.493 18.4518V14.9512H68.5552V18.8065L64.6305 14.9512L59.7033 15.0437L68.5475 23.7568V28.923L64.615 25.0677H59.6108L67.3755 32.7399L55.1925 44.4448L43.7883 33.1562L46.703 30.2878L51.5839 25.5612L46.4485 25.5226L42.9787 29.0233V23.8802L46.7338 20.2022L51.6147 15.4678L46.4717 15.4678L43.0096 18.9685V15.4215H40.0486V19.2769L36.1239 15.4215L31.2044 15.5218L40.0255 24.2272V29.3934L36.0853 25.538L31.0888 25.538L38.838 33.1562L26.0999 45.4934L13.4929 33.1023L16.4075 30.2262L21.2884 25.4995L16.1531 25.4995L12.6832 29.0001V23.8648L16.4229 20.1713L21.3193 15.4215L16.1762 15.4215L12.7141 18.9222V15.3676H9.75315V19.2229L5.82839 15.3676L0.854965 15.4215L9.69918 24.1347V29.3009L5.75899 25.4455H0.777857L8.5657 33.0945L-2.29102 43.6274C-2.29102 44.9614 -2.29102 46.303 -2.29102 47.6447C-2.29102 47.9146 -2.29102 48.1845 -2.29102 48.4543L-1.72813 47.9069L3.66938 42.6944L8.62739 37.8983L9.69918 36.8728L11.01 35.616L12.6678 37.2429L13.3926 37.9446L16.4075 40.9055L23.5862 47.984L26.0537 50.3974L28.5596 47.9763L33.9572 42.7638L38.9152 37.96L39.987 36.9422L41.2978 35.6854L42.9556 37.3046L43.6804 38.014L46.6953 40.9749L55.2619 49.1946L57.0662 47.4519L62.4637 42.2395L67.4217 37.4434L68.4935 36.4179L69.8044 35.161L71.4622 36.788L72.2332 37.4897L75.2404 40.4506L82.4191 47.5291L84.8866 49.9425L87.3926 47.5213L92.7901 42.3089L97.7481 37.5051L98.7813 36.495L100.092 35.2381L101.75 36.8574L102.482 37.5668L105.49 40.5277L112.661 47.6139L115.128 50.0273L117.642 47.5985L123.039 42.3937L127.997 37.5899L129.069 36.5721L130.395 35.3152L132.053 36.9345L132.824 37.6362L135.793 40.6125Z" fill="#487A9B"/>
<path d="M149.672 50.8909L148.97 51.5771L147.968 52.5641L145.578 54.8773L143.087 52.433L141.722 51.0914L140.635 50.0196L130.457 39.9956L118.706 51.4846L117.703 52.4716L115.799 54.3376V59.1954L116.878 58.1467L130.395 44.8765L138.106 52.433L138.877 53.2041L140.581 54.8928L143.133 57.3988L145.585 59.8199L147.174 58.2778L149.634 55.872C149.672 54.168 149.672 52.5179 149.672 50.8909Z" fill="#487A9B"/>
<path d="M150.034 40.867L145.524 45.2467L132.917 32.7553L135.831 29.8869L140.704 25.1602L135.569 25.1217L132.107 28.6224V23.4793L135.839 19.7858L140.728 15.0515L135.585 15.0515L132.13 18.5059V15.0283H129.162V18.8837L125.237 15.0283L120.31 15.1286L129.146 23.8417V29.0079L125.206 25.1525H120.209L127.974 32.8247L115.799 44.5759V49.3951L117.696 47.5676L123.093 42.3552L128.082 37.5514L129.146 36.5336L130.457 35.2767L132.115 36.896L132.847 37.6054L135.862 40.5663L143.041 47.6448L145.501 50.0582L148.014 47.637L149.865 45.8482C149.896 44.1826 149.957 42.5017 150.034 40.867Z" fill="#487A9B"/>
<path d="M712.487 0L-1.35742 0L-1.35742 10.9261L712.487 10.9261V0Z" fill="#487A9B"/>
</g>
<defs>
<clipPath id="clip0_19_202">
<rect width="425" height="74" fill="white"/>
</clipPath>
</defs>
</svg>
