<svg width="729" height="875" viewBox="0 0 729 875" fill="none" xmlns="http://www.w3.org/2000/svg">
<path d="M535.89 289C503.979 268.795 492.633 227.431 492.029 189.724C491.561 159.815 496.668 128.622 514.154 104.333C537.878 71.2732 574.019 63.3389 608.835 47.6258C647.394 30.1237 685.075 22.0921 728 30.1237" stroke="#E0D8C7" stroke-linecap="round" stroke-linejoin="round"/>
<path d="M459.387 134.061C448.485 145.367 442.503 160.456 438.666 175.603C428.042 218.191 432.445 263.097 451.142 302.863C452.145 304.969 453.877 307.425 456.179 306.937C457.753 306.626 458.678 304.988 459.347 303.565C473.122 274.44 472.197 240.305 464.168 209.153C461.728 199.757 459.741 190.283 457.084 180.945C453.877 169.755 450.079 146.167 463.617 131" fill="#E0D8C7"/>
<path d="M532 301C532.272 304.958 532.93 308.881 533.962 312.713C534.984 317.418 537.285 321.753 540.614 325.246C545.696 329.989 553.093 331.102 560 332C560 323.957 557.822 315.329 551.661 310.097C548.921 307.939 545.855 306.226 542.576 305.021C539.455 303.618 536.153 302.652 532.765 302.152" fill="#E0D8C7"/>
<path d="M82.0185 480.104C82.403 472.323 84.9005 464.792 89.2456 458.311C91.4382 455.101 94.3261 452.421 97.6971 450.466C101.068 448.512 104.836 447.333 108.725 447.017C112.485 446.843 116.693 447.967 118.641 451.182C120.589 454.398 119.595 458.505 118.641 462.108C107.907 514.411 122.946 522.818 132.277 526.305C141.608 529.792 168.178 519.176 176.029 515.825C183.022 512.861 187.911 506.139 192.002 499.882C192.989 497.824 194.605 496.129 196.619 495.039C197.793 494.692 199.043 494.691 200.218 495.035C201.393 495.378 202.444 496.053 203.242 496.976C204.816 498.863 205.846 501.14 206.222 503.563C209.281 517.665 203.067 532.93 191.983 542.305C180.899 551.681 165.529 551.313 151.192 553.483C108.803 559.817 81.1809 506.371 82.0185 480.104Z" fill="#E0D8C7"/>
<path d="M65.1437 495.617C64.7728 493.166 64.9876 489.944 67.3885 489.153C69.3405 488.516 71.1949 489.983 72.6003 491.41C84.3122 503.238 90.422 519.657 102.524 531.041V532.16L103.032 532.43C103.032 532.43 112.089 539.511 109.551 544.006C109.007 545.21 108.009 546.157 106.769 546.643C105.529 547.13 104.146 547.118 102.915 546.611C92.9592 541.707 84.3358 534.518 77.7649 525.647C71.194 516.776 66.8664 506.479 65.1437 495.617Z" fill="#E0D8C7"/>
<path d="M98.1537 555.913C91.7996 556.32 85.4352 555.295 79.5314 552.914C73.6275 550.533 68.3353 546.857 64.0462 542.158C62.142 540.113 60.5253 537.819 59.2404 535.338C57.4861 531.793 56.7391 527.835 57.0807 523.895C57.0419 522.942 57.2619 521.997 57.7174 521.159C58.173 520.321 58.8472 519.622 59.6684 519.135C60.5288 518.941 61.4233 518.956 62.2765 519.179C63.1298 519.403 63.9169 519.827 64.5715 520.417C89.5928 543.285 102.94 546.121 104.438 548.356C105.936 550.59 104.633 555.505 98.1537 555.913Z" fill="#E0D8C7"/>
<path d="M65.1635 554.817C64.1988 555.679 63.1947 556.063 63.0175 557.174C62.925 558.302 63.2006 559.428 63.805 560.394C64.9119 562.383 66.5965 564.009 68.6481 565.07C69.7036 565.58 70.8039 565.997 71.936 566.316C81.0316 568.961 90.7769 568.233 99.9709 565.914C104.087 564.36 108.104 562.568 112 560.547L105.247 556.024C87.9616 560.797 70.6563 551.252 65.1635 554.817Z" fill="#E0D8C7"/>
<path d="M199.177 561.533C201.332 560.247 203.699 558.058 202.807 555.773C202.088 553.853 199.74 553.392 197.76 553.219C181.205 551.837 164.552 557.52 148.054 555.504L147.181 556.195L146.637 555.965C146.637 555.965 135.419 553.546 133.536 558.308C132.939 559.488 132.836 560.853 133.25 562.108C133.665 563.363 134.563 564.405 135.749 565.009C145.834 569.481 156.855 571.5 167.89 570.895C178.925 570.291 189.653 567.08 199.177 561.533Z" fill="#E0D8C7"/>
<path d="M131.79 574.889C135.516 580.189 140.367 584.565 145.982 587.691C151.597 590.816 157.831 592.61 164.22 592.939C167.031 593.117 169.853 592.903 172.606 592.302C176.479 591.371 180.032 589.388 182.888 586.564C183.652 585.974 184.245 585.185 184.606 584.281C184.967 583.376 185.083 582.389 184.941 581.424C184.541 580.618 183.958 579.921 183.241 579.391C182.523 578.861 181.692 578.512 180.816 578.375C147.077 573.454 136.365 564.728 133.667 565.007C130.969 565.285 128.018 569.569 131.79 574.889Z" fill="#E0D8C7"/>
<path d="M152.954 599.147C152.954 600.433 153.227 601.466 152.447 602.304C151.62 603.102 150.563 603.62 149.426 603.784C147.165 604.228 144.822 603.984 142.701 603.083C141.637 602.607 140.619 602.033 139.661 601.368C131.864 596.127 126.348 588.178 122.352 579.664C120.987 575.512 119.868 571.283 119 567L126.796 569.241C133.872 585.509 152.311 592.62 152.954 599.147Z" fill="#E0D8C7"/>
<path d="M101.153 527L121.361 548.689C122.173 549.681 123.164 550.505 124.281 551.116C125.733 551.642 127.278 551.849 128.814 551.723C136.388 551.728 143.9 553.107 151 555.794C147.935 559.988 144.233 563.656 140.032 566.658C132.348 572.198 121.745 575.271 113.255 570.984C107.339 567.99 103.439 562 100.769 555.853C96.9275 547.201 95.1987 536.787 99.5975 528.449" fill="#E0D8C7"/>
<path d="M116.659 535.632C113.763 527.598 111.681 519.293 110.443 510.842C109.21 502.344 110.564 493.671 114.328 485.955C117.703 479.893 122.693 474.888 128.74 471.498C137.358 466.346 147.632 464.735 157.409 467.003C162.242 468.207 166.7 470.594 170.385 473.949C174.07 477.304 176.866 481.523 178.522 486.228C179.982 491.28 180.366 496.584 179.649 501.794C179.06 509.925 176.011 517.684 170.908 524.035C155.37 539.601 128.585 550.245 123.593 548.883C118.601 547.521 116.659 535.632 116.659 535.632Z" fill="#E0D8C7"/>
<path d="M124.4 535C123.545 528.507 124.064 521.908 125.925 515.625C127.785 509.342 130.946 503.514 135.206 498.513C135.424 498.276 135.682 498 136 498" stroke="#FAF2E1" stroke-linecap="round" stroke-linejoin="round"/>
<path d="M129 533L150 499V500.076" stroke="#FAF2E1" stroke-linecap="round" stroke-linejoin="round"/>
<path d="M129 537C141.918 531.408 152.754 521.971 160 510" stroke="#FAF2E1" stroke-linecap="round" stroke-linejoin="round"/>
<path d="M111.212 570C110.457 566.168 110.065 562.272 110.039 558.365C109.78 553.596 110.824 548.847 113.057 544.635C116.595 538.818 123.306 535.734 129.593 533C131.631 540.757 131.881 549.541 127.44 556.174C125.414 558.959 122.961 561.401 120.172 563.407C117.612 565.554 114.772 567.335 111.731 568.701" fill="#E0D8C7"/>
<path d="M158.811 514.794L160.285 515L161.759 514.794C163.126 514.31 164.296 513.332 165.072 512.026C165.532 511.359 165.804 510.563 165.857 509.733C166.048 508.948 166.048 508.123 165.857 507.337L165.283 505.912C164.813 505.063 164.155 504.353 163.368 503.847L162.047 503.227C161.073 502.959 160.052 502.959 159.079 503.227L160.572 503L162.047 503.227C161.328 502.978 160.561 502.942 159.825 503.124C159.089 503.148 158.374 503.391 157.757 503.826C157.119 504.188 156.578 504.722 156.187 505.375C155.691 505.956 155.347 506.669 155.192 507.441L155 509.031C154.995 510.097 155.253 511.144 155.747 512.067L156.628 513.286C157.308 514.015 158.153 514.542 159.079 514.814L158.811 514.794Z" fill="#FAF2E1"/>
<path d="M145.726 492.687C145.003 493.354 144.483 494.182 144.217 495.089C143.928 496.03 143.928 497.025 144.217 497.965L144.816 499.271C145.185 499.897 145.718 500.43 146.366 500.822C146.735 501.154 147.19 501.395 147.689 501.522C148.4 501.867 149.199 502.031 150.003 501.995C150.8 502.031 151.593 501.867 152.296 501.522C153.038 501.301 153.707 500.91 154.239 500.387L155.168 499.271C155.602 498.66 155.851 497.955 155.892 497.227C156.036 496.751 156.036 496.247 155.892 495.771C155.844 495.044 155.595 494.341 155.168 493.727L154.239 492.611C153.504 491.943 152.593 491.46 151.594 491.211L150.003 491.003C149.2 490.976 148.403 491.139 147.689 491.476C147.189 491.61 146.734 491.857 146.366 492.195C145.714 492.575 145.18 493.103 144.816 493.727L149.941 491.022C149.407 490.979 148.869 491.05 148.37 491.23C147.379 491.473 146.475 491.949 145.746 492.611L145.726 492.687Z" fill="#FAF2E1"/>
<path d="M134.989 501.997C135.792 502.027 136.588 501.85 137.302 501.481C138.03 501.213 138.692 500.791 139.241 500.242C139.79 499.693 140.213 499.031 140.481 498.302C140.849 497.589 141.027 496.793 140.997 495.991L140.77 494.401C140.505 493.4 139.978 492.488 139.242 491.76L138.024 490.831C137.108 490.28 136.058 489.995 134.989 490.005C134.193 489.966 133.401 490.145 132.698 490.521C131.957 490.763 131.289 491.189 130.758 491.76C130.188 492.283 129.762 492.944 129.519 493.679C129.152 494.393 128.974 495.189 129.003 495.991L129.209 497.58C129.493 498.584 130.026 499.499 130.758 500.242L131.976 501.171C132.893 501.699 133.931 501.984 134.989 501.997Z" fill="#FAF2E1"/>
<path d="M214.316 421.479C216.533 425.523 219.549 429.108 222.005 432.923C224.651 436.745 226.042 441.234 225.999 445.816C225.802 448.439 224.886 450.967 223.344 453.146C221.802 455.325 219.687 457.079 217.212 458.232C216.509 458.62 215.73 458.868 214.923 458.96C214.116 459.052 213.298 458.986 212.519 458.766C211.543 458.325 210.688 457.672 210.023 456.859C205.423 451.722 202.265 445.552 200.847 438.93C199.429 432.308 199.796 425.45 201.915 419" fill="#E0D8C7"/>
<path d="M202 418.942C200.691 424.29 199.421 429.657 198.191 435.043C197.327 438.613 196.384 442.378 193.812 445.026C192.562 446.209 191.163 447.224 189.649 448.046C187.273 449.419 184.328 450.772 181.913 449.478C179.498 448.183 178.928 444.888 179.007 442.104C179.392 431.619 183.579 421.631 190.788 414" fill="#E0D8C7"/>
<path d="M191 414.387C189.039 418.052 187.077 421.658 184.861 425.187C181.291 431.003 177.016 436.82 170.583 439.36C167.739 440.426 163.816 440.348 162.463 437.673C161.846 436.074 161.846 434.308 162.463 432.709C164.113 427.129 166.935 421.956 170.743 417.526C174.552 413.096 179.262 409.51 184.567 407" fill="#E0D8C7"/>
<path d="M183 407.611L172.594 415.897C169.601 418.485 166.289 420.681 162.739 422.431C159.153 424.175 155.033 424.478 151.229 423.277C150.459 423.116 149.735 422.786 149.108 422.312C148.481 421.837 147.967 421.23 147.603 420.534C147.24 419.838 147.035 419.069 147.004 418.285C146.973 417.5 147.117 416.718 147.425 415.995C148.761 412.505 151.048 409.458 154.028 407.198C160.83 401.425 169.047 397.56 177.836 396" fill="#E0D8C7"/>
<path d="M176.142 396.385C165.893 399.019 155.092 401.653 144.922 398.693C142.923 398.205 141.054 397.264 139.452 395.936C138.659 395.267 138.026 394.417 137.601 393.454C137.177 392.491 136.972 391.44 137.003 390.382C137.17 389.195 137.618 388.069 138.307 387.104C138.996 386.138 139.905 385.364 140.953 384.849C144.041 383.389 147.442 382.777 150.826 383.072C161.43 383.072 172.726 384.522 181 391.362" fill="#E0D8C7"/>
<path d="M202 397C209.811 380.489 230.471 367.469 249.198 367.526C253.923 367.526 258.61 368.332 263.316 368.351C271.565 368.231 279.604 365.776 286.466 361.279C293.328 356.781 298.722 350.434 302 343" stroke="#E0D8C7" stroke-miterlimit="10"/>
<path d="M244.022 387.975C243.913 393.065 244.209 398.155 244.906 403.196C245.829 409.457 246.829 416.07 250.808 421C257.882 414.387 259.535 403.607 258.862 393.845C258.286 385.451 255.921 376.511 249.405 371.306L245.56 368C246.729 369.421 247.517 371.127 247.847 372.95C248.02 375.454 244.118 380.932 244.022 387.975Z" fill="#E0D8C7"/>
<path d="M216.648 359.098C209.493 355.828 203.377 350.551 199 343.87C207.217 342.25 215.704 342.9 223.598 345.754C231.491 348.608 238.509 353.564 243.936 360.116C245.068 361.384 245.933 362.879 246.476 364.507C246.763 365.651 246.938 366.821 247 368C236.432 367.008 226.137 363.989 216.648 359.098Z" fill="#E0D8C7"/>
<path d="M228 373C226.412 375.296 225.324 378.028 224.832 380.951C224.399 382.714 224.121 384.526 224.002 386.358C223.977 388.684 224.178 391.005 224.599 393.275C224.881 395.263 225.18 397.092 225.462 399" stroke="#E0D8C7" stroke-width="0.99" stroke-linecap="round" stroke-linejoin="round"/>
<path d="M226 373.604C216.324 376.13 206.062 375.208 197 371" stroke="#E0D8C7" stroke-miterlimit="10"/>
<path d="M223.889 396.157C222.992 399.26 222.771 402.521 223.24 405.718C223.709 408.914 224.858 411.973 226.608 414.686C228.846 417.786 231.477 420.581 234.436 423C236.444 418.013 236.521 412.453 234.651 407.412C232.74 402.423 229.013 398.345 224.221 396" fill="#E0D8C7"/>
<path d="M199 371.661C195.669 373.928 191.208 373.01 187.545 371.173C182.714 368.671 178.506 364.214 178 358.8C178.855 358.089 179.852 357.569 180.924 357.275C181.996 356.982 183.118 356.922 184.214 357.1C187.945 357.365 191.484 358.856 194.286 361.341C195.667 362.58 196.788 364.082 197.584 365.76C198.38 367.438 198.835 369.258 198.922 371.114" fill="#E0D8C7"/>
<path d="M195.178 458C195.645 458.004 196.111 458.057 196.566 458.158L196.954 458.257C197.764 458.397 198.537 458.693 199.226 459.128C199.915 459.563 200.506 460.128 200.964 460.789C201.422 461.45 201.738 462.193 201.892 462.974C202.046 463.755 202.035 464.558 201.861 465.336C201.687 466.113 201.352 466.848 200.877 467.497C200.402 468.147 199.797 468.697 199.096 469.115C198.396 469.534 197.616 469.811 196.803 469.932C195.989 470.052 195.159 470.013 194.362 469.816L193.81 469.698C192.331 469.384 191.025 468.552 190.144 467.361C189.262 466.171 188.869 464.708 189.039 463.254C189.209 461.799 189.93 460.458 191.064 459.487C192.198 458.517 193.664 457.987 195.178 458Z" fill="#E0D8C7"/>
<path d="M167.009 449C167.881 449.008 168.74 449.187 169.528 449.526C170.316 449.865 171.015 450.354 171.576 450.962C172.138 451.569 172.549 452.28 172.781 453.046C173.013 453.812 173.061 454.614 172.922 455.399C172.69 456.678 171.969 457.842 170.887 458.684C169.805 459.526 168.432 459.992 167.009 460C165.986 459.982 164.984 459.73 164.095 459.268C163.206 458.806 162.458 458.148 161.919 457.355C161.38 456.561 161.067 455.657 161.01 454.725C160.952 453.793 161.151 452.863 161.589 452.02C162.099 451.109 162.875 450.345 163.832 449.812C164.789 449.279 165.888 448.998 167.009 449Z" fill="#E0D8C7"/>
<path d="M145.034 430C146.032 430.006 147.011 430.261 147.883 430.743C148.755 431.225 149.491 431.917 150.023 432.756V432.854C150.454 433.505 150.751 434.235 150.896 435.002C151.042 435.768 151.034 436.555 150.872 437.319C150.71 438.082 150.398 438.805 149.953 439.448C149.508 440.09 148.94 440.638 148.281 441.061C146.97 441.9 145.38 442.192 143.855 441.875C142.329 441.559 140.99 440.658 140.126 439.369L139.928 439.073C139.355 438.178 139.035 437.146 139.003 436.085C138.97 435.025 139.225 433.975 139.742 433.047C140.258 432.118 141.017 431.345 141.938 430.809C142.859 430.273 143.908 429.994 144.975 430H145.034Z" fill="#E0D8C7"/>
<path d="M132.521 404C133.467 404.001 134.397 404.266 135.224 404.769C136.051 405.272 136.748 405.997 137.249 406.875L137.379 407.079C138.013 408.426 138.168 409.982 137.814 411.446C137.461 412.911 136.624 414.18 135.466 415.007C134.307 415.834 132.91 416.161 131.544 415.925C130.178 415.689 128.941 414.906 128.072 413.727L127.849 413.36C127.32 412.433 127.028 411.368 127.002 410.275C126.976 409.183 127.218 408.102 127.703 407.147C128.187 406.191 128.897 405.395 129.757 404.842C130.618 404.289 131.598 403.998 132.596 404H132.521Z" fill="#E0D8C7"/>
<path d="M216.61 418.309L217 424.424C217 424.424 203.364 428.008 187.584 417.296C171.805 406.585 172 386 172 386C172 386 189.065 389.369 195.844 393.167" fill="#E0D8C7"/>
<path d="M178.231 389.495C181.968 398.802 188.297 406.818 196.452 412.575C200.903 416.098 206.227 418.32 211.844 419H212.306C212.96 419 213.595 419 214.23 419C214.823 418.985 215.414 418.933 216 418.845C215.538 414.71 213.499 407.314 205.572 399.957C197.796 393.242 188.18 389.072 178 388L178.231 389.495Z" fill="#E0D8C7"/>
<path d="M216 421.916C216 421.916 181.84 425.424 175 387" stroke="#FAF2E1" stroke-linecap="round" stroke-linejoin="round"/>
<path d="M34.7202 521C63.8864 472.31 64.4892 411.507 55.9921 355.319C47.495 299.131 30.7147 244.053 28.2647 187.281C25.8147 130.509 40.0867 69.1599 83 32" stroke="#E0D8C7" stroke-miterlimit="10"/>
<path d="M57.0642 464C67.228 446.778 79.3932 430.825 93.3051 416.473C105.727 403.675 119.639 392.041 129.469 377.129C131.674 373.794 133.745 369.799 132.739 365.921C131.539 361.229 126.334 358.708 121.516 358.165C109.713 356.827 98.1811 363.788 90.8284 373.154C83.4757 382.52 79.5285 394.038 75.6974 405.323C69.1187 424.714 62.5529 444.06 56 463.36L57.0642 464Z" fill="#E0D8C7"/>
<path d="M46.1798 442.709C50.1721 450.734 53.1546 459.23 55.0581 468C57.408 439.658 55.3543 411.12 48.9712 383.416C47.3429 376.425 45.3075 369.257 41.004 364.023C36.7006 358.789 29.5088 356.075 24.0423 359.571C18.5757 363.066 16.8893 370.781 17.0056 377.792C17.4126 402.556 35.5181 421.246 46.1798 442.709Z" fill="#E0D8C7"/>
<path d="M60.4634 396C55.8092 351.499 63.6509 330.681 64.7069 321.258C66.9362 301.349 77.633 278.963 94.8613 268.457C97.1533 266.866 99.8834 266.008 102.683 266C108.882 266.406 112.696 273.604 111.894 279.698C111.092 285.793 107.24 291.036 103.544 295.99C93.4142 309.649 61.0696 353.666 60.4047 396" fill="#E0D8C7"/>
<path d="M27.5911 289.591C23.8595 285.131 20.0302 279.041 14.3057 280.127C7.97565 281.33 6.13914 289.63 7.35045 295.932C10.7304 313.657 25.9109 326.301 37.1254 340.535C50.8093 357.973 59.1026 378.977 61 401C61 401 60.0622 385.777 59.6519 381.414C59.2416 377.05 52.2863 319.3 27.5911 289.591Z" fill="#E0D8C7"/>
<path d="M51.4143 321C50.9898 283.821 66.8536 256.798 83.0456 225.255C86.2492 218.993 89.6072 212.517 89.9739 205.492C90.3406 198.467 86.8282 190.64 80.1893 188.546C71.91 185.963 63.7851 192.988 58.9603 200.287C38.812 230.734 43.1736 270.828 48.3072 307.126" fill="#E0D8C7"/>
<path d="M37.3931 196.294C40.451 180.742 47.9854 166.45 59.0505 155.211C72.0179 142.064 89.8045 133.104 98.243 116.593C99.7704 114.165 100.331 111.243 99.8107 108.415C98.0688 102.194 89.3206 102.155 83.2628 104.228C50.2637 115.458 34.0061 151.455 31.432 186.669C30.72 197.751 30.8883 208.872 31.9352 219.927L33.4448 231L37.3931 196.294Z" fill="#E0D8C7"/>
<path d="M35 114C43.7671 98.31 55.753 84.6485 70.1724 73.9108C80.8973 65.9358 92.8485 59.7502 103.087 51.0749C113.325 42.3996 122.006 30.8455 122.941 17.5214C123.33 11.686 121.851 5.26704 117.101 1.96032C110.114 -2.72745 100.712 1.80471 94.1137 7.03711C66.6882 28.6281 50.5716 61.5592 40.2943 94.7626" fill="#E0D8C7"/>
<path d="M35.7784 53.6241C37.7341 45.3436 38.2816 33.7198 30.0679 31.3483C22.2452 29.0936 16.3783 38.2294 14.051 45.9462C-5.70114 146.79 29.2269 199 29.2269 199C29.2269 199 16.7107 118.391 35.7784 53.6241Z" fill="#E0D8C7"/>
<path d="M43 287C43 287 -27.5631 223.438 12.0956 171.004C17.971 170.518 12.1935 215.67 43 283.135" fill="#E0D8C7"/>
<path d="M233 121C249.601 101.482 273.262 84.2549 300 85.0249" stroke="#E0D8C7" stroke-linecap="round" stroke-linejoin="round"/>
<path d="M219.302 142.914C209.616 134.676 204.56 122.367 200.123 110.446C193.556 92.8264 187.492 73.9466 191.057 55.4739C191.114 54.717 191.33 53.9806 191.691 53.3127C192.051 52.6448 192.548 52.0603 193.149 51.5972C195.532 50.2403 198.225 52.7796 199.658 55.125C203.001 60.5719 205.502 66.4925 207.078 72.6867C207.078 64.0028 206.729 54.6792 201.537 47.7398C200.669 46.7394 199.921 45.6398 199.31 44.464C197.76 40.8586 200.472 36.4003 204.23 35.2955C206.151 34.8716 208.151 34.9737 210.02 35.5911C211.888 36.2086 213.555 37.3184 214.846 38.8039C217.397 41.8065 219.143 45.4082 219.922 49.2711C220.871 53.1479 221.433 57.0246 222.711 60.7075C224.316 57.1612 224.962 53.2555 224.585 49.381C224.207 45.5065 222.82 41.7991 220.561 38.6295C218.621 36.512 216.99 34.1299 215.718 31.5544C215.36 30.3476 215.252 29.0804 215.401 27.8305C215.55 26.5806 215.952 25.3742 216.583 24.2853C217.215 23.1964 218.061 22.248 219.072 21.4981C220.082 20.7481 221.235 20.2126 222.46 19.9242C223.565 19.672 224.722 19.7667 225.772 20.1955C226.813 20.7493 227.704 21.5475 228.368 22.5216C236.35 32.8725 237.318 46.8288 238.054 59.874C242.094 48.6881 242.094 36.4406 238.054 25.2547C237.008 22.9136 236.31 20.4321 235.982 17.8889C235.837 16.6101 236.069 15.317 236.646 14.1674C237.224 13.0178 238.124 12.0613 239.236 11.4147C243.111 9.65077 247.159 13.5857 248.922 17.443C253.94 28.2979 252.235 40.9167 250.414 52.7602C253.885 47.3601 256.242 41.3202 257.347 34.9955C258.451 28.6708 258.281 22.189 256.846 15.9311C256.071 12.7134 255.122 8.83665 257.427 6.45245C258.353 5.63569 259.515 5.13528 260.745 5.02375C261.974 4.91223 263.207 5.19538 264.265 5.83217C266.35 7.1627 267.963 9.11578 268.876 11.4147C271.542 17.8663 272.111 24.9936 270.503 31.787C268.864 38.4624 266.526 44.9465 263.529 51.132C271.322 42.7509 276.094 32.0063 277.09 20.6026C277.361 17.6369 277.574 14.1866 279.996 12.4614C283.076 10.2517 287.745 12.694 289.043 16.2412C290.341 19.7885 289.372 23.7234 288.132 27.3094C285.358 35.4298 281.521 43.147 276.722 50.2597C287.667 44.5997 290.902 30.6821 298.613 21.0872C309.016 27.9684 320.193 36.1871 322.712 48.3989C314.055 53.6904 306.282 60.3099 299.678 68.0152C306.078 63.4795 313.09 59.8769 320.503 57.3154C323.234 56.0599 326.318 55.7993 329.221 56.5788C332.011 57.6255 333.89 61.3666 332.049 63.7314C330.784 64.9591 329.15 65.7357 327.4 65.9412C317.48 68.4468 308.724 74.2921 302.603 82.4949L317.946 76.1564C322.305 74.3537 327.013 72.5122 331.507 73.5977C336.001 74.6832 339.895 80.0719 337.532 84.1619C326.793 84.4105 316.229 86.9342 306.536 91.5665C312.271 89.8118 318.317 89.3159 324.262 90.1127C327.254 90.5089 330.127 91.5448 332.684 93.1503C335.241 94.7557 337.423 96.8929 339.082 99.4169C340.031 101.006 340.554 103.429 339.082 104.457C338.216 104.879 337.232 104.995 336.292 104.786C327.604 103.936 318.843 104.183 310.217 105.523C314.739 104.36 319.461 104.208 324.049 105.077C328.562 106.201 332.805 109.574 333.619 114.149C334.374 118.394 332.166 122.542 330.015 126.283C322.007 122.119 312.999 120.267 303.998 120.933C308.861 121 313.622 122.336 317.811 124.81C320.775 126.574 323.622 129.656 322.886 133.009C322.15 136.362 318.159 137.797 314.847 137.351C311.534 136.905 308.589 135.064 305.49 133.862C302.39 132.66 298.574 132.137 295.804 134.114C300.142 135.4 304.276 137.292 308.086 139.735C308.936 140.138 309.621 140.823 310.023 141.673C310.565 143.418 308.783 144.949 307.214 145.88C291.115 155.572 272.344 161.736 253.746 159.565C235.149 157.394 217.035 145.55 211.224 127.775" fill="#E0D8C7"/>
<path d="M218.305 141.349C210.041 134.402 204.043 125.151 201.08 114.781C198.117 104.411 198.324 93.3952 201.674 83.1435C205.031 73.4037 211.317 64.2678 210.77 53.9241C213.885 53.6024 217.028 54.1293 219.866 55.4487C222.704 56.7681 225.13 58.8307 226.887 61.4169C228.643 64.0032 229.664 67.0162 229.841 70.1355C230.018 73.2547 229.343 76.3634 227.89 79.1307C232.692 71.3389 231.599 61.3264 229.842 52.3073C229.374 49.775 229.101 46.6387 231.228 45.1972C233.356 43.7558 236.694 45.4505 238.392 47.6906C244.249 55.4825 242.101 66.3911 238.88 75.527C241.045 70.6271 242.473 65.4349 243.117 60.1186C243.839 54.08 243.624 47.6517 246.669 42.3922C246.921 41.8592 247.339 41.4218 247.86 41.1455C248.875 40.678 250.046 41.4182 250.847 42.2169C255.259 46.5998 256.41 53.4371 255.376 59.5342C253.991 65.6003 251.645 71.4069 248.426 76.7347C252.763 70.0352 256.091 62.737 258.304 55.0734C258.763 52.9044 259.631 50.8421 260.861 48.9958C261.498 48.0861 262.411 47.4054 263.466 47.0546C264.521 46.7037 265.661 46.7013 266.717 47.0478C269.997 48.4893 269.528 53.2423 268.357 56.6123C265.709 64.194 262.226 71.4589 257.972 78.2736C262.741 68.56 270.668 60.7458 280.46 56.1058C282.471 54.9977 284.742 54.4462 287.039 54.5085C288.179 54.5764 289.266 55.015 290.133 55.7572C291 56.4994 291.6 57.5044 291.841 58.6187C291.877 60.1837 291.427 61.7217 290.552 63.0211C284.56 73.952 276.444 83.5809 266.678 91.3445C273.803 83.0461 281.827 74.5335 292.465 71.8648C294.255 71.2897 296.181 71.2897 297.97 71.8648C298.858 72.1672 299.607 72.7786 300.081 73.587C300.554 74.3955 300.719 75.3469 300.547 76.2672C300.118 77.7866 298.595 78.6827 297.248 79.4619C287.956 84.7127 279.375 91.1281 271.715 98.5519C278.68 92.2638 287.129 87.8405 296.272 85.6954C300.937 84.624 307.145 84.9162 308.902 89.3575C309.179 89.9798 309.298 90.6603 309.251 91.3394C309.203 92.0185 308.99 92.6757 308.629 93.2535C307.986 93.9405 307.209 94.49 306.347 94.8684C305.484 95.2468 304.554 95.4463 303.612 95.4547C294.249 96.8802 285.202 99.9048 276.868 104.396C282.51 101.279 288.425 98.1039 294.886 97.8312C301.347 97.5584 308.414 101.24 309.839 107.571C310.347 109.87 309.683 112.83 307.438 113.551C306.249 113.801 305.016 113.727 303.866 113.337C294.978 111.322 285.672 112.295 277.395 116.103C280.891 114.248 284.65 112.934 288.542 112.207C290.491 111.872 292.489 111.951 294.406 112.438C296.323 112.924 298.116 113.808 299.669 115.032C304.08 118.928 304.471 125.512 304.529 131.395C299.161 129.992 293.832 133.343 289.205 136.342C281.093 142.063 272.258 146.687 262.93 150.095C253.53 153.518 243.293 153.927 233.649 151.264C225.523 148.587 218.39 143.538 213.171 136.771" fill="#E0D8C7"/>
<path d="M221.311 144.524C227.65 147.995 235.401 147.335 242.407 145.474C247.479 144.139 252.46 142.487 257.321 140.53C261.128 138.998 265.17 136.924 266.701 133.143C263.767 133.032 260.828 133.136 257.909 133.453C259.872 132.929 261.834 132.348 263.914 131.65C267.333 130.672 270.455 128.873 273 126.415C272.176 125.058 270.233 125.058 268.663 125.251L267.25 125.465C268.736 125.037 270.086 124.243 271.175 123.157C271.398 122.953 271.543 122.679 271.587 122.382C271.587 122.201 271.545 122.023 271.463 121.862C271.381 121.7 271.262 121.56 271.116 121.451C270.419 121.01 269.634 120.723 268.815 120.609C267.995 120.495 267.16 120.558 266.367 120.792L246.43 123.817C253.721 121.242 260.751 117.996 267.427 114.122C269.213 113.095 271.175 111.699 271.352 109.643C264.025 111.582 256.932 114.299 250.197 117.748C256.084 113.017 263.679 109.857 268.114 103.691C268.82 102.721 269.252 101.073 268.114 100.608C267.681 100.463 267.212 100.463 266.779 100.608C259.371 102.502 252.529 106.118 246.822 111.156C249.373 108.15 252.552 105.746 255.378 102.993C258.377 100.372 260.493 96.9085 261.442 93.0658C260.904 92.8904 260.33 92.8571 259.776 92.9694C259.221 93.0817 258.706 93.3355 258.282 93.7056C251.212 98.13 245.145 103.952 240.464 110.807C244.585 104.507 248.194 97.8938 251.257 91.03C251.885 89.634 252.258 87.5787 250.845 86.9389C250.457 86.8175 250.045 86.7876 249.643 86.8516C249.241 86.9156 248.86 87.0716 248.529 87.3073C246.102 88.9052 244.119 91.0782 242.76 93.6281C239.699 98.3504 237.072 103.334 234.911 108.519C237.39 102.425 239.288 96.1152 240.582 89.6727C240.798 89.0253 240.837 88.3331 240.696 87.666C240.554 86.9988 240.238 86.3802 239.777 85.8725C237.273 88.8113 235.344 92.184 234.086 95.819C232.124 100.492 230.319 105.223 228.553 109.973C229.455 103.439 230.338 96.9242 231.241 90.4095C231.516 88.4706 231.555 85.9694 229.789 85C225.191 93.2007 221.846 102.027 219.859 111.194C220.193 104.874 220.546 98.5335 220.88 92.2127C220.88 91.282 220.703 90.0217 219.761 89.983C219.353 90.0048 218.967 90.1779 218.682 90.4677C216.934 92.2608 215.719 94.4944 215.169 96.9242C213.743 101.389 212.757 105.98 212.226 110.632L211.912 109.721C208.262 131.223 216.425 141.829 221.311 144.524Z" fill="#E0D8C7"/>
<path d="M218.268 137.71C214.29 132.541 214.155 124.688 216.723 118.638C217.999 115.592 220.157 113.032 222.896 111.313C225.636 109.594 228.823 108.801 232.017 109.043C234.781 109.479 237.39 110.653 239.586 112.448C241.526 113.924 243.08 115.88 244.105 118.138C244.92 120.373 245.184 122.784 244.874 125.152C244.564 127.521 243.689 129.771 242.328 131.7C239.548 135.557 235.792 138.539 231.476 140.314C228.953 141.638 226.123 142.2 223.308 141.937C223.308 141.937 221.609 142.017 218.268 137.71Z" fill="#E0D8C7"/>
<path d="M540 79C491.146 103.069 445.302 138.92 423.806 188.808C411.573 217.193 407.899 248.359 400.356 278.241C392.813 308.123 379.974 338.666 355 357" stroke="#E0D8C7" stroke-linecap="round" stroke-linejoin="round"/>
<path d="M403.525 261C398.26 273.962 388.497 282.674 377.633 291.678C364.57 302.486 352.488 314.788 344.1 329.419C335.712 344.05 331.154 361.281 333.708 377.93C348.029 378.764 361.996 372.108 372.388 362.232C382.778 352.346 390.892 340.368 396.178 327.11C405.725 303.359 406 261.019 406 261.019L403.525 261Z" fill="#E0D8C7"/>
<path d="M418 206C407.026 232.848 376.178 260.026 359.082 272.004C340.773 284.72 317.104 286.797 295 290C315.441 244.477 361.508 211.319 411.369 206.097L418 206Z" fill="#E0D8C7"/>
<path d="M711 27.0329C679.246 14.9147 646.167 4.79994 612.191 4.04133C578.216 3.28273 542.936 12.9306 518 36C574.164 27.0913 633.621 13.3586 692.181 23.4927C709.13 26.3132 711 27.0329 711 27.0329Z" fill="#E0D8C7"/>
<path d="M618 43C618 43 569.414 52.0642 543.76 51.226C528.077 50.7192 513.462 49.0233 500.48 50.8166C491.64 52.1898 482.983 54.5568 474.671 57.873C458.601 63.9879 443.278 71.9207 429 81.5178C429 81.5178 542.517 105.377 618 43Z" fill="#E0D8C7"/>
<path d="M326 193.999C357.958 194.174 387.698 178.047 413.798 159.603C439.43 141.471 463.506 120.514 492 107.426C426.604 102.713 359.574 137.439 326 193.999Z" fill="#E0D8C7"/>
<path d="M322 342.984C249.807 344.152 194.003 280.383 197.125 209.976C198.061 190.176 203.075 170.781 211.856 153" stroke="#E0D8C7" stroke-miterlimit="10"/>
<path d="M271.558 204.743C274.634 203.69 277.985 203.758 281.014 204.937C282.496 205.576 283.691 206.732 284.376 208.188C285.06 209.644 285.187 211.299 284.731 212.841C284.157 214.039 283.343 215.107 282.337 215.979C267.569 230.431 249.26 242.636 241.069 261.543C237.124 270.972 235.934 281.318 237.635 291.39C239.335 301.462 243.857 310.852 250.681 318.479L255.739 324L246.011 317.2C246.011 317.2 215.774 280.548 247.49 221.888C254.377 209.296 271.558 204.743 271.558 204.743Z" fill="#E0D8C7"/>
<path d="M197 232C186.166 229.419 172.41 155.618 148.58 124.475C139.071 112.061 127.186 99.9988 125.237 84.4761C124.708 81.647 125.069 78.723 126.27 76.1088C127.474 74.2519 129.199 72.7937 131.227 71.9171C133.255 71.0406 135.496 70.7849 137.668 71.1822C142.019 72.0505 146.057 74.0762 149.359 77.0472C169.292 93.1368 178.431 119.158 182.971 144.416C187.511 169.675 188.485 195.735 196.61 220.114" fill="#E0D8C7"/>
<path d="M181.993 270.101C177.918 268.891 173.704 268.228 169.459 268.127C162.323 267.582 155.164 268.794 148.588 271.659C145.337 273.148 142.459 275.361 140.168 278.136C137.876 280.91 136.231 284.173 135.354 287.682C133.877 294.766 137.103 302.936 143.593 305.935C150.531 309.152 158.518 306.053 165.767 303.626C188.212 296.128 214.136 295.871 234.308 308.382L238 310L231.412 303.173C231.412 303.173 209.355 280.421 181.993 270.101Z" fill="#E0D8C7"/>
<path d="M128.571 216C134.396 215.609 138.105 209.205 139.348 203.385C140.087 200.468 140.199 197.426 139.678 194.461C137.891 185.908 127.328 180.636 119.328 184.053C111.328 187.471 107.677 198.347 111.561 206.119C113.711 209.959 117.194 212.866 121.344 214.282C125.493 215.698 130.017 215.524 134.047 213.793" fill="#E0D8C7"/>
<path d="M396.243 50.0681C396.9 49.9773 397.566 49.9773 398.223 50.0681C402.024 50.7175 405.905 55.7944 405.905 55.7944C409.587 61.1469 413.19 67.0897 412.992 73.5048C412.658 77.7018 411.298 81.7545 409.033 85.3117C407.672 88.0545 405.627 90.4053 403.093 92.14C401.381 93.132 399.466 93.7304 397.491 93.8914C395.017 94.1596 392.513 93.9298 390.131 93.2156C387.748 92.5014 385.534 91.3174 383.622 89.7343C381.71 88.1512 380.138 86.2014 379 84.0013C377.862 81.8012 377.182 79.3959 377 76.9288C394.739 74.0361 396.402 57.408 396.243 50.0681Z" fill="#E0D8C7"/>
<path d="M411.3 39.0296C415.867 38.8173 420.416 39.7495 424.543 41.744C426.312 42.637 428.016 43.655 429.644 44.7903C431.545 45.927 433.169 47.4819 434.399 49.3403C435.563 51.8365 436.086 54.5906 435.919 57.3467C436.16 60.2096 435.86 63.0928 435.034 65.8413C433.76 68.7001 431.825 71.2052 429.394 73.1447C427.416 75.1178 425.038 76.6304 422.426 77.5775C421.121 78.0275 419.721 78.12 418.369 77.8457C417.017 77.5714 415.761 76.94 414.726 76.0153C414.726 76.0153 416.016 61.8576 405.525 53.2068C395.035 44.556 411.3 39.0296 411.3 39.0296Z" fill="#E0D8C7"/>
<path d="M401.261 25.1139C407.852 18.9285 416.678 12.9017 421.129 14.1705C427.489 16.0142 431.805 22.2393 433.906 28.6824C434.861 31.2029 435.198 33.9262 434.889 36.6124C434.484 39.2491 432.865 43.9873 430.533 42.8176C428.202 41.648 416.774 33.599 408.218 37.8019C399.661 42.0048 398.698 41.2911 398.698 41.2911L396.135 37.0089C396.135 37.0089 394.69 31.2993 401.261 25.1139Z" fill="#E0D8C7"/>
<path d="M382.504 11.8083C384.948 6.36922 370.746 10.0146 365.468 12.8498C360.754 15.3958 356.136 19.5233 356 24.8659C356.038 27.1041 356.617 29.3003 357.688 31.2694C362.209 40.3345 372.725 46.5644 382.736 44.6549C382.736 44.6549 391.681 45.8122 391.991 41.2218C392.302 36.6313 384.23 34.124 383.26 31.578C382.29 29.0321 377.556 22.8986 382.504 11.8083Z" fill="#E0D8C7"/>
<path d="M360.097 36.0974C355.313 30.2612 351.59 49.2535 353.519 56.6327C355.064 61.4309 357.649 65.8073 361.08 69.4327C363.819 72.5981 367.156 75.7832 371.265 75.9613C372.915 76.1065 374.576 75.8418 376.106 75.1897C379.115 73.7851 390.997 70.0064 393.736 52.2012C396.475 34.396 377.418 57.246 360.097 36.0974Z" fill="#E0D8C7"/>
<path d="M394.254 39C395.536 16.8436 414.514 21.2433 415 9.99735C414.522 7.20492 413.158 4.64803 411.115 2.71709C408.839 1.35002 406.186 0.775034 403.559 1.07952C397.11 1.23736 389.962 2.28304 385.805 7.21546C383.177 10.5679 381.832 14.7724 382.017 19.0533C382.535 23.8461 383.604 28.5607 385.202 33.1008C386.2 34.6922 387.526 36.0441 389.089 37.0628C390.652 38.0815 392.415 38.7425 394.254 39Z" fill="#E0D8C7"/>
<path d="M382.664 37.8052C380.748 42.9001 383.201 48.7832 387.187 52.4362C388.838 53.9974 390.789 55.2049 392.921 55.9849C395.053 56.765 397.321 57.1014 399.586 56.9735C401.849 56.803 404.023 56.0214 405.879 54.7114C407.735 53.4015 409.202 51.6121 410.127 49.5331C410.878 47.498 411.15 45.3159 410.921 43.1577C410.692 40.9995 409.967 38.924 408.804 37.0938C405.182 31.2299 402.442 27.9422 392.955 29.3073C383.469 30.6723 382.664 37.8052 382.664 37.8052Z" fill="#E0D8C7"/>
<path d="M382.664 37.8052C380.748 42.9001 383.201 48.7832 387.187 52.4362C388.838 53.9974 390.789 55.2049 392.921 55.9849C395.053 56.765 397.321 57.1014 399.586 56.9735C401.849 56.803 404.023 56.0214 405.879 54.7114C407.735 53.4015 409.202 51.6121 410.127 49.5331C410.878 47.498 411.15 45.3159 410.921 43.1577C410.692 40.9995 409.967 38.924 408.804 37.0938C405.182 31.2299 402.442 27.9422 392.955 29.3073C383.469 30.6723 382.664 37.8052 382.664 37.8052Z" stroke="#FAF2E1" stroke-miterlimit="10"/>
<path d="M343 425C321.353 445.698 307.633 473.479 304.267 503.43C304.206 505.299 303.764 507.135 302.969 508.822C300.335 513.391 292.996 512.744 289.529 508.724C286.062 504.705 285.423 499.097 285.171 493.823C284.358 477.901 286.101 460.098 297.798 449.451C302.361 445.688 307.444 442.622 312.885 440.353L340.734 427.039" fill="#E0D8C7"/>
<path d="M267 471.221C259.942 481.999 258.332 495.481 258.778 508.364C259.224 521.247 261.493 534.015 261.377 546.898C261.547 549.374 261.002 551.848 259.806 554.025C256.878 558.313 249.819 557.656 246.077 554.025C242.334 550.394 241.016 545.024 239.93 539.944C236.963 526.134 234.287 511.764 237.37 497.973C240.453 484.182 250.75 470.932 264.789 469" fill="#E0D8C7"/>
<path d="M314.99 380.599C315.164 389.866 312.985 399.026 308.656 407.23C304.327 415.434 297.988 422.416 290.227 427.527C285.709 430.444 279.523 432.589 275.199 429.459C270.564 426.059 271.32 418.505 275.199 414.119C279.077 409.733 284.526 407.531 289.587 404.768C300.139 399.008 308.869 390.431 314.796 380" fill="#E0D8C7"/>
<path d="M296 341C296 341 268.565 320.734 285.381 286.997C302.198 253.26 293.509 235.195 276.461 248.277C259.413 261.359 243.138 322.019 296 341Z" fill="#E0D8C7"/>
<path d="M207.219 264C225.634 181.788 306.915 192.113 313.735 178.164C320.556 164.215 193.266 142.006 207.044 263.981L207.219 264Z" fill="#E0D8C7"/>
<path d="M455 23.5397C454.992 20.8697 455.748 18.2573 457.17 16.0329C458.592 13.8085 460.617 12.0719 462.99 11.0429C465.362 10.0139 467.975 9.73852 470.499 10.2517C473.022 10.7649 475.342 12.0436 477.165 13.926C478.989 15.8084 480.234 18.2101 480.743 20.8273C481.252 23.4445 481.002 26.1596 480.025 28.6294C479.048 31.0992 477.388 33.2127 475.254 34.7027C473.121 36.1926 470.609 36.9921 468.038 36.9999C466.331 37.0052 464.64 36.6612 463.061 35.9875C461.481 35.3139 460.045 34.3239 458.835 33.074C457.624 31.8241 456.662 30.3388 456.004 28.7029C455.346 27.067 455.005 25.3126 455 23.5397Z" fill="#E0D8C7"/>
<path d="M154 20.5C154 18.2255 154.704 16.0021 156.022 14.1109C157.341 12.2198 159.215 10.7458 161.408 9.87539C163.601 9.00498 166.013 8.77724 168.341 9.22097C170.669 9.6647 172.807 10.76 174.485 12.3683C176.164 13.9766 177.306 16.0257 177.769 18.2565C178.232 20.4872 177.995 22.7995 177.087 24.9009C176.178 27.0022 174.64 28.7983 172.667 30.0619C170.693 31.3255 168.373 32 166 32C162.817 32 159.765 30.7884 157.515 28.6317C155.264 26.4751 154 23.55 154 20.5Z" fill="#E0D8C7"/>
<path d="M60.2496 869.187C43.0073 780.226 67.5297 647.426 113.279 573.441" stroke="#E0D8C7" stroke-width="0.740826" stroke-miterlimit="10"/>
<path d="M71.8596 691.188C69.9438 689.637 70.9017 686.458 72.1661 684.255C84.2166 663.035 99.4664 643.385 118.605 628.216C137.744 613.048 160.926 602.552 185.256 600.446C191.655 599.89 200.583 602.246 199.97 608.662C199.701 612.033 196.674 614.408 193.743 616.093C184.394 621.341 173.551 622.969 163.09 625.554C125.576 635.105 92.8041 657.944 70.8634 689.828" fill="#E0D8C7"/>
<path d="M62.7409 693.2C61.5148 662.71 60.0971 631.339 47.4144 603.53C43.8127 595.563 39.3297 588.036 35.4981 580.164C34.627 578.693 34.1826 577.009 34.2145 575.3C34.6168 571.642 39.0232 569.822 42.7207 570.014C50.269 570.397 56.6678 575.759 61.055 581.984C75.1362 601.768 73.182 628.37 70.634 652.521C68.9609 668.225 67.3005 683.924 65.6529 699.616" fill="#E0D8C7"/>
<path d="M48.5626 792.541C39.048 776.18 31.9865 758.513 27.6037 740.103C26.6986 737.362 26.5791 734.423 27.2588 731.618C28.1593 728.899 31.0904 726.658 33.8684 727.596C35.1389 728.106 36.2454 728.954 37.0678 730.048C44.731 739.164 47.7197 751.383 48.9841 763.257C50.2485 775.132 50.1336 787.217 52.8157 798.842C53.5241 783.582 58.983 768.925 68.4295 756.918C78.0086 745.216 92.4729 737.172 107.627 736.694C109.945 736.694 112.723 736.981 113.796 739.049C114.869 741.118 113.623 743.473 112.244 745.274C106.956 752.13 99.0441 756.363 91.7641 761.074C77.4963 770.282 64.9286 781.886 54.6166 795.375" fill="#E0D8C7"/>
<path d="M54.8663 853.981C49.8339 851.811 45.446 848.381 42.1262 844.022C37.2087 837.849 33.7528 830.643 32.0176 822.945C30.2823 815.246 30.3127 807.255 32.1065 799.57C34.8078 798.881 36.9152 801.868 38.0455 804.416C42.3919 814.195 45.7733 824.374 48.1418 834.81C49.8661 842.317 51.188 850.266 55.8051 856.452C58.7413 839.115 64.9504 822.496 74.101 807.48C79.6952 798.306 86.8603 789.42 96.88 785.532C98.0307 784.954 99.2937 784.634 100.581 784.594C101.868 784.554 103.148 784.796 104.332 785.302C106.957 786.815 107.704 790.281 107.398 793.269C106.612 800.93 100.961 807.039 95.6155 812.536L56.4373 852.909" fill="#E0D8C7"/>
<path d="M155 248C161.627 248 167 242.627 167 236C167 229.373 161.627 224 155 224C148.373 224 143 229.373 143 236C143 242.627 148.373 248 155 248Z" fill="#E0D8C7"/>
<path d="M121.914 874.591C115.738 859.524 115.371 842.703 120.885 827.382C126.399 812.061 137.401 799.328 151.763 791.649C156.292 788.923 161.502 787.539 166.787 787.659C172.028 788.097 177.314 791.43 178.63 796.428C180.319 803.006 175.274 809.255 170.076 813.552C159.856 821.993 147.662 827.803 137.464 836.288C127.266 844.773 118.888 857.423 120.576 870.578C120.818 872.31 122.309 874.525 123.757 873.56" fill="#E0D8C7"/>
<path d="M138.963 754.152C137.625 754.065 136.29 754.369 135.122 755.027C133.954 755.685 133.002 756.668 132.383 757.858C131.199 760.232 130.498 762.818 130.322 765.466C129.905 768.513 129.576 772.043 131.462 774.411C132.705 775.857 134.396 776.845 136.265 777.217C141.99 778.62 147.977 776.581 153.372 774.214C155.259 773.547 156.943 772.407 158.263 770.903C159.221 769.509 159.733 767.858 159.732 766.167C159.731 762.857 158.785 759.615 157.006 756.823C155.227 754.031 152.688 751.804 149.688 750.403C148.063 749.561 146.274 749.082 144.446 749C142.072 749.054 139.807 750.012 138.116 751.679C136.424 753.346 135.433 755.595 135.344 757.967" fill="#E0D8C7"/>
</svg>
