<svg width="728" height="379" viewBox="0 0 728 379" fill="none" xmlns="http://www.w3.org/2000/svg">
<path d="M232.391 124.844C218.836 116.091 214.016 98.1731 213.759 81.8389C213.561 68.8827 215.73 55.3705 223.158 44.8489C233.236 30.528 248.589 27.091 263.379 20.2844C279.758 12.7027 295.765 9.22361 314 12.7027" stroke="#E0D8C7" stroke-width="1.54414" stroke-linecap="round" stroke-linejoin="round"/>
<path d="M198.057 58.0628C193.599 62.9236 191.152 69.4103 189.583 75.9221C185.238 94.2305 187.039 113.536 194.685 130.631C195.096 131.536 195.804 132.592 196.746 132.383C197.389 132.249 197.768 131.545 198.041 130.933C203.675 118.412 203.297 103.738 200.013 90.3453C199.015 86.3058 198.202 82.2328 197.116 78.2184C195.804 73.4079 194.251 63.2673 199.788 56.7471" fill="#E0D8C7"/>
<path d="M228.879 130.518C229.008 132.208 229.319 133.884 229.807 135.52C230.29 137.53 231.378 139.382 232.952 140.874C235.356 142.9 238.854 143.375 242.12 143.759C242.12 140.323 241.09 136.638 238.176 134.403C236.881 133.481 235.431 132.75 233.88 132.235C232.404 131.636 230.843 131.223 229.241 131.01" fill="#E0D8C7"/>
<path d="M34.056 207.57C34.2247 204.131 35.3207 200.803 37.2275 197.938C38.1898 196.52 39.4571 195.335 40.9364 194.471C42.4157 193.608 44.0695 193.087 45.7762 192.947C47.426 192.87 49.2725 193.367 50.1274 194.788C50.9823 196.209 50.5463 198.024 50.1274 199.616C45.4171 222.732 52.0167 226.448 56.1115 227.989C60.2062 229.53 71.8666 224.838 75.3117 223.357C78.3806 222.047 80.5263 219.076 82.3215 216.311C82.7546 215.401 83.4637 214.652 84.3476 214.171C84.8629 214.017 85.4114 214.017 85.9272 214.169C86.4429 214.32 86.9037 214.618 87.2541 215.027C87.9448 215.861 88.3968 216.867 88.562 217.938C89.9042 224.17 87.1772 230.916 82.313 235.06C77.4488 239.204 70.704 239.041 64.4122 240C45.8104 242.8 33.6884 219.179 34.056 207.57Z" fill="#E0D8C7"/>
<path d="M28.4335 212.985C28.2776 211.866 28.3678 210.395 29.377 210.034C30.1976 209.743 30.9771 210.413 31.5678 211.064C36.4909 216.465 39.0591 223.961 44.1463 229.159V229.67L44.3596 229.793C44.3596 229.793 48.1668 233.026 47.1002 235.079C46.8715 235.629 46.4518 236.061 45.9306 236.283C45.4094 236.505 44.828 236.5 44.3104 236.268C40.1257 234.029 36.5008 230.747 33.7387 226.696C30.9767 222.646 29.1576 217.944 28.4335 212.985Z" fill="#E0D8C7"/>
<path d="M42.4293 240.194C39.6749 240.36 36.916 239.941 34.3568 238.967C31.7976 237.993 29.5035 236.49 27.6443 234.568C26.8188 233.732 26.118 232.793 25.561 231.779C24.8006 230.329 24.4768 228.71 24.6248 227.099C24.608 226.709 24.7034 226.322 24.9008 225.98C25.0983 225.637 25.3906 225.351 25.7466 225.152C26.1195 225.073 26.5073 225.079 26.8771 225.17C27.247 225.261 27.5882 225.435 27.872 225.676C38.7183 235.029 44.5041 236.189 45.1535 237.103C45.803 238.017 45.2379 240.027 42.4293 240.194Z" fill="#E0D8C7"/>
<path d="M27.4846 240.56C27.0377 240.909 26.5726 241.065 26.4905 241.515C26.4477 241.972 26.5753 242.429 26.8553 242.82C27.3681 243.626 28.1485 244.286 29.0989 244.716C29.5878 244.922 30.0975 245.091 30.6219 245.221C34.8354 246.293 39.3498 245.997 43.6089 245.058C45.5156 244.428 47.3764 243.701 49.1812 242.882L46.053 241.049C38.0456 242.983 30.0291 239.115 27.4846 240.56Z" fill="#E0D8C7"/>
<path d="M85.3593 242.822C86.2907 242.146 87.3145 240.996 86.9285 239.795C86.618 238.786 85.6026 238.544 84.7467 238.453C77.5887 237.727 70.3887 240.713 63.2559 239.654L62.8783 240.017L62.6433 239.896C62.6433 239.896 57.793 238.625 56.979 241.127C56.7207 241.747 56.6762 242.464 56.8553 243.124C57.0344 243.783 57.4226 244.33 57.9356 244.648C62.2959 246.998 67.0609 248.058 71.832 247.741C76.6031 247.423 81.2415 245.736 85.3593 242.822Z" fill="#E0D8C7"/>
<path d="M57.486 248.02C59.0236 250.169 61.0256 251.942 63.3429 253.209C65.6601 254.476 68.233 255.203 70.87 255.337C72.03 255.409 73.1944 255.322 74.3309 255.078C75.9293 254.701 77.3957 253.897 78.5744 252.752C78.8894 252.513 79.1343 252.193 79.2834 251.827C79.4324 251.46 79.4802 251.06 79.4215 250.669C79.2564 250.342 79.0158 250.06 78.7197 249.845C78.4237 249.63 78.0807 249.489 77.7193 249.433C63.7948 247.438 59.3738 243.901 58.2605 244.014C57.1472 244.127 55.929 245.864 57.486 248.02Z" fill="#E0D8C7"/>
<path d="M66.1842 258.803C66.1842 259.395 66.3057 259.87 65.9587 260.255C65.5907 260.623 65.1203 260.861 64.614 260.937C63.6076 261.141 62.5651 261.028 61.6211 260.614C61.1472 260.395 60.6941 260.131 60.2678 259.825C56.7978 257.414 54.3428 253.756 52.5644 249.839C51.9568 247.928 51.4586 245.983 51.0723 244.012L54.5423 245.043C57.6913 252.528 65.8979 255.8 66.1842 258.803Z" fill="#E0D8C7"/>
<path d="M43.3611 228.88L51.8553 237.799C52.1965 238.207 52.6131 238.545 53.0826 238.797C53.693 239.013 54.3424 239.098 54.9882 239.046C58.1718 239.048 61.3297 239.615 64.314 240.72C63.0259 242.445 61.4694 243.953 59.7036 245.188C56.4738 247.466 52.0168 248.73 48.4479 246.967C45.961 245.735 44.3219 243.272 43.1996 240.745C41.5847 237.187 40.8581 232.905 42.7071 229.476" fill="#E0D8C7"/>
<path d="M50.168 232.549C48.916 229.07 48.0157 225.474 47.4807 221.815C46.9475 218.135 47.5329 214.379 49.1603 211.038C50.6197 208.413 52.7769 206.246 55.3915 204.778C59.1176 202.547 63.5596 201.85 67.7868 202.832C69.8761 203.353 71.8039 204.386 73.3971 205.839C74.9903 207.292 76.1992 209.119 76.9153 211.156C77.5463 213.344 77.7123 215.64 77.4024 217.897C77.1476 221.418 75.8294 224.777 73.6233 227.527C66.905 234.267 55.3243 238.876 53.1661 238.286C51.0078 237.697 50.168 232.549 50.168 232.549Z" fill="#E0D8C7"/>
<path d="M53.1531 232.663C52.7486 229.675 52.9942 226.639 53.874 223.748C54.7539 220.857 56.2487 218.176 58.2629 215.874C58.3662 215.766 58.4883 215.639 58.6386 215.639" stroke="#FAF2E1" stroke-width="1.54414" stroke-linecap="round" stroke-linejoin="round"/>
<path d="M56.7471 230.771L64.3133 215.639V216.117" stroke="#FAF2E1" stroke-width="1.54414" stroke-linecap="round" stroke-linejoin="round"/>
<path d="M56.7471 232.663C61.4765 229.921 65.4436 225.292 68.0965 219.422" stroke="#FAF2E1" stroke-width="1.54414" stroke-linecap="round" stroke-linejoin="round"/>
<path d="M47.8348 247.796C47.495 246.032 47.3182 244.24 47.3065 242.442C47.1898 240.248 47.6601 238.063 48.6661 236.125C50.2594 233.448 53.2816 232.03 56.1133 230.771C57.0312 234.34 57.1438 238.382 55.1434 241.434C54.2313 242.716 53.1262 243.839 51.8701 244.762C50.7175 245.75 49.4383 246.57 48.0686 247.198" fill="#E0D8C7"/>
<path d="M69.4062 223.107L69.9133 223.205L70.4204 223.107C70.8905 222.879 71.2929 222.416 71.5597 221.799C71.7179 221.483 71.8116 221.107 71.8297 220.714C71.8952 220.343 71.8952 219.953 71.8297 219.581L71.6321 218.907C71.4707 218.506 71.2444 218.17 70.9736 217.931L70.5192 217.638C70.1843 217.511 69.8333 217.511 69.4984 217.638L70.0121 217.53L70.5192 217.638C70.2721 217.52 70.0082 217.503 69.7553 217.589C69.5021 217.6 69.256 217.715 69.044 217.921C68.8246 218.092 68.6386 218.345 68.504 218.654C68.3333 218.928 68.2151 219.265 68.1616 219.63L68.0957 220.382C68.094 220.886 68.1826 221.382 68.3526 221.818L68.6555 222.394C68.8896 222.739 69.1801 222.988 69.4984 223.117L69.4062 223.107Z" fill="#FAF2E1"/>
<path d="M63.2369 212.726C62.8951 213.07 62.6492 213.497 62.5236 213.965C62.3867 214.45 62.3867 214.964 62.5236 215.449L62.807 216.122C62.9814 216.445 63.2332 216.72 63.5398 216.923C63.7143 217.094 63.9295 217.218 64.1652 217.284C64.5014 217.462 64.8795 217.546 65.2596 217.528C65.6366 217.546 66.0115 217.462 66.3442 217.284C66.695 217.169 67.0111 216.968 67.2627 216.698L67.7024 216.122C67.9072 215.807 68.0251 215.443 68.0444 215.068C68.1127 214.822 68.1127 214.562 68.0444 214.317C68.022 213.942 67.9043 213.579 67.7024 213.262L67.2627 212.687C66.9152 212.342 66.4843 212.093 66.012 211.964L65.2596 211.857C64.8799 211.843 64.503 211.927 64.1652 212.101C63.9288 212.17 63.7138 212.298 63.5398 212.472C63.2314 212.668 62.9789 212.94 62.807 213.262L65.2302 211.867C64.9777 211.845 64.7236 211.881 64.4876 211.974C64.0189 212.099 63.5911 212.345 63.2467 212.687L63.2369 212.726Z" fill="#FAF2E1"/>
<path d="M58.6353 217.529C58.8883 217.543 59.1394 217.459 59.3642 217.285C59.594 217.158 59.8027 216.958 59.9758 216.699C60.1489 216.439 60.2822 216.126 60.3664 215.781C60.4828 215.444 60.5388 215.068 60.5291 214.688L60.4575 213.937C60.3743 213.463 60.208 213.032 59.976 212.688L59.592 212.248C59.3033 211.988 58.9721 211.853 58.6353 211.858C58.3842 211.84 58.1345 211.924 57.9129 212.102C57.6792 212.216 57.4688 212.418 57.3012 212.688C57.1216 212.935 56.9872 213.248 56.9107 213.595C56.795 213.933 56.7389 214.309 56.748 214.688L56.8131 215.44C56.9025 215.915 57.0704 216.348 57.3012 216.699L57.6852 217.138C57.9744 217.388 58.3016 217.522 58.6353 217.529Z" fill="#FAF2E1"/>
<path d="M92.411 182.646C93.5399 184.367 95.0756 185.893 96.3266 187.516C97.6742 189.143 98.3825 191.054 98.3606 193.004C98.2601 194.12 97.7939 195.196 97.0085 196.124C96.2232 197.051 95.1463 197.797 93.8857 198.288C93.5275 198.453 93.1308 198.559 92.72 198.598C92.3091 198.637 91.8926 198.609 91.4957 198.515C90.9985 198.328 90.5631 198.05 90.2244 197.704C87.8817 195.517 86.2737 192.892 85.5515 190.073C84.8292 187.255 85.0163 184.336 86.0953 181.591" fill="#E0D8C7"/>
<path d="M87.0115 181.777C86.4733 184.024 85.9511 186.28 85.4451 188.545C85.0899 190.045 84.7023 191.628 83.6446 192.741C83.1305 193.238 82.5551 193.665 81.9328 194.01C80.9558 194.587 79.7447 195.156 78.7515 194.612C77.7584 194.068 77.5242 192.683 77.5565 191.513C77.715 187.105 79.4367 182.907 82.4011 179.699" fill="#E0D8C7"/>
<path d="M83.2292 178.88C82.3337 180.35 81.4382 181.797 80.4263 183.213C78.7965 185.547 76.8443 187.881 73.907 188.9C72.6085 189.328 70.8175 189.297 70.1996 188.223C69.9179 187.582 69.9179 186.873 70.1996 186.232C70.9532 183.993 72.2414 181.917 73.9804 180.14C75.7193 178.362 77.8699 176.923 80.292 175.916" fill="#E0D8C7"/>
<path d="M79.446 176.839L75.0717 180.198C73.8138 181.247 72.4218 182.137 70.9294 182.846C69.4218 183.553 67.69 183.676 66.0911 183.189C65.7675 183.124 65.463 182.99 65.1995 182.798C64.936 182.606 64.72 182.36 64.5671 182.077C64.4142 181.795 64.3281 181.484 64.3152 181.166C64.3022 180.847 64.3627 180.53 64.4922 180.238C65.0535 178.823 66.0149 177.588 67.2676 176.672C70.1269 174.332 73.5807 172.765 77.2754 172.133" fill="#E0D8C7"/>
<path d="M75.465 170.524C71.059 171.696 66.4153 172.869 62.0433 171.551C61.184 171.334 60.3807 170.915 59.6917 170.324C59.3509 170.026 59.0787 169.648 58.8962 169.219C58.7137 168.791 58.6257 168.323 58.639 167.852C58.7109 167.324 58.9034 166.822 59.1996 166.393C59.4958 165.963 59.8864 165.619 60.3369 165.389C61.6647 164.739 63.1267 164.467 64.5816 164.599C69.1404 164.599 73.9963 165.244 77.5534 168.288" fill="#E0D8C7"/>
<path d="M87.0117 172.132C90.41 164.614 99.3983 158.685 107.546 158.711C109.602 158.711 111.64 159.077 113.688 159.086C117.277 159.032 120.774 157.913 123.759 155.866C126.745 153.818 129.092 150.927 130.518 147.542" stroke="#E0D8C7" stroke-width="1.54414" stroke-miterlimit="10"/>
<path d="M105.935 167.447C105.894 169.626 106.006 171.806 106.27 173.965C106.619 176.647 106.997 179.479 108.502 181.59C111.178 178.758 111.804 174.141 111.549 169.96C111.331 166.366 110.437 162.536 107.971 160.308L106.517 158.892C106.959 159.5 107.257 160.231 107.382 161.011C107.448 162.084 105.971 164.43 105.935 167.447Z" fill="#E0D8C7"/>
<path d="M93.4659 154.85C90.0822 153.366 87.1899 150.97 85.1201 147.937C89.0059 147.202 93.0195 147.497 96.7522 148.792C100.485 150.088 103.803 152.338 106.37 155.312C106.905 155.888 107.314 156.567 107.571 157.306C107.707 157.825 107.79 158.356 107.819 158.891C102.821 158.441 97.9531 157.07 93.4659 154.85Z" fill="#E0D8C7"/>
<path d="M98.3613 160.783C97.6106 161.786 97.0958 162.978 96.8629 164.254C96.6583 165.023 96.5269 165.814 96.4707 166.614C96.459 167.629 96.5537 168.643 96.7531 169.634C96.8865 170.501 97.0277 171.3 97.161 172.133" stroke="#E0D8C7" stroke-width="1.52869" stroke-linecap="round" stroke-linejoin="round"/>
<path d="M98.3611 162.015C93.9432 163.209 89.2577 162.773 85.1201 160.783" stroke="#E0D8C7" stroke-width="1.54414" stroke-miterlimit="10"/>
<path d="M96.8576 172.199C96.4661 173.503 96.3696 174.874 96.5744 176.218C96.7792 177.561 97.2807 178.847 98.0449 179.988C99.0216 181.291 100.17 182.465 101.462 183.482C102.338 181.386 102.372 179.049 101.556 176.93C100.722 174.833 99.0947 173.118 97.0028 172.133" fill="#E0D8C7"/>
<path d="M85.12 160.15C83.9198 161.222 82.3125 160.788 80.9929 159.919C79.2523 158.736 77.7362 156.628 77.5537 154.068C77.8618 153.732 78.221 153.486 78.6072 153.347C78.9933 153.208 79.3975 153.18 79.7927 153.264C81.1367 153.39 82.4119 154.094 83.4214 155.27C83.9189 155.855 84.3229 156.566 84.6097 157.359C84.8965 158.153 85.0604 159.013 85.0919 159.891" fill="#E0D8C7"/>
<path d="M84.0338 198.614C84.2378 198.616 84.441 198.632 84.6398 198.664L84.8091 198.695C85.1627 198.739 85.5 198.833 85.8007 198.97C86.1015 199.107 86.3595 199.285 86.5594 199.493C86.7593 199.702 86.8971 199.936 86.9643 200.182C87.0316 200.429 87.0271 200.682 86.951 200.927C86.8749 201.172 86.7288 201.404 86.5214 201.608C86.3141 201.813 86.0498 201.987 85.7442 202.119C85.4386 202.25 85.0981 202.338 84.743 202.376C84.3879 202.414 84.0254 202.401 83.6773 202.34L83.4367 202.302C82.791 202.203 82.2208 201.941 81.8361 201.566C81.4514 201.19 81.2796 200.729 81.3538 200.27C81.428 199.812 81.743 199.389 82.238 199.083C82.7329 198.777 83.3727 198.61 84.0338 198.614Z" fill="#E0D8C7"/>
<path d="M71.8828 194.831C72.1575 194.834 72.4283 194.895 72.6768 195.012C72.9253 195.128 73.1455 195.297 73.3225 195.506C73.4995 195.715 73.6291 195.959 73.7023 196.223C73.7756 196.486 73.7908 196.762 73.7469 197.032C73.6737 197.472 73.4464 197.872 73.1053 198.162C72.7642 198.451 72.3312 198.611 71.8828 198.614C71.5602 198.608 71.2444 198.521 70.964 198.362C70.6837 198.203 70.4478 197.977 70.2779 197.704C70.108 197.431 70.0095 197.121 69.9913 196.8C69.9732 196.48 70.036 196.16 70.1741 195.87C70.3347 195.556 70.5794 195.294 70.881 195.11C71.1827 194.927 71.5294 194.83 71.8828 194.831Z" fill="#E0D8C7"/>
<path d="M62.4327 187.265C62.7471 187.267 63.056 187.347 63.3308 187.499C63.6056 187.651 63.8376 187.869 64.0052 188.133V188.164C64.1412 188.37 64.2348 188.6 64.2808 188.842C64.3267 189.083 64.3241 189.331 64.2731 189.572C64.222 189.812 64.1235 190.041 63.9833 190.243C63.8431 190.446 63.6639 190.619 63.4561 190.752C63.0429 191.016 62.5417 191.108 62.0607 191.009C61.5797 190.909 61.1575 190.625 60.8851 190.218L60.8227 190.125C60.6422 189.843 60.5415 189.517 60.5312 189.183C60.5209 188.849 60.6013 188.518 60.7642 188.225C60.927 187.932 61.1662 187.689 61.4565 187.52C61.7468 187.351 62.0776 187.263 62.414 187.265H62.4327Z" fill="#E0D8C7"/>
<path d="M56.7553 174.024C57.0806 174.025 57.4004 174.15 57.6849 174.388C57.9693 174.626 58.2089 174.969 58.3814 175.384L58.4262 175.481C58.644 176.117 58.6973 176.853 58.5757 177.546C58.4541 178.238 58.1663 178.838 57.768 179.229C57.3696 179.621 56.889 179.775 56.4193 179.664C55.9496 179.552 55.5241 179.182 55.2252 178.624L55.1484 178.451C54.9665 178.012 54.8659 177.509 54.8571 176.992C54.8482 176.475 54.9315 175.964 55.0981 175.512C55.2648 175.061 55.5088 174.684 55.8047 174.423C56.1006 174.161 56.4377 174.023 56.7809 174.024H56.7553Z" fill="#E0D8C7"/>
<path d="M94.3986 180.561L94.5787 183.231C94.5787 183.231 88.2735 184.795 80.9775 180.119C73.6815 175.444 73.7715 166.458 73.7715 166.458C73.7715 166.458 81.662 167.929 84.7966 169.586" fill="#E0D8C7"/>
<path d="M77.6457 168.988C79.134 172.963 81.6541 176.387 84.9016 178.846C86.6741 180.351 88.7944 181.3 91.0312 181.591H91.2151C91.4756 181.591 91.7285 181.591 91.9813 181.591C92.2173 181.584 92.4528 181.562 92.6862 181.524C92.5024 179.758 91.6902 176.599 88.5334 173.457C85.4371 170.589 81.6077 168.807 77.5537 168.35L77.6457 168.988Z" fill="#E0D8C7"/>
<path d="M92.6872 183.446C92.6872 183.446 78.5031 184.962 75.6631 168.35" stroke="#FAF2E1" stroke-width="1.54414" stroke-linecap="round" stroke-linejoin="round"/>
<path d="M14.3532 225.097C27.3933 204.191 27.6628 178.083 23.8638 153.957C20.0648 129.832 12.5624 106.183 11.467 81.8065C10.3716 57.43 16.7526 31.0883 35.939 15.1328" stroke="#E0D8C7" stroke-width="1.54414" stroke-miterlimit="10"/>
<path d="M25.0343 200.506C29.2789 193.13 34.3593 186.298 40.1691 180.151C45.3568 174.67 51.1668 169.687 55.2717 163.301C56.1929 161.873 57.0575 160.162 56.6373 158.501C56.1363 156.491 53.9626 155.412 51.9506 155.179C47.0214 154.606 42.2054 157.587 39.1348 161.599C36.0642 165.61 34.4158 170.543 32.8158 175.376C30.0685 183.681 27.3265 191.966 24.5898 200.232L25.0343 200.506Z" fill="#E0D8C7"/>
<path d="M20.3038 191.525C22.0466 194.975 23.3484 198.627 24.1793 202.398C25.2051 190.213 24.3087 177.945 21.5223 166.035C20.8115 163.029 19.9231 159.948 18.0445 157.698C16.166 155.448 13.0267 154.281 10.6405 155.784C8.25424 157.286 7.51806 160.603 7.56883 163.617C7.74653 174.263 15.6499 182.298 20.3038 191.525Z" fill="#E0D8C7"/>
<path d="M27.1092 172.133C25.1159 152.708 28.4743 143.62 28.9266 139.507C29.8813 130.816 34.4626 121.044 41.8411 116.458C42.8227 115.764 43.9919 115.389 45.1911 115.386C47.8461 115.563 49.4792 118.705 49.1358 121.365C48.7924 124.026 47.1425 126.315 45.5596 128.477C41.2213 134.439 27.3688 153.653 27.084 172.133" fill="#E0D8C7"/>
<path d="M12.4387 125.259C10.8701 123.306 9.26042 120.641 6.85416 121.116C4.19331 121.643 3.42134 125.276 3.93052 128.034C5.35128 135.793 11.7324 141.327 16.4463 147.558C22.1983 155.191 25.6844 164.384 26.482 174.024C26.482 174.024 26.0878 167.361 25.9153 165.451C25.7429 163.541 22.8192 138.263 12.4387 125.259Z" fill="#E0D8C7"/>
<path d="M21.9649 138.085C21.7903 122.222 28.3137 110.692 34.9719 97.2335C36.2893 94.5618 37.6702 91.7983 37.821 88.8011C37.9717 85.8038 36.5274 82.4642 33.7974 81.5709C30.3929 80.4688 27.0518 83.4661 25.0678 86.5802C16.7827 99.5712 18.5762 116.678 20.6872 132.165" fill="#E0D8C7"/>
<path d="M16.0454 85.3795C17.3867 78.7146 20.6914 72.5895 25.5449 67.7729C31.2327 62.1388 39.0343 58.2988 42.7356 51.2227C43.4056 50.1825 43.6513 48.9301 43.4232 47.7181C42.6592 45.052 38.8221 45.0352 36.1649 45.9239C21.6907 50.7364 14.5598 66.1631 13.4307 81.2545C13.1184 86.0037 13.1922 90.77 13.6514 95.5075L14.3136 100.253L16.0454 85.3795Z" fill="#E0D8C7"/>
<path d="M15.1318 49.1807C18.9008 42.4119 24.0536 36.5182 30.2525 31.8858C34.8632 28.4453 40.001 25.7768 44.4025 22.0342C48.804 18.2916 52.536 13.3071 52.9377 7.5589C53.105 5.04145 52.4691 2.27225 50.4273 0.8457C47.4233 -1.17665 43.3816 0.778568 40.5449 3.03588C28.7547 12.3504 21.8261 26.5572 17.4079 40.8815" fill="#E0D8C7"/>
<path d="M16.4664 24.8127C17.3593 21.2698 17.6093 16.2965 13.8591 15.2819C10.2874 14.3171 7.60859 18.2259 6.54601 21.5276C-2.47253 64.674 13.4751 87.0123 13.4751 87.0123C13.4751 87.0123 7.76039 52.5235 16.4664 24.8127Z" fill="#E0D8C7"/>
<path d="M18.9157 124.843C18.9157 124.843 -12.125 96.8579 5.32085 73.7722C7.90541 73.5585 5.36392 93.4378 18.9157 123.141" fill="#E0D8C7"/>
<path d="M100.253 52.9636C107.283 44.7593 117.303 37.5179 128.626 37.8415" stroke="#E0D8C7" stroke-width="1.54414" stroke-linecap="round" stroke-linejoin="round"/>
<path d="M95.4233 60.7985C91.3925 57.2798 89.2884 52.0224 87.4422 46.9306C84.7093 39.4047 82.186 31.3406 83.6693 23.4504C83.6932 23.1271 83.783 22.8126 83.933 22.5273C84.083 22.242 84.2898 21.9924 84.54 21.7946C85.5316 21.215 86.6522 22.2996 87.2487 23.3014C88.6397 25.6279 89.6806 28.1568 90.3364 30.8025C90.3364 27.0933 90.1913 23.111 88.0307 20.147C87.6692 19.7197 87.358 19.25 87.1036 18.7478C86.4587 17.2078 87.5873 15.3036 89.1513 14.8316C89.9509 14.6506 90.7831 14.6942 91.5606 14.9579C92.338 15.2216 93.0319 15.6957 93.5691 16.3302C94.6306 17.6127 95.3574 19.1511 95.6813 20.801C96.0763 22.4569 96.3101 24.1128 96.8422 25.6858C97.51 24.1711 97.7788 22.5029 97.6217 20.848C97.4647 19.1931 96.8873 17.6095 95.9473 16.2557C95.1398 15.3512 94.4613 14.3338 93.9319 13.2337C93.783 12.7183 93.7381 12.177 93.8 11.6431C93.862 11.1093 94.0294 10.594 94.2921 10.1289C94.5547 9.66381 94.9071 9.25869 95.3276 8.93838C95.748 8.61807 96.2278 8.38932 96.7374 8.26612C97.1976 8.15842 97.6789 8.19889 98.1159 8.38203C98.549 8.61857 98.9197 8.9595 99.1962 9.37555C102.518 13.7967 102.921 19.7578 103.227 25.3298C104.908 20.552 104.908 15.3208 103.227 10.5429C102.792 9.54302 102.501 8.48308 102.364 7.39679C102.305 6.8506 102.401 6.29829 102.641 5.80725C102.882 5.31622 103.256 4.90768 103.719 4.63149C105.331 3.87808 107.016 5.55878 107.75 7.20637C109.838 11.8428 109.128 17.2326 108.37 22.2913C109.815 19.9848 110.796 17.405 111.255 14.7035C111.715 12.0021 111.644 9.23349 111.047 6.56058C110.724 5.18621 110.329 3.53034 111.289 2.51198C111.674 2.16312 112.158 1.94938 112.67 1.90175C113.181 1.85411 113.694 1.97505 114.135 2.24705C115.002 2.81535 115.673 3.64957 116.053 4.63149C117.163 7.38717 117.399 10.4314 116.73 13.3331C116.048 16.1843 115.075 18.9539 113.828 21.5959C117.071 18.0161 119.057 13.4267 119.471 8.5559C119.584 7.28916 119.673 5.81544 120.681 5.07858C121.963 4.13473 123.905 5.17793 124.446 6.69305C124.986 8.20817 124.583 9.88887 124.067 11.4206C122.912 14.889 121.315 18.1852 119.318 21.2233C123.873 18.8057 125.219 12.8612 128.428 8.76288C132.757 11.702 137.409 15.2125 138.457 20.4285C134.854 22.6886 131.62 25.516 128.871 28.8072C131.535 26.8698 134.453 25.331 137.538 24.237C138.674 23.7007 139.958 23.5894 141.166 23.9223C142.326 24.3694 143.108 25.9673 142.343 26.9774C141.816 27.5018 141.136 27.8335 140.408 27.9213C136.28 28.9915 132.636 31.4882 130.089 34.9918L136.474 32.2845C138.288 31.5145 140.247 30.728 142.117 31.1916C143.987 31.6552 145.608 33.9569 144.624 35.7038C140.155 35.8101 135.759 36.888 131.725 38.8666C134.112 38.1171 136.628 37.9053 139.102 38.2456C140.347 38.4148 141.543 38.8573 142.607 39.543C143.671 40.2288 144.579 41.1416 145.269 42.2197C145.664 42.8986 145.882 43.9335 145.269 44.3723C144.909 44.5526 144.499 44.6022 144.108 44.5131C140.493 44.1499 136.847 44.2556 133.257 44.8277C135.139 44.3311 137.104 44.2661 139.013 44.6372C140.891 45.1174 142.657 46.5581 142.996 48.512C143.31 50.3252 142.391 52.0969 141.496 53.6948C138.163 51.9164 134.415 51.1252 130.669 51.4097C132.693 51.4384 134.674 52.0092 136.417 53.0656C137.651 53.819 138.836 55.1354 138.529 56.5678C138.223 58.0001 136.562 58.6128 135.184 58.4223C133.805 58.2319 132.58 57.4454 131.29 56.9321C130 56.4187 128.412 56.1952 127.259 57.0397C129.064 57.5891 130.785 58.3974 132.37 59.4407C132.724 59.6127 133.009 59.9052 133.176 60.2686C133.402 61.0138 132.66 61.6678 132.007 62.0652C125.308 66.2049 117.496 68.8377 109.757 67.9105C102.018 66.9832 94.4801 61.9245 92.0616 54.3324" fill="#E0D8C7"/>
<path d="M93.6738 61.0889C90.0121 58.0383 87.3546 53.9762 86.0418 49.4227C84.7289 44.8693 84.8205 40.0319 86.3047 35.5302C87.7924 31.2533 90.5774 27.2416 90.3352 22.6996C91.715 22.5583 93.1078 22.7897 94.3652 23.369C95.6226 23.9484 96.6976 24.8541 97.4759 25.9898C98.2541 27.1254 98.7065 28.4485 98.7848 29.8182C98.8631 31.1879 98.5644 32.553 97.9205 33.7681C100.048 30.3466 99.5638 25.95 98.7854 21.9896C98.5778 20.8776 98.4567 19.5005 99.3995 18.8675C100.342 18.2345 101.821 18.9787 102.574 19.9624C105.168 23.3839 104.217 28.174 102.79 32.1857C103.749 30.0341 104.382 27.7541 104.667 25.4197C104.987 22.768 104.892 19.9453 106.241 17.6357C106.352 17.4017 106.538 17.2096 106.769 17.0883C107.218 16.883 107.737 17.2081 108.092 17.5588C110.047 19.4834 110.557 22.4857 110.098 25.163C109.485 27.8267 108.446 30.3765 107.019 32.716C108.941 29.7742 110.415 26.5694 111.396 23.2042C111.599 22.2518 111.984 21.3462 112.529 20.5355C112.811 20.136 113.216 19.8371 113.683 19.6831C114.15 19.529 114.656 19.5279 115.124 19.6801C116.577 20.3131 116.369 22.4002 115.85 23.88C114.677 27.2092 113.134 30.3993 111.249 33.3918C113.362 29.1264 116.874 25.6951 121.213 23.6576C122.104 23.171 123.11 22.9288 124.127 22.9562C124.633 22.986 125.114 23.1786 125.498 23.5045C125.882 23.8304 126.148 24.2717 126.255 24.761C126.271 25.4483 126.072 26.1236 125.684 26.6942C123.029 31.4941 119.433 35.7222 115.106 39.1313C118.263 35.4874 121.818 31.7494 126.532 30.5776C127.325 30.325 128.178 30.325 128.971 30.5776C129.364 30.7104 129.696 30.9788 129.906 31.3338C130.115 31.6888 130.189 32.1066 130.113 32.5107C129.922 33.1779 129.248 33.5714 128.651 33.9136C124.534 36.2192 120.732 39.0363 117.338 42.2962C120.424 39.5351 124.167 37.5927 128.218 36.6508C130.286 36.1803 133.036 36.3086 133.814 38.2589C133.937 38.5321 133.99 38.8309 133.969 39.1291C133.948 39.4273 133.853 39.7159 133.693 39.9696C133.408 40.2713 133.064 40.5126 132.682 40.6788C132.3 40.8449 131.888 40.9325 131.47 40.9362C127.322 41.5622 123.314 42.8903 119.621 44.8624C122.121 43.4938 124.741 42.0995 127.604 41.9797C130.467 41.86 133.598 43.4767 134.229 46.2566C134.454 47.266 134.16 48.5661 133.166 48.8826C132.639 48.9922 132.092 48.9597 131.583 48.7885C127.645 47.9039 123.522 48.3309 119.855 50.0032C121.404 49.1886 123.069 48.6117 124.793 48.2924C125.657 48.1454 126.542 48.1799 127.392 48.3936C128.241 48.6073 129.036 48.9954 129.723 49.5327C131.678 51.2435 131.851 54.1346 131.877 56.7179C129.498 56.102 127.137 57.5733 125.087 58.8905C121.493 61.4026 117.579 63.4332 113.446 64.9295C109.281 66.4327 104.745 66.6121 100.472 65.4427C96.8718 64.2672 93.7112 62.0502 91.3991 59.0787" fill="#E0D8C7"/>
<path d="M95.1992 63.2554C97.9066 64.7378 101.217 64.4562 104.21 63.6612C106.376 63.0908 108.504 62.3855 110.58 61.5494C112.206 60.8952 113.933 60.009 114.586 58.3941C113.333 58.347 112.078 58.3913 110.831 58.5266C111.669 58.303 112.508 58.0546 113.396 57.7565C114.856 57.3387 116.19 56.5705 117.277 55.5204C116.925 54.9407 116.095 54.9407 115.424 55.0236L114.821 55.1146C115.455 54.9322 116.032 54.593 116.497 54.1291C116.593 54.0418 116.655 53.9249 116.673 53.7979C116.673 53.7207 116.655 53.6447 116.62 53.5757C116.585 53.5067 116.535 53.4467 116.472 53.4004C116.175 53.212 115.839 53.0893 115.489 53.0407C115.139 52.9921 114.783 53.0187 114.444 53.1188L105.928 54.4107C109.042 53.311 112.045 51.9246 114.896 50.2699C115.659 49.831 116.497 49.2348 116.573 48.3569C113.443 49.1848 110.414 50.3455 107.537 51.8186C110.052 49.7979 113.296 48.448 115.19 45.8145C115.492 45.4004 115.676 44.6965 115.19 44.4977C115.005 44.4359 114.805 44.4359 114.62 44.4977C111.456 45.3066 108.533 46.8513 106.096 49.0029C107.185 47.7192 108.543 46.6923 109.75 45.5163C111.031 44.3971 111.935 42.9175 112.34 41.2762C112.11 41.2013 111.865 41.1871 111.628 41.235C111.392 41.283 111.172 41.3914 110.991 41.5495C107.971 43.4392 105.379 45.9262 103.38 48.8538C105.14 46.163 106.682 43.3384 107.99 40.4066C108.258 39.8103 108.417 38.9325 107.814 38.6592C107.648 38.6074 107.472 38.5946 107.3 38.6219C107.129 38.6493 106.966 38.7159 106.825 38.8166C105.788 39.4991 104.941 40.4272 104.361 41.5163C103.053 43.5334 101.931 45.6619 101.008 47.8766C102.067 45.2736 102.878 42.5787 103.43 39.8269C103.522 39.5504 103.539 39.2547 103.479 38.9698C103.418 38.6848 103.283 38.4206 103.087 38.2037C102.017 39.459 101.193 40.8995 100.656 42.4522C99.8176 44.448 99.0465 46.4687 98.2921 48.4977C98.6777 45.7068 99.0549 42.9242 99.4404 40.1416C99.5578 39.3135 99.5745 38.2451 98.8202 37.8311C96.8565 41.3338 95.4273 45.104 94.579 49.0194C94.7215 46.3196 94.8724 43.6116 95.0149 40.9118C95.0149 40.5143 94.9394 39.976 94.5371 39.9594C94.3626 39.9688 94.198 40.0427 94.0761 40.1665C93.3294 40.9323 92.8104 41.8864 92.5758 42.9242C91.9663 44.8312 91.5453 46.792 91.3185 48.7793L91.1844 48.39C89.6254 57.5743 93.1122 62.1043 95.1992 63.2554Z" fill="#E0D8C7"/>
<path d="M94.1299 60.4543C92.3742 58.0842 92.3145 54.4832 93.448 51.7089C94.0113 50.3119 94.9635 49.138 96.1727 48.3497C97.382 47.5614 98.7886 47.1976 100.198 47.3086C101.418 47.5089 102.57 48.047 103.539 48.8703C104.395 49.5471 105.081 50.4439 105.533 51.4792C105.893 52.5043 106.01 53.61 105.873 54.696C105.736 55.7819 105.35 56.8139 104.749 57.6984C103.522 59.4672 101.864 60.8346 99.9595 61.6486C98.8461 62.2554 97.597 62.5132 96.3543 62.3927C96.3543 62.3927 95.6043 62.4294 94.1299 60.4543Z" fill="#E0D8C7"/>
<path d="M232.662 34.0479C211.682 44.3654 191.995 59.7334 182.764 81.1186C177.51 93.2863 175.933 106.646 172.693 119.455C169.454 132.265 163.941 145.358 153.216 153.217" stroke="#E0D8C7" stroke-width="1.54414" stroke-linecap="round" stroke-linejoin="round"/>
<path d="M174.825 113.494C172.506 118.943 168.205 122.605 163.42 126.39C157.665 130.933 152.343 136.104 148.648 142.254C144.953 148.404 142.946 155.647 144.071 162.645C150.379 162.996 156.532 160.198 161.109 156.047C165.686 151.891 169.26 146.856 171.589 141.283C175.794 131.3 175.915 113.502 175.915 113.502L174.825 113.494Z" fill="#E0D8C7"/>
<path d="M179.699 88.9033C174.974 100.995 161.691 113.235 154.329 118.63C146.445 124.357 136.253 125.292 126.735 126.735C135.537 106.232 155.374 91.2989 176.844 88.947L179.699 88.9033Z" fill="#E0D8C7"/>
<path d="M306.433 11.4222C292.739 6.40787 278.474 2.2226 263.823 1.9087C249.172 1.59481 233.957 5.58692 223.204 15.1326C247.424 11.4463 273.064 5.76399 298.318 9.95731C305.627 11.1244 306.433 11.4222 306.433 11.4222Z" fill="#E0D8C7"/>
<path d="M266.71 18.916C266.71 18.916 245.801 22.9033 234.761 22.5346C228.011 22.3117 221.722 21.5657 216.135 22.3545C212.331 22.9586 208.605 23.9998 205.028 25.4586C198.112 28.1486 191.518 31.6382 185.373 35.86C185.373 35.86 234.226 46.3556 266.71 18.916Z" fill="#E0D8C7"/>
<path d="M139.977 83.2282C154.179 83.3006 167.395 76.6388 178.994 69.0196C190.386 61.529 201.085 52.8719 213.748 47.4652C184.686 45.5181 154.897 59.8636 139.977 83.2282Z" fill="#E0D8C7"/>
<path d="M139.976 147.536C108.294 148.036 83.8049 120.737 85.1749 90.5959C85.5856 82.1198 87.7862 73.8169 91.6397 66.2051" stroke="#E0D8C7" stroke-width="1.54414" stroke-miterlimit="10"/>
<path d="M117.084 89.2196C118.427 88.7712 119.89 88.8004 121.212 89.3021C121.859 89.574 122.381 90.0662 122.679 90.6858C122.978 91.3054 123.033 92.0097 122.834 92.666C122.584 93.176 122.228 93.6306 121.789 94.0017C115.343 100.152 107.351 105.347 103.775 113.394C102.053 117.407 101.534 121.81 102.276 126.097C103.018 130.384 104.992 134.38 107.971 137.626L110.179 139.976L105.932 137.082C105.932 137.082 92.7336 121.482 106.578 96.5164C109.584 91.1572 117.084 89.2196 117.084 89.2196Z" fill="#E0D8C7"/>
<path d="M85.1205 100.254C80.282 99.1318 74.1381 67.0499 63.4952 53.5118C59.2484 48.1152 53.94 42.8716 53.0697 36.1238C52.8336 34.894 52.9947 33.6229 53.531 32.4864C54.069 31.6793 54.8392 31.0453 55.745 30.6643C56.6507 30.2833 57.6516 30.1721 58.6218 30.3448C60.5648 30.7223 62.3682 31.6029 63.8432 32.8944C72.7457 39.8886 76.8272 51.2002 78.8548 62.1802C80.8824 73.1603 81.3176 84.4888 84.9464 95.0865" fill="#E0D8C7"/>
<path d="M78.4872 116.332C76.7657 115.787 74.9858 115.488 73.1928 115.443C70.1788 115.198 67.1545 115.743 64.377 117.034C63.004 117.704 61.7883 118.701 60.8205 119.951C59.8527 121.2 59.1576 122.67 58.7871 124.25C58.1632 127.441 59.5258 131.12 62.2674 132.471C65.1978 133.919 68.5715 132.524 71.6332 131.431C81.1139 128.054 92.0638 127.938 100.584 133.573L102.144 134.301L99.3611 131.226C99.3611 131.226 90.0446 120.98 78.4872 116.332Z" fill="#E0D8C7"/>
<path d="M55.4855 92.6863C58.0566 92.5296 59.6936 89.9596 60.2421 87.6248C60.5683 86.4542 60.618 85.2336 60.3878 84.0441C59.5993 80.6123 54.9371 78.4968 51.4061 79.868C47.8751 81.2391 46.2639 85.6033 47.978 88.7217C48.9268 90.2625 50.4644 91.4288 52.2958 91.997C54.1273 92.5653 56.1238 92.4954 57.9024 91.8009" fill="#E0D8C7"/>
<path d="M170.763 22.7275C171.039 22.6885 171.319 22.6885 171.595 22.7275C173.193 23.0067 174.824 25.1893 174.824 25.1893C176.372 27.4903 177.886 30.0451 177.803 32.803C177.662 34.6073 177.091 36.3495 176.139 37.8788C175.567 39.0579 174.707 40.0686 173.642 40.8143C172.922 41.2407 172.117 41.498 171.287 41.5672C170.247 41.6825 169.195 41.5837 168.193 41.2767C167.192 40.9696 166.261 40.4606 165.457 39.7801C164.654 39.0995 163.993 38.2613 163.515 37.3155C163.036 36.3696 162.75 35.3356 162.674 34.275C170.13 33.0314 170.829 25.883 170.763 22.7275Z" fill="#E0D8C7"/>
<path d="M178.164 17.0373C180.196 16.9446 182.221 17.3516 184.058 18.2222C184.845 18.612 185.604 19.0564 186.328 19.552C187.174 20.0482 187.897 20.7269 188.444 21.5381C188.962 22.6277 189.195 23.8299 189.121 25.033C189.228 26.2827 189.095 27.5413 188.727 28.7411C188.16 29.989 187.299 31.0825 186.217 31.9291C185.336 32.7904 184.278 33.4507 183.115 33.8641C182.534 34.0605 181.912 34.1009 181.31 33.9811C180.708 33.8614 180.149 33.5858 179.689 33.1822C179.689 33.1822 180.263 27.0021 175.593 23.2259C170.924 19.4497 178.164 17.0373 178.164 17.0373Z" fill="#E0D8C7"/>
<path d="M172.538 10.7493C175.415 7.92509 179.267 5.17334 181.21 5.75266C183.986 6.59448 185.871 9.43674 186.788 12.3786C187.204 13.5294 187.352 14.7728 187.217 15.9993C187.04 17.2032 186.333 19.3666 185.316 18.8325C184.298 18.2984 179.309 14.6234 175.574 16.5424C171.839 18.4614 171.419 18.1355 171.419 18.1355L170.3 16.1803C170.3 16.1803 169.669 13.5734 172.538 10.7493Z" fill="#E0D8C7"/>
<path d="M164.357 5.11122C165.384 2.53913 159.414 4.26298 157.196 5.60375C155.214 6.80771 153.273 8.75958 153.216 11.2861C153.232 12.3445 153.475 13.383 153.925 14.3142C155.826 18.601 160.246 21.5471 164.454 20.6441C164.454 20.6441 168.214 21.1914 168.345 19.0206C168.475 16.8498 165.082 15.6641 164.675 14.4601C164.267 13.2562 162.277 10.3557 164.357 5.11122Z" fill="#E0D8C7"/>
<path d="M156.163 15.5885C154.176 13.1652 152.631 21.0512 153.431 24.1152C154.073 26.1075 155.146 27.9247 156.571 29.43C157.708 30.7444 159.094 32.0669 160.8 32.1408C161.485 32.2011 162.175 32.0912 162.81 31.8205C164.059 31.2372 168.993 29.6682 170.13 22.2751C171.267 14.882 163.355 24.3698 156.163 15.5885Z" fill="#E0D8C7"/>
<path d="M170.186 17.0241C170.774 7.09795 179.476 9.06904 179.699 4.03083C179.48 2.77982 178.854 1.63433 177.917 0.76926C176.874 0.156809 175.657 -0.100785 174.452 0.035627C171.495 0.106339 168.217 0.574804 166.311 2.78454C165.106 4.28646 164.489 6.17006 164.574 8.08791C164.812 10.2351 165.302 12.3473 166.035 14.3812C166.492 15.0942 167.1 15.6999 167.817 16.1562C168.534 16.6126 169.342 16.9087 170.186 17.0241Z" fill="#E0D8C7"/>
<path d="M164.87 16.8103C163.995 18.8754 165.115 21.2601 166.935 22.7407C167.689 23.3735 168.579 23.863 169.553 24.1792C170.526 24.4954 171.562 24.6317 172.596 24.5799C173.629 24.5108 174.622 24.1939 175.469 23.663C176.316 23.132 176.987 22.4067 177.409 21.564C177.752 20.7391 177.876 19.8546 177.771 18.9798C177.667 18.1051 177.336 17.2638 176.805 16.5219C175.151 14.1451 173.9 12.8125 169.568 13.3658C165.237 13.9191 164.87 16.8103 164.87 16.8103Z" fill="#E0D8C7"/>
<path d="M164.87 16.8103C163.995 18.8754 165.115 21.2601 166.935 22.7407C167.689 23.3735 168.579 23.863 169.553 24.1792C170.526 24.4954 171.562 24.6317 172.596 24.5799C173.629 24.5108 174.622 24.1939 175.469 23.663C176.316 23.132 176.987 22.4067 177.409 21.564C177.752 20.7391 177.876 19.8546 177.771 18.9798C177.667 18.1051 177.336 17.2638 176.805 16.5219C175.151 14.1451 173.9 12.8125 169.568 13.3658C165.237 13.9191 164.87 16.8103 164.87 16.8103Z" stroke="#FAF2E1" stroke-width="1.54414" stroke-miterlimit="10"/>
<path d="M147.543 183.481C138.365 192.482 132.548 204.562 131.121 217.586C131.095 218.399 130.908 219.197 130.571 219.931C129.454 221.918 126.342 221.636 124.872 219.888C123.403 218.141 123.132 215.702 123.025 213.408C122.68 206.485 123.419 198.743 128.378 194.114C130.313 192.477 132.468 191.144 134.775 190.157L146.582 184.368" fill="#E0D8C7"/>
<path d="M115.386 203.352C112.372 207.986 111.684 213.782 111.875 219.32C112.065 224.859 113.034 230.347 112.985 235.886C113.057 236.951 112.824 238.014 112.314 238.95C111.063 240.793 108.048 240.511 106.45 238.95C104.851 237.389 104.288 235.08 103.824 232.897C102.557 226.96 101.414 220.782 102.731 214.853C104.048 208.924 108.446 203.228 114.442 202.397" fill="#E0D8C7"/>
<path d="M136.189 164.833C136.265 168.957 135.307 173.035 133.402 176.686C131.498 180.337 128.709 183.445 125.295 185.719C123.308 187.018 120.587 187.972 118.684 186.579C116.646 185.066 116.978 181.704 118.684 179.752C120.39 177.8 122.788 176.82 125.014 175.59C129.655 173.027 133.496 169.209 136.103 164.566" fill="#E0D8C7"/>
<path d="M128.627 147.542C128.627 147.542 115.653 138.848 123.605 124.374C131.557 109.901 127.449 102.15 119.387 107.763C111.325 113.375 103.629 139.399 128.627 147.542Z" fill="#E0D8C7"/>
<path d="M89.4381 113.494C97.5014 78.224 133.091 82.6537 136.077 76.6695C139.064 70.6852 83.3287 61.1572 89.3613 113.486L89.4381 113.494Z" fill="#E0D8C7"/>
<path d="M196.724 11.3662C196.72 10.2439 197.05 9.14574 197.671 8.21071C198.292 7.27568 199.176 6.54574 200.211 6.11318C201.247 5.68063 202.388 5.56489 203.489 5.78061C204.59 5.99633 205.603 6.53381 206.399 7.32509C207.195 8.11636 207.739 9.1259 207.961 10.226C208.183 11.3262 208.074 12.4675 207.647 13.5057C207.221 14.5438 206.496 15.4322 205.565 16.0585C204.634 16.6848 203.537 17.0209 202.415 17.0242C201.67 17.0264 200.932 16.8818 200.242 16.5986C199.553 16.3155 198.926 15.8993 198.398 15.3739C197.869 14.8485 197.449 14.2242 197.162 13.5365C196.875 12.8489 196.726 12.1114 196.724 11.3662Z" fill="#E0D8C7"/>
<path d="M66.2051 9.4579C66.2051 8.33555 66.5379 7.23841 67.1614 6.30521C67.785 5.37201 68.6712 4.64467 69.7082 4.21517C70.7451 3.78566 71.8861 3.67328 72.9869 3.89224C74.0876 4.1112 75.0988 4.65167 75.8924 5.44529C76.686 6.23891 77.2265 7.25004 77.4454 8.35082C77.6644 9.45161 77.552 10.5926 77.1225 11.6295C76.693 12.6664 75.9657 13.5527 75.0325 14.1762C74.0993 14.7998 73.0021 15.1326 71.8798 15.1326C70.3748 15.1326 68.9314 14.5347 67.8672 13.4705C66.8029 12.4063 66.2051 10.9629 66.2051 9.4579Z" fill="#E0D8C7"/>
<path d="M25.202 376.421C17.4053 337.73 28.4939 279.972 49.1811 247.795" stroke="#E0D8C7" stroke-width="1.14394" stroke-miterlimit="10"/>
<path d="M30.7249 298.867C29.9116 298.189 30.3183 296.798 30.855 295.835C35.9704 286.554 42.4439 277.959 50.5683 271.325C58.6928 264.691 68.5332 260.1 78.8615 259.179C81.5778 258.936 85.3676 259.966 85.1074 262.772C84.9935 264.247 83.7086 265.285 82.4643 266.023C78.4956 268.318 73.8925 269.03 69.4522 270.161C53.5273 274.338 39.6158 284.327 30.302 298.273" fill="#E0D8C7"/>
<path d="M27.8378 299.935C27.2917 287.031 26.6602 273.754 21.0116 261.985C19.4074 258.613 17.4108 255.428 15.7042 252.097C15.3163 251.474 15.1183 250.761 15.1326 250.038C15.3117 248.49 17.2743 247.72 18.9211 247.801C22.283 247.963 25.1329 250.232 27.0869 252.867C33.3584 261.24 32.4881 272.498 31.3532 282.719C30.6081 289.365 29.8685 296.009 29.1347 302.65" fill="#E0D8C7"/>
<path d="M25.0558 316.936C18.5893 306.449 14.5733 294.738 13.2858 282.614C13.1934 281.807 13.185 280.782 13.8659 280.249C15.0682 279.321 16.6739 280.75 17.4306 282.033C23.5312 292.39 26.3562 304.23 25.5602 316.105C28.6777 307.093 35.1582 299.508 43.7532 294.811C47.6962 292.672 52.5807 291.203 56.6834 293.043C57.0617 295.788 55.7166 298.532 53.7661 300.558C51.7088 302.488 49.3694 304.119 46.8218 305.401L24.9801 317.783" fill="#E0D8C7"/>
<path d="M20.7606 341.597C16.6411 334.668 13.5837 327.185 11.6861 319.389C11.2942 318.228 11.2425 316.983 11.5368 315.795C11.9267 314.644 13.1958 313.695 14.3985 314.092C14.9486 314.308 15.4277 314.667 15.7838 315.13C19.1017 318.991 20.3957 324.166 20.9431 329.195C21.4906 334.224 21.4408 339.342 22.6021 344.265C22.9088 337.803 25.2723 331.595 29.3624 326.51C33.5098 321.554 39.7724 318.148 46.3336 317.945C47.3373 317.945 48.54 318.066 49.0045 318.942C49.469 319.818 48.9299 320.816 48.3326 321.579C46.0433 324.482 42.6175 326.275 39.4655 328.27C33.288 332.17 27.8466 337.084 23.3818 342.797" fill="#E0D8C7"/>
<path d="M23.9486 369.641C21.7154 368.67 19.7681 367.135 18.2949 365.184C16.1126 362.422 14.579 359.198 13.8089 355.753C13.0389 352.308 13.0524 348.732 13.8484 345.293C15.0472 344.985 15.9824 346.322 16.484 347.461C18.4128 351.837 19.9134 356.393 20.9645 361.062C21.7296 364.422 22.3163 367.978 24.3652 370.746C25.6682 362.989 28.4237 355.552 32.4845 348.833C34.9671 344.728 38.1468 340.751 42.5932 339.011C43.1039 338.753 43.6644 338.609 44.2356 338.592C44.8068 338.574 45.375 338.682 45.9005 338.908C47.0652 339.586 47.3968 341.137 47.2608 342.474C46.9122 345.902 44.4041 348.636 42.0321 351.095L24.6458 369.161" fill="#E0D8C7"/>
<path d="M67.1498 107.819C69.7615 107.819 71.8787 105.278 71.8787 102.144C71.8787 99.0104 69.7615 96.4697 67.1498 96.4697C64.5381 96.4697 62.4209 99.0104 62.4209 102.144C62.4209 105.278 64.5381 107.819 67.1498 107.819Z" fill="#E0D8C7"/>
<path d="M51.43 378.313C48.6017 371.757 48.4337 364.437 50.9586 357.77C53.4835 351.103 58.5217 345.563 65.0985 342.221C67.1722 341.035 69.5579 340.432 71.9779 340.485C74.3782 340.675 76.7986 342.126 77.4011 344.301C78.1745 347.163 75.8646 349.882 73.4844 351.752C68.8044 355.425 63.2205 357.953 58.5505 361.645C53.8805 365.338 50.0441 370.843 50.8174 376.567C50.9279 377.321 51.6108 378.284 52.2736 377.864" fill="#E0D8C7"/>
<path d="M60.1684 325.837C59.6576 325.797 59.1482 325.937 58.7022 326.241C58.2562 326.544 57.893 326.999 57.6569 327.548C57.2048 328.644 56.9373 329.838 56.8699 331.061C56.7108 332.468 56.5853 334.098 57.3052 335.191C57.7795 335.858 58.425 336.315 59.1387 336.487C61.3237 337.135 63.6092 336.193 65.6687 335.1C66.3889 334.792 67.0317 334.266 67.5356 333.571C67.9012 332.928 68.0968 332.165 68.0965 331.385C68.0958 329.856 67.7348 328.359 67.0556 327.07C66.3765 325.781 65.4075 324.753 64.2622 324.106C63.642 323.717 62.9593 323.496 62.2613 323.458C61.355 323.483 60.4908 323.925 59.8451 324.695C59.1994 325.464 58.8209 326.503 58.787 327.598" fill="#E0D8C7"/>
<path d="M696.953 238.71C691.845 247.355 685.726 255.361 678.726 262.561C672.482 268.988 665.489 274.812 660.548 282.29C659.439 283.972 658.398 285.965 658.904 287.919C659.517 290.272 662.133 291.527 664.545 291.809C670.478 292.48 676.275 288.989 679.971 284.302C683.667 279.616 685.661 273.821 687.587 268.171C690.887 258.448 694.188 248.748 697.488 239.07L696.953 238.71Z" fill="#E0D8C7"/>
<path d="M702.372 249.561C700.391 245.544 698.911 241.299 697.966 236.921C696.768 251.039 697.786 265.258 700.981 279.062C701.788 282.542 702.81 286.111 704.969 288.717C707.128 291.323 710.737 292.664 713.47 290.904C716.203 289.145 717.059 285.323 717.01 281.842C716.806 269.542 707.731 260.237 702.372 249.561Z" fill="#E0D8C7"/>
<path d="M695.087 272.527C697.402 294.891 693.511 305.343 692.976 310.088C691.868 320.084 686.547 331.334 677.988 336.613C676.849 337.417 675.491 337.851 674.098 337.858C671.005 337.654 669.108 334.037 669.507 330.964C669.906 327.892 671.831 325.276 673.66 322.777C678.698 315.913 694.795 293.792 695.116 272.527" fill="#E0D8C7"/>
<path d="M711.62 325.82C713.468 328.057 715.375 331.119 718.224 330.565C721.376 329.962 722.29 325.801 721.697 322.65C720.014 313.763 712.447 307.424 706.874 300.287C700.055 291.55 695.922 281.021 694.979 269.979C694.979 269.979 695.445 277.603 695.659 279.8C695.873 281.997 699.239 310.934 711.62 325.82Z" fill="#E0D8C7"/>
<path d="M699.697 310.351C699.92 328.825 691.916 342.253 683.755 357.927C682.141 361.038 680.458 364.256 680.263 367.757C680.069 371.257 681.849 375.127 685.204 376.167C689.367 377.461 693.472 373.96 695.903 370.333C706.058 355.204 703.86 335.33 701.272 317.244" fill="#E0D8C7"/>
<path d="M661.354 362.564C658.387 362.769 656.578 365.948 655.956 368.846C655.585 370.298 655.529 371.813 655.79 373.289C656.685 377.558 661.976 380.173 665.984 378.472C669.991 376.77 671.819 371.364 669.874 367.484C668.796 365.574 667.049 364.13 664.971 363.428C662.892 362.726 660.627 362.817 658.611 363.683" fill="#E0D8C7"/>
<path d="M653.825 352.56C653.825 353.713 653.483 354.841 652.841 355.801C652.2 356.76 651.289 357.508 650.222 357.949C649.156 358.391 647.983 358.507 646.851 358.281C645.719 358.056 644.679 357.501 643.863 356.685C643.046 355.869 642.491 354.829 642.265 353.698C642.04 352.566 642.156 351.393 642.598 350.327C643.039 349.261 643.787 348.35 644.747 347.709C645.707 347.068 646.835 346.726 647.989 346.726C649.537 346.726 651.021 347.34 652.116 348.434C653.21 349.528 653.825 351.012 653.825 352.56Z" fill="#E0D8C7"/>
<path d="M711.008 200.233C697.393 221.736 694.83 249.783 696.11 276.002C697.391 302.221 702.052 328.204 700.873 354.492" stroke="#E0D8C7" stroke-width="1.02233" stroke-miterlimit="10"/>
<path d="M685.445 4.85645C694.892 12.8758 698.98 25.5137 701.308 37.6826C709.429 79.5835 697.879 142.133 676.331 176.988" stroke="#E0D8C7" stroke-width="1.02233" stroke-miterlimit="10"/>
<path d="M695.839 121.53C696.741 122.252 696.29 123.749 695.703 124.787C690.019 134.782 682.836 144.046 673.83 151.19C664.825 158.335 653.898 163.287 642.438 164.261C639.415 164.523 635.219 163.413 635.499 160.391C635.634 158.813 637.051 157.685 638.44 156.891C642.835 154.42 647.951 153.662 652.878 152.435C670.541 147.934 685.972 137.181 696.308 122.171" fill="#E0D8C7"/>
<path d="M700.135 120.582C700.712 134.943 701.389 149.718 707.354 162.807C709.05 166.56 711.162 170.114 712.966 173.813C713.378 174.505 713.59 175.298 713.58 176.104C713.39 177.827 711.306 178.693 709.573 178.603C706.018 178.422 702.995 175.896 700.929 172.965C694.297 163.637 695.217 151.117 696.417 139.742C697.199 132.345 697.981 124.948 698.763 117.551" fill="#E0D8C7"/>
<path d="M702.838 101.224C709.78 112.94 714.091 126.024 715.471 139.571C715.562 140.473 715.58 141.627 714.84 142.223C713.558 143.251 711.826 141.654 711.014 140.229C704.483 128.646 701.473 115.411 702.351 102.144C698.999 112.216 692.041 120.694 682.815 125.949C678.583 128.331 673.341 129.973 668.937 127.916C668.54 124.858 669.975 121.782 672.068 119.518C674.281 117.366 676.791 115.543 679.522 114.105L702.983 100.304" fill="#E0D8C7"/>
<path d="M706.802 73.7922C711.278 81.4968 714.6 89.8149 716.665 98.4818C717.091 99.7725 717.148 101.157 716.827 102.478C716.403 103.759 715.023 104.814 713.723 104.381C713.143 104.131 712.639 103.733 712.262 103.227C708.652 98.9328 707.245 93.1686 706.649 87.5758C706.053 81.983 706.117 76.3 704.844 70.8154C704.503 78.0012 701.933 84.9027 697.49 90.5616C692.978 96.0823 686.157 99.8709 679.019 100.087C677.927 100.087 676.619 99.9521 676.123 98.9779C675.626 98.0037 676.204 96.8941 676.853 96.0462C679.344 92.8168 683.062 90.8232 686.491 88.6132C693.209 84.2705 699.128 78.802 703.987 72.4482" fill="#E0D8C7"/>
<path d="M703.854 44.8443C706.222 45.8698 708.286 47.4885 709.845 49.5441C712.164 52.45 713.794 55.844 714.611 59.4705C715.429 63.097 715.413 66.8616 714.565 70.481C713.292 70.7967 712.309 69.3895 711.767 68.1898C709.726 63.5849 708.133 58.7937 707.012 53.883C706.2 50.3379 705.586 46.5943 703.402 43.6807C702.016 51.8508 699.092 59.684 694.785 66.7645C692.15 71.0764 688.775 75.271 684.065 77.0932C683.522 77.3679 682.926 77.5201 682.318 77.5388C681.709 77.5575 681.105 77.4423 680.546 77.2014C679.319 76.4978 678.958 74.856 679.102 73.4488C679.472 69.8406 682.134 66.972 684.652 64.374C690.806 58.0415 696.957 51.7271 703.105 45.4307" fill="#E0D8C7"/>
<path d="M697.321 20.318C701.333 22.32 704.854 25.1816 707.633 28.6991C710.413 32.2166 712.382 36.3034 713.401 40.6686C709.873 41.2369 707.211 37.6738 705.442 34.5707C702.693 29.7597 699.944 24.9486 697.195 20.1376C697.101 25.2265 695.875 30.2306 693.606 34.7867C691.336 39.3428 688.08 43.3366 684.075 46.4779C682.883 47.38 681.079 48.2099 680.014 47.1545C679.741 46.8017 679.547 46.3943 679.446 45.96C679.345 45.5257 679.339 45.0747 679.427 44.6377C680.258 34.715 687.882 26.849 695.056 19.9121" fill="#E0D8C7"/>
<path d="M616.849 76.8774C618.164 70.9697 618.012 64.83 616.406 58.9946C614.8 53.1592 611.789 47.8057 607.636 43.4018C591.042 26.0551 560.804 24.3682 538.787 29.1853C522.689 32.7123 507.791 40.2716 492.135 45.5217C480.071 49.6261 466.969 52.3323 454.182 50.3567C441.396 48.3812 427.446 38.9095 422.654 31.5848" stroke="#E0D8C7" stroke-width="1.02233" stroke-miterlimit="10"/>
<path d="M607.183 43.7266C608.934 50.5101 606.281 57.8258 601.868 63.2833C597.456 68.7408 591.51 72.6648 585.626 76.4805C579.743 80.2963 573.76 84.1752 569.267 89.5515C569.439 82.88 571.773 76.4446 575.917 71.2125C584.309 60.6944 598.936 56.4908 606.877 45.6299" fill="#E0D8C7"/>
<path d="M610.487 46.1709C614.773 49.3913 620.115 50.7714 625.259 52.2689C634.58 54.9751 644.208 58.6374 650.398 66.0705C654.63 71.113 656.931 77.4545 659.151 83.6607C647.152 81.9333 636.118 76.1182 627.912 67.198C625.21 64.1127 622.691 60.8718 620.368 57.4918L613.952 48.5794" fill="#E0D8C7"/>
<path d="M584.236 29.2118C592.944 25.7028 602.175 22.1216 611.46 23.5108C614.246 23.9673 616.97 24.739 619.581 25.811C627.394 28.9103 634.481 33.5908 640.399 39.5585C633.829 39.6397 627.062 39.6938 620.935 37.3033C618.625 36.4013 616.423 35.1745 614.194 34.1371C607.45 31.0531 600.032 29.7338 592.637 30.3033C590.545 30.5963 588.428 30.6658 586.321 30.5108" fill="#E0D8C7"/>
<path d="M584.686 31.4492C586.419 37.2675 584.434 43.5008 581.979 49.0666C579.471 54.8578 576.394 60.5498 571.81 64.8888C568.498 68.028 564.501 70.3643 561.099 73.4043C556.824 77.2402 553.587 82.0929 551.688 87.5126C553.417 79.7099 555.957 72.1094 559.267 64.8347C560.702 61.3157 562.485 57.9492 564.591 54.7856C570.303 46.6671 579.678 41.0111 583.288 31.7379" fill="#E0D8C7"/>
<path d="M561.841 25.9828C568.944 26.0553 575.962 24.4382 582.316 21.265C585.366 19.7315 588.226 17.8642 591.222 16.2405C603.629 9.51111 618.067 7.21986 632.171 7.74306C623.734 1.54587 612.526 -0.140991 602.222 1.81649C591.917 3.77397 582.505 8.96987 574.312 15.4647C569.656 19.1632 565.225 23.3578 559.712 25.6039" fill="#E0D8C7"/>
<path d="M526.323 31.8011C544 25.8294 554.295 6.01102 572.072 0.31899C566.838 -0.583075 561.505 0.598631 556.335 1.74425C550.867 2.944 545.245 4.21591 540.661 7.41824C535.518 11.0265 532.224 16.6193 529.093 22.0497L522.776 33.0549" fill="#E0D8C7"/>
<path d="M507.781 31.2235C510.488 26.7132 511.445 21.373 513.538 16.5379C516.581 9.56544 521.827 3.78259 528.472 0.0751953C518.618 0.814889 509.703 7.0662 504.208 15.275C498.712 23.4838 496.402 33.2441 495.834 43.0045C500.373 39.6398 504.921 36.0947 507.781 31.2235Z" fill="#E0D8C7"/>
<path d="M557.101 27.498C560.296 28.797 561.117 32.9826 560.711 36.4104C559.808 44.6553 554.791 51.7456 550.316 58.7726C545.84 65.7997 541.608 73.6206 542.465 81.8745C540.614 77.4614 539.463 72.7866 539.054 68.0188C538.655 64.5742 538.962 61.0845 539.957 57.7623C540.962 55.0971 542.289 52.5646 543.909 50.2211L558.004 27.895" fill="#E0D8C7"/>
<path d="M495.104 45.2955C491.464 49.913 489.549 55.6553 489.69 61.5326C489.997 67.351 493.001 73.1152 497.982 76.1371C501.511 78.275 505.77 78.9696 509.307 81.0894C511.115 82.1833 512.689 83.6227 513.94 85.3253C515.191 87.0279 516.094 88.9604 516.598 91.0121C519.247 86.6983 520.211 81.5592 519.305 76.5791C518.825 74.1188 517.775 71.8051 516.239 69.8235C514.704 67.8419 512.725 66.2474 510.462 65.168C508.179 64.1577 505.661 63.7608 503.369 62.7775C500.096 61.2379 497.471 58.5911 495.961 55.3047C494.45 52.0182 494.149 48.3037 495.113 44.8174" fill="#E0D8C7"/>
<path d="M522.813 35.0312C526.197 36.6796 528.791 39.5977 530.032 43.1498C531.225 46.6864 531.781 50.4064 531.674 54.137C531.744 58.3592 531.496 62.5806 530.934 66.7659C530.14 72.5301 528.958 79.1152 532.694 83.5714C524.825 77.3471 518.5 68.119 518.852 58.0971C519.123 50.4475 523.21 43.0145 521.866 35.4823" fill="#E0D8C7"/>
<path d="M677.386 4.65723C679.932 10.8582 680.086 17.7833 677.817 24.0911C675.548 30.3989 671.018 35.6404 665.105 38.8004C663.244 39.9281 661.099 40.4979 658.924 40.4421C656.767 40.2617 654.601 38.8906 654.06 36.8339C653.365 34.1277 655.431 31.5568 657.579 29.7888C661.775 26.3158 666.792 23.9253 670.988 20.4434C675.184 16.9614 678.631 11.7384 677.927 6.32605C677.837 5.61342 677.223 4.71135 676.628 5.10826" fill="#E0D8C7"/>
<path d="M668.306 5.42406C668.676 11.2875 664.471 16.8803 658.994 19.0001C656.937 19.803 654.572 20.1548 652.569 19.2527C650.566 18.3507 649.176 15.861 650.079 13.8403C650.981 11.8197 653.688 11.1341 655.944 10.8274C660.456 10.1328 665.247 9.0233 668.008 5.41504" fill="#E0D8C7"/>
<path d="M702.451 4.61285C706.555 4.56713 710.621 5.3963 714.378 7.0451C718.136 8.6939 721.499 11.1244 724.243 14.1747C726.003 16.1503 727.537 18.5047 727.78 21.1387C728.024 23.7727 726.634 26.6954 724.117 27.5163C723.762 27.6375 723.39 27.7014 723.016 27.7057C721.211 27.7057 719.867 26.0459 718.82 24.5485L709.598 11.3513C707.495 8.33838 704.996 5.03682 701.359 4.47754" fill="#E0D8C7"/>
<path d="M668.001 60.8029C668.552 60.8377 669.1 60.7122 669.581 60.4417C670.061 60.1711 670.453 59.767 670.708 59.2785C671.192 58.2997 671.483 57.237 671.566 56.1483C671.737 54.8854 671.872 53.4421 671.087 52.4588C670.578 51.8635 669.881 51.4594 669.111 51.3132C666.756 50.7269 664.302 51.5658 662.082 52.54C661.302 52.8119 660.605 53.2812 660.061 53.9022C659.669 54.4767 659.458 55.1554 659.456 55.8506C659.456 57.2117 659.844 58.5446 660.574 59.6933C661.304 60.8419 662.347 61.7588 663.58 62.3365C664.244 62.6868 664.977 62.887 665.727 62.9228C666.704 62.8984 667.634 62.5034 668.329 61.8182C669.025 61.133 669.434 60.2088 669.472 59.2334" fill="#E0D8C7"/>
<path d="M487.974 46.3692C486.837 46.7751 485.817 45.5302 485.402 44.3936C483.372 38.8008 486.187 32.739 488.795 27.3897C491.403 22.0405 493.875 15.6629 491.249 10.3587C488.786 5.34324 481.73 3.27751 476.947 6.16411" stroke="#E0D8C7" stroke-width="1.02233" stroke-miterlimit="10"/>
<path d="M403.37 35.581C403.631 35.7788 403.945 35.895 404.272 35.9147C416.102 37.4753 427.661 30.7279 435.764 21.9598C437.803 19.7407 439.987 17.251 442.676 16.1415C442.604 16.0062 442.55 15.8618 442.486 15.7175C440.745 15.0229 439.085 13.9134 437.334 13.2098C432.344 11.1621 426.623 12.2446 421.525 14.0397C416.896 15.6724 412.393 17.9276 408.892 21.3554C405.391 24.7833 402.936 29.474 403.009 34.4083C402.986 34.618 403.007 34.83 403.069 35.0316C403.131 35.2331 403.233 35.42 403.37 35.581Z" fill="#E0D8C7"/>
<path d="M460.37 21.6071C460.152 21.8307 459.903 22.0221 459.63 22.1754C458.087 23.0234 455.254 22.3017 455.254 22.3017C452.412 21.3997 449.434 20.3082 447.656 17.9267C446.565 16.312 445.889 14.4528 445.689 12.5143C445.388 11.15 445.438 9.73179 445.834 8.39188C446.164 7.54913 446.679 6.79093 447.34 6.1728C448.146 5.37431 449.105 4.74663 450.159 4.32737C451.213 3.90811 452.341 3.70589 453.475 3.73285C454.609 3.7598 455.726 4.01537 456.759 4.48423C457.792 4.9531 458.719 5.62561 459.486 6.46146C454.054 12.5504 458.205 18.9551 460.37 21.6071Z" fill="#E0D8C7"/>
<path d="M458.116 29.8982C456.502 31.3063 454.565 32.2947 452.477 32.7758C451.57 32.9731 450.65 33.1027 449.725 33.1636C448.701 33.3089 447.658 33.2194 446.675 32.902C445.533 32.3364 444.553 31.4926 443.823 30.4484C442.91 29.4843 442.191 28.3545 441.703 27.1198C441.357 25.7094 441.357 24.2364 441.703 22.826C441.865 21.545 442.302 20.3141 442.984 19.2177C443.334 18.6703 443.824 18.2256 444.403 17.9293C444.981 17.6329 445.628 17.4954 446.278 17.5309C446.278 17.5309 449.887 23.0244 456.203 23.0966C462.52 23.1688 458.116 29.8982 458.116 29.8982Z" fill="#E0D8C7"/>
<path d="M465.83 32.0357C465.171 36.1581 463.61 40.903 461.643 41.7238C458.792 42.9236 455.444 41.9493 452.854 40.2625C451.797 39.6499 450.905 38.7892 450.256 37.7547C449.66 36.6903 448.92 34.5434 450.102 34.2728C451.284 34.0022 457.754 33.5511 459.703 29.564C461.652 25.5769 462.203 25.5498 462.203 25.5498L464.341 26.3075C464.341 26.3075 466.489 27.9132 465.83 32.0357Z" fill="#E0D8C7"/>
<path d="M476.641 31.6573C477.327 34.3635 481.442 28.9511 482.534 26.3532C483.517 24.0529 483.996 21.2024 482.489 19.2178C481.829 18.405 480.98 17.7669 480.016 17.3596C475.73 15.3389 470.09 16.1057 466.995 19.6959C466.995 19.6959 463.386 21.8519 464.622 23.6289C465.858 25.406 469.513 23.9807 470.623 24.6573C471.733 25.3338 475.243 26.1728 476.641 31.6573Z" fill="#E0D8C7"/>
<path d="M477.436 16.1591C480.846 16.8537 476.822 8.98765 474.025 6.92192C472.102 5.64047 469.91 4.81938 467.618 4.52243C465.723 4.18866 463.593 4.02629 462.041 5.15387C461.397 5.58705 460.862 6.16466 460.48 6.84073C459.786 8.21187 456.501 13.0289 460.553 20.1823C464.604 27.3357 465.064 13.6513 477.436 16.1591Z" fill="#E0D8C7"/>
<path d="M464.341 25.2708C470.17 33.5788 462.003 37.4667 465.035 41.6523C466.007 42.5127 467.233 43.0321 468.527 43.1317C469.742 42.9677 470.869 42.4063 471.731 41.535C474.041 39.6226 476.315 37.2051 476.45 34.2193C476.448 32.2544 475.733 30.357 474.438 28.879C472.889 27.3115 471.16 25.9336 469.285 24.7746C468.474 24.4941 467.612 24.3931 466.758 24.4788C465.905 24.5645 465.08 24.8347 464.341 25.2708Z" fill="#E0D8C7"/>
<path d="M469.17 22.1573C468.367 19.7488 465.768 18.2875 463.233 18.1071C462.168 18.0153 461.096 18.1424 460.083 18.4806C459.069 18.8188 458.136 19.3609 457.34 20.0736C456.557 20.7997 455.985 21.7233 455.683 22.7473C455.382 23.7712 455.362 24.8576 455.626 25.8919C455.944 26.8578 456.48 27.7372 457.194 28.4617C457.908 29.1861 458.779 29.736 459.74 30.0685C462.79 31.169 464.757 31.5749 467.862 28.2643C470.966 24.9537 469.17 22.1573 469.17 22.1573Z" fill="#E0D8C7"/>
<path d="M469.17 22.1573C468.367 19.7488 465.768 18.2875 463.233 18.1071C462.168 18.0153 461.096 18.1424 460.083 18.4806C459.069 18.8188 458.136 19.3609 457.34 20.0736C456.557 20.7997 455.985 21.7233 455.683 22.7473C455.382 23.7712 455.362 24.8576 455.626 25.8919C455.944 26.8578 456.48 27.7372 457.194 28.4617C457.908 29.1861 458.779 29.736 459.74 30.0685C462.79 31.169 464.757 31.5749 467.862 28.2643C470.966 24.9537 469.17 22.1573 469.17 22.1573Z" stroke="#E0D8C7" stroke-width="1.02233" stroke-miterlimit="10"/>
<path d="M615.943 73.9824C621.835 74.4966 627.078 77.8072 631.969 81.1358C639.188 86.0611 646.596 91.5907 650.214 99.565C650.403 99.8707 650.524 100.213 650.569 100.57C650.614 100.926 650.582 101.288 650.476 101.631C649.935 102.776 648.229 102.533 647.056 102.037C644.32 100.872 641.777 99.2996 639.512 97.373C641.868 100.647 644.493 104.111 648.337 105.347C648.934 105.494 649.513 105.709 650.061 105.988C651.622 106.944 651.793 109.37 650.656 110.796C650.042 111.475 649.256 111.976 648.381 112.246C647.506 112.516 646.575 112.544 645.684 112.329C643.904 111.878 642.27 110.977 640.938 109.713C639.548 108.522 638.276 107.187 636.787 106.105C637.135 107.883 637.943 109.539 639.131 110.908C640.318 112.277 641.843 113.311 643.555 113.908C644.862 114.185 646.123 114.647 647.3 115.279C647.765 115.641 648.15 116.095 648.433 116.611C648.716 117.128 648.889 117.698 648.944 118.284C648.998 118.871 648.931 119.462 648.748 120.022C648.564 120.582 648.268 121.098 647.877 121.539C647.524 121.926 647.061 122.197 646.551 122.315C646.006 122.39 645.451 122.328 644.936 122.135C639.115 120.331 635.01 115.324 631.229 110.543C632.713 115.874 636.009 120.522 640.55 123.686C641.583 124.289 642.52 125.043 643.329 125.923C643.728 126.369 643.988 126.921 644.078 127.512C644.168 128.104 644.083 128.708 643.835 129.252C642.842 130.957 640.225 130.56 638.529 129.577C633.692 126.807 630.94 121.557 628.45 116.578C628.583 119.567 629.314 122.5 630.601 125.202C631.887 127.904 633.702 130.321 635.939 132.31C637.103 133.329 638.502 134.547 638.267 136.072C638.135 136.63 637.828 137.132 637.392 137.505C636.956 137.878 636.412 138.102 635.84 138.146C634.686 138.196 633.546 137.88 632.582 137.244C629.833 135.517 627.698 132.966 626.482 129.956C625.29 126.968 624.416 123.862 623.875 120.691C623.167 125.976 624.24 131.347 626.925 135.954C627.619 137.154 628.468 138.516 628.007 139.824C627.439 141.493 625.012 141.809 623.559 140.825C622.106 139.842 621.42 138.065 620.924 136.378C619.802 132.549 619.195 128.587 619.119 124.597C616.484 129.685 618.993 135.837 618.65 141.556C612.839 141.746 606.387 141.646 602.137 137.677C604.008 133.335 605.186 128.727 605.629 124.02C604.414 127.467 602.719 130.725 600.594 133.699C599.891 134.908 598.791 135.835 597.481 136.324C596.136 136.676 594.413 135.756 594.476 134.367C594.627 133.559 595.039 132.824 595.649 132.274C598.748 128.65 600.504 124.069 600.621 119.302C599.244 121.485 597.869 123.668 596.497 125.851C595.324 127.709 594.025 129.676 591.986 130.497C589.946 131.318 587.059 130.289 586.86 128.106C590.862 125.126 594.184 121.328 596.606 116.966C594.911 119.177 592.756 120.993 590.289 122.288C589.044 122.933 587.675 123.305 586.275 123.378C584.874 123.451 583.474 123.224 582.168 122.712C581.374 122.36 580.526 121.584 580.842 120.773C581.05 120.373 581.387 120.056 581.798 119.87C585.332 117.857 588.598 115.405 591.516 112.573C590.11 114.231 588.358 115.561 586.382 116.47C584.37 117.254 581.87 117.11 580.3 115.568C578.73 114.025 578.595 111.959 578.405 109.993C582.57 109.415 586.493 107.694 589.739 105.022C587.862 106.299 585.685 107.067 583.422 107.251C581.825 107.377 579.894 106.989 579.29 105.501C578.685 104.012 579.804 102.416 581.185 101.694C582.565 100.972 584.171 100.873 585.696 100.494C587.221 100.115 588.782 99.2944 589.306 97.7879C587.306 98.4735 585.218 98.8714 583.107 98.9696C582.672 99.0304 582.229 98.9413 581.852 98.717C581.175 98.2029 581.446 97.1384 581.789 96.3627C585.317 88.3884 590.758 80.9554 598.419 76.7698C606.08 72.5842 616.16 72.2595 623.198 77.4103" fill="#E0D8C7"/>
<path d="M616.551 74.4872C621.528 74.9014 626.268 76.7918 630.163 79.9161C634.058 83.0403 636.932 87.2562 638.415 92.0233C639.751 96.5878 639.841 101.739 642.792 105.464C641.705 106.419 640.379 107.061 638.956 107.322C637.532 107.582 636.065 107.452 634.71 106.945C633.355 106.437 632.163 105.572 631.261 104.441C630.36 103.309 629.782 101.954 629.59 100.521C629.87 104.76 632.956 108.233 636.006 111.201C636.854 112.022 637.81 113.141 637.386 114.25C636.962 115.36 635.257 115.612 634.021 115.224C629.743 113.871 627.605 109.154 626.378 104.842C626.875 107.272 627.73 109.616 628.913 111.797C630.258 114.268 632.063 116.641 632.315 119.437C632.358 119.707 632.32 119.983 632.207 120.231C631.945 120.682 631.305 120.709 630.79 120.628C627.957 120.15 625.683 117.877 624.474 115.288C623.375 112.629 622.705 109.812 622.489 106.943C622.653 110.633 623.352 114.279 624.564 117.768C624.975 118.709 625.202 119.719 625.232 120.745C625.235 121.259 625.074 121.76 624.772 122.175C624.47 122.59 624.043 122.899 623.553 123.054C621.929 123.388 620.846 121.467 620.368 119.879C619.329 116.305 618.69 112.626 618.464 108.91C619.285 113.866 618.401 118.954 615.956 123.343C615.499 124.297 614.791 125.107 613.907 125.688C613.46 125.971 612.932 126.098 612.406 126.051C611.879 126.003 611.382 125.784 610.993 125.427C610.56 124.843 610.317 124.141 610.298 123.415C609.633 117.686 610.114 111.881 611.715 106.339C611.254 111.382 610.514 116.74 607.203 120.574C606.682 121.271 605.957 121.789 605.127 122.053C604.711 122.178 604.263 122.148 603.867 121.969C603.471 121.79 603.153 121.474 602.971 121.079C602.826 120.36 602.965 119.614 603.359 118.995C605.452 114.526 606.968 109.81 607.871 104.959C606.929 109.197 604.926 113.126 602.05 116.379C600.58 118.039 598.161 119.59 596.302 118.373C596.044 118.208 595.828 117.985 595.671 117.722C595.514 117.459 595.421 117.163 595.4 116.857C595.462 116.425 595.609 116.009 595.834 115.634C596.059 115.259 596.356 114.933 596.708 114.674C599.861 111.619 602.462 108.042 604.396 104.102C603.097 106.808 601.689 109.568 599.361 111.391C597.033 113.213 593.343 113.736 591.123 111.733C590.311 111.003 589.769 109.713 590.428 108.838C590.806 108.414 591.293 108.102 591.836 107.936C595.727 106.322 598.975 103.467 601.076 99.8172C600.25 101.444 599.178 102.935 597.9 104.237C597.256 104.886 596.483 105.392 595.631 105.723C594.779 106.054 593.868 106.203 592.955 106.159C590.248 105.87 588.326 103.452 586.729 101.269C589.129 100.367 590.257 97.6612 591.186 95.2978C592.715 90.9723 594.806 86.8659 597.403 83.0839C600.034 79.311 603.769 76.4462 608.096 74.8841C611.877 73.7248 615.919 73.7248 619.7 74.8841" fill="#E0D8C7"/>
<path d="M614.581 74.2337C611.242 74.369 608.535 76.9399 606.406 79.4838C604.865 81.338 603.442 83.2873 602.147 85.3201C601.136 86.9168 600.162 88.775 600.613 90.6152C603.096 89.0163 605.301 87.0202 607.137 84.7067C605.241 86.427 603.54 88.351 602.066 90.4438C601.042 91.7211 600.357 93.2348 600.071 94.8459C600.739 95.1436 601.47 94.6294 602.002 94.1333C604.178 92.1437 606.152 89.944 607.895 87.5663C606.168 89.3163 604.529 91.1414 602.977 93.0418C602.287 93.7494 601.812 94.6375 601.605 95.6037C601.577 95.7412 601.596 95.8843 601.659 96.0096C601.711 96.0765 601.776 96.1314 601.851 96.1704C601.926 96.2093 602.008 96.2314 602.093 96.2351C602.473 96.2192 602.845 96.1205 603.183 95.946C603.521 95.7715 603.817 95.5254 604.051 95.2248L610.719 88.7841C608.671 91.6907 606.9 94.7833 605.431 98.0212C605.043 98.9233 604.682 99.9336 605.188 100.727C607.418 98.0462 609.346 95.1268 610.936 92.0225C609.97 95.4142 608.003 98.6075 608.003 102.135C608.003 102.685 608.283 103.425 608.824 103.307C609.022 103.24 609.193 103.11 609.311 102.937C611.576 100.254 613.166 97.0686 613.949 93.6462C613.796 95.4503 613.246 97.2544 612.939 99.0586C612.512 100.861 612.651 102.75 613.336 104.471C613.85 104.408 614.148 103.867 614.346 103.388C615.811 99.8329 616.518 96.0109 616.422 92.1668C616.573 95.6532 617.002 99.122 617.703 102.541C617.839 103.235 618.254 104.11 618.948 103.984C619.129 103.926 619.293 103.828 619.429 103.696C619.565 103.565 619.669 103.404 619.733 103.226C620.212 101.996 620.388 100.669 620.248 99.3562C620.133 96.7417 619.785 94.1426 619.21 91.5895C619.92 94.564 620.904 97.4661 622.152 100.258C622.423 100.8 622.801 101.404 623.406 101.44C623.555 99.6627 623.371 97.8732 622.865 96.1629C622.323 93.8717 621.746 91.5895 621.132 89.3163L625.391 97.4349C625.815 98.2557 626.465 99.239 627.385 99.1037C626.908 94.7533 625.789 90.4975 624.065 86.4748L628.793 93.9529C629.019 94.3137 629.452 94.7377 629.813 94.5031C629.962 94.385 630.059 94.2135 630.083 94.025C630.261 92.8808 630.117 91.7098 629.668 90.6423C626.212 76.3987 618.551 74.4051 618.551 74.4051C617.28 73.9262 615.889 73.8662 614.581 74.2337Z" fill="#E0D8C7"/>
<path d="M617.776 75.8943C619.15 76.486 620.367 77.3889 621.332 78.5317C622.296 79.6746 622.982 81.0261 623.334 82.4794C623.64 83.9422 623.484 85.4637 622.887 86.8339C622.291 88.2041 621.284 89.3554 620.005 90.1289C618.837 90.7234 617.533 91.0003 616.224 90.9318C615.1 90.9035 614.002 90.5933 613.03 90.0297C612.142 89.4351 611.417 88.629 610.919 87.6841C610.421 86.7392 610.167 85.6852 610.178 84.6173C610.243 82.4587 610.905 80.3602 612.091 78.5554C612.719 77.3898 613.655 76.4192 614.798 75.75" fill="#E0D8C7"/>
<path d="M689.575 218.493C689.4 222.113 688.243 225.618 686.228 228.632C685.211 230.126 683.873 231.375 682.312 232.287C680.751 233.198 679.006 233.749 677.204 233.9C675.463 233.972 673.514 233.458 672.62 231.961C671.727 230.463 672.169 228.551 672.62 226.864C677.592 202.508 670.626 198.602 666.304 196.969C661.982 195.337 649.674 200.298 646.037 201.85C642.807 203.239 640.542 206.315 638.638 209.283C638.18 210.238 637.431 211.025 636.499 211.529C635.955 211.689 635.376 211.689 634.832 211.529C634.288 211.369 633.802 211.056 633.431 210.627C632.707 209.748 632.231 208.693 632.051 207.569C630.634 201.002 633.512 193.884 638.647 189.527C643.781 185.17 650.901 185.324 657.542 184.313C677.168 181.328 689.972 206.261 689.575 218.493Z" fill="#E0D8C7"/>
<path d="M697.507 211.466C697.678 212.62 697.579 214.172 696.478 214.497C695.576 214.785 694.673 214.1 694.06 213.441C688.645 207.903 685.83 200.235 680.227 194.904V194.381L679.983 194.254C679.983 194.254 675.796 190.953 676.969 188.842C677.224 188.278 677.69 187.836 678.267 187.612C678.844 187.388 679.486 187.398 680.055 187.642C684.655 189.932 688.64 193.29 691.676 197.435C694.712 201.579 696.711 206.391 697.507 211.466Z" fill="#E0D8C7"/>
<path d="M682.413 183.493C685.36 183.3 688.313 183.774 691.052 184.88C693.79 185.985 696.244 187.695 698.231 189.88C699.116 190.833 699.869 191.901 700.469 193.055C701.277 194.703 701.62 196.54 701.461 198.368C701.48 198.81 701.379 199.248 701.17 199.637C700.96 200.026 700.649 200.351 700.27 200.578C699.87 200.667 699.454 200.659 699.057 200.556C698.66 200.452 698.293 200.256 697.987 199.983C686.383 189.357 680.193 188.049 679.498 187.011C678.803 185.974 679.444 183.683 682.413 183.493Z" fill="#E0D8C7"/>
<path d="M697.419 183.935C697.861 183.538 698.322 183.358 698.394 182.834C698.441 182.305 698.318 181.774 698.042 181.319C697.539 180.38 696.766 179.613 695.822 179.118C695.337 178.874 694.829 178.677 694.306 178.532C690.137 177.278 685.671 177.629 681.457 178.712C679.573 179.449 677.732 180.292 675.943 181.238L679.038 183.376C686.925 181.12 694.902 185.613 697.419 183.935Z" fill="#E0D8C7"/>
<path d="M635.462 180.678C634.46 181.273 633.359 182.311 633.774 183.384C634.108 184.286 635.2 184.503 636.121 184.584C643.827 185.233 651.56 182.563 659.23 183.51L659.645 183.186L659.888 183.294C659.888 183.294 665.104 184.431 665.979 182.193C666.255 181.639 666.301 180.998 666.109 180.409C665.916 179.82 665.501 179.331 664.951 179.045C660.262 176.944 655.138 175.996 650.008 176.28C644.877 176.564 639.89 178.072 635.462 180.678Z" fill="#E0D8C7"/>
<path d="M666.675 174.589C664.952 172.191 662.711 170.21 660.118 168.796C657.525 167.381 654.646 166.568 651.696 166.417C650.399 166.341 649.097 166.438 647.825 166.705C646.035 167.126 644.394 168.028 643.079 169.312C642.733 169.583 642.467 169.943 642.308 170.352C642.149 170.762 642.104 171.206 642.176 171.64C642.362 172.006 642.632 172.322 642.965 172.562C643.298 172.802 643.683 172.959 644.089 173.02C659.655 175.248 664.6 179.19 665.845 179.073C667.09 178.955 668.407 176.998 666.675 174.589Z" fill="#E0D8C7"/>
<path d="M656.804 163.287C656.804 162.691 656.677 162.222 657.038 161.834C657.421 161.465 657.91 161.225 658.437 161.149C659.483 160.94 660.567 161.05 661.55 161.464C662.046 161.682 662.518 161.951 662.958 162.267C666.567 164.694 669.121 168.374 670.971 172.307C671.601 174.23 672.12 176.188 672.523 178.171L668.913 177.133C665.638 169.601 657.101 166.29 656.804 163.287Z" fill="#E0D8C7"/>
<path d="M681.113 196.788L671.602 186.793C671.22 186.336 670.755 185.956 670.23 185.674C669.548 185.432 668.822 185.336 668.101 185.395C664.543 185.397 661.013 184.761 657.679 183.518C659.121 181.591 660.86 179.904 662.831 178.521C666.486 175.959 671.421 174.543 675.41 176.518C678.189 177.898 680.021 180.668 681.275 183.5C683.08 187.487 683.901 192.277 681.826 196.129" fill="#E0D8C7"/>
<path d="M673.748 192.92C675.086 196.646 676.051 200.495 676.627 204.412C677.198 208.355 676.569 212.378 674.822 215.958C673.254 218.767 670.936 221.084 668.126 222.652C664.125 225.047 659.35 225.795 654.808 224.736C652.565 224.176 650.495 223.07 648.784 221.517C647.072 219.963 645.772 218.01 644.999 215.832C644.325 213.489 644.15 211.031 644.485 208.616C644.749 204.841 646.166 201.239 648.546 198.296C655.764 191.079 668.208 186.154 670.527 186.777C672.846 187.399 673.748 192.92 673.748 192.92Z" fill="#E0D8C7"/>
<path d="M670.067 193.109C670.458 196.08 670.224 199.1 669.38 201.975C668.536 204.85 667.101 207.518 665.167 209.807C665.125 209.87 665.07 209.924 665.007 209.966C664.943 210.008 664.872 210.036 664.797 210.05" stroke="#E0D8C7" stroke-width="1.02233" stroke-linecap="round" stroke-linejoin="round"/>
<path d="M667.849 193.956L658.491 209.932V209.426" stroke="#E0D8C7" stroke-width="1.02233" stroke-linecap="round" stroke-linejoin="round"/>
<path d="M668.002 192.152C662.02 194.796 657.007 199.231 653.654 204.844" stroke="#E0D8C7" stroke-width="1.02233" stroke-linecap="round" stroke-linejoin="round"/>
<path d="M676.331 176.987C676.69 178.769 676.874 180.582 676.881 182.4C677.005 184.618 676.515 186.828 675.464 188.786C673.804 191.493 670.655 192.918 667.704 194.199C666.748 190.59 666.63 186.504 668.715 183.374C669.665 182.078 670.817 180.942 672.126 180.009C673.326 179.006 674.659 178.175 676.087 177.538" fill="#E0D8C7"/>
<path d="M654.187 202.553L653.483 202.463L652.779 202.553C652.441 202.63 652.13 202.795 651.877 203.031C651.59 203.21 651.356 203.462 651.2 203.762C651.011 204.053 650.902 204.389 650.884 204.736C650.812 205.084 650.83 205.444 650.938 205.782L651.2 206.405C651.419 206.79 651.728 207.115 652.102 207.352L652.734 207.614C653.188 207.74 653.669 207.74 654.123 207.614L653.429 207.704L652.734 207.614C653.073 207.719 653.434 207.734 653.781 207.659C654.128 207.642 654.464 207.533 654.755 207.343C655.055 207.187 655.307 206.953 655.486 206.667C655.719 206.412 655.881 206.101 655.955 205.764L656.054 205.061C656.049 204.598 655.924 204.145 655.694 203.744L655.287 203.212C654.963 202.892 654.562 202.659 654.123 202.535L654.187 202.553Z" fill="#E0D8C7"/>
<path d="M660.159 212.746C660.477 212.428 660.707 212.033 660.826 211.6C660.944 211.15 660.944 210.678 660.826 210.229L660.565 209.597C660.409 209.298 660.175 209.045 659.888 208.867C659.729 208.704 659.53 208.586 659.31 208.524C658.999 208.363 658.65 208.285 658.3 208.298C657.949 208.286 657.601 208.363 657.289 208.524C656.966 208.632 656.675 208.818 656.441 209.065L656.035 209.597C655.845 209.888 655.739 210.225 655.728 210.572C655.665 210.799 655.665 211.039 655.728 211.266C655.739 211.613 655.845 211.95 656.035 212.24L656.441 212.773C656.766 213.093 657.166 213.325 657.605 213.449L658.3 213.539C658.651 213.557 659 213.479 659.31 213.314C659.529 213.256 659.728 213.14 659.888 212.98C660.173 212.796 660.406 212.541 660.565 212.24L658.327 213.521C658.562 213.545 658.8 213.514 659.022 213.431C659.451 213.31 659.843 213.08 660.159 212.764V212.746Z" fill="#E0D8C7"/>
<path d="M665.322 213.73C665.673 213.751 666.023 213.673 666.332 213.504C666.657 213.406 666.948 213.219 667.171 212.963C667.42 212.734 667.607 212.445 667.713 212.124C667.877 211.814 667.955 211.465 667.938 211.114L667.848 210.419C667.727 209.994 667.5 209.606 667.189 209.291L666.657 208.877C666.257 208.644 665.802 208.523 665.34 208.525C664.989 208.508 664.64 208.586 664.329 208.75C664.003 208.851 663.71 209.038 663.481 209.291C663.232 209.52 663.045 209.809 662.939 210.13C662.774 210.426 662.684 210.757 662.678 211.096L662.777 211.79C662.9 212.225 663.129 212.622 663.445 212.945L663.977 213.36C664.38 213.593 664.838 213.714 665.304 213.712L665.322 213.73Z" fill="#E0D8C7"/>
<path d="M550.145 100.276C552.572 100.276 554.54 98.3095 554.54 95.8833C554.54 93.4571 552.572 91.4902 550.145 91.4902C547.718 91.4902 545.751 93.4571 545.751 95.8833C545.751 98.3095 547.718 100.276 550.145 100.276Z" fill="#E0D8C7"/>
<path d="M529.272 95.8842C529.271 94.9347 529.551 94.0059 530.077 93.2156C530.604 92.4252 531.353 91.8087 532.23 91.4441C533.107 91.0795 534.072 90.9831 535.004 91.1673C535.936 91.3514 536.792 91.8078 537.464 92.4786C538.137 93.1494 538.595 94.0045 538.781 94.9356C538.967 95.8668 538.872 96.8321 538.509 97.7096C538.146 98.587 537.531 99.337 536.741 99.8647C535.951 100.392 535.023 100.674 534.073 100.674C532.801 100.674 531.582 100.17 530.682 99.2718C529.782 98.3737 529.275 97.1554 529.272 95.8842Z" fill="#E0D8C7"/>
<path d="M522.76 108.81C522.76 107.987 523.004 107.183 523.461 106.5C523.918 105.816 524.568 105.283 525.328 104.968C526.088 104.653 526.924 104.571 527.731 104.731C528.538 104.892 529.279 105.288 529.861 105.869C530.443 106.451 530.839 107.192 530.999 107.999C531.16 108.805 531.078 109.641 530.763 110.401C530.448 111.161 529.915 111.811 529.231 112.268C528.547 112.725 527.742 112.968 526.92 112.968C526.373 112.968 525.832 112.861 525.328 112.652C524.823 112.443 524.364 112.137 523.978 111.75C523.592 111.364 523.285 110.906 523.076 110.401C522.867 109.897 522.76 109.356 522.76 108.81Z" fill="#E0D8C7"/>
</svg>
